%TF.GenerationSoftware,KiCad,Pcbnew,9.0.3*%
%TF.CreationDate,2025-10-18T21:50:37+02:00*%
%TF.ProjectId,DaewooBackslotRAMExpansion,44616577-6f6f-4426-9163-6b736c6f7452,1.0*%
%TF.SameCoordinates,Original*%
%TF.FileFunction,Soldermask,Top*%
%TF.FilePolarity,Negative*%
%FSLAX46Y46*%
G04 Gerber Fmt 4.6, Leading zero omitted, Abs format (unit mm)*
G04 Created by KiCad (PCBNEW 9.0.3) date 2025-10-18 21:50:37*
%MOMM*%
%LPD*%
G01*
G04 APERTURE LIST*
G04 Aperture macros list*
%AMRoundRect*
0 Rectangle with rounded corners*
0 $1 Rounding radius*
0 $2 $3 $4 $5 $6 $7 $8 $9 X,Y pos of 4 corners*
0 Add a 4 corners polygon primitive as box body*
4,1,4,$2,$3,$4,$5,$6,$7,$8,$9,$2,$3,0*
0 Add four circle primitives for the rounded corners*
1,1,$1+$1,$2,$3*
1,1,$1+$1,$4,$5*
1,1,$1+$1,$6,$7*
1,1,$1+$1,$8,$9*
0 Add four rect primitives between the rounded corners*
20,1,$1+$1,$2,$3,$4,$5,0*
20,1,$1+$1,$4,$5,$6,$7,0*
20,1,$1+$1,$6,$7,$8,$9,0*
20,1,$1+$1,$8,$9,$2,$3,0*%
%AMFreePoly0*
4,1,23,0.550000,-0.750000,0.000000,-0.750000,0.000000,-0.745722,-0.065263,-0.745722,-0.191342,-0.711940,-0.304381,-0.646677,-0.396677,-0.554381,-0.461940,-0.441342,-0.495722,-0.315263,-0.495722,-0.250000,-0.500000,-0.250000,-0.500000,0.250000,-0.495722,0.250000,-0.495722,0.315263,-0.461940,0.441342,-0.396677,0.554381,-0.304381,0.646677,-0.191342,0.711940,-0.065263,0.745722,0.000000,0.745722,
0.000000,0.750000,0.550000,0.750000,0.550000,-0.750000,0.550000,-0.750000,$1*%
%AMFreePoly1*
4,1,23,0.000000,0.745722,0.065263,0.745722,0.191342,0.711940,0.304381,0.646677,0.396677,0.554381,0.461940,0.441342,0.495722,0.315263,0.495722,0.250000,0.500000,0.250000,0.500000,-0.250000,0.495722,-0.250000,0.495722,-0.315263,0.461940,-0.441342,0.396677,-0.554381,0.304381,-0.646677,0.191342,-0.711940,0.065263,-0.745722,0.000000,-0.745722,0.000000,-0.750000,-0.550000,-0.750000,
-0.550000,0.750000,0.000000,0.750000,0.000000,0.745722,0.000000,0.745722,$1*%
%AMFreePoly2*
4,1,23,0.500000,-0.750000,0.000000,-0.750000,0.000000,-0.745722,-0.065263,-0.745722,-0.191342,-0.711940,-0.304381,-0.646677,-0.396677,-0.554381,-0.461940,-0.441342,-0.495722,-0.315263,-0.495722,-0.250000,-0.500000,-0.250000,-0.500000,0.250000,-0.495722,0.250000,-0.495722,0.315263,-0.461940,0.441342,-0.396677,0.554381,-0.304381,0.646677,-0.191342,0.711940,-0.065263,0.745722,0.000000,0.745722,
0.000000,0.750000,0.500000,0.750000,0.500000,-0.750000,0.500000,-0.750000,$1*%
%AMFreePoly3*
4,1,23,0.000000,0.745722,0.065263,0.745722,0.191342,0.711940,0.304381,0.646677,0.396677,0.554381,0.461940,0.441342,0.495722,0.315263,0.495722,0.250000,0.500000,0.250000,0.500000,-0.250000,0.495722,-0.250000,0.495722,-0.315263,0.461940,-0.441342,0.396677,-0.554381,0.304381,-0.646677,0.191342,-0.711940,0.065263,-0.745722,0.000000,-0.745722,0.000000,-0.750000,-0.500000,-0.750000,
-0.500000,0.750000,0.000000,0.750000,0.000000,0.745722,0.000000,0.745722,$1*%
G04 Aperture macros list end*
%ADD10C,0.000000*%
%ADD11RoundRect,0.225000X0.225000X0.375000X-0.225000X0.375000X-0.225000X-0.375000X0.225000X-0.375000X0*%
%ADD12RoundRect,0.150000X-0.875000X-0.150000X0.875000X-0.150000X0.875000X0.150000X-0.875000X0.150000X0*%
%ADD13RoundRect,0.075000X-0.725000X-0.075000X0.725000X-0.075000X0.725000X0.075000X-0.725000X0.075000X0*%
%ADD14RoundRect,0.075000X-0.075000X-0.725000X0.075000X-0.725000X0.075000X0.725000X-0.075000X0.725000X0*%
%ADD15FreePoly0,90.000000*%
%ADD16R,1.500000X1.000000*%
%ADD17FreePoly1,90.000000*%
%ADD18RoundRect,0.375000X0.375000X-0.625000X0.375000X0.625000X-0.375000X0.625000X-0.375000X-0.625000X0*%
%ADD19RoundRect,0.500000X1.400000X-0.500000X1.400000X0.500000X-1.400000X0.500000X-1.400000X-0.500000X0*%
%ADD20RoundRect,0.250000X0.550000X0.550000X-0.550000X0.550000X-0.550000X-0.550000X0.550000X-0.550000X0*%
%ADD21C,1.600000*%
%ADD22FreePoly2,90.000000*%
%ADD23FreePoly3,90.000000*%
%ADD24RoundRect,0.250000X0.600000X-0.600000X0.600000X0.600000X-0.600000X0.600000X-0.600000X-0.600000X0*%
%ADD25C,1.700000*%
%ADD26R,1.700000X1.700000*%
G04 APERTURE END LIST*
D10*
%TO.C,JP1*%
G36*
X120957566Y-128450000D02*
G01*
X119457566Y-128450000D01*
X119457566Y-126950000D01*
X120957566Y-126950000D01*
X120957566Y-128450000D01*
G37*
%TO.C,JP2*%
G36*
X118707566Y-76650000D02*
G01*
X117207566Y-76650000D01*
X117207566Y-76350000D01*
X118707566Y-76350000D01*
X118707566Y-76650000D01*
G37*
%TD*%
D11*
%TO.C,D1*%
X188900000Y-125700000D03*
X185600000Y-125700000D03*
%TD*%
D12*
%TO.C,U5*%
X140557566Y-74925000D03*
X140557566Y-76195000D03*
X140557566Y-77465000D03*
X140557566Y-78735000D03*
X140557566Y-80005000D03*
X140557566Y-81275000D03*
X140557566Y-82545000D03*
X140557566Y-83815000D03*
X140557566Y-85085000D03*
X140557566Y-86355000D03*
X140557566Y-87625000D03*
X140557566Y-88895000D03*
X140557566Y-90165000D03*
X140557566Y-91435000D03*
X140557566Y-92705000D03*
X140557566Y-93975000D03*
X153657566Y-93975000D03*
X153657566Y-92705000D03*
X153657566Y-91435000D03*
X153657566Y-90165000D03*
X153657566Y-88895000D03*
X153657566Y-87625000D03*
X153657566Y-86355000D03*
X153657566Y-85085000D03*
X153657566Y-83815000D03*
X153657566Y-82545000D03*
X153657566Y-81275000D03*
X153657566Y-80005000D03*
X153657566Y-78735000D03*
X153657566Y-77465000D03*
X153657566Y-76195000D03*
X153657566Y-74925000D03*
%TD*%
D13*
%TO.C,U2*%
X148582566Y-102600000D03*
X148582566Y-103100000D03*
X148582566Y-103600000D03*
X148582566Y-104100000D03*
X148582566Y-104600000D03*
X148582566Y-105100000D03*
X148582566Y-105600000D03*
X148582566Y-106100000D03*
X148582566Y-106600000D03*
X148582566Y-107100000D03*
X148582566Y-107600000D03*
X148582566Y-108100000D03*
X148582566Y-108600000D03*
X148582566Y-109100000D03*
X148582566Y-109600000D03*
X148582566Y-110100000D03*
X148582566Y-110600000D03*
X148582566Y-111100000D03*
X148582566Y-111600000D03*
X148582566Y-112100000D03*
X148582566Y-112600000D03*
X148582566Y-113100000D03*
X148582566Y-113600000D03*
X148582566Y-114100000D03*
X148582566Y-114600000D03*
D14*
X150257566Y-116275000D03*
X150757566Y-116275000D03*
X151257566Y-116275000D03*
X151757566Y-116275000D03*
X152257566Y-116275000D03*
X152757566Y-116275000D03*
X153257566Y-116275000D03*
X153757566Y-116275000D03*
X154257566Y-116275000D03*
X154757566Y-116275000D03*
X155257566Y-116275000D03*
X155757566Y-116275000D03*
X156257566Y-116275000D03*
X156757566Y-116275000D03*
X157257566Y-116275000D03*
X157757566Y-116275000D03*
X158257566Y-116275000D03*
X158757566Y-116275000D03*
X159257566Y-116275000D03*
X159757566Y-116275000D03*
X160257566Y-116275000D03*
X160757566Y-116275000D03*
X161257566Y-116275000D03*
X161757566Y-116275000D03*
X162257566Y-116275000D03*
D13*
X163932566Y-114600000D03*
X163932566Y-114100000D03*
X163932566Y-113600000D03*
X163932566Y-113100000D03*
X163932566Y-112600000D03*
X163932566Y-112100000D03*
X163932566Y-111600000D03*
X163932566Y-111100000D03*
X163932566Y-110600000D03*
X163932566Y-110100000D03*
X163932566Y-109600000D03*
X163932566Y-109100000D03*
X163932566Y-108600000D03*
X163932566Y-108100000D03*
X163932566Y-107600000D03*
X163932566Y-107100000D03*
X163932566Y-106600000D03*
X163932566Y-106100000D03*
X163932566Y-105600000D03*
X163932566Y-105100000D03*
X163932566Y-104600000D03*
X163932566Y-104100000D03*
X163932566Y-103600000D03*
X163932566Y-103100000D03*
X163932566Y-102600000D03*
D14*
X162257566Y-100925000D03*
X161757566Y-100925000D03*
X161257566Y-100925000D03*
X160757566Y-100925000D03*
X160257566Y-100925000D03*
X159757566Y-100925000D03*
X159257566Y-100925000D03*
X158757566Y-100925000D03*
X158257566Y-100925000D03*
X157757566Y-100925000D03*
X157257566Y-100925000D03*
X156757566Y-100925000D03*
X156257566Y-100925000D03*
X155757566Y-100925000D03*
X155257566Y-100925000D03*
X154757566Y-100925000D03*
X154257566Y-100925000D03*
X153757566Y-100925000D03*
X153257566Y-100925000D03*
X152757566Y-100925000D03*
X152257566Y-100925000D03*
X151757566Y-100925000D03*
X151257566Y-100925000D03*
X150757566Y-100925000D03*
X150257566Y-100925000D03*
%TD*%
D15*
%TO.C,JP1*%
X120207566Y-129000000D03*
D16*
X120207566Y-127700000D03*
D17*
X120207566Y-126400000D03*
%TD*%
D18*
%TO.C,U1*%
X178057566Y-128099999D03*
X180357566Y-128099998D03*
D19*
X180357566Y-121800000D03*
D18*
X182657566Y-128099999D03*
%TD*%
D20*
%TO.C,C5*%
X120100000Y-71400000D03*
D21*
X117600000Y-71400000D03*
%TD*%
D20*
%TO.C,C10*%
X171200001Y-125600000D03*
D21*
X169200000Y-125600000D03*
%TD*%
D22*
%TO.C,JP2*%
X117957566Y-77149999D03*
D23*
X117957566Y-75850001D03*
%TD*%
D24*
%TO.C,J1*%
X151177566Y-126840000D03*
D25*
X151177566Y-124300000D03*
X153717566Y-126840000D03*
X153717566Y-124300000D03*
X156257565Y-126840000D03*
X156257566Y-124300000D03*
X158797566Y-126840000D03*
X158797566Y-124300000D03*
X161337566Y-126840000D03*
X161337566Y-124300000D03*
%TD*%
D12*
%TO.C,U4*%
X158757566Y-74925000D03*
X158757566Y-76195000D03*
X158757566Y-77465000D03*
X158757566Y-78735000D03*
X158757566Y-80005000D03*
X158757566Y-81275000D03*
X158757566Y-82545000D03*
X158757566Y-83815000D03*
X158757566Y-85085000D03*
X158757566Y-86355000D03*
X158757566Y-87625000D03*
X158757566Y-88895000D03*
X158757566Y-90165000D03*
X158757566Y-91435000D03*
X158757566Y-92705000D03*
X158757566Y-93975000D03*
X171857566Y-93975000D03*
X171857566Y-92705000D03*
X171857566Y-91435000D03*
X171857566Y-90165000D03*
X171857566Y-88895000D03*
X171857566Y-87625000D03*
X171857566Y-86355000D03*
X171857566Y-85085000D03*
X171857566Y-83815000D03*
X171857566Y-82545000D03*
X171857566Y-81275000D03*
X171857566Y-80005000D03*
X171857566Y-78735000D03*
X171857566Y-77465000D03*
X171857566Y-76195000D03*
X171857566Y-74925000D03*
%TD*%
D26*
%TO.C,BUS1*%
X114157567Y-130579999D03*
D25*
X111617566Y-130579999D03*
X114157566Y-128040000D03*
X111617566Y-128040000D03*
X114157566Y-125500000D03*
X111617566Y-125500000D03*
X114157566Y-122960000D03*
X111617566Y-122960000D03*
X114157567Y-120420000D03*
X111617566Y-120420000D03*
X114157566Y-117879999D03*
X111617566Y-117879999D03*
X114157566Y-115340000D03*
X111617566Y-115340000D03*
X114157566Y-112800000D03*
X111617566Y-112800000D03*
X114157567Y-110260000D03*
X111617566Y-110260000D03*
X114157567Y-107719999D03*
X111617566Y-107719999D03*
X114157566Y-105180000D03*
X111617566Y-105180000D03*
X114157566Y-102640000D03*
X111617566Y-102640000D03*
X114157567Y-100100000D03*
X111617566Y-100100000D03*
X114157567Y-97560000D03*
X111617566Y-97559999D03*
X114157566Y-95019999D03*
X111617566Y-95019999D03*
X114157566Y-92480000D03*
X111617566Y-92480000D03*
X114157566Y-89940000D03*
X111617566Y-89940000D03*
X114157567Y-87400000D03*
X111617566Y-87400000D03*
X114157567Y-84859999D03*
X111617566Y-84859999D03*
X114157566Y-82320000D03*
X111617566Y-82320000D03*
X114157566Y-79780000D03*
X111617566Y-79780000D03*
X114157567Y-77240000D03*
X111617566Y-77240000D03*
X114157566Y-74699999D03*
X111617566Y-74699999D03*
X114157566Y-72160000D03*
X111617566Y-72160000D03*
X114157566Y-69620000D03*
X111617566Y-69620000D03*
%TD*%
D12*
%TO.C,U3*%
X176957566Y-74925000D03*
X176957566Y-76195000D03*
X176957566Y-77465000D03*
X176957566Y-78735000D03*
X176957566Y-80005000D03*
X176957566Y-81275000D03*
X176957566Y-82545000D03*
X176957566Y-83815000D03*
X176957566Y-85085000D03*
X176957566Y-86355000D03*
X176957566Y-87625000D03*
X176957566Y-88895000D03*
X176957566Y-90165000D03*
X176957566Y-91435000D03*
X176957566Y-92705000D03*
X176957566Y-93975000D03*
X190057566Y-93975000D03*
X190057566Y-92705000D03*
X190057566Y-91435000D03*
X190057566Y-90165000D03*
X190057566Y-88895000D03*
X190057566Y-87625000D03*
X190057566Y-86355000D03*
X190057566Y-85085000D03*
X190057566Y-83815000D03*
X190057566Y-82545000D03*
X190057566Y-81275000D03*
X190057566Y-80005000D03*
X190057566Y-78735000D03*
X190057566Y-77465000D03*
X190057566Y-76195000D03*
X190057566Y-74925000D03*
%TD*%
%TO.C,U6*%
X122357566Y-74925000D03*
X122357566Y-76195000D03*
X122357566Y-77465000D03*
X122357566Y-78735000D03*
X122357566Y-80005000D03*
X122357566Y-81275000D03*
X122357566Y-82545000D03*
X122357566Y-83815000D03*
X122357566Y-85085000D03*
X122357566Y-86355000D03*
X122357566Y-87625000D03*
X122357566Y-88895000D03*
X122357566Y-90165000D03*
X122357566Y-91435000D03*
X122357566Y-92705000D03*
X122357566Y-93975000D03*
X135457566Y-93975000D03*
X135457566Y-92705000D03*
X135457566Y-91435000D03*
X135457566Y-90165000D03*
X135457566Y-88895000D03*
X135457566Y-87625000D03*
X135457566Y-86355000D03*
X135457566Y-85085000D03*
X135457566Y-83815000D03*
X135457566Y-82545000D03*
X135457566Y-81275000D03*
X135457566Y-80005000D03*
X135457566Y-78735000D03*
X135457566Y-77465000D03*
X135457566Y-76195000D03*
X135457566Y-74925000D03*
%TD*%
M02*
