M48
; DRILL file {KiCad 9.0.3} date 2025-10-18T21:50:35+0200
; FORMAT={-:-/ absolute / inch / decimal}
; #@! TF.CreationDate,2025-10-18T21:50:35+02:00
; #@! TF.GenerationSoftware,Kicad,Pcbnew,9.0.3
; #@! TF.FileFunction,Plated,1,2,PTH
FMAT,2
INCH
; #@! TA.AperFunction,Plated,PTH,ViaDrill
T1C0.0118
; #@! TA.AperFunction,Plated,PTH,ComponentDrill
T2C0.0315
; #@! TA.AperFunction,Plated,PTH,ComponentDrill
T3C0.0394
%
G90
G05
T1
X4.4471Y-3.185
X4.5416Y-3.2913
X4.5431Y-3.3872
X4.5591Y-2.8465
X4.5591Y-2.8819
X4.5771Y-4.5906
X4.5771Y-5.1496
X4.6283Y-3.622
X4.6676Y-3.6614
X4.6716Y-3.248
X4.6716Y-3.2913
X4.766Y-4.3671
X4.8797Y-3.374
X4.8802Y-3.0236
X4.8802Y-3.0748
X4.8802Y-3.124
X4.8802Y-3.1752
X4.8802Y-3.2244
X4.8802Y-3.2746
X4.8802Y-3.3244
X4.8802Y-3.4252
X4.8802Y-3.4724
X4.8802Y-3.5236
X4.8802Y-3.5728
X4.8802Y-3.624
X4.8802Y-3.6752
X4.9313Y-3.6244
X4.9559Y-3.5744
X5.0771Y-3.2746
X5.0771Y-3.3244
X5.0771Y-3.375
X5.0771Y-3.4244
X5.0771Y-3.4744
X5.0771Y-3.5244
X5.081Y-2.8169
X5.1385Y-3.1491
X5.1581Y-3.1991
X5.1991Y-3.1244
X5.2174Y-3.1762
X5.2176Y-3.2254
X5.2188Y-3.2992
X5.2197Y-3.3996
X5.2374Y-3.2498
X5.333Y-2.8484
X5.4036Y-3.5
X5.4036Y-3.5493
X5.4036Y-3.5985
X5.4036Y-3.6496
X5.4036Y-3.7008
X5.4157Y-4.0394
X5.4157Y-4.4331
X5.4157Y-5.1024
X5.4233Y-3.0493
X5.4233Y-3.1004
X5.4233Y-3.1496
X5.4233Y-3.2008
X5.4233Y-3.25
X5.4233Y-3.2993
X5.4233Y-3.3504
X5.4233Y-3.3996
X5.4235Y-2.9998
X5.4708Y-3.4252
X5.4708Y-3.4744
X5.4708Y-3.5256
X5.4708Y-3.5748
X5.4708Y-3.626
X5.4718Y-3.0256
X5.4718Y-3.0748
X5.4718Y-3.124
X5.4718Y-3.1752
X5.4718Y-3.2244
X5.4718Y-3.2756
X5.4718Y-3.3248
X5.4718Y-3.374
X5.4718Y-3.6752
X5.5023Y-4.5906
X5.5338Y-3.7598
X5.5968Y-3.4744
X5.5968Y-3.5236
X5.5968Y-3.5748
X5.5968Y-3.624
X5.5968Y-3.6752
X5.6637Y-4.2717
X5.6637Y-4.3071
X5.7464Y-4.6181
X5.77Y-4.9409
X5.7759Y-4.779
X5.7956Y-2.8169
X5.831Y-4.7362
X5.8664Y-4.815
X5.9058Y-4.2362
X5.9373Y-4.2756
X5.959Y-3.7598
X6.0495Y-2.8504
X6.0653Y-4.6299
X6.081Y-3.7598
X6.0928Y-4.5236
X6.1322Y-4.0256
X6.1399Y-3.0494
X6.1399Y-3.1006
X6.1399Y-3.1498
X6.1399Y-3.201
X6.1399Y-3.2502
X6.1399Y-3.2994
X6.1399Y-3.3506
X6.1399Y-3.3998
X6.1399Y-3.5002
X6.1399Y-3.5494
X6.1399Y-3.5986
X6.1399Y-3.6498
X6.1399Y-3.701
X6.1401Y-3.0
X6.1401Y-4.6299
X6.1519Y-4.1535
X6.1519Y-4.4055
X6.1873Y-3.4744
X6.1873Y-3.5256
X6.1873Y-3.5748
X6.1873Y-3.626
X6.1883Y-3.6752
X6.2109Y-4.0256
X6.2109Y-4.5236
X6.2188Y-4.6299
X6.2503Y-3.7559
X6.2503Y-4.6299
X6.3133Y-3.4744
X6.3133Y-3.5236
X6.3133Y-3.5748
X6.3133Y-3.624
X6.3133Y-3.6752
X6.329Y-3.9134
X6.3487Y-4.5236
X6.3684Y-4.2756
X6.3999Y-4.1181
X6.4019Y-4.3031
X6.4196Y-4.0079
X6.5101Y-2.8169
X6.5338Y-4.9409
X6.6141Y-3.7029
X6.631Y-3.6763
X6.6479Y-3.6498
X6.6675Y-3.6251
X6.6794Y-4.2441
X6.6794Y-4.3425
X6.6863Y-3.5998
X6.7109Y-3.574
X6.7424Y-4.2441
X6.7424Y-4.3425
X6.766Y-2.8484
X6.77Y-3.7559
X6.8212Y-4.9252
X6.8544Y-3.0493
X6.8544Y-3.1004
X6.8544Y-3.1496
X6.8544Y-3.2008
X6.8544Y-3.25
X6.8544Y-3.2993
X6.8544Y-3.3504
X6.8544Y-3.3996
X6.8544Y-3.5
X6.8544Y-3.5493
X6.8544Y-3.5985
X6.8544Y-3.6496
X6.8544Y-3.7008
X6.8546Y-2.9998
X6.9038Y-3.4744
X6.9038Y-3.5256
X6.9038Y-3.5748
X6.9038Y-3.626
X6.9048Y-3.6752
X6.9668Y-3.7559
X7.0304Y-3.5494
X7.0338Y-4.0079
X7.0653Y-3.5002
X7.1007Y-3.4488
X7.1361Y-3.3998
X7.1724Y-3.3506
X7.2079Y-3.2994
X7.2247Y-2.8169
X7.2451Y-3.2502
X7.2807Y-3.201
X7.3162Y-3.1498
X7.3408Y-4.5197
X7.3408Y-4.878
X7.3408Y-5.1024
X7.3517Y-3.1006
X7.4017Y-3.0494
X7.4017Y-3.1006
X7.4017Y-3.1498
X7.4017Y-3.201
X7.4017Y-3.2502
X7.4017Y-3.2994
X7.4017Y-3.3506
X7.4017Y-3.3998
X7.4017Y-3.5002
X7.4017Y-3.5494
X7.4017Y-3.5986
X7.4017Y-3.6498
X7.4017Y-3.701
X7.4019Y-3.0
X7.4038Y-3.4488
X7.5928Y-2.8465
X7.6322Y-2.7559
X7.6361Y-4.7835
T2
X4.6299Y-2.811
X4.7283Y-2.811
X6.6614Y-4.9449
X6.7402Y-4.9449
T3
X4.3944Y-2.7409
X4.3944Y-2.8409
X4.3944Y-2.9409
X4.3944Y-3.0409
X4.3944Y-3.1409
X4.3944Y-3.2409
X4.3944Y-3.3409
X4.3944Y-3.4409
X4.3944Y-3.5409
X4.3944Y-3.6409
X4.3944Y-3.7409
X4.3944Y-3.8409
X4.3944Y-3.9409
X4.3944Y-4.0409
X4.3944Y-4.1409
X4.3944Y-4.2409
X4.3944Y-4.3409
X4.3944Y-4.4409
X4.3944Y-4.5409
X4.3944Y-4.6409
X4.3944Y-4.7409
X4.3944Y-4.8409
X4.3944Y-4.9409
X4.3944Y-5.0409
X4.3944Y-5.1409
X4.4944Y-2.7409
X4.4944Y-2.8409
X4.4944Y-2.9409
X4.4944Y-3.1409
X4.4944Y-3.2409
X4.4944Y-3.5409
X4.4944Y-3.6409
X4.4944Y-3.7409
X4.4944Y-4.0409
X4.4944Y-4.1409
X4.4944Y-4.4409
X4.4944Y-4.5409
X4.4944Y-4.6409
X4.4944Y-4.8409
X4.4944Y-4.9409
X4.4944Y-5.0409
X4.4944Y-3.0409
X4.4944Y-3.3409
X4.4944Y-3.4409
X4.4944Y-3.8409
X4.4944Y-3.9409
X4.4944Y-4.2409
X4.4944Y-4.3409
X4.4944Y-4.7409
X4.4944Y-5.1409
X5.9519Y-4.8937
X5.9519Y-4.9937
X6.0519Y-4.8937
X6.0519Y-4.9937
X6.1519Y-4.9937
X6.1519Y-4.8937
X6.2519Y-4.8937
X6.2519Y-4.9937
X6.3519Y-4.8937
X6.3519Y-4.9937
M30
