%TF.GenerationSoftware,KiCad,Pcbnew,9.0.3*%
%TF.CreationDate,2025-10-18T21:50:37+02:00*%
%TF.ProjectId,DaewooBackslotRAMExpansion,44616577-6f6f-4426-9163-6b736c6f7452,1.0*%
%TF.SameCoordinates,Original*%
%TF.FileFunction,Legend,Bot*%
%TF.FilePolarity,Positive*%
%FSLAX46Y46*%
G04 Gerber Fmt 4.6, Leading zero omitted, Abs format (unit mm)*
G04 Created by KiCad (PCBNEW 9.0.3) date 2025-10-18 21:50:37*
%MOMM*%
%LPD*%
G01*
G04 APERTURE LIST*
%ADD10C,0.300000*%
%ADD11C,0.100000*%
%ADD12C,0.125000*%
%ADD13C,0.200000*%
%ADD14C,0.150000*%
%ADD15C,0.120000*%
%ADD16C,0.000000*%
G04 APERTURE END LIST*
D10*
X158257566Y-104000000D02*
G75*
G02*
X154257566Y-104000000I-2000000J0D01*
G01*
X154257566Y-104000000D02*
G75*
G02*
X158257566Y-104000000I2000000J0D01*
G01*
D11*
X149847566Y-115410000D02*
X162657566Y-115410000D01*
X162657566Y-121900000D01*
X149847566Y-121900000D01*
X149847566Y-115410000D01*
D12*
X155282472Y-116171118D02*
X154663425Y-116171118D01*
X154663425Y-116171118D02*
X154996758Y-116552070D01*
X154996758Y-116552070D02*
X154853901Y-116552070D01*
X154853901Y-116552070D02*
X154758663Y-116599689D01*
X154758663Y-116599689D02*
X154711044Y-116647308D01*
X154711044Y-116647308D02*
X154663425Y-116742546D01*
X154663425Y-116742546D02*
X154663425Y-116980641D01*
X154663425Y-116980641D02*
X154711044Y-117075879D01*
X154711044Y-117075879D02*
X154758663Y-117123499D01*
X154758663Y-117123499D02*
X154853901Y-117171118D01*
X154853901Y-117171118D02*
X155139615Y-117171118D01*
X155139615Y-117171118D02*
X155234853Y-117123499D01*
X155234853Y-117123499D02*
X155282472Y-117075879D01*
X157634853Y-116266357D02*
X157587234Y-116218738D01*
X157587234Y-116218738D02*
X157491996Y-116171119D01*
X157491996Y-116171119D02*
X157253901Y-116171119D01*
X157253901Y-116171119D02*
X157158663Y-116218738D01*
X157158663Y-116218738D02*
X157111044Y-116266357D01*
X157111044Y-116266357D02*
X157063425Y-116361595D01*
X157063425Y-116361595D02*
X157063425Y-116456833D01*
X157063425Y-116456833D02*
X157111044Y-116599690D01*
X157111044Y-116599690D02*
X157682472Y-117171119D01*
X157682472Y-117171119D02*
X157063425Y-117171119D01*
D10*
X157145912Y-103035162D02*
X156622102Y-105235162D01*
X156622102Y-105235162D02*
X156203055Y-103663734D01*
X156203055Y-103663734D02*
X155784007Y-105235162D01*
X155784007Y-105235162D02*
X155260198Y-103035162D01*
D12*
X159463425Y-117171119D02*
X160034853Y-117171119D01*
X159749139Y-117171119D02*
X159749139Y-116171119D01*
X159749139Y-116171119D02*
X159844377Y-116313976D01*
X159844377Y-116313976D02*
X159939615Y-116409214D01*
X159939615Y-116409214D02*
X160034853Y-116456833D01*
D13*
X166973607Y-113506695D02*
X167035511Y-113568600D01*
X167035511Y-113568600D02*
X167221226Y-113630504D01*
X167221226Y-113630504D02*
X167345035Y-113630504D01*
X167345035Y-113630504D02*
X167530749Y-113568600D01*
X167530749Y-113568600D02*
X167654559Y-113444790D01*
X167654559Y-113444790D02*
X167716464Y-113320980D01*
X167716464Y-113320980D02*
X167778368Y-113073361D01*
X167778368Y-113073361D02*
X167778368Y-112887647D01*
X167778368Y-112887647D02*
X167716464Y-112640028D01*
X167716464Y-112640028D02*
X167654559Y-112516219D01*
X167654559Y-112516219D02*
X167530749Y-112392409D01*
X167530749Y-112392409D02*
X167345035Y-112330504D01*
X167345035Y-112330504D02*
X167221226Y-112330504D01*
X167221226Y-112330504D02*
X167035511Y-112392409D01*
X167035511Y-112392409D02*
X166973607Y-112454314D01*
X166230749Y-113630504D02*
X166354559Y-113568600D01*
X166354559Y-113568600D02*
X166416464Y-113506695D01*
X166416464Y-113506695D02*
X166478368Y-113382885D01*
X166478368Y-113382885D02*
X166478368Y-113011457D01*
X166478368Y-113011457D02*
X166416464Y-112887647D01*
X166416464Y-112887647D02*
X166354559Y-112825742D01*
X166354559Y-112825742D02*
X166230749Y-112763838D01*
X166230749Y-112763838D02*
X166045035Y-112763838D01*
X166045035Y-112763838D02*
X165921226Y-112825742D01*
X165921226Y-112825742D02*
X165859321Y-112887647D01*
X165859321Y-112887647D02*
X165797416Y-113011457D01*
X165797416Y-113011457D02*
X165797416Y-113382885D01*
X165797416Y-113382885D02*
X165859321Y-113506695D01*
X165859321Y-113506695D02*
X165921226Y-113568600D01*
X165921226Y-113568600D02*
X166045035Y-113630504D01*
X166045035Y-113630504D02*
X166230749Y-113630504D01*
X165240274Y-112763838D02*
X165240274Y-114063838D01*
X165240274Y-112825742D02*
X165116464Y-112763838D01*
X165116464Y-112763838D02*
X164868845Y-112763838D01*
X164868845Y-112763838D02*
X164745036Y-112825742D01*
X164745036Y-112825742D02*
X164683131Y-112887647D01*
X164683131Y-112887647D02*
X164621226Y-113011457D01*
X164621226Y-113011457D02*
X164621226Y-113382885D01*
X164621226Y-113382885D02*
X164683131Y-113506695D01*
X164683131Y-113506695D02*
X164745036Y-113568600D01*
X164745036Y-113568600D02*
X164868845Y-113630504D01*
X164868845Y-113630504D02*
X165116464Y-113630504D01*
X165116464Y-113630504D02*
X165240274Y-113568600D01*
X164187893Y-112763838D02*
X163878369Y-113630504D01*
X163568846Y-112763838D02*
X163878369Y-113630504D01*
X163878369Y-113630504D02*
X164002179Y-113940028D01*
X164002179Y-113940028D02*
X164064084Y-114001933D01*
X164064084Y-114001933D02*
X164187893Y-114063838D01*
X163073608Y-113630504D02*
X163073608Y-112763838D01*
X163073608Y-113011457D02*
X163011703Y-112887647D01*
X163011703Y-112887647D02*
X162949798Y-112825742D01*
X162949798Y-112825742D02*
X162825989Y-112763838D01*
X162825989Y-112763838D02*
X162702179Y-112763838D01*
X162268846Y-113630504D02*
X162268846Y-112763838D01*
X162268846Y-112330504D02*
X162330750Y-112392409D01*
X162330750Y-112392409D02*
X162268846Y-112454314D01*
X162268846Y-112454314D02*
X162206941Y-112392409D01*
X162206941Y-112392409D02*
X162268846Y-112330504D01*
X162268846Y-112330504D02*
X162268846Y-112454314D01*
X161092655Y-112763838D02*
X161092655Y-113816219D01*
X161092655Y-113816219D02*
X161154560Y-113940028D01*
X161154560Y-113940028D02*
X161216464Y-114001933D01*
X161216464Y-114001933D02*
X161340274Y-114063838D01*
X161340274Y-114063838D02*
X161525988Y-114063838D01*
X161525988Y-114063838D02*
X161649798Y-114001933D01*
X161092655Y-113568600D02*
X161216464Y-113630504D01*
X161216464Y-113630504D02*
X161464083Y-113630504D01*
X161464083Y-113630504D02*
X161587893Y-113568600D01*
X161587893Y-113568600D02*
X161649798Y-113506695D01*
X161649798Y-113506695D02*
X161711702Y-113382885D01*
X161711702Y-113382885D02*
X161711702Y-113011457D01*
X161711702Y-113011457D02*
X161649798Y-112887647D01*
X161649798Y-112887647D02*
X161587893Y-112825742D01*
X161587893Y-112825742D02*
X161464083Y-112763838D01*
X161464083Y-112763838D02*
X161216464Y-112763838D01*
X161216464Y-112763838D02*
X161092655Y-112825742D01*
X160473608Y-113630504D02*
X160473608Y-112330504D01*
X159916465Y-113630504D02*
X159916465Y-112949552D01*
X159916465Y-112949552D02*
X159978370Y-112825742D01*
X159978370Y-112825742D02*
X160102179Y-112763838D01*
X160102179Y-112763838D02*
X160287893Y-112763838D01*
X160287893Y-112763838D02*
X160411703Y-112825742D01*
X160411703Y-112825742D02*
X160473608Y-112887647D01*
X159483132Y-112763838D02*
X158987894Y-112763838D01*
X159297418Y-112330504D02*
X159297418Y-113444790D01*
X159297418Y-113444790D02*
X159235513Y-113568600D01*
X159235513Y-113568600D02*
X159111703Y-113630504D01*
X159111703Y-113630504D02*
X158987894Y-113630504D01*
X157192656Y-114125742D02*
X157254561Y-114063838D01*
X157254561Y-114063838D02*
X157378370Y-113878123D01*
X157378370Y-113878123D02*
X157440275Y-113754314D01*
X157440275Y-113754314D02*
X157502180Y-113568600D01*
X157502180Y-113568600D02*
X157564085Y-113259076D01*
X157564085Y-113259076D02*
X157564085Y-113011457D01*
X157564085Y-113011457D02*
X157502180Y-112701933D01*
X157502180Y-112701933D02*
X157440275Y-112516219D01*
X157440275Y-112516219D02*
X157378370Y-112392409D01*
X157378370Y-112392409D02*
X157254561Y-112206695D01*
X157254561Y-112206695D02*
X157192656Y-112144790D01*
X156140275Y-113568600D02*
X156264084Y-113630504D01*
X156264084Y-113630504D02*
X156511703Y-113630504D01*
X156511703Y-113630504D02*
X156635513Y-113568600D01*
X156635513Y-113568600D02*
X156697418Y-113506695D01*
X156697418Y-113506695D02*
X156759322Y-113382885D01*
X156759322Y-113382885D02*
X156759322Y-113011457D01*
X156759322Y-113011457D02*
X156697418Y-112887647D01*
X156697418Y-112887647D02*
X156635513Y-112825742D01*
X156635513Y-112825742D02*
X156511703Y-112763838D01*
X156511703Y-112763838D02*
X156264084Y-112763838D01*
X156264084Y-112763838D02*
X156140275Y-112825742D01*
X155706941Y-114125742D02*
X155645036Y-114063838D01*
X155645036Y-114063838D02*
X155521227Y-113878123D01*
X155521227Y-113878123D02*
X155459322Y-113754314D01*
X155459322Y-113754314D02*
X155397417Y-113568600D01*
X155397417Y-113568600D02*
X155335513Y-113259076D01*
X155335513Y-113259076D02*
X155335513Y-113011457D01*
X155335513Y-113011457D02*
X155397417Y-112701933D01*
X155397417Y-112701933D02*
X155459322Y-112516219D01*
X155459322Y-112516219D02*
X155521227Y-112392409D01*
X155521227Y-112392409D02*
X155645036Y-112206695D01*
X155645036Y-112206695D02*
X155706941Y-112144790D01*
X153787893Y-112454314D02*
X153725989Y-112392409D01*
X153725989Y-112392409D02*
X153602179Y-112330504D01*
X153602179Y-112330504D02*
X153292655Y-112330504D01*
X153292655Y-112330504D02*
X153168846Y-112392409D01*
X153168846Y-112392409D02*
X153106941Y-112454314D01*
X153106941Y-112454314D02*
X153045036Y-112578123D01*
X153045036Y-112578123D02*
X153045036Y-112701933D01*
X153045036Y-112701933D02*
X153106941Y-112887647D01*
X153106941Y-112887647D02*
X153849798Y-113630504D01*
X153849798Y-113630504D02*
X153045036Y-113630504D01*
X152240275Y-112330504D02*
X152116465Y-112330504D01*
X152116465Y-112330504D02*
X151992656Y-112392409D01*
X151992656Y-112392409D02*
X151930751Y-112454314D01*
X151930751Y-112454314D02*
X151868846Y-112578123D01*
X151868846Y-112578123D02*
X151806941Y-112825742D01*
X151806941Y-112825742D02*
X151806941Y-113135266D01*
X151806941Y-113135266D02*
X151868846Y-113382885D01*
X151868846Y-113382885D02*
X151930751Y-113506695D01*
X151930751Y-113506695D02*
X151992656Y-113568600D01*
X151992656Y-113568600D02*
X152116465Y-113630504D01*
X152116465Y-113630504D02*
X152240275Y-113630504D01*
X152240275Y-113630504D02*
X152364084Y-113568600D01*
X152364084Y-113568600D02*
X152425989Y-113506695D01*
X152425989Y-113506695D02*
X152487894Y-113382885D01*
X152487894Y-113382885D02*
X152549798Y-113135266D01*
X152549798Y-113135266D02*
X152549798Y-112825742D01*
X152549798Y-112825742D02*
X152487894Y-112578123D01*
X152487894Y-112578123D02*
X152425989Y-112454314D01*
X152425989Y-112454314D02*
X152364084Y-112392409D01*
X152364084Y-112392409D02*
X152240275Y-112330504D01*
X151311703Y-112454314D02*
X151249799Y-112392409D01*
X151249799Y-112392409D02*
X151125989Y-112330504D01*
X151125989Y-112330504D02*
X150816465Y-112330504D01*
X150816465Y-112330504D02*
X150692656Y-112392409D01*
X150692656Y-112392409D02*
X150630751Y-112454314D01*
X150630751Y-112454314D02*
X150568846Y-112578123D01*
X150568846Y-112578123D02*
X150568846Y-112701933D01*
X150568846Y-112701933D02*
X150630751Y-112887647D01*
X150630751Y-112887647D02*
X151373608Y-113630504D01*
X151373608Y-113630504D02*
X150568846Y-113630504D01*
X149392656Y-112330504D02*
X150011704Y-112330504D01*
X150011704Y-112330504D02*
X150073608Y-112949552D01*
X150073608Y-112949552D02*
X150011704Y-112887647D01*
X150011704Y-112887647D02*
X149887894Y-112825742D01*
X149887894Y-112825742D02*
X149578370Y-112825742D01*
X149578370Y-112825742D02*
X149454561Y-112887647D01*
X149454561Y-112887647D02*
X149392656Y-112949552D01*
X149392656Y-112949552D02*
X149330751Y-113073361D01*
X149330751Y-113073361D02*
X149330751Y-113382885D01*
X149330751Y-113382885D02*
X149392656Y-113506695D01*
X149392656Y-113506695D02*
X149454561Y-113568600D01*
X149454561Y-113568600D02*
X149578370Y-113630504D01*
X149578370Y-113630504D02*
X149887894Y-113630504D01*
X149887894Y-113630504D02*
X150011704Y-113568600D01*
X150011704Y-113568600D02*
X150073608Y-113506695D01*
X147040276Y-113630504D02*
X147473609Y-113011457D01*
X147783133Y-113630504D02*
X147783133Y-112330504D01*
X147783133Y-112330504D02*
X147287895Y-112330504D01*
X147287895Y-112330504D02*
X147164085Y-112392409D01*
X147164085Y-112392409D02*
X147102180Y-112454314D01*
X147102180Y-112454314D02*
X147040276Y-112578123D01*
X147040276Y-112578123D02*
X147040276Y-112763838D01*
X147040276Y-112763838D02*
X147102180Y-112887647D01*
X147102180Y-112887647D02*
X147164085Y-112949552D01*
X147164085Y-112949552D02*
X147287895Y-113011457D01*
X147287895Y-113011457D02*
X147783133Y-113011457D01*
X146049799Y-112949552D02*
X145864085Y-113011457D01*
X145864085Y-113011457D02*
X145802180Y-113073361D01*
X145802180Y-113073361D02*
X145740276Y-113197171D01*
X145740276Y-113197171D02*
X145740276Y-113382885D01*
X145740276Y-113382885D02*
X145802180Y-113506695D01*
X145802180Y-113506695D02*
X145864085Y-113568600D01*
X145864085Y-113568600D02*
X145987895Y-113630504D01*
X145987895Y-113630504D02*
X146483133Y-113630504D01*
X146483133Y-113630504D02*
X146483133Y-112330504D01*
X146483133Y-112330504D02*
X146049799Y-112330504D01*
X146049799Y-112330504D02*
X145925990Y-112392409D01*
X145925990Y-112392409D02*
X145864085Y-112454314D01*
X145864085Y-112454314D02*
X145802180Y-112578123D01*
X145802180Y-112578123D02*
X145802180Y-112701933D01*
X145802180Y-112701933D02*
X145864085Y-112825742D01*
X145864085Y-112825742D02*
X145925990Y-112887647D01*
X145925990Y-112887647D02*
X146049799Y-112949552D01*
X146049799Y-112949552D02*
X146483133Y-112949552D01*
X145245037Y-113568600D02*
X145059323Y-113630504D01*
X145059323Y-113630504D02*
X144749799Y-113630504D01*
X144749799Y-113630504D02*
X144625990Y-113568600D01*
X144625990Y-113568600D02*
X144564085Y-113506695D01*
X144564085Y-113506695D02*
X144502180Y-113382885D01*
X144502180Y-113382885D02*
X144502180Y-113259076D01*
X144502180Y-113259076D02*
X144564085Y-113135266D01*
X144564085Y-113135266D02*
X144625990Y-113073361D01*
X144625990Y-113073361D02*
X144749799Y-113011457D01*
X144749799Y-113011457D02*
X144997418Y-112949552D01*
X144997418Y-112949552D02*
X145121228Y-112887647D01*
X145121228Y-112887647D02*
X145183133Y-112825742D01*
X145183133Y-112825742D02*
X145245037Y-112701933D01*
X145245037Y-112701933D02*
X145245037Y-112578123D01*
X145245037Y-112578123D02*
X145183133Y-112454314D01*
X145183133Y-112454314D02*
X145121228Y-112392409D01*
X145121228Y-112392409D02*
X144997418Y-112330504D01*
X144997418Y-112330504D02*
X144687895Y-112330504D01*
X144687895Y-112330504D02*
X144502180Y-112392409D01*
X143202181Y-113506695D02*
X143264085Y-113568600D01*
X143264085Y-113568600D02*
X143449800Y-113630504D01*
X143449800Y-113630504D02*
X143573609Y-113630504D01*
X143573609Y-113630504D02*
X143759323Y-113568600D01*
X143759323Y-113568600D02*
X143883133Y-113444790D01*
X143883133Y-113444790D02*
X143945038Y-113320980D01*
X143945038Y-113320980D02*
X144006942Y-113073361D01*
X144006942Y-113073361D02*
X144006942Y-112887647D01*
X144006942Y-112887647D02*
X143945038Y-112640028D01*
X143945038Y-112640028D02*
X143883133Y-112516219D01*
X143883133Y-112516219D02*
X143759323Y-112392409D01*
X143759323Y-112392409D02*
X143573609Y-112330504D01*
X143573609Y-112330504D02*
X143449800Y-112330504D01*
X143449800Y-112330504D02*
X143264085Y-112392409D01*
X143264085Y-112392409D02*
X143202181Y-112454314D01*
X164633130Y-76499552D02*
X164447416Y-76561457D01*
X164447416Y-76561457D02*
X164385511Y-76623361D01*
X164385511Y-76623361D02*
X164323607Y-76747171D01*
X164323607Y-76747171D02*
X164323607Y-76932885D01*
X164323607Y-76932885D02*
X164385511Y-77056695D01*
X164385511Y-77056695D02*
X164447416Y-77118600D01*
X164447416Y-77118600D02*
X164571226Y-77180504D01*
X164571226Y-77180504D02*
X165066464Y-77180504D01*
X165066464Y-77180504D02*
X165066464Y-75880504D01*
X165066464Y-75880504D02*
X164633130Y-75880504D01*
X164633130Y-75880504D02*
X164509321Y-75942409D01*
X164509321Y-75942409D02*
X164447416Y-76004314D01*
X164447416Y-76004314D02*
X164385511Y-76128123D01*
X164385511Y-76128123D02*
X164385511Y-76251933D01*
X164385511Y-76251933D02*
X164447416Y-76375742D01*
X164447416Y-76375742D02*
X164509321Y-76437647D01*
X164509321Y-76437647D02*
X164633130Y-76499552D01*
X164633130Y-76499552D02*
X165066464Y-76499552D01*
X163580749Y-77180504D02*
X163704559Y-77118600D01*
X163704559Y-77118600D02*
X163766464Y-77056695D01*
X163766464Y-77056695D02*
X163828368Y-76932885D01*
X163828368Y-76932885D02*
X163828368Y-76561457D01*
X163828368Y-76561457D02*
X163766464Y-76437647D01*
X163766464Y-76437647D02*
X163704559Y-76375742D01*
X163704559Y-76375742D02*
X163580749Y-76313838D01*
X163580749Y-76313838D02*
X163395035Y-76313838D01*
X163395035Y-76313838D02*
X163271226Y-76375742D01*
X163271226Y-76375742D02*
X163209321Y-76437647D01*
X163209321Y-76437647D02*
X163147416Y-76561457D01*
X163147416Y-76561457D02*
X163147416Y-76932885D01*
X163147416Y-76932885D02*
X163209321Y-77056695D01*
X163209321Y-77056695D02*
X163271226Y-77118600D01*
X163271226Y-77118600D02*
X163395035Y-77180504D01*
X163395035Y-77180504D02*
X163580749Y-77180504D01*
X162033131Y-77180504D02*
X162033131Y-76499552D01*
X162033131Y-76499552D02*
X162095036Y-76375742D01*
X162095036Y-76375742D02*
X162218845Y-76313838D01*
X162218845Y-76313838D02*
X162466464Y-76313838D01*
X162466464Y-76313838D02*
X162590274Y-76375742D01*
X162033131Y-77118600D02*
X162156940Y-77180504D01*
X162156940Y-77180504D02*
X162466464Y-77180504D01*
X162466464Y-77180504D02*
X162590274Y-77118600D01*
X162590274Y-77118600D02*
X162652178Y-76994790D01*
X162652178Y-76994790D02*
X162652178Y-76870980D01*
X162652178Y-76870980D02*
X162590274Y-76747171D01*
X162590274Y-76747171D02*
X162466464Y-76685266D01*
X162466464Y-76685266D02*
X162156940Y-76685266D01*
X162156940Y-76685266D02*
X162033131Y-76623361D01*
X161414084Y-77180504D02*
X161414084Y-76313838D01*
X161414084Y-76561457D02*
X161352179Y-76437647D01*
X161352179Y-76437647D02*
X161290274Y-76375742D01*
X161290274Y-76375742D02*
X161166465Y-76313838D01*
X161166465Y-76313838D02*
X161042655Y-76313838D01*
X160052179Y-77180504D02*
X160052179Y-75880504D01*
X160052179Y-77118600D02*
X160175988Y-77180504D01*
X160175988Y-77180504D02*
X160423607Y-77180504D01*
X160423607Y-77180504D02*
X160547417Y-77118600D01*
X160547417Y-77118600D02*
X160609322Y-77056695D01*
X160609322Y-77056695D02*
X160671226Y-76932885D01*
X160671226Y-76932885D02*
X160671226Y-76561457D01*
X160671226Y-76561457D02*
X160609322Y-76437647D01*
X160609322Y-76437647D02*
X160547417Y-76375742D01*
X160547417Y-76375742D02*
X160423607Y-76313838D01*
X160423607Y-76313838D02*
X160175988Y-76313838D01*
X160175988Y-76313838D02*
X160052179Y-76375742D01*
X158442656Y-77180504D02*
X158442656Y-76313838D01*
X158442656Y-76561457D02*
X158380751Y-76437647D01*
X158380751Y-76437647D02*
X158318846Y-76375742D01*
X158318846Y-76375742D02*
X158195037Y-76313838D01*
X158195037Y-76313838D02*
X158071227Y-76313838D01*
X157142656Y-77118600D02*
X157266465Y-77180504D01*
X157266465Y-77180504D02*
X157514084Y-77180504D01*
X157514084Y-77180504D02*
X157637894Y-77118600D01*
X157637894Y-77118600D02*
X157699798Y-76994790D01*
X157699798Y-76994790D02*
X157699798Y-76499552D01*
X157699798Y-76499552D02*
X157637894Y-76375742D01*
X157637894Y-76375742D02*
X157514084Y-76313838D01*
X157514084Y-76313838D02*
X157266465Y-76313838D01*
X157266465Y-76313838D02*
X157142656Y-76375742D01*
X157142656Y-76375742D02*
X157080751Y-76499552D01*
X157080751Y-76499552D02*
X157080751Y-76623361D01*
X157080751Y-76623361D02*
X157699798Y-76747171D01*
X156647417Y-76313838D02*
X156337893Y-77180504D01*
X156337893Y-77180504D02*
X156028370Y-76313838D01*
X155533132Y-77180504D02*
X155533132Y-76313838D01*
X155533132Y-75880504D02*
X155595036Y-75942409D01*
X155595036Y-75942409D02*
X155533132Y-76004314D01*
X155533132Y-76004314D02*
X155471227Y-75942409D01*
X155471227Y-75942409D02*
X155533132Y-75880504D01*
X155533132Y-75880504D02*
X155533132Y-76004314D01*
X154975988Y-77118600D02*
X154852179Y-77180504D01*
X154852179Y-77180504D02*
X154604560Y-77180504D01*
X154604560Y-77180504D02*
X154480750Y-77118600D01*
X154480750Y-77118600D02*
X154418846Y-76994790D01*
X154418846Y-76994790D02*
X154418846Y-76932885D01*
X154418846Y-76932885D02*
X154480750Y-76809076D01*
X154480750Y-76809076D02*
X154604560Y-76747171D01*
X154604560Y-76747171D02*
X154790274Y-76747171D01*
X154790274Y-76747171D02*
X154914084Y-76685266D01*
X154914084Y-76685266D02*
X154975988Y-76561457D01*
X154975988Y-76561457D02*
X154975988Y-76499552D01*
X154975988Y-76499552D02*
X154914084Y-76375742D01*
X154914084Y-76375742D02*
X154790274Y-76313838D01*
X154790274Y-76313838D02*
X154604560Y-76313838D01*
X154604560Y-76313838D02*
X154480750Y-76375742D01*
X153861703Y-77180504D02*
X153861703Y-76313838D01*
X153861703Y-75880504D02*
X153923607Y-75942409D01*
X153923607Y-75942409D02*
X153861703Y-76004314D01*
X153861703Y-76004314D02*
X153799798Y-75942409D01*
X153799798Y-75942409D02*
X153861703Y-75880504D01*
X153861703Y-75880504D02*
X153861703Y-76004314D01*
X153056940Y-77180504D02*
X153180750Y-77118600D01*
X153180750Y-77118600D02*
X153242655Y-77056695D01*
X153242655Y-77056695D02*
X153304559Y-76932885D01*
X153304559Y-76932885D02*
X153304559Y-76561457D01*
X153304559Y-76561457D02*
X153242655Y-76437647D01*
X153242655Y-76437647D02*
X153180750Y-76375742D01*
X153180750Y-76375742D02*
X153056940Y-76313838D01*
X153056940Y-76313838D02*
X152871226Y-76313838D01*
X152871226Y-76313838D02*
X152747417Y-76375742D01*
X152747417Y-76375742D02*
X152685512Y-76437647D01*
X152685512Y-76437647D02*
X152623607Y-76561457D01*
X152623607Y-76561457D02*
X152623607Y-76932885D01*
X152623607Y-76932885D02*
X152685512Y-77056695D01*
X152685512Y-77056695D02*
X152747417Y-77118600D01*
X152747417Y-77118600D02*
X152871226Y-77180504D01*
X152871226Y-77180504D02*
X153056940Y-77180504D01*
X152066465Y-76313838D02*
X152066465Y-77180504D01*
X152066465Y-76437647D02*
X152004560Y-76375742D01*
X152004560Y-76375742D02*
X151880750Y-76313838D01*
X151880750Y-76313838D02*
X151695036Y-76313838D01*
X151695036Y-76313838D02*
X151571227Y-76375742D01*
X151571227Y-76375742D02*
X151509322Y-76499552D01*
X151509322Y-76499552D02*
X151509322Y-77180504D01*
X149218846Y-77180504D02*
X149961703Y-77180504D01*
X149590275Y-77180504D02*
X149590275Y-75880504D01*
X149590275Y-75880504D02*
X149714084Y-76066219D01*
X149714084Y-76066219D02*
X149837894Y-76190028D01*
X149837894Y-76190028D02*
X149961703Y-76251933D01*
X148661704Y-77056695D02*
X148599799Y-77118600D01*
X148599799Y-77118600D02*
X148661704Y-77180504D01*
X148661704Y-77180504D02*
X148723608Y-77118600D01*
X148723608Y-77118600D02*
X148661704Y-77056695D01*
X148661704Y-77056695D02*
X148661704Y-77180504D01*
X147361703Y-77180504D02*
X148104560Y-77180504D01*
X147733132Y-77180504D02*
X147733132Y-75880504D01*
X147733132Y-75880504D02*
X147856941Y-76066219D01*
X147856941Y-76066219D02*
X147980751Y-76190028D01*
X147980751Y-76190028D02*
X148104560Y-76251933D01*
X169273607Y-104506695D02*
X169335511Y-104568600D01*
X169335511Y-104568600D02*
X169521226Y-104630504D01*
X169521226Y-104630504D02*
X169645035Y-104630504D01*
X169645035Y-104630504D02*
X169830749Y-104568600D01*
X169830749Y-104568600D02*
X169954559Y-104444790D01*
X169954559Y-104444790D02*
X170016464Y-104320980D01*
X170016464Y-104320980D02*
X170078368Y-104073361D01*
X170078368Y-104073361D02*
X170078368Y-103887647D01*
X170078368Y-103887647D02*
X170016464Y-103640028D01*
X170016464Y-103640028D02*
X169954559Y-103516219D01*
X169954559Y-103516219D02*
X169830749Y-103392409D01*
X169830749Y-103392409D02*
X169645035Y-103330504D01*
X169645035Y-103330504D02*
X169521226Y-103330504D01*
X169521226Y-103330504D02*
X169335511Y-103392409D01*
X169335511Y-103392409D02*
X169273607Y-103454314D01*
X168716464Y-104630504D02*
X168716464Y-103763838D01*
X168716464Y-104011457D02*
X168654559Y-103887647D01*
X168654559Y-103887647D02*
X168592654Y-103825742D01*
X168592654Y-103825742D02*
X168468845Y-103763838D01*
X168468845Y-103763838D02*
X168345035Y-103763838D01*
X167416464Y-104568600D02*
X167540273Y-104630504D01*
X167540273Y-104630504D02*
X167787892Y-104630504D01*
X167787892Y-104630504D02*
X167911702Y-104568600D01*
X167911702Y-104568600D02*
X167973606Y-104444790D01*
X167973606Y-104444790D02*
X167973606Y-103949552D01*
X167973606Y-103949552D02*
X167911702Y-103825742D01*
X167911702Y-103825742D02*
X167787892Y-103763838D01*
X167787892Y-103763838D02*
X167540273Y-103763838D01*
X167540273Y-103763838D02*
X167416464Y-103825742D01*
X167416464Y-103825742D02*
X167354559Y-103949552D01*
X167354559Y-103949552D02*
X167354559Y-104073361D01*
X167354559Y-104073361D02*
X167973606Y-104197171D01*
X166240273Y-104630504D02*
X166240273Y-103949552D01*
X166240273Y-103949552D02*
X166302178Y-103825742D01*
X166302178Y-103825742D02*
X166425987Y-103763838D01*
X166425987Y-103763838D02*
X166673606Y-103763838D01*
X166673606Y-103763838D02*
X166797416Y-103825742D01*
X166240273Y-104568600D02*
X166364082Y-104630504D01*
X166364082Y-104630504D02*
X166673606Y-104630504D01*
X166673606Y-104630504D02*
X166797416Y-104568600D01*
X166797416Y-104568600D02*
X166859320Y-104444790D01*
X166859320Y-104444790D02*
X166859320Y-104320980D01*
X166859320Y-104320980D02*
X166797416Y-104197171D01*
X166797416Y-104197171D02*
X166673606Y-104135266D01*
X166673606Y-104135266D02*
X166364082Y-104135266D01*
X166364082Y-104135266D02*
X166240273Y-104073361D01*
X165806940Y-103763838D02*
X165311702Y-103763838D01*
X165621226Y-103330504D02*
X165621226Y-104444790D01*
X165621226Y-104444790D02*
X165559321Y-104568600D01*
X165559321Y-104568600D02*
X165435511Y-104630504D01*
X165435511Y-104630504D02*
X165311702Y-104630504D01*
X164383131Y-104568600D02*
X164506940Y-104630504D01*
X164506940Y-104630504D02*
X164754559Y-104630504D01*
X164754559Y-104630504D02*
X164878369Y-104568600D01*
X164878369Y-104568600D02*
X164940273Y-104444790D01*
X164940273Y-104444790D02*
X164940273Y-103949552D01*
X164940273Y-103949552D02*
X164878369Y-103825742D01*
X164878369Y-103825742D02*
X164754559Y-103763838D01*
X164754559Y-103763838D02*
X164506940Y-103763838D01*
X164506940Y-103763838D02*
X164383131Y-103825742D01*
X164383131Y-103825742D02*
X164321226Y-103949552D01*
X164321226Y-103949552D02*
X164321226Y-104073361D01*
X164321226Y-104073361D02*
X164940273Y-104197171D01*
X163206940Y-104630504D02*
X163206940Y-103330504D01*
X163206940Y-104568600D02*
X163330749Y-104630504D01*
X163330749Y-104630504D02*
X163578368Y-104630504D01*
X163578368Y-104630504D02*
X163702178Y-104568600D01*
X163702178Y-104568600D02*
X163764083Y-104506695D01*
X163764083Y-104506695D02*
X163825987Y-104382885D01*
X163825987Y-104382885D02*
X163825987Y-104011457D01*
X163825987Y-104011457D02*
X163764083Y-103887647D01*
X163764083Y-103887647D02*
X163702178Y-103825742D01*
X163702178Y-103825742D02*
X163578368Y-103763838D01*
X163578368Y-103763838D02*
X163330749Y-103763838D01*
X163330749Y-103763838D02*
X163206940Y-103825742D01*
X161597417Y-104630504D02*
X161597417Y-103330504D01*
X161597417Y-103825742D02*
X161473607Y-103763838D01*
X161473607Y-103763838D02*
X161225988Y-103763838D01*
X161225988Y-103763838D02*
X161102179Y-103825742D01*
X161102179Y-103825742D02*
X161040274Y-103887647D01*
X161040274Y-103887647D02*
X160978369Y-104011457D01*
X160978369Y-104011457D02*
X160978369Y-104382885D01*
X160978369Y-104382885D02*
X161040274Y-104506695D01*
X161040274Y-104506695D02*
X161102179Y-104568600D01*
X161102179Y-104568600D02*
X161225988Y-104630504D01*
X161225988Y-104630504D02*
X161473607Y-104630504D01*
X161473607Y-104630504D02*
X161597417Y-104568600D01*
X160545036Y-103763838D02*
X160235512Y-104630504D01*
X159925989Y-103763838D02*
X160235512Y-104630504D01*
X160235512Y-104630504D02*
X160359322Y-104940028D01*
X160359322Y-104940028D02*
X160421227Y-105001933D01*
X160421227Y-105001933D02*
X160545036Y-105063838D01*
X152621228Y-103330504D02*
X152311704Y-104630504D01*
X152311704Y-104630504D02*
X152064085Y-103701933D01*
X152064085Y-103701933D02*
X151816466Y-104630504D01*
X151816466Y-104630504D02*
X151506943Y-103330504D01*
X151011705Y-104630504D02*
X151011705Y-103763838D01*
X151011705Y-103330504D02*
X151073609Y-103392409D01*
X151073609Y-103392409D02*
X151011705Y-103454314D01*
X151011705Y-103454314D02*
X150949800Y-103392409D01*
X150949800Y-103392409D02*
X151011705Y-103330504D01*
X151011705Y-103330504D02*
X151011705Y-103454314D01*
X149897419Y-104568600D02*
X150021228Y-104630504D01*
X150021228Y-104630504D02*
X150268847Y-104630504D01*
X150268847Y-104630504D02*
X150392657Y-104568600D01*
X150392657Y-104568600D02*
X150454561Y-104444790D01*
X150454561Y-104444790D02*
X150454561Y-103949552D01*
X150454561Y-103949552D02*
X150392657Y-103825742D01*
X150392657Y-103825742D02*
X150268847Y-103763838D01*
X150268847Y-103763838D02*
X150021228Y-103763838D01*
X150021228Y-103763838D02*
X149897419Y-103825742D01*
X149897419Y-103825742D02*
X149835514Y-103949552D01*
X149835514Y-103949552D02*
X149835514Y-104073361D01*
X149835514Y-104073361D02*
X150454561Y-104197171D01*
X149278371Y-104630504D02*
X149278371Y-103763838D01*
X149278371Y-104011457D02*
X149216466Y-103887647D01*
X149216466Y-103887647D02*
X149154561Y-103825742D01*
X149154561Y-103825742D02*
X149030752Y-103763838D01*
X149030752Y-103763838D02*
X148906942Y-103763838D01*
X148597418Y-103763838D02*
X147916466Y-103763838D01*
X147916466Y-103763838D02*
X148597418Y-104630504D01*
X148597418Y-104630504D02*
X147916466Y-104630504D01*
X147421228Y-104630504D02*
X147421228Y-103330504D01*
X147421228Y-103825742D02*
X147297418Y-103763838D01*
X147297418Y-103763838D02*
X147049799Y-103763838D01*
X147049799Y-103763838D02*
X146925990Y-103825742D01*
X146925990Y-103825742D02*
X146864085Y-103887647D01*
X146864085Y-103887647D02*
X146802180Y-104011457D01*
X146802180Y-104011457D02*
X146802180Y-104382885D01*
X146802180Y-104382885D02*
X146864085Y-104506695D01*
X146864085Y-104506695D02*
X146925990Y-104568600D01*
X146925990Y-104568600D02*
X147049799Y-104630504D01*
X147049799Y-104630504D02*
X147297418Y-104630504D01*
X147297418Y-104630504D02*
X147421228Y-104568600D01*
X146059323Y-104630504D02*
X146183133Y-104568600D01*
X146183133Y-104568600D02*
X146245038Y-104506695D01*
X146245038Y-104506695D02*
X146306942Y-104382885D01*
X146306942Y-104382885D02*
X146306942Y-104011457D01*
X146306942Y-104011457D02*
X146245038Y-103887647D01*
X146245038Y-103887647D02*
X146183133Y-103825742D01*
X146183133Y-103825742D02*
X146059323Y-103763838D01*
X146059323Y-103763838D02*
X145873609Y-103763838D01*
X145873609Y-103763838D02*
X145749800Y-103825742D01*
X145749800Y-103825742D02*
X145687895Y-103887647D01*
X145687895Y-103887647D02*
X145625990Y-104011457D01*
X145625990Y-104011457D02*
X145625990Y-104382885D01*
X145625990Y-104382885D02*
X145687895Y-104506695D01*
X145687895Y-104506695D02*
X145749800Y-104568600D01*
X145749800Y-104568600D02*
X145873609Y-104630504D01*
X145873609Y-104630504D02*
X146059323Y-104630504D01*
X145192657Y-103763838D02*
X144945038Y-104630504D01*
X144945038Y-104630504D02*
X144697419Y-104011457D01*
X144697419Y-104011457D02*
X144449800Y-104630504D01*
X144449800Y-104630504D02*
X144202181Y-103763838D01*
X143768847Y-104568600D02*
X143645038Y-104630504D01*
X143645038Y-104630504D02*
X143397419Y-104630504D01*
X143397419Y-104630504D02*
X143273609Y-104568600D01*
X143273609Y-104568600D02*
X143211705Y-104444790D01*
X143211705Y-104444790D02*
X143211705Y-104382885D01*
X143211705Y-104382885D02*
X143273609Y-104259076D01*
X143273609Y-104259076D02*
X143397419Y-104197171D01*
X143397419Y-104197171D02*
X143583133Y-104197171D01*
X143583133Y-104197171D02*
X143706943Y-104135266D01*
X143706943Y-104135266D02*
X143768847Y-104011457D01*
X143768847Y-104011457D02*
X143768847Y-103949552D01*
X143768847Y-103949552D02*
X143706943Y-103825742D01*
X143706943Y-103825742D02*
X143583133Y-103763838D01*
X143583133Y-103763838D02*
X143397419Y-103763838D01*
X143397419Y-103763838D02*
X143273609Y-103825742D01*
X142654562Y-104630504D02*
X142654562Y-103330504D01*
X142530752Y-104135266D02*
X142159324Y-104630504D01*
X142159324Y-103763838D02*
X142654562Y-104259076D01*
X141725990Y-103763838D02*
X141416466Y-104630504D01*
X141106943Y-103763838D02*
X141416466Y-104630504D01*
X141416466Y-104630504D02*
X141540276Y-104940028D01*
X141540276Y-104940028D02*
X141602181Y-105001933D01*
X141602181Y-105001933D02*
X141725990Y-105063838D01*
D10*
X185684007Y-99139638D02*
X185684007Y-97139638D01*
X185684007Y-97139638D02*
X185207817Y-97139638D01*
X185207817Y-97139638D02*
X184922102Y-97234876D01*
X184922102Y-97234876D02*
X184731626Y-97425352D01*
X184731626Y-97425352D02*
X184636388Y-97615828D01*
X184636388Y-97615828D02*
X184541150Y-97996780D01*
X184541150Y-97996780D02*
X184541150Y-98282495D01*
X184541150Y-98282495D02*
X184636388Y-98663447D01*
X184636388Y-98663447D02*
X184731626Y-98853923D01*
X184731626Y-98853923D02*
X184922102Y-99044400D01*
X184922102Y-99044400D02*
X185207817Y-99139638D01*
X185207817Y-99139638D02*
X185684007Y-99139638D01*
X182826864Y-99139638D02*
X182826864Y-98092019D01*
X182826864Y-98092019D02*
X182922102Y-97901542D01*
X182922102Y-97901542D02*
X183112578Y-97806304D01*
X183112578Y-97806304D02*
X183493531Y-97806304D01*
X183493531Y-97806304D02*
X183684007Y-97901542D01*
X182826864Y-99044400D02*
X183017340Y-99139638D01*
X183017340Y-99139638D02*
X183493531Y-99139638D01*
X183493531Y-99139638D02*
X183684007Y-99044400D01*
X183684007Y-99044400D02*
X183779245Y-98853923D01*
X183779245Y-98853923D02*
X183779245Y-98663447D01*
X183779245Y-98663447D02*
X183684007Y-98472971D01*
X183684007Y-98472971D02*
X183493531Y-98377733D01*
X183493531Y-98377733D02*
X183017340Y-98377733D01*
X183017340Y-98377733D02*
X182826864Y-98282495D01*
X181112578Y-99044400D02*
X181303054Y-99139638D01*
X181303054Y-99139638D02*
X181684007Y-99139638D01*
X181684007Y-99139638D02*
X181874483Y-99044400D01*
X181874483Y-99044400D02*
X181969721Y-98853923D01*
X181969721Y-98853923D02*
X181969721Y-98092019D01*
X181969721Y-98092019D02*
X181874483Y-97901542D01*
X181874483Y-97901542D02*
X181684007Y-97806304D01*
X181684007Y-97806304D02*
X181303054Y-97806304D01*
X181303054Y-97806304D02*
X181112578Y-97901542D01*
X181112578Y-97901542D02*
X181017340Y-98092019D01*
X181017340Y-98092019D02*
X181017340Y-98282495D01*
X181017340Y-98282495D02*
X181969721Y-98472971D01*
X180350673Y-97806304D02*
X179969721Y-99139638D01*
X179969721Y-99139638D02*
X179588768Y-98187257D01*
X179588768Y-98187257D02*
X179207816Y-99139638D01*
X179207816Y-99139638D02*
X178826864Y-97806304D01*
X177779245Y-99139638D02*
X177969721Y-99044400D01*
X177969721Y-99044400D02*
X178064959Y-98949161D01*
X178064959Y-98949161D02*
X178160197Y-98758685D01*
X178160197Y-98758685D02*
X178160197Y-98187257D01*
X178160197Y-98187257D02*
X178064959Y-97996780D01*
X178064959Y-97996780D02*
X177969721Y-97901542D01*
X177969721Y-97901542D02*
X177779245Y-97806304D01*
X177779245Y-97806304D02*
X177493530Y-97806304D01*
X177493530Y-97806304D02*
X177303054Y-97901542D01*
X177303054Y-97901542D02*
X177207816Y-97996780D01*
X177207816Y-97996780D02*
X177112578Y-98187257D01*
X177112578Y-98187257D02*
X177112578Y-98758685D01*
X177112578Y-98758685D02*
X177207816Y-98949161D01*
X177207816Y-98949161D02*
X177303054Y-99044400D01*
X177303054Y-99044400D02*
X177493530Y-99139638D01*
X177493530Y-99139638D02*
X177779245Y-99139638D01*
X175969721Y-99139638D02*
X176160197Y-99044400D01*
X176160197Y-99044400D02*
X176255435Y-98949161D01*
X176255435Y-98949161D02*
X176350673Y-98758685D01*
X176350673Y-98758685D02*
X176350673Y-98187257D01*
X176350673Y-98187257D02*
X176255435Y-97996780D01*
X176255435Y-97996780D02*
X176160197Y-97901542D01*
X176160197Y-97901542D02*
X175969721Y-97806304D01*
X175969721Y-97806304D02*
X175684006Y-97806304D01*
X175684006Y-97806304D02*
X175493530Y-97901542D01*
X175493530Y-97901542D02*
X175398292Y-97996780D01*
X175398292Y-97996780D02*
X175303054Y-98187257D01*
X175303054Y-98187257D02*
X175303054Y-98758685D01*
X175303054Y-98758685D02*
X175398292Y-98949161D01*
X175398292Y-98949161D02*
X175493530Y-99044400D01*
X175493530Y-99044400D02*
X175684006Y-99139638D01*
X175684006Y-99139638D02*
X175969721Y-99139638D01*
X171779244Y-98949161D02*
X171874482Y-99044400D01*
X171874482Y-99044400D02*
X172160196Y-99139638D01*
X172160196Y-99139638D02*
X172350672Y-99139638D01*
X172350672Y-99139638D02*
X172636387Y-99044400D01*
X172636387Y-99044400D02*
X172826863Y-98853923D01*
X172826863Y-98853923D02*
X172922101Y-98663447D01*
X172922101Y-98663447D02*
X173017339Y-98282495D01*
X173017339Y-98282495D02*
X173017339Y-97996780D01*
X173017339Y-97996780D02*
X172922101Y-97615828D01*
X172922101Y-97615828D02*
X172826863Y-97425352D01*
X172826863Y-97425352D02*
X172636387Y-97234876D01*
X172636387Y-97234876D02*
X172350672Y-97139638D01*
X172350672Y-97139638D02*
X172160196Y-97139638D01*
X172160196Y-97139638D02*
X171874482Y-97234876D01*
X171874482Y-97234876D02*
X171779244Y-97330114D01*
X170922101Y-99139638D02*
X170922101Y-97139638D01*
X170922101Y-97139638D02*
X170160196Y-97139638D01*
X170160196Y-97139638D02*
X169969720Y-97234876D01*
X169969720Y-97234876D02*
X169874482Y-97330114D01*
X169874482Y-97330114D02*
X169779244Y-97520590D01*
X169779244Y-97520590D02*
X169779244Y-97806304D01*
X169779244Y-97806304D02*
X169874482Y-97996780D01*
X169874482Y-97996780D02*
X169969720Y-98092019D01*
X169969720Y-98092019D02*
X170160196Y-98187257D01*
X170160196Y-98187257D02*
X170922101Y-98187257D01*
X167779244Y-98949161D02*
X167874482Y-99044400D01*
X167874482Y-99044400D02*
X168160196Y-99139638D01*
X168160196Y-99139638D02*
X168350672Y-99139638D01*
X168350672Y-99139638D02*
X168636387Y-99044400D01*
X168636387Y-99044400D02*
X168826863Y-98853923D01*
X168826863Y-98853923D02*
X168922101Y-98663447D01*
X168922101Y-98663447D02*
X169017339Y-98282495D01*
X169017339Y-98282495D02*
X169017339Y-97996780D01*
X169017339Y-97996780D02*
X168922101Y-97615828D01*
X168922101Y-97615828D02*
X168826863Y-97425352D01*
X168826863Y-97425352D02*
X168636387Y-97234876D01*
X168636387Y-97234876D02*
X168350672Y-97139638D01*
X168350672Y-97139638D02*
X168160196Y-97139638D01*
X168160196Y-97139638D02*
X167874482Y-97234876D01*
X167874482Y-97234876D02*
X167779244Y-97330114D01*
X166922101Y-98377733D02*
X165398292Y-98377733D01*
X163588768Y-97806304D02*
X163588768Y-99139638D01*
X164064959Y-97044400D02*
X164541149Y-98472971D01*
X164541149Y-98472971D02*
X163303054Y-98472971D01*
X162160197Y-97139638D02*
X161969720Y-97139638D01*
X161969720Y-97139638D02*
X161779244Y-97234876D01*
X161779244Y-97234876D02*
X161684006Y-97330114D01*
X161684006Y-97330114D02*
X161588768Y-97520590D01*
X161588768Y-97520590D02*
X161493530Y-97901542D01*
X161493530Y-97901542D02*
X161493530Y-98377733D01*
X161493530Y-98377733D02*
X161588768Y-98758685D01*
X161588768Y-98758685D02*
X161684006Y-98949161D01*
X161684006Y-98949161D02*
X161779244Y-99044400D01*
X161779244Y-99044400D02*
X161969720Y-99139638D01*
X161969720Y-99139638D02*
X162160197Y-99139638D01*
X162160197Y-99139638D02*
X162350673Y-99044400D01*
X162350673Y-99044400D02*
X162445911Y-98949161D01*
X162445911Y-98949161D02*
X162541149Y-98758685D01*
X162541149Y-98758685D02*
X162636387Y-98377733D01*
X162636387Y-98377733D02*
X162636387Y-97901542D01*
X162636387Y-97901542D02*
X162541149Y-97520590D01*
X162541149Y-97520590D02*
X162445911Y-97330114D01*
X162445911Y-97330114D02*
X162350673Y-97234876D01*
X162350673Y-97234876D02*
X162160197Y-97139638D01*
X160255435Y-97139638D02*
X160064958Y-97139638D01*
X160064958Y-97139638D02*
X159874482Y-97234876D01*
X159874482Y-97234876D02*
X159779244Y-97330114D01*
X159779244Y-97330114D02*
X159684006Y-97520590D01*
X159684006Y-97520590D02*
X159588768Y-97901542D01*
X159588768Y-97901542D02*
X159588768Y-98377733D01*
X159588768Y-98377733D02*
X159684006Y-98758685D01*
X159684006Y-98758685D02*
X159779244Y-98949161D01*
X159779244Y-98949161D02*
X159874482Y-99044400D01*
X159874482Y-99044400D02*
X160064958Y-99139638D01*
X160064958Y-99139638D02*
X160255435Y-99139638D01*
X160255435Y-99139638D02*
X160445911Y-99044400D01*
X160445911Y-99044400D02*
X160541149Y-98949161D01*
X160541149Y-98949161D02*
X160636387Y-98758685D01*
X160636387Y-98758685D02*
X160731625Y-98377733D01*
X160731625Y-98377733D02*
X160731625Y-97901542D01*
X160731625Y-97901542D02*
X160636387Y-97520590D01*
X160636387Y-97520590D02*
X160541149Y-97330114D01*
X160541149Y-97330114D02*
X160445911Y-97234876D01*
X160445911Y-97234876D02*
X160255435Y-97139638D01*
X157303054Y-97044400D02*
X159017339Y-99615828D01*
X155779244Y-97806304D02*
X155779244Y-99139638D01*
X156255435Y-97044400D02*
X156731625Y-98472971D01*
X156731625Y-98472971D02*
X155493530Y-98472971D01*
X154350673Y-97139638D02*
X154160196Y-97139638D01*
X154160196Y-97139638D02*
X153969720Y-97234876D01*
X153969720Y-97234876D02*
X153874482Y-97330114D01*
X153874482Y-97330114D02*
X153779244Y-97520590D01*
X153779244Y-97520590D02*
X153684006Y-97901542D01*
X153684006Y-97901542D02*
X153684006Y-98377733D01*
X153684006Y-98377733D02*
X153779244Y-98758685D01*
X153779244Y-98758685D02*
X153874482Y-98949161D01*
X153874482Y-98949161D02*
X153969720Y-99044400D01*
X153969720Y-99044400D02*
X154160196Y-99139638D01*
X154160196Y-99139638D02*
X154350673Y-99139638D01*
X154350673Y-99139638D02*
X154541149Y-99044400D01*
X154541149Y-99044400D02*
X154636387Y-98949161D01*
X154636387Y-98949161D02*
X154731625Y-98758685D01*
X154731625Y-98758685D02*
X154826863Y-98377733D01*
X154826863Y-98377733D02*
X154826863Y-97901542D01*
X154826863Y-97901542D02*
X154731625Y-97520590D01*
X154731625Y-97520590D02*
X154636387Y-97330114D01*
X154636387Y-97330114D02*
X154541149Y-97234876D01*
X154541149Y-97234876D02*
X154350673Y-97139638D01*
X152445911Y-97139638D02*
X152255434Y-97139638D01*
X152255434Y-97139638D02*
X152064958Y-97234876D01*
X152064958Y-97234876D02*
X151969720Y-97330114D01*
X151969720Y-97330114D02*
X151874482Y-97520590D01*
X151874482Y-97520590D02*
X151779244Y-97901542D01*
X151779244Y-97901542D02*
X151779244Y-98377733D01*
X151779244Y-98377733D02*
X151874482Y-98758685D01*
X151874482Y-98758685D02*
X151969720Y-98949161D01*
X151969720Y-98949161D02*
X152064958Y-99044400D01*
X152064958Y-99044400D02*
X152255434Y-99139638D01*
X152255434Y-99139638D02*
X152445911Y-99139638D01*
X152445911Y-99139638D02*
X152636387Y-99044400D01*
X152636387Y-99044400D02*
X152731625Y-98949161D01*
X152731625Y-98949161D02*
X152826863Y-98758685D01*
X152826863Y-98758685D02*
X152922101Y-98377733D01*
X152922101Y-98377733D02*
X152922101Y-97901542D01*
X152922101Y-97901542D02*
X152826863Y-97520590D01*
X152826863Y-97520590D02*
X152731625Y-97330114D01*
X152731625Y-97330114D02*
X152636387Y-97234876D01*
X152636387Y-97234876D02*
X152445911Y-97139638D01*
X151017339Y-99044400D02*
X150731625Y-99139638D01*
X150731625Y-99139638D02*
X150255434Y-99139638D01*
X150255434Y-99139638D02*
X150064958Y-99044400D01*
X150064958Y-99044400D02*
X149969720Y-98949161D01*
X149969720Y-98949161D02*
X149874482Y-98758685D01*
X149874482Y-98758685D02*
X149874482Y-98568209D01*
X149874482Y-98568209D02*
X149969720Y-98377733D01*
X149969720Y-98377733D02*
X150064958Y-98282495D01*
X150064958Y-98282495D02*
X150255434Y-98187257D01*
X150255434Y-98187257D02*
X150636387Y-98092019D01*
X150636387Y-98092019D02*
X150826863Y-97996780D01*
X150826863Y-97996780D02*
X150922101Y-97901542D01*
X150922101Y-97901542D02*
X151017339Y-97711066D01*
X151017339Y-97711066D02*
X151017339Y-97520590D01*
X151017339Y-97520590D02*
X150922101Y-97330114D01*
X150922101Y-97330114D02*
X150826863Y-97234876D01*
X150826863Y-97234876D02*
X150636387Y-97139638D01*
X150636387Y-97139638D02*
X150160196Y-97139638D01*
X150160196Y-97139638D02*
X149874482Y-97234876D01*
X146350672Y-99139638D02*
X147017339Y-98187257D01*
X147493529Y-99139638D02*
X147493529Y-97139638D01*
X147493529Y-97139638D02*
X146731624Y-97139638D01*
X146731624Y-97139638D02*
X146541148Y-97234876D01*
X146541148Y-97234876D02*
X146445910Y-97330114D01*
X146445910Y-97330114D02*
X146350672Y-97520590D01*
X146350672Y-97520590D02*
X146350672Y-97806304D01*
X146350672Y-97806304D02*
X146445910Y-97996780D01*
X146445910Y-97996780D02*
X146541148Y-98092019D01*
X146541148Y-98092019D02*
X146731624Y-98187257D01*
X146731624Y-98187257D02*
X147493529Y-98187257D01*
X145588767Y-98568209D02*
X144636386Y-98568209D01*
X145779243Y-99139638D02*
X145112577Y-97139638D01*
X145112577Y-97139638D02*
X144445910Y-99139638D01*
X143779243Y-99139638D02*
X143779243Y-97139638D01*
X143779243Y-97139638D02*
X143112576Y-98568209D01*
X143112576Y-98568209D02*
X142445910Y-97139638D01*
X142445910Y-97139638D02*
X142445910Y-99139638D01*
X139969719Y-98092019D02*
X139303052Y-98092019D01*
X139017338Y-99139638D02*
X139969719Y-99139638D01*
X139969719Y-99139638D02*
X139969719Y-97139638D01*
X139969719Y-97139638D02*
X139017338Y-97139638D01*
X138350671Y-99139638D02*
X137303052Y-97806304D01*
X138350671Y-97806304D02*
X137303052Y-99139638D01*
X136541147Y-97806304D02*
X136541147Y-99806304D01*
X136541147Y-97901542D02*
X136350671Y-97806304D01*
X136350671Y-97806304D02*
X135969718Y-97806304D01*
X135969718Y-97806304D02*
X135779242Y-97901542D01*
X135779242Y-97901542D02*
X135684004Y-97996780D01*
X135684004Y-97996780D02*
X135588766Y-98187257D01*
X135588766Y-98187257D02*
X135588766Y-98758685D01*
X135588766Y-98758685D02*
X135684004Y-98949161D01*
X135684004Y-98949161D02*
X135779242Y-99044400D01*
X135779242Y-99044400D02*
X135969718Y-99139638D01*
X135969718Y-99139638D02*
X136350671Y-99139638D01*
X136350671Y-99139638D02*
X136541147Y-99044400D01*
X133874480Y-99139638D02*
X133874480Y-98092019D01*
X133874480Y-98092019D02*
X133969718Y-97901542D01*
X133969718Y-97901542D02*
X134160194Y-97806304D01*
X134160194Y-97806304D02*
X134541147Y-97806304D01*
X134541147Y-97806304D02*
X134731623Y-97901542D01*
X133874480Y-99044400D02*
X134064956Y-99139638D01*
X134064956Y-99139638D02*
X134541147Y-99139638D01*
X134541147Y-99139638D02*
X134731623Y-99044400D01*
X134731623Y-99044400D02*
X134826861Y-98853923D01*
X134826861Y-98853923D02*
X134826861Y-98663447D01*
X134826861Y-98663447D02*
X134731623Y-98472971D01*
X134731623Y-98472971D02*
X134541147Y-98377733D01*
X134541147Y-98377733D02*
X134064956Y-98377733D01*
X134064956Y-98377733D02*
X133874480Y-98282495D01*
X132922099Y-97806304D02*
X132922099Y-99139638D01*
X132922099Y-97996780D02*
X132826861Y-97901542D01*
X132826861Y-97901542D02*
X132636385Y-97806304D01*
X132636385Y-97806304D02*
X132350670Y-97806304D01*
X132350670Y-97806304D02*
X132160194Y-97901542D01*
X132160194Y-97901542D02*
X132064956Y-98092019D01*
X132064956Y-98092019D02*
X132064956Y-99139638D01*
X131207813Y-99044400D02*
X131017337Y-99139638D01*
X131017337Y-99139638D02*
X130636385Y-99139638D01*
X130636385Y-99139638D02*
X130445908Y-99044400D01*
X130445908Y-99044400D02*
X130350670Y-98853923D01*
X130350670Y-98853923D02*
X130350670Y-98758685D01*
X130350670Y-98758685D02*
X130445908Y-98568209D01*
X130445908Y-98568209D02*
X130636385Y-98472971D01*
X130636385Y-98472971D02*
X130922099Y-98472971D01*
X130922099Y-98472971D02*
X131112575Y-98377733D01*
X131112575Y-98377733D02*
X131207813Y-98187257D01*
X131207813Y-98187257D02*
X131207813Y-98092019D01*
X131207813Y-98092019D02*
X131112575Y-97901542D01*
X131112575Y-97901542D02*
X130922099Y-97806304D01*
X130922099Y-97806304D02*
X130636385Y-97806304D01*
X130636385Y-97806304D02*
X130445908Y-97901542D01*
X129493527Y-99139638D02*
X129493527Y-97806304D01*
X129493527Y-97139638D02*
X129588765Y-97234876D01*
X129588765Y-97234876D02*
X129493527Y-97330114D01*
X129493527Y-97330114D02*
X129398289Y-97234876D01*
X129398289Y-97234876D02*
X129493527Y-97139638D01*
X129493527Y-97139638D02*
X129493527Y-97330114D01*
X128255432Y-99139638D02*
X128445908Y-99044400D01*
X128445908Y-99044400D02*
X128541146Y-98949161D01*
X128541146Y-98949161D02*
X128636384Y-98758685D01*
X128636384Y-98758685D02*
X128636384Y-98187257D01*
X128636384Y-98187257D02*
X128541146Y-97996780D01*
X128541146Y-97996780D02*
X128445908Y-97901542D01*
X128445908Y-97901542D02*
X128255432Y-97806304D01*
X128255432Y-97806304D02*
X127969717Y-97806304D01*
X127969717Y-97806304D02*
X127779241Y-97901542D01*
X127779241Y-97901542D02*
X127684003Y-97996780D01*
X127684003Y-97996780D02*
X127588765Y-98187257D01*
X127588765Y-98187257D02*
X127588765Y-98758685D01*
X127588765Y-98758685D02*
X127684003Y-98949161D01*
X127684003Y-98949161D02*
X127779241Y-99044400D01*
X127779241Y-99044400D02*
X127969717Y-99139638D01*
X127969717Y-99139638D02*
X128255432Y-99139638D01*
X126731622Y-97806304D02*
X126731622Y-99139638D01*
X126731622Y-97996780D02*
X126636384Y-97901542D01*
X126636384Y-97901542D02*
X126445908Y-97806304D01*
X126445908Y-97806304D02*
X126160193Y-97806304D01*
X126160193Y-97806304D02*
X125969717Y-97901542D01*
X125969717Y-97901542D02*
X125874479Y-98092019D01*
X125874479Y-98092019D02*
X125874479Y-99139638D01*
D13*
X184026609Y-129798790D02*
X183869466Y-129851171D01*
X183869466Y-129851171D02*
X183817085Y-129903552D01*
X183817085Y-129903552D02*
X183764704Y-130008314D01*
X183764704Y-130008314D02*
X183764704Y-130165457D01*
X183764704Y-130165457D02*
X183817085Y-130270219D01*
X183817085Y-130270219D02*
X183869466Y-130322600D01*
X183869466Y-130322600D02*
X183974228Y-130374980D01*
X183974228Y-130374980D02*
X184393276Y-130374980D01*
X184393276Y-130374980D02*
X184393276Y-129274980D01*
X184393276Y-129274980D02*
X184026609Y-129274980D01*
X184026609Y-129274980D02*
X183921847Y-129327361D01*
X183921847Y-129327361D02*
X183869466Y-129379742D01*
X183869466Y-129379742D02*
X183817085Y-129484504D01*
X183817085Y-129484504D02*
X183817085Y-129589266D01*
X183817085Y-129589266D02*
X183869466Y-129694028D01*
X183869466Y-129694028D02*
X183921847Y-129746409D01*
X183921847Y-129746409D02*
X184026609Y-129798790D01*
X184026609Y-129798790D02*
X184393276Y-129798790D01*
X182821847Y-130374980D02*
X182821847Y-129798790D01*
X182821847Y-129798790D02*
X182874228Y-129694028D01*
X182874228Y-129694028D02*
X182978990Y-129641647D01*
X182978990Y-129641647D02*
X183188514Y-129641647D01*
X183188514Y-129641647D02*
X183293276Y-129694028D01*
X182821847Y-130322600D02*
X182926609Y-130374980D01*
X182926609Y-130374980D02*
X183188514Y-130374980D01*
X183188514Y-130374980D02*
X183293276Y-130322600D01*
X183293276Y-130322600D02*
X183345657Y-130217838D01*
X183345657Y-130217838D02*
X183345657Y-130113076D01*
X183345657Y-130113076D02*
X183293276Y-130008314D01*
X183293276Y-130008314D02*
X183188514Y-129955933D01*
X183188514Y-129955933D02*
X182926609Y-129955933D01*
X182926609Y-129955933D02*
X182821847Y-129903552D01*
X182350419Y-130322600D02*
X182245657Y-130374980D01*
X182245657Y-130374980D02*
X182036133Y-130374980D01*
X182036133Y-130374980D02*
X181931371Y-130322600D01*
X181931371Y-130322600D02*
X181878990Y-130217838D01*
X181878990Y-130217838D02*
X181878990Y-130165457D01*
X181878990Y-130165457D02*
X181931371Y-130060695D01*
X181931371Y-130060695D02*
X182036133Y-130008314D01*
X182036133Y-130008314D02*
X182193276Y-130008314D01*
X182193276Y-130008314D02*
X182298038Y-129955933D01*
X182298038Y-129955933D02*
X182350419Y-129851171D01*
X182350419Y-129851171D02*
X182350419Y-129798790D01*
X182350419Y-129798790D02*
X182298038Y-129694028D01*
X182298038Y-129694028D02*
X182193276Y-129641647D01*
X182193276Y-129641647D02*
X182036133Y-129641647D01*
X182036133Y-129641647D02*
X181931371Y-129694028D01*
X180988514Y-130322600D02*
X181093276Y-130374980D01*
X181093276Y-130374980D02*
X181302800Y-130374980D01*
X181302800Y-130374980D02*
X181407562Y-130322600D01*
X181407562Y-130322600D02*
X181459943Y-130217838D01*
X181459943Y-130217838D02*
X181459943Y-129798790D01*
X181459943Y-129798790D02*
X181407562Y-129694028D01*
X181407562Y-129694028D02*
X181302800Y-129641647D01*
X181302800Y-129641647D02*
X181093276Y-129641647D01*
X181093276Y-129641647D02*
X180988514Y-129694028D01*
X180988514Y-129694028D02*
X180936133Y-129798790D01*
X180936133Y-129798790D02*
X180936133Y-129903552D01*
X180936133Y-129903552D02*
X181459943Y-130008314D01*
X179993276Y-130374980D02*
X179993276Y-129274980D01*
X179993276Y-130322600D02*
X180098038Y-130374980D01*
X180098038Y-130374980D02*
X180307562Y-130374980D01*
X180307562Y-130374980D02*
X180412324Y-130322600D01*
X180412324Y-130322600D02*
X180464705Y-130270219D01*
X180464705Y-130270219D02*
X180517086Y-130165457D01*
X180517086Y-130165457D02*
X180517086Y-129851171D01*
X180517086Y-129851171D02*
X180464705Y-129746409D01*
X180464705Y-129746409D02*
X180412324Y-129694028D01*
X180412324Y-129694028D02*
X180307562Y-129641647D01*
X180307562Y-129641647D02*
X180098038Y-129641647D01*
X180098038Y-129641647D02*
X179993276Y-129694028D01*
X178474229Y-130374980D02*
X178578991Y-130322600D01*
X178578991Y-130322600D02*
X178631372Y-130270219D01*
X178631372Y-130270219D02*
X178683753Y-130165457D01*
X178683753Y-130165457D02*
X178683753Y-129851171D01*
X178683753Y-129851171D02*
X178631372Y-129746409D01*
X178631372Y-129746409D02*
X178578991Y-129694028D01*
X178578991Y-129694028D02*
X178474229Y-129641647D01*
X178474229Y-129641647D02*
X178317086Y-129641647D01*
X178317086Y-129641647D02*
X178212324Y-129694028D01*
X178212324Y-129694028D02*
X178159943Y-129746409D01*
X178159943Y-129746409D02*
X178107562Y-129851171D01*
X178107562Y-129851171D02*
X178107562Y-130165457D01*
X178107562Y-130165457D02*
X178159943Y-130270219D01*
X178159943Y-130270219D02*
X178212324Y-130322600D01*
X178212324Y-130322600D02*
X178317086Y-130374980D01*
X178317086Y-130374980D02*
X178474229Y-130374980D01*
X177636134Y-129641647D02*
X177636134Y-130374980D01*
X177636134Y-129746409D02*
X177583753Y-129694028D01*
X177583753Y-129694028D02*
X177478991Y-129641647D01*
X177478991Y-129641647D02*
X177321848Y-129641647D01*
X177321848Y-129641647D02*
X177217086Y-129694028D01*
X177217086Y-129694028D02*
X177164705Y-129798790D01*
X177164705Y-129798790D02*
X177164705Y-130374980D01*
X175959944Y-129641647D02*
X175540896Y-129641647D01*
X175802801Y-129274980D02*
X175802801Y-130217838D01*
X175802801Y-130217838D02*
X175750420Y-130322600D01*
X175750420Y-130322600D02*
X175645658Y-130374980D01*
X175645658Y-130374980D02*
X175540896Y-130374980D01*
X175174230Y-130374980D02*
X175174230Y-129274980D01*
X174702801Y-130374980D02*
X174702801Y-129798790D01*
X174702801Y-129798790D02*
X174755182Y-129694028D01*
X174755182Y-129694028D02*
X174859944Y-129641647D01*
X174859944Y-129641647D02*
X175017087Y-129641647D01*
X175017087Y-129641647D02*
X175121849Y-129694028D01*
X175121849Y-129694028D02*
X175174230Y-129746409D01*
X173759944Y-130322600D02*
X173864706Y-130374980D01*
X173864706Y-130374980D02*
X174074230Y-130374980D01*
X174074230Y-130374980D02*
X174178992Y-130322600D01*
X174178992Y-130322600D02*
X174231373Y-130217838D01*
X174231373Y-130217838D02*
X174231373Y-129798790D01*
X174231373Y-129798790D02*
X174178992Y-129694028D01*
X174178992Y-129694028D02*
X174074230Y-129641647D01*
X174074230Y-129641647D02*
X173864706Y-129641647D01*
X173864706Y-129641647D02*
X173759944Y-129694028D01*
X173759944Y-129694028D02*
X173707563Y-129798790D01*
X173707563Y-129798790D02*
X173707563Y-129903552D01*
X173707563Y-129903552D02*
X174231373Y-130008314D01*
X171769468Y-130374980D02*
X172136135Y-129851171D01*
X172398040Y-130374980D02*
X172398040Y-129274980D01*
X172398040Y-129274980D02*
X171978992Y-129274980D01*
X171978992Y-129274980D02*
X171874230Y-129327361D01*
X171874230Y-129327361D02*
X171821849Y-129379742D01*
X171821849Y-129379742D02*
X171769468Y-129484504D01*
X171769468Y-129484504D02*
X171769468Y-129641647D01*
X171769468Y-129641647D02*
X171821849Y-129746409D01*
X171821849Y-129746409D02*
X171874230Y-129798790D01*
X171874230Y-129798790D02*
X171978992Y-129851171D01*
X171978992Y-129851171D02*
X172398040Y-129851171D01*
X171350421Y-130060695D02*
X170826611Y-130060695D01*
X171455183Y-130374980D02*
X171088516Y-129274980D01*
X171088516Y-129274980D02*
X170721849Y-130374980D01*
X170355183Y-130374980D02*
X170355183Y-129274980D01*
X170355183Y-129274980D02*
X169988516Y-130060695D01*
X169988516Y-130060695D02*
X169621849Y-129274980D01*
X169621849Y-129274980D02*
X169621849Y-130374980D01*
X168259945Y-129798790D02*
X167893278Y-129798790D01*
X167736135Y-130374980D02*
X168259945Y-130374980D01*
X168259945Y-130374980D02*
X168259945Y-129274980D01*
X168259945Y-129274980D02*
X167736135Y-129274980D01*
X167369469Y-130374980D02*
X166793278Y-129641647D01*
X167369469Y-129641647D02*
X166793278Y-130374980D01*
X166374231Y-129641647D02*
X166374231Y-130741647D01*
X166374231Y-129694028D02*
X166269469Y-129641647D01*
X166269469Y-129641647D02*
X166059945Y-129641647D01*
X166059945Y-129641647D02*
X165955183Y-129694028D01*
X165955183Y-129694028D02*
X165902802Y-129746409D01*
X165902802Y-129746409D02*
X165850421Y-129851171D01*
X165850421Y-129851171D02*
X165850421Y-130165457D01*
X165850421Y-130165457D02*
X165902802Y-130270219D01*
X165902802Y-130270219D02*
X165955183Y-130322600D01*
X165955183Y-130322600D02*
X166059945Y-130374980D01*
X166059945Y-130374980D02*
X166269469Y-130374980D01*
X166269469Y-130374980D02*
X166374231Y-130322600D01*
X164907564Y-130374980D02*
X164907564Y-129798790D01*
X164907564Y-129798790D02*
X164959945Y-129694028D01*
X164959945Y-129694028D02*
X165064707Y-129641647D01*
X165064707Y-129641647D02*
X165274231Y-129641647D01*
X165274231Y-129641647D02*
X165378993Y-129694028D01*
X164907564Y-130322600D02*
X165012326Y-130374980D01*
X165012326Y-130374980D02*
X165274231Y-130374980D01*
X165274231Y-130374980D02*
X165378993Y-130322600D01*
X165378993Y-130322600D02*
X165431374Y-130217838D01*
X165431374Y-130217838D02*
X165431374Y-130113076D01*
X165431374Y-130113076D02*
X165378993Y-130008314D01*
X165378993Y-130008314D02*
X165274231Y-129955933D01*
X165274231Y-129955933D02*
X165012326Y-129955933D01*
X165012326Y-129955933D02*
X164907564Y-129903552D01*
X164383755Y-129641647D02*
X164383755Y-130374980D01*
X164383755Y-129746409D02*
X164331374Y-129694028D01*
X164331374Y-129694028D02*
X164226612Y-129641647D01*
X164226612Y-129641647D02*
X164069469Y-129641647D01*
X164069469Y-129641647D02*
X163964707Y-129694028D01*
X163964707Y-129694028D02*
X163912326Y-129798790D01*
X163912326Y-129798790D02*
X163912326Y-130374980D01*
X163440898Y-130322600D02*
X163336136Y-130374980D01*
X163336136Y-130374980D02*
X163126612Y-130374980D01*
X163126612Y-130374980D02*
X163021850Y-130322600D01*
X163021850Y-130322600D02*
X162969469Y-130217838D01*
X162969469Y-130217838D02*
X162969469Y-130165457D01*
X162969469Y-130165457D02*
X163021850Y-130060695D01*
X163021850Y-130060695D02*
X163126612Y-130008314D01*
X163126612Y-130008314D02*
X163283755Y-130008314D01*
X163283755Y-130008314D02*
X163388517Y-129955933D01*
X163388517Y-129955933D02*
X163440898Y-129851171D01*
X163440898Y-129851171D02*
X163440898Y-129798790D01*
X163440898Y-129798790D02*
X163388517Y-129694028D01*
X163388517Y-129694028D02*
X163283755Y-129641647D01*
X163283755Y-129641647D02*
X163126612Y-129641647D01*
X163126612Y-129641647D02*
X163021850Y-129694028D01*
X162498041Y-130374980D02*
X162498041Y-129641647D01*
X162498041Y-129274980D02*
X162550422Y-129327361D01*
X162550422Y-129327361D02*
X162498041Y-129379742D01*
X162498041Y-129379742D02*
X162445660Y-129327361D01*
X162445660Y-129327361D02*
X162498041Y-129274980D01*
X162498041Y-129274980D02*
X162498041Y-129379742D01*
X161817088Y-130374980D02*
X161921850Y-130322600D01*
X161921850Y-130322600D02*
X161974231Y-130270219D01*
X161974231Y-130270219D02*
X162026612Y-130165457D01*
X162026612Y-130165457D02*
X162026612Y-129851171D01*
X162026612Y-129851171D02*
X161974231Y-129746409D01*
X161974231Y-129746409D02*
X161921850Y-129694028D01*
X161921850Y-129694028D02*
X161817088Y-129641647D01*
X161817088Y-129641647D02*
X161659945Y-129641647D01*
X161659945Y-129641647D02*
X161555183Y-129694028D01*
X161555183Y-129694028D02*
X161502802Y-129746409D01*
X161502802Y-129746409D02*
X161450421Y-129851171D01*
X161450421Y-129851171D02*
X161450421Y-130165457D01*
X161450421Y-130165457D02*
X161502802Y-130270219D01*
X161502802Y-130270219D02*
X161555183Y-130322600D01*
X161555183Y-130322600D02*
X161659945Y-130374980D01*
X161659945Y-130374980D02*
X161817088Y-130374980D01*
X160978993Y-129641647D02*
X160978993Y-130374980D01*
X160978993Y-129746409D02*
X160926612Y-129694028D01*
X160926612Y-129694028D02*
X160821850Y-129641647D01*
X160821850Y-129641647D02*
X160664707Y-129641647D01*
X160664707Y-129641647D02*
X160559945Y-129694028D01*
X160559945Y-129694028D02*
X160507564Y-129798790D01*
X160507564Y-129798790D02*
X160507564Y-130374980D01*
X159145660Y-130374980D02*
X159145660Y-129274980D01*
X159145660Y-129694028D02*
X159040898Y-129641647D01*
X159040898Y-129641647D02*
X158831374Y-129641647D01*
X158831374Y-129641647D02*
X158726612Y-129694028D01*
X158726612Y-129694028D02*
X158674231Y-129746409D01*
X158674231Y-129746409D02*
X158621850Y-129851171D01*
X158621850Y-129851171D02*
X158621850Y-130165457D01*
X158621850Y-130165457D02*
X158674231Y-130270219D01*
X158674231Y-130270219D02*
X158726612Y-130322600D01*
X158726612Y-130322600D02*
X158831374Y-130374980D01*
X158831374Y-130374980D02*
X159040898Y-130374980D01*
X159040898Y-130374980D02*
X159145660Y-130322600D01*
X158255184Y-129641647D02*
X157993279Y-130374980D01*
X157731374Y-129641647D02*
X157993279Y-130374980D01*
X157993279Y-130374980D02*
X158098041Y-130636885D01*
X158098041Y-130636885D02*
X158150422Y-130689266D01*
X158150422Y-130689266D02*
X158255184Y-130741647D01*
X156526613Y-130060695D02*
X156002803Y-130060695D01*
X156631375Y-130374980D02*
X156264708Y-129274980D01*
X156264708Y-129274980D02*
X155898041Y-130374980D01*
X155531375Y-130270219D02*
X155478994Y-130322600D01*
X155478994Y-130322600D02*
X155531375Y-130374980D01*
X155531375Y-130374980D02*
X155583756Y-130322600D01*
X155583756Y-130322600D02*
X155531375Y-130270219D01*
X155531375Y-130270219D02*
X155531375Y-130374980D01*
X154169470Y-130374980D02*
X154169470Y-129274980D01*
X153540898Y-130374980D02*
X154012327Y-129746409D01*
X153540898Y-129274980D02*
X154169470Y-129903552D01*
X152912327Y-130374980D02*
X153017089Y-130322600D01*
X153017089Y-130322600D02*
X153069470Y-130270219D01*
X153069470Y-130270219D02*
X153121851Y-130165457D01*
X153121851Y-130165457D02*
X153121851Y-129851171D01*
X153121851Y-129851171D02*
X153069470Y-129746409D01*
X153069470Y-129746409D02*
X153017089Y-129694028D01*
X153017089Y-129694028D02*
X152912327Y-129641647D01*
X152912327Y-129641647D02*
X152755184Y-129641647D01*
X152755184Y-129641647D02*
X152650422Y-129694028D01*
X152650422Y-129694028D02*
X152598041Y-129746409D01*
X152598041Y-129746409D02*
X152545660Y-129851171D01*
X152545660Y-129851171D02*
X152545660Y-130165457D01*
X152545660Y-130165457D02*
X152598041Y-130270219D01*
X152598041Y-130270219D02*
X152650422Y-130322600D01*
X152650422Y-130322600D02*
X152755184Y-130374980D01*
X152755184Y-130374980D02*
X152912327Y-130374980D01*
X152074232Y-130374980D02*
X152074232Y-129641647D01*
X152074232Y-129851171D02*
X152021851Y-129746409D01*
X152021851Y-129746409D02*
X151969470Y-129694028D01*
X151969470Y-129694028D02*
X151864708Y-129641647D01*
X151864708Y-129641647D02*
X151759946Y-129641647D01*
X151498042Y-129641647D02*
X151236137Y-130374980D01*
X150974232Y-129641647D02*
X151236137Y-130374980D01*
X151236137Y-130374980D02*
X151340899Y-130636885D01*
X151340899Y-130636885D02*
X151393280Y-130689266D01*
X151393280Y-130689266D02*
X151498042Y-130741647D01*
X150083756Y-130374980D02*
X150083756Y-129798790D01*
X150083756Y-129798790D02*
X150136137Y-129694028D01*
X150136137Y-129694028D02*
X150240899Y-129641647D01*
X150240899Y-129641647D02*
X150450423Y-129641647D01*
X150450423Y-129641647D02*
X150555185Y-129694028D01*
X150083756Y-130322600D02*
X150188518Y-130374980D01*
X150188518Y-130374980D02*
X150450423Y-130374980D01*
X150450423Y-130374980D02*
X150555185Y-130322600D01*
X150555185Y-130322600D02*
X150607566Y-130217838D01*
X150607566Y-130217838D02*
X150607566Y-130113076D01*
X150607566Y-130113076D02*
X150555185Y-130008314D01*
X150555185Y-130008314D02*
X150450423Y-129955933D01*
X150450423Y-129955933D02*
X150188518Y-129955933D01*
X150188518Y-129955933D02*
X150083756Y-129903552D01*
X149559947Y-130374980D02*
X149559947Y-129274980D01*
X149455185Y-129955933D02*
X149140899Y-130374980D01*
X149140899Y-129641647D02*
X149559947Y-130060695D01*
X148669471Y-130374980D02*
X148669471Y-129641647D01*
X148669471Y-129274980D02*
X148721852Y-129327361D01*
X148721852Y-129327361D02*
X148669471Y-129379742D01*
X148669471Y-129379742D02*
X148617090Y-129327361D01*
X148617090Y-129327361D02*
X148669471Y-129274980D01*
X148669471Y-129274980D02*
X148669471Y-129379742D01*
X148145661Y-129641647D02*
X148145661Y-130374980D01*
X148145661Y-129746409D02*
X148093280Y-129694028D01*
X148093280Y-129694028D02*
X147988518Y-129641647D01*
X147988518Y-129641647D02*
X147831375Y-129641647D01*
X147831375Y-129641647D02*
X147726613Y-129694028D01*
X147726613Y-129694028D02*
X147674232Y-129798790D01*
X147674232Y-129798790D02*
X147674232Y-130374980D01*
X145526613Y-129222600D02*
X146469471Y-130636885D01*
X144478995Y-129274980D02*
X143850423Y-129274980D01*
X144164709Y-130374980D02*
X144164709Y-129274980D01*
X143483757Y-130374980D02*
X143483757Y-129274980D01*
X143012328Y-130374980D02*
X143012328Y-129798790D01*
X143012328Y-129798790D02*
X143064709Y-129694028D01*
X143064709Y-129694028D02*
X143169471Y-129641647D01*
X143169471Y-129641647D02*
X143326614Y-129641647D01*
X143326614Y-129641647D02*
X143431376Y-129694028D01*
X143431376Y-129694028D02*
X143483757Y-129746409D01*
X142017090Y-130374980D02*
X142017090Y-129798790D01*
X142017090Y-129798790D02*
X142069471Y-129694028D01*
X142069471Y-129694028D02*
X142174233Y-129641647D01*
X142174233Y-129641647D02*
X142383757Y-129641647D01*
X142383757Y-129641647D02*
X142488519Y-129694028D01*
X142017090Y-130322600D02*
X142121852Y-130374980D01*
X142121852Y-130374980D02*
X142383757Y-130374980D01*
X142383757Y-130374980D02*
X142488519Y-130322600D01*
X142488519Y-130322600D02*
X142540900Y-130217838D01*
X142540900Y-130217838D02*
X142540900Y-130113076D01*
X142540900Y-130113076D02*
X142488519Y-130008314D01*
X142488519Y-130008314D02*
X142383757Y-129955933D01*
X142383757Y-129955933D02*
X142121852Y-129955933D01*
X142121852Y-129955933D02*
X142017090Y-129903552D01*
X141493281Y-129641647D02*
X141493281Y-130374980D01*
X141493281Y-129746409D02*
X141440900Y-129694028D01*
X141440900Y-129694028D02*
X141336138Y-129641647D01*
X141336138Y-129641647D02*
X141178995Y-129641647D01*
X141178995Y-129641647D02*
X141074233Y-129694028D01*
X141074233Y-129694028D02*
X141021852Y-129798790D01*
X141021852Y-129798790D02*
X141021852Y-130374980D01*
X140498043Y-130374980D02*
X140498043Y-129274980D01*
X140393281Y-129955933D02*
X140078995Y-130374980D01*
X140078995Y-129641647D02*
X140498043Y-130060695D01*
X139659948Y-130322600D02*
X139555186Y-130374980D01*
X139555186Y-130374980D02*
X139345662Y-130374980D01*
X139345662Y-130374980D02*
X139240900Y-130322600D01*
X139240900Y-130322600D02*
X139188519Y-130217838D01*
X139188519Y-130217838D02*
X139188519Y-130165457D01*
X139188519Y-130165457D02*
X139240900Y-130060695D01*
X139240900Y-130060695D02*
X139345662Y-130008314D01*
X139345662Y-130008314D02*
X139502805Y-130008314D01*
X139502805Y-130008314D02*
X139607567Y-129955933D01*
X139607567Y-129955933D02*
X139659948Y-129851171D01*
X139659948Y-129851171D02*
X139659948Y-129798790D01*
X139659948Y-129798790D02*
X139607567Y-129694028D01*
X139607567Y-129694028D02*
X139502805Y-129641647D01*
X139502805Y-129641647D02*
X139345662Y-129641647D01*
X139345662Y-129641647D02*
X139240900Y-129694028D01*
X138036139Y-129641647D02*
X137617091Y-129641647D01*
X137878996Y-129274980D02*
X137878996Y-130217838D01*
X137878996Y-130217838D02*
X137826615Y-130322600D01*
X137826615Y-130322600D02*
X137721853Y-130374980D01*
X137721853Y-130374980D02*
X137617091Y-130374980D01*
X137093282Y-130374980D02*
X137198044Y-130322600D01*
X137198044Y-130322600D02*
X137250425Y-130270219D01*
X137250425Y-130270219D02*
X137302806Y-130165457D01*
X137302806Y-130165457D02*
X137302806Y-129851171D01*
X137302806Y-129851171D02*
X137250425Y-129746409D01*
X137250425Y-129746409D02*
X137198044Y-129694028D01*
X137198044Y-129694028D02*
X137093282Y-129641647D01*
X137093282Y-129641647D02*
X136936139Y-129641647D01*
X136936139Y-129641647D02*
X136831377Y-129694028D01*
X136831377Y-129694028D02*
X136778996Y-129746409D01*
X136778996Y-129746409D02*
X136726615Y-129851171D01*
X136726615Y-129851171D02*
X136726615Y-130165457D01*
X136726615Y-130165457D02*
X136778996Y-130270219D01*
X136778996Y-130270219D02*
X136831377Y-130322600D01*
X136831377Y-130322600D02*
X136936139Y-130374980D01*
X136936139Y-130374980D02*
X137093282Y-130374980D01*
X135417092Y-130374980D02*
X135417092Y-129274980D01*
X135417092Y-129274980D02*
X135050425Y-130060695D01*
X135050425Y-130060695D02*
X134683758Y-129274980D01*
X134683758Y-129274980D02*
X134683758Y-130374980D01*
X133688520Y-130374980D02*
X133688520Y-129798790D01*
X133688520Y-129798790D02*
X133740901Y-129694028D01*
X133740901Y-129694028D02*
X133845663Y-129641647D01*
X133845663Y-129641647D02*
X134055187Y-129641647D01*
X134055187Y-129641647D02*
X134159949Y-129694028D01*
X133688520Y-130322600D02*
X133793282Y-130374980D01*
X133793282Y-130374980D02*
X134055187Y-130374980D01*
X134055187Y-130374980D02*
X134159949Y-130322600D01*
X134159949Y-130322600D02*
X134212330Y-130217838D01*
X134212330Y-130217838D02*
X134212330Y-130113076D01*
X134212330Y-130113076D02*
X134159949Y-130008314D01*
X134159949Y-130008314D02*
X134055187Y-129955933D01*
X134055187Y-129955933D02*
X133793282Y-129955933D01*
X133793282Y-129955933D02*
X133688520Y-129903552D01*
X133269473Y-130374980D02*
X132693282Y-129641647D01*
X133269473Y-129641647D02*
X132693282Y-130374980D01*
X131593283Y-129274980D02*
X131226616Y-130374980D01*
X131226616Y-130374980D02*
X130859949Y-129274980D01*
X130336140Y-130374980D02*
X130440902Y-130322600D01*
X130440902Y-130322600D02*
X130493283Y-130217838D01*
X130493283Y-130217838D02*
X130493283Y-129274980D01*
X129445664Y-130374980D02*
X129445664Y-129798790D01*
X129445664Y-129798790D02*
X129498045Y-129694028D01*
X129498045Y-129694028D02*
X129602807Y-129641647D01*
X129602807Y-129641647D02*
X129812331Y-129641647D01*
X129812331Y-129641647D02*
X129917093Y-129694028D01*
X129445664Y-130322600D02*
X129550426Y-130374980D01*
X129550426Y-130374980D02*
X129812331Y-130374980D01*
X129812331Y-130374980D02*
X129917093Y-130322600D01*
X129917093Y-130322600D02*
X129969474Y-130217838D01*
X129969474Y-130217838D02*
X129969474Y-130113076D01*
X129969474Y-130113076D02*
X129917093Y-130008314D01*
X129917093Y-130008314D02*
X129812331Y-129955933D01*
X129812331Y-129955933D02*
X129550426Y-129955933D01*
X129550426Y-129955933D02*
X129445664Y-129903552D01*
X128974236Y-130322600D02*
X128869474Y-130374980D01*
X128869474Y-130374980D02*
X128659950Y-130374980D01*
X128659950Y-130374980D02*
X128555188Y-130322600D01*
X128555188Y-130322600D02*
X128502807Y-130217838D01*
X128502807Y-130217838D02*
X128502807Y-130165457D01*
X128502807Y-130165457D02*
X128555188Y-130060695D01*
X128555188Y-130060695D02*
X128659950Y-130008314D01*
X128659950Y-130008314D02*
X128817093Y-130008314D01*
X128817093Y-130008314D02*
X128921855Y-129955933D01*
X128921855Y-129955933D02*
X128974236Y-129851171D01*
X128974236Y-129851171D02*
X128974236Y-129798790D01*
X128974236Y-129798790D02*
X128921855Y-129694028D01*
X128921855Y-129694028D02*
X128817093Y-129641647D01*
X128817093Y-129641647D02*
X128659950Y-129641647D01*
X128659950Y-129641647D02*
X128555188Y-129694028D01*
X127874236Y-130374980D02*
X127978998Y-130322600D01*
X127978998Y-130322600D02*
X128031379Y-130270219D01*
X128031379Y-130270219D02*
X128083760Y-130165457D01*
X128083760Y-130165457D02*
X128083760Y-129851171D01*
X128083760Y-129851171D02*
X128031379Y-129746409D01*
X128031379Y-129746409D02*
X127978998Y-129694028D01*
X127978998Y-129694028D02*
X127874236Y-129641647D01*
X127874236Y-129641647D02*
X127717093Y-129641647D01*
X127717093Y-129641647D02*
X127612331Y-129694028D01*
X127612331Y-129694028D02*
X127559950Y-129746409D01*
X127559950Y-129746409D02*
X127507569Y-129851171D01*
X127507569Y-129851171D02*
X127507569Y-130165457D01*
X127507569Y-130165457D02*
X127559950Y-130270219D01*
X127559950Y-130270219D02*
X127612331Y-130322600D01*
X127612331Y-130322600D02*
X127717093Y-130374980D01*
X127717093Y-130374980D02*
X127874236Y-130374980D01*
X127140903Y-129641647D02*
X126878998Y-130374980D01*
X126878998Y-130374980D02*
X126617093Y-129641647D01*
D12*
X152458663Y-116504452D02*
X152458663Y-117171119D01*
X152696758Y-116123500D02*
X152934853Y-116837785D01*
X152934853Y-116837785D02*
X152315806Y-116837785D01*
D14*
X174374232Y-123589579D02*
X174421851Y-123637199D01*
X174421851Y-123637199D02*
X174564708Y-123684818D01*
X174564708Y-123684818D02*
X174659946Y-123684818D01*
X174659946Y-123684818D02*
X174802803Y-123637199D01*
X174802803Y-123637199D02*
X174898041Y-123541960D01*
X174898041Y-123541960D02*
X174945660Y-123446722D01*
X174945660Y-123446722D02*
X174993279Y-123256246D01*
X174993279Y-123256246D02*
X174993279Y-123113389D01*
X174993279Y-123113389D02*
X174945660Y-122922913D01*
X174945660Y-122922913D02*
X174898041Y-122827675D01*
X174898041Y-122827675D02*
X174802803Y-122732437D01*
X174802803Y-122732437D02*
X174659946Y-122684818D01*
X174659946Y-122684818D02*
X174564708Y-122684818D01*
X174564708Y-122684818D02*
X174421851Y-122732437D01*
X174421851Y-122732437D02*
X174374232Y-122780056D01*
X174040898Y-122684818D02*
X173374232Y-122684818D01*
X173374232Y-122684818D02*
X173802803Y-123684818D01*
X145624232Y-122754819D02*
X145957565Y-122278628D01*
X146195660Y-122754819D02*
X146195660Y-121754819D01*
X146195660Y-121754819D02*
X145814708Y-121754819D01*
X145814708Y-121754819D02*
X145719470Y-121802438D01*
X145719470Y-121802438D02*
X145671851Y-121850057D01*
X145671851Y-121850057D02*
X145624232Y-121945295D01*
X145624232Y-121945295D02*
X145624232Y-122088152D01*
X145624232Y-122088152D02*
X145671851Y-122183390D01*
X145671851Y-122183390D02*
X145719470Y-122231009D01*
X145719470Y-122231009D02*
X145814708Y-122278628D01*
X145814708Y-122278628D02*
X146195660Y-122278628D01*
X145243279Y-121850057D02*
X145195660Y-121802438D01*
X145195660Y-121802438D02*
X145100422Y-121754819D01*
X145100422Y-121754819D02*
X144862327Y-121754819D01*
X144862327Y-121754819D02*
X144767089Y-121802438D01*
X144767089Y-121802438D02*
X144719470Y-121850057D01*
X144719470Y-121850057D02*
X144671851Y-121945295D01*
X144671851Y-121945295D02*
X144671851Y-122040533D01*
X144671851Y-122040533D02*
X144719470Y-122183390D01*
X144719470Y-122183390D02*
X145290898Y-122754819D01*
X145290898Y-122754819D02*
X144671851Y-122754819D01*
X141352804Y-122754819D02*
X141924232Y-122754819D01*
X141638518Y-122754819D02*
X141638518Y-121754819D01*
X141638518Y-121754819D02*
X141733756Y-121897676D01*
X141733756Y-121897676D02*
X141828994Y-121992914D01*
X141828994Y-121992914D02*
X141924232Y-122040533D01*
X140733756Y-121754819D02*
X140638518Y-121754819D01*
X140638518Y-121754819D02*
X140543280Y-121802438D01*
X140543280Y-121802438D02*
X140495661Y-121850057D01*
X140495661Y-121850057D02*
X140448042Y-121945295D01*
X140448042Y-121945295D02*
X140400423Y-122135771D01*
X140400423Y-122135771D02*
X140400423Y-122373866D01*
X140400423Y-122373866D02*
X140448042Y-122564342D01*
X140448042Y-122564342D02*
X140495661Y-122659580D01*
X140495661Y-122659580D02*
X140543280Y-122707200D01*
X140543280Y-122707200D02*
X140638518Y-122754819D01*
X140638518Y-122754819D02*
X140733756Y-122754819D01*
X140733756Y-122754819D02*
X140828994Y-122707200D01*
X140828994Y-122707200D02*
X140876613Y-122659580D01*
X140876613Y-122659580D02*
X140924232Y-122564342D01*
X140924232Y-122564342D02*
X140971851Y-122373866D01*
X140971851Y-122373866D02*
X140971851Y-122135771D01*
X140971851Y-122135771D02*
X140924232Y-121945295D01*
X140924232Y-121945295D02*
X140876613Y-121850057D01*
X140876613Y-121850057D02*
X140828994Y-121802438D01*
X140828994Y-121802438D02*
X140733756Y-121754819D01*
X139971851Y-122754819D02*
X139971851Y-121754819D01*
X139876613Y-122373866D02*
X139590899Y-122754819D01*
X139590899Y-122088152D02*
X139971851Y-122469104D01*
X151474232Y-71029581D02*
X151521851Y-71077201D01*
X151521851Y-71077201D02*
X151664708Y-71124820D01*
X151664708Y-71124820D02*
X151759946Y-71124820D01*
X151759946Y-71124820D02*
X151902803Y-71077201D01*
X151902803Y-71077201D02*
X151998041Y-70981962D01*
X151998041Y-70981962D02*
X152045660Y-70886724D01*
X152045660Y-70886724D02*
X152093279Y-70696248D01*
X152093279Y-70696248D02*
X152093279Y-70553391D01*
X152093279Y-70553391D02*
X152045660Y-70362915D01*
X152045660Y-70362915D02*
X151998041Y-70267677D01*
X151998041Y-70267677D02*
X151902803Y-70172439D01*
X151902803Y-70172439D02*
X151759946Y-70124820D01*
X151759946Y-70124820D02*
X151664708Y-70124820D01*
X151664708Y-70124820D02*
X151521851Y-70172439D01*
X151521851Y-70172439D02*
X151474232Y-70220058D01*
X151093279Y-70220058D02*
X151045660Y-70172439D01*
X151045660Y-70172439D02*
X150950422Y-70124820D01*
X150950422Y-70124820D02*
X150712327Y-70124820D01*
X150712327Y-70124820D02*
X150617089Y-70172439D01*
X150617089Y-70172439D02*
X150569470Y-70220058D01*
X150569470Y-70220058D02*
X150521851Y-70315296D01*
X150521851Y-70315296D02*
X150521851Y-70410534D01*
X150521851Y-70410534D02*
X150569470Y-70553391D01*
X150569470Y-70553391D02*
X151140898Y-71124820D01*
X151140898Y-71124820D02*
X150521851Y-71124820D01*
X186624232Y-123659580D02*
X186671851Y-123707200D01*
X186671851Y-123707200D02*
X186814708Y-123754819D01*
X186814708Y-123754819D02*
X186909946Y-123754819D01*
X186909946Y-123754819D02*
X187052803Y-123707200D01*
X187052803Y-123707200D02*
X187148041Y-123611961D01*
X187148041Y-123611961D02*
X187195660Y-123516723D01*
X187195660Y-123516723D02*
X187243279Y-123326247D01*
X187243279Y-123326247D02*
X187243279Y-123183390D01*
X187243279Y-123183390D02*
X187195660Y-122992914D01*
X187195660Y-122992914D02*
X187148041Y-122897676D01*
X187148041Y-122897676D02*
X187052803Y-122802438D01*
X187052803Y-122802438D02*
X186909946Y-122754819D01*
X186909946Y-122754819D02*
X186814708Y-122754819D01*
X186814708Y-122754819D02*
X186671851Y-122802438D01*
X186671851Y-122802438D02*
X186624232Y-122850057D01*
X186052803Y-123183390D02*
X186148041Y-123135771D01*
X186148041Y-123135771D02*
X186195660Y-123088152D01*
X186195660Y-123088152D02*
X186243279Y-122992914D01*
X186243279Y-122992914D02*
X186243279Y-122945295D01*
X186243279Y-122945295D02*
X186195660Y-122850057D01*
X186195660Y-122850057D02*
X186148041Y-122802438D01*
X186148041Y-122802438D02*
X186052803Y-122754819D01*
X186052803Y-122754819D02*
X185862327Y-122754819D01*
X185862327Y-122754819D02*
X185767089Y-122802438D01*
X185767089Y-122802438D02*
X185719470Y-122850057D01*
X185719470Y-122850057D02*
X185671851Y-122945295D01*
X185671851Y-122945295D02*
X185671851Y-122992914D01*
X185671851Y-122992914D02*
X185719470Y-123088152D01*
X185719470Y-123088152D02*
X185767089Y-123135771D01*
X185767089Y-123135771D02*
X185862327Y-123183390D01*
X185862327Y-123183390D02*
X186052803Y-123183390D01*
X186052803Y-123183390D02*
X186148041Y-123231009D01*
X186148041Y-123231009D02*
X186195660Y-123278628D01*
X186195660Y-123278628D02*
X186243279Y-123373866D01*
X186243279Y-123373866D02*
X186243279Y-123564342D01*
X186243279Y-123564342D02*
X186195660Y-123659580D01*
X186195660Y-123659580D02*
X186148041Y-123707200D01*
X186148041Y-123707200D02*
X186052803Y-123754819D01*
X186052803Y-123754819D02*
X185862327Y-123754819D01*
X185862327Y-123754819D02*
X185767089Y-123707200D01*
X185767089Y-123707200D02*
X185719470Y-123659580D01*
X185719470Y-123659580D02*
X185671851Y-123564342D01*
X185671851Y-123564342D02*
X185671851Y-123373866D01*
X185671851Y-123373866D02*
X185719470Y-123278628D01*
X185719470Y-123278628D02*
X185767089Y-123231009D01*
X185767089Y-123231009D02*
X185862327Y-123183390D01*
X187874232Y-71029581D02*
X187921851Y-71077201D01*
X187921851Y-71077201D02*
X188064708Y-71124820D01*
X188064708Y-71124820D02*
X188159946Y-71124820D01*
X188159946Y-71124820D02*
X188302803Y-71077201D01*
X188302803Y-71077201D02*
X188398041Y-70981962D01*
X188398041Y-70981962D02*
X188445660Y-70886724D01*
X188445660Y-70886724D02*
X188493279Y-70696248D01*
X188493279Y-70696248D02*
X188493279Y-70553391D01*
X188493279Y-70553391D02*
X188445660Y-70362915D01*
X188445660Y-70362915D02*
X188398041Y-70267677D01*
X188398041Y-70267677D02*
X188302803Y-70172439D01*
X188302803Y-70172439D02*
X188159946Y-70124820D01*
X188159946Y-70124820D02*
X188064708Y-70124820D01*
X188064708Y-70124820D02*
X187921851Y-70172439D01*
X187921851Y-70172439D02*
X187874232Y-70220058D01*
X187017089Y-70458153D02*
X187017089Y-71124820D01*
X187255184Y-70077201D02*
X187493279Y-70791486D01*
X187493279Y-70791486D02*
X186874232Y-70791486D01*
X153774232Y-110639580D02*
X153821851Y-110687200D01*
X153821851Y-110687200D02*
X153964708Y-110734819D01*
X153964708Y-110734819D02*
X154059946Y-110734819D01*
X154059946Y-110734819D02*
X154202803Y-110687200D01*
X154202803Y-110687200D02*
X154298041Y-110591961D01*
X154298041Y-110591961D02*
X154345660Y-110496723D01*
X154345660Y-110496723D02*
X154393279Y-110306247D01*
X154393279Y-110306247D02*
X154393279Y-110163390D01*
X154393279Y-110163390D02*
X154345660Y-109972914D01*
X154345660Y-109972914D02*
X154298041Y-109877676D01*
X154298041Y-109877676D02*
X154202803Y-109782438D01*
X154202803Y-109782438D02*
X154059946Y-109734819D01*
X154059946Y-109734819D02*
X153964708Y-109734819D01*
X153964708Y-109734819D02*
X153821851Y-109782438D01*
X153821851Y-109782438D02*
X153774232Y-109830057D01*
X153298041Y-110734819D02*
X153107565Y-110734819D01*
X153107565Y-110734819D02*
X153012327Y-110687200D01*
X153012327Y-110687200D02*
X152964708Y-110639580D01*
X152964708Y-110639580D02*
X152869470Y-110496723D01*
X152869470Y-110496723D02*
X152821851Y-110306247D01*
X152821851Y-110306247D02*
X152821851Y-109925295D01*
X152821851Y-109925295D02*
X152869470Y-109830057D01*
X152869470Y-109830057D02*
X152917089Y-109782438D01*
X152917089Y-109782438D02*
X153012327Y-109734819D01*
X153012327Y-109734819D02*
X153202803Y-109734819D01*
X153202803Y-109734819D02*
X153298041Y-109782438D01*
X153298041Y-109782438D02*
X153345660Y-109830057D01*
X153345660Y-109830057D02*
X153393279Y-109925295D01*
X153393279Y-109925295D02*
X153393279Y-110163390D01*
X153393279Y-110163390D02*
X153345660Y-110258628D01*
X153345660Y-110258628D02*
X153298041Y-110306247D01*
X153298041Y-110306247D02*
X153202803Y-110353866D01*
X153202803Y-110353866D02*
X153012327Y-110353866D01*
X153012327Y-110353866D02*
X152917089Y-110306247D01*
X152917089Y-110306247D02*
X152869470Y-110258628D01*
X152869470Y-110258628D02*
X152821851Y-110163390D01*
X169674232Y-71029581D02*
X169721851Y-71077201D01*
X169721851Y-71077201D02*
X169864708Y-71124820D01*
X169864708Y-71124820D02*
X169959946Y-71124820D01*
X169959946Y-71124820D02*
X170102803Y-71077201D01*
X170102803Y-71077201D02*
X170198041Y-70981962D01*
X170198041Y-70981962D02*
X170245660Y-70886724D01*
X170245660Y-70886724D02*
X170293279Y-70696248D01*
X170293279Y-70696248D02*
X170293279Y-70553391D01*
X170293279Y-70553391D02*
X170245660Y-70362915D01*
X170245660Y-70362915D02*
X170198041Y-70267677D01*
X170198041Y-70267677D02*
X170102803Y-70172439D01*
X170102803Y-70172439D02*
X169959946Y-70124820D01*
X169959946Y-70124820D02*
X169864708Y-70124820D01*
X169864708Y-70124820D02*
X169721851Y-70172439D01*
X169721851Y-70172439D02*
X169674232Y-70220058D01*
X169340898Y-70124820D02*
X168721851Y-70124820D01*
X168721851Y-70124820D02*
X169055184Y-70505772D01*
X169055184Y-70505772D02*
X168912327Y-70505772D01*
X168912327Y-70505772D02*
X168817089Y-70553391D01*
X168817089Y-70553391D02*
X168769470Y-70601010D01*
X168769470Y-70601010D02*
X168721851Y-70696248D01*
X168721851Y-70696248D02*
X168721851Y-70934343D01*
X168721851Y-70934343D02*
X168769470Y-71029581D01*
X168769470Y-71029581D02*
X168817089Y-71077201D01*
X168817089Y-71077201D02*
X168912327Y-71124820D01*
X168912327Y-71124820D02*
X169198041Y-71124820D01*
X169198041Y-71124820D02*
X169293279Y-71077201D01*
X169293279Y-71077201D02*
X169340898Y-71029581D01*
X145624232Y-126517319D02*
X145957565Y-126041128D01*
X146195660Y-126517319D02*
X146195660Y-125517319D01*
X146195660Y-125517319D02*
X145814708Y-125517319D01*
X145814708Y-125517319D02*
X145719470Y-125564938D01*
X145719470Y-125564938D02*
X145671851Y-125612557D01*
X145671851Y-125612557D02*
X145624232Y-125707795D01*
X145624232Y-125707795D02*
X145624232Y-125850652D01*
X145624232Y-125850652D02*
X145671851Y-125945890D01*
X145671851Y-125945890D02*
X145719470Y-125993509D01*
X145719470Y-125993509D02*
X145814708Y-126041128D01*
X145814708Y-126041128D02*
X146195660Y-126041128D01*
X144671851Y-126517319D02*
X145243279Y-126517319D01*
X144957565Y-126517319D02*
X144957565Y-125517319D01*
X144957565Y-125517319D02*
X145052803Y-125660176D01*
X145052803Y-125660176D02*
X145148041Y-125755414D01*
X145148041Y-125755414D02*
X145243279Y-125803033D01*
X141376613Y-126517319D02*
X141948041Y-126517319D01*
X141662327Y-126517319D02*
X141662327Y-125517319D01*
X141662327Y-125517319D02*
X141757565Y-125660176D01*
X141757565Y-125660176D02*
X141852803Y-125755414D01*
X141852803Y-125755414D02*
X141948041Y-125803033D01*
X140948041Y-126517319D02*
X140948041Y-125517319D01*
X140852803Y-126136366D02*
X140567089Y-126517319D01*
X140567089Y-125850652D02*
X140948041Y-126231604D01*
X133274232Y-71029581D02*
X133321851Y-71077201D01*
X133321851Y-71077201D02*
X133464708Y-71124820D01*
X133464708Y-71124820D02*
X133559946Y-71124820D01*
X133559946Y-71124820D02*
X133702803Y-71077201D01*
X133702803Y-71077201D02*
X133798041Y-70981962D01*
X133798041Y-70981962D02*
X133845660Y-70886724D01*
X133845660Y-70886724D02*
X133893279Y-70696248D01*
X133893279Y-70696248D02*
X133893279Y-70553391D01*
X133893279Y-70553391D02*
X133845660Y-70362915D01*
X133845660Y-70362915D02*
X133798041Y-70267677D01*
X133798041Y-70267677D02*
X133702803Y-70172439D01*
X133702803Y-70172439D02*
X133559946Y-70124820D01*
X133559946Y-70124820D02*
X133464708Y-70124820D01*
X133464708Y-70124820D02*
X133321851Y-70172439D01*
X133321851Y-70172439D02*
X133274232Y-70220058D01*
X132321851Y-71124820D02*
X132893279Y-71124820D01*
X132607565Y-71124820D02*
X132607565Y-70124820D01*
X132607565Y-70124820D02*
X132702803Y-70267677D01*
X132702803Y-70267677D02*
X132798041Y-70362915D01*
X132798041Y-70362915D02*
X132893279Y-70410534D01*
X159124232Y-110709580D02*
X159171851Y-110757200D01*
X159171851Y-110757200D02*
X159314708Y-110804819D01*
X159314708Y-110804819D02*
X159409946Y-110804819D01*
X159409946Y-110804819D02*
X159552803Y-110757200D01*
X159552803Y-110757200D02*
X159648041Y-110661961D01*
X159648041Y-110661961D02*
X159695660Y-110566723D01*
X159695660Y-110566723D02*
X159743279Y-110376247D01*
X159743279Y-110376247D02*
X159743279Y-110233390D01*
X159743279Y-110233390D02*
X159695660Y-110042914D01*
X159695660Y-110042914D02*
X159648041Y-109947676D01*
X159648041Y-109947676D02*
X159552803Y-109852438D01*
X159552803Y-109852438D02*
X159409946Y-109804819D01*
X159409946Y-109804819D02*
X159314708Y-109804819D01*
X159314708Y-109804819D02*
X159171851Y-109852438D01*
X159171851Y-109852438D02*
X159124232Y-109900057D01*
X158267089Y-109804819D02*
X158457565Y-109804819D01*
X158457565Y-109804819D02*
X158552803Y-109852438D01*
X158552803Y-109852438D02*
X158600422Y-109900057D01*
X158600422Y-109900057D02*
X158695660Y-110042914D01*
X158695660Y-110042914D02*
X158743279Y-110233390D01*
X158743279Y-110233390D02*
X158743279Y-110614342D01*
X158743279Y-110614342D02*
X158695660Y-110709580D01*
X158695660Y-110709580D02*
X158648041Y-110757200D01*
X158648041Y-110757200D02*
X158552803Y-110804819D01*
X158552803Y-110804819D02*
X158362327Y-110804819D01*
X158362327Y-110804819D02*
X158267089Y-110757200D01*
X158267089Y-110757200D02*
X158219470Y-110709580D01*
X158219470Y-110709580D02*
X158171851Y-110614342D01*
X158171851Y-110614342D02*
X158171851Y-110376247D01*
X158171851Y-110376247D02*
X158219470Y-110281009D01*
X158219470Y-110281009D02*
X158267089Y-110233390D01*
X158267089Y-110233390D02*
X158362327Y-110185771D01*
X158362327Y-110185771D02*
X158552803Y-110185771D01*
X158552803Y-110185771D02*
X158648041Y-110233390D01*
X158648041Y-110233390D02*
X158695660Y-110281009D01*
X158695660Y-110281009D02*
X158743279Y-110376247D01*
D15*
%TO.C,C7*%
X173946313Y-120815000D02*
X174468819Y-120815000D01*
X173946313Y-122285000D02*
X174468819Y-122285000D01*
%TO.C,R2*%
X142622566Y-122527064D02*
X142622566Y-122072936D01*
X144092566Y-122527064D02*
X144092566Y-122072936D01*
%TO.C,JP3*%
X151757566Y-118600000D02*
X151757566Y-120000000D01*
X152457565Y-120700000D02*
X153057567Y-120700000D01*
X153057567Y-117900000D02*
X152457565Y-117900000D01*
X153757566Y-120000000D02*
X153757566Y-118600000D01*
X151757566Y-118600000D02*
G75*
G02*
X152457565Y-117900000I699999J1D01*
G01*
X152457565Y-120700000D02*
G75*
G02*
X151757566Y-120000000I1J700000D01*
G01*
X153057567Y-117900000D02*
G75*
G02*
X153757566Y-118600000I0J-699999D01*
G01*
X153757566Y-120000000D02*
G75*
G02*
X153057567Y-120700000I-700000J0D01*
G01*
D16*
%TO.C,G\u002A\u002A\u002A*%
G36*
X154315505Y-89446919D02*
G01*
X154307981Y-89454443D01*
X154300458Y-89446919D01*
X154307981Y-89439395D01*
X154315505Y-89446919D01*
G37*
G36*
X155790150Y-90605568D02*
G01*
X155782626Y-90613092D01*
X155775102Y-90605567D01*
X155782626Y-90598044D01*
X155790150Y-90605568D01*
G37*
G36*
X156018682Y-81754947D02*
G01*
X156025647Y-81760362D01*
X156009591Y-81764037D01*
X155994329Y-81762973D01*
X155989841Y-81756133D01*
X155995165Y-81753152D01*
X156018682Y-81754947D01*
G37*
G36*
X153994993Y-86386994D02*
G01*
X154021941Y-86407733D01*
X154034663Y-86441860D01*
X154030834Y-86478977D01*
X154008131Y-86508685D01*
X153988027Y-86518107D01*
X153950339Y-86516156D01*
X153921027Y-86492552D01*
X153909225Y-86452488D01*
X153912517Y-86429311D01*
X153936639Y-86396615D01*
X153980433Y-86384774D01*
X153994993Y-86386994D01*
G37*
G36*
X157292985Y-86504135D02*
G01*
X157306441Y-86513734D01*
X157323807Y-86545778D01*
X157318633Y-86580410D01*
X157291127Y-86606133D01*
X157288089Y-86607451D01*
X157243549Y-86614092D01*
X157209137Y-86597141D01*
X157192332Y-86560085D01*
X157194443Y-86535626D01*
X157215819Y-86506696D01*
X157251610Y-86494562D01*
X157292985Y-86504135D01*
G37*
G36*
X153658819Y-86511272D02*
G01*
X153686410Y-86533115D01*
X153722876Y-86565343D01*
X153747336Y-86587151D01*
X153782572Y-86612062D01*
X153817176Y-86623063D01*
X153863747Y-86625533D01*
X153880496Y-86625652D01*
X153918071Y-86628519D01*
X153935232Y-86637392D01*
X153939320Y-86655147D01*
X153928217Y-86681724D01*
X153897940Y-86707210D01*
X153862844Y-86722874D01*
X153833988Y-86729931D01*
X153830145Y-86729827D01*
X153789109Y-86719331D01*
X153739345Y-86696296D01*
X153693180Y-86667285D01*
X153662937Y-86638860D01*
X153654732Y-86623506D01*
X153643768Y-86587420D01*
X153638206Y-86548691D01*
X153639218Y-86517782D01*
X153647975Y-86505154D01*
X153658819Y-86511272D01*
G37*
G36*
X156909439Y-81295346D02*
G01*
X156887067Y-81319362D01*
X156846929Y-81355749D01*
X156792731Y-81401318D01*
X156728180Y-81452878D01*
X156656982Y-81507238D01*
X156620136Y-81533824D01*
X156570990Y-81565524D01*
X156537447Y-81582175D01*
X156521729Y-81583169D01*
X156526059Y-81567897D01*
X156552664Y-81535752D01*
X156562064Y-81525708D01*
X156598191Y-81485937D01*
X156626673Y-81452992D01*
X156649071Y-81429572D01*
X156665709Y-81419135D01*
X156670376Y-81417680D01*
X156696546Y-81404559D01*
X156738962Y-81380726D01*
X156791127Y-81349773D01*
X156815481Y-81335243D01*
X156862978Y-81308564D01*
X156897343Y-81291572D01*
X156912406Y-81287442D01*
X156909439Y-81295346D01*
G37*
G36*
X156734050Y-80799563D02*
G01*
X156775788Y-80833084D01*
X156827765Y-80875541D01*
X156861333Y-80905364D01*
X156879583Y-80926497D01*
X156885606Y-80942879D01*
X156882490Y-80958451D01*
X156873329Y-80977155D01*
X156849781Y-81010984D01*
X156808435Y-81058839D01*
X156754788Y-81115323D01*
X156694224Y-81175249D01*
X156632129Y-81233433D01*
X156573888Y-81284691D01*
X156524886Y-81323840D01*
X156490509Y-81345694D01*
X156450615Y-81362937D01*
X156420660Y-81371912D01*
X156409167Y-81366782D01*
X156411666Y-81347659D01*
X156418772Y-81327021D01*
X156440086Y-81272940D01*
X156470673Y-81200590D01*
X156508092Y-81115576D01*
X156549902Y-81023499D01*
X156593663Y-80929959D01*
X156677299Y-80754008D01*
X156734050Y-80799563D01*
G37*
G36*
X155020282Y-88259181D02*
G01*
X155101860Y-88269018D01*
X155172328Y-88286675D01*
X155192903Y-88294767D01*
X155273478Y-88343567D01*
X155348246Y-88413848D01*
X155411830Y-88498742D01*
X155458856Y-88591378D01*
X155483948Y-88684889D01*
X155491321Y-88739692D01*
X155457595Y-88694548D01*
X155447386Y-88681159D01*
X155376259Y-88599678D01*
X155298555Y-88527669D01*
X155221080Y-88470885D01*
X155150635Y-88435076D01*
X155092958Y-88415480D01*
X154979697Y-88384000D01*
X154874429Y-88363589D01*
X154786208Y-88356205D01*
X154774229Y-88356038D01*
X154730081Y-88350890D01*
X154714936Y-88338155D01*
X154728670Y-88317275D01*
X154771161Y-88287689D01*
X154796706Y-88276378D01*
X154858923Y-88262885D01*
X154936376Y-88257146D01*
X155020282Y-88259181D01*
G37*
G36*
X155966692Y-80889956D02*
G01*
X156010782Y-80901290D01*
X156087365Y-80923740D01*
X156144455Y-81092438D01*
X156164696Y-81152094D01*
X156190041Y-81226397D01*
X156212200Y-81290952D01*
X156227961Y-81336374D01*
X156242263Y-81378767D01*
X156246870Y-81403802D01*
X156240289Y-81417633D01*
X156221950Y-81429036D01*
X156216193Y-81431959D01*
X156199187Y-81435900D01*
X156182498Y-81427055D01*
X156160800Y-81401122D01*
X156128762Y-81353799D01*
X156083715Y-81284372D01*
X156038226Y-81211204D01*
X156004910Y-81152212D01*
X155980766Y-81101555D01*
X155962792Y-81053392D01*
X155947990Y-81001881D01*
X155945709Y-80992920D01*
X155933797Y-80941134D01*
X155927120Y-80902910D01*
X155927066Y-80885970D01*
X155935742Y-80884966D01*
X155966692Y-80889956D01*
G37*
G36*
X154117155Y-88758043D02*
G01*
X154119889Y-88789065D01*
X154122364Y-88834791D01*
X154135442Y-88924255D01*
X154157906Y-89027550D01*
X154187652Y-89136468D01*
X154222578Y-89242801D01*
X154260583Y-89338343D01*
X154270480Y-89361073D01*
X154285244Y-89399498D01*
X154286205Y-89413279D01*
X154272903Y-89402149D01*
X154244881Y-89365841D01*
X154201676Y-89304088D01*
X154174084Y-89264450D01*
X154143063Y-89225500D01*
X154112926Y-89199514D01*
X154074693Y-89179273D01*
X154019387Y-89157558D01*
X153909225Y-89116592D01*
X153909309Y-89048521D01*
X153909544Y-89036474D01*
X153915019Y-88976476D01*
X153925456Y-88922601D01*
X153946566Y-88873707D01*
X153985416Y-88819788D01*
X154032112Y-88776766D01*
X154078509Y-88753636D01*
X154103101Y-88749498D01*
X154117155Y-88758043D01*
G37*
G36*
X156899528Y-86714374D02*
G01*
X156931575Y-86732789D01*
X156972093Y-86762480D01*
X156979228Y-86768186D01*
X157019534Y-86798368D01*
X157050994Y-86813649D01*
X157085988Y-86818005D01*
X157136891Y-86815413D01*
X157176921Y-86812208D01*
X157229154Y-86807482D01*
X157264794Y-86803596D01*
X157274642Y-86802540D01*
X157295613Y-86806947D01*
X157297467Y-86828672D01*
X157292905Y-86845865D01*
X157260688Y-86889079D01*
X157200358Y-86921574D01*
X157193908Y-86923919D01*
X157157759Y-86935603D01*
X157128887Y-86938845D01*
X157095291Y-86933474D01*
X157044968Y-86919311D01*
X157021342Y-86910970D01*
X156968933Y-86884605D01*
X156929648Y-86854815D01*
X156924784Y-86849479D01*
X156898677Y-86810776D01*
X156881217Y-86768603D01*
X156875357Y-86732276D01*
X156884055Y-86711108D01*
X156899528Y-86714374D01*
G37*
G36*
X155117985Y-88853372D02*
G01*
X155155587Y-88861614D01*
X155195525Y-88882221D01*
X155247435Y-88919484D01*
X155292585Y-88955968D01*
X155320759Y-88985490D01*
X155335584Y-89014474D01*
X155343034Y-89051149D01*
X155345950Y-89110200D01*
X155339500Y-89176531D01*
X155324591Y-89233463D01*
X155303070Y-89270838D01*
X155298582Y-89275066D01*
X155278585Y-89286089D01*
X155249173Y-89287113D01*
X155200613Y-89278902D01*
X155132444Y-89270517D01*
X155068463Y-89279441D01*
X155008978Y-89310313D01*
X154945730Y-89365952D01*
X154944450Y-89367253D01*
X154908034Y-89406308D01*
X154882125Y-89437808D01*
X154872259Y-89455040D01*
X154872061Y-89457973D01*
X154862794Y-89469490D01*
X154859541Y-89464914D01*
X154857147Y-89436767D01*
X154858504Y-89387929D01*
X154862977Y-89324167D01*
X154869932Y-89251250D01*
X154878736Y-89174944D01*
X154888754Y-89101018D01*
X154899354Y-89035238D01*
X154909900Y-88983371D01*
X154919760Y-88951187D01*
X154926751Y-88938178D01*
X154969216Y-88894069D01*
X155029122Y-88863793D01*
X155097127Y-88852547D01*
X155117985Y-88853372D01*
G37*
G36*
X155603891Y-90523704D02*
G01*
X155692341Y-90553585D01*
X155767578Y-90589121D01*
X155669769Y-90597344D01*
X155643846Y-90600034D01*
X155581093Y-90613079D01*
X155528906Y-90637194D01*
X155483704Y-90675999D01*
X155441906Y-90733121D01*
X155399937Y-90812183D01*
X155354214Y-90916809D01*
X155326066Y-90978472D01*
X155261081Y-91081243D01*
X155182576Y-91158522D01*
X155088412Y-91212161D01*
X154976450Y-91244015D01*
X154929642Y-91249750D01*
X154858476Y-91253313D01*
X154789499Y-91252204D01*
X154704125Y-91243541D01*
X154591535Y-91216433D01*
X154500881Y-91171050D01*
X154429706Y-91105518D01*
X154375551Y-91017963D01*
X154335960Y-90906516D01*
X154318832Y-90817809D01*
X154318152Y-90725654D01*
X154338005Y-90649757D01*
X154377665Y-90592649D01*
X154436405Y-90556862D01*
X154440809Y-90555364D01*
X154501069Y-90545120D01*
X154572329Y-90547305D01*
X154648723Y-90559961D01*
X154724384Y-90581137D01*
X154793445Y-90608879D01*
X154850038Y-90641235D01*
X154888298Y-90676252D01*
X154902353Y-90711975D01*
X154895042Y-90736560D01*
X154875576Y-90777676D01*
X154848215Y-90826180D01*
X154819996Y-90876696D01*
X154803614Y-90920227D01*
X154803359Y-90952289D01*
X154811397Y-90974026D01*
X154828428Y-90986500D01*
X154853695Y-90975742D01*
X154889216Y-90940665D01*
X154937003Y-90880183D01*
X154946006Y-90868137D01*
X155046313Y-90745978D01*
X155143813Y-90650681D01*
X155241333Y-90579806D01*
X155341700Y-90530913D01*
X155411453Y-90513905D01*
X155506425Y-90510229D01*
X155603891Y-90523704D01*
G37*
G36*
X153924273Y-81064573D02*
G01*
X154078633Y-81077212D01*
X154335538Y-81108384D01*
X154572494Y-81151625D01*
X154794882Y-81208189D01*
X155008094Y-81279334D01*
X155217506Y-81366315D01*
X155221021Y-81367914D01*
X155290345Y-81399036D01*
X155352256Y-81426086D01*
X155400120Y-81446210D01*
X155427303Y-81456555D01*
X155440101Y-81462470D01*
X155476569Y-81485714D01*
X155524748Y-81521053D01*
X155577669Y-81563530D01*
X155626133Y-81602616D01*
X155687546Y-81644866D01*
X155751175Y-81677559D01*
X155830193Y-81708242D01*
X155868099Y-81722246D01*
X155917951Y-81743000D01*
X155950609Y-81759745D01*
X155960375Y-81769786D01*
X155959004Y-81771021D01*
X155936327Y-81775322D01*
X155893181Y-81776170D01*
X155837464Y-81773336D01*
X155787411Y-81769340D01*
X155708502Y-81763064D01*
X155620354Y-81756066D01*
X155534344Y-81749254D01*
X155531922Y-81749062D01*
X155441437Y-81741524D01*
X155334576Y-81732072D01*
X155224483Y-81721896D01*
X155124302Y-81712183D01*
X155121541Y-81711907D01*
X155017435Y-81701499D01*
X154898301Y-81689592D01*
X154778623Y-81677634D01*
X154672881Y-81667072D01*
X154655097Y-81665295D01*
X154516655Y-81651368D01*
X154404033Y-81639773D01*
X154313525Y-81630031D01*
X154241418Y-81621663D01*
X154184005Y-81614192D01*
X154137575Y-81607137D01*
X154098420Y-81600019D01*
X154062831Y-81592359D01*
X154027097Y-81583680D01*
X153983361Y-81573696D01*
X153839556Y-81556234D01*
X153690548Y-81562388D01*
X153529757Y-81592270D01*
X153461856Y-81609970D01*
X153350808Y-81645049D01*
X153264333Y-81683324D01*
X153198797Y-81727540D01*
X153150568Y-81780445D01*
X153116007Y-81844781D01*
X153091481Y-81923296D01*
X153088505Y-81935581D01*
X153070622Y-82006477D01*
X153046492Y-82098896D01*
X153017760Y-82206774D01*
X152986074Y-82324049D01*
X152953078Y-82444659D01*
X152920419Y-82562542D01*
X152889744Y-82671635D01*
X152862698Y-82765876D01*
X152860126Y-82774717D01*
X152840675Y-82842044D01*
X152822373Y-82906055D01*
X152808877Y-82953969D01*
X152790099Y-83021682D01*
X152777265Y-82901302D01*
X152755658Y-82768878D01*
X152715076Y-82628552D01*
X152659908Y-82507073D01*
X152615691Y-82428726D01*
X152643481Y-82333972D01*
X152654969Y-82294532D01*
X152674978Y-82225253D01*
X152697843Y-82145620D01*
X152720533Y-82066172D01*
X152738569Y-82002588D01*
X152768887Y-81895320D01*
X152793284Y-81810794D01*
X152813703Y-81744998D01*
X152832093Y-81693919D01*
X152850395Y-81653545D01*
X152870559Y-81619863D01*
X152894528Y-81588861D01*
X152924249Y-81556523D01*
X152961667Y-81518841D01*
X153008726Y-81471800D01*
X153071904Y-81408876D01*
X153186398Y-81300428D01*
X153284270Y-81216063D01*
X153365961Y-81155412D01*
X153431914Y-81118104D01*
X153447670Y-81111781D01*
X153520066Y-81091738D01*
X153612012Y-81076117D01*
X153715420Y-81065797D01*
X153822203Y-81061656D01*
X153924273Y-81064573D01*
G37*
G36*
X156460987Y-90415488D02*
G01*
X156451463Y-90424916D01*
X156420834Y-90449283D01*
X156375080Y-90482967D01*
X156319916Y-90521670D01*
X156301686Y-90534276D01*
X156236409Y-90581706D01*
X156179183Y-90628438D01*
X156126749Y-90678319D01*
X156075856Y-90735199D01*
X156023246Y-90802922D01*
X155965666Y-90885341D01*
X155899859Y-90986303D01*
X155822571Y-91109656D01*
X155771089Y-91192442D01*
X155716296Y-91279760D01*
X155667265Y-91357083D01*
X155626491Y-91420500D01*
X155596474Y-91466096D01*
X155579709Y-91489962D01*
X155553776Y-91517576D01*
X155481121Y-91563597D01*
X155385330Y-91590979D01*
X155297045Y-91600845D01*
X155171719Y-91601909D01*
X155022731Y-91591012D01*
X155011453Y-91589862D01*
X154942903Y-91583442D01*
X154856373Y-91575994D01*
X154761799Y-91568351D01*
X154669119Y-91561349D01*
X154663790Y-91560962D01*
X154532360Y-91550459D01*
X154426488Y-91539700D01*
X154341802Y-91527968D01*
X154273932Y-91514548D01*
X154218506Y-91498722D01*
X154171150Y-91479776D01*
X154164092Y-91476407D01*
X154085865Y-91424768D01*
X154023437Y-91357153D01*
X153983949Y-91281146D01*
X153981661Y-91272995D01*
X153974869Y-91222853D01*
X153972468Y-91153834D01*
X153974120Y-91074697D01*
X153979489Y-90994200D01*
X153988236Y-90921101D01*
X154000024Y-90864159D01*
X154007546Y-90842402D01*
X154032534Y-90795704D01*
X154062600Y-90761680D01*
X154091281Y-90748518D01*
X154108423Y-90753780D01*
X154139875Y-90782149D01*
X154172838Y-90829415D01*
X154204086Y-90889103D01*
X154230398Y-90954738D01*
X154248549Y-91019849D01*
X154255315Y-91077958D01*
X154261403Y-91120372D01*
X154288941Y-91185416D01*
X154332575Y-91244502D01*
X154385554Y-91286803D01*
X154406860Y-91297354D01*
X154437497Y-91308266D01*
X154476415Y-91316773D01*
X154529064Y-91323750D01*
X154600893Y-91330063D01*
X154697348Y-91336583D01*
X154852783Y-91342955D01*
X154993931Y-91341970D01*
X155116287Y-91333802D01*
X155216319Y-91318689D01*
X155290493Y-91296865D01*
X155328699Y-91278323D01*
X155391190Y-91230579D01*
X155437116Y-91165488D01*
X155468698Y-91079359D01*
X155488160Y-90968502D01*
X155496344Y-90902792D01*
X155509955Y-90821789D01*
X155525904Y-90762594D01*
X155545684Y-90720157D01*
X155570793Y-90689427D01*
X155607581Y-90654867D01*
X155645858Y-90693143D01*
X155675609Y-90736868D01*
X155694064Y-90793517D01*
X155696013Y-90803971D01*
X155710804Y-90851989D01*
X155730300Y-90888100D01*
X155743241Y-90902883D01*
X155761302Y-90911652D01*
X155782685Y-90898943D01*
X155787537Y-90894359D01*
X155811747Y-90865825D01*
X155844885Y-90821845D01*
X155881260Y-90769867D01*
X155908668Y-90731406D01*
X155951910Y-90680457D01*
X156002029Y-90634468D01*
X156064269Y-90589344D01*
X156143874Y-90540999D01*
X156246086Y-90485344D01*
X156272369Y-90471833D01*
X156337322Y-90441285D01*
X156393022Y-90418959D01*
X156435106Y-90406273D01*
X156459215Y-90404643D01*
X156460987Y-90415488D01*
G37*
G36*
X155679688Y-83066823D02*
G01*
X155659408Y-83097146D01*
X155607132Y-83185852D01*
X155571637Y-83268013D01*
X155548334Y-83353646D01*
X155544299Y-83377721D01*
X155539711Y-83431379D01*
X155539204Y-83487022D01*
X155542424Y-83536660D01*
X155549016Y-83572303D01*
X155558626Y-83585959D01*
X155566530Y-83582192D01*
X155595360Y-83564975D01*
X155639673Y-83537004D01*
X155693812Y-83501800D01*
X155717652Y-83485863D01*
X155773932Y-83445013D01*
X155804055Y-83416661D01*
X155808669Y-83400230D01*
X155800206Y-83389012D01*
X155776255Y-83357622D01*
X155745761Y-83317894D01*
X155726671Y-83290606D01*
X155710091Y-83258600D01*
X155709115Y-83241466D01*
X155720562Y-83231995D01*
X155750821Y-83207565D01*
X155790150Y-83176170D01*
X155857863Y-83122377D01*
X155989527Y-83316008D01*
X156015564Y-83354546D01*
X156057406Y-83417628D01*
X156090900Y-83469620D01*
X156113132Y-83505963D01*
X156121192Y-83522095D01*
X156114414Y-83534288D01*
X156091016Y-83562243D01*
X156056683Y-83597862D01*
X155992173Y-83661174D01*
X155935320Y-83585022D01*
X155906809Y-83549385D01*
X155880824Y-83522202D01*
X155866219Y-83513558D01*
X155863928Y-83514557D01*
X155838539Y-83531859D01*
X155801938Y-83562802D01*
X155759782Y-83601823D01*
X155717726Y-83643360D01*
X155681427Y-83681852D01*
X155656540Y-83711736D01*
X155648722Y-83727450D01*
X155649700Y-83729661D01*
X155674372Y-83753311D01*
X155718489Y-83774864D01*
X155772383Y-83790556D01*
X155826387Y-83796623D01*
X155837988Y-83796312D01*
X155898728Y-83788596D01*
X155956497Y-83773760D01*
X155976058Y-83767550D01*
X156012892Y-83760122D01*
X156032651Y-83762474D01*
X156034444Y-83764835D01*
X156047261Y-83789371D01*
X156066626Y-83832486D01*
X156089095Y-83886601D01*
X156094889Y-83901254D01*
X156115696Y-83960364D01*
X156123202Y-83997993D01*
X156118323Y-84018267D01*
X156102961Y-84032490D01*
X156079559Y-84033882D01*
X156057673Y-84006969D01*
X156036217Y-83950858D01*
X156024183Y-83911449D01*
X156013268Y-83876072D01*
X156008539Y-83861252D01*
X156006211Y-83861171D01*
X155984459Y-83867019D01*
X155947571Y-83879401D01*
X155940521Y-83881811D01*
X155861656Y-83897881D01*
X155778041Y-83898586D01*
X155697945Y-83885233D01*
X155629644Y-83859127D01*
X155581404Y-83821578D01*
X155566860Y-83806823D01*
X155543004Y-83798788D01*
X155514108Y-83812425D01*
X155474154Y-83849289D01*
X155456676Y-83866338D01*
X155425564Y-83891896D01*
X155405490Y-83901954D01*
X155388698Y-83890792D01*
X155363752Y-83862403D01*
X155337612Y-83826126D01*
X155316998Y-83791307D01*
X155308633Y-83767293D01*
X155317349Y-83754888D01*
X155345616Y-83730983D01*
X155386668Y-83702508D01*
X155464703Y-83652652D01*
X155465885Y-83502688D01*
X155467137Y-83432006D01*
X155470922Y-83381602D01*
X155479261Y-83342305D01*
X155494174Y-83304605D01*
X155517683Y-83258991D01*
X155552557Y-83202500D01*
X155600764Y-83136296D01*
X155649723Y-83078422D01*
X155731146Y-82991587D01*
X155679688Y-83066823D01*
G37*
G36*
X151468636Y-83672805D02*
G01*
X151596645Y-83692433D01*
X151748345Y-83727124D01*
X151922969Y-83776754D01*
X151997864Y-83800601D01*
X152117076Y-83843617D01*
X152212169Y-83886038D01*
X152286918Y-83929646D01*
X152345097Y-83976226D01*
X152407366Y-84035461D01*
X152398942Y-84183133D01*
X152397534Y-84207128D01*
X152392183Y-84291339D01*
X152386299Y-84375739D01*
X152380921Y-84445206D01*
X152378225Y-84482341D01*
X152377542Y-84536657D01*
X152383650Y-84576192D01*
X152397529Y-84610727D01*
X152401448Y-84618150D01*
X152422986Y-84652959D01*
X152440442Y-84672797D01*
X152441374Y-84674679D01*
X152425253Y-84677483D01*
X152387208Y-84677394D01*
X152333011Y-84674329D01*
X152312371Y-84672882D01*
X152259517Y-84670419D01*
X152222693Y-84670588D01*
X152208870Y-84673438D01*
X152209921Y-84675817D01*
X152227335Y-84691428D01*
X152259377Y-84713179D01*
X152261540Y-84714530D01*
X152308329Y-84748241D01*
X152350765Y-84785275D01*
X152356847Y-84791393D01*
X152378488Y-84816117D01*
X152380519Y-84831153D01*
X152365096Y-84845572D01*
X152352850Y-84854086D01*
X152329705Y-84863055D01*
X152307485Y-84853720D01*
X152276173Y-84823607D01*
X152238445Y-84777031D01*
X152205535Y-84718138D01*
X152176800Y-84642710D01*
X152149176Y-84543999D01*
X152148139Y-84539851D01*
X152124363Y-84450428D01*
X152102523Y-84383385D01*
X152079526Y-84331730D01*
X152052283Y-84288472D01*
X152017700Y-84246621D01*
X151981434Y-84208792D01*
X151935171Y-84170619D01*
X151885807Y-84145076D01*
X151826642Y-84129865D01*
X151750978Y-84122690D01*
X151652116Y-84121252D01*
X151562495Y-84123423D01*
X151478047Y-84130839D01*
X151415254Y-84144469D01*
X151369666Y-84165348D01*
X151336843Y-84194509D01*
X151327794Y-84208550D01*
X151335799Y-84216222D01*
X151368736Y-84217950D01*
X151376526Y-84218057D01*
X151460832Y-84229391D01*
X151553975Y-84256562D01*
X151646221Y-84295526D01*
X151727840Y-84342235D01*
X151789097Y-84392649D01*
X151819057Y-84424540D01*
X151760421Y-84433916D01*
X151700681Y-84453512D01*
X151634873Y-84499293D01*
X151581343Y-84563377D01*
X151546764Y-84639348D01*
X151533832Y-84684441D01*
X151589845Y-84675483D01*
X151625492Y-84671889D01*
X151706233Y-84681820D01*
X151782965Y-84719024D01*
X151859018Y-84784852D01*
X151865833Y-84792069D01*
X151902349Y-84833313D01*
X151927923Y-84866555D01*
X151937376Y-84885166D01*
X151936926Y-84887036D01*
X151921267Y-84905878D01*
X151887814Y-84934910D01*
X151842759Y-84968668D01*
X151834704Y-84974372D01*
X151787427Y-85011089D01*
X151751365Y-85048176D01*
X151718870Y-85094749D01*
X151682295Y-85159923D01*
X151665029Y-85191739D01*
X151638156Y-85238214D01*
X151618218Y-85268745D01*
X151608602Y-85277910D01*
X151607915Y-85277109D01*
X151597602Y-85256913D01*
X151583724Y-85222082D01*
X151560811Y-85159409D01*
X151504845Y-85009092D01*
X151447301Y-84858035D01*
X151389497Y-84709461D01*
X151332750Y-84566596D01*
X151278380Y-84432665D01*
X151227703Y-84310892D01*
X151182038Y-84204503D01*
X151142704Y-84116723D01*
X151111017Y-84050776D01*
X151088296Y-84009887D01*
X151084953Y-84004677D01*
X151049962Y-83929441D01*
X151043876Y-83861404D01*
X151066226Y-83801308D01*
X151116543Y-83749895D01*
X151194359Y-83707907D01*
X151299204Y-83676086D01*
X151365084Y-83668364D01*
X151468636Y-83672805D01*
G37*
G36*
X158641399Y-83317845D02*
G01*
X158641390Y-83359395D01*
X158641417Y-83505235D01*
X158641529Y-83640694D01*
X158641721Y-83762957D01*
X158641982Y-83869205D01*
X158642307Y-83956624D01*
X158642686Y-84022396D01*
X158643111Y-84063708D01*
X158643575Y-84077739D01*
X158644306Y-84075274D01*
X158649630Y-84050533D01*
X158659038Y-84003570D01*
X158671472Y-83939725D01*
X158685873Y-83864336D01*
X158688034Y-83852924D01*
X158704682Y-83765274D01*
X158721128Y-83679037D01*
X158735581Y-83603595D01*
X158746247Y-83548341D01*
X158759539Y-83479989D01*
X158775424Y-83398324D01*
X158790150Y-83322630D01*
X158795055Y-83297251D01*
X158808249Y-83228181D01*
X158824525Y-83142265D01*
X158842267Y-83048021D01*
X158859866Y-82953969D01*
X158870207Y-82898854D01*
X158886454Y-82813559D01*
X158901131Y-82738005D01*
X158912946Y-82678811D01*
X158920609Y-82642596D01*
X158934552Y-82534661D01*
X158930499Y-82420082D01*
X158909443Y-82310454D01*
X158872589Y-82216462D01*
X158845102Y-82167259D01*
X158763441Y-82044415D01*
X158673314Y-81944367D01*
X158569308Y-81861721D01*
X158446014Y-81791083D01*
X158418955Y-81777695D01*
X158364988Y-81751180D01*
X158319360Y-81730370D01*
X158277808Y-81714780D01*
X158236063Y-81703922D01*
X158189857Y-81697312D01*
X158134923Y-81694463D01*
X158066994Y-81694889D01*
X157981802Y-81698104D01*
X157875081Y-81703622D01*
X157742559Y-81710956D01*
X157722115Y-81712087D01*
X157599773Y-81719115D01*
X157480716Y-81726355D01*
X157370298Y-81733460D01*
X157273872Y-81740072D01*
X157196793Y-81745840D01*
X157144415Y-81750411D01*
X157139408Y-81750915D01*
X157017597Y-81762882D01*
X156921757Y-81771392D01*
X156848100Y-81776436D01*
X156792840Y-81778001D01*
X156752188Y-81776082D01*
X156722358Y-81770668D01*
X156699562Y-81761754D01*
X156680014Y-81749327D01*
X156632746Y-81714380D01*
X156715938Y-81688641D01*
X156753931Y-81674134D01*
X156830832Y-81633086D01*
X156911469Y-81577757D01*
X156986417Y-81514226D01*
X156997158Y-81504166D01*
X157109720Y-81413467D01*
X157235613Y-81334560D01*
X157365856Y-81272461D01*
X157491466Y-81232186D01*
X157496641Y-81231102D01*
X157541286Y-81225114D01*
X157610388Y-81219213D01*
X157700311Y-81213486D01*
X157807423Y-81208017D01*
X157928086Y-81202894D01*
X158058668Y-81198200D01*
X158195534Y-81194025D01*
X158335046Y-81190453D01*
X158473574Y-81187569D01*
X158607480Y-81185461D01*
X158733132Y-81184212D01*
X158846893Y-81183911D01*
X158945130Y-81184642D01*
X159024207Y-81186494D01*
X159080491Y-81189548D01*
X159110346Y-81193893D01*
X159195535Y-81234422D01*
X159281498Y-81301060D01*
X159358321Y-81387025D01*
X159420220Y-81486848D01*
X159426645Y-81501316D01*
X159443758Y-81544913D01*
X159466866Y-81607447D01*
X159493760Y-81682894D01*
X159522231Y-81765225D01*
X159572757Y-81907349D01*
X159620636Y-82027532D01*
X159667729Y-82129235D01*
X159716611Y-82218009D01*
X159769855Y-82299407D01*
X159805455Y-82351187D01*
X159850370Y-82425005D01*
X159880061Y-82490042D01*
X159897963Y-82554460D01*
X159907511Y-82626420D01*
X159909344Y-82653218D01*
X159910247Y-82733202D01*
X159904257Y-82821468D01*
X159890759Y-82922038D01*
X159869142Y-83038935D01*
X159838788Y-83176183D01*
X159799088Y-83337807D01*
X159779625Y-83415997D01*
X159751797Y-83535368D01*
X159730241Y-83638359D01*
X159715797Y-83720836D01*
X159709307Y-83778666D01*
X159703745Y-83888613D01*
X159631633Y-83927692D01*
X159605176Y-83941971D01*
X159556313Y-83968088D01*
X159519538Y-83987433D01*
X159501727Y-83998368D01*
X159461392Y-84029041D01*
X159419637Y-84066244D01*
X159418038Y-84067802D01*
X159396383Y-84090524D01*
X159378530Y-84114584D01*
X159363222Y-84144029D01*
X159349206Y-84182908D01*
X159335226Y-84235271D01*
X159320028Y-84305167D01*
X159302357Y-84396644D01*
X159280959Y-84513752D01*
X159270063Y-84570509D01*
X159254929Y-84640196D01*
X159240563Y-84697403D01*
X159228999Y-84733519D01*
X159214277Y-84762293D01*
X159159139Y-84827803D01*
X159078676Y-84886917D01*
X158976030Y-84938226D01*
X158854339Y-84980317D01*
X158716747Y-85011779D01*
X158566394Y-85031201D01*
X158530472Y-85034235D01*
X158388257Y-85047188D01*
X158250981Y-85061114D01*
X158123664Y-85075422D01*
X158011323Y-85089526D01*
X157918976Y-85102840D01*
X157851642Y-85114777D01*
X157824206Y-85120002D01*
X157748466Y-85131712D01*
X157662731Y-85142278D01*
X157580788Y-85149912D01*
X157562453Y-85150966D01*
X157505961Y-85152955D01*
X157423830Y-85154879D01*
X157318990Y-85156707D01*
X157194368Y-85158402D01*
X157052892Y-85159932D01*
X156897489Y-85161263D01*
X156731087Y-85162362D01*
X156556614Y-85163195D01*
X156376999Y-85163729D01*
X156197034Y-85164041D01*
X155994647Y-85164107D01*
X155815761Y-85163612D01*
X155656704Y-85162347D01*
X155513801Y-85160105D01*
X155383378Y-85156674D01*
X155261763Y-85151847D01*
X155145280Y-85145415D01*
X155030257Y-85137168D01*
X154913019Y-85126897D01*
X154789895Y-85114394D01*
X154657206Y-85099449D01*
X154511282Y-85081853D01*
X154348448Y-85061397D01*
X154165031Y-85037873D01*
X154041385Y-85021437D01*
X153893999Y-84999692D01*
X153770244Y-84977823D01*
X153666418Y-84954493D01*
X153578818Y-84928363D01*
X153503743Y-84898096D01*
X153437489Y-84862354D01*
X153376356Y-84819799D01*
X153316640Y-84769093D01*
X153254640Y-84708899D01*
X153239264Y-84693143D01*
X153174532Y-84622266D01*
X153121912Y-84554186D01*
X153080203Y-84484804D01*
X153048205Y-84410022D01*
X153024719Y-84325742D01*
X153008543Y-84227865D01*
X152998478Y-84112293D01*
X152993323Y-83974927D01*
X152991878Y-83811670D01*
X152994026Y-83625874D01*
X153003252Y-83415477D01*
X153020725Y-83222032D01*
X153047491Y-83038626D01*
X153051047Y-83021351D01*
X154571311Y-83021351D01*
X154578494Y-83035524D01*
X154601582Y-83070997D01*
X154638264Y-83124003D01*
X154686151Y-83191152D01*
X154742851Y-83269052D01*
X154805976Y-83354313D01*
X154862973Y-83430897D01*
X154921737Y-83510350D01*
X154972549Y-83579578D01*
X155012882Y-83635118D01*
X155040207Y-83673510D01*
X155051998Y-83691291D01*
X155050554Y-83709637D01*
X155038634Y-83754743D01*
X155016512Y-83824443D01*
X154984756Y-83917027D01*
X154943938Y-84030784D01*
X154894627Y-84164000D01*
X154872337Y-84223863D01*
X154833329Y-84330682D01*
X154799000Y-84427350D01*
X154770570Y-84510278D01*
X154749255Y-84575873D01*
X154736275Y-84620550D01*
X154732848Y-84640714D01*
X154736630Y-84651870D01*
X154748467Y-84667429D01*
X154768273Y-84673840D01*
X154798571Y-84670159D01*
X154841886Y-84655439D01*
X154900740Y-84628735D01*
X154977658Y-84589101D01*
X155075162Y-84535591D01*
X155195777Y-84467261D01*
X155229627Y-84448401D01*
X155284634Y-84418443D01*
X155351197Y-84382636D01*
X155421488Y-84345213D01*
X155487766Y-84309868D01*
X155550752Y-84275797D01*
X155601239Y-84247987D01*
X155632152Y-84230298D01*
X155633964Y-84229218D01*
X155674415Y-84210658D01*
X155709203Y-84202959D01*
X155729627Y-84209438D01*
X155770193Y-84230634D01*
X155823147Y-84263075D01*
X155882248Y-84303147D01*
X155936140Y-84341337D01*
X156011284Y-84394441D01*
X156097720Y-84455418D01*
X156188550Y-84519401D01*
X156276872Y-84581523D01*
X156295083Y-84594270D01*
X156371774Y-84646831D01*
X156440596Y-84692266D01*
X156497415Y-84727960D01*
X156538088Y-84751295D01*
X156558481Y-84759656D01*
X156574936Y-84757292D01*
X156600347Y-84735437D01*
X156607775Y-84693827D01*
X156596045Y-84636324D01*
X156588420Y-84613460D01*
X156569851Y-84556457D01*
X156546399Y-84483361D01*
X156519471Y-84398648D01*
X156490465Y-84306797D01*
X156460781Y-84212284D01*
X156431821Y-84119585D01*
X156404986Y-84033179D01*
X156381676Y-83957543D01*
X156363291Y-83897151D01*
X156351234Y-83856483D01*
X156346903Y-83840015D01*
X156354263Y-83829654D01*
X156380335Y-83802915D01*
X156420815Y-83764878D01*
X156471044Y-83720044D01*
X156508597Y-83687236D01*
X156565061Y-83637783D01*
X156614009Y-83594774D01*
X156647851Y-83564868D01*
X156653011Y-83560290D01*
X156688206Y-83529288D01*
X156738800Y-83484942D01*
X156798815Y-83432483D01*
X156862276Y-83377144D01*
X156923229Y-83323089D01*
X156982843Y-83265326D01*
X157017130Y-83221662D01*
X157025319Y-83189759D01*
X157006640Y-83167277D01*
X156960319Y-83151880D01*
X156885585Y-83141231D01*
X156781665Y-83132990D01*
X156699889Y-83127468D01*
X156573726Y-83118342D01*
X156462567Y-83109530D01*
X156369420Y-83101304D01*
X156297295Y-83093938D01*
X156249200Y-83087703D01*
X156228144Y-83082873D01*
X156217685Y-83066789D01*
X156201030Y-83029958D01*
X156182138Y-82980764D01*
X156166523Y-82937375D01*
X156141152Y-82867517D01*
X156109982Y-82782111D01*
X156075484Y-82687889D01*
X156040126Y-82591582D01*
X156006378Y-82499922D01*
X155976705Y-82419640D01*
X155953578Y-82357467D01*
X155935683Y-82317639D01*
X155905172Y-82279159D01*
X155872235Y-82269518D01*
X155837937Y-82289343D01*
X155825669Y-82306504D01*
X155800494Y-82347088D01*
X155765138Y-82406825D01*
X155721807Y-82481932D01*
X155672708Y-82568624D01*
X155620046Y-82663116D01*
X155570366Y-82752073D01*
X155521902Y-82837041D01*
X155479375Y-82909742D01*
X155444894Y-82966634D01*
X155420568Y-83004170D01*
X155408503Y-83018809D01*
X155403844Y-83019814D01*
X155372878Y-83020767D01*
X155323033Y-83018776D01*
X155262611Y-83014109D01*
X155135804Y-83002407D01*
X154992140Y-82990004D01*
X154874224Y-82981169D01*
X154779691Y-82975929D01*
X154706180Y-82974308D01*
X154651330Y-82976331D01*
X154612779Y-82982021D01*
X154588167Y-82991405D01*
X154575131Y-83004507D01*
X154571311Y-83021351D01*
X153051047Y-83021351D01*
X153084604Y-82858344D01*
X153133110Y-82674272D01*
X153194060Y-82479497D01*
X153218721Y-82407482D01*
X153269097Y-82274740D01*
X153318662Y-82167104D01*
X153369828Y-82081403D01*
X153425011Y-82014456D01*
X153486624Y-81963090D01*
X153557081Y-81924129D01*
X153638795Y-81894396D01*
X153639529Y-81894180D01*
X153689955Y-81884763D01*
X153764974Y-81877655D01*
X153859282Y-81872864D01*
X153967572Y-81870398D01*
X154084540Y-81870263D01*
X154204881Y-81872466D01*
X154323289Y-81877017D01*
X154434457Y-81883920D01*
X154533085Y-81893183D01*
X154552612Y-81895432D01*
X154733821Y-81916091D01*
X154921011Y-81937082D01*
X155108206Y-81957757D01*
X155289428Y-81977463D01*
X155458699Y-81995549D01*
X155610044Y-82011366D01*
X155737484Y-82024262D01*
X155767878Y-82026969D01*
X155870406Y-82033329D01*
X155994942Y-82037992D01*
X156135575Y-82040962D01*
X156286393Y-82042244D01*
X156441488Y-82041841D01*
X156594949Y-82039757D01*
X156740864Y-82035996D01*
X156873324Y-82030561D01*
X156986416Y-82023457D01*
X157033931Y-82019736D01*
X157145727Y-82010970D01*
X157269579Y-82001247D01*
X157393513Y-81991505D01*
X157505552Y-81982687D01*
X157573380Y-81977595D01*
X157680221Y-81970410D01*
X157784636Y-81964269D01*
X157877441Y-81959696D01*
X157949451Y-81957221D01*
X157986528Y-81956495D01*
X158049579Y-81956339D01*
X158095128Y-81959342D01*
X158131801Y-81966968D01*
X158168222Y-81980680D01*
X158213018Y-82001941D01*
X158297769Y-82050504D01*
X158406333Y-82135329D01*
X158498391Y-82234842D01*
X158569416Y-82343910D01*
X158614881Y-82457405D01*
X158620432Y-82479621D01*
X158625615Y-82506632D01*
X158629885Y-82538911D01*
X158633327Y-82579219D01*
X158636029Y-82630312D01*
X158638071Y-82694950D01*
X158639542Y-82775890D01*
X158640525Y-82875890D01*
X158641105Y-82997712D01*
X158641369Y-83144111D01*
X158641377Y-83189759D01*
X158641399Y-83317845D01*
G37*
G36*
X162963414Y-84825665D02*
G01*
X162959858Y-84899645D01*
X162951002Y-85010737D01*
X162937085Y-85115865D01*
X162916462Y-85226477D01*
X162887486Y-85354028D01*
X162853495Y-85488481D01*
X162788918Y-85710175D01*
X162719405Y-85906388D01*
X162643778Y-86079990D01*
X162560860Y-86233849D01*
X162469468Y-86370834D01*
X162429784Y-86421805D01*
X162341175Y-86524134D01*
X162239430Y-86630322D01*
X162131959Y-86733115D01*
X162026174Y-86825256D01*
X161929486Y-86899490D01*
X161880629Y-86934192D01*
X161804699Y-86991320D01*
X161748032Y-87040043D01*
X161706207Y-87084794D01*
X161674799Y-87130005D01*
X161649384Y-87180107D01*
X161639628Y-87202784D01*
X161619874Y-87260250D01*
X161617180Y-87303078D01*
X161632219Y-87339419D01*
X161665662Y-87377422D01*
X161697238Y-87412232D01*
X161736645Y-87473487D01*
X161770323Y-87552246D01*
X161801351Y-87654802D01*
X161828733Y-87758657D01*
X161776167Y-87805276D01*
X161757743Y-87821432D01*
X161708294Y-87863826D01*
X161659481Y-87904676D01*
X161595362Y-87957456D01*
X161629007Y-88068225D01*
X161648329Y-88151891D01*
X161655889Y-88276873D01*
X161639764Y-88412095D01*
X161599727Y-88561423D01*
X161554242Y-88699150D01*
X161602552Y-88794657D01*
X161624817Y-88841890D01*
X161641908Y-88891844D01*
X161651283Y-88946314D01*
X161655992Y-89018067D01*
X161657283Y-89072288D01*
X161654276Y-89132891D01*
X161643924Y-89186605D01*
X161624372Y-89246864D01*
X161587623Y-89347757D01*
X161679555Y-89447900D01*
X161693098Y-89462913D01*
X161739204Y-89517576D01*
X161779089Y-89569824D01*
X161805345Y-89610103D01*
X161821505Y-89646338D01*
X161837863Y-89731840D01*
X161830077Y-89821234D01*
X161799370Y-89906758D01*
X161746966Y-89980646D01*
X161738627Y-89989747D01*
X161701772Y-90041197D01*
X161666721Y-90110410D01*
X161632278Y-90200434D01*
X161597244Y-90314314D01*
X161560422Y-90455094D01*
X161559520Y-90458758D01*
X161530458Y-90564426D01*
X161498204Y-90651973D01*
X161458452Y-90728459D01*
X161406901Y-90800939D01*
X161339242Y-90876473D01*
X161251172Y-90962119D01*
X161184889Y-91025204D01*
X161131235Y-91080079D01*
X161092047Y-91126182D01*
X161062772Y-91168908D01*
X161038857Y-91213652D01*
X160988640Y-91302479D01*
X160913093Y-91392612D01*
X160825539Y-91455471D01*
X160726383Y-91490784D01*
X160616033Y-91498276D01*
X160528685Y-91493364D01*
X160453125Y-91666409D01*
X160410749Y-91762755D01*
X160376468Y-91838330D01*
X160348886Y-91895156D01*
X160325502Y-91937779D01*
X160303815Y-91970750D01*
X160281325Y-91998620D01*
X160255531Y-92025941D01*
X160245375Y-92035944D01*
X160155231Y-92104513D01*
X160056033Y-92145308D01*
X159946866Y-92158457D01*
X159826810Y-92144082D01*
X159694948Y-92102310D01*
X159693896Y-92101890D01*
X159676836Y-92096408D01*
X159659300Y-92095724D01*
X159637174Y-92101794D01*
X159606347Y-92116569D01*
X159562705Y-92142005D01*
X159502134Y-92180056D01*
X159420523Y-92232674D01*
X159354606Y-92275278D01*
X159283497Y-92321037D01*
X159222953Y-92359785D01*
X159177864Y-92388393D01*
X159153121Y-92403732D01*
X159148792Y-92406334D01*
X159115617Y-92427014D01*
X159062653Y-92460644D01*
X158994309Y-92504380D01*
X158914995Y-92555367D01*
X158829121Y-92610763D01*
X158741097Y-92667719D01*
X158655331Y-92723385D01*
X158576234Y-92774914D01*
X158508216Y-92819458D01*
X158455685Y-92854170D01*
X158403400Y-92889037D01*
X158329501Y-92938198D01*
X158273814Y-92974286D01*
X158231854Y-92999388D01*
X158199138Y-93015588D01*
X158171182Y-93024973D01*
X158143501Y-93029628D01*
X158111613Y-93031638D01*
X158071033Y-93033089D01*
X158043747Y-93033764D01*
X157948909Y-93026720D01*
X157867299Y-93001988D01*
X157788238Y-92956685D01*
X157773099Y-92949075D01*
X157751290Y-92953093D01*
X157720525Y-92977501D01*
X157677723Y-93014546D01*
X157559941Y-93092636D01*
X157433153Y-93143252D01*
X157295941Y-93166691D01*
X157146891Y-93163256D01*
X156984585Y-93133244D01*
X156950708Y-93124471D01*
X156893972Y-93110521D01*
X156854810Y-93106151D01*
X156826441Y-93114502D01*
X156802085Y-93138712D01*
X156774960Y-93181922D01*
X156738284Y-93247270D01*
X156716111Y-93283097D01*
X156647778Y-93371418D01*
X156559904Y-93463382D01*
X156458176Y-93553323D01*
X156348281Y-93635581D01*
X156341142Y-93640445D01*
X156252152Y-93699664D01*
X156159186Y-93759248D01*
X156067056Y-93816319D01*
X155980572Y-93867997D01*
X155904547Y-93911401D01*
X155843792Y-93943652D01*
X155803118Y-93961870D01*
X155800604Y-93962740D01*
X155738428Y-93976843D01*
X155666506Y-93982965D01*
X155597645Y-93980720D01*
X155544649Y-93969718D01*
X155520571Y-93964082D01*
X155495934Y-93972530D01*
X155464671Y-94001216D01*
X155387801Y-94063067D01*
X155292950Y-94104603D01*
X155190667Y-94119134D01*
X155180060Y-94119017D01*
X155081424Y-94104830D01*
X154989266Y-94065408D01*
X154898102Y-93998492D01*
X154828360Y-93937103D01*
X154773618Y-93997695D01*
X154707840Y-94059207D01*
X154616741Y-94112943D01*
X154519433Y-94137829D01*
X154417285Y-94133342D01*
X154375415Y-94128021D01*
X154344712Y-94134007D01*
X154315505Y-94155154D01*
X154245553Y-94208297D01*
X154148184Y-94253197D01*
X154143192Y-94254640D01*
X154075093Y-94263790D01*
X153994724Y-94260773D01*
X153915464Y-94246922D01*
X153850693Y-94223569D01*
X153847692Y-94221997D01*
X153824537Y-94208976D01*
X153802546Y-94194026D01*
X153780174Y-94174995D01*
X153755881Y-94149729D01*
X153728124Y-94116075D01*
X153695361Y-94071878D01*
X153656052Y-94014989D01*
X153608653Y-93943250D01*
X153551624Y-93854510D01*
X153483421Y-93746616D01*
X153402504Y-93617414D01*
X153307330Y-93464750D01*
X153295920Y-93446324D01*
X153269988Y-93404263D01*
X153235946Y-93348928D01*
X153198170Y-93287427D01*
X153179247Y-93257832D01*
X153074630Y-93124541D01*
X152944181Y-92999068D01*
X152791144Y-92884235D01*
X152618758Y-92782866D01*
X152556514Y-92750912D01*
X152475316Y-92709529D01*
X152413463Y-92676626D01*
X152366898Y-92648034D01*
X152331555Y-92619582D01*
X152303374Y-92587101D01*
X152278292Y-92546418D01*
X152252248Y-92493366D01*
X152221179Y-92423772D01*
X152181023Y-92333468D01*
X152050872Y-92045066D01*
X151712306Y-91764190D01*
X151692685Y-91747913D01*
X151606078Y-91676073D01*
X151526523Y-91610097D01*
X151457242Y-91552656D01*
X151401456Y-91506419D01*
X151362387Y-91474058D01*
X151343257Y-91458244D01*
X151319157Y-91438362D01*
X151214164Y-91349751D01*
X151128077Y-91272967D01*
X151056146Y-91203460D01*
X150993621Y-91136681D01*
X150935746Y-91068081D01*
X150896666Y-91019703D01*
X150831702Y-90939907D01*
X150766486Y-90860409D01*
X150710524Y-90792827D01*
X150661456Y-90730628D01*
X150604874Y-90646471D01*
X150568944Y-90574640D01*
X150553487Y-90534259D01*
X150529018Y-90470450D01*
X150508657Y-90417476D01*
X150508396Y-90416798D01*
X150494532Y-90380732D01*
X150472156Y-90322447D01*
X150443458Y-90247654D01*
X150410628Y-90162063D01*
X150375859Y-90071386D01*
X150344272Y-89989021D01*
X150305022Y-89886756D01*
X150267194Y-89788266D01*
X150233901Y-89701662D01*
X150208259Y-89635050D01*
X150187071Y-89579028D01*
X150166504Y-89522149D01*
X150160499Y-89504242D01*
X150513559Y-89504242D01*
X150565723Y-89641102D01*
X150576527Y-89669438D01*
X150602859Y-89738403D01*
X150626698Y-89800729D01*
X150643937Y-89845675D01*
X150645042Y-89848553D01*
X150659583Y-89886566D01*
X150682426Y-89946467D01*
X150711453Y-90022693D01*
X150744545Y-90109678D01*
X150779581Y-90201856D01*
X150785794Y-90218133D01*
X150820635Y-90306760D01*
X150853693Y-90386709D01*
X150882829Y-90453082D01*
X150905909Y-90500981D01*
X150920794Y-90525513D01*
X150921331Y-90526113D01*
X150943449Y-90552113D01*
X150979250Y-90595539D01*
X151023902Y-90650482D01*
X151072576Y-90711038D01*
X151078753Y-90718763D01*
X151123988Y-90775129D01*
X151161943Y-90822079D01*
X151188794Y-90854905D01*
X151200721Y-90868898D01*
X151204568Y-90873013D01*
X151223809Y-90895626D01*
X151251208Y-90929087D01*
X151263607Y-90942056D01*
X151298925Y-90975037D01*
X151352968Y-91023414D01*
X151423167Y-91084954D01*
X151506954Y-91157427D01*
X151601761Y-91238602D01*
X151705018Y-91326245D01*
X151814157Y-91418127D01*
X152334601Y-91854502D01*
X152389676Y-91982405D01*
X152397976Y-92001623D01*
X152428120Y-92070703D01*
X152457022Y-92135993D01*
X152479404Y-92185545D01*
X152491136Y-92211172D01*
X152517836Y-92270325D01*
X152540260Y-92320971D01*
X152541774Y-92324406D01*
X152554125Y-92348041D01*
X152570795Y-92368694D01*
X152596322Y-92389616D01*
X152635245Y-92414057D01*
X152692103Y-92445266D01*
X152771433Y-92486492D01*
X152795172Y-92498878D01*
X152875842Y-92543447D01*
X152952484Y-92589191D01*
X153017394Y-92631385D01*
X153062867Y-92665302D01*
X153116656Y-92711190D01*
X153199668Y-92783364D01*
X153265652Y-92843572D01*
X153318756Y-92896298D01*
X153363126Y-92946024D01*
X153402908Y-92997234D01*
X153442248Y-93054411D01*
X153485295Y-93122038D01*
X153535093Y-93201875D01*
X153597910Y-93302282D01*
X153661155Y-93403116D01*
X153716682Y-93491376D01*
X153721115Y-93498412D01*
X153770924Y-93577834D01*
X153821772Y-93659514D01*
X153867935Y-93734229D01*
X153903692Y-93792759D01*
X153918764Y-93817053D01*
X153952742Y-93867637D01*
X153981902Y-93905697D01*
X154001201Y-93924423D01*
X154001921Y-93924807D01*
X154029663Y-93935010D01*
X154055970Y-93932552D01*
X154083982Y-93914664D01*
X154116840Y-93878580D01*
X154157684Y-93821533D01*
X154209654Y-93740754D01*
X154291108Y-93610658D01*
X154344192Y-93680566D01*
X154346894Y-93684122D01*
X154395013Y-93745183D01*
X154433160Y-93784582D01*
X154465460Y-93801561D01*
X154496040Y-93795359D01*
X154529025Y-93765220D01*
X154568543Y-93710385D01*
X154618716Y-93630094D01*
X154622131Y-93624497D01*
X154661997Y-93559613D01*
X154697579Y-93502468D01*
X154725112Y-93459065D01*
X154740831Y-93435407D01*
X154749435Y-93426262D01*
X154760319Y-93423934D01*
X154776656Y-93430834D01*
X154801652Y-93449332D01*
X154838510Y-93481802D01*
X154890431Y-93530615D01*
X154960621Y-93598142D01*
X154982488Y-93619203D01*
X155053703Y-93686407D01*
X155107638Y-93734458D01*
X155146973Y-93765517D01*
X155174385Y-93781746D01*
X155192553Y-93785306D01*
X155197777Y-93783998D01*
X155218071Y-93769846D01*
X155244023Y-93738234D01*
X155278036Y-93685912D01*
X155322515Y-93609634D01*
X155419157Y-93438698D01*
X155522804Y-93545682D01*
X155581792Y-93602929D01*
X155629309Y-93640174D01*
X155660656Y-93652665D01*
X155672867Y-93650063D01*
X155712057Y-93633427D01*
X155770545Y-93603183D01*
X155844713Y-93561396D01*
X155930945Y-93510131D01*
X156025627Y-93451452D01*
X156125143Y-93387424D01*
X156126940Y-93386244D01*
X156210736Y-93325649D01*
X156293039Y-93256435D01*
X156367702Y-93184512D01*
X156428583Y-93115793D01*
X156469531Y-93056187D01*
X156480670Y-93035842D01*
X156511118Y-92980636D01*
X156547793Y-92914496D01*
X156585042Y-92847631D01*
X156596105Y-92827705D01*
X156624436Y-92777627D01*
X156648285Y-92743732D01*
X156673266Y-92724525D01*
X156704996Y-92718516D01*
X156749092Y-92724208D01*
X156811171Y-92740111D01*
X156896849Y-92764730D01*
X157002463Y-92793672D01*
X157113973Y-92819125D01*
X157206375Y-92831873D01*
X157284482Y-92831326D01*
X157353112Y-92816890D01*
X157417073Y-92787974D01*
X157481182Y-92743984D01*
X157550251Y-92684329D01*
X157628059Y-92618063D01*
X157697375Y-92574092D01*
X157758931Y-92555013D01*
X157816721Y-92560402D01*
X157874740Y-92589825D01*
X157936984Y-92642858D01*
X157975308Y-92675823D01*
X158029124Y-92702039D01*
X158080498Y-92699907D01*
X158132627Y-92669867D01*
X158134918Y-92668060D01*
X158161755Y-92648940D01*
X158208528Y-92617142D01*
X158270621Y-92575680D01*
X158343422Y-92527573D01*
X158422316Y-92475837D01*
X158502691Y-92423489D01*
X158579935Y-92373545D01*
X158649430Y-92329022D01*
X158706566Y-92292936D01*
X158746729Y-92268304D01*
X158801555Y-92235053D01*
X158875096Y-92189169D01*
X158958099Y-92136413D01*
X159046199Y-92079648D01*
X159135029Y-92021738D01*
X159220225Y-91965547D01*
X159297420Y-91913940D01*
X159362249Y-91869780D01*
X159410344Y-91835931D01*
X159437342Y-91815257D01*
X159461389Y-91794950D01*
X159502078Y-91763511D01*
X159532199Y-91743782D01*
X159555765Y-91734239D01*
X159624090Y-91726355D01*
X159703448Y-91739045D01*
X159786874Y-91771551D01*
X159796830Y-91776477D01*
X159873416Y-91806086D01*
X159938702Y-91816693D01*
X159977588Y-91814206D01*
X160009738Y-91800037D01*
X160040273Y-91766559D01*
X160049005Y-91754703D01*
X160070184Y-91721523D01*
X160078657Y-91700718D01*
X160080788Y-91690603D01*
X160094074Y-91653868D01*
X160118129Y-91596166D01*
X160151333Y-91521327D01*
X160192061Y-91433174D01*
X160196899Y-91422747D01*
X160218776Y-91374144D01*
X160248122Y-91307563D01*
X160281693Y-91230398D01*
X160316244Y-91150046D01*
X160332214Y-91113067D01*
X160362321Y-91045577D01*
X160387736Y-90991507D01*
X160406170Y-90955645D01*
X160415334Y-90942779D01*
X160420327Y-90945911D01*
X160442150Y-90966781D01*
X160475935Y-91002886D01*
X160516792Y-91049102D01*
X160520256Y-91053109D01*
X160566107Y-91103904D01*
X160599780Y-91134980D01*
X160626656Y-91150544D01*
X160652117Y-91154798D01*
X160657344Y-91154729D01*
X160680050Y-91150713D01*
X160698574Y-91136326D01*
X160718170Y-91105765D01*
X160744090Y-91053228D01*
X160759211Y-91023143D01*
X160783620Y-90982692D01*
X160815097Y-90940344D01*
X160857438Y-90891507D01*
X160914440Y-90831591D01*
X160989899Y-90756005D01*
X161030604Y-90715687D01*
X161093328Y-90652233D01*
X161139700Y-90601528D01*
X161173123Y-90558158D01*
X161197003Y-90516710D01*
X161214745Y-90471770D01*
X161229754Y-90417925D01*
X161245435Y-90349762D01*
X161246747Y-90343967D01*
X161263432Y-90279189D01*
X161285987Y-90202071D01*
X161311702Y-90120902D01*
X161337868Y-90043968D01*
X161361777Y-89979558D01*
X161380717Y-89935959D01*
X161389324Y-89919800D01*
X161424351Y-89861143D01*
X161460516Y-89808265D01*
X161505708Y-89748285D01*
X161370652Y-89608679D01*
X161350567Y-89587703D01*
X161279022Y-89507421D01*
X161230554Y-89440661D01*
X161204043Y-89384173D01*
X161198368Y-89334699D01*
X161212411Y-89288986D01*
X161245050Y-89243779D01*
X161259272Y-89227214D01*
X161307694Y-89148132D01*
X161326975Y-89064632D01*
X161317259Y-88975185D01*
X161278686Y-88878263D01*
X161249543Y-88811538D01*
X161233310Y-88739577D01*
X161233067Y-88661647D01*
X161248846Y-88571259D01*
X161280679Y-88461925D01*
X161291133Y-88428464D01*
X161309835Y-88358385D01*
X161322763Y-88295551D01*
X161327590Y-88250454D01*
X161325645Y-88220875D01*
X161303059Y-88137340D01*
X161257894Y-88051185D01*
X161193594Y-87969630D01*
X161134138Y-87906798D01*
X161291054Y-87777526D01*
X161306142Y-87765034D01*
X161361753Y-87717800D01*
X161406791Y-87677699D01*
X161436960Y-87648639D01*
X161447969Y-87634533D01*
X161447969Y-87634400D01*
X161434711Y-87608991D01*
X161397777Y-87574636D01*
X161340882Y-87534791D01*
X161314733Y-87516357D01*
X161279669Y-87483615D01*
X161260139Y-87454163D01*
X161261151Y-87434311D01*
X161262773Y-87430775D01*
X161268462Y-87403794D01*
X161275302Y-87357070D01*
X161282152Y-87298014D01*
X161290266Y-87239379D01*
X161329090Y-87093512D01*
X161391751Y-86959105D01*
X161475811Y-86840724D01*
X161578827Y-86742936D01*
X161613915Y-86716216D01*
X161670020Y-86673980D01*
X161735267Y-86625211D01*
X161801583Y-86575965D01*
X161956525Y-86448143D01*
X162116819Y-86280554D01*
X162253388Y-86094563D01*
X162365842Y-85890711D01*
X162453794Y-85669538D01*
X162510974Y-85484821D01*
X162571918Y-85248232D01*
X162612499Y-85030569D01*
X162632940Y-84830171D01*
X162633465Y-84645371D01*
X162614296Y-84474510D01*
X162600706Y-84405864D01*
X162553699Y-84240565D01*
X162490746Y-84096813D01*
X162412892Y-83977191D01*
X162399141Y-83960256D01*
X162296348Y-83853862D01*
X162184633Y-83773820D01*
X162060637Y-83718574D01*
X161920993Y-83686567D01*
X161762340Y-83676244D01*
X161751920Y-83676268D01*
X161690979Y-83677596D01*
X161630054Y-83681428D01*
X161565511Y-83688429D01*
X161493717Y-83699264D01*
X161411033Y-83714598D01*
X161313829Y-83735095D01*
X161198468Y-83761421D01*
X161061317Y-83794240D01*
X160898740Y-83834218D01*
X160880621Y-83838708D01*
X160719830Y-83878197D01*
X160584159Y-83910696D01*
X160470037Y-83936948D01*
X160373883Y-83957695D01*
X160292124Y-83973678D01*
X160221186Y-83985639D01*
X160157491Y-83994321D01*
X160097466Y-84000465D01*
X159973325Y-84011172D01*
X159973325Y-83846790D01*
X159973983Y-83798153D01*
X159977903Y-83729026D01*
X159986293Y-83659835D01*
X160000217Y-83585914D01*
X160020741Y-83502595D01*
X160048933Y-83405212D01*
X160085857Y-83289098D01*
X160132580Y-83149585D01*
X160154442Y-83083971D01*
X160179291Y-83005598D01*
X160198968Y-82939090D01*
X160211861Y-82889949D01*
X160216355Y-82863684D01*
X160216286Y-82862149D01*
X160211991Y-82833298D01*
X160201844Y-82780943D01*
X160186934Y-82710260D01*
X160168348Y-82626423D01*
X160147174Y-82534605D01*
X160146275Y-82530779D01*
X160126819Y-82448229D01*
X160110109Y-82380236D01*
X160094262Y-82322235D01*
X160077398Y-82269660D01*
X160057630Y-82217944D01*
X160033076Y-82162524D01*
X160001855Y-82098832D01*
X159962082Y-82022303D01*
X159911873Y-81928371D01*
X159849348Y-81812471D01*
X159848519Y-81810929D01*
X159808232Y-81722546D01*
X159766750Y-81605404D01*
X159723843Y-81458858D01*
X159706105Y-81393717D01*
X159681189Y-81304604D01*
X159661695Y-81239292D01*
X159646424Y-81194393D01*
X159634179Y-81166516D01*
X159623760Y-81152275D01*
X159613969Y-81148281D01*
X159602153Y-81143450D01*
X159567761Y-81125381D01*
X159515719Y-81096297D01*
X159450519Y-81058716D01*
X159376649Y-81015158D01*
X159153242Y-80882035D01*
X158927531Y-80901970D01*
X158900482Y-80904404D01*
X158808588Y-80913080D01*
X158697813Y-80923983D01*
X158576253Y-80936297D01*
X158452003Y-80949205D01*
X158333159Y-80961892D01*
X158267502Y-80968910D01*
X158150685Y-80980574D01*
X158053646Y-80988701D01*
X157969611Y-80993634D01*
X157891815Y-80995723D01*
X157813488Y-80995308D01*
X157727861Y-80992735D01*
X157491224Y-80983594D01*
X157366724Y-81036815D01*
X157358019Y-81040551D01*
X157282547Y-81073803D01*
X157203288Y-81109925D01*
X157136040Y-81141730D01*
X157124102Y-81147504D01*
X157074072Y-81170849D01*
X157036070Y-81187239D01*
X157017542Y-81193424D01*
X157011446Y-81181692D01*
X157013952Y-81152043D01*
X157025887Y-81096044D01*
X157041401Y-81024394D01*
X157057407Y-80951383D01*
X157072208Y-80884706D01*
X157084102Y-80832060D01*
X157091393Y-80801143D01*
X157091904Y-80799082D01*
X157093912Y-80773550D01*
X157079999Y-80755866D01*
X157043795Y-80737516D01*
X157002522Y-80720110D01*
X156938301Y-80694326D01*
X156867429Y-80666919D01*
X156795677Y-80640011D01*
X156728813Y-80615726D01*
X156672608Y-80596186D01*
X156632831Y-80583515D01*
X156615252Y-80579835D01*
X156614214Y-80580403D01*
X156598310Y-80597994D01*
X156568133Y-80637671D01*
X156525598Y-80696738D01*
X156472617Y-80772502D01*
X156411104Y-80862265D01*
X156342974Y-80963334D01*
X156337082Y-80972055D01*
X156307047Y-81013763D01*
X156284055Y-81041267D01*
X156272686Y-81048985D01*
X156266648Y-81032236D01*
X156255852Y-80992041D01*
X156241851Y-80934467D01*
X156226177Y-80865556D01*
X156187448Y-80689906D01*
X155935277Y-80658859D01*
X155683109Y-80627811D01*
X155689868Y-80658574D01*
X155690028Y-80659308D01*
X155695300Y-80685024D01*
X155705264Y-80734790D01*
X155718900Y-80803467D01*
X155735187Y-80885912D01*
X155753103Y-80976985D01*
X155756863Y-80996080D01*
X155776894Y-81094967D01*
X155793348Y-81169340D01*
X155807494Y-81223617D01*
X155820599Y-81262215D01*
X155833934Y-81289554D01*
X155848768Y-81310051D01*
X155856187Y-81318656D01*
X155936821Y-81413218D01*
X155998364Y-81487549D01*
X156040463Y-81541197D01*
X156062764Y-81573716D01*
X156064913Y-81584656D01*
X156049613Y-81582862D01*
X156011681Y-81576529D01*
X155961942Y-81567206D01*
X155944610Y-81563656D01*
X155908243Y-81553852D01*
X155876525Y-81539332D01*
X155843030Y-81515898D01*
X155801333Y-81479355D01*
X155745007Y-81425503D01*
X155699185Y-81381075D01*
X155643773Y-81327552D01*
X155596102Y-81281723D01*
X155563080Y-81250242D01*
X155530614Y-81224919D01*
X155462214Y-81186261D01*
X155374986Y-81148998D01*
X155345910Y-81137914D01*
X155262938Y-81104990D01*
X155173646Y-81068162D01*
X155092901Y-81033520D01*
X155053943Y-81017156D01*
X154913021Y-80968336D01*
X154761858Y-80929840D01*
X154716562Y-80920115D01*
X154625013Y-80899720D01*
X154519931Y-80875632D01*
X154411020Y-80850089D01*
X154307981Y-80825323D01*
X154233288Y-80807140D01*
X154116747Y-80779256D01*
X154022044Y-80757888D01*
X153944420Y-80742546D01*
X153879110Y-80732742D01*
X153821355Y-80727988D01*
X153766394Y-80727797D01*
X153709464Y-80731679D01*
X153645806Y-80739146D01*
X153570659Y-80749710D01*
X153527411Y-80755901D01*
X153468767Y-80764029D01*
X153425632Y-80769672D01*
X153405138Y-80771874D01*
X153401055Y-80772841D01*
X153376943Y-80787320D01*
X153344948Y-80813559D01*
X153268487Y-80882964D01*
X153169239Y-80971473D01*
X153074073Y-81054697D01*
X152988894Y-81127481D01*
X152919610Y-81184672D01*
X152867832Y-81227574D01*
X152810432Y-81281010D01*
X152761504Y-81336399D01*
X152713853Y-81402119D01*
X152660281Y-81486547D01*
X152642565Y-81517042D01*
X152624253Y-81553224D01*
X152606363Y-81595179D01*
X152587574Y-81646802D01*
X152566571Y-81711990D01*
X152542033Y-81794638D01*
X152512643Y-81898643D01*
X152477082Y-82027899D01*
X152357974Y-82464219D01*
X152451828Y-82660190D01*
X152463450Y-82684543D01*
X152497068Y-82757465D01*
X152522560Y-82820438D01*
X152540260Y-82878404D01*
X152550499Y-82936306D01*
X152553609Y-82999088D01*
X152549923Y-83071693D01*
X152539773Y-83159061D01*
X152523492Y-83266138D01*
X152501410Y-83397867D01*
X152493664Y-83442374D01*
X152483451Y-83498172D01*
X152475651Y-83537319D01*
X152471516Y-83553296D01*
X152471492Y-83553319D01*
X152455727Y-83552097D01*
X152415167Y-83545876D01*
X152354478Y-83535454D01*
X152278326Y-83521633D01*
X152191376Y-83505214D01*
X152125926Y-83492750D01*
X151938327Y-83458724D01*
X151775887Y-83432502D01*
X151635645Y-83414078D01*
X151514638Y-83403446D01*
X151409904Y-83400601D01*
X151318483Y-83405537D01*
X151237411Y-83418247D01*
X151163727Y-83438728D01*
X151094469Y-83466972D01*
X151026676Y-83502974D01*
X150992978Y-83524983D01*
X150915241Y-83598479D01*
X150850994Y-83697062D01*
X150836538Y-83729100D01*
X150825772Y-83769685D01*
X150820613Y-83821705D01*
X150819585Y-83894431D01*
X150820217Y-83928978D01*
X150825097Y-83997066D01*
X150836431Y-84060557D01*
X150856236Y-84125401D01*
X150886526Y-84197545D01*
X150929316Y-84282940D01*
X150986622Y-84387534D01*
X151002144Y-84415188D01*
X151046087Y-84494175D01*
X151081446Y-84560311D01*
X151110166Y-84618862D01*
X151134193Y-84675093D01*
X151155473Y-84734270D01*
X151175953Y-84801658D01*
X151197578Y-84882523D01*
X151222294Y-84982130D01*
X151252047Y-85105746D01*
X151275485Y-85203554D01*
X151234328Y-85239565D01*
X151229265Y-85243997D01*
X151194553Y-85274443D01*
X151147752Y-85315545D01*
X151097506Y-85359716D01*
X151001842Y-85443856D01*
X151052364Y-85453347D01*
X151060845Y-85454888D01*
X151105898Y-85462436D01*
X151166965Y-85472090D01*
X151233350Y-85482146D01*
X151363812Y-85501454D01*
X151302499Y-85582661D01*
X151273914Y-85624149D01*
X151256072Y-85658626D01*
X151254797Y-85676414D01*
X151257885Y-85678777D01*
X151285038Y-85692311D01*
X151324836Y-85706991D01*
X151330229Y-85708603D01*
X151346509Y-85712575D01*
X151359430Y-85716454D01*
X151368972Y-85723240D01*
X151375114Y-85735927D01*
X151377837Y-85757517D01*
X151377120Y-85791005D01*
X151372942Y-85839386D01*
X151365284Y-85905662D01*
X151354126Y-85992829D01*
X151339447Y-86103883D01*
X151321227Y-86241824D01*
X151317372Y-86271206D01*
X151304165Y-86371896D01*
X151290760Y-86474173D01*
X151278524Y-86567563D01*
X151268835Y-86641589D01*
X151263452Y-86681117D01*
X151254731Y-86733874D01*
X151243746Y-86780732D01*
X151228245Y-86828249D01*
X151205985Y-86882984D01*
X151174717Y-86951496D01*
X151132194Y-87040345D01*
X151106373Y-87093862D01*
X151062984Y-87184088D01*
X151021631Y-87270417D01*
X150986012Y-87345121D01*
X150959825Y-87400473D01*
X150936836Y-87449185D01*
X150897137Y-87532710D01*
X150850323Y-87630729D01*
X150799846Y-87736047D01*
X150749156Y-87841469D01*
X150701702Y-87939800D01*
X150660934Y-88023846D01*
X150658944Y-88027941D01*
X150636148Y-88076175D01*
X150619986Y-88112735D01*
X150613846Y-88129986D01*
X150614412Y-88131251D01*
X150631681Y-88144086D01*
X150668186Y-88165162D01*
X150717329Y-88190618D01*
X150757847Y-88210919D01*
X150793532Y-88231275D01*
X150811328Y-88248302D01*
X150816523Y-88267691D01*
X150814407Y-88295140D01*
X150810369Y-88330246D01*
X150803970Y-88387646D01*
X150796125Y-88459080D01*
X150787718Y-88536552D01*
X150778157Y-88611571D01*
X150752997Y-88750167D01*
X150720870Y-88873356D01*
X150709600Y-88909511D01*
X150693028Y-88965961D01*
X150684300Y-89006530D01*
X150682571Y-89039804D01*
X150687001Y-89074368D01*
X150696742Y-89118810D01*
X150707524Y-89167580D01*
X150715950Y-89210547D01*
X150719178Y-89233930D01*
X150713559Y-89246795D01*
X150692125Y-89279469D01*
X150658398Y-89325164D01*
X150616369Y-89378275D01*
X150513559Y-89504242D01*
X150160499Y-89504242D01*
X150152531Y-89480482D01*
X150147376Y-89460418D01*
X150155597Y-89443966D01*
X150179405Y-89409078D01*
X150215040Y-89361286D01*
X150258724Y-89305837D01*
X150370071Y-89167929D01*
X150348882Y-89086787D01*
X150339332Y-89044665D01*
X150335972Y-88999693D01*
X150344478Y-88962953D01*
X150359558Y-88921891D01*
X150383306Y-88848681D01*
X150407027Y-88767251D01*
X150428808Y-88684950D01*
X150446735Y-88609127D01*
X150458894Y-88547131D01*
X150463372Y-88506311D01*
X150463372Y-88435795D01*
X150320422Y-88363897D01*
X150274033Y-88340133D01*
X150224095Y-88313362D01*
X150190054Y-88293637D01*
X150177472Y-88284062D01*
X150178097Y-88280616D01*
X150181819Y-88270314D01*
X150189983Y-88251366D01*
X150203832Y-88221141D01*
X150224610Y-88177004D01*
X150253560Y-88116325D01*
X150291923Y-88036469D01*
X150340943Y-87934805D01*
X150401863Y-87808700D01*
X150427618Y-87755353D01*
X150468119Y-87671186D01*
X150502799Y-87598764D01*
X150529835Y-87541921D01*
X150547397Y-87504490D01*
X150553657Y-87490306D01*
X150553724Y-87490048D01*
X150561295Y-87473388D01*
X150580223Y-87433540D01*
X150608823Y-87373998D01*
X150645412Y-87298259D01*
X150688305Y-87209819D01*
X150735819Y-87112173D01*
X150763045Y-87056166D01*
X150813496Y-86951120D01*
X150852682Y-86866980D01*
X150882258Y-86799692D01*
X150903879Y-86745204D01*
X150919199Y-86699463D01*
X150929873Y-86658416D01*
X150937556Y-86618009D01*
X150946794Y-86558499D01*
X150960851Y-86461231D01*
X150975878Y-86351401D01*
X150990564Y-86238864D01*
X151003600Y-86133477D01*
X151013676Y-86045093D01*
X151023414Y-85953694D01*
X150882582Y-85903979D01*
X150843791Y-85890043D01*
X150788651Y-85869289D01*
X150748481Y-85852959D01*
X150730032Y-85843720D01*
X150728959Y-85842360D01*
X150731805Y-85822613D01*
X150749965Y-85792939D01*
X150759048Y-85780855D01*
X150770751Y-85757299D01*
X150761683Y-85746867D01*
X150747696Y-85743853D01*
X150707559Y-85736672D01*
X150649418Y-85726968D01*
X150580087Y-85715829D01*
X150506378Y-85704345D01*
X150435108Y-85693608D01*
X150373088Y-85684708D01*
X150327273Y-85678129D01*
X150295269Y-85670776D01*
X150281145Y-85659826D01*
X150285846Y-85642024D01*
X150310317Y-85614117D01*
X150355501Y-85572849D01*
X150422344Y-85514966D01*
X150445769Y-85494766D01*
X150507234Y-85441843D01*
X150561418Y-85395296D01*
X150603157Y-85359559D01*
X150627287Y-85339062D01*
X150657792Y-85312712D01*
X150687477Y-85285605D01*
X150692857Y-85280561D01*
X150721277Y-85255011D01*
X150763178Y-85218144D01*
X150811582Y-85176115D01*
X150911509Y-85089907D01*
X150874758Y-84951114D01*
X150867254Y-84923034D01*
X150853275Y-84873778D01*
X150838962Y-84830395D01*
X150821904Y-84787538D01*
X150799695Y-84739858D01*
X150769926Y-84682009D01*
X150730187Y-84608644D01*
X150678071Y-84514413D01*
X150618225Y-84401170D01*
X150555174Y-84261310D01*
X150512248Y-84133579D01*
X150488258Y-84013251D01*
X150482015Y-83895597D01*
X150492330Y-83775888D01*
X150495092Y-83758450D01*
X150533909Y-83610274D01*
X150597771Y-83478621D01*
X150686748Y-83363417D01*
X150800912Y-83264584D01*
X150940334Y-83182043D01*
X151105085Y-83115721D01*
X151125489Y-83109637D01*
X151219501Y-83091786D01*
X151335937Y-83082159D01*
X151469649Y-83080700D01*
X151615491Y-83087351D01*
X151768313Y-83102057D01*
X151922970Y-83124761D01*
X151969025Y-83132813D01*
X152046359Y-83146647D01*
X152111216Y-83158641D01*
X152157866Y-83167728D01*
X152180578Y-83172836D01*
X152193602Y-83172057D01*
X152210329Y-83147628D01*
X152220492Y-83094774D01*
X152223917Y-83014124D01*
X152223610Y-83001795D01*
X152219222Y-82968103D01*
X152208099Y-82928733D01*
X152188291Y-82878515D01*
X152157849Y-82812281D01*
X152114824Y-82724862D01*
X152005730Y-82507111D01*
X152148680Y-81988100D01*
X152160821Y-81944063D01*
X152197220Y-81812878D01*
X152227406Y-81706149D01*
X152252578Y-81620314D01*
X152273936Y-81551809D01*
X152292685Y-81497072D01*
X152310022Y-81452538D01*
X152327148Y-81414646D01*
X152345266Y-81379831D01*
X152365575Y-81344531D01*
X152370157Y-81336854D01*
X152424623Y-81250797D01*
X152482301Y-81167709D01*
X152537475Y-81095492D01*
X152584428Y-81042045D01*
X152595525Y-81031777D01*
X152628413Y-81003470D01*
X152674577Y-80965007D01*
X152727737Y-80921666D01*
X152728912Y-80920719D01*
X152812960Y-80852269D01*
X152882249Y-80794032D01*
X152945754Y-80738104D01*
X153012455Y-80676580D01*
X153091330Y-80601554D01*
X153097941Y-80595212D01*
X153146460Y-80549492D01*
X153186347Y-80515938D01*
X153224004Y-80491799D01*
X153265834Y-80474323D01*
X153318237Y-80460759D01*
X153387617Y-80448356D01*
X153480375Y-80434362D01*
X153525525Y-80427798D01*
X153624077Y-80414638D01*
X153709536Y-80406007D01*
X153787163Y-80402339D01*
X153862223Y-80404068D01*
X153939979Y-80411629D01*
X154025693Y-80425456D01*
X154124629Y-80445983D01*
X154242050Y-80473646D01*
X154383218Y-80508878D01*
X154426551Y-80519722D01*
X154534277Y-80545894D01*
X154645430Y-80571985D01*
X154749166Y-80595475D01*
X154834640Y-80613841D01*
X154850356Y-80617119D01*
X154974478Y-80647196D01*
X155085774Y-80683323D01*
X155199740Y-80730449D01*
X155205067Y-80732844D01*
X155269487Y-80761124D01*
X155322835Y-80783317D01*
X155359692Y-80797247D01*
X155374644Y-80800737D01*
X155373542Y-80785038D01*
X155367159Y-80744536D01*
X155356322Y-80683962D01*
X155341873Y-80608034D01*
X155324660Y-80521467D01*
X155269256Y-80248266D01*
X155315277Y-80253986D01*
X155315472Y-80254010D01*
X155348333Y-80258104D01*
X155403356Y-80264969D01*
X155472917Y-80273652D01*
X155549391Y-80283204D01*
X155610498Y-80290835D01*
X155716510Y-80304068D01*
X155824301Y-80317518D01*
X155918052Y-80329209D01*
X155980159Y-80336994D01*
X156068507Y-80348185D01*
X156150877Y-80358737D01*
X156215323Y-80367126D01*
X156227835Y-80368718D01*
X156283218Y-80374234D01*
X156325489Y-80376032D01*
X156346330Y-80373696D01*
X156348003Y-80372387D01*
X156365007Y-80352188D01*
X156392015Y-80314712D01*
X156423995Y-80266882D01*
X156437648Y-80246158D01*
X156470044Y-80202200D01*
X156493481Y-80180905D01*
X156511175Y-80179030D01*
X156531655Y-80187332D01*
X156574738Y-80204433D01*
X156633212Y-80227464D01*
X156700517Y-80253831D01*
X156774508Y-80282818D01*
X156870664Y-80320618D01*
X156970589Y-80360007D01*
X157061654Y-80396013D01*
X157080827Y-80403595D01*
X157153985Y-80432303D01*
X157218292Y-80457198D01*
X157267382Y-80475830D01*
X157294889Y-80485751D01*
X157310792Y-80491351D01*
X157355185Y-80508683D01*
X157404960Y-80529596D01*
X157435673Y-80543575D01*
X157463024Y-80560878D01*
X157473166Y-80580484D01*
X157472674Y-80610222D01*
X157467934Y-80659241D01*
X157761358Y-80663826D01*
X157931170Y-80664100D01*
X158102038Y-80658043D01*
X158250398Y-80645034D01*
X158314406Y-80637516D01*
X158480001Y-80619146D01*
X158645361Y-80602228D01*
X158803096Y-80587464D01*
X158945818Y-80575560D01*
X159066138Y-80567222D01*
X159234841Y-80557223D01*
X159326784Y-80611994D01*
X159330840Y-80614406D01*
X159376142Y-80640877D01*
X159409694Y-80659639D01*
X159424492Y-80666765D01*
X159425483Y-80667085D01*
X159444451Y-80677198D01*
X159483207Y-80699395D01*
X159536786Y-80730799D01*
X159600220Y-80768533D01*
X159605083Y-80771442D01*
X159674030Y-80812374D01*
X159738105Y-80849862D01*
X159790350Y-80879867D01*
X159823800Y-80898343D01*
X159826741Y-80899881D01*
X159859560Y-80917754D01*
X159885406Y-80935403D01*
X159906401Y-80957010D01*
X159924668Y-80986755D01*
X159942332Y-81028819D01*
X159961515Y-81087383D01*
X159984341Y-81166628D01*
X160012932Y-81270735D01*
X160029883Y-81332598D01*
X160052023Y-81411200D01*
X160072404Y-81478447D01*
X160093032Y-81539068D01*
X160115912Y-81597794D01*
X160143050Y-81659355D01*
X160176454Y-81728481D01*
X160218128Y-81809903D01*
X160270079Y-81908350D01*
X160334313Y-82028555D01*
X160336207Y-82032110D01*
X160366233Y-82093510D01*
X160391812Y-82154225D01*
X160407587Y-82201598D01*
X160421604Y-82259292D01*
X160439112Y-82333610D01*
X160458770Y-82418651D01*
X160479456Y-82509409D01*
X160500052Y-82600881D01*
X160519436Y-82688061D01*
X160536490Y-82765946D01*
X160550094Y-82829530D01*
X160559127Y-82873809D01*
X160562471Y-82893779D01*
X160561871Y-82898206D01*
X160554077Y-82927931D01*
X160538388Y-82979952D01*
X160516219Y-83049771D01*
X160488990Y-83132894D01*
X160458118Y-83224822D01*
X160421421Y-83333361D01*
X160389396Y-83429843D01*
X160365922Y-83503485D01*
X160350218Y-83557200D01*
X160341504Y-83593905D01*
X160339006Y-83616513D01*
X160341939Y-83627940D01*
X160349528Y-83631101D01*
X160354446Y-83630378D01*
X160384851Y-83623912D01*
X160439113Y-83611459D01*
X160513543Y-83593892D01*
X160604452Y-83572087D01*
X160708152Y-83546921D01*
X160820955Y-83519265D01*
X160859350Y-83509809D01*
X161011240Y-83472541D01*
X161138325Y-83441793D01*
X161244185Y-83416933D01*
X161332399Y-83397327D01*
X161406547Y-83382348D01*
X161470205Y-83371362D01*
X161526953Y-83363739D01*
X161580374Y-83358846D01*
X161634042Y-83356054D01*
X161691538Y-83354729D01*
X161756441Y-83354242D01*
X161812631Y-83354274D01*
X161901335Y-83356079D01*
X161969874Y-83360622D01*
X162024743Y-83368433D01*
X162072436Y-83380043D01*
X162139941Y-83401686D01*
X162311226Y-83474734D01*
X162461127Y-83568255D01*
X162591356Y-83683674D01*
X162703623Y-83822417D01*
X162799639Y-83985907D01*
X162814767Y-84016906D01*
X162887675Y-84200544D01*
X162936315Y-84394310D01*
X162961343Y-84601564D01*
X162961748Y-84645371D01*
X162963414Y-84825665D01*
G37*
G36*
X160572609Y-86307373D02*
G01*
X160553463Y-86362120D01*
X160530078Y-86428070D01*
X160506849Y-86493778D01*
X160487641Y-86549243D01*
X160474658Y-86588038D01*
X160469889Y-86604341D01*
X160474498Y-86608503D01*
X160500609Y-86623713D01*
X160544630Y-86646503D01*
X160600643Y-86673728D01*
X160731397Y-86735575D01*
X160650077Y-86809176D01*
X160639644Y-86818717D01*
X160599982Y-86858543D01*
X160582027Y-86885355D01*
X160583276Y-86902657D01*
X160583677Y-86903204D01*
X160599241Y-86923494D01*
X160629085Y-86961782D01*
X160669081Y-87012784D01*
X160715096Y-87071222D01*
X160783453Y-87159615D01*
X160849114Y-87248419D01*
X160903863Y-87326764D01*
X160945586Y-87391506D01*
X160972169Y-87439501D01*
X160981500Y-87467605D01*
X160977316Y-87489690D01*
X160956068Y-87512986D01*
X160913086Y-87530604D01*
X160844197Y-87544891D01*
X160797947Y-87553194D01*
X160759034Y-87562009D01*
X160741123Y-87568542D01*
X160746571Y-87579217D01*
X160770211Y-87606374D01*
X160808406Y-87645366D01*
X160857032Y-87691810D01*
X160892600Y-87725733D01*
X160937560Y-87772555D01*
X160964156Y-87806278D01*
X160969887Y-87823968D01*
X160968213Y-87825744D01*
X160943970Y-87835409D01*
X160899463Y-87844769D01*
X160842863Y-87852019D01*
X160726797Y-87862852D01*
X160783427Y-87932610D01*
X160824214Y-87985396D01*
X160856341Y-88036371D01*
X160877831Y-88087739D01*
X160890949Y-88146919D01*
X160897345Y-88214861D01*
X160897953Y-88221321D01*
X160901106Y-88318364D01*
X160903021Y-88385887D01*
X160908140Y-88496180D01*
X160915238Y-88608545D01*
X160923391Y-88706899D01*
X160932557Y-88903560D01*
X160919478Y-89086668D01*
X160918381Y-89091934D01*
X160883604Y-89258826D01*
X160874210Y-89294168D01*
X160857128Y-89365825D01*
X160842965Y-89433531D01*
X160836612Y-89473491D01*
X160835435Y-89531189D01*
X160849618Y-89580487D01*
X160882292Y-89629889D01*
X160936588Y-89687903D01*
X161010359Y-89760566D01*
X160956439Y-89834018D01*
X160902519Y-89907473D01*
X160952168Y-89969255D01*
X161001817Y-90031035D01*
X160910814Y-90115162D01*
X160868157Y-90154459D01*
X160829483Y-90189468D01*
X160793376Y-90221056D01*
X160753332Y-90254792D01*
X160702845Y-90296246D01*
X160635410Y-90350990D01*
X160579260Y-90395150D01*
X160484276Y-90465001D01*
X160388947Y-90529930D01*
X160300840Y-90584861D01*
X160227519Y-90624714D01*
X160132425Y-90659964D01*
X160016795Y-90681380D01*
X159879001Y-90688329D01*
X159816755Y-90690849D01*
X159738524Y-90705850D01*
X159679500Y-90736103D01*
X159634550Y-90783609D01*
X159633586Y-90784951D01*
X159612850Y-90809626D01*
X159576224Y-90849854D01*
X159528591Y-90900367D01*
X159474837Y-90955891D01*
X159383339Y-91044962D01*
X159261388Y-91148236D01*
X159142261Y-91229298D01*
X159020945Y-91291438D01*
X158892425Y-91337942D01*
X158874356Y-91343127D01*
X158836141Y-91352295D01*
X158795554Y-91358662D01*
X158747057Y-91362583D01*
X158685106Y-91364413D01*
X158604161Y-91364510D01*
X158498679Y-91363228D01*
X158440524Y-91362374D01*
X158291034Y-91360796D01*
X158166462Y-91360693D01*
X158062979Y-91362260D01*
X157976755Y-91365686D01*
X157903962Y-91371164D01*
X157840774Y-91378886D01*
X157783357Y-91389041D01*
X157727885Y-91401823D01*
X157691320Y-91411017D01*
X157637832Y-91424076D01*
X157600610Y-91432648D01*
X157586091Y-91435217D01*
X157586720Y-91433680D01*
X157599020Y-91414290D01*
X157624609Y-91376247D01*
X157660443Y-91324037D01*
X157703476Y-91262151D01*
X157717897Y-91241366D01*
X157758215Y-91181275D01*
X157789564Y-91131545D01*
X157809072Y-91096861D01*
X157813868Y-91081913D01*
X157806511Y-91078374D01*
X157775489Y-91071141D01*
X157730841Y-91064844D01*
X157657030Y-91056990D01*
X157714315Y-90981753D01*
X157751730Y-90930206D01*
X157824419Y-90808331D01*
X157882111Y-90673281D01*
X157889634Y-90650069D01*
X157908669Y-90557665D01*
X157913049Y-90508874D01*
X158549706Y-90508874D01*
X158567146Y-90494757D01*
X158569030Y-90493224D01*
X158592656Y-90478020D01*
X158633814Y-90454041D01*
X158684889Y-90425749D01*
X158743324Y-90393579D01*
X158887969Y-90307982D01*
X159005715Y-90228187D01*
X159098234Y-90153001D01*
X159167194Y-90081229D01*
X159183911Y-90059787D01*
X159226797Y-89992904D01*
X159255579Y-89928853D01*
X159266097Y-89876253D01*
X159267211Y-89861608D01*
X159274917Y-89850571D01*
X159294877Y-89848274D01*
X159332701Y-89854379D01*
X159394000Y-89868547D01*
X159436348Y-89878354D01*
X159478510Y-89887115D01*
X159501462Y-89890582D01*
X159502971Y-89890228D01*
X159515098Y-89872751D01*
X159529824Y-89834168D01*
X159544297Y-89781723D01*
X159545054Y-89778502D01*
X159575018Y-89644798D01*
X159595949Y-89536071D01*
X159608216Y-89448788D01*
X159612186Y-89379417D01*
X159608230Y-89324430D01*
X159596719Y-89280290D01*
X159587476Y-89250486D01*
X159586598Y-89234258D01*
X159588430Y-89234281D01*
X159607788Y-89245139D01*
X159642982Y-89269496D01*
X159688079Y-89303314D01*
X159702260Y-89314142D01*
X159745463Y-89345135D01*
X159777399Y-89365035D01*
X159791988Y-89369942D01*
X159797114Y-89352594D01*
X159803293Y-89313594D01*
X159809096Y-89261593D01*
X159809183Y-89260657D01*
X159810522Y-89091934D01*
X159785308Y-88918337D01*
X159734917Y-88746159D01*
X159660722Y-88581694D01*
X159638011Y-88540977D01*
X159603199Y-88481883D01*
X159566407Y-88422246D01*
X159531069Y-88367372D01*
X159500621Y-88322563D01*
X159478498Y-88293123D01*
X159468135Y-88284356D01*
X159468316Y-88290559D01*
X159475163Y-88320017D01*
X159488699Y-88367724D01*
X159507157Y-88427208D01*
X159513836Y-88448530D01*
X159536151Y-88526936D01*
X159555638Y-88605314D01*
X159568697Y-88669492D01*
X159571706Y-88690288D01*
X159576643Y-88750910D01*
X159577010Y-88810762D01*
X159573221Y-88862549D01*
X159565691Y-88898974D01*
X159554837Y-88912742D01*
X159554359Y-88912678D01*
X159538557Y-88900879D01*
X159509228Y-88872668D01*
X159472328Y-88833742D01*
X159400182Y-88754739D01*
X159407952Y-88814928D01*
X159415182Y-88883069D01*
X159421690Y-88975754D01*
X159425852Y-89074507D01*
X159427558Y-89172125D01*
X159426694Y-89261401D01*
X159423149Y-89335133D01*
X159416812Y-89386114D01*
X159398084Y-89475783D01*
X159350900Y-89423037D01*
X159337943Y-89408419D01*
X159292810Y-89355857D01*
X159236165Y-89287646D01*
X159164586Y-89199684D01*
X159135026Y-89163113D01*
X159126813Y-89342634D01*
X159110145Y-89506504D01*
X159070039Y-89681563D01*
X159005924Y-89853268D01*
X158916534Y-90024403D01*
X158800605Y-90197751D01*
X158656871Y-90376095D01*
X158619295Y-90419596D01*
X158575851Y-90471199D01*
X158552631Y-90500991D01*
X158549706Y-90508874D01*
X157913049Y-90508874D01*
X157918370Y-90449603D01*
X157918592Y-90335896D01*
X157909188Y-90226550D01*
X157890012Y-90131575D01*
X157844056Y-90001656D01*
X157776735Y-89869996D01*
X157695518Y-89757141D01*
X157603599Y-89668261D01*
X157543171Y-89621046D01*
X157533077Y-89767217D01*
X157530560Y-89801008D01*
X157519655Y-89900041D01*
X157502636Y-89982848D01*
X157476306Y-90059340D01*
X157437472Y-90139431D01*
X157382939Y-90233034D01*
X157370155Y-90253719D01*
X157255798Y-90421353D01*
X157130136Y-90573939D01*
X156987068Y-90718289D01*
X156820493Y-90861218D01*
X156714351Y-90949150D01*
X156524574Y-91124808D01*
X156358079Y-91307296D01*
X156210368Y-91502271D01*
X156076945Y-91715390D01*
X155953315Y-91952310D01*
X155951801Y-91955467D01*
X155895176Y-92073098D01*
X155849387Y-92166995D01*
X155812568Y-92240606D01*
X155782859Y-92297378D01*
X155758396Y-92340758D01*
X155737315Y-92374194D01*
X155717755Y-92401131D01*
X155697851Y-92425019D01*
X155647108Y-92471595D01*
X155582874Y-92502357D01*
X155518969Y-92504040D01*
X155458018Y-92476686D01*
X155402649Y-92420336D01*
X155399472Y-92415995D01*
X155345197Y-92346709D01*
X155300536Y-92301075D01*
X155261861Y-92275978D01*
X155225543Y-92268305D01*
X155211175Y-92269118D01*
X155176971Y-92280184D01*
X155144367Y-92307385D01*
X155109341Y-92354749D01*
X155067874Y-92426303D01*
X155048640Y-92460610D01*
X155004688Y-92528443D01*
X154967241Y-92570115D01*
X154937392Y-92584300D01*
X154932945Y-92583605D01*
X154906093Y-92569076D01*
X154870794Y-92541438D01*
X154835330Y-92508276D01*
X154807979Y-92477174D01*
X154797022Y-92455718D01*
X154790048Y-92434829D01*
X154764314Y-92400538D01*
X154727922Y-92365949D01*
X154689740Y-92339217D01*
X154658636Y-92328495D01*
X154639867Y-92331817D01*
X154597870Y-92348548D01*
X154551930Y-92374650D01*
X154532178Y-92389185D01*
X154471508Y-92455060D01*
X154424990Y-92540149D01*
X154397045Y-92636966D01*
X154387292Y-92680868D01*
X154355192Y-92754690D01*
X154304652Y-92809942D01*
X154263104Y-92842624D01*
X154214163Y-92784937D01*
X154203863Y-92772404D01*
X154149153Y-92692274D01*
X154100689Y-92599693D01*
X154061043Y-92501801D01*
X154032786Y-92405742D01*
X154018489Y-92318654D01*
X154020723Y-92247681D01*
X154022963Y-92237168D01*
X154036667Y-92203679D01*
X154061562Y-92181921D01*
X154102243Y-92170365D01*
X154163301Y-92167488D01*
X154249331Y-92171764D01*
X154258971Y-92172469D01*
X154321325Y-92176495D01*
X154361955Y-92176754D01*
X154388218Y-92172060D01*
X154407473Y-92161222D01*
X154427077Y-92143054D01*
X154442960Y-92124993D01*
X154464152Y-92077010D01*
X154455543Y-92027540D01*
X154417075Y-91975672D01*
X154388114Y-91949826D01*
X154358031Y-91933353D01*
X154317646Y-91923269D01*
X154257073Y-91915878D01*
X154170486Y-91904137D01*
X154017552Y-91865153D01*
X153883316Y-91805346D01*
X153769317Y-91725675D01*
X153677088Y-91627098D01*
X153608165Y-91510576D01*
X153557548Y-91385271D01*
X153503845Y-91213092D01*
X153466685Y-91041944D01*
X153456553Y-90979511D01*
X153435443Y-90839584D01*
X153421223Y-90725774D01*
X153413964Y-90635784D01*
X153413736Y-90567312D01*
X153420612Y-90518059D01*
X153434661Y-90485725D01*
X153455955Y-90468011D01*
X153484565Y-90462618D01*
X153487136Y-90462631D01*
X153531956Y-90469980D01*
X153565640Y-90494928D01*
X153596490Y-90543473D01*
X153600054Y-90550584D01*
X153610954Y-90576984D01*
X153619252Y-90608348D01*
X153625575Y-90649701D01*
X153630552Y-90706069D01*
X153634808Y-90782474D01*
X153638972Y-90883945D01*
X153645094Y-91007780D01*
X153654644Y-91116917D01*
X153668268Y-91205899D01*
X153687001Y-91279843D01*
X153711876Y-91343863D01*
X153743930Y-91403080D01*
X153783791Y-91457028D01*
X153838879Y-91508297D01*
X153908797Y-91552984D01*
X153996086Y-91592037D01*
X154103290Y-91626401D01*
X154232949Y-91657025D01*
X154387607Y-91684855D01*
X154569802Y-91710838D01*
X154628823Y-91718603D01*
X154705058Y-91729138D01*
X154767071Y-91738312D01*
X154809645Y-91745343D01*
X154827570Y-91749451D01*
X154841691Y-91752703D01*
X154880614Y-91758096D01*
X154937416Y-91764424D01*
X155005537Y-91770898D01*
X155112002Y-91777453D01*
X155263162Y-91773864D01*
X155395811Y-91751542D01*
X155514273Y-91708750D01*
X155622871Y-91643747D01*
X155725929Y-91554796D01*
X155827768Y-91440156D01*
X155858071Y-91402396D01*
X155898208Y-91352721D01*
X155934810Y-91308212D01*
X155970344Y-91266208D01*
X156007267Y-91224045D01*
X156048047Y-91179059D01*
X156095145Y-91128590D01*
X156151023Y-91069971D01*
X156218146Y-91000542D01*
X156298976Y-90917638D01*
X156395976Y-90818598D01*
X156511609Y-90700757D01*
X156520752Y-90691438D01*
X156615789Y-90594041D01*
X156707031Y-90499623D01*
X156791577Y-90411247D01*
X156866529Y-90331979D01*
X156928986Y-90264883D01*
X156976049Y-90213024D01*
X157004818Y-90179467D01*
X157053569Y-90115399D01*
X157148481Y-89968198D01*
X157227379Y-89809454D01*
X157291958Y-89634891D01*
X157343914Y-89440234D01*
X157384942Y-89221208D01*
X157395480Y-89159480D01*
X157412723Y-89073744D01*
X157431969Y-88990826D01*
X157451520Y-88917450D01*
X157469676Y-88860338D01*
X157484740Y-88826215D01*
X157495659Y-88810988D01*
X157520029Y-88793211D01*
X157543790Y-88800900D01*
X157567882Y-88835170D01*
X157593243Y-88897138D01*
X157620816Y-88987920D01*
X157631619Y-89025049D01*
X157663521Y-89110970D01*
X157697000Y-89167616D01*
X157731836Y-89194783D01*
X157767813Y-89192270D01*
X157804713Y-89159873D01*
X157839466Y-89100277D01*
X157859619Y-89012539D01*
X157853715Y-88911104D01*
X157816587Y-88773949D01*
X157755016Y-88637314D01*
X157673358Y-88508393D01*
X157575676Y-88392721D01*
X157466035Y-88295830D01*
X157348500Y-88223256D01*
X157317662Y-88209188D01*
X157224639Y-88178033D01*
X157136959Y-88164555D01*
X157059431Y-88168677D01*
X156996862Y-88190325D01*
X156954059Y-88229424D01*
X156942030Y-88249750D01*
X156938903Y-88273257D01*
X156954552Y-88302726D01*
X156956690Y-88305769D01*
X156990328Y-88334789D01*
X157035355Y-88354979D01*
X157076886Y-88369727D01*
X157143107Y-88414864D01*
X157190659Y-88482166D01*
X157219632Y-88571991D01*
X157230120Y-88684698D01*
X157222215Y-88820648D01*
X157196010Y-88980200D01*
X157172521Y-89079469D01*
X157110866Y-89272584D01*
X157032053Y-89455972D01*
X157019719Y-89480428D01*
X156934032Y-89626335D01*
X156834725Y-89755805D01*
X156719850Y-89869982D01*
X156587462Y-89970002D01*
X156435613Y-90057007D01*
X156262359Y-90132135D01*
X156065751Y-90196527D01*
X155843844Y-90251323D01*
X155594693Y-90297661D01*
X155544147Y-90305350D01*
X155375752Y-90322868D01*
X155231711Y-90323732D01*
X155111323Y-90307727D01*
X155013887Y-90274638D01*
X154938703Y-90224252D01*
X154885072Y-90156357D01*
X154852294Y-90070736D01*
X154849392Y-90053871D01*
X154856575Y-90031956D01*
X154886615Y-90016063D01*
X154886747Y-90016013D01*
X154914960Y-90000587D01*
X154930798Y-89975203D01*
X154940555Y-89929791D01*
X154962834Y-89851681D01*
X155007084Y-89783320D01*
X155069272Y-89736567D01*
X155075595Y-89733726D01*
X155125591Y-89719131D01*
X155198235Y-89706390D01*
X155287260Y-89696652D01*
X155341132Y-89691905D01*
X155414915Y-89683208D01*
X155469550Y-89672066D01*
X155511975Y-89656296D01*
X155549125Y-89633723D01*
X155587939Y-89602163D01*
X155597808Y-89593131D01*
X155660093Y-89513922D01*
X155707485Y-89410402D01*
X155739480Y-89284467D01*
X155755575Y-89138010D01*
X155755266Y-88972926D01*
X155755058Y-88968876D01*
X155733939Y-88786528D01*
X155690730Y-88624612D01*
X155625341Y-88483028D01*
X155537681Y-88361674D01*
X155427661Y-88260446D01*
X155295192Y-88179247D01*
X155140182Y-88117972D01*
X154962543Y-88076519D01*
X154838064Y-88060733D01*
X154667623Y-88057857D01*
X154492727Y-88078090D01*
X154389582Y-88098931D01*
X154222919Y-88147683D01*
X154081227Y-88211380D01*
X153963278Y-88290927D01*
X153867844Y-88387231D01*
X153793696Y-88501198D01*
X153739605Y-88633735D01*
X153739219Y-88634969D01*
X153725269Y-88684749D01*
X153715910Y-88733390D01*
X153710350Y-88788692D01*
X153707797Y-88858454D01*
X153707459Y-88950479D01*
X153710762Y-89067049D01*
X153722436Y-89183162D01*
X153743817Y-89280992D01*
X153776268Y-89366473D01*
X153821153Y-89445538D01*
X153850956Y-89484894D01*
X153934082Y-89560672D01*
X154039477Y-89621742D01*
X154163482Y-89666229D01*
X154302441Y-89692257D01*
X154396426Y-89702725D01*
X154452664Y-89817071D01*
X154495561Y-89893353D01*
X154543843Y-89956739D01*
X154591156Y-89997061D01*
X154634579Y-90011196D01*
X154638795Y-90011256D01*
X154655538Y-90015922D01*
X154660213Y-90033799D01*
X154655564Y-90072965D01*
X154635795Y-90148490D01*
X154602812Y-90206410D01*
X154559304Y-90238948D01*
X154542377Y-90243773D01*
X154482758Y-90247760D01*
X154404836Y-90240910D01*
X154314980Y-90224741D01*
X154219569Y-90200770D01*
X154124974Y-90170514D01*
X154037569Y-90135491D01*
X153963730Y-90097215D01*
X153915467Y-90066703D01*
X153757034Y-89948828D01*
X153609164Y-89811996D01*
X153475699Y-89660881D01*
X153360481Y-89500152D01*
X153267352Y-89334481D01*
X153200151Y-89168542D01*
X153180398Y-89084593D01*
X153168690Y-88980625D01*
X153166844Y-88872502D01*
X153175013Y-88771033D01*
X153193349Y-88687026D01*
X153197366Y-88675094D01*
X153224082Y-88607310D01*
X153260462Y-88531704D01*
X153307883Y-88446097D01*
X153367724Y-88348307D01*
X153441361Y-88236153D01*
X153530172Y-88107456D01*
X153635534Y-87960033D01*
X153758825Y-87791706D01*
X153873144Y-87636206D01*
X153974524Y-87496075D01*
X154060357Y-87374430D01*
X154063111Y-87370379D01*
X157370126Y-87370379D01*
X157377650Y-87377901D01*
X157385173Y-87370379D01*
X157377649Y-87362855D01*
X157370126Y-87370379D01*
X154063111Y-87370379D01*
X154132249Y-87268686D01*
X154169049Y-87211577D01*
X154857211Y-87211577D01*
X154862645Y-87214233D01*
X154892745Y-87217940D01*
X154944755Y-87220661D01*
X155013600Y-87222166D01*
X155094208Y-87222228D01*
X155331204Y-87220173D01*
X155511773Y-87291480D01*
X155519690Y-87294596D01*
X155589636Y-87321196D01*
X155650725Y-87342874D01*
X155696626Y-87357467D01*
X155721007Y-87362821D01*
X155738818Y-87361682D01*
X155740009Y-87354497D01*
X157422792Y-87354497D01*
X157530349Y-87364527D01*
X157575041Y-87370379D01*
X157617449Y-87375934D01*
X157742224Y-87406389D01*
X157859906Y-87454687D01*
X157975154Y-87523314D01*
X158092622Y-87614760D01*
X158216969Y-87731516D01*
X158221487Y-87736111D01*
X158303651Y-87835547D01*
X158374583Y-87950371D01*
X158425964Y-88067217D01*
X158427380Y-88071379D01*
X158441594Y-88118173D01*
X158451165Y-88164195D01*
X158456966Y-88217156D01*
X158459870Y-88284767D01*
X158460749Y-88374739D01*
X158460836Y-88398812D01*
X158461757Y-88470614D01*
X158463492Y-88528607D01*
X158465836Y-88567364D01*
X158468586Y-88581455D01*
X158476978Y-88576131D01*
X158496777Y-88549677D01*
X158520731Y-88507945D01*
X158544530Y-88458705D01*
X158563858Y-88409730D01*
X158569941Y-88389061D01*
X158583468Y-88309905D01*
X158589250Y-88214861D01*
X158587352Y-88113867D01*
X158577838Y-88016863D01*
X158560772Y-87933784D01*
X158554525Y-87912751D01*
X158491690Y-87756559D01*
X158405410Y-87619166D01*
X158296058Y-87500985D01*
X158164010Y-87402433D01*
X158009640Y-87323922D01*
X157981289Y-87312531D01*
X157931854Y-87295749D01*
X157884637Y-87286072D01*
X157828882Y-87281685D01*
X157753834Y-87280775D01*
X157749248Y-87280790D01*
X157671804Y-87282570D01*
X157613517Y-87288277D01*
X157564053Y-87299499D01*
X157513077Y-87317827D01*
X157426497Y-87352992D01*
X157422792Y-87354497D01*
X155740009Y-87354497D01*
X155740258Y-87352992D01*
X155722100Y-87328998D01*
X155671674Y-87273956D01*
X155601966Y-87210407D01*
X155528978Y-87154024D01*
X155463110Y-87113458D01*
X155445823Y-87105073D01*
X155350049Y-87072962D01*
X155251759Y-87066253D01*
X155143112Y-87084224D01*
X155136500Y-87085975D01*
X155078325Y-87104046D01*
X155016110Y-87127135D01*
X154956371Y-87152336D01*
X154905628Y-87176747D01*
X154870402Y-87197462D01*
X154857211Y-87211577D01*
X154169049Y-87211577D01*
X154191808Y-87176257D01*
X154240642Y-87094555D01*
X154280358Y-87020997D01*
X154312564Y-86952997D01*
X154338868Y-86887968D01*
X154350182Y-86854737D01*
X156286713Y-86854737D01*
X156289498Y-86873501D01*
X156309376Y-86892349D01*
X156346843Y-86889558D01*
X156400082Y-86865473D01*
X156467282Y-86820438D01*
X156485802Y-86806749D01*
X156533446Y-86772824D01*
X156589615Y-86733996D01*
X156648776Y-86693954D01*
X156705396Y-86656387D01*
X156753942Y-86624986D01*
X156788883Y-86603440D01*
X156804684Y-86595438D01*
X156805886Y-86595852D01*
X156808959Y-86612696D01*
X156805144Y-86646566D01*
X156803467Y-86658143D01*
X156803982Y-86717876D01*
X156814817Y-86785663D01*
X156833327Y-86848819D01*
X156856868Y-86894658D01*
X156865260Y-86905920D01*
X156873426Y-86922867D01*
X156868956Y-86939935D01*
X156848836Y-86964040D01*
X156810053Y-87002104D01*
X156788468Y-87023428D01*
X156756693Y-87059872D01*
X156742256Y-87088524D01*
X156740738Y-87116685D01*
X156746477Y-87142739D01*
X156763535Y-87158085D01*
X156800961Y-87164318D01*
X156802621Y-87164443D01*
X156846281Y-87163281D01*
X156906088Y-87156507D01*
X156969610Y-87145509D01*
X157053307Y-87130721D01*
X157148090Y-87123163D01*
X157224559Y-87130287D01*
X157287365Y-87152191D01*
X157331466Y-87169651D01*
X157388730Y-87180710D01*
X157439005Y-87179116D01*
X157472448Y-87164229D01*
X157484082Y-87143130D01*
X157490505Y-87106172D01*
X157490430Y-87102686D01*
X157482617Y-87075126D01*
X157458286Y-87046794D01*
X157412225Y-87011374D01*
X157375533Y-86984237D01*
X157352593Y-86964221D01*
X157349644Y-86956575D01*
X157361102Y-86948323D01*
X157382992Y-86919684D01*
X157408314Y-86877624D01*
X157432587Y-86821976D01*
X157452330Y-86724775D01*
X157447727Y-86626513D01*
X157418508Y-86536184D01*
X157407015Y-86512741D01*
X157391326Y-86478854D01*
X157385173Y-86462603D01*
X157385815Y-86460556D01*
X157404280Y-86456437D01*
X157443538Y-86460288D01*
X157497237Y-86470715D01*
X157559026Y-86486326D01*
X157622553Y-86505730D01*
X157681467Y-86527533D01*
X157778199Y-86565342D01*
X157864581Y-86592836D01*
X157927876Y-86603977D01*
X157969368Y-86598560D01*
X157990343Y-86576384D01*
X157992085Y-86537246D01*
X157975879Y-86480941D01*
X157963825Y-86439441D01*
X157951540Y-86378410D01*
X157942760Y-86314279D01*
X157928332Y-86224953D01*
X157897063Y-86137317D01*
X157849391Y-86071361D01*
X157783746Y-86024227D01*
X157778341Y-86021465D01*
X157743561Y-86005525D01*
X157709690Y-85995228D01*
X157668980Y-85989392D01*
X157613684Y-85986830D01*
X157536055Y-85986358D01*
X157529012Y-85986389D01*
X157362718Y-85997969D01*
X157206502Y-86031392D01*
X157057098Y-86088175D01*
X156911242Y-86169838D01*
X156765666Y-86277901D01*
X156617106Y-86413883D01*
X156567014Y-86464564D01*
X156468965Y-86569763D01*
X156390839Y-86662810D01*
X156333706Y-86742275D01*
X156298640Y-86806728D01*
X156286713Y-86854737D01*
X154350182Y-86854737D01*
X154360877Y-86823326D01*
X154387049Y-86692179D01*
X154386649Y-86553607D01*
X154359981Y-86415084D01*
X154308058Y-86281830D01*
X154231893Y-86159063D01*
X154156352Y-86075300D01*
X154041768Y-85982700D01*
X153902850Y-85899149D01*
X153742389Y-85826290D01*
X153563183Y-85765768D01*
X153553921Y-85763201D01*
X153471889Y-85746680D01*
X153385605Y-85738469D01*
X153303353Y-85738605D01*
X153233417Y-85747127D01*
X153184078Y-85764069D01*
X153180818Y-85765999D01*
X153145016Y-85792523D01*
X153118679Y-85826013D01*
X153100488Y-85871067D01*
X153089127Y-85932282D01*
X153083276Y-86014257D01*
X153081619Y-86121593D01*
X153082622Y-86212097D01*
X153086925Y-86295449D01*
X153095426Y-86355601D01*
X153108989Y-86396239D01*
X153128477Y-86421052D01*
X153154755Y-86433727D01*
X153187618Y-86438355D01*
X153234348Y-86428363D01*
X153283305Y-86395994D01*
X153339474Y-86338683D01*
X153380699Y-86294676D01*
X153432226Y-86252849D01*
X153484515Y-86227694D01*
X153492179Y-86225218D01*
X153544924Y-86213181D01*
X153602838Y-86206258D01*
X153657276Y-86204757D01*
X153699590Y-86208986D01*
X153721133Y-86219253D01*
X153723519Y-86225051D01*
X153715021Y-86234300D01*
X153707826Y-86236512D01*
X153681063Y-86253253D01*
X153646375Y-86281040D01*
X153607993Y-86326668D01*
X153573359Y-86396939D01*
X153554231Y-86473466D01*
X153554858Y-86544041D01*
X153564499Y-86595438D01*
X153480734Y-86595438D01*
X153448771Y-86595872D01*
X153413003Y-86600038D01*
X153392962Y-86611447D01*
X153379631Y-86633491D01*
X153372964Y-86650628D01*
X153372830Y-86678871D01*
X153392425Y-86711904D01*
X153396336Y-86716719D01*
X153434597Y-86749392D01*
X153493194Y-86786288D01*
X153564799Y-86823810D01*
X153642083Y-86858364D01*
X153717719Y-86886355D01*
X153784379Y-86904189D01*
X153826235Y-86905651D01*
X153879613Y-86891195D01*
X153922956Y-86862745D01*
X153946392Y-86825117D01*
X153955128Y-86804101D01*
X153980608Y-86763043D01*
X154014648Y-86719666D01*
X154044075Y-86680678D01*
X154081614Y-86603151D01*
X154098065Y-86522764D01*
X154090922Y-86448435D01*
X154089118Y-86441896D01*
X154084633Y-86414035D01*
X154090204Y-86407599D01*
X154092716Y-86409541D01*
X154107965Y-86436626D01*
X154121465Y-86483339D01*
X154131124Y-86540685D01*
X154134852Y-86599675D01*
X154127253Y-86674733D01*
X154094820Y-86785115D01*
X154037162Y-86909989D01*
X153954574Y-87048739D01*
X153847349Y-87200749D01*
X153842098Y-87207630D01*
X153789110Y-87271701D01*
X153716847Y-87352128D01*
X153704915Y-87364758D01*
X153628304Y-87445847D01*
X153526475Y-87549796D01*
X153414354Y-87660912D01*
X153294936Y-87776131D01*
X153171216Y-87892391D01*
X153160883Y-87902020D01*
X153097833Y-87962772D01*
X153038497Y-88023008D01*
X152989132Y-88076229D01*
X152955993Y-88115940D01*
X152918272Y-88170186D01*
X152852417Y-88281259D01*
X152808169Y-88371030D01*
X152794265Y-88399239D01*
X152750957Y-88510397D01*
X152714492Y-88610611D01*
X152660613Y-88721383D01*
X152593771Y-88819492D01*
X152508764Y-88912310D01*
X152400388Y-89007211D01*
X152357188Y-89046989D01*
X152289873Y-89134781D01*
X152234392Y-89245669D01*
X152189907Y-89381493D01*
X152155578Y-89544094D01*
X152144677Y-89626712D01*
X152137142Y-89755004D01*
X152139390Y-89883279D01*
X152151140Y-90001962D01*
X152172105Y-90101481D01*
X152178165Y-90120890D01*
X152228096Y-90238159D01*
X152303037Y-90364880D01*
X152401205Y-90497968D01*
X152403152Y-90500386D01*
X152447902Y-90558414D01*
X152492820Y-90620698D01*
X152534201Y-90681616D01*
X152568344Y-90735547D01*
X152591545Y-90776867D01*
X152600102Y-90799954D01*
X152593705Y-90808226D01*
X152566223Y-90808990D01*
X152522538Y-90799072D01*
X152468637Y-90780600D01*
X152410505Y-90755707D01*
X152354125Y-90726517D01*
X152305481Y-90695160D01*
X152278513Y-90674956D01*
X152148365Y-90572658D01*
X152017362Y-90462693D01*
X151899015Y-90356324D01*
X151850660Y-90312926D01*
X151774549Y-90255279D01*
X151708359Y-90221436D01*
X151648828Y-90209942D01*
X151592696Y-90219337D01*
X151563839Y-90227926D01*
X151549655Y-90223952D01*
X151546963Y-90202268D01*
X151548743Y-90183202D01*
X151556883Y-90138502D01*
X151569356Y-90086433D01*
X151578176Y-90051624D01*
X151587896Y-90006823D01*
X151591747Y-89979360D01*
X151591319Y-89968803D01*
X151586497Y-89962693D01*
X151572254Y-89961318D01*
X151543561Y-89964941D01*
X151495392Y-89973826D01*
X151422717Y-89988236D01*
X151366364Y-89999470D01*
X151387332Y-89948906D01*
X151392895Y-89932544D01*
X151404021Y-89889147D01*
X151416250Y-89832102D01*
X151428322Y-89768583D01*
X151438977Y-89705762D01*
X151446953Y-89650814D01*
X151450991Y-89610913D01*
X151449830Y-89593231D01*
X151446180Y-89593615D01*
X151422808Y-89605245D01*
X151383290Y-89628922D01*
X151333583Y-89661161D01*
X151312512Y-89675243D01*
X151263742Y-89707641D01*
X151226425Y-89732151D01*
X151207322Y-89744323D01*
X151200202Y-89741675D01*
X151198009Y-89714857D01*
X151203025Y-89660461D01*
X151203639Y-89655378D01*
X151208878Y-89601390D01*
X151214565Y-89527564D01*
X151220052Y-89442960D01*
X151224696Y-89356634D01*
X151227804Y-89280065D01*
X151228815Y-89201881D01*
X151226073Y-89138008D01*
X151219131Y-89079666D01*
X151207546Y-89018067D01*
X151195434Y-88948445D01*
X151183791Y-88826515D01*
X151179587Y-88679502D01*
X151179534Y-88651729D01*
X151180601Y-88564912D01*
X151184632Y-88493887D01*
X151192913Y-88427457D01*
X151205071Y-88363204D01*
X152407701Y-88363204D01*
X152409502Y-88381062D01*
X152414028Y-88383416D01*
X152419533Y-88371030D01*
X152418447Y-88363064D01*
X152409502Y-88360999D01*
X152407701Y-88363204D01*
X151205071Y-88363204D01*
X151206731Y-88354430D01*
X151227368Y-88263614D01*
X151242300Y-88200373D01*
X151260467Y-88120169D01*
X151267410Y-88082597D01*
X152329816Y-88082597D01*
X152350089Y-88214718D01*
X152367597Y-88275235D01*
X152383283Y-88315612D01*
X152394617Y-88326223D01*
X152401603Y-88307076D01*
X152404251Y-88258175D01*
X152410441Y-88163367D01*
X152443529Y-88007422D01*
X152503505Y-87854647D01*
X152588522Y-87709349D01*
X152696737Y-87575834D01*
X152783450Y-87496961D01*
X152893051Y-87430324D01*
X153013162Y-87391090D01*
X153146457Y-87378081D01*
X153159291Y-87377958D01*
X153205569Y-87374262D01*
X153222624Y-87364758D01*
X153210876Y-87348523D01*
X153170743Y-87324636D01*
X153162444Y-87320489D01*
X153065785Y-87289722D01*
X152960152Y-87283924D01*
X152850585Y-87301801D01*
X152742121Y-87342055D01*
X152639799Y-87403395D01*
X152548657Y-87484524D01*
X152494930Y-87549439D01*
X152419796Y-87672122D01*
X152366207Y-87805645D01*
X152335702Y-87944355D01*
X152329816Y-88082597D01*
X151267410Y-88082597D01*
X151271129Y-88062475D01*
X151273860Y-88023098D01*
X151268234Y-87997848D01*
X151253821Y-87982532D01*
X151230197Y-87972959D01*
X151196934Y-87964938D01*
X151166729Y-87958038D01*
X151121885Y-87947524D01*
X151094183Y-87940671D01*
X151091331Y-87939171D01*
X151088581Y-87928160D01*
X151093953Y-87904735D01*
X151108603Y-87866037D01*
X151133684Y-87809212D01*
X151170350Y-87731403D01*
X151219753Y-87629752D01*
X151232974Y-87602901D01*
X151281165Y-87506684D01*
X151328734Y-87414031D01*
X151372585Y-87330836D01*
X151409624Y-87262995D01*
X151436756Y-87216400D01*
X151454421Y-87187101D01*
X151494026Y-87108487D01*
X151512219Y-87043207D01*
X151509890Y-86986321D01*
X151487932Y-86932890D01*
X151482558Y-86923770D01*
X151470132Y-86899943D01*
X151465803Y-86878922D01*
X151471593Y-86855352D01*
X151489524Y-86823882D01*
X151521616Y-86779154D01*
X151569891Y-86715817D01*
X151609147Y-86660484D01*
X151654612Y-86574280D01*
X151676394Y-86490895D01*
X151676671Y-86403974D01*
X151675009Y-86388479D01*
X151665305Y-86296277D01*
X151658857Y-86227669D01*
X151655622Y-86177128D01*
X151655559Y-86139129D01*
X151658628Y-86108146D01*
X151664787Y-86078652D01*
X151673994Y-86045121D01*
X151684939Y-86010558D01*
X151736429Y-85890242D01*
X151808890Y-85762136D01*
X151898135Y-85631277D01*
X151999982Y-85502700D01*
X152110240Y-85381444D01*
X152224725Y-85272543D01*
X152339249Y-85181035D01*
X152449628Y-85111956D01*
X152498309Y-85088320D01*
X152584823Y-85056971D01*
X152674940Y-85039419D01*
X152773308Y-85035629D01*
X152884573Y-85045568D01*
X153013381Y-85069197D01*
X153164379Y-85106481D01*
X153238185Y-85128047D01*
X153436276Y-85201358D01*
X153628885Y-85293922D01*
X153804321Y-85400368D01*
X153825391Y-85414827D01*
X153890988Y-85460647D01*
X153942544Y-85498881D01*
X153988826Y-85536579D01*
X154038602Y-85580787D01*
X154100639Y-85638552D01*
X154116899Y-85653577D01*
X154158140Y-85688494D01*
X154185325Y-85706216D01*
X154195126Y-85704424D01*
X154195112Y-85703465D01*
X154189185Y-85670438D01*
X154174567Y-85618966D01*
X154154320Y-85557831D01*
X154131507Y-85495813D01*
X154109191Y-85441694D01*
X154090434Y-85404256D01*
X154072884Y-85373853D01*
X154061785Y-85345105D01*
X154069757Y-85334207D01*
X154097160Y-85337596D01*
X154123243Y-85343152D01*
X154182433Y-85353558D01*
X154264552Y-85366580D01*
X154365552Y-85381684D01*
X154481383Y-85398332D01*
X154607995Y-85415988D01*
X154741337Y-85434118D01*
X154877362Y-85452183D01*
X155012019Y-85469649D01*
X155141257Y-85485979D01*
X155261028Y-85500637D01*
X155367280Y-85513087D01*
X155455967Y-85522793D01*
X155523036Y-85529219D01*
X155564439Y-85531829D01*
X155605572Y-85530972D01*
X155670361Y-85527624D01*
X155752391Y-85522204D01*
X155845300Y-85515133D01*
X155942724Y-85506830D01*
X155944219Y-85506696D01*
X156040847Y-85498595D01*
X156132152Y-85491993D01*
X156211978Y-85487258D01*
X156274168Y-85484754D01*
X156312566Y-85484849D01*
X156386885Y-85489454D01*
X156351983Y-85700118D01*
X156347463Y-85727725D01*
X156335980Y-85801217D01*
X156327254Y-85862158D01*
X156322069Y-85904847D01*
X156321211Y-85923580D01*
X156324110Y-85923370D01*
X156343301Y-85908102D01*
X156377251Y-85875615D01*
X156422351Y-85829439D01*
X156430707Y-85820497D01*
X158611536Y-85820497D01*
X158814676Y-85829150D01*
X158827468Y-85829717D01*
X158936805Y-85837239D01*
X159024954Y-85849853D01*
X159099867Y-85869596D01*
X159169496Y-85898508D01*
X159241795Y-85938626D01*
X159300253Y-85974183D01*
X159174081Y-85993490D01*
X159151355Y-85997334D01*
X159080937Y-86012459D01*
X159003713Y-86032625D01*
X158926932Y-86055578D01*
X158857844Y-86079064D01*
X158803699Y-86100827D01*
X158771747Y-86118613D01*
X158767241Y-86124148D01*
X158774168Y-86133489D01*
X158803951Y-86142821D01*
X158860143Y-86153548D01*
X158990520Y-86181705D01*
X159141832Y-86232432D01*
X159273207Y-86298296D01*
X159380771Y-86377629D01*
X159454190Y-86444159D01*
X159363905Y-86435364D01*
X159286361Y-86433721D01*
X159180576Y-86453127D01*
X159088566Y-86497762D01*
X159036887Y-86532879D01*
X159069152Y-86537246D01*
X159110113Y-86542790D01*
X159138222Y-86547022D01*
X159252775Y-86574271D01*
X159364950Y-86618738D01*
X159480825Y-86683211D01*
X159606475Y-86770479D01*
X159619443Y-86780425D01*
X159684576Y-86834578D01*
X159753527Y-86897220D01*
X159813377Y-86956722D01*
X159913136Y-87062471D01*
X159912874Y-87005761D01*
X159909742Y-86949864D01*
X159886604Y-86827055D01*
X159843754Y-86700242D01*
X159784518Y-86578314D01*
X159712228Y-86470159D01*
X159707630Y-86464333D01*
X159677693Y-86424583D01*
X159663971Y-86398775D01*
X159663722Y-86378682D01*
X159674203Y-86356077D01*
X159712850Y-86311002D01*
X159768108Y-86288281D01*
X159841834Y-86288134D01*
X159913482Y-86297362D01*
X159897321Y-86254853D01*
X159858425Y-86167108D01*
X159786789Y-86046579D01*
X159700876Y-85937418D01*
X159605797Y-85845862D01*
X159506661Y-85778147D01*
X159492429Y-85770675D01*
X159358407Y-85719040D01*
X159212269Y-85694111D01*
X159055585Y-85695887D01*
X158889927Y-85724364D01*
X158716869Y-85779541D01*
X158611536Y-85820497D01*
X156430707Y-85820497D01*
X156474992Y-85773106D01*
X156524176Y-85719378D01*
X156584773Y-85653489D01*
X156630944Y-85604876D01*
X156666442Y-85570737D01*
X156695020Y-85548270D01*
X156720432Y-85534672D01*
X156746429Y-85527140D01*
X156776766Y-85522873D01*
X156815195Y-85519067D01*
X156824549Y-85518192D01*
X156879801Y-85514614D01*
X156957141Y-85511240D01*
X157050127Y-85508287D01*
X157152318Y-85505964D01*
X157257270Y-85504486D01*
X157378892Y-85502258D01*
X157569576Y-85493018D01*
X157742397Y-85475820D01*
X157904733Y-85449353D01*
X158063958Y-85412312D01*
X158227450Y-85363384D01*
X158402579Y-85301264D01*
X158511546Y-85262811D01*
X158637893Y-85225766D01*
X158745341Y-85203422D01*
X158752856Y-85202273D01*
X158925259Y-85163475D01*
X159083530Y-85101576D01*
X159235875Y-85013399D01*
X159255965Y-84999662D01*
X159326743Y-84945738D01*
X159382790Y-84890495D01*
X159429462Y-84826929D01*
X159472114Y-84748033D01*
X159516101Y-84646800D01*
X159530800Y-84610759D01*
X159552684Y-84558220D01*
X159568852Y-84520847D01*
X159576579Y-84505031D01*
X159576822Y-84504854D01*
X159590135Y-84513053D01*
X159617615Y-84538164D01*
X159653642Y-84575080D01*
X159695177Y-84619321D01*
X159758696Y-84686299D01*
X159820088Y-84750320D01*
X159875662Y-84807586D01*
X159921722Y-84854299D01*
X159954575Y-84886662D01*
X159970528Y-84900877D01*
X159971085Y-84901088D01*
X159971182Y-84888343D01*
X159963147Y-84852697D01*
X159948270Y-84799232D01*
X159927845Y-84733029D01*
X159871142Y-84556516D01*
X159910948Y-84546058D01*
X159940287Y-84538427D01*
X159991753Y-84525116D01*
X160057863Y-84508061D01*
X160131322Y-84489145D01*
X160196355Y-84471932D01*
X160327721Y-84433125D01*
X160435145Y-84394609D01*
X160522849Y-84354772D01*
X160595054Y-84312000D01*
X160603223Y-84306505D01*
X160707386Y-84245628D01*
X160825390Y-84193531D01*
X160962617Y-84148131D01*
X161124450Y-84107347D01*
X161202081Y-84090165D01*
X161297175Y-84069640D01*
X161372258Y-84054396D01*
X161432888Y-84043459D01*
X161484624Y-84035853D01*
X161533025Y-84030601D01*
X161583647Y-84026727D01*
X161656462Y-84024640D01*
X161732096Y-84027624D01*
X161791657Y-84035460D01*
X161879242Y-84060508D01*
X162002321Y-84120151D01*
X162109809Y-84203465D01*
X162199946Y-84308256D01*
X162270972Y-84432331D01*
X162321127Y-84573498D01*
X162348650Y-84729561D01*
X162350853Y-84756761D01*
X162353333Y-84871428D01*
X162347090Y-84993593D01*
X162333056Y-85110921D01*
X162312166Y-85211078D01*
X162307112Y-85229036D01*
X162248149Y-85398610D01*
X162170368Y-85568699D01*
X162078899Y-85729165D01*
X161978870Y-85869871D01*
X161931068Y-85926166D01*
X161870174Y-85991415D01*
X161806770Y-86053834D01*
X161744633Y-86110170D01*
X161687544Y-86157170D01*
X161639277Y-86191580D01*
X161603611Y-86210149D01*
X161584323Y-86209622D01*
X161578296Y-86201052D01*
X161558149Y-86169746D01*
X161527232Y-86120395D01*
X161488427Y-86057614D01*
X161444620Y-85986018D01*
X161434847Y-85969979D01*
X161376497Y-85874460D01*
X161312386Y-85769840D01*
X161249637Y-85667729D01*
X161195372Y-85579739D01*
X161074417Y-85384123D01*
X161122005Y-85371216D01*
X161132849Y-85368569D01*
X161217096Y-85362452D01*
X161316329Y-85375793D01*
X161425020Y-85407057D01*
X161537629Y-85454710D01*
X161648625Y-85517217D01*
X161653156Y-85520110D01*
X161694268Y-85545280D01*
X161721737Y-85560142D01*
X161729822Y-85561560D01*
X161721325Y-85544409D01*
X161703751Y-85507505D01*
X161681315Y-85459641D01*
X161667261Y-85432389D01*
X161614220Y-85353632D01*
X161545214Y-85275441D01*
X161451017Y-85181244D01*
X161527461Y-85158541D01*
X161554960Y-85151039D01*
X161605597Y-85140218D01*
X161642555Y-85136063D01*
X161662621Y-85137055D01*
X161733916Y-85148743D01*
X161818533Y-85171350D01*
X161906901Y-85202060D01*
X161989446Y-85238060D01*
X162007310Y-85246861D01*
X162058300Y-85271865D01*
X162096763Y-85290553D01*
X162115477Y-85299408D01*
X162119843Y-85294422D01*
X162121315Y-85267424D01*
X162117420Y-85224171D01*
X162114290Y-85205311D01*
X162086199Y-85112494D01*
X162038011Y-85010257D01*
X161973707Y-84904634D01*
X161897268Y-84801658D01*
X161812676Y-84707361D01*
X161723912Y-84627778D01*
X161633450Y-84568992D01*
X161546705Y-84538685D01*
X161463802Y-84537834D01*
X161383617Y-84566429D01*
X161305019Y-84624462D01*
X161255051Y-84668293D01*
X161137374Y-84756581D01*
X161004533Y-84840095D01*
X160862528Y-84916009D01*
X160717356Y-84981498D01*
X160575014Y-85033737D01*
X160441500Y-85069899D01*
X160322813Y-85087160D01*
X160198307Y-85094986D01*
X160284206Y-85138314D01*
X160292818Y-85142687D01*
X160367380Y-85184152D01*
X160432433Y-85228928D01*
X160497117Y-85283971D01*
X160570577Y-85356238D01*
X160576185Y-85362056D01*
X160668628Y-85470879D01*
X160761863Y-85603483D01*
X160852486Y-85754224D01*
X160937089Y-85917461D01*
X161012265Y-86087553D01*
X161021238Y-86109500D01*
X161035633Y-86141124D01*
X161051957Y-86168275D01*
X161073934Y-86194659D01*
X161105294Y-86223985D01*
X161149764Y-86259957D01*
X161211069Y-86306280D01*
X161292939Y-86366666D01*
X161476475Y-86501574D01*
X161315510Y-86658459D01*
X161289265Y-86683949D01*
X161233841Y-86737163D01*
X161186994Y-86781317D01*
X161153014Y-86812394D01*
X161136190Y-86826377D01*
X161135609Y-86826669D01*
X161137303Y-86817259D01*
X161152760Y-86787386D01*
X161179546Y-86741437D01*
X161215231Y-86683799D01*
X161236662Y-86650374D01*
X161269833Y-86597997D01*
X161289421Y-86559311D01*
X161293871Y-86528779D01*
X161281628Y-86500869D01*
X161251139Y-86470046D01*
X161200849Y-86430777D01*
X161129203Y-86377527D01*
X160989024Y-86272472D01*
X160872875Y-86038961D01*
X160840153Y-85974285D01*
X160752503Y-85811977D01*
X160667406Y-85670152D01*
X160586639Y-85551661D01*
X160511980Y-85459360D01*
X160508964Y-85456070D01*
X160429230Y-85385391D01*
X160322986Y-85315559D01*
X160193641Y-85248356D01*
X160044602Y-85185560D01*
X159879279Y-85128950D01*
X159756446Y-85091228D01*
X159815982Y-85138616D01*
X159857124Y-85173330D01*
X159924062Y-85235636D01*
X159993833Y-85305995D01*
X160059956Y-85377566D01*
X160115953Y-85443507D01*
X160155347Y-85496978D01*
X160200000Y-85572456D01*
X160272675Y-85736294D01*
X160320843Y-85914732D01*
X160345249Y-86110159D01*
X160353931Y-86249348D01*
X160472100Y-86249348D01*
X160487195Y-86249389D01*
X160539666Y-86250251D01*
X160576419Y-86252004D01*
X160590268Y-86254344D01*
X160585537Y-86269542D01*
X160576030Y-86297362D01*
X160572609Y-86307373D01*
G37*
D15*
%TO.C,JP6*%
X158757566Y-118600001D02*
X158757566Y-120000001D01*
X159457565Y-120700001D02*
X160057567Y-120700001D01*
X160057567Y-117900001D02*
X159457565Y-117900001D01*
X160757566Y-120000001D02*
X160757566Y-118600001D01*
X158757566Y-118600001D02*
G75*
G02*
X159457565Y-117900001I699999J1D01*
G01*
X159457565Y-120700001D02*
G75*
G02*
X158757566Y-120000001I1J700000D01*
G01*
X160057567Y-117900001D02*
G75*
G02*
X160757566Y-118600001I0J-699999D01*
G01*
X160757566Y-120000001D02*
G75*
G02*
X160057567Y-120700001I-700000J0D01*
G01*
%TO.C,C2*%
X151568819Y-71615000D02*
X151046313Y-71615000D01*
X151568819Y-73085000D02*
X151046313Y-73085000D01*
%TO.C,JP5*%
X156407566Y-118600001D02*
X156407566Y-120000001D01*
X157107565Y-120700001D02*
X157707567Y-120700001D01*
X157707567Y-117900001D02*
X157107565Y-117900001D01*
X158407566Y-120000001D02*
X158407566Y-118600001D01*
X156407566Y-118600001D02*
G75*
G02*
X157107565Y-117900001I699999J1D01*
G01*
X157107565Y-120700001D02*
G75*
G02*
X156407566Y-120000001I1J700000D01*
G01*
X157707567Y-117900001D02*
G75*
G02*
X158407566Y-118600001I0J-699999D01*
G01*
X158407566Y-120000001D02*
G75*
G02*
X157707567Y-120700001I-700000J0D01*
G01*
%TO.C,C8*%
X186718819Y-120815000D02*
X186196313Y-120815000D01*
X186718819Y-122285000D02*
X186196313Y-122285000D01*
%TO.C,C4*%
X187968819Y-71615000D02*
X187446313Y-71615000D01*
X187968819Y-73085000D02*
X187446313Y-73085000D01*
%TO.C,C9*%
X153346314Y-107865000D02*
X153868818Y-107865000D01*
X153346314Y-109335000D02*
X153868818Y-109335000D01*
%TO.C,C3*%
X169768819Y-71615000D02*
X169246313Y-71615000D01*
X169768819Y-73085000D02*
X169246313Y-73085000D01*
%TO.C,R1*%
X142622566Y-126289564D02*
X142622566Y-125835436D01*
X144092566Y-126289564D02*
X144092566Y-125835436D01*
%TO.C,C1*%
X133368819Y-71615000D02*
X132846313Y-71615000D01*
X133368819Y-73085000D02*
X132846313Y-73085000D01*
%TO.C,JP4*%
X154057566Y-118600001D02*
X154057566Y-120000001D01*
X154757565Y-120700001D02*
X155357567Y-120700001D01*
X155357567Y-117900001D02*
X154757565Y-117900001D01*
X156057566Y-120000001D02*
X156057566Y-118600001D01*
X154057566Y-118600001D02*
G75*
G02*
X154757565Y-117900001I699999J1D01*
G01*
X154757565Y-120700001D02*
G75*
G02*
X154057566Y-120000001I1J700000D01*
G01*
X155357567Y-117900001D02*
G75*
G02*
X156057566Y-118600001I0J-699999D01*
G01*
X156057566Y-120000001D02*
G75*
G02*
X155357567Y-120700001I-700000J0D01*
G01*
%TO.C,C6*%
X159218819Y-107865000D02*
X158696313Y-107865000D01*
X159218819Y-109335000D02*
X158696313Y-109335000D01*
%TD*%
M02*
