%TF.GenerationSoftware,KiCad,Pcbnew,9.0.3*%
%TF.CreationDate,2025-10-18T21:50:37+02:00*%
%TF.ProjectId,DaewooBackslotRAMExpansion,44616577-6f6f-4426-9163-6b736c6f7452,1.0*%
%TF.SameCoordinates,Original*%
%TF.FileFunction,Soldermask,Bot*%
%TF.FilePolarity,Negative*%
%FSLAX46Y46*%
G04 Gerber Fmt 4.6, Leading zero omitted, Abs format (unit mm)*
G04 Created by KiCad (PCBNEW 9.0.3) date 2025-10-18 21:50:37*
%MOMM*%
%LPD*%
G01*
G04 APERTURE LIST*
G04 Aperture macros list*
%AMRoundRect*
0 Rectangle with rounded corners*
0 $1 Rounding radius*
0 $2 $3 $4 $5 $6 $7 $8 $9 X,Y pos of 4 corners*
0 Add a 4 corners polygon primitive as box body*
4,1,4,$2,$3,$4,$5,$6,$7,$8,$9,$2,$3,0*
0 Add four circle primitives for the rounded corners*
1,1,$1+$1,$2,$3*
1,1,$1+$1,$4,$5*
1,1,$1+$1,$6,$7*
1,1,$1+$1,$8,$9*
0 Add four rect primitives between the rounded corners*
20,1,$1+$1,$2,$3,$4,$5,0*
20,1,$1+$1,$4,$5,$6,$7,0*
20,1,$1+$1,$6,$7,$8,$9,0*
20,1,$1+$1,$8,$9,$2,$3,0*%
%AMFreePoly0*
4,1,23,0.500000,-0.750000,0.000000,-0.750000,0.000000,-0.745722,-0.065263,-0.745722,-0.191342,-0.711940,-0.304381,-0.646677,-0.396677,-0.554381,-0.461940,-0.441342,-0.495722,-0.315263,-0.495722,-0.250000,-0.500000,-0.250000,-0.500000,0.250000,-0.495722,0.250000,-0.495722,0.315263,-0.461940,0.441342,-0.396677,0.554381,-0.304381,0.646677,-0.191342,0.711940,-0.065263,0.745722,0.000000,0.745722,
0.000000,0.750000,0.500000,0.750000,0.500000,-0.750000,0.500000,-0.750000,$1*%
%AMFreePoly1*
4,1,23,0.000000,0.745722,0.065263,0.745722,0.191342,0.711940,0.304381,0.646677,0.396677,0.554381,0.461940,0.441342,0.495722,0.315263,0.495722,0.250000,0.500000,0.250000,0.500000,-0.250000,0.495722,-0.250000,0.495722,-0.315263,0.461940,-0.441342,0.396677,-0.554381,0.304381,-0.646677,0.191342,-0.711940,0.065263,-0.745722,0.000000,-0.745722,0.000000,-0.750000,-0.500000,-0.750000,
-0.500000,0.750000,0.000000,0.750000,0.000000,0.745722,0.000000,0.745722,$1*%
G04 Aperture macros list end*
%ADD10C,0.000000*%
%ADD11RoundRect,0.250000X0.550000X0.550000X-0.550000X0.550000X-0.550000X-0.550000X0.550000X-0.550000X0*%
%ADD12C,1.600000*%
%ADD13RoundRect,0.250000X0.600000X-0.600000X0.600000X0.600000X-0.600000X0.600000X-0.600000X-0.600000X0*%
%ADD14C,1.700000*%
%ADD15R,1.700000X1.700000*%
%ADD16RoundRect,0.250000X-0.250000X-0.475000X0.250000X-0.475000X0.250000X0.475000X-0.250000X0.475000X0*%
%ADD17RoundRect,0.250000X0.450000X-0.262500X0.450000X0.262500X-0.450000X0.262500X-0.450000X-0.262500X0*%
%ADD18FreePoly0,270.000000*%
%ADD19FreePoly1,270.000000*%
%ADD20RoundRect,0.250000X0.250000X0.475000X-0.250000X0.475000X-0.250000X-0.475000X0.250000X-0.475000X0*%
G04 APERTURE END LIST*
D10*
%TO.C,JP3*%
G36*
X153507566Y-119450000D02*
G01*
X152007566Y-119450000D01*
X152007566Y-119150000D01*
X153507566Y-119150000D01*
X153507566Y-119450000D01*
G37*
%TO.C,JP6*%
G36*
X160507566Y-119450001D02*
G01*
X159007566Y-119450001D01*
X159007566Y-119150001D01*
X160507566Y-119150001D01*
X160507566Y-119450001D01*
G37*
%TO.C,JP5*%
G36*
X158157566Y-119450001D02*
G01*
X156657566Y-119450001D01*
X156657566Y-119150001D01*
X158157566Y-119150001D01*
X158157566Y-119450001D01*
G37*
%TO.C,JP4*%
G36*
X155807566Y-119450001D02*
G01*
X154307566Y-119450001D01*
X154307566Y-119150001D01*
X155807566Y-119150001D01*
X155807566Y-119450001D01*
G37*
%TD*%
D11*
%TO.C,C5*%
X120100000Y-71400000D03*
D12*
X117600000Y-71400000D03*
%TD*%
D11*
%TO.C,C10*%
X171200001Y-125600000D03*
D12*
X169200000Y-125600000D03*
%TD*%
D13*
%TO.C,J1*%
X151177566Y-126840000D03*
D14*
X151177566Y-124300000D03*
X153717566Y-126840000D03*
X153717566Y-124300000D03*
X156257565Y-126840000D03*
X156257566Y-124300000D03*
X158797566Y-126840000D03*
X158797566Y-124300000D03*
X161337566Y-126840000D03*
X161337566Y-124300000D03*
%TD*%
D15*
%TO.C,BUS1*%
X114157567Y-130579999D03*
D14*
X111617566Y-130579999D03*
X114157566Y-128040000D03*
X111617566Y-128040000D03*
X114157566Y-125500000D03*
X111617566Y-125500000D03*
X114157566Y-122960000D03*
X111617566Y-122960000D03*
X114157567Y-120420000D03*
X111617566Y-120420000D03*
X114157566Y-117879999D03*
X111617566Y-117879999D03*
X114157566Y-115340000D03*
X111617566Y-115340000D03*
X114157566Y-112800000D03*
X111617566Y-112800000D03*
X114157567Y-110260000D03*
X111617566Y-110260000D03*
X114157567Y-107719999D03*
X111617566Y-107719999D03*
X114157566Y-105180000D03*
X111617566Y-105180000D03*
X114157566Y-102640000D03*
X111617566Y-102640000D03*
X114157567Y-100100000D03*
X111617566Y-100100000D03*
X114157567Y-97560000D03*
X111617566Y-97559999D03*
X114157566Y-95019999D03*
X111617566Y-95019999D03*
X114157566Y-92480000D03*
X111617566Y-92480000D03*
X114157566Y-89940000D03*
X111617566Y-89940000D03*
X114157567Y-87400000D03*
X111617566Y-87400000D03*
X114157567Y-84859999D03*
X111617566Y-84859999D03*
X114157566Y-82320000D03*
X111617566Y-82320000D03*
X114157566Y-79780000D03*
X111617566Y-79780000D03*
X114157567Y-77240000D03*
X111617566Y-77240000D03*
X114157566Y-74699999D03*
X111617566Y-74699999D03*
X114157566Y-72160000D03*
X111617566Y-72160000D03*
X114157566Y-69620000D03*
X111617566Y-69620000D03*
%TD*%
D16*
%TO.C,C7*%
X173257567Y-121550000D03*
X175157565Y-121550000D03*
%TD*%
D17*
%TO.C,R2*%
X143357566Y-123212500D03*
X143357566Y-121387500D03*
%TD*%
D18*
%TO.C,JP3*%
X152757566Y-118650001D03*
D19*
X152757566Y-119949999D03*
%TD*%
D18*
%TO.C,JP6*%
X159757566Y-118650002D03*
D19*
X159757566Y-119950000D03*
%TD*%
D20*
%TO.C,C2*%
X152257565Y-72350000D03*
X150357567Y-72350000D03*
%TD*%
D18*
%TO.C,JP5*%
X157407566Y-118650002D03*
D19*
X157407566Y-119950000D03*
%TD*%
D20*
%TO.C,C8*%
X187407565Y-121550000D03*
X185507567Y-121550000D03*
%TD*%
%TO.C,C4*%
X188657565Y-72350000D03*
X186757567Y-72350000D03*
%TD*%
D16*
%TO.C,C9*%
X152657566Y-108600000D03*
X154557566Y-108600000D03*
%TD*%
D20*
%TO.C,C3*%
X170457565Y-72350000D03*
X168557567Y-72350000D03*
%TD*%
D17*
%TO.C,R1*%
X143357566Y-126975000D03*
X143357566Y-125150000D03*
%TD*%
D20*
%TO.C,C1*%
X134057565Y-72350000D03*
X132157567Y-72350000D03*
%TD*%
D18*
%TO.C,JP4*%
X155057566Y-118650002D03*
D19*
X155057566Y-119950000D03*
%TD*%
D20*
%TO.C,C6*%
X159907565Y-108600000D03*
X158007567Y-108600000D03*
%TD*%
M02*
