%TF.GenerationSoftware,KiCad,Pcbnew,9.0.3*%
%TF.CreationDate,2025-10-18T21:53:55+02:00*%
%TF.ProjectId,DaewooSlotExpander,44616577-6f6f-4536-9c6f-74457870616e,1.1*%
%TF.SameCoordinates,Original*%
%TF.FileFunction,Paste,Top*%
%TF.FilePolarity,Positive*%
%FSLAX46Y46*%
G04 Gerber Fmt 4.6, Leading zero omitted, Abs format (unit mm)*
G04 Created by KiCad (PCBNEW 9.0.3) date 2025-10-18 21:53:55*
%MOMM*%
%LPD*%
G01*
G04 APERTURE LIST*
G04 Aperture macros list*
%AMRoundRect*
0 Rectangle with rounded corners*
0 $1 Rounding radius*
0 $2 $3 $4 $5 $6 $7 $8 $9 X,Y pos of 4 corners*
0 Add a 4 corners polygon primitive as box body*
4,1,4,$2,$3,$4,$5,$6,$7,$8,$9,$2,$3,0*
0 Add four circle primitives for the rounded corners*
1,1,$1+$1,$2,$3*
1,1,$1+$1,$4,$5*
1,1,$1+$1,$6,$7*
1,1,$1+$1,$8,$9*
0 Add four rect primitives between the rounded corners*
20,1,$1+$1,$2,$3,$4,$5,0*
20,1,$1+$1,$4,$5,$6,$7,0*
20,1,$1+$1,$6,$7,$8,$9,0*
20,1,$1+$1,$8,$9,$2,$3,0*%
G04 Aperture macros list end*
%ADD10RoundRect,0.225000X0.225000X0.375000X-0.225000X0.375000X-0.225000X-0.375000X0.225000X-0.375000X0*%
%ADD11RoundRect,0.375000X0.375000X-0.625000X0.375000X0.625000X-0.375000X0.625000X-0.375000X-0.625000X0*%
%ADD12RoundRect,0.500000X1.400000X-0.500000X1.400000X0.500000X-1.400000X0.500000X-1.400000X-0.500000X0*%
%ADD13RoundRect,0.075000X-0.725000X-0.075000X0.725000X-0.075000X0.725000X0.075000X-0.725000X0.075000X0*%
%ADD14RoundRect,0.075000X-0.075000X-0.725000X0.075000X-0.725000X0.075000X0.725000X-0.075000X0.725000X0*%
G04 APERTURE END LIST*
D10*
%TO.C,D1*%
X126150000Y-74439149D03*
X122850000Y-74439149D03*
%TD*%
D11*
%TO.C,U2*%
X118400000Y-71739149D03*
X120700000Y-71739148D03*
D12*
X120700000Y-65439150D03*
D11*
X123000000Y-71739149D03*
%TD*%
D13*
%TO.C,U1*%
X122925000Y-80739149D03*
X122925000Y-81239149D03*
X122925000Y-81739149D03*
X122925000Y-82239149D03*
X122925000Y-82739149D03*
X122925000Y-83239149D03*
X122925000Y-83739149D03*
X122925000Y-84239149D03*
X122925000Y-84739149D03*
X122925000Y-85239149D03*
X122925000Y-85739149D03*
X122925000Y-86239149D03*
X122925000Y-86739149D03*
X122925000Y-87239149D03*
X122925000Y-87739149D03*
X122925000Y-88239149D03*
X122925000Y-88739149D03*
X122925000Y-89239149D03*
X122925000Y-89739149D03*
X122925000Y-90239149D03*
X122925000Y-90739149D03*
X122925000Y-91239149D03*
X122925000Y-91739149D03*
X122925000Y-92239149D03*
X122925000Y-92739149D03*
D14*
X124600000Y-94414149D03*
X125100000Y-94414149D03*
X125600000Y-94414149D03*
X126100000Y-94414149D03*
X126600000Y-94414149D03*
X127100000Y-94414149D03*
X127600000Y-94414149D03*
X128100000Y-94414149D03*
X128600000Y-94414149D03*
X129100000Y-94414149D03*
X129600000Y-94414149D03*
X130100000Y-94414149D03*
X130600000Y-94414149D03*
X131100000Y-94414149D03*
X131600000Y-94414149D03*
X132100000Y-94414149D03*
X132600000Y-94414149D03*
X133100000Y-94414149D03*
X133600000Y-94414149D03*
X134100000Y-94414149D03*
X134600000Y-94414149D03*
X135100000Y-94414149D03*
X135600000Y-94414149D03*
X136100000Y-94414149D03*
X136600000Y-94414149D03*
D13*
X138275000Y-92739149D03*
X138275000Y-92239149D03*
X138275000Y-91739149D03*
X138275000Y-91239149D03*
X138275000Y-90739149D03*
X138275000Y-90239149D03*
X138275000Y-89739149D03*
X138275000Y-89239149D03*
X138275000Y-88739149D03*
X138275000Y-88239149D03*
X138275000Y-87739149D03*
X138275000Y-87239149D03*
X138275000Y-86739149D03*
X138275000Y-86239149D03*
X138275000Y-85739149D03*
X138275000Y-85239149D03*
X138275000Y-84739149D03*
X138275000Y-84239149D03*
X138275000Y-83739149D03*
X138275000Y-83239149D03*
X138275000Y-82739149D03*
X138275000Y-82239149D03*
X138275000Y-81739149D03*
X138275000Y-81239149D03*
X138275000Y-80739149D03*
D14*
X136600000Y-79064149D03*
X136100000Y-79064149D03*
X135600000Y-79064149D03*
X135100000Y-79064149D03*
X134600000Y-79064149D03*
X134100000Y-79064149D03*
X133600000Y-79064149D03*
X133100000Y-79064149D03*
X132600000Y-79064149D03*
X132100000Y-79064149D03*
X131600000Y-79064149D03*
X131100000Y-79064149D03*
X130600000Y-79064149D03*
X130100000Y-79064149D03*
X129600000Y-79064149D03*
X129100000Y-79064149D03*
X128600000Y-79064149D03*
X128100000Y-79064149D03*
X127600000Y-79064149D03*
X127100000Y-79064149D03*
X126600000Y-79064149D03*
X126100000Y-79064149D03*
X125600000Y-79064149D03*
X125100000Y-79064149D03*
X124600000Y-79064149D03*
%TD*%
M02*
