%TF.GenerationSoftware,KiCad,Pcbnew,9.0.3*%
%TF.CreationDate,2025-10-18T21:53:55+02:00*%
%TF.ProjectId,DaewooSlotExpander,44616577-6f6f-4536-9c6f-74457870616e,1.1*%
%TF.SameCoordinates,Original*%
%TF.FileFunction,Soldermask,Top*%
%TF.FilePolarity,Negative*%
%FSLAX46Y46*%
G04 Gerber Fmt 4.6, Leading zero omitted, Abs format (unit mm)*
G04 Created by KiCad (PCBNEW 9.0.3) date 2025-10-18 21:53:55*
%MOMM*%
%LPD*%
G01*
G04 APERTURE LIST*
G04 Aperture macros list*
%AMRoundRect*
0 Rectangle with rounded corners*
0 $1 Rounding radius*
0 $2 $3 $4 $5 $6 $7 $8 $9 X,Y pos of 4 corners*
0 Add a 4 corners polygon primitive as box body*
4,1,4,$2,$3,$4,$5,$6,$7,$8,$9,$2,$3,0*
0 Add four circle primitives for the rounded corners*
1,1,$1+$1,$2,$3*
1,1,$1+$1,$4,$5*
1,1,$1+$1,$6,$7*
1,1,$1+$1,$8,$9*
0 Add four rect primitives between the rounded corners*
20,1,$1+$1,$2,$3,$4,$5,0*
20,1,$1+$1,$4,$5,$6,$7,0*
20,1,$1+$1,$6,$7,$8,$9,0*
20,1,$1+$1,$8,$9,$2,$3,0*%
%AMFreePoly0*
4,1,23,0.500000,-0.750000,0.000000,-0.750000,0.000000,-0.745722,-0.065263,-0.745722,-0.191342,-0.711940,-0.304381,-0.646677,-0.396677,-0.554381,-0.461940,-0.441342,-0.495722,-0.315263,-0.495722,-0.250000,-0.500000,-0.250000,-0.500000,0.250000,-0.495722,0.250000,-0.495722,0.315263,-0.461940,0.441342,-0.396677,0.554381,-0.304381,0.646677,-0.191342,0.711940,-0.065263,0.745722,0.000000,0.745722,
0.000000,0.750000,0.500000,0.750000,0.500000,-0.750000,0.500000,-0.750000,$1*%
%AMFreePoly1*
4,1,23,0.000000,0.745722,0.065263,0.745722,0.191342,0.711940,0.304381,0.646677,0.396677,0.554381,0.461940,0.441342,0.495722,0.315263,0.495722,0.250000,0.500000,0.250000,0.500000,-0.250000,0.495722,-0.250000,0.495722,-0.315263,0.461940,-0.441342,0.396677,-0.554381,0.304381,-0.646677,0.191342,-0.711940,0.065263,-0.745722,0.000000,-0.745722,0.000000,-0.750000,-0.500000,-0.750000,
-0.500000,0.750000,0.000000,0.750000,0.000000,0.745722,0.000000,0.745722,$1*%
%AMFreePoly2*
4,1,23,0.550000,-0.750000,0.000000,-0.750000,0.000000,-0.745722,-0.065263,-0.745722,-0.191342,-0.711940,-0.304381,-0.646677,-0.396677,-0.554381,-0.461940,-0.441342,-0.495722,-0.315263,-0.495722,-0.250000,-0.500000,-0.250000,-0.500000,0.250000,-0.495722,0.250000,-0.495722,0.315263,-0.461940,0.441342,-0.396677,0.554381,-0.304381,0.646677,-0.191342,0.711940,-0.065263,0.745722,0.000000,0.745722,
0.000000,0.750000,0.550000,0.750000,0.550000,-0.750000,0.550000,-0.750000,$1*%
%AMFreePoly3*
4,1,23,0.000000,0.745722,0.065263,0.745722,0.191342,0.711940,0.304381,0.646677,0.396677,0.554381,0.461940,0.441342,0.495722,0.315263,0.495722,0.250000,0.500000,0.250000,0.500000,-0.250000,0.495722,-0.250000,0.495722,-0.315263,0.461940,-0.441342,0.396677,-0.554381,0.304381,-0.646677,0.191342,-0.711940,0.065263,-0.745722,0.000000,-0.745722,0.000000,-0.750000,-0.550000,-0.750000,
-0.550000,0.750000,0.000000,0.750000,0.000000,0.745722,0.000000,0.745722,$1*%
G04 Aperture macros list end*
%ADD10C,0.000000*%
%ADD11RoundRect,0.225000X0.225000X0.375000X-0.225000X0.375000X-0.225000X-0.375000X0.225000X-0.375000X0*%
%ADD12FreePoly0,90.000000*%
%ADD13FreePoly1,90.000000*%
%ADD14FreePoly2,90.000000*%
%ADD15R,1.500000X1.000000*%
%ADD16FreePoly3,90.000000*%
%ADD17RoundRect,0.250000X0.550000X0.550000X-0.550000X0.550000X-0.550000X-0.550000X0.550000X-0.550000X0*%
%ADD18C,1.600000*%
%ADD19RoundRect,0.375000X0.375000X-0.625000X0.375000X0.625000X-0.375000X0.625000X-0.375000X-0.625000X0*%
%ADD20RoundRect,0.500000X1.400000X-0.500000X1.400000X0.500000X-1.400000X0.500000X-1.400000X-0.500000X0*%
%ADD21RoundRect,0.250000X0.550000X-0.550000X0.550000X0.550000X-0.550000X0.550000X-0.550000X-0.550000X0*%
%ADD22R,1.700000X1.700000*%
%ADD23C,1.700000*%
%ADD24RoundRect,0.075000X-0.725000X-0.075000X0.725000X-0.075000X0.725000X0.075000X-0.725000X0.075000X0*%
%ADD25RoundRect,0.075000X-0.075000X-0.725000X0.075000X-0.725000X0.075000X0.725000X-0.075000X0.725000X0*%
%ADD26RoundRect,0.250000X0.600000X-0.600000X0.600000X0.600000X-0.600000X0.600000X-0.600000X-0.600000X0*%
G04 APERTURE END LIST*
D10*
%TO.C,JP2*%
G36*
X112550000Y-71839149D02*
G01*
X111050000Y-71839149D01*
X111050000Y-71539149D01*
X112550000Y-71539149D01*
X112550000Y-71839149D01*
G37*
%TO.C,JP1*%
G36*
X112550000Y-123489149D02*
G01*
X111050000Y-123489149D01*
X111050000Y-121989149D01*
X112550000Y-121989149D01*
X112550000Y-123489149D01*
G37*
%TD*%
D11*
%TO.C,D1*%
X126150000Y-74439149D03*
X122850000Y-74439149D03*
%TD*%
D12*
%TO.C,JP2*%
X111800000Y-72339148D03*
D13*
X111800000Y-71039150D03*
%TD*%
D14*
%TO.C,JP1*%
X111800000Y-124039149D03*
D15*
X111800000Y-122739149D03*
D16*
X111800000Y-121439149D03*
%TD*%
D17*
%TO.C,C6*%
X112500000Y-66600000D03*
D18*
X110499999Y-66600000D03*
%TD*%
D19*
%TO.C,U2*%
X118400000Y-71739149D03*
X120700000Y-71739148D03*
D20*
X120700000Y-65439150D03*
D19*
X123000000Y-71739149D03*
%TD*%
D21*
%TO.C,U3*%
X114090000Y-116709149D03*
D18*
X116630000Y-116709149D03*
X119169999Y-116709149D03*
X121710000Y-116709149D03*
X124250000Y-116709149D03*
X126790000Y-116709149D03*
X129330000Y-116709149D03*
X131870001Y-116709149D03*
X134410000Y-116709149D03*
X136950000Y-116709149D03*
X139490000Y-116709149D03*
X142029999Y-116709149D03*
X144570000Y-116709149D03*
X147110000Y-116709149D03*
X147110000Y-101469149D03*
X144570000Y-101469149D03*
X142030000Y-101469149D03*
X139490000Y-101469149D03*
X136950000Y-101469149D03*
X134410000Y-101469149D03*
X131870000Y-101469149D03*
X129330000Y-101469149D03*
X126790000Y-101469149D03*
X124250000Y-101469149D03*
X121710000Y-101469149D03*
X119170000Y-101469149D03*
X116630000Y-101469149D03*
X114090000Y-101469149D03*
%TD*%
D22*
%TO.C,BUS_Expansion2*%
X161770000Y-125599148D03*
D23*
X164310000Y-125599148D03*
X161770000Y-123059148D03*
X164310000Y-123059148D03*
X161770000Y-120519149D03*
X164310000Y-120519148D03*
X161770000Y-117979148D03*
X164310000Y-117979148D03*
X161770000Y-115439148D03*
X164310000Y-115439148D03*
X161770000Y-112899148D03*
X164310000Y-112899148D03*
X161770000Y-110359148D03*
X164310000Y-110359148D03*
X161770000Y-107819147D03*
X164310000Y-107819148D03*
X161770000Y-105279148D03*
X164310000Y-105279148D03*
X161770000Y-102739148D03*
X164310000Y-102739148D03*
X161770000Y-100199148D03*
X164310000Y-100199148D03*
X161770000Y-97659149D03*
X164310000Y-97659148D03*
X161770000Y-95119148D03*
X164310000Y-95119148D03*
X161770000Y-92579148D03*
X164310000Y-92579148D03*
X161770000Y-90039148D03*
X164310000Y-90039148D03*
X161770000Y-87499149D03*
X164310000Y-87499148D03*
X161770000Y-84959147D03*
X164310000Y-84959148D03*
X161770000Y-82419148D03*
X164310000Y-82419148D03*
X161770000Y-79879148D03*
X164310000Y-79879148D03*
X161770000Y-77339148D03*
X164310000Y-77339148D03*
X161770000Y-74799149D03*
X164310000Y-74799148D03*
X161770000Y-72259148D03*
X164310000Y-72259148D03*
X161770000Y-69719148D03*
X164310000Y-69719148D03*
X161770000Y-67179148D03*
X164310000Y-67179148D03*
X161770000Y-64639149D03*
X164310000Y-64639148D03*
%TD*%
D17*
%TO.C,C7*%
X112500000Y-77000000D03*
D18*
X110499999Y-77000000D03*
%TD*%
D22*
%TO.C,BUS_Expansion3*%
X182690001Y-125599148D03*
D23*
X185230001Y-125599148D03*
X182690001Y-123059148D03*
X185230001Y-123059148D03*
X182690001Y-120519149D03*
X185230001Y-120519148D03*
X182690001Y-117979148D03*
X185230001Y-117979148D03*
X182690001Y-115439148D03*
X185230001Y-115439148D03*
X182690001Y-112899148D03*
X185230001Y-112899148D03*
X182690001Y-110359148D03*
X185230001Y-110359148D03*
X182690001Y-107819147D03*
X185230001Y-107819148D03*
X182690001Y-105279148D03*
X185230001Y-105279148D03*
X182690001Y-102739148D03*
X185230001Y-102739148D03*
X182690001Y-100199148D03*
X185230001Y-100199148D03*
X182690001Y-97659149D03*
X185230001Y-97659148D03*
X182690001Y-95119148D03*
X185230001Y-95119148D03*
X182690001Y-92579148D03*
X185230001Y-92579148D03*
X182690001Y-90039148D03*
X185230001Y-90039148D03*
X182690001Y-87499149D03*
X185230001Y-87499148D03*
X182690001Y-84959147D03*
X185230001Y-84959148D03*
X182690001Y-82419148D03*
X185230001Y-82419148D03*
X182690001Y-79879148D03*
X185230001Y-79879148D03*
X182690001Y-77339148D03*
X185230001Y-77339148D03*
X182690001Y-74799149D03*
X185230001Y-74799148D03*
X182690001Y-72259148D03*
X185230001Y-72259148D03*
X182690001Y-69719148D03*
X185230001Y-69719148D03*
X182690001Y-67179148D03*
X185230001Y-67179148D03*
X182690001Y-64639149D03*
X185230001Y-64639148D03*
%TD*%
D22*
%TO.C,BUS_Expansion1*%
X107100001Y-125619148D03*
D23*
X104560000Y-125619148D03*
X107100000Y-123079149D03*
X104560000Y-123079149D03*
X107100000Y-120539149D03*
X104560000Y-120539149D03*
X107100000Y-117999149D03*
X104560000Y-117999149D03*
X107100001Y-115459149D03*
X104560000Y-115459149D03*
X107100000Y-112919148D03*
X104560000Y-112919148D03*
X107100000Y-110379149D03*
X104560000Y-110379149D03*
X107100000Y-107839149D03*
X104560000Y-107839149D03*
X107100001Y-105299149D03*
X104560000Y-105299149D03*
X107100001Y-102759148D03*
X104560000Y-102759148D03*
X107100000Y-100219149D03*
X104560000Y-100219149D03*
X107100000Y-97679149D03*
X104560000Y-97679149D03*
X107100001Y-95139149D03*
X104560000Y-95139149D03*
X107100001Y-92599149D03*
X104560000Y-92599148D03*
X107100000Y-90059148D03*
X104560000Y-90059148D03*
X107100000Y-87519149D03*
X104560000Y-87519149D03*
X107100000Y-84979149D03*
X104560000Y-84979149D03*
X107100001Y-82439149D03*
X104560000Y-82439149D03*
X107100001Y-79899148D03*
X104560000Y-79899148D03*
X107100000Y-77359149D03*
X104560000Y-77359149D03*
X107100000Y-74819149D03*
X104560000Y-74819149D03*
X107100001Y-72279149D03*
X104560000Y-72279149D03*
X107100000Y-69739148D03*
X104560000Y-69739148D03*
X107100000Y-67199149D03*
X104560000Y-67199149D03*
X107100000Y-64659149D03*
X104560000Y-64659149D03*
%TD*%
D24*
%TO.C,U1*%
X122925000Y-80739149D03*
X122925000Y-81239149D03*
X122925000Y-81739149D03*
X122925000Y-82239149D03*
X122925000Y-82739149D03*
X122925000Y-83239149D03*
X122925000Y-83739149D03*
X122925000Y-84239149D03*
X122925000Y-84739149D03*
X122925000Y-85239149D03*
X122925000Y-85739149D03*
X122925000Y-86239149D03*
X122925000Y-86739149D03*
X122925000Y-87239149D03*
X122925000Y-87739149D03*
X122925000Y-88239149D03*
X122925000Y-88739149D03*
X122925000Y-89239149D03*
X122925000Y-89739149D03*
X122925000Y-90239149D03*
X122925000Y-90739149D03*
X122925000Y-91239149D03*
X122925000Y-91739149D03*
X122925000Y-92239149D03*
X122925000Y-92739149D03*
D25*
X124600000Y-94414149D03*
X125100000Y-94414149D03*
X125600000Y-94414149D03*
X126100000Y-94414149D03*
X126600000Y-94414149D03*
X127100000Y-94414149D03*
X127600000Y-94414149D03*
X128100000Y-94414149D03*
X128600000Y-94414149D03*
X129100000Y-94414149D03*
X129600000Y-94414149D03*
X130100000Y-94414149D03*
X130600000Y-94414149D03*
X131100000Y-94414149D03*
X131600000Y-94414149D03*
X132100000Y-94414149D03*
X132600000Y-94414149D03*
X133100000Y-94414149D03*
X133600000Y-94414149D03*
X134100000Y-94414149D03*
X134600000Y-94414149D03*
X135100000Y-94414149D03*
X135600000Y-94414149D03*
X136100000Y-94414149D03*
X136600000Y-94414149D03*
D24*
X138275000Y-92739149D03*
X138275000Y-92239149D03*
X138275000Y-91739149D03*
X138275000Y-91239149D03*
X138275000Y-90739149D03*
X138275000Y-90239149D03*
X138275000Y-89739149D03*
X138275000Y-89239149D03*
X138275000Y-88739149D03*
X138275000Y-88239149D03*
X138275000Y-87739149D03*
X138275000Y-87239149D03*
X138275000Y-86739149D03*
X138275000Y-86239149D03*
X138275000Y-85739149D03*
X138275000Y-85239149D03*
X138275000Y-84739149D03*
X138275000Y-84239149D03*
X138275000Y-83739149D03*
X138275000Y-83239149D03*
X138275000Y-82739149D03*
X138275000Y-82239149D03*
X138275000Y-81739149D03*
X138275000Y-81239149D03*
X138275000Y-80739149D03*
D25*
X136600000Y-79064149D03*
X136100000Y-79064149D03*
X135600000Y-79064149D03*
X135100000Y-79064149D03*
X134600000Y-79064149D03*
X134100000Y-79064149D03*
X133600000Y-79064149D03*
X133100000Y-79064149D03*
X132600000Y-79064149D03*
X132100000Y-79064149D03*
X131600000Y-79064149D03*
X131100000Y-79064149D03*
X130600000Y-79064149D03*
X130100000Y-79064149D03*
X129600000Y-79064149D03*
X129100000Y-79064149D03*
X128600000Y-79064149D03*
X128100000Y-79064149D03*
X127600000Y-79064149D03*
X127100000Y-79064149D03*
X126600000Y-79064149D03*
X126100000Y-79064149D03*
X125600000Y-79064149D03*
X125100000Y-79064149D03*
X124600000Y-79064149D03*
%TD*%
D26*
%TO.C,J1*%
X135400000Y-110479149D03*
D23*
X135400000Y-107939149D03*
X132860000Y-110479149D03*
X132860000Y-107939149D03*
X130320001Y-110479149D03*
X130320000Y-107939149D03*
X127780000Y-110479149D03*
X127780000Y-107939149D03*
X125240000Y-110479149D03*
X125240000Y-107939149D03*
%TD*%
M02*
