%TF.GenerationSoftware,KiCad,Pcbnew,9.0.3*%
%TF.CreationDate,2025-10-18T21:53:55+02:00*%
%TF.ProjectId,DaewooSlotExpander,44616577-6f6f-4536-9c6f-74457870616e,1.1*%
%TF.SameCoordinates,Original*%
%TF.FileFunction,Soldermask,Bot*%
%TF.FilePolarity,Negative*%
%FSLAX46Y46*%
G04 Gerber Fmt 4.6, Leading zero omitted, Abs format (unit mm)*
G04 Created by KiCad (PCBNEW 9.0.3) date 2025-10-18 21:53:55*
%MOMM*%
%LPD*%
G01*
G04 APERTURE LIST*
G04 Aperture macros list*
%AMRoundRect*
0 Rectangle with rounded corners*
0 $1 Rounding radius*
0 $2 $3 $4 $5 $6 $7 $8 $9 X,Y pos of 4 corners*
0 Add a 4 corners polygon primitive as box body*
4,1,4,$2,$3,$4,$5,$6,$7,$8,$9,$2,$3,0*
0 Add four circle primitives for the rounded corners*
1,1,$1+$1,$2,$3*
1,1,$1+$1,$4,$5*
1,1,$1+$1,$6,$7*
1,1,$1+$1,$8,$9*
0 Add four rect primitives between the rounded corners*
20,1,$1+$1,$2,$3,$4,$5,0*
20,1,$1+$1,$4,$5,$6,$7,0*
20,1,$1+$1,$6,$7,$8,$9,0*
20,1,$1+$1,$8,$9,$2,$3,0*%
G04 Aperture macros list end*
%ADD10RoundRect,0.250000X0.550000X0.550000X-0.550000X0.550000X-0.550000X-0.550000X0.550000X-0.550000X0*%
%ADD11C,1.600000*%
%ADD12RoundRect,0.250000X0.550000X-0.550000X0.550000X0.550000X-0.550000X0.550000X-0.550000X-0.550000X0*%
%ADD13R,1.700000X1.700000*%
%ADD14C,1.700000*%
%ADD15RoundRect,0.250000X0.250000X0.475000X-0.250000X0.475000X-0.250000X-0.475000X0.250000X-0.475000X0*%
%ADD16RoundRect,0.250000X0.600000X-0.600000X0.600000X0.600000X-0.600000X0.600000X-0.600000X-0.600000X0*%
%ADD17RoundRect,0.250000X-0.475000X0.250000X-0.475000X-0.250000X0.475000X-0.250000X0.475000X0.250000X0*%
%ADD18RoundRect,0.250000X-0.450000X0.262500X-0.450000X-0.262500X0.450000X-0.262500X0.450000X0.262500X0*%
%ADD19RoundRect,0.250000X-0.250000X-0.475000X0.250000X-0.475000X0.250000X0.475000X-0.250000X0.475000X0*%
%ADD20RoundRect,0.250000X0.450000X-0.262500X0.450000X0.262500X-0.450000X0.262500X-0.450000X-0.262500X0*%
%ADD21RoundRect,0.250000X0.262500X0.450000X-0.262500X0.450000X-0.262500X-0.450000X0.262500X-0.450000X0*%
G04 APERTURE END LIST*
D10*
%TO.C,C6*%
X112500000Y-66600000D03*
D11*
X110499999Y-66600000D03*
%TD*%
D12*
%TO.C,U3*%
X114090000Y-116709149D03*
D11*
X116630000Y-116709149D03*
X119169999Y-116709149D03*
X121710000Y-116709149D03*
X124250000Y-116709149D03*
X126790000Y-116709149D03*
X129330000Y-116709149D03*
X131870001Y-116709149D03*
X134410000Y-116709149D03*
X136950000Y-116709149D03*
X139490000Y-116709149D03*
X142029999Y-116709149D03*
X144570000Y-116709149D03*
X147110000Y-116709149D03*
X147110000Y-101469149D03*
X144570000Y-101469149D03*
X142030000Y-101469149D03*
X139490000Y-101469149D03*
X136950000Y-101469149D03*
X134410000Y-101469149D03*
X131870000Y-101469149D03*
X129330000Y-101469149D03*
X126790000Y-101469149D03*
X124250000Y-101469149D03*
X121710000Y-101469149D03*
X119170000Y-101469149D03*
X116630000Y-101469149D03*
X114090000Y-101469149D03*
%TD*%
D13*
%TO.C,BUS_Expansion2*%
X161770000Y-125599148D03*
D14*
X164310000Y-125599148D03*
X161770000Y-123059148D03*
X164310000Y-123059148D03*
X161770000Y-120519149D03*
X164310000Y-120519148D03*
X161770000Y-117979148D03*
X164310000Y-117979148D03*
X161770000Y-115439148D03*
X164310000Y-115439148D03*
X161770000Y-112899148D03*
X164310000Y-112899148D03*
X161770000Y-110359148D03*
X164310000Y-110359148D03*
X161770000Y-107819147D03*
X164310000Y-107819148D03*
X161770000Y-105279148D03*
X164310000Y-105279148D03*
X161770000Y-102739148D03*
X164310000Y-102739148D03*
X161770000Y-100199148D03*
X164310000Y-100199148D03*
X161770000Y-97659149D03*
X164310000Y-97659148D03*
X161770000Y-95119148D03*
X164310000Y-95119148D03*
X161770000Y-92579148D03*
X164310000Y-92579148D03*
X161770000Y-90039148D03*
X164310000Y-90039148D03*
X161770000Y-87499149D03*
X164310000Y-87499148D03*
X161770000Y-84959147D03*
X164310000Y-84959148D03*
X161770000Y-82419148D03*
X164310000Y-82419148D03*
X161770000Y-79879148D03*
X164310000Y-79879148D03*
X161770000Y-77339148D03*
X164310000Y-77339148D03*
X161770000Y-74799149D03*
X164310000Y-74799148D03*
X161770000Y-72259148D03*
X164310000Y-72259148D03*
X161770000Y-69719148D03*
X164310000Y-69719148D03*
X161770000Y-67179148D03*
X164310000Y-67179148D03*
X161770000Y-64639149D03*
X164310000Y-64639148D03*
%TD*%
D10*
%TO.C,C7*%
X112500000Y-77000000D03*
D11*
X110499999Y-77000000D03*
%TD*%
D13*
%TO.C,BUS_Expansion3*%
X182690001Y-125599148D03*
D14*
X185230001Y-125599148D03*
X182690001Y-123059148D03*
X185230001Y-123059148D03*
X182690001Y-120519149D03*
X185230001Y-120519148D03*
X182690001Y-117979148D03*
X185230001Y-117979148D03*
X182690001Y-115439148D03*
X185230001Y-115439148D03*
X182690001Y-112899148D03*
X185230001Y-112899148D03*
X182690001Y-110359148D03*
X185230001Y-110359148D03*
X182690001Y-107819147D03*
X185230001Y-107819148D03*
X182690001Y-105279148D03*
X185230001Y-105279148D03*
X182690001Y-102739148D03*
X185230001Y-102739148D03*
X182690001Y-100199148D03*
X185230001Y-100199148D03*
X182690001Y-97659149D03*
X185230001Y-97659148D03*
X182690001Y-95119148D03*
X185230001Y-95119148D03*
X182690001Y-92579148D03*
X185230001Y-92579148D03*
X182690001Y-90039148D03*
X185230001Y-90039148D03*
X182690001Y-87499149D03*
X185230001Y-87499148D03*
X182690001Y-84959147D03*
X185230001Y-84959148D03*
X182690001Y-82419148D03*
X185230001Y-82419148D03*
X182690001Y-79879148D03*
X185230001Y-79879148D03*
X182690001Y-77339148D03*
X185230001Y-77339148D03*
X182690001Y-74799149D03*
X185230001Y-74799148D03*
X182690001Y-72259148D03*
X185230001Y-72259148D03*
X182690001Y-69719148D03*
X185230001Y-69719148D03*
X182690001Y-67179148D03*
X185230001Y-67179148D03*
X182690001Y-64639149D03*
X185230001Y-64639148D03*
%TD*%
D13*
%TO.C,BUS_Expansion1*%
X107100001Y-125619148D03*
D14*
X104560000Y-125619148D03*
X107100000Y-123079149D03*
X104560000Y-123079149D03*
X107100000Y-120539149D03*
X104560000Y-120539149D03*
X107100000Y-117999149D03*
X104560000Y-117999149D03*
X107100001Y-115459149D03*
X104560000Y-115459149D03*
X107100000Y-112919148D03*
X104560000Y-112919148D03*
X107100000Y-110379149D03*
X104560000Y-110379149D03*
X107100000Y-107839149D03*
X104560000Y-107839149D03*
X107100001Y-105299149D03*
X104560000Y-105299149D03*
X107100001Y-102759148D03*
X104560000Y-102759148D03*
X107100000Y-100219149D03*
X104560000Y-100219149D03*
X107100000Y-97679149D03*
X104560000Y-97679149D03*
X107100001Y-95139149D03*
X104560000Y-95139149D03*
X107100001Y-92599149D03*
X104560000Y-92599148D03*
X107100000Y-90059148D03*
X104560000Y-90059148D03*
X107100000Y-87519149D03*
X104560000Y-87519149D03*
X107100000Y-84979149D03*
X104560000Y-84979149D03*
X107100001Y-82439149D03*
X104560000Y-82439149D03*
X107100001Y-79899148D03*
X104560000Y-79899148D03*
X107100000Y-77359149D03*
X104560000Y-77359149D03*
X107100000Y-74819149D03*
X104560000Y-74819149D03*
X107100001Y-72279149D03*
X104560000Y-72279149D03*
X107100000Y-69739148D03*
X104560000Y-69739148D03*
X107100000Y-67199149D03*
X104560000Y-67199149D03*
X107100000Y-64659149D03*
X104560000Y-64659149D03*
%TD*%
D15*
%TO.C,C2*%
X128049998Y-74439149D03*
X126150000Y-74439149D03*
%TD*%
D16*
%TO.C,J1*%
X135400000Y-110479149D03*
D14*
X135400000Y-107939149D03*
X132860000Y-110479149D03*
X132860000Y-107939149D03*
X130320001Y-110479149D03*
X130320000Y-107939149D03*
X127780000Y-110479149D03*
X127780000Y-107939149D03*
X125240000Y-110479149D03*
X125240000Y-107939149D03*
%TD*%
D17*
%TO.C,C5*%
X115450000Y-107989149D03*
X115450000Y-109889147D03*
%TD*%
D18*
%TO.C,R2*%
X142700000Y-108176649D03*
X142700000Y-110001649D03*
%TD*%
D19*
%TO.C,C1*%
X121900000Y-74439149D03*
X123800000Y-74439149D03*
%TD*%
D20*
%TO.C,R1*%
X145050000Y-110001649D03*
X145050000Y-108176649D03*
%TD*%
D19*
%TO.C,C3*%
X128000000Y-91959149D03*
X129900000Y-91959149D03*
%TD*%
D21*
%TO.C,R3*%
X179362500Y-64589149D03*
X177537500Y-64589149D03*
%TD*%
D15*
%TO.C,C4*%
X133299998Y-91959149D03*
X131400000Y-91959149D03*
%TD*%
M02*
