%TF.GenerationSoftware,KiCad,Pcbnew,9.0.3*%
%TF.CreationDate,2025-10-18T21:53:55+02:00*%
%TF.ProjectId,DaewooSlotExpander,44616577-6f6f-4536-9c6f-74457870616e,1.1*%
%TF.SameCoordinates,Original*%
%TF.FileFunction,Copper,L2,Bot*%
%TF.FilePolarity,Positive*%
%FSLAX46Y46*%
G04 Gerber Fmt 4.6, Leading zero omitted, Abs format (unit mm)*
G04 Created by KiCad (PCBNEW 9.0.3) date 2025-10-18 21:53:55*
%MOMM*%
%LPD*%
G01*
G04 APERTURE LIST*
G04 Aperture macros list*
%AMRoundRect*
0 Rectangle with rounded corners*
0 $1 Rounding radius*
0 $2 $3 $4 $5 $6 $7 $8 $9 X,Y pos of 4 corners*
0 Add a 4 corners polygon primitive as box body*
4,1,4,$2,$3,$4,$5,$6,$7,$8,$9,$2,$3,0*
0 Add four circle primitives for the rounded corners*
1,1,$1+$1,$2,$3*
1,1,$1+$1,$4,$5*
1,1,$1+$1,$6,$7*
1,1,$1+$1,$8,$9*
0 Add four rect primitives between the rounded corners*
20,1,$1+$1,$2,$3,$4,$5,0*
20,1,$1+$1,$4,$5,$6,$7,0*
20,1,$1+$1,$6,$7,$8,$9,0*
20,1,$1+$1,$8,$9,$2,$3,0*%
G04 Aperture macros list end*
%TA.AperFunction,ComponentPad*%
%ADD10RoundRect,0.250000X0.550000X0.550000X-0.550000X0.550000X-0.550000X-0.550000X0.550000X-0.550000X0*%
%TD*%
%TA.AperFunction,ComponentPad*%
%ADD11C,1.600000*%
%TD*%
%TA.AperFunction,ComponentPad*%
%ADD12RoundRect,0.250000X0.550000X-0.550000X0.550000X0.550000X-0.550000X0.550000X-0.550000X-0.550000X0*%
%TD*%
%TA.AperFunction,ComponentPad*%
%ADD13R,1.700000X1.700000*%
%TD*%
%TA.AperFunction,ComponentPad*%
%ADD14C,1.700000*%
%TD*%
%TA.AperFunction,SMDPad,CuDef*%
%ADD15RoundRect,0.250000X0.250000X0.475000X-0.250000X0.475000X-0.250000X-0.475000X0.250000X-0.475000X0*%
%TD*%
%TA.AperFunction,ComponentPad*%
%ADD16RoundRect,0.250000X0.600000X-0.600000X0.600000X0.600000X-0.600000X0.600000X-0.600000X-0.600000X0*%
%TD*%
%TA.AperFunction,SMDPad,CuDef*%
%ADD17RoundRect,0.250000X-0.475000X0.250000X-0.475000X-0.250000X0.475000X-0.250000X0.475000X0.250000X0*%
%TD*%
%TA.AperFunction,SMDPad,CuDef*%
%ADD18RoundRect,0.250000X-0.450000X0.262500X-0.450000X-0.262500X0.450000X-0.262500X0.450000X0.262500X0*%
%TD*%
%TA.AperFunction,SMDPad,CuDef*%
%ADD19RoundRect,0.250000X-0.250000X-0.475000X0.250000X-0.475000X0.250000X0.475000X-0.250000X0.475000X0*%
%TD*%
%TA.AperFunction,SMDPad,CuDef*%
%ADD20RoundRect,0.250000X0.450000X-0.262500X0.450000X0.262500X-0.450000X0.262500X-0.450000X-0.262500X0*%
%TD*%
%TA.AperFunction,SMDPad,CuDef*%
%ADD21RoundRect,0.250000X0.262500X0.450000X-0.262500X0.450000X-0.262500X-0.450000X0.262500X-0.450000X0*%
%TD*%
%TA.AperFunction,ViaPad*%
%ADD22C,0.600000*%
%TD*%
%TA.AperFunction,Conductor*%
%ADD23C,0.250000*%
%TD*%
%TA.AperFunction,Conductor*%
%ADD24C,0.500000*%
%TD*%
%TA.AperFunction,Conductor*%
%ADD25C,0.400000*%
%TD*%
%TA.AperFunction,Conductor*%
%ADD26C,0.350000*%
%TD*%
G04 APERTURE END LIST*
D10*
%TO.P,C6,1*%
%TO.N,VCC*%
X112500000Y-66600000D03*
D11*
%TO.P,C6,2*%
%TO.N,GND*%
X110499999Y-66600000D03*
%TD*%
D12*
%TO.P,U3,1,A15*%
%TO.N,A15*%
X114090000Y-116709149D03*
D11*
%TO.P,U3,2,A12*%
%TO.N,A12*%
X116630000Y-116709149D03*
%TO.P,U3,3,A7*%
%TO.N,A7*%
X119169999Y-116709149D03*
%TO.P,U3,4,A6*%
%TO.N,A6*%
X121710000Y-116709149D03*
%TO.P,U3,5,A5*%
%TO.N,A5*%
X124250000Y-116709149D03*
%TO.P,U3,6,A4*%
%TO.N,A4*%
X126790000Y-116709149D03*
%TO.P,U3,7,A3*%
%TO.N,A3*%
X129330000Y-116709149D03*
%TO.P,U3,8,A2*%
%TO.N,A2*%
X131870001Y-116709149D03*
%TO.P,U3,9,A1*%
%TO.N,A1*%
X134410000Y-116709149D03*
%TO.P,U3,10,A0*%
%TO.N,A0*%
X136950000Y-116709149D03*
%TO.P,U3,11,D0*%
%TO.N,D0*%
X139490000Y-116709149D03*
%TO.P,U3,12,D1*%
%TO.N,D1*%
X142029999Y-116709149D03*
%TO.P,U3,13,D2*%
%TO.N,D2*%
X144570000Y-116709149D03*
%TO.P,U3,14,GND*%
%TO.N,GND*%
X147110000Y-116709149D03*
%TO.P,U3,15,D3*%
%TO.N,D3*%
X147110000Y-101469149D03*
%TO.P,U3,16,D4*%
%TO.N,D4*%
X144570000Y-101469149D03*
%TO.P,U3,17,D5*%
%TO.N,D5*%
X142030000Y-101469149D03*
%TO.P,U3,18,D6*%
%TO.N,D6*%
X139490000Y-101469149D03*
%TO.P,U3,19,D7*%
%TO.N,D7*%
X136950000Y-101469149D03*
%TO.P,U3,20,~{CE}*%
%TO.N,MY_SLTSEL0*%
X134410000Y-101469149D03*
%TO.P,U3,21,A10*%
%TO.N,A10*%
X131870000Y-101469149D03*
%TO.P,U3,22,~{OE}*%
%TO.N,RD*%
X129330000Y-101469149D03*
%TO.P,U3,23,A11*%
%TO.N,A11*%
X126790000Y-101469149D03*
%TO.P,U3,24,A9*%
%TO.N,A9*%
X124250000Y-101469149D03*
%TO.P,U3,25,A8*%
%TO.N,A8*%
X121710000Y-101469149D03*
%TO.P,U3,26,A13*%
%TO.N,A13*%
X119170000Y-101469149D03*
%TO.P,U3,27,A14*%
%TO.N,A14*%
X116630000Y-101469149D03*
%TO.P,U3,28,VCC*%
%TO.N,VCC*%
X114090000Y-101469149D03*
%TD*%
D13*
%TO.P,BUS_Expansion2,1,~{CS1}*%
%TO.N,CS1*%
X161770000Y-125599148D03*
D14*
%TO.P,BUS_Expansion2,2,~{CS2}*%
%TO.N,CS2*%
X164310000Y-125599148D03*
%TO.P,BUS_Expansion2,3,~{CS12}*%
%TO.N,CS12*%
X161770000Y-123059148D03*
%TO.P,BUS_Expansion2,4,~{SLTSL}*%
%TO.N,MY_SLTSEL1*%
X164310000Y-123059148D03*
%TO.P,BUS_Expansion2,5,NC*%
%TO.N,unconnected-(BUS_Expansion2-NC-Pad5)*%
X161770000Y-120519149D03*
%TO.P,BUS_Expansion2,6,~{RFSH}*%
%TO.N,RFSH*%
X164310000Y-120519148D03*
%TO.P,BUS_Expansion2,7,~{WAIT}*%
%TO.N,WAIT*%
X161770000Y-117979148D03*
%TO.P,BUS_Expansion2,8,~{INT}*%
%TO.N,INT*%
X164310000Y-117979148D03*
%TO.P,BUS_Expansion2,9,~{M1}*%
%TO.N,M1*%
X161770000Y-115439148D03*
%TO.P,BUS_Expansion2,10,~{BUSDIR}*%
%TO.N,MY_BUSDIR1*%
X164310000Y-115439148D03*
%TO.P,BUS_Expansion2,11,~{IORQ}*%
%TO.N,IORQ*%
X161770000Y-112899148D03*
%TO.P,BUS_Expansion2,12,~{MERQ}*%
%TO.N,MERQ*%
X164310000Y-112899148D03*
%TO.P,BUS_Expansion2,13,~{WR}*%
%TO.N,WR*%
X161770000Y-110359148D03*
%TO.P,BUS_Expansion2,14,~{RD}*%
%TO.N,RD*%
X164310000Y-110359148D03*
%TO.P,BUS_Expansion2,15,~{RESET}*%
%TO.N,RST*%
X161770000Y-107819147D03*
%TO.P,BUS_Expansion2,16,NC*%
%TO.N,unconnected-(BUS_Expansion2-NC-Pad16)*%
X164310000Y-107819148D03*
%TO.P,BUS_Expansion2,17,A9*%
%TO.N,A9*%
X161770000Y-105279148D03*
%TO.P,BUS_Expansion2,18,A15*%
%TO.N,A15*%
X164310000Y-105279148D03*
%TO.P,BUS_Expansion2,19,A11*%
%TO.N,A11*%
X161770000Y-102739148D03*
%TO.P,BUS_Expansion2,20,A10*%
%TO.N,A10*%
X164310000Y-102739148D03*
%TO.P,BUS_Expansion2,21,A7*%
%TO.N,A7*%
X161770000Y-100199148D03*
%TO.P,BUS_Expansion2,22,A6*%
%TO.N,A6*%
X164310000Y-100199148D03*
%TO.P,BUS_Expansion2,23,A12*%
%TO.N,A12*%
X161770000Y-97659149D03*
%TO.P,BUS_Expansion2,24,A8*%
%TO.N,A8*%
X164310000Y-97659148D03*
%TO.P,BUS_Expansion2,25,A14*%
%TO.N,A14*%
X161770000Y-95119148D03*
%TO.P,BUS_Expansion2,26,A13*%
%TO.N,A13*%
X164310000Y-95119148D03*
%TO.P,BUS_Expansion2,27,A1*%
%TO.N,A1*%
X161770000Y-92579148D03*
%TO.P,BUS_Expansion2,28,A0*%
%TO.N,A0*%
X164310000Y-92579148D03*
%TO.P,BUS_Expansion2,29,A3*%
%TO.N,A3*%
X161770000Y-90039148D03*
%TO.P,BUS_Expansion2,30,A2*%
%TO.N,A2*%
X164310000Y-90039148D03*
%TO.P,BUS_Expansion2,31,A5*%
%TO.N,A5*%
X161770000Y-87499149D03*
%TO.P,BUS_Expansion2,32,A4*%
%TO.N,A4*%
X164310000Y-87499148D03*
%TO.P,BUS_Expansion2,33,D1*%
%TO.N,D1*%
X161770000Y-84959147D03*
%TO.P,BUS_Expansion2,34,D0*%
%TO.N,D0*%
X164310000Y-84959148D03*
%TO.P,BUS_Expansion2,35,D3*%
%TO.N,D3*%
X161770000Y-82419148D03*
%TO.P,BUS_Expansion2,36,D2~{}*%
%TO.N,D2*%
X164310000Y-82419148D03*
%TO.P,BUS_Expansion2,37,D5*%
%TO.N,D5*%
X161770000Y-79879148D03*
%TO.P,BUS_Expansion2,38,D4*%
%TO.N,D4*%
X164310000Y-79879148D03*
%TO.P,BUS_Expansion2,39,D7*%
%TO.N,D7*%
X161770000Y-77339148D03*
%TO.P,BUS_Expansion2,40,D6*%
%TO.N,D6*%
X164310000Y-77339148D03*
%TO.P,BUS_Expansion2,41,GND*%
%TO.N,GND*%
X161770000Y-74799149D03*
%TO.P,BUS_Expansion2,42,CLOCK*%
%TO.N,CLK*%
X164310000Y-74799148D03*
%TO.P,BUS_Expansion2,43,GND*%
%TO.N,GND*%
X161770000Y-72259148D03*
%TO.P,BUS_Expansion2,44,SW1*%
%TO.N,SW1*%
X164310000Y-72259148D03*
%TO.P,BUS_Expansion2,45,VCC*%
%TO.N,VCC*%
X161770000Y-69719148D03*
%TO.P,BUS_Expansion2,46,SW2*%
%TO.N,SW2*%
X164310000Y-69719148D03*
%TO.P,BUS_Expansion2,47,VCC*%
%TO.N,VCC*%
X161770000Y-67179148D03*
%TO.P,BUS_Expansion2,48,+12V*%
%TO.N,+12V*%
X164310000Y-67179148D03*
%TO.P,BUS_Expansion2,49,SOUNDIN*%
%TO.N,SNDIN*%
X161770000Y-64639149D03*
%TO.P,BUS_Expansion2,50,-12V*%
%TO.N,-12V*%
X164310000Y-64639148D03*
%TD*%
D10*
%TO.P,C7,1*%
%TO.N,VCC3.3V*%
X112500000Y-77000000D03*
D11*
%TO.P,C7,2*%
%TO.N,GND*%
X110499999Y-77000000D03*
%TD*%
D13*
%TO.P,BUS_Expansion3,1,~{CS1}*%
%TO.N,CS1*%
X182690001Y-125599148D03*
D14*
%TO.P,BUS_Expansion3,2,~{CS2}*%
%TO.N,CS2*%
X185230001Y-125599148D03*
%TO.P,BUS_Expansion3,3,~{CS12}*%
%TO.N,CS12*%
X182690001Y-123059148D03*
%TO.P,BUS_Expansion3,4,~{SLTSL}*%
%TO.N,MY_SLTSEL2*%
X185230001Y-123059148D03*
%TO.P,BUS_Expansion3,5,NC*%
%TO.N,unconnected-(BUS_Expansion3-NC-Pad5)*%
X182690001Y-120519149D03*
%TO.P,BUS_Expansion3,6,~{RFSH}*%
%TO.N,RFSH*%
X185230001Y-120519148D03*
%TO.P,BUS_Expansion3,7,~{WAIT}*%
%TO.N,WAIT*%
X182690001Y-117979148D03*
%TO.P,BUS_Expansion3,8,~{INT}*%
%TO.N,INT*%
X185230001Y-117979148D03*
%TO.P,BUS_Expansion3,9,~{M1}*%
%TO.N,M1*%
X182690001Y-115439148D03*
%TO.P,BUS_Expansion3,10,~{BUSDIR}*%
%TO.N,MY_BUSDIR2*%
X185230001Y-115439148D03*
%TO.P,BUS_Expansion3,11,~{IORQ}*%
%TO.N,IORQ*%
X182690001Y-112899148D03*
%TO.P,BUS_Expansion3,12,~{MERQ}*%
%TO.N,MERQ*%
X185230001Y-112899148D03*
%TO.P,BUS_Expansion3,13,~{WR}*%
%TO.N,WR*%
X182690001Y-110359148D03*
%TO.P,BUS_Expansion3,14,~{RD}*%
%TO.N,RD*%
X185230001Y-110359148D03*
%TO.P,BUS_Expansion3,15,~{RESET}*%
%TO.N,RST*%
X182690001Y-107819147D03*
%TO.P,BUS_Expansion3,16,NC*%
%TO.N,unconnected-(BUS_Expansion3-NC-Pad16)*%
X185230001Y-107819148D03*
%TO.P,BUS_Expansion3,17,A9*%
%TO.N,A9*%
X182690001Y-105279148D03*
%TO.P,BUS_Expansion3,18,A15*%
%TO.N,A15*%
X185230001Y-105279148D03*
%TO.P,BUS_Expansion3,19,A11*%
%TO.N,A11*%
X182690001Y-102739148D03*
%TO.P,BUS_Expansion3,20,A10*%
%TO.N,A10*%
X185230001Y-102739148D03*
%TO.P,BUS_Expansion3,21,A7*%
%TO.N,A7*%
X182690001Y-100199148D03*
%TO.P,BUS_Expansion3,22,A6*%
%TO.N,A6*%
X185230001Y-100199148D03*
%TO.P,BUS_Expansion3,23,A12*%
%TO.N,A12*%
X182690001Y-97659149D03*
%TO.P,BUS_Expansion3,24,A8*%
%TO.N,A8*%
X185230001Y-97659148D03*
%TO.P,BUS_Expansion3,25,A14*%
%TO.N,A14*%
X182690001Y-95119148D03*
%TO.P,BUS_Expansion3,26,A13*%
%TO.N,A13*%
X185230001Y-95119148D03*
%TO.P,BUS_Expansion3,27,A1*%
%TO.N,A1*%
X182690001Y-92579148D03*
%TO.P,BUS_Expansion3,28,A0*%
%TO.N,A0*%
X185230001Y-92579148D03*
%TO.P,BUS_Expansion3,29,A3*%
%TO.N,A3*%
X182690001Y-90039148D03*
%TO.P,BUS_Expansion3,30,A2*%
%TO.N,A2*%
X185230001Y-90039148D03*
%TO.P,BUS_Expansion3,31,A5*%
%TO.N,A5*%
X182690001Y-87499149D03*
%TO.P,BUS_Expansion3,32,A4*%
%TO.N,A4*%
X185230001Y-87499148D03*
%TO.P,BUS_Expansion3,33,D1*%
%TO.N,D1*%
X182690001Y-84959147D03*
%TO.P,BUS_Expansion3,34,D0*%
%TO.N,D0*%
X185230001Y-84959148D03*
%TO.P,BUS_Expansion3,35,D3*%
%TO.N,D3*%
X182690001Y-82419148D03*
%TO.P,BUS_Expansion3,36,D2~{}*%
%TO.N,D2*%
X185230001Y-82419148D03*
%TO.P,BUS_Expansion3,37,D5*%
%TO.N,D5*%
X182690001Y-79879148D03*
%TO.P,BUS_Expansion3,38,D4*%
%TO.N,D4*%
X185230001Y-79879148D03*
%TO.P,BUS_Expansion3,39,D7*%
%TO.N,D7*%
X182690001Y-77339148D03*
%TO.P,BUS_Expansion3,40,D6*%
%TO.N,D6*%
X185230001Y-77339148D03*
%TO.P,BUS_Expansion3,41,GND*%
%TO.N,GND*%
X182690001Y-74799149D03*
%TO.P,BUS_Expansion3,42,CLOCK*%
%TO.N,CLK*%
X185230001Y-74799148D03*
%TO.P,BUS_Expansion3,43,GND*%
%TO.N,GND*%
X182690001Y-72259148D03*
%TO.P,BUS_Expansion3,44,SW1*%
%TO.N,SW1*%
X185230001Y-72259148D03*
%TO.P,BUS_Expansion3,45,VCC*%
%TO.N,VCC*%
X182690001Y-69719148D03*
%TO.P,BUS_Expansion3,46,SW2*%
%TO.N,SW2*%
X185230001Y-69719148D03*
%TO.P,BUS_Expansion3,47,VCC*%
%TO.N,VCC*%
X182690001Y-67179148D03*
%TO.P,BUS_Expansion3,48,+12V*%
%TO.N,+12V*%
X185230001Y-67179148D03*
%TO.P,BUS_Expansion3,49,SOUNDIN*%
%TO.N,Net-(BUS_Expansion3-SOUNDIN)*%
X182690001Y-64639149D03*
%TO.P,BUS_Expansion3,50,-12V*%
%TO.N,-12V*%
X185230001Y-64639148D03*
%TD*%
D13*
%TO.P,BUS_Expansion1,1,~{CS1}*%
%TO.N,CS1*%
X107100001Y-125619148D03*
D14*
%TO.P,BUS_Expansion1,2,~{CS2}*%
%TO.N,CS2*%
X104560000Y-125619148D03*
%TO.P,BUS_Expansion1,3,~{CS12}*%
%TO.N,CS12*%
X107100000Y-123079149D03*
%TO.P,BUS_Expansion1,4,~{SLTSL}*%
%TO.N,SLTSEL*%
X104560000Y-123079149D03*
%TO.P,BUS_Expansion1,5,NC*%
%TO.N,SLTSEL_ALT*%
X107100000Y-120539149D03*
%TO.P,BUS_Expansion1,6,~{RFSH}*%
%TO.N,RFSH*%
X104560000Y-120539149D03*
%TO.P,BUS_Expansion1,7,~{WAIT}*%
%TO.N,WAIT*%
X107100000Y-117999149D03*
%TO.P,BUS_Expansion1,8,~{INT}*%
%TO.N,INT*%
X104560000Y-117999149D03*
%TO.P,BUS_Expansion1,9,~{M1}*%
%TO.N,M1*%
X107100001Y-115459149D03*
%TO.P,BUS_Expansion1,10,~{BUSDIR}*%
%TO.N,BUSDIR*%
X104560000Y-115459149D03*
%TO.P,BUS_Expansion1,11,~{IORQ}*%
%TO.N,IORQ*%
X107100000Y-112919148D03*
%TO.P,BUS_Expansion1,12,~{MERQ}*%
%TO.N,MERQ*%
X104560000Y-112919148D03*
%TO.P,BUS_Expansion1,13,~{WR}*%
%TO.N,WR*%
X107100000Y-110379149D03*
%TO.P,BUS_Expansion1,14,~{RD}*%
%TO.N,RD*%
X104560000Y-110379149D03*
%TO.P,BUS_Expansion1,15,~{RESET}*%
%TO.N,RST*%
X107100000Y-107839149D03*
%TO.P,BUS_Expansion1,16,NC*%
%TO.N,unconnected-(BUS_Expansion1-NC-Pad16)*%
X104560000Y-107839149D03*
%TO.P,BUS_Expansion1,17,A9*%
%TO.N,A9*%
X107100001Y-105299149D03*
%TO.P,BUS_Expansion1,18,A15*%
%TO.N,A15*%
X104560000Y-105299149D03*
%TO.P,BUS_Expansion1,19,A11*%
%TO.N,A11*%
X107100001Y-102759148D03*
%TO.P,BUS_Expansion1,20,A10*%
%TO.N,A10*%
X104560000Y-102759148D03*
%TO.P,BUS_Expansion1,21,A7*%
%TO.N,A7*%
X107100000Y-100219149D03*
%TO.P,BUS_Expansion1,22,A6*%
%TO.N,A6*%
X104560000Y-100219149D03*
%TO.P,BUS_Expansion1,23,A12*%
%TO.N,A12*%
X107100000Y-97679149D03*
%TO.P,BUS_Expansion1,24,A8*%
%TO.N,A8*%
X104560000Y-97679149D03*
%TO.P,BUS_Expansion1,25,A14*%
%TO.N,A14*%
X107100001Y-95139149D03*
%TO.P,BUS_Expansion1,26,A13*%
%TO.N,A13*%
X104560000Y-95139149D03*
%TO.P,BUS_Expansion1,27,A1*%
%TO.N,A1*%
X107100001Y-92599149D03*
%TO.P,BUS_Expansion1,28,A0*%
%TO.N,A0*%
X104560000Y-92599148D03*
%TO.P,BUS_Expansion1,29,A3*%
%TO.N,A3*%
X107100000Y-90059148D03*
%TO.P,BUS_Expansion1,30,A2*%
%TO.N,A2*%
X104560000Y-90059148D03*
%TO.P,BUS_Expansion1,31,A5*%
%TO.N,A5*%
X107100000Y-87519149D03*
%TO.P,BUS_Expansion1,32,A4*%
%TO.N,A4*%
X104560000Y-87519149D03*
%TO.P,BUS_Expansion1,33,D1*%
%TO.N,D1*%
X107100000Y-84979149D03*
%TO.P,BUS_Expansion1,34,D0*%
%TO.N,D0*%
X104560000Y-84979149D03*
%TO.P,BUS_Expansion1,35,D3*%
%TO.N,D3*%
X107100001Y-82439149D03*
%TO.P,BUS_Expansion1,36,D2~{}*%
%TO.N,D2*%
X104560000Y-82439149D03*
%TO.P,BUS_Expansion1,37,D5*%
%TO.N,D5*%
X107100001Y-79899148D03*
%TO.P,BUS_Expansion1,38,D4*%
%TO.N,D4*%
X104560000Y-79899148D03*
%TO.P,BUS_Expansion1,39,D7*%
%TO.N,D7*%
X107100000Y-77359149D03*
%TO.P,BUS_Expansion1,40,D6*%
%TO.N,D6*%
X104560000Y-77359149D03*
%TO.P,BUS_Expansion1,41,GND*%
%TO.N,GND*%
X107100000Y-74819149D03*
%TO.P,BUS_Expansion1,42,CLOCK*%
%TO.N,CLK*%
X104560000Y-74819149D03*
%TO.P,BUS_Expansion1,43,GND*%
%TO.N,GND*%
X107100001Y-72279149D03*
%TO.P,BUS_Expansion1,44,SW1*%
%TO.N,SW1*%
X104560000Y-72279149D03*
%TO.P,BUS_Expansion1,45,VCC*%
%TO.N,VCC*%
X107100000Y-69739148D03*
%TO.P,BUS_Expansion1,46,SW2*%
%TO.N,SW2*%
X104560000Y-69739148D03*
%TO.P,BUS_Expansion1,47,VCC*%
%TO.N,VCC*%
X107100000Y-67199149D03*
%TO.P,BUS_Expansion1,48,+12V*%
%TO.N,+12V*%
X104560000Y-67199149D03*
%TO.P,BUS_Expansion1,49,SOUNDIN*%
%TO.N,SNDIN*%
X107100000Y-64659149D03*
%TO.P,BUS_Expansion1,50,-12V*%
%TO.N,-12V*%
X104560000Y-64659149D03*
%TD*%
D15*
%TO.P,C2,1*%
%TO.N,VCC*%
X128049998Y-74439149D03*
%TO.P,C2,2*%
%TO.N,GND*%
X126150000Y-74439149D03*
%TD*%
D16*
%TO.P,J1,1,TCK*%
%TO.N,TCK*%
X135400000Y-110479149D03*
D14*
%TO.P,J1,2,GND*%
%TO.N,GND*%
X135400000Y-107939149D03*
%TO.P,J1,3,TDO*%
%TO.N,TDO*%
X132860000Y-110479149D03*
%TO.P,J1,4,VREF*%
%TO.N,VCC3.3V*%
X132860000Y-107939149D03*
%TO.P,J1,5,TMS*%
%TO.N,TMS*%
X130320001Y-110479149D03*
%TO.P,J1,6,~{SRST}*%
%TO.N,unconnected-(J1-~{SRST}-Pad6)*%
X130320000Y-107939149D03*
%TO.P,J1,7,VCC*%
%TO.N,unconnected-(J1-VCC-Pad7)*%
X127780000Y-110479149D03*
%TO.P,J1,8,~{TRST}*%
%TO.N,unconnected-(J1-~{TRST}-Pad8)*%
X127780000Y-107939149D03*
%TO.P,J1,9,TDI*%
%TO.N,TDI*%
X125240000Y-110479149D03*
%TO.P,J1,10,GND*%
%TO.N,GND*%
X125240000Y-107939149D03*
%TD*%
D17*
%TO.P,C5,1*%
%TO.N,VCC*%
X115450000Y-107989149D03*
%TO.P,C5,2*%
%TO.N,GND*%
X115450000Y-109889147D03*
%TD*%
D18*
%TO.P,R2,1*%
%TO.N,VCC3.3V*%
X142700000Y-108176649D03*
%TO.P,R2,2*%
%TO.N,TMS*%
X142700000Y-110001649D03*
%TD*%
D19*
%TO.P,C1,1*%
%TO.N,VCC3.3V*%
X121900000Y-74439149D03*
%TO.P,C1,2*%
%TO.N,GND*%
X123800000Y-74439149D03*
%TD*%
D20*
%TO.P,R1,1*%
%TO.N,TCK*%
X145050000Y-110001649D03*
%TO.P,R1,2*%
%TO.N,GND*%
X145050000Y-108176649D03*
%TD*%
D19*
%TO.P,C3,1*%
%TO.N,VCC3.3V*%
X128000000Y-91959149D03*
%TO.P,C3,2*%
%TO.N,GND*%
X129900000Y-91959149D03*
%TD*%
D21*
%TO.P,R3,1*%
%TO.N,Net-(BUS_Expansion3-SOUNDIN)*%
X179362500Y-64589149D03*
%TO.P,R3,2*%
%TO.N,SNDIN*%
X177537500Y-64589149D03*
%TD*%
D15*
%TO.P,C4,1*%
%TO.N,VCC3.3V*%
X133299998Y-91959149D03*
%TO.P,C4,2*%
%TO.N,GND*%
X131400000Y-91959149D03*
%TD*%
D22*
%TO.N,SW1*%
X115100000Y-72339149D03*
%TO.N,SNDIN*%
X156800000Y-65839149D03*
X115100000Y-66289149D03*
X166750000Y-64589149D03*
%TO.N,RST*%
X112450000Y-89389149D03*
X124450000Y-89389149D03*
X113001000Y-112114149D03*
%TO.N,CLK*%
X119200000Y-76045149D03*
%TO.N,BUSDIR*%
X111800000Y-83064149D03*
X119900000Y-83064149D03*
X112427369Y-116084149D03*
%TO.N,RFSH*%
X135850000Y-121765149D03*
%TO.N,GND*%
X112900000Y-84339149D03*
X157100000Y-116739149D03*
X152000000Y-109089149D03*
X152850000Y-116739149D03*
X187150000Y-102689149D03*
X152000000Y-116739149D03*
X116050000Y-94450149D03*
X187150000Y-95039149D03*
X140350000Y-94439149D03*
X139850000Y-107289149D03*
X137850000Y-94489149D03*
X173200000Y-120739149D03*
X157800000Y-94439149D03*
X187150000Y-117989149D03*
X123500000Y-106864149D03*
X115100000Y-65489149D03*
X121750000Y-109439149D03*
X117250000Y-84339149D03*
X146250000Y-94439149D03*
X157950000Y-65889149D03*
X134450000Y-84214149D03*
X117600000Y-73700000D03*
X158350000Y-109089149D03*
X113800000Y-66600000D03*
X157950000Y-74889149D03*
X187150000Y-110339149D03*
X166800000Y-71939149D03*
X179900000Y-74789149D03*
X157950000Y-116739149D03*
X126750000Y-89314149D03*
X137000000Y-107289149D03*
X179900000Y-71939149D03*
X187150000Y-87439149D03*
X111950000Y-73700000D03*
X136700000Y-84289149D03*
X139850000Y-111139149D03*
X136700000Y-89389149D03*
X134450000Y-89339149D03*
X119200000Y-109439149D03*
X121750000Y-108689149D03*
X152850000Y-109089149D03*
X124400000Y-85589149D03*
X116050000Y-84339149D03*
X157950000Y-73489149D03*
X187150000Y-79889149D03*
X116050000Y-85639149D03*
X118500000Y-73700000D03*
X166800000Y-74789149D03*
X126750000Y-84239149D03*
X157500000Y-109089149D03*
X134450000Y-85589149D03*
X117250000Y-85639149D03*
X187150000Y-72239149D03*
X119200000Y-108689149D03*
X126750000Y-85589149D03*
X112800000Y-73700000D03*
X136700000Y-85589149D03*
X112900000Y-85639149D03*
X120050000Y-84339149D03*
X130650000Y-91959149D03*
X173200000Y-112739149D03*
X117250000Y-94450149D03*
%TO.N,VCC*%
X128050000Y-72939149D03*
X115450000Y-106889149D03*
%TO.N,+12V*%
X115100000Y-67189149D03*
X159000000Y-67179148D03*
%TO.N,A8*%
X121700000Y-98905149D03*
X137600000Y-98905149D03*
%TO.N,A9*%
X147500000Y-105299149D03*
X124250000Y-105299149D03*
X140050000Y-91910148D03*
X150300000Y-91910148D03*
%TO.N,A14*%
X116650000Y-95139149D03*
X139475000Y-95139149D03*
%TO.N,D2*%
X149550000Y-83665149D03*
X121074000Y-83739149D03*
%TO.N,D1*%
X148926000Y-85013149D03*
X121000000Y-84979149D03*
%TO.N,WR*%
X126600000Y-112764149D03*
X129600000Y-96989149D03*
X131900000Y-96989149D03*
%TO.N,SW2*%
X115100000Y-69639149D03*
%TO.N,D3*%
X144225000Y-82439149D03*
X121000000Y-82439149D03*
%TO.N,A2*%
X119850000Y-91285148D03*
X109225000Y-91263149D03*
%TO.N,D4*%
X121000000Y-81125148D03*
X143575000Y-81125148D03*
%TO.N,RD*%
X132750000Y-98339149D03*
X129050000Y-113364149D03*
X129350000Y-98339149D03*
%TO.N,A13*%
X119200000Y-96365149D03*
X138850000Y-96365149D03*
%TO.N,D7*%
X141100000Y-77359149D03*
X123750000Y-77359149D03*
%TO.N,D5*%
X142950000Y-79949148D03*
X121000000Y-79899148D03*
%TO.N,A10*%
X140050000Y-90660148D03*
X131900000Y-103985148D03*
X150850000Y-90639149D03*
X149700000Y-103985148D03*
%TO.N,D6*%
X142250000Y-78585149D03*
X123750000Y-78585149D03*
%TO.N,A3*%
X119850000Y-90059148D03*
X109850000Y-90059148D03*
%TO.N,A4*%
X119850000Y-88745149D03*
X110475000Y-88745149D03*
%TO.N,A0*%
X123650000Y-93825149D03*
X141601000Y-93825149D03*
%TO.N,A6*%
X136325000Y-100293149D03*
X111750000Y-100314149D03*
%TO.N,A5*%
X111100000Y-87519149D03*
X119850000Y-87519149D03*
%TO.N,A12*%
X138225000Y-97679149D03*
X115350000Y-97679149D03*
%TO.N,D0*%
X119850000Y-86205149D03*
X148300000Y-86189149D03*
%TO.N,A15*%
X114100000Y-106525149D03*
X140050000Y-88039149D03*
X151600000Y-106239149D03*
X152200000Y-88064149D03*
%TO.N,A7*%
X136950000Y-99639149D03*
X117900000Y-99618149D03*
%TO.N,A11*%
X126750000Y-102759148D03*
X140050000Y-89364149D03*
X151600000Y-102759148D03*
X151450000Y-89364149D03*
%TO.N,A1*%
X124600000Y-92599149D03*
X108600000Y-92599149D03*
%TO.N,MY_SLTSEL*%
X120050000Y-81750148D03*
X110950000Y-81814149D03*
%TO.N,MY_SLTSEL1*%
X152941000Y-85580149D03*
X140050000Y-85589149D03*
%TO.N,MY_BUSDIR1*%
X140050000Y-83014149D03*
X158600000Y-116139149D03*
X152950000Y-82814149D03*
%TO.N,MY_BUSDIR2*%
X152950000Y-81514149D03*
X140050000Y-81764149D03*
%TO.N,MY_SLTSEL2*%
X140050000Y-84290149D03*
X152950000Y-84214149D03*
%TO.N,VCC3.3V*%
X120700000Y-76889149D03*
X120700000Y-74439149D03*
X127100000Y-92089149D03*
X134100000Y-92089149D03*
%TO.N,TCK*%
X131250000Y-106864149D03*
%TO.N,TMS*%
X123350000Y-109189149D03*
%TD*%
D23*
%TO.N,MERQ*%
X107844000Y-114233149D02*
X106244000Y-114233149D01*
X108400000Y-114789149D02*
X107844000Y-114233149D01*
X158600000Y-114789149D02*
X108400000Y-114789149D01*
X104929999Y-112919148D02*
X104560000Y-112919148D01*
X165486000Y-111723148D02*
X164310000Y-112899148D01*
X106244000Y-114233149D02*
X104929999Y-112919148D01*
X159314001Y-114075148D02*
X158600000Y-114789149D01*
X184054001Y-111723148D02*
X165486000Y-111723148D01*
X164310000Y-112899148D02*
X163134000Y-114075148D01*
X163134000Y-114075148D02*
X159314001Y-114075148D01*
X185230001Y-112899148D02*
X184054001Y-111723148D01*
%TO.N,CS2*%
X183866001Y-124235148D02*
X165674000Y-124235148D01*
X185230001Y-125599148D02*
X183866001Y-124235148D01*
X105789999Y-124389149D02*
X104560000Y-125619148D01*
X163100001Y-124389149D02*
X105789999Y-124389149D01*
X165674000Y-124235148D02*
X164310000Y-125599148D01*
X164310000Y-125599148D02*
X163100001Y-124389149D01*
%TO.N,SW1*%
X164310000Y-72259148D02*
X164690001Y-72639149D01*
X164690001Y-72639149D02*
X174254001Y-72639149D01*
X175100000Y-73485148D02*
X184004001Y-73485148D01*
X174254001Y-72639149D02*
X175100000Y-73485148D01*
X161149876Y-71083148D02*
X159973876Y-72259148D01*
X164310000Y-72259148D02*
X163134000Y-71083148D01*
X115180001Y-72259148D02*
X115100000Y-72339149D01*
X184004001Y-73485148D02*
X185230001Y-72259148D01*
X163134000Y-71083148D02*
X161149876Y-71083148D01*
X159973876Y-72259148D02*
X115180001Y-72259148D01*
%TO.N,SNDIN*%
X177537500Y-64589149D02*
X166750000Y-64589149D01*
X156350000Y-66289149D02*
X156800000Y-65839149D01*
X115100000Y-66289149D02*
X156350000Y-66289149D01*
%TO.N,WAIT*%
X161770000Y-117979148D02*
X161749999Y-117999149D01*
X161749999Y-117999149D02*
X107100000Y-117999149D01*
%TO.N,INT*%
X164310000Y-117979148D02*
X163063999Y-119225149D01*
X184054001Y-116803148D02*
X185230001Y-117979148D01*
X173160001Y-117979148D02*
X174336001Y-116803148D01*
X164310000Y-117979148D02*
X173160001Y-117979148D01*
X174336001Y-116803148D02*
X184054001Y-116803148D01*
X105786000Y-119225149D02*
X104560000Y-117999149D01*
X163063999Y-119225149D02*
X105786000Y-119225149D01*
%TO.N,CS1*%
X107100001Y-125619148D02*
X107120001Y-125599148D01*
X107120001Y-125599148D02*
X161770000Y-125599148D01*
%TO.N,RST*%
X124450000Y-89389149D02*
X112450000Y-89389149D01*
X156100000Y-112139149D02*
X111400000Y-112139149D01*
X157449998Y-112139149D02*
X156100000Y-112139149D01*
X161770000Y-107819147D02*
X157449998Y-112139149D01*
X111400000Y-112139149D02*
X107100000Y-107839149D01*
%TO.N,CLK*%
X175100000Y-76025149D02*
X184004000Y-76025149D01*
X184004000Y-76025149D02*
X185230001Y-74799148D01*
X105786000Y-76045149D02*
X108854851Y-76045149D01*
X104560000Y-74819149D02*
X105786000Y-76045149D01*
X164310000Y-74799148D02*
X163063999Y-76045149D01*
X164310000Y-74799148D02*
X166350001Y-76839149D01*
X163063999Y-76045149D02*
X119200000Y-76045149D01*
X109800000Y-75100000D02*
X118254851Y-75100000D01*
X166350001Y-76839149D02*
X174286000Y-76839149D01*
X108854851Y-76045149D02*
X109800000Y-75100000D01*
X174286000Y-76839149D02*
X175100000Y-76025149D01*
X118254851Y-75100000D02*
X119200000Y-76045149D01*
%TO.N,BUSDIR*%
X119900000Y-83064149D02*
X111800000Y-83064149D01*
X112427369Y-116084149D02*
X111688369Y-116823149D01*
X111688369Y-116823149D02*
X105924000Y-116823149D01*
X105924000Y-116823149D02*
X104560000Y-115459149D01*
%TO.N,RFSH*%
X164310000Y-120519148D02*
X164182191Y-120519148D01*
X165485999Y-119343149D02*
X164310000Y-120519148D01*
X162936190Y-121765149D02*
X135850000Y-121765149D01*
X184054002Y-119343149D02*
X165485999Y-119343149D01*
X104560000Y-120539149D02*
X105786000Y-121765149D01*
X105786000Y-121765149D02*
X135850000Y-121765149D01*
X164182191Y-120519148D02*
X162936190Y-121765149D01*
X185230001Y-120519148D02*
X184054002Y-119343149D01*
%TO.N,CS12*%
X163456001Y-121883148D02*
X162280001Y-123059148D01*
X181514001Y-121883148D02*
X163456001Y-121883148D01*
X182690001Y-123059148D02*
X181514001Y-121883148D01*
X162280001Y-123059148D02*
X161770000Y-123059148D01*
X161749999Y-123079149D02*
X107100000Y-123079149D01*
X161770000Y-123059148D02*
X161749999Y-123079149D01*
D24*
%TO.N,-12V*%
X160226001Y-65865149D02*
X159000000Y-64639148D01*
X109050001Y-64639148D02*
X159000000Y-64639148D01*
X104560000Y-64659149D02*
X105786000Y-65885149D01*
D25*
X163059999Y-65889149D02*
X160250001Y-65889149D01*
X105786000Y-65885149D02*
X105840000Y-65939149D01*
X160250001Y-65889149D02*
X160226001Y-65865149D01*
X105840000Y-65939149D02*
X107750000Y-65939149D01*
X184004000Y-65865149D02*
X183980000Y-65889149D01*
D24*
X165536001Y-65865149D02*
X164310000Y-64639148D01*
D25*
X165560001Y-65889149D02*
X165536001Y-65865149D01*
X183980000Y-65889149D02*
X165560001Y-65889149D01*
D24*
X185230001Y-64639148D02*
X184004000Y-65865149D01*
D25*
X107750000Y-65939149D02*
X107804000Y-65885149D01*
D24*
X164310000Y-64639148D02*
X163083999Y-65865149D01*
X107804000Y-65885149D02*
X109050001Y-64639148D01*
D23*
%TO.N,GND*%
X130650000Y-91959149D02*
X129900000Y-91959149D01*
D26*
X107100001Y-72279149D02*
X107100000Y-74819149D01*
D23*
X131400000Y-91959149D02*
X130650000Y-91959149D01*
D25*
%TO.N,VCC*%
X161770000Y-67179148D02*
X160509999Y-68439149D01*
D24*
X128050000Y-74439147D02*
X128049998Y-74439149D01*
D25*
X108340000Y-68439149D02*
X107100000Y-67199149D01*
D24*
X128050000Y-72939149D02*
X128050000Y-74439147D01*
D25*
X161770000Y-69719148D02*
X160499999Y-70989149D01*
D24*
X112500000Y-66600000D02*
X112500000Y-68439149D01*
D25*
X108350001Y-70989149D02*
X107100000Y-69739148D01*
X112500000Y-68439149D02*
X108340000Y-68439149D01*
X107100000Y-67199149D02*
X107100000Y-69739148D01*
D24*
X115450000Y-106889149D02*
X115450000Y-107989149D01*
D25*
X112500000Y-68439149D02*
X159200000Y-68439149D01*
X160499999Y-70989149D02*
X108350001Y-70989149D01*
X160509999Y-68439149D02*
X159200000Y-68439149D01*
%TO.N,+12V*%
X115110001Y-67179148D02*
X115100000Y-67189149D01*
X165570001Y-68439149D02*
X165536000Y-68405148D01*
D24*
X165536000Y-68405148D02*
X164310000Y-67179148D01*
X159000000Y-67179148D02*
X115110001Y-67179148D01*
D25*
X183970000Y-68439149D02*
X165570001Y-68439149D01*
D24*
X185230001Y-67179148D02*
X184004001Y-68405148D01*
D25*
X184004001Y-68405148D02*
X183970000Y-68439149D01*
D23*
%TO.N,A8*%
X104560000Y-97679149D02*
X105786000Y-98905149D01*
X121700000Y-98905149D02*
X121784000Y-98989149D01*
X163063999Y-98905149D02*
X137600000Y-98905149D01*
X121784000Y-98989149D02*
X137516000Y-98989149D01*
X185230001Y-97659148D02*
X184004000Y-98885149D01*
X164310000Y-97659148D02*
X163063999Y-98905149D01*
X137516000Y-98989149D02*
X137600000Y-98905149D01*
X165536001Y-98885149D02*
X164310000Y-97659148D01*
X105786000Y-98905149D02*
X121700000Y-98905149D01*
X184004000Y-98885149D02*
X165536001Y-98885149D01*
%TO.N,A9*%
X161770000Y-105279148D02*
X161749999Y-105299149D01*
X107100001Y-105299149D02*
X124250000Y-105299149D01*
X140050000Y-91910148D02*
X150300000Y-91910148D01*
X161749999Y-105299149D02*
X147500000Y-105299149D01*
X124250000Y-105299149D02*
X147500000Y-105299149D01*
%TO.N,A14*%
X107100001Y-95139149D02*
X116650000Y-95139149D01*
X161770000Y-95119148D02*
X161749999Y-95139149D01*
X161749999Y-95139149D02*
X116650000Y-95139149D01*
%TO.N,D2*%
X185230001Y-82419148D02*
X184004001Y-83645148D01*
X149776000Y-83439149D02*
X149550000Y-83665149D01*
X121074000Y-83739149D02*
X121026000Y-83739149D01*
X107613117Y-83589149D02*
X107587117Y-83615149D01*
X120159298Y-83690149D02*
X119640702Y-83690149D01*
X140309298Y-83640149D02*
X139790702Y-83640149D01*
X111540702Y-83690149D02*
X111439702Y-83589149D01*
X106586885Y-83589149D02*
X105710000Y-83589149D01*
X140360298Y-83589149D02*
X140309298Y-83640149D01*
X120876000Y-83589149D02*
X120260298Y-83589149D01*
X161126885Y-83439149D02*
X149776000Y-83439149D01*
X149474000Y-83589149D02*
X140360298Y-83589149D01*
X161282884Y-83595148D02*
X161126885Y-83439149D01*
X162413115Y-83439149D02*
X162257116Y-83595148D01*
X184004001Y-83645148D02*
X165536000Y-83645148D01*
X111439702Y-83589149D02*
X107613117Y-83589149D01*
X120260298Y-83589149D02*
X120159298Y-83690149D01*
X121224000Y-83589149D02*
X121074000Y-83739149D01*
X149550000Y-83665149D02*
X149474000Y-83589149D01*
X112059298Y-83690149D02*
X111540702Y-83690149D01*
X119640702Y-83690149D02*
X119539702Y-83589149D01*
X112160298Y-83589149D02*
X112059298Y-83690149D01*
X162257116Y-83595148D02*
X161282884Y-83595148D01*
X107587117Y-83615149D02*
X106612885Y-83615149D01*
X106612885Y-83615149D02*
X106586885Y-83589149D01*
X163289999Y-83439149D02*
X162413115Y-83439149D01*
X139739702Y-83589149D02*
X121224000Y-83589149D01*
X119539702Y-83589149D02*
X112160298Y-83589149D01*
X164310000Y-82419148D02*
X163289999Y-83439149D01*
X139790702Y-83640149D02*
X139739702Y-83589149D01*
X105710000Y-83589149D02*
X104560000Y-82439149D01*
X165536000Y-83645148D02*
X164310000Y-82419148D01*
X121026000Y-83739149D02*
X120876000Y-83589149D01*
%TO.N,D1*%
X121000000Y-84979149D02*
X121040000Y-84939149D01*
X121040000Y-84939149D02*
X148964702Y-84939149D01*
X107100000Y-84979149D02*
X121000000Y-84979149D01*
X148964702Y-84939149D02*
X149064702Y-84839149D01*
X161650002Y-84839149D02*
X161770000Y-84959147D01*
X149064702Y-84839149D02*
X161650002Y-84839149D01*
%TO.N,WR*%
X108490000Y-110379149D02*
X107100000Y-110379149D01*
X131900000Y-96989149D02*
X129600000Y-96989149D01*
X110850000Y-112739149D02*
X108490000Y-110379149D01*
X160080001Y-110359148D02*
X157700000Y-112739149D01*
X161770000Y-110359148D02*
X160080001Y-110359148D01*
X157700000Y-112739149D02*
X110850000Y-112739149D01*
%TO.N,SW2*%
X161282884Y-68543148D02*
X160106884Y-69719148D01*
X164310000Y-69719148D02*
X163134000Y-68543148D01*
X115179999Y-69719148D02*
X115100000Y-69639149D01*
X163134000Y-68543148D02*
X161282884Y-68543148D01*
X185230001Y-69719148D02*
X184004001Y-70945148D01*
X160106884Y-69719148D02*
X115179999Y-69719148D01*
X165536000Y-70945148D02*
X164310000Y-69719148D01*
X184004001Y-70945148D02*
X165536000Y-70945148D01*
%TO.N,D3*%
X144225000Y-82439149D02*
X144525000Y-82139149D01*
X121050000Y-82389149D02*
X121000000Y-82439149D01*
X158740002Y-82139149D02*
X159020001Y-82419148D01*
X144525000Y-82139149D02*
X158740002Y-82139149D01*
X107100001Y-82439149D02*
X121000000Y-82439149D01*
X159020001Y-82419148D02*
X161770000Y-82419148D01*
X144225000Y-82439149D02*
X144175000Y-82389149D01*
X144175000Y-82389149D02*
X121050000Y-82389149D01*
%TO.N,A2*%
X184004001Y-91265148D02*
X165536000Y-91265148D01*
X185230001Y-90039148D02*
X184004001Y-91265148D01*
X136031001Y-90466149D02*
X136850000Y-91285148D01*
X109069991Y-91263149D02*
X109047992Y-91285148D01*
X119850000Y-91285148D02*
X109652008Y-91285148D01*
X163064000Y-91285148D02*
X136850000Y-91285148D01*
X124500000Y-91285148D02*
X125318999Y-90466149D01*
X109652008Y-91285148D02*
X109630009Y-91263149D01*
X125318999Y-90466149D02*
X136031001Y-90466149D01*
X124500000Y-91285148D02*
X119850000Y-91285148D01*
X109630009Y-91263149D02*
X109069991Y-91263149D01*
X165536000Y-91265148D02*
X164310000Y-90039148D01*
X105786000Y-91285148D02*
X104560000Y-90059148D01*
X109047992Y-91285148D02*
X105786000Y-91285148D01*
X164310000Y-90039148D02*
X163064000Y-91285148D01*
%TO.N,D4*%
X105786000Y-81125148D02*
X121000000Y-81125148D01*
X164310000Y-79879148D02*
X163099999Y-81089149D01*
X185230001Y-79879148D02*
X184004001Y-81105148D01*
X143810999Y-80889149D02*
X143575000Y-81125148D01*
X121000000Y-81125148D02*
X143575000Y-81125148D01*
X165536000Y-81105148D02*
X164310000Y-79879148D01*
X163099999Y-81089149D02*
X159050000Y-81089149D01*
X159050000Y-81089149D02*
X158850000Y-80889149D01*
X104560000Y-79899148D02*
X105786000Y-81125148D01*
X184004001Y-81105148D02*
X165536000Y-81105148D01*
X158850000Y-80889149D02*
X143810999Y-80889149D01*
%TO.N,RD*%
X129050000Y-113364149D02*
X129025000Y-113389149D01*
X162946000Y-111723148D02*
X159616001Y-111723148D01*
X159616001Y-111723148D02*
X157950000Y-113389149D01*
X106550000Y-111639149D02*
X105290000Y-110379149D01*
X185230001Y-110359148D02*
X184010002Y-109139149D01*
X184010002Y-109139149D02*
X165529999Y-109139149D01*
X129350000Y-98339149D02*
X132750000Y-98339149D01*
X129050000Y-113364149D02*
X129075000Y-113389149D01*
X129025000Y-113389149D02*
X109750000Y-113389149D01*
X129075000Y-113389149D02*
X157950000Y-113389149D01*
X164310000Y-110359148D02*
X162946000Y-111723148D01*
X109750000Y-113389149D02*
X108000000Y-111639149D01*
X108000000Y-111639149D02*
X106550000Y-111639149D01*
X165529999Y-109139149D02*
X164310000Y-110359148D01*
X105290000Y-110379149D02*
X104560000Y-110379149D01*
%TO.N,A13*%
X105786000Y-96365149D02*
X119200000Y-96365149D01*
X159150000Y-96389149D02*
X159000000Y-96239149D01*
X184004001Y-96345148D02*
X165536000Y-96345148D01*
X164310000Y-95119148D02*
X163039999Y-96389149D01*
X119326000Y-96239149D02*
X119200000Y-96365149D01*
X163039999Y-96389149D02*
X159150000Y-96389149D01*
X159000000Y-96239149D02*
X119326000Y-96239149D01*
X104560000Y-95139149D02*
X105786000Y-96365149D01*
X165536000Y-96345148D02*
X164310000Y-95119148D01*
X185230001Y-95119148D02*
X184004001Y-96345148D01*
%TO.N,D7*%
X122409149Y-78700000D02*
X123750000Y-77359149D01*
X109840851Y-78700000D02*
X122409149Y-78700000D01*
X107100000Y-77359149D02*
X108500000Y-77359149D01*
X141100000Y-77359149D02*
X161749999Y-77359149D01*
X161749999Y-77359149D02*
X161770000Y-77339148D01*
X141100000Y-77359149D02*
X123750000Y-77359149D01*
X108500000Y-77359149D02*
X109840851Y-78700000D01*
%TO.N,D5*%
X107100001Y-79899148D02*
X121000000Y-79899148D01*
X143000000Y-79899148D02*
X159000000Y-79899148D01*
X142900000Y-79899148D02*
X142950000Y-79949148D01*
X161770000Y-79879148D02*
X159020000Y-79879148D01*
X121000000Y-79899148D02*
X142900000Y-79899148D01*
X159020000Y-79879148D02*
X159000000Y-79899148D01*
X142950000Y-79949148D02*
X143000000Y-79899148D01*
%TO.N,IORQ*%
X158250000Y-114089149D02*
X108800000Y-114089149D01*
X159440001Y-112899148D02*
X158250000Y-114089149D01*
X161770000Y-112899148D02*
X159440001Y-112899148D01*
X107629999Y-112919148D02*
X107100000Y-112919148D01*
X108800000Y-114089149D02*
X107629999Y-112919148D01*
%TO.N,A10*%
X150829001Y-90660148D02*
X150850000Y-90639149D01*
X185230001Y-102739148D02*
X184004001Y-103965148D01*
X149700000Y-103985148D02*
X131900000Y-103985148D01*
X184004001Y-103965148D02*
X165536000Y-103965148D01*
X104560000Y-102759148D02*
X105786000Y-103985148D01*
X163064000Y-103985148D02*
X149700000Y-103985148D01*
X140050000Y-90660148D02*
X150829001Y-90660148D01*
X165536000Y-103965148D02*
X164310000Y-102739148D01*
X105786000Y-103985148D02*
X131900000Y-103985148D01*
X164310000Y-102739148D02*
X163064000Y-103985148D01*
%TO.N,D6*%
X165536000Y-78565148D02*
X164310000Y-77339148D01*
X142250000Y-78585149D02*
X123750000Y-78585149D01*
X185230001Y-77339148D02*
X184004001Y-78565148D01*
X164310000Y-77339148D02*
X163063999Y-78585149D01*
X184004001Y-78565148D02*
X165536000Y-78565148D01*
X108200000Y-78585149D02*
X108887999Y-79273148D01*
X105786000Y-78585149D02*
X108200000Y-78585149D01*
X104560000Y-77359149D02*
X105786000Y-78585149D01*
X163063999Y-78585149D02*
X142250000Y-78585149D01*
X123062001Y-79273148D02*
X123750000Y-78585149D01*
X108887999Y-79273148D02*
X123062001Y-79273148D01*
%TO.N,A3*%
X109850000Y-90059148D02*
X119850000Y-90059148D01*
X151111298Y-90015149D02*
X151109298Y-90013149D01*
X119893999Y-90015149D02*
X119850000Y-90059148D01*
X151109298Y-90013149D02*
X150590702Y-90013149D01*
X109843999Y-90065149D02*
X107106001Y-90065149D01*
X150590702Y-90013149D02*
X150588702Y-90015149D01*
X161770000Y-90039148D02*
X161746001Y-90015149D01*
X109850000Y-90059148D02*
X109843999Y-90065149D01*
X107106001Y-90065149D02*
X107100000Y-90059148D01*
X150588702Y-90015149D02*
X119893999Y-90015149D01*
X161746001Y-90015149D02*
X151111298Y-90015149D01*
%TO.N,A4*%
X105786000Y-88745149D02*
X104560000Y-87519149D01*
X185230001Y-87499148D02*
X184004000Y-88725149D01*
X119850000Y-88745149D02*
X105786000Y-88745149D01*
X165536001Y-88725149D02*
X164310000Y-87499148D01*
X184004000Y-88725149D02*
X165536001Y-88725149D01*
X164310000Y-87499148D02*
X163119999Y-88689149D01*
X163119999Y-88689149D02*
X119906000Y-88689149D01*
X119906000Y-88689149D02*
X119850000Y-88745149D01*
%TO.N,A0*%
X104560000Y-92599148D02*
X105786001Y-93825149D01*
X165536000Y-93805148D02*
X164310000Y-92579148D01*
X140621298Y-93825149D02*
X141601000Y-93825149D01*
X140609298Y-93813149D02*
X140621298Y-93825149D01*
X123650000Y-93825149D02*
X140078702Y-93825149D01*
X184004001Y-93805148D02*
X165536000Y-93805148D01*
X105786001Y-93825149D02*
X121000000Y-93825149D01*
X140090702Y-93813149D02*
X140609298Y-93813149D01*
X163063999Y-93825149D02*
X141601000Y-93825149D01*
X121000000Y-93825149D02*
X123650000Y-93825149D01*
X140078702Y-93825149D02*
X140090702Y-93813149D01*
X164310000Y-92579148D02*
X163063999Y-93825149D01*
X185230001Y-92579148D02*
X184004001Y-93805148D01*
%TO.N,A6*%
X164310000Y-100199148D02*
X163119999Y-101389149D01*
X105786000Y-101445149D02*
X104560000Y-100219149D01*
X185230001Y-100199148D02*
X184004001Y-101425148D01*
X159700000Y-101389149D02*
X158604000Y-100293149D01*
X165536000Y-101425148D02*
X164310000Y-100199148D01*
X107994000Y-101445149D02*
X105786000Y-101445149D01*
X184004001Y-101425148D02*
X165536000Y-101425148D01*
X163119999Y-101389149D02*
X159700000Y-101389149D01*
X109146000Y-100293149D02*
X107994000Y-101445149D01*
X158604000Y-100293149D02*
X109146000Y-100293149D01*
%TO.N,A5*%
X161770000Y-87499149D02*
X161660000Y-87389149D01*
X111230000Y-87389149D02*
X111100000Y-87519149D01*
X161660000Y-87389149D02*
X111230000Y-87389149D01*
X107100000Y-87519149D02*
X111100000Y-87519149D01*
%TO.N,A12*%
X161770000Y-97659149D02*
X161750000Y-97679149D01*
X161750000Y-97679149D02*
X115350000Y-97679149D01*
X107100000Y-97679149D02*
X115350000Y-97679149D01*
%TO.N,D0*%
X165535999Y-86185147D02*
X164310000Y-84959148D01*
X148300000Y-86189149D02*
X148250000Y-86239149D01*
X148716000Y-86205149D02*
X148700000Y-86189149D01*
X119834000Y-86339149D02*
X105920000Y-86339149D01*
X184004002Y-86185147D02*
X165535999Y-86185147D01*
X164310000Y-84959148D02*
X163063999Y-86205149D01*
X163063999Y-86205149D02*
X148716000Y-86205149D01*
X119934000Y-86239149D02*
X119834000Y-86339149D01*
X148250000Y-86239149D02*
X119934000Y-86239149D01*
X148700000Y-86189149D02*
X148300000Y-86189149D01*
X185230001Y-84959148D02*
X184004002Y-86185147D01*
X105920000Y-86339149D02*
X104560000Y-84979149D01*
%TO.N,M1*%
X161749999Y-115459149D02*
X107100001Y-115459149D01*
X161770000Y-115439148D02*
X161749999Y-115459149D01*
%TO.N,A15*%
X140100000Y-88089149D02*
X152175000Y-88089149D01*
X159000000Y-106239149D02*
X151600000Y-106239149D01*
X140050000Y-88039149D02*
X140100000Y-88089149D01*
X152175000Y-88089149D02*
X152200000Y-88064149D01*
X151600000Y-106239149D02*
X114386000Y-106239149D01*
X184004001Y-106505148D02*
X165536000Y-106505148D01*
X159300000Y-106539149D02*
X159000000Y-106239149D01*
X163049999Y-106539149D02*
X159300000Y-106539149D01*
X164310000Y-105279148D02*
X163049999Y-106539149D01*
X185230001Y-105279148D02*
X184004001Y-106505148D01*
X114386000Y-106239149D02*
X114100000Y-106525149D01*
X165536000Y-106505148D02*
X164310000Y-105279148D01*
X104560000Y-105299149D02*
X105786000Y-106525149D01*
X105786000Y-106525149D02*
X114100000Y-106525149D01*
%TO.N,A7*%
X108350000Y-99639149D02*
X107770000Y-100219149D01*
X161770000Y-100199148D02*
X161210001Y-99639149D01*
X161210001Y-99639149D02*
X108350000Y-99639149D01*
X107770000Y-100219149D02*
X107100000Y-100219149D01*
%TO.N,A11*%
X140050000Y-89364149D02*
X140075000Y-89389149D01*
X151425000Y-89389149D02*
X151450000Y-89364149D01*
X151600000Y-102759148D02*
X126750000Y-102759148D01*
X161750000Y-102759148D02*
X151600000Y-102759148D01*
X140075000Y-89389149D02*
X151425000Y-89389149D01*
X161770000Y-102739148D02*
X161750000Y-102759148D01*
X107100001Y-102759148D02*
X126750000Y-102759148D01*
%TO.N,A1*%
X125375000Y-93374149D02*
X124600000Y-92599149D01*
X136850000Y-92599149D02*
X136850000Y-92639149D01*
X136115000Y-93374149D02*
X125375000Y-93374149D01*
X161770000Y-92579148D02*
X161749999Y-92599149D01*
X108600000Y-92599149D02*
X121000000Y-92599149D01*
X107100001Y-92599149D02*
X108600000Y-92599149D01*
X161749999Y-92599149D02*
X136850000Y-92599149D01*
X136850000Y-92639149D02*
X136115000Y-93374149D01*
X121000000Y-92599149D02*
X124600000Y-92599149D01*
%TO.N,MY_SLTSEL*%
X111014001Y-81750148D02*
X110950000Y-81814149D01*
X120050000Y-81750148D02*
X111014001Y-81750148D01*
%TO.N,Net-(BUS_Expansion3-SOUNDIN)*%
X179412500Y-64639149D02*
X179362500Y-64589149D01*
X182690001Y-64639149D02*
X179412500Y-64639149D01*
%TO.N,MY_SLTSEL1*%
X152882000Y-85639149D02*
X148666702Y-85639149D01*
X148666702Y-85639149D02*
X148466702Y-85439149D01*
X140200000Y-85439149D02*
X140050000Y-85589149D01*
X148466702Y-85439149D02*
X140200000Y-85439149D01*
X152941000Y-85580149D02*
X152882000Y-85639149D01*
%TO.N,MY_BUSDIR1*%
X148350000Y-83089149D02*
X148625000Y-82814149D01*
X148625000Y-82814149D02*
X152950000Y-82814149D01*
X159075999Y-116615148D02*
X158600000Y-116139149D01*
X164310000Y-115439148D02*
X163134000Y-116615148D01*
X140050000Y-83014149D02*
X140125000Y-83089149D01*
X140125000Y-83089149D02*
X148350000Y-83089149D01*
X163134000Y-116615148D02*
X159075999Y-116615148D01*
%TO.N,MY_BUSDIR2*%
X144262190Y-81764149D02*
X144487190Y-81539149D01*
X151701000Y-81539149D02*
X152925000Y-81539149D01*
X152925000Y-81539149D02*
X152950000Y-81514149D01*
X144487190Y-81539149D02*
X151701000Y-81539149D01*
X140050000Y-81764149D02*
X144262190Y-81764149D01*
%TO.N,MY_SLTSEL2*%
X140050000Y-84290149D02*
X152874000Y-84290149D01*
X152874000Y-84290149D02*
X152950000Y-84214149D01*
%TO.N,VCC3.3V*%
X134210000Y-109289149D02*
X135952190Y-109289149D01*
X127230000Y-91959149D02*
X127100000Y-92089149D01*
X137064690Y-108176649D02*
X142700000Y-108176649D01*
X133299998Y-91959149D02*
X133970000Y-91959149D01*
D24*
X113010851Y-76889149D02*
X120700000Y-76889149D01*
D23*
X128000000Y-91959149D02*
X127230000Y-91959149D01*
D24*
X121900000Y-74439149D02*
X120700000Y-74439149D01*
D23*
X133970000Y-91959149D02*
X134100000Y-92089149D01*
X132860000Y-107939149D02*
X134210000Y-109289149D01*
D24*
X112500000Y-77400000D02*
X113010851Y-76889149D01*
D23*
X135952190Y-109289149D02*
X137064690Y-108176649D01*
%TO.N,TCK*%
X136716000Y-109163149D02*
X144211500Y-109163149D01*
X132446884Y-109189149D02*
X131684000Y-108426265D01*
X133260000Y-109189149D02*
X132446884Y-109189149D01*
X131684000Y-108426265D02*
X131684000Y-107298149D01*
X131684000Y-107298149D02*
X131250000Y-106864149D01*
X134550000Y-110479149D02*
X133260000Y-109189149D01*
X135400000Y-110479149D02*
X134550000Y-110479149D01*
X135400000Y-110479149D02*
X136716000Y-109163149D01*
X144211500Y-109163149D02*
X145050000Y-110001649D01*
%TO.N,TMS*%
X123350000Y-109189149D02*
X129030001Y-109189149D01*
X138312500Y-110001649D02*
X136659000Y-111655149D01*
X136659000Y-111655149D02*
X131496001Y-111655149D01*
X131496001Y-111655149D02*
X130320001Y-110479149D01*
X129030001Y-109189149D02*
X130320001Y-110479149D01*
X142700000Y-110001649D02*
X138312500Y-110001649D01*
%TD*%
%TA.AperFunction,Conductor*%
%TO.N,GND*%
G36*
X187326420Y-63658556D02*
G01*
X187334820Y-63665392D01*
X188067096Y-64331096D01*
X188097434Y-64384228D01*
X188099500Y-64404349D01*
X188099500Y-125873947D01*
X188080593Y-125932138D01*
X188067095Y-125947201D01*
X187915150Y-126085333D01*
X187344558Y-126604054D01*
X187334824Y-126612903D01*
X187279048Y-126638056D01*
X187268229Y-126638649D01*
X185891488Y-126638649D01*
X185833297Y-126619742D01*
X185797333Y-126570242D01*
X185797333Y-126509056D01*
X185833297Y-126459556D01*
X185836487Y-126457333D01*
X185852755Y-126446463D01*
X185899656Y-126415125D01*
X186045978Y-126268803D01*
X186160942Y-126096746D01*
X186240131Y-125905568D01*
X186280501Y-125702613D01*
X186280501Y-125495683D01*
X186240131Y-125292728D01*
X186160942Y-125101550D01*
X186045978Y-124929493D01*
X185899656Y-124783171D01*
X185880498Y-124770370D01*
X185727598Y-124668206D01*
X185536419Y-124589017D01*
X185333468Y-124548648D01*
X185333466Y-124548648D01*
X185126536Y-124548648D01*
X185126533Y-124548648D01*
X184923581Y-124589018D01*
X184923579Y-124589018D01*
X184812597Y-124634988D01*
X184751600Y-124639788D01*
X184704708Y-124613528D01*
X184639828Y-124548648D01*
X184065863Y-123974683D01*
X184065860Y-123974681D01*
X184065859Y-123974680D01*
X184065858Y-123974679D01*
X183991643Y-123931831D01*
X183991645Y-123931831D01*
X183959522Y-123923224D01*
X183908854Y-123909648D01*
X183908852Y-123909648D01*
X183564140Y-123909648D01*
X183505949Y-123890741D01*
X183469985Y-123841241D01*
X183469985Y-123780055D01*
X183494134Y-123740646D01*
X183505978Y-123728803D01*
X183620942Y-123556746D01*
X183700131Y-123365568D01*
X183740501Y-123162613D01*
X183740501Y-122955683D01*
X183740500Y-122955680D01*
X184179501Y-122955680D01*
X184179501Y-123162615D01*
X184219870Y-123365566D01*
X184299059Y-123556745D01*
X184414021Y-123728799D01*
X184414024Y-123728803D01*
X184560346Y-123875125D01*
X184732403Y-123990089D01*
X184923581Y-124069278D01*
X185126536Y-124109648D01*
X185126537Y-124109648D01*
X185333465Y-124109648D01*
X185333466Y-124109648D01*
X185536421Y-124069278D01*
X185727599Y-123990089D01*
X185899656Y-123875125D01*
X186045978Y-123728803D01*
X186160942Y-123556746D01*
X186240131Y-123365568D01*
X186280501Y-123162613D01*
X186280501Y-122955683D01*
X186240131Y-122752728D01*
X186160942Y-122561550D01*
X186045978Y-122389493D01*
X185899656Y-122243171D01*
X185899652Y-122243168D01*
X185727598Y-122128206D01*
X185536419Y-122049017D01*
X185333468Y-122008648D01*
X185333466Y-122008648D01*
X185126536Y-122008648D01*
X185126533Y-122008648D01*
X184923582Y-122049017D01*
X184732403Y-122128206D01*
X184560349Y-122243168D01*
X184414021Y-122389496D01*
X184299059Y-122561550D01*
X184219870Y-122752729D01*
X184179501Y-122955680D01*
X183740500Y-122955680D01*
X183700131Y-122752728D01*
X183620942Y-122561550D01*
X183505978Y-122389493D01*
X183359656Y-122243171D01*
X183359652Y-122243168D01*
X183187598Y-122128206D01*
X182996419Y-122049017D01*
X182793468Y-122008648D01*
X182793466Y-122008648D01*
X182586536Y-122008648D01*
X182586533Y-122008648D01*
X182383581Y-122049018D01*
X182383579Y-122049018D01*
X182272597Y-122094988D01*
X182211600Y-122099788D01*
X182164709Y-122073528D01*
X181713863Y-121622683D01*
X181713858Y-121622679D01*
X181639643Y-121579831D01*
X181639645Y-121579831D01*
X181601643Y-121569649D01*
X181556854Y-121557648D01*
X181556852Y-121557648D01*
X164972985Y-121557648D01*
X164914794Y-121538741D01*
X164878830Y-121489241D01*
X164878830Y-121428055D01*
X164914794Y-121378555D01*
X164917984Y-121376332D01*
X164949721Y-121355126D01*
X164979655Y-121335125D01*
X165125977Y-121188803D01*
X165240941Y-121016746D01*
X165320130Y-120825568D01*
X165360500Y-120622613D01*
X165360500Y-120415683D01*
X165320130Y-120212728D01*
X165274157Y-120101742D01*
X165269357Y-120040749D01*
X165295619Y-119993855D01*
X165591830Y-119697645D01*
X165646346Y-119669868D01*
X165661833Y-119668649D01*
X181815862Y-119668649D01*
X181874053Y-119687556D01*
X181910017Y-119737056D01*
X181910017Y-119798242D01*
X181885867Y-119837650D01*
X181874025Y-119849493D01*
X181874021Y-119849497D01*
X181759059Y-120021551D01*
X181679870Y-120212730D01*
X181639501Y-120415681D01*
X181639501Y-120622616D01*
X181679870Y-120825567D01*
X181759059Y-121016746D01*
X181874021Y-121188800D01*
X181874024Y-121188804D01*
X182020346Y-121335126D01*
X182192403Y-121450090D01*
X182383581Y-121529279D01*
X182586536Y-121569649D01*
X182586537Y-121569649D01*
X182793465Y-121569649D01*
X182793466Y-121569649D01*
X182996421Y-121529279D01*
X183187599Y-121450090D01*
X183359656Y-121335126D01*
X183505978Y-121188804D01*
X183620942Y-121016747D01*
X183700131Y-120825569D01*
X183740501Y-120622614D01*
X183740501Y-120415684D01*
X183700131Y-120212729D01*
X183620942Y-120021551D01*
X183505978Y-119849494D01*
X183494134Y-119837650D01*
X183466359Y-119783136D01*
X183475930Y-119722704D01*
X183519195Y-119679439D01*
X183564140Y-119668649D01*
X183878167Y-119668649D01*
X183936358Y-119687556D01*
X183948171Y-119697645D01*
X184244381Y-119993855D01*
X184272158Y-120048372D01*
X184265841Y-120101744D01*
X184219871Y-120212726D01*
X184219871Y-120212728D01*
X184179501Y-120415680D01*
X184179501Y-120622615D01*
X184219870Y-120825566D01*
X184299059Y-121016745D01*
X184414021Y-121188799D01*
X184414024Y-121188803D01*
X184560346Y-121335125D01*
X184732403Y-121450089D01*
X184923581Y-121529278D01*
X185126536Y-121569648D01*
X185126537Y-121569648D01*
X185333465Y-121569648D01*
X185333466Y-121569648D01*
X185536421Y-121529278D01*
X185727599Y-121450089D01*
X185899656Y-121335125D01*
X186045978Y-121188803D01*
X186160942Y-121016746D01*
X186240131Y-120825568D01*
X186280501Y-120622613D01*
X186280501Y-120415683D01*
X186240131Y-120212728D01*
X186160942Y-120021550D01*
X186045978Y-119849493D01*
X185899656Y-119703171D01*
X185891386Y-119697645D01*
X185727598Y-119588206D01*
X185536419Y-119509017D01*
X185333468Y-119468648D01*
X185333466Y-119468648D01*
X185126536Y-119468648D01*
X185126533Y-119468648D01*
X184923581Y-119509018D01*
X184923579Y-119509018D01*
X184812597Y-119554988D01*
X184751600Y-119559788D01*
X184704709Y-119533528D01*
X184253864Y-119082684D01*
X184253859Y-119082680D01*
X184179644Y-119039832D01*
X184179646Y-119039832D01*
X184141633Y-119029647D01*
X184096855Y-119017649D01*
X184096853Y-119017649D01*
X183352984Y-119017649D01*
X183294793Y-118998742D01*
X183258829Y-118949242D01*
X183258829Y-118888056D01*
X183294793Y-118838556D01*
X183297983Y-118836333D01*
X183359656Y-118795125D01*
X183505978Y-118648803D01*
X183620942Y-118476746D01*
X183700131Y-118285568D01*
X183740501Y-118082613D01*
X183740501Y-117875683D01*
X183700131Y-117672728D01*
X183620942Y-117481550D01*
X183505978Y-117309493D01*
X183494134Y-117297649D01*
X183466359Y-117243135D01*
X183475930Y-117182703D01*
X183519195Y-117139438D01*
X183564140Y-117128648D01*
X183878166Y-117128648D01*
X183936357Y-117147555D01*
X183948170Y-117157644D01*
X184244381Y-117453855D01*
X184272158Y-117508372D01*
X184265841Y-117561744D01*
X184219871Y-117672726D01*
X184219871Y-117672728D01*
X184179501Y-117875680D01*
X184179501Y-118082615D01*
X184219870Y-118285566D01*
X184299059Y-118476745D01*
X184414021Y-118648799D01*
X184414024Y-118648803D01*
X184560346Y-118795125D01*
X184732403Y-118910089D01*
X184923581Y-118989278D01*
X185126536Y-119029648D01*
X185126537Y-119029648D01*
X185333465Y-119029648D01*
X185333466Y-119029648D01*
X185536421Y-118989278D01*
X185727599Y-118910089D01*
X185899656Y-118795125D01*
X186045978Y-118648803D01*
X186160942Y-118476746D01*
X186240131Y-118285568D01*
X186280501Y-118082613D01*
X186280501Y-117875683D01*
X186240131Y-117672728D01*
X186160942Y-117481550D01*
X186045978Y-117309493D01*
X185899656Y-117163171D01*
X185894071Y-117159439D01*
X185727598Y-117048206D01*
X185536419Y-116969017D01*
X185333468Y-116928648D01*
X185333466Y-116928648D01*
X185126536Y-116928648D01*
X185126533Y-116928648D01*
X184923581Y-116969018D01*
X184923579Y-116969018D01*
X184812597Y-117014988D01*
X184751600Y-117019788D01*
X184704709Y-116993528D01*
X184253863Y-116542683D01*
X184253858Y-116542679D01*
X184179643Y-116499831D01*
X184179645Y-116499831D01*
X184147522Y-116491224D01*
X184096854Y-116477648D01*
X184096852Y-116477648D01*
X183352986Y-116477648D01*
X183294795Y-116458741D01*
X183258831Y-116409241D01*
X183258831Y-116348055D01*
X183294795Y-116298555D01*
X183297985Y-116296332D01*
X183312101Y-116286900D01*
X183359656Y-116255125D01*
X183505978Y-116108803D01*
X183620942Y-115936746D01*
X183700131Y-115745568D01*
X183740501Y-115542613D01*
X183740501Y-115335683D01*
X183740500Y-115335680D01*
X184179501Y-115335680D01*
X184179501Y-115542615D01*
X184219870Y-115745566D01*
X184299059Y-115936745D01*
X184414021Y-116108799D01*
X184414024Y-116108803D01*
X184560346Y-116255125D01*
X184732403Y-116370089D01*
X184923581Y-116449278D01*
X185126536Y-116489648D01*
X185126537Y-116489648D01*
X185333465Y-116489648D01*
X185333466Y-116489648D01*
X185536421Y-116449278D01*
X185727599Y-116370089D01*
X185899656Y-116255125D01*
X186045978Y-116108803D01*
X186160942Y-115936746D01*
X186240131Y-115745568D01*
X186280501Y-115542613D01*
X186280501Y-115335683D01*
X186240131Y-115132728D01*
X186160942Y-114941550D01*
X186045978Y-114769493D01*
X185899656Y-114623171D01*
X185899652Y-114623168D01*
X185727598Y-114508206D01*
X185536419Y-114429017D01*
X185333468Y-114388648D01*
X185333466Y-114388648D01*
X185126536Y-114388648D01*
X185126533Y-114388648D01*
X184923582Y-114429017D01*
X184732403Y-114508206D01*
X184560349Y-114623168D01*
X184414021Y-114769496D01*
X184299059Y-114941550D01*
X184219870Y-115132729D01*
X184179501Y-115335680D01*
X183740500Y-115335680D01*
X183700131Y-115132728D01*
X183620942Y-114941550D01*
X183505978Y-114769493D01*
X183359656Y-114623171D01*
X183359652Y-114623168D01*
X183187598Y-114508206D01*
X182996419Y-114429017D01*
X182793468Y-114388648D01*
X182793466Y-114388648D01*
X182586536Y-114388648D01*
X182586533Y-114388648D01*
X182383582Y-114429017D01*
X182192403Y-114508206D01*
X182020349Y-114623168D01*
X181874021Y-114769496D01*
X181759059Y-114941550D01*
X181679870Y-115132729D01*
X181639501Y-115335680D01*
X181639501Y-115542615D01*
X181679870Y-115745566D01*
X181759059Y-115936745D01*
X181874021Y-116108799D01*
X181874024Y-116108803D01*
X182020346Y-116255125D01*
X182020349Y-116255127D01*
X182082017Y-116296332D01*
X182119897Y-116344382D01*
X182122299Y-116405520D01*
X182088307Y-116456394D01*
X182030903Y-116477572D01*
X182027016Y-116477648D01*
X174378854Y-116477648D01*
X174293148Y-116477648D01*
X174242479Y-116491224D01*
X174210357Y-116499831D01*
X174136143Y-116542679D01*
X173054170Y-117624652D01*
X172999653Y-117652429D01*
X172984166Y-117653648D01*
X165378377Y-117653648D01*
X165320186Y-117634741D01*
X165286913Y-117592534D01*
X165240941Y-117481550D01*
X165125979Y-117309496D01*
X165125977Y-117309493D01*
X164979655Y-117163171D01*
X164974070Y-117159439D01*
X164807597Y-117048206D01*
X164616418Y-116969017D01*
X164413467Y-116928648D01*
X164413465Y-116928648D01*
X164206535Y-116928648D01*
X164206532Y-116928648D01*
X164003581Y-116969017D01*
X163812402Y-117048206D01*
X163640348Y-117163168D01*
X163494020Y-117309496D01*
X163379058Y-117481550D01*
X163299869Y-117672729D01*
X163259500Y-117875680D01*
X163259500Y-118082615D01*
X163286413Y-118217916D01*
X163290729Y-118239615D01*
X163299870Y-118285567D01*
X163299870Y-118285569D01*
X163345840Y-118396551D01*
X163350640Y-118457548D01*
X163324380Y-118504439D01*
X162958169Y-118870652D01*
X162903652Y-118898430D01*
X162888165Y-118899649D01*
X162574138Y-118899649D01*
X162515947Y-118880742D01*
X162479983Y-118831242D01*
X162479983Y-118770056D01*
X162504132Y-118730647D01*
X162585977Y-118648803D01*
X162700941Y-118476746D01*
X162780130Y-118285568D01*
X162820500Y-118082613D01*
X162820500Y-117875683D01*
X162780130Y-117672728D01*
X162700941Y-117481550D01*
X162585977Y-117309493D01*
X162439655Y-117163171D01*
X162431383Y-117157644D01*
X162377984Y-117121964D01*
X162340104Y-117073914D01*
X162337702Y-117012776D01*
X162371694Y-116961902D01*
X162429098Y-116940724D01*
X162432985Y-116940648D01*
X163176851Y-116940648D01*
X163176853Y-116940648D01*
X163259639Y-116918466D01*
X163259641Y-116918464D01*
X163259643Y-116918464D01*
X163333857Y-116875616D01*
X163333857Y-116875615D01*
X163333862Y-116875613D01*
X163784707Y-116424766D01*
X163839224Y-116396989D01*
X163892593Y-116403305D01*
X164003580Y-116449278D01*
X164206535Y-116489648D01*
X164206536Y-116489648D01*
X164413464Y-116489648D01*
X164413465Y-116489648D01*
X164616420Y-116449278D01*
X164807598Y-116370089D01*
X164979655Y-116255125D01*
X165125977Y-116108803D01*
X165240941Y-115936746D01*
X165320130Y-115745568D01*
X165360500Y-115542613D01*
X165360500Y-115521053D01*
X168599500Y-115521053D01*
X168599500Y-115757244D01*
X168636445Y-115990512D01*
X168709432Y-116215141D01*
X168816625Y-116425521D01*
X168816657Y-116425582D01*
X168955483Y-116616659D01*
X169122490Y-116783666D01*
X169313567Y-116922492D01*
X169524008Y-117029717D01*
X169748632Y-117102702D01*
X169748633Y-117102702D01*
X169748636Y-117102703D01*
X169981905Y-117139649D01*
X169981908Y-117139649D01*
X170218095Y-117139649D01*
X170451363Y-117102703D01*
X170451364Y-117102702D01*
X170451368Y-117102702D01*
X170675992Y-117029717D01*
X170886433Y-116922492D01*
X171077510Y-116783666D01*
X171244517Y-116616659D01*
X171383343Y-116425582D01*
X171490568Y-116215141D01*
X171563553Y-115990517D01*
X171563554Y-115990512D01*
X171600500Y-115757244D01*
X171600500Y-115521053D01*
X171563554Y-115287785D01*
X171548960Y-115242869D01*
X171490568Y-115063157D01*
X171383343Y-114852716D01*
X171244517Y-114661639D01*
X171077510Y-114494632D01*
X170886433Y-114355806D01*
X170886432Y-114355805D01*
X170886430Y-114355804D01*
X170675992Y-114248581D01*
X170451363Y-114175594D01*
X170218095Y-114138649D01*
X170218092Y-114138649D01*
X169981908Y-114138649D01*
X169981905Y-114138649D01*
X169748636Y-114175594D01*
X169524007Y-114248581D01*
X169313569Y-114355804D01*
X169122491Y-114494631D01*
X168955482Y-114661640D01*
X168816655Y-114852718D01*
X168709432Y-115063156D01*
X168636445Y-115287785D01*
X168599500Y-115521053D01*
X165360500Y-115521053D01*
X165360500Y-115335683D01*
X165320130Y-115132728D01*
X165240941Y-114941550D01*
X165125977Y-114769493D01*
X164979655Y-114623171D01*
X164979651Y-114623168D01*
X164807597Y-114508206D01*
X164616418Y-114429017D01*
X164413467Y-114388648D01*
X164413465Y-114388648D01*
X164206535Y-114388648D01*
X164206532Y-114388648D01*
X164003581Y-114429017D01*
X163812402Y-114508206D01*
X163640348Y-114623168D01*
X163494020Y-114769496D01*
X163379058Y-114941550D01*
X163299869Y-115132729D01*
X163259500Y-115335680D01*
X163259500Y-115542615D01*
X163299870Y-115745567D01*
X163299870Y-115745569D01*
X163345840Y-115856551D01*
X163350640Y-115917548D01*
X163324380Y-115964439D01*
X163028170Y-116260651D01*
X162973653Y-116288429D01*
X162958166Y-116289648D01*
X162644139Y-116289648D01*
X162585948Y-116270741D01*
X162549984Y-116221241D01*
X162549984Y-116160055D01*
X162574133Y-116120646D01*
X162585977Y-116108803D01*
X162700941Y-115936746D01*
X162780130Y-115745568D01*
X162820500Y-115542613D01*
X162820500Y-115335683D01*
X162780130Y-115132728D01*
X162700941Y-114941550D01*
X162585977Y-114769493D01*
X162439655Y-114623171D01*
X162377984Y-114581964D01*
X162340104Y-114533914D01*
X162337702Y-114472776D01*
X162371694Y-114421902D01*
X162429098Y-114400724D01*
X162432985Y-114400648D01*
X163176851Y-114400648D01*
X163176853Y-114400648D01*
X163259639Y-114378466D01*
X163259641Y-114378464D01*
X163259643Y-114378464D01*
X163333857Y-114335616D01*
X163333857Y-114335615D01*
X163333862Y-114335613D01*
X163784707Y-113884766D01*
X163839224Y-113856989D01*
X163892593Y-113863305D01*
X164003580Y-113909278D01*
X164206535Y-113949648D01*
X164206536Y-113949648D01*
X164413464Y-113949648D01*
X164413465Y-113949648D01*
X164616420Y-113909278D01*
X164807598Y-113830089D01*
X164979655Y-113715125D01*
X165125977Y-113568803D01*
X165240941Y-113396746D01*
X165320130Y-113205568D01*
X165360500Y-113002613D01*
X165360500Y-112795683D01*
X165320130Y-112592728D01*
X165274157Y-112481742D01*
X165269357Y-112420748D01*
X165295617Y-112373856D01*
X165591831Y-112077644D01*
X165646347Y-112049867D01*
X165661834Y-112048648D01*
X181815862Y-112048648D01*
X181874053Y-112067555D01*
X181910017Y-112117055D01*
X181910017Y-112178241D01*
X181885867Y-112217649D01*
X181874024Y-112229493D01*
X181874021Y-112229496D01*
X181759059Y-112401550D01*
X181679870Y-112592729D01*
X181639501Y-112795680D01*
X181639501Y-113002615D01*
X181679870Y-113205566D01*
X181759059Y-113396745D01*
X181874021Y-113568799D01*
X181874024Y-113568803D01*
X182020346Y-113715125D01*
X182192403Y-113830089D01*
X182383581Y-113909278D01*
X182586536Y-113949648D01*
X182586537Y-113949648D01*
X182793465Y-113949648D01*
X182793466Y-113949648D01*
X182996421Y-113909278D01*
X183187599Y-113830089D01*
X183359656Y-113715125D01*
X183505978Y-113568803D01*
X183620942Y-113396746D01*
X183700131Y-113205568D01*
X183740501Y-113002613D01*
X183740501Y-112795683D01*
X183700131Y-112592728D01*
X183620942Y-112401550D01*
X183505978Y-112229493D01*
X183494134Y-112217649D01*
X183466359Y-112163135D01*
X183475930Y-112102703D01*
X183519195Y-112059438D01*
X183564140Y-112048648D01*
X183878166Y-112048648D01*
X183936357Y-112067555D01*
X183948170Y-112077644D01*
X184244381Y-112373855D01*
X184272158Y-112428372D01*
X184265841Y-112481744D01*
X184219871Y-112592726D01*
X184219871Y-112592728D01*
X184179501Y-112795680D01*
X184179501Y-113002615D01*
X184219870Y-113205566D01*
X184299059Y-113396745D01*
X184414021Y-113568799D01*
X184414024Y-113568803D01*
X184560346Y-113715125D01*
X184732403Y-113830089D01*
X184923581Y-113909278D01*
X185126536Y-113949648D01*
X185126537Y-113949648D01*
X185333465Y-113949648D01*
X185333466Y-113949648D01*
X185536421Y-113909278D01*
X185727599Y-113830089D01*
X185899656Y-113715125D01*
X186045978Y-113568803D01*
X186160942Y-113396746D01*
X186240131Y-113205568D01*
X186280501Y-113002613D01*
X186280501Y-112795683D01*
X186240131Y-112592728D01*
X186160942Y-112401550D01*
X186045978Y-112229493D01*
X185899656Y-112083171D01*
X185899652Y-112083168D01*
X185727598Y-111968206D01*
X185536419Y-111889017D01*
X185333468Y-111848648D01*
X185333466Y-111848648D01*
X185126536Y-111848648D01*
X185126533Y-111848648D01*
X184923581Y-111889018D01*
X184923579Y-111889018D01*
X184812597Y-111934988D01*
X184751600Y-111939788D01*
X184704709Y-111913528D01*
X184253863Y-111462683D01*
X184253858Y-111462679D01*
X184179643Y-111419831D01*
X184179645Y-111419831D01*
X184143289Y-111410090D01*
X184096854Y-111397648D01*
X184096852Y-111397648D01*
X183352986Y-111397648D01*
X183294795Y-111378741D01*
X183258831Y-111329241D01*
X183258831Y-111268055D01*
X183294795Y-111218555D01*
X183297985Y-111216332D01*
X183329722Y-111195126D01*
X183359656Y-111175125D01*
X183505978Y-111028803D01*
X183620942Y-110856746D01*
X183700131Y-110665568D01*
X183740501Y-110462613D01*
X183740501Y-110255683D01*
X183700131Y-110052728D01*
X183620942Y-109861550D01*
X183505978Y-109689493D01*
X183450135Y-109633650D01*
X183422360Y-109579136D01*
X183431931Y-109518704D01*
X183475196Y-109475439D01*
X183520141Y-109464649D01*
X183834167Y-109464649D01*
X183892358Y-109483556D01*
X183904171Y-109493645D01*
X184244381Y-109833855D01*
X184272158Y-109888372D01*
X184265841Y-109941744D01*
X184219871Y-110052726D01*
X184219871Y-110052728D01*
X184179501Y-110255680D01*
X184179501Y-110462615D01*
X184219870Y-110665566D01*
X184299059Y-110856745D01*
X184397746Y-111004441D01*
X184414024Y-111028803D01*
X184560346Y-111175125D01*
X184732403Y-111290089D01*
X184923581Y-111369278D01*
X185126536Y-111409648D01*
X185126537Y-111409648D01*
X185333465Y-111409648D01*
X185333466Y-111409648D01*
X185536421Y-111369278D01*
X185727599Y-111290089D01*
X185899656Y-111175125D01*
X186045978Y-111028803D01*
X186160942Y-110856746D01*
X186240131Y-110665568D01*
X186280501Y-110462613D01*
X186280501Y-110255683D01*
X186240131Y-110052728D01*
X186160942Y-109861550D01*
X186045978Y-109689493D01*
X185899656Y-109543171D01*
X185899652Y-109543168D01*
X185727598Y-109428206D01*
X185536419Y-109349017D01*
X185333468Y-109308648D01*
X185333466Y-109308648D01*
X185126536Y-109308648D01*
X185126533Y-109308648D01*
X184923581Y-109349018D01*
X184923579Y-109349018D01*
X184812597Y-109394988D01*
X184751600Y-109399788D01*
X184704708Y-109373528D01*
X184486407Y-109155227D01*
X184209864Y-108878684D01*
X184209861Y-108878682D01*
X184209860Y-108878681D01*
X184209859Y-108878680D01*
X184135644Y-108835832D01*
X184135646Y-108835832D01*
X184094352Y-108824768D01*
X184052855Y-108813649D01*
X184052853Y-108813649D01*
X183418809Y-108813649D01*
X183360618Y-108794742D01*
X183324654Y-108745242D01*
X183324654Y-108684056D01*
X183356004Y-108638121D01*
X183359650Y-108635128D01*
X183359649Y-108635128D01*
X183359656Y-108635124D01*
X183505978Y-108488802D01*
X183620942Y-108316745D01*
X183700131Y-108125567D01*
X183740501Y-107922612D01*
X183740501Y-107715682D01*
X183740501Y-107715680D01*
X184179501Y-107715680D01*
X184179501Y-107922615D01*
X184219870Y-108125566D01*
X184299059Y-108316745D01*
X184414021Y-108488799D01*
X184414024Y-108488803D01*
X184560346Y-108635125D01*
X184732403Y-108750089D01*
X184923581Y-108829278D01*
X185126536Y-108869648D01*
X185126537Y-108869648D01*
X185333465Y-108869648D01*
X185333466Y-108869648D01*
X185536421Y-108829278D01*
X185727599Y-108750089D01*
X185899656Y-108635125D01*
X186045978Y-108488803D01*
X186160942Y-108316746D01*
X186240131Y-108125568D01*
X186280501Y-107922613D01*
X186280501Y-107715683D01*
X186240131Y-107512728D01*
X186160942Y-107321550D01*
X186045978Y-107149493D01*
X185899656Y-107003171D01*
X185886293Y-106994242D01*
X185727598Y-106888206D01*
X185536419Y-106809017D01*
X185333468Y-106768648D01*
X185333466Y-106768648D01*
X185126536Y-106768648D01*
X185126533Y-106768648D01*
X184923582Y-106809017D01*
X184732403Y-106888206D01*
X184560349Y-107003168D01*
X184414021Y-107149496D01*
X184299059Y-107321550D01*
X184219870Y-107512729D01*
X184179501Y-107715680D01*
X183740501Y-107715680D01*
X183700131Y-107512727D01*
X183620942Y-107321549D01*
X183505978Y-107149492D01*
X183359656Y-107003170D01*
X183359652Y-107003167D01*
X183356216Y-106999731D01*
X183358011Y-106997935D01*
X183330298Y-106954517D01*
X183333982Y-106893442D01*
X183372861Y-106846197D01*
X183426124Y-106830648D01*
X184046852Y-106830648D01*
X184046854Y-106830648D01*
X184129640Y-106808466D01*
X184129642Y-106808464D01*
X184129644Y-106808464D01*
X184203858Y-106765616D01*
X184203858Y-106765615D01*
X184203863Y-106765613D01*
X184704710Y-106264764D01*
X184759225Y-106236989D01*
X184812594Y-106243305D01*
X184923581Y-106289278D01*
X185126536Y-106329648D01*
X185126537Y-106329648D01*
X185333465Y-106329648D01*
X185333466Y-106329648D01*
X185536421Y-106289278D01*
X185727599Y-106210089D01*
X185899656Y-106095125D01*
X186045978Y-105948803D01*
X186160942Y-105776746D01*
X186240131Y-105585568D01*
X186280501Y-105382613D01*
X186280501Y-105175683D01*
X186240131Y-104972728D01*
X186160942Y-104781550D01*
X186045978Y-104609493D01*
X185899656Y-104463171D01*
X185899652Y-104463168D01*
X185727598Y-104348206D01*
X185536419Y-104269017D01*
X185333468Y-104228648D01*
X185333466Y-104228648D01*
X185126536Y-104228648D01*
X185126533Y-104228648D01*
X184923582Y-104269017D01*
X184732403Y-104348206D01*
X184560349Y-104463168D01*
X184414021Y-104609496D01*
X184299059Y-104781550D01*
X184219870Y-104972729D01*
X184179501Y-105175680D01*
X184179501Y-105382615D01*
X184206414Y-105517916D01*
X184219870Y-105585565D01*
X184219871Y-105585567D01*
X184219871Y-105585569D01*
X184265841Y-105696551D01*
X184270641Y-105757548D01*
X184244381Y-105804439D01*
X183898171Y-106150651D01*
X183843654Y-106178429D01*
X183828167Y-106179648D01*
X183514140Y-106179648D01*
X183455949Y-106160741D01*
X183419985Y-106111241D01*
X183419985Y-106050055D01*
X183444134Y-106010646D01*
X183505978Y-105948803D01*
X183620942Y-105776746D01*
X183700131Y-105585568D01*
X183740501Y-105382613D01*
X183740501Y-105175683D01*
X183700131Y-104972728D01*
X183620942Y-104781550D01*
X183505978Y-104609493D01*
X183359656Y-104463171D01*
X183359652Y-104463168D01*
X183356216Y-104459732D01*
X183357994Y-104457953D01*
X183330270Y-104414412D01*
X183334020Y-104353342D01*
X183372951Y-104306139D01*
X183426123Y-104290648D01*
X184046852Y-104290648D01*
X184046854Y-104290648D01*
X184129640Y-104268466D01*
X184129642Y-104268464D01*
X184129644Y-104268464D01*
X184203858Y-104225616D01*
X184203858Y-104225615D01*
X184203863Y-104225613D01*
X184704710Y-103724764D01*
X184759225Y-103696989D01*
X184812594Y-103703305D01*
X184923581Y-103749278D01*
X185126536Y-103789648D01*
X185126537Y-103789648D01*
X185333465Y-103789648D01*
X185333466Y-103789648D01*
X185536421Y-103749278D01*
X185727599Y-103670089D01*
X185899656Y-103555125D01*
X186045978Y-103408803D01*
X186160942Y-103236746D01*
X186240131Y-103045568D01*
X186280501Y-102842613D01*
X186280501Y-102635683D01*
X186240131Y-102432728D01*
X186160942Y-102241550D01*
X186045978Y-102069493D01*
X185899656Y-101923171D01*
X185899652Y-101923168D01*
X185727598Y-101808206D01*
X185536419Y-101729017D01*
X185333468Y-101688648D01*
X185333466Y-101688648D01*
X185126536Y-101688648D01*
X185126533Y-101688648D01*
X184923582Y-101729017D01*
X184732403Y-101808206D01*
X184560349Y-101923168D01*
X184414021Y-102069496D01*
X184299059Y-102241550D01*
X184219870Y-102432729D01*
X184179501Y-102635680D01*
X184179501Y-102842615D01*
X184206414Y-102977916D01*
X184219870Y-103045565D01*
X184219871Y-103045567D01*
X184219871Y-103045569D01*
X184265841Y-103156551D01*
X184270641Y-103217548D01*
X184244381Y-103264439D01*
X183898171Y-103610651D01*
X183843654Y-103638429D01*
X183828167Y-103639648D01*
X183514140Y-103639648D01*
X183455949Y-103620741D01*
X183419985Y-103571241D01*
X183419985Y-103510055D01*
X183444134Y-103470646D01*
X183505978Y-103408803D01*
X183620942Y-103236746D01*
X183700131Y-103045568D01*
X183740501Y-102842613D01*
X183740501Y-102635683D01*
X183700131Y-102432728D01*
X183620942Y-102241550D01*
X183505978Y-102069493D01*
X183359656Y-101923171D01*
X183359652Y-101923168D01*
X183356216Y-101919732D01*
X183357994Y-101917953D01*
X183330270Y-101874412D01*
X183334020Y-101813342D01*
X183372951Y-101766139D01*
X183426123Y-101750648D01*
X184046852Y-101750648D01*
X184046854Y-101750648D01*
X184129640Y-101728466D01*
X184129642Y-101728464D01*
X184129644Y-101728464D01*
X184203858Y-101685616D01*
X184203858Y-101685615D01*
X184203863Y-101685613D01*
X184704710Y-101184764D01*
X184759225Y-101156989D01*
X184812594Y-101163305D01*
X184923581Y-101209278D01*
X185126536Y-101249648D01*
X185126537Y-101249648D01*
X185333465Y-101249648D01*
X185333466Y-101249648D01*
X185536421Y-101209278D01*
X185727599Y-101130089D01*
X185899656Y-101015125D01*
X186045978Y-100868803D01*
X186160942Y-100696746D01*
X186240131Y-100505568D01*
X186280501Y-100302613D01*
X186280501Y-100095683D01*
X186240131Y-99892728D01*
X186160942Y-99701550D01*
X186045978Y-99529493D01*
X185899656Y-99383171D01*
X185899652Y-99383168D01*
X185727598Y-99268206D01*
X185536419Y-99189017D01*
X185333468Y-99148648D01*
X185333466Y-99148648D01*
X185126536Y-99148648D01*
X185126533Y-99148648D01*
X184923582Y-99189017D01*
X184732403Y-99268206D01*
X184560349Y-99383168D01*
X184414021Y-99529496D01*
X184299059Y-99701550D01*
X184219870Y-99892729D01*
X184179501Y-100095680D01*
X184179501Y-100302615D01*
X184206414Y-100437916D01*
X184219870Y-100505565D01*
X184219871Y-100505567D01*
X184219871Y-100505569D01*
X184265841Y-100616551D01*
X184270641Y-100677548D01*
X184244381Y-100724439D01*
X183898171Y-101070651D01*
X183843654Y-101098429D01*
X183828167Y-101099648D01*
X183514140Y-101099648D01*
X183455949Y-101080741D01*
X183419985Y-101031241D01*
X183419985Y-100970055D01*
X183444134Y-100930646D01*
X183505978Y-100868803D01*
X183620942Y-100696746D01*
X183700131Y-100505568D01*
X183740501Y-100302613D01*
X183740501Y-100095683D01*
X183700131Y-99892728D01*
X183620942Y-99701550D01*
X183505978Y-99529493D01*
X183359656Y-99383171D01*
X183359652Y-99383168D01*
X183356216Y-99379732D01*
X183358011Y-99377936D01*
X183330298Y-99334518D01*
X183333982Y-99273443D01*
X183372861Y-99226198D01*
X183426124Y-99210649D01*
X184046851Y-99210649D01*
X184046853Y-99210649D01*
X184129639Y-99188467D01*
X184129641Y-99188465D01*
X184129643Y-99188465D01*
X184203857Y-99145617D01*
X184203857Y-99145616D01*
X184203862Y-99145614D01*
X184704710Y-98644764D01*
X184759225Y-98616989D01*
X184812594Y-98623305D01*
X184923581Y-98669278D01*
X185126536Y-98709648D01*
X185126537Y-98709648D01*
X185333465Y-98709648D01*
X185333466Y-98709648D01*
X185536421Y-98669278D01*
X185727599Y-98590089D01*
X185899656Y-98475125D01*
X186045978Y-98328803D01*
X186160942Y-98156746D01*
X186240131Y-97965568D01*
X186280501Y-97762613D01*
X186280501Y-97555683D01*
X186240131Y-97352728D01*
X186160942Y-97161550D01*
X186045978Y-96989493D01*
X185899656Y-96843171D01*
X185892070Y-96838102D01*
X185727598Y-96728206D01*
X185536419Y-96649017D01*
X185333468Y-96608648D01*
X185333466Y-96608648D01*
X185126536Y-96608648D01*
X185126533Y-96608648D01*
X184923582Y-96649017D01*
X184732403Y-96728206D01*
X184560349Y-96843168D01*
X184414021Y-96989496D01*
X184299059Y-97161550D01*
X184219870Y-97352729D01*
X184179501Y-97555680D01*
X184179501Y-97762615D01*
X184206414Y-97897916D01*
X184219870Y-97965565D01*
X184219871Y-97965567D01*
X184219871Y-97965569D01*
X184265841Y-98076551D01*
X184270641Y-98137548D01*
X184244381Y-98184439D01*
X183898170Y-98530652D01*
X183843653Y-98558430D01*
X183828166Y-98559649D01*
X183514140Y-98559649D01*
X183455949Y-98540742D01*
X183419985Y-98491242D01*
X183419985Y-98430056D01*
X183444134Y-98390647D01*
X183505978Y-98328804D01*
X183620942Y-98156747D01*
X183700131Y-97965569D01*
X183740501Y-97762614D01*
X183740501Y-97555684D01*
X183700131Y-97352729D01*
X183620942Y-97161551D01*
X183505978Y-96989494D01*
X183359656Y-96843172D01*
X183359652Y-96843169D01*
X183356216Y-96839733D01*
X183358052Y-96837896D01*
X183330366Y-96794788D01*
X183333877Y-96733703D01*
X183372622Y-96686348D01*
X183426121Y-96670648D01*
X184046852Y-96670648D01*
X184046854Y-96670648D01*
X184129640Y-96648466D01*
X184129642Y-96648464D01*
X184129644Y-96648464D01*
X184203858Y-96605616D01*
X184203858Y-96605615D01*
X184203863Y-96605613D01*
X184704710Y-96104764D01*
X184759225Y-96076989D01*
X184812594Y-96083305D01*
X184923581Y-96129278D01*
X185126536Y-96169648D01*
X185126537Y-96169648D01*
X185333465Y-96169648D01*
X185333466Y-96169648D01*
X185536421Y-96129278D01*
X185727599Y-96050089D01*
X185899656Y-95935125D01*
X186045978Y-95788803D01*
X186160942Y-95616746D01*
X186240131Y-95425568D01*
X186280501Y-95222613D01*
X186280501Y-95015683D01*
X186240131Y-94812728D01*
X186160942Y-94621550D01*
X186045978Y-94449493D01*
X185899656Y-94303171D01*
X185899652Y-94303168D01*
X185727598Y-94188206D01*
X185536419Y-94109017D01*
X185333468Y-94068648D01*
X185333466Y-94068648D01*
X185126536Y-94068648D01*
X185126533Y-94068648D01*
X184923582Y-94109017D01*
X184732403Y-94188206D01*
X184560349Y-94303168D01*
X184414021Y-94449496D01*
X184299059Y-94621550D01*
X184219870Y-94812729D01*
X184179501Y-95015680D01*
X184179501Y-95222615D01*
X184206414Y-95357916D01*
X184219870Y-95425565D01*
X184219871Y-95425567D01*
X184219871Y-95425569D01*
X184265841Y-95536551D01*
X184270641Y-95597548D01*
X184244381Y-95644439D01*
X183898171Y-95990651D01*
X183843654Y-96018429D01*
X183828167Y-96019648D01*
X183514140Y-96019648D01*
X183455949Y-96000741D01*
X183419985Y-95951241D01*
X183419985Y-95890055D01*
X183444134Y-95850646D01*
X183505978Y-95788803D01*
X183620942Y-95616746D01*
X183700131Y-95425568D01*
X183740501Y-95222613D01*
X183740501Y-95015683D01*
X183700131Y-94812728D01*
X183620942Y-94621550D01*
X183505978Y-94449493D01*
X183359656Y-94303171D01*
X183359652Y-94303168D01*
X183356216Y-94299732D01*
X183357994Y-94297953D01*
X183330270Y-94254412D01*
X183334020Y-94193342D01*
X183372951Y-94146139D01*
X183426123Y-94130648D01*
X184046852Y-94130648D01*
X184046854Y-94130648D01*
X184129640Y-94108466D01*
X184129642Y-94108464D01*
X184129644Y-94108464D01*
X184203858Y-94065616D01*
X184203858Y-94065615D01*
X184203863Y-94065613D01*
X184704710Y-93564764D01*
X184759225Y-93536989D01*
X184812594Y-93543305D01*
X184923581Y-93589278D01*
X185126536Y-93629648D01*
X185126537Y-93629648D01*
X185333465Y-93629648D01*
X185333466Y-93629648D01*
X185536421Y-93589278D01*
X185727599Y-93510089D01*
X185899656Y-93395125D01*
X186045978Y-93248803D01*
X186160942Y-93076746D01*
X186240131Y-92885568D01*
X186280501Y-92682613D01*
X186280501Y-92475683D01*
X186240131Y-92272728D01*
X186160942Y-92081550D01*
X186045978Y-91909493D01*
X185899656Y-91763171D01*
X185899652Y-91763168D01*
X185727598Y-91648206D01*
X185536419Y-91569017D01*
X185333468Y-91528648D01*
X185333466Y-91528648D01*
X185126536Y-91528648D01*
X185126533Y-91528648D01*
X184923582Y-91569017D01*
X184732403Y-91648206D01*
X184560349Y-91763168D01*
X184414021Y-91909496D01*
X184299059Y-92081550D01*
X184219870Y-92272729D01*
X184179501Y-92475680D01*
X184179501Y-92682615D01*
X184198320Y-92777225D01*
X184219870Y-92885565D01*
X184219871Y-92885567D01*
X184219871Y-92885569D01*
X184265841Y-92996551D01*
X184270641Y-93057548D01*
X184244381Y-93104439D01*
X183898171Y-93450651D01*
X183843654Y-93478429D01*
X183828167Y-93479648D01*
X183514140Y-93479648D01*
X183455949Y-93460741D01*
X183419985Y-93411241D01*
X183419985Y-93350055D01*
X183444134Y-93310646D01*
X183505978Y-93248803D01*
X183620942Y-93076746D01*
X183700131Y-92885568D01*
X183740501Y-92682613D01*
X183740501Y-92475683D01*
X183700131Y-92272728D01*
X183620942Y-92081550D01*
X183505978Y-91909493D01*
X183359656Y-91763171D01*
X183359652Y-91763168D01*
X183356216Y-91759732D01*
X183357994Y-91757953D01*
X183330270Y-91714412D01*
X183334020Y-91653342D01*
X183372951Y-91606139D01*
X183426123Y-91590648D01*
X184046852Y-91590648D01*
X184046854Y-91590648D01*
X184129640Y-91568466D01*
X184129642Y-91568464D01*
X184129644Y-91568464D01*
X184203858Y-91525616D01*
X184203858Y-91525615D01*
X184203863Y-91525613D01*
X184704710Y-91024764D01*
X184759225Y-90996989D01*
X184812594Y-91003305D01*
X184923581Y-91049278D01*
X185126536Y-91089648D01*
X185126537Y-91089648D01*
X185333465Y-91089648D01*
X185333466Y-91089648D01*
X185536421Y-91049278D01*
X185727599Y-90970089D01*
X185899656Y-90855125D01*
X186045978Y-90708803D01*
X186160942Y-90536746D01*
X186240131Y-90345568D01*
X186280501Y-90142613D01*
X186280501Y-89935683D01*
X186240131Y-89732728D01*
X186160942Y-89541550D01*
X186045978Y-89369493D01*
X185899656Y-89223171D01*
X185899652Y-89223168D01*
X185727598Y-89108206D01*
X185536419Y-89029017D01*
X185333468Y-88988648D01*
X185333466Y-88988648D01*
X185126536Y-88988648D01*
X185126533Y-88988648D01*
X184923582Y-89029017D01*
X184732403Y-89108206D01*
X184560349Y-89223168D01*
X184414021Y-89369496D01*
X184299059Y-89541550D01*
X184219870Y-89732729D01*
X184179501Y-89935680D01*
X184179501Y-90142615D01*
X184206414Y-90277916D01*
X184219870Y-90345565D01*
X184219871Y-90345567D01*
X184219871Y-90345569D01*
X184265841Y-90456551D01*
X184270641Y-90517548D01*
X184244381Y-90564439D01*
X183898171Y-90910651D01*
X183843654Y-90938429D01*
X183828167Y-90939648D01*
X183514140Y-90939648D01*
X183455949Y-90920741D01*
X183419985Y-90871241D01*
X183419985Y-90810055D01*
X183444134Y-90770646D01*
X183505978Y-90708803D01*
X183620942Y-90536746D01*
X183700131Y-90345568D01*
X183740501Y-90142613D01*
X183740501Y-89935683D01*
X183700131Y-89732728D01*
X183620942Y-89541550D01*
X183505978Y-89369493D01*
X183359656Y-89223171D01*
X183359652Y-89223168D01*
X183356216Y-89219732D01*
X183358011Y-89217936D01*
X183330298Y-89174518D01*
X183333982Y-89113443D01*
X183372861Y-89066198D01*
X183426124Y-89050649D01*
X184046851Y-89050649D01*
X184046853Y-89050649D01*
X184129639Y-89028467D01*
X184129641Y-89028465D01*
X184129643Y-89028465D01*
X184203857Y-88985617D01*
X184203857Y-88985616D01*
X184203862Y-88985614D01*
X184704710Y-88484764D01*
X184759225Y-88456989D01*
X184812594Y-88463305D01*
X184923581Y-88509278D01*
X185126536Y-88549648D01*
X185126537Y-88549648D01*
X185333465Y-88549648D01*
X185333466Y-88549648D01*
X185536421Y-88509278D01*
X185727599Y-88430089D01*
X185899656Y-88315125D01*
X186045978Y-88168803D01*
X186160942Y-87996746D01*
X186240131Y-87805568D01*
X186280501Y-87602613D01*
X186280501Y-87395683D01*
X186240131Y-87192728D01*
X186160942Y-87001550D01*
X186045978Y-86829493D01*
X185899656Y-86683171D01*
X185891787Y-86677913D01*
X185727598Y-86568206D01*
X185536419Y-86489017D01*
X185333468Y-86448648D01*
X185333466Y-86448648D01*
X185126536Y-86448648D01*
X185126533Y-86448648D01*
X184923582Y-86489017D01*
X184732403Y-86568206D01*
X184560349Y-86683168D01*
X184414021Y-86829496D01*
X184299059Y-87001550D01*
X184219870Y-87192729D01*
X184179501Y-87395680D01*
X184179501Y-87602615D01*
X184201786Y-87714649D01*
X184219870Y-87805565D01*
X184219871Y-87805567D01*
X184219871Y-87805569D01*
X184265841Y-87916551D01*
X184270641Y-87977548D01*
X184244381Y-88024439D01*
X183898170Y-88370652D01*
X183843653Y-88398430D01*
X183828166Y-88399649D01*
X183514140Y-88399649D01*
X183455949Y-88380742D01*
X183419985Y-88331242D01*
X183419985Y-88270056D01*
X183444134Y-88230647D01*
X183505978Y-88168804D01*
X183620942Y-87996747D01*
X183700131Y-87805569D01*
X183740501Y-87602614D01*
X183740501Y-87395684D01*
X183700131Y-87192729D01*
X183620942Y-87001551D01*
X183505978Y-86829494D01*
X183359656Y-86683172D01*
X183359652Y-86683169D01*
X183356216Y-86679733D01*
X183358035Y-86677913D01*
X183330338Y-86634683D01*
X183333915Y-86573602D01*
X183372711Y-86526289D01*
X183426120Y-86510647D01*
X184046853Y-86510647D01*
X184046855Y-86510647D01*
X184129641Y-86488465D01*
X184129643Y-86488463D01*
X184129645Y-86488463D01*
X184203859Y-86445615D01*
X184203859Y-86445614D01*
X184203864Y-86445612D01*
X184704710Y-85944764D01*
X184759225Y-85916989D01*
X184812594Y-85923305D01*
X184923581Y-85969278D01*
X185126536Y-86009648D01*
X185126537Y-86009648D01*
X185333465Y-86009648D01*
X185333466Y-86009648D01*
X185536421Y-85969278D01*
X185727599Y-85890089D01*
X185899656Y-85775125D01*
X186045978Y-85628803D01*
X186160942Y-85456746D01*
X186240131Y-85265568D01*
X186280501Y-85062613D01*
X186280501Y-84855683D01*
X186240131Y-84652728D01*
X186160942Y-84461550D01*
X186045978Y-84289493D01*
X185899656Y-84143171D01*
X185894508Y-84139731D01*
X185727598Y-84028206D01*
X185536419Y-83949017D01*
X185333468Y-83908648D01*
X185333466Y-83908648D01*
X185126536Y-83908648D01*
X185126533Y-83908648D01*
X184923582Y-83949017D01*
X184732403Y-84028206D01*
X184560349Y-84143168D01*
X184414021Y-84289496D01*
X184299059Y-84461550D01*
X184219870Y-84652729D01*
X184179501Y-84855680D01*
X184179501Y-85062615D01*
X184200167Y-85166510D01*
X184219870Y-85265565D01*
X184219871Y-85265567D01*
X184219871Y-85265569D01*
X184265841Y-85376551D01*
X184270641Y-85437548D01*
X184244381Y-85484439D01*
X183898172Y-85830650D01*
X183843655Y-85858428D01*
X183828168Y-85859647D01*
X183514140Y-85859647D01*
X183455949Y-85840740D01*
X183419985Y-85791240D01*
X183419985Y-85730054D01*
X183444134Y-85690645D01*
X183505978Y-85628802D01*
X183620942Y-85456745D01*
X183700131Y-85265567D01*
X183740501Y-85062612D01*
X183740501Y-84855682D01*
X183700131Y-84652727D01*
X183620942Y-84461549D01*
X183505978Y-84289492D01*
X183359656Y-84143170D01*
X183359652Y-84143167D01*
X183356216Y-84139731D01*
X183358011Y-84137935D01*
X183330298Y-84094517D01*
X183333982Y-84033442D01*
X183372861Y-83986197D01*
X183426124Y-83970648D01*
X184046852Y-83970648D01*
X184046854Y-83970648D01*
X184129640Y-83948466D01*
X184129642Y-83948464D01*
X184129644Y-83948464D01*
X184203858Y-83905616D01*
X184203858Y-83905615D01*
X184203863Y-83905613D01*
X184704710Y-83404764D01*
X184759225Y-83376989D01*
X184812594Y-83383305D01*
X184923581Y-83429278D01*
X185126536Y-83469648D01*
X185126537Y-83469648D01*
X185333465Y-83469648D01*
X185333466Y-83469648D01*
X185536421Y-83429278D01*
X185727599Y-83350089D01*
X185899656Y-83235125D01*
X186045978Y-83088803D01*
X186160942Y-82916746D01*
X186240131Y-82725568D01*
X186280501Y-82522613D01*
X186280501Y-82315683D01*
X186240131Y-82112728D01*
X186160942Y-81921550D01*
X186045978Y-81749493D01*
X185899656Y-81603171D01*
X185899652Y-81603168D01*
X185727598Y-81488206D01*
X185536419Y-81409017D01*
X185333468Y-81368648D01*
X185333466Y-81368648D01*
X185126536Y-81368648D01*
X185126533Y-81368648D01*
X184923582Y-81409017D01*
X184732403Y-81488206D01*
X184560349Y-81603168D01*
X184414021Y-81749496D01*
X184299059Y-81921550D01*
X184219870Y-82112729D01*
X184179501Y-82315680D01*
X184179501Y-82522615D01*
X184185681Y-82553684D01*
X184219870Y-82725565D01*
X184219871Y-82725567D01*
X184219871Y-82725569D01*
X184265841Y-82836551D01*
X184270641Y-82897548D01*
X184244381Y-82944439D01*
X183898171Y-83290651D01*
X183843654Y-83318429D01*
X183828167Y-83319648D01*
X183514140Y-83319648D01*
X183455949Y-83300741D01*
X183419985Y-83251241D01*
X183419985Y-83190055D01*
X183444134Y-83150646D01*
X183505978Y-83088803D01*
X183620942Y-82916746D01*
X183700131Y-82725568D01*
X183740501Y-82522613D01*
X183740501Y-82315683D01*
X183700131Y-82112728D01*
X183620942Y-81921550D01*
X183505978Y-81749493D01*
X183359656Y-81603171D01*
X183359652Y-81603168D01*
X183356216Y-81599732D01*
X183357994Y-81597953D01*
X183330270Y-81554412D01*
X183334020Y-81493342D01*
X183372951Y-81446139D01*
X183426123Y-81430648D01*
X184046852Y-81430648D01*
X184046854Y-81430648D01*
X184129640Y-81408466D01*
X184129642Y-81408464D01*
X184129644Y-81408464D01*
X184203858Y-81365616D01*
X184203858Y-81365615D01*
X184203863Y-81365613D01*
X184704710Y-80864764D01*
X184759225Y-80836989D01*
X184812594Y-80843305D01*
X184923581Y-80889278D01*
X185126536Y-80929648D01*
X185126537Y-80929648D01*
X185333465Y-80929648D01*
X185333466Y-80929648D01*
X185536421Y-80889278D01*
X185727599Y-80810089D01*
X185899656Y-80695125D01*
X186045978Y-80548803D01*
X186160942Y-80376746D01*
X186240131Y-80185568D01*
X186280501Y-79982613D01*
X186280501Y-79775683D01*
X186240131Y-79572728D01*
X186160942Y-79381550D01*
X186045978Y-79209493D01*
X185899656Y-79063171D01*
X185898953Y-79062701D01*
X185727598Y-78948206D01*
X185536419Y-78869017D01*
X185333468Y-78828648D01*
X185333466Y-78828648D01*
X185126536Y-78828648D01*
X185126533Y-78828648D01*
X184923582Y-78869017D01*
X184732403Y-78948206D01*
X184560349Y-79063168D01*
X184414021Y-79209496D01*
X184299059Y-79381550D01*
X184219870Y-79572729D01*
X184179501Y-79775680D01*
X184179501Y-79982615D01*
X184206414Y-80117916D01*
X184219870Y-80185565D01*
X184219871Y-80185567D01*
X184219871Y-80185569D01*
X184265841Y-80296551D01*
X184270641Y-80357548D01*
X184244381Y-80404439D01*
X183898171Y-80750651D01*
X183843654Y-80778429D01*
X183828167Y-80779648D01*
X183514140Y-80779648D01*
X183455949Y-80760741D01*
X183419985Y-80711241D01*
X183419985Y-80650055D01*
X183444134Y-80610646D01*
X183505978Y-80548803D01*
X183620942Y-80376746D01*
X183700131Y-80185568D01*
X183740501Y-79982613D01*
X183740501Y-79775683D01*
X183700131Y-79572728D01*
X183620942Y-79381550D01*
X183505978Y-79209493D01*
X183359656Y-79063171D01*
X183359652Y-79063168D01*
X183356216Y-79059732D01*
X183357994Y-79057953D01*
X183330270Y-79014412D01*
X183334020Y-78953342D01*
X183372951Y-78906139D01*
X183426123Y-78890648D01*
X184046852Y-78890648D01*
X184046854Y-78890648D01*
X184129640Y-78868466D01*
X184129642Y-78868464D01*
X184129644Y-78868464D01*
X184203858Y-78825616D01*
X184203858Y-78825615D01*
X184203863Y-78825613D01*
X184704710Y-78324764D01*
X184759225Y-78296989D01*
X184812594Y-78303305D01*
X184923581Y-78349278D01*
X185126536Y-78389648D01*
X185126537Y-78389648D01*
X185333465Y-78389648D01*
X185333466Y-78389648D01*
X185536421Y-78349278D01*
X185727599Y-78270089D01*
X185899656Y-78155125D01*
X186045978Y-78008803D01*
X186160942Y-77836746D01*
X186240131Y-77645568D01*
X186280501Y-77442613D01*
X186280501Y-77235683D01*
X186240131Y-77032728D01*
X186160942Y-76841550D01*
X186045978Y-76669493D01*
X185899656Y-76523171D01*
X185899652Y-76523168D01*
X185727598Y-76408206D01*
X185536419Y-76329017D01*
X185333468Y-76288648D01*
X185333466Y-76288648D01*
X185126536Y-76288648D01*
X185126533Y-76288648D01*
X184923582Y-76329017D01*
X184732403Y-76408206D01*
X184560349Y-76523168D01*
X184414021Y-76669496D01*
X184299059Y-76841550D01*
X184219870Y-77032729D01*
X184179501Y-77235680D01*
X184179501Y-77442615D01*
X184206137Y-77576524D01*
X184219870Y-77645565D01*
X184219871Y-77645567D01*
X184219871Y-77645569D01*
X184265841Y-77756551D01*
X184270641Y-77817548D01*
X184244381Y-77864439D01*
X183898171Y-78210651D01*
X183843654Y-78238429D01*
X183828167Y-78239648D01*
X183514140Y-78239648D01*
X183455949Y-78220741D01*
X183419985Y-78171241D01*
X183419985Y-78110055D01*
X183444134Y-78070646D01*
X183505978Y-78008803D01*
X183620942Y-77836746D01*
X183700131Y-77645568D01*
X183740501Y-77442613D01*
X183740501Y-77235683D01*
X183700131Y-77032728D01*
X183620942Y-76841550D01*
X183505978Y-76669493D01*
X183359656Y-76523171D01*
X183359652Y-76523168D01*
X183356216Y-76519732D01*
X183358011Y-76517936D01*
X183330298Y-76474518D01*
X183333982Y-76413443D01*
X183372861Y-76366198D01*
X183426124Y-76350649D01*
X184046851Y-76350649D01*
X184046853Y-76350649D01*
X184129639Y-76328467D01*
X184129641Y-76328465D01*
X184129643Y-76328465D01*
X184203857Y-76285617D01*
X184203857Y-76285616D01*
X184203862Y-76285614D01*
X184704710Y-75784764D01*
X184759225Y-75756989D01*
X184812594Y-75763305D01*
X184923581Y-75809278D01*
X185126536Y-75849648D01*
X185126537Y-75849648D01*
X185333465Y-75849648D01*
X185333466Y-75849648D01*
X185536421Y-75809278D01*
X185727599Y-75730089D01*
X185899656Y-75615125D01*
X186045978Y-75468803D01*
X186160942Y-75296746D01*
X186240131Y-75105568D01*
X186280501Y-74902613D01*
X186280501Y-74695683D01*
X186240131Y-74492728D01*
X186160942Y-74301550D01*
X186045978Y-74129493D01*
X185899656Y-73983171D01*
X185899652Y-73983168D01*
X185727598Y-73868206D01*
X185536419Y-73789017D01*
X185333468Y-73748648D01*
X185333466Y-73748648D01*
X185126536Y-73748648D01*
X185126533Y-73748648D01*
X184923582Y-73789017D01*
X184732403Y-73868206D01*
X184560349Y-73983168D01*
X184414021Y-74129496D01*
X184299059Y-74301550D01*
X184219870Y-74492729D01*
X184179501Y-74695680D01*
X184179501Y-74902615D01*
X184206414Y-75037916D01*
X184219870Y-75105565D01*
X184219871Y-75105567D01*
X184219871Y-75105569D01*
X184265841Y-75216551D01*
X184270641Y-75277548D01*
X184244381Y-75324439D01*
X183898170Y-75670652D01*
X183891053Y-75674278D01*
X183886357Y-75680742D01*
X183864306Y-75687906D01*
X183843653Y-75698430D01*
X183828166Y-75699649D01*
X183651527Y-75699649D01*
X183593336Y-75680742D01*
X183557372Y-75631242D01*
X183557372Y-75570056D01*
X183571434Y-75542459D01*
X183673567Y-75401883D01*
X183673569Y-75401879D01*
X183755750Y-75240589D01*
X183811684Y-75068438D01*
X183840001Y-74889659D01*
X183840001Y-74708638D01*
X183811684Y-74529859D01*
X183755750Y-74357708D01*
X183673569Y-74196418D01*
X183673565Y-74196412D01*
X183602576Y-74098705D01*
X183602575Y-74098705D01*
X183133671Y-74567609D01*
X183090100Y-74492142D01*
X182997008Y-74399050D01*
X182921537Y-74355477D01*
X183403381Y-73873634D01*
X183407153Y-73857924D01*
X183453677Y-73818185D01*
X183491566Y-73810648D01*
X184046852Y-73810648D01*
X184046854Y-73810648D01*
X184129640Y-73788466D01*
X184129642Y-73788464D01*
X184129644Y-73788464D01*
X184203858Y-73745616D01*
X184203858Y-73745615D01*
X184203863Y-73745613D01*
X184704710Y-73244764D01*
X184759225Y-73216989D01*
X184812594Y-73223305D01*
X184923581Y-73269278D01*
X185126536Y-73309648D01*
X185126537Y-73309648D01*
X185333465Y-73309648D01*
X185333466Y-73309648D01*
X185536421Y-73269278D01*
X185727599Y-73190089D01*
X185899656Y-73075125D01*
X186045978Y-72928803D01*
X186160942Y-72756746D01*
X186240131Y-72565568D01*
X186280501Y-72362613D01*
X186280501Y-72155683D01*
X186240131Y-71952728D01*
X186160942Y-71761550D01*
X186045978Y-71589493D01*
X185899656Y-71443171D01*
X185899652Y-71443168D01*
X185727598Y-71328206D01*
X185536419Y-71249017D01*
X185333468Y-71208648D01*
X185333466Y-71208648D01*
X185126536Y-71208648D01*
X185126533Y-71208648D01*
X184923582Y-71249017D01*
X184732403Y-71328206D01*
X184560349Y-71443168D01*
X184414021Y-71589496D01*
X184299059Y-71761550D01*
X184219870Y-71952729D01*
X184179501Y-72155680D01*
X184179501Y-72362615D01*
X184219871Y-72565567D01*
X184219871Y-72565569D01*
X184265841Y-72676551D01*
X184270641Y-72737548D01*
X184244381Y-72784439D01*
X183898171Y-73130651D01*
X183891054Y-73134277D01*
X183886358Y-73140741D01*
X183864307Y-73147905D01*
X183843654Y-73158429D01*
X183828167Y-73159648D01*
X183651527Y-73159648D01*
X183593336Y-73140741D01*
X183557372Y-73091241D01*
X183557372Y-73030055D01*
X183571434Y-73002458D01*
X183673567Y-72861882D01*
X183673569Y-72861878D01*
X183755750Y-72700588D01*
X183811684Y-72528437D01*
X183840001Y-72349658D01*
X183840001Y-72168637D01*
X183811684Y-71989858D01*
X183755750Y-71817707D01*
X183673569Y-71656417D01*
X183673565Y-71656411D01*
X183602576Y-71558704D01*
X183602575Y-71558704D01*
X183133671Y-72027608D01*
X183090100Y-71952141D01*
X182997008Y-71859049D01*
X182921537Y-71815476D01*
X183403384Y-71333630D01*
X183407157Y-71317919D01*
X183453684Y-71278183D01*
X183491567Y-71270648D01*
X184046852Y-71270648D01*
X184046854Y-71270648D01*
X184129640Y-71248466D01*
X184129642Y-71248464D01*
X184129644Y-71248464D01*
X184203858Y-71205616D01*
X184203858Y-71205615D01*
X184203863Y-71205613D01*
X184704710Y-70704764D01*
X184759225Y-70676989D01*
X184812594Y-70683305D01*
X184923581Y-70729278D01*
X185126536Y-70769648D01*
X185126537Y-70769648D01*
X185333465Y-70769648D01*
X185333466Y-70769648D01*
X185536421Y-70729278D01*
X185727599Y-70650089D01*
X185899656Y-70535125D01*
X186045978Y-70388803D01*
X186160942Y-70216746D01*
X186240131Y-70025568D01*
X186280501Y-69822613D01*
X186280501Y-69615683D01*
X186240131Y-69412728D01*
X186160942Y-69221550D01*
X186045978Y-69049493D01*
X185899656Y-68903171D01*
X185899652Y-68903168D01*
X185727598Y-68788206D01*
X185536419Y-68709017D01*
X185333468Y-68668648D01*
X185333466Y-68668648D01*
X185126536Y-68668648D01*
X185126533Y-68668648D01*
X184923582Y-68709017D01*
X184732403Y-68788206D01*
X184560349Y-68903168D01*
X184414021Y-69049496D01*
X184299059Y-69221550D01*
X184219870Y-69412729D01*
X184179501Y-69615680D01*
X184179501Y-69822615D01*
X184204135Y-69946458D01*
X184219870Y-70025565D01*
X184219871Y-70025567D01*
X184219871Y-70025569D01*
X184265841Y-70136551D01*
X184270641Y-70197548D01*
X184244381Y-70244439D01*
X183898171Y-70590651D01*
X183843654Y-70618429D01*
X183828167Y-70619648D01*
X183514140Y-70619648D01*
X183455949Y-70600741D01*
X183419985Y-70551241D01*
X183419985Y-70490055D01*
X183444134Y-70450646D01*
X183505978Y-70388803D01*
X183620942Y-70216746D01*
X183700131Y-70025568D01*
X183740501Y-69822613D01*
X183740501Y-69615683D01*
X183700131Y-69412728D01*
X183620942Y-69221550D01*
X183505978Y-69049493D01*
X183465135Y-69008650D01*
X183437360Y-68954136D01*
X183446931Y-68893704D01*
X183490196Y-68850439D01*
X183535141Y-68839649D01*
X183871952Y-68839649D01*
X183897573Y-68843021D01*
X183944692Y-68855647D01*
X183944693Y-68855647D01*
X184063308Y-68855647D01*
X184063310Y-68855647D01*
X184177888Y-68824947D01*
X184280615Y-68765637D01*
X184830609Y-68215642D01*
X184885124Y-68187867D01*
X184919925Y-68188550D01*
X184923577Y-68189276D01*
X184923581Y-68189278D01*
X185126536Y-68229648D01*
X185126537Y-68229648D01*
X185333465Y-68229648D01*
X185333466Y-68229648D01*
X185536421Y-68189278D01*
X185727599Y-68110089D01*
X185899656Y-67995125D01*
X186045978Y-67848803D01*
X186160942Y-67676746D01*
X186240131Y-67485568D01*
X186280501Y-67282613D01*
X186280501Y-67075683D01*
X186240131Y-66872728D01*
X186160942Y-66681550D01*
X186045978Y-66509493D01*
X185899656Y-66363171D01*
X185899652Y-66363168D01*
X185727598Y-66248206D01*
X185536419Y-66169017D01*
X185333468Y-66128648D01*
X185333466Y-66128648D01*
X185126536Y-66128648D01*
X185126533Y-66128648D01*
X184923582Y-66169017D01*
X184732403Y-66248206D01*
X184560349Y-66363168D01*
X184414021Y-66509496D01*
X184299059Y-66681550D01*
X184219870Y-66872729D01*
X184179501Y-67075680D01*
X184179501Y-67282615D01*
X184220598Y-67489222D01*
X184213406Y-67549983D01*
X184193504Y-67578539D01*
X183762394Y-68009652D01*
X183755277Y-68013278D01*
X183750581Y-68019742D01*
X183728530Y-68026906D01*
X183707877Y-68037430D01*
X183692390Y-68038649D01*
X183555139Y-68038649D01*
X183496948Y-68019742D01*
X183460984Y-67970242D01*
X183460984Y-67909056D01*
X183485133Y-67869647D01*
X183505978Y-67848803D01*
X183620942Y-67676746D01*
X183700131Y-67485568D01*
X183740501Y-67282613D01*
X183740501Y-67075683D01*
X183700131Y-66872728D01*
X183620942Y-66681550D01*
X183505978Y-66509493D01*
X183455135Y-66458650D01*
X183427360Y-66404136D01*
X183436931Y-66343704D01*
X183480196Y-66300439D01*
X183525141Y-66289649D01*
X183834625Y-66289649D01*
X183860246Y-66293021D01*
X183944691Y-66315648D01*
X183944692Y-66315648D01*
X184063307Y-66315648D01*
X184063309Y-66315648D01*
X184177887Y-66284948D01*
X184256341Y-66239652D01*
X184280609Y-66225641D01*
X184280609Y-66225640D01*
X184280614Y-66225638D01*
X184830608Y-65675642D01*
X184885123Y-65647867D01*
X184919924Y-65648550D01*
X184923578Y-65649276D01*
X184923581Y-65649278D01*
X185126536Y-65689648D01*
X185126537Y-65689648D01*
X185333465Y-65689648D01*
X185333466Y-65689648D01*
X185536421Y-65649278D01*
X185727599Y-65570089D01*
X185899656Y-65455125D01*
X186045978Y-65308803D01*
X186160942Y-65136746D01*
X186240131Y-64945568D01*
X186280501Y-64742613D01*
X186280501Y-64535683D01*
X186240131Y-64332728D01*
X186160942Y-64141550D01*
X186045978Y-63969493D01*
X185899656Y-63823171D01*
X185899652Y-63823168D01*
X185899650Y-63823166D01*
X185896353Y-63820963D01*
X185858474Y-63772913D01*
X185856074Y-63711774D01*
X185890067Y-63660901D01*
X185947471Y-63639725D01*
X185951356Y-63639649D01*
X187268229Y-63639649D01*
X187326420Y-63658556D01*
G37*
%TD.AperFunction*%
%TA.AperFunction,Conductor*%
G36*
X146414816Y-115803556D02*
G01*
X146426629Y-115813645D01*
X146951666Y-116338682D01*
X146864394Y-116389069D01*
X146789920Y-116463543D01*
X146739533Y-116550815D01*
X146233219Y-116044501D01*
X146169195Y-116132625D01*
X146090588Y-116286900D01*
X146037084Y-116451569D01*
X146010000Y-116622573D01*
X146010000Y-116795724D01*
X146037084Y-116966728D01*
X146090588Y-117131397D01*
X146169195Y-117285673D01*
X146169197Y-117285677D01*
X146233219Y-117373795D01*
X146739532Y-116867481D01*
X146789920Y-116954755D01*
X146864394Y-117029229D01*
X146951664Y-117079614D01*
X146437362Y-117593916D01*
X146429570Y-117626376D01*
X146383044Y-117666113D01*
X146345158Y-117673649D01*
X145253735Y-117673649D01*
X145195544Y-117654742D01*
X145159580Y-117605242D01*
X145159580Y-117544056D01*
X145195544Y-117494556D01*
X145198720Y-117492342D01*
X145207782Y-117486288D01*
X145347139Y-117346931D01*
X145456632Y-117183063D01*
X145532051Y-117000984D01*
X145570500Y-116807690D01*
X145570500Y-116610608D01*
X145532051Y-116417314D01*
X145456632Y-116235235D01*
X145347139Y-116071367D01*
X145229425Y-115953653D01*
X145201648Y-115899136D01*
X145211219Y-115838704D01*
X145254484Y-115795439D01*
X145299429Y-115784649D01*
X146356625Y-115784649D01*
X146414816Y-115803556D01*
G37*
%TD.AperFunction*%
%TA.AperFunction,Conductor*%
G36*
X158113460Y-115803556D02*
G01*
X158149424Y-115853056D01*
X158149424Y-115914242D01*
X158141006Y-115933148D01*
X158133609Y-115945959D01*
X158131547Y-115953653D01*
X158099500Y-116073257D01*
X158099500Y-116205041D01*
X158119279Y-116278858D01*
X158133609Y-116332339D01*
X158199496Y-116446458D01*
X158199498Y-116446460D01*
X158199500Y-116446463D01*
X158292686Y-116539649D01*
X158292688Y-116539650D01*
X158292690Y-116539652D01*
X158406810Y-116605539D01*
X158406808Y-116605539D01*
X158406812Y-116605540D01*
X158406814Y-116605541D01*
X158534108Y-116639649D01*
X158599165Y-116639649D01*
X158657356Y-116658556D01*
X158669168Y-116668645D01*
X158876136Y-116875612D01*
X158876141Y-116875616D01*
X158950356Y-116918464D01*
X158950354Y-116918464D01*
X158950358Y-116918465D01*
X158950360Y-116918466D01*
X159033146Y-116940648D01*
X161107015Y-116940648D01*
X161165206Y-116959555D01*
X161201170Y-117009055D01*
X161201170Y-117070241D01*
X161165206Y-117119741D01*
X161162016Y-117121964D01*
X161100348Y-117163168D01*
X160954020Y-117309496D01*
X160839058Y-117481550D01*
X160784803Y-117612535D01*
X160745066Y-117659060D01*
X160693339Y-117673649D01*
X147874841Y-117673649D01*
X147816650Y-117654742D01*
X147780686Y-117605242D01*
X147778904Y-117590185D01*
X147268333Y-117079615D01*
X147355606Y-117029229D01*
X147430080Y-116954755D01*
X147480466Y-116867482D01*
X147986778Y-117373795D01*
X147986779Y-117373795D01*
X148050800Y-117285679D01*
X148050804Y-117285673D01*
X148129411Y-117131397D01*
X148182915Y-116966728D01*
X148210000Y-116795724D01*
X148210000Y-116622573D01*
X148182915Y-116451569D01*
X148129411Y-116286900D01*
X148050805Y-116132626D01*
X147986778Y-116044501D01*
X147480465Y-116550814D01*
X147430080Y-116463543D01*
X147355606Y-116389069D01*
X147268332Y-116338681D01*
X147793370Y-115813645D01*
X147847887Y-115785868D01*
X147863374Y-115784649D01*
X158055269Y-115784649D01*
X158113460Y-115803556D01*
G37*
%TD.AperFunction*%
%TA.AperFunction,Conductor*%
G36*
X114948027Y-106583556D02*
G01*
X114983991Y-106633056D01*
X114983991Y-106689347D01*
X114985288Y-106689695D01*
X114983608Y-106695961D01*
X114983608Y-106695963D01*
X114949500Y-106823257D01*
X114949500Y-106955041D01*
X114983608Y-107082335D01*
X114986234Y-107086884D01*
X114999500Y-107136387D01*
X114999500Y-107191111D01*
X114980593Y-107249302D01*
X114931093Y-107285266D01*
X114909748Y-107289678D01*
X114890304Y-107291502D01*
X114890296Y-107291504D01*
X114762116Y-107336356D01*
X114652855Y-107416994D01*
X114652845Y-107417004D01*
X114572207Y-107526265D01*
X114527355Y-107654445D01*
X114527353Y-107654454D01*
X114524500Y-107684874D01*
X114524500Y-108293423D01*
X114527353Y-108323843D01*
X114527355Y-108323852D01*
X114572207Y-108452032D01*
X114652845Y-108561293D01*
X114652847Y-108561295D01*
X114652850Y-108561299D01*
X114652853Y-108561301D01*
X114652855Y-108561303D01*
X114762116Y-108641941D01*
X114762117Y-108641941D01*
X114762118Y-108641942D01*
X114890301Y-108686795D01*
X114920725Y-108689648D01*
X114920727Y-108689649D01*
X114920734Y-108689649D01*
X115979273Y-108689649D01*
X115979273Y-108689648D01*
X116009699Y-108686795D01*
X116137882Y-108641942D01*
X116247150Y-108561299D01*
X116327793Y-108452031D01*
X116372646Y-108323848D01*
X116375499Y-108293422D01*
X116375500Y-108293422D01*
X116375500Y-107684876D01*
X116375499Y-107684874D01*
X116372646Y-107654454D01*
X116372646Y-107654450D01*
X116327793Y-107526267D01*
X116317800Y-107512727D01*
X116247154Y-107417004D01*
X116247152Y-107417002D01*
X116247150Y-107416999D01*
X116247146Y-107416996D01*
X116247144Y-107416994D01*
X116137883Y-107336356D01*
X116009703Y-107291504D01*
X116009695Y-107291502D01*
X115990252Y-107289678D01*
X115980037Y-107285266D01*
X115968907Y-107285266D01*
X115952590Y-107273411D01*
X115934082Y-107265417D01*
X115928411Y-107255844D01*
X115919407Y-107249302D01*
X115913175Y-107230122D01*
X115902899Y-107212774D01*
X115900500Y-107191111D01*
X115900500Y-107136387D01*
X115913765Y-107086884D01*
X115916392Y-107082335D01*
X115950500Y-106955041D01*
X115950500Y-106823257D01*
X115916392Y-106695963D01*
X115916391Y-106695961D01*
X115914712Y-106689695D01*
X115917697Y-106688895D01*
X115913909Y-106640497D01*
X115945901Y-106588341D01*
X116002439Y-106564951D01*
X116010164Y-106564649D01*
X130683076Y-106564649D01*
X130741267Y-106583556D01*
X130777231Y-106633056D01*
X130778702Y-106689269D01*
X130749500Y-106798257D01*
X130749500Y-106798258D01*
X130749500Y-106832869D01*
X130730593Y-106891060D01*
X130681093Y-106927024D01*
X130631186Y-106929967D01*
X130423467Y-106888649D01*
X130423465Y-106888649D01*
X130216535Y-106888649D01*
X130216532Y-106888649D01*
X130013581Y-106929018D01*
X129822402Y-107008207D01*
X129650348Y-107123169D01*
X129504020Y-107269497D01*
X129389058Y-107441551D01*
X129309869Y-107632730D01*
X129269500Y-107835681D01*
X129269500Y-108042616D01*
X129309869Y-108245567D01*
X129389058Y-108436746D01*
X129504020Y-108608800D01*
X129504023Y-108608804D01*
X129650345Y-108755126D01*
X129822402Y-108870090D01*
X130013580Y-108949279D01*
X130216535Y-108989649D01*
X130216536Y-108989649D01*
X130423464Y-108989649D01*
X130423465Y-108989649D01*
X130626420Y-108949279D01*
X130817598Y-108870090D01*
X130989655Y-108755126D01*
X131135977Y-108608804D01*
X131200132Y-108512788D01*
X131248179Y-108474910D01*
X131309318Y-108472508D01*
X131360192Y-108506500D01*
X131378072Y-108542164D01*
X131380683Y-108551907D01*
X131423531Y-108626122D01*
X131423533Y-108626124D01*
X131423535Y-108626127D01*
X132247022Y-109449614D01*
X132247024Y-109449615D01*
X132247025Y-109449616D01*
X132250203Y-109451451D01*
X132251961Y-109453404D01*
X132252171Y-109453565D01*
X132252141Y-109453603D01*
X132291143Y-109496923D01*
X132297536Y-109557773D01*
X132266941Y-109610760D01*
X132255702Y-109619501D01*
X132190349Y-109663168D01*
X132044020Y-109809497D01*
X131929058Y-109981551D01*
X131849869Y-110172730D01*
X131809500Y-110375681D01*
X131809500Y-110582616D01*
X131849869Y-110785567D01*
X131929058Y-110976746D01*
X132041244Y-111144645D01*
X132044023Y-111148804D01*
X132055866Y-111160647D01*
X132083642Y-111215162D01*
X132074071Y-111275594D01*
X132030806Y-111318859D01*
X131985861Y-111329649D01*
X131671836Y-111329649D01*
X131613645Y-111310742D01*
X131601832Y-111300653D01*
X131305620Y-111004441D01*
X131277843Y-110949924D01*
X131284160Y-110896551D01*
X131292363Y-110876747D01*
X131330131Y-110785569D01*
X131370501Y-110582614D01*
X131370501Y-110375684D01*
X131330131Y-110172729D01*
X131250942Y-109981551D01*
X131135978Y-109809494D01*
X130989656Y-109663172D01*
X130989652Y-109663169D01*
X130817598Y-109548207D01*
X130626419Y-109469018D01*
X130423468Y-109428649D01*
X130423466Y-109428649D01*
X130216536Y-109428649D01*
X130216533Y-109428649D01*
X130013581Y-109469019D01*
X130013579Y-109469019D01*
X129902597Y-109514989D01*
X129841600Y-109519789D01*
X129794708Y-109493529D01*
X129547761Y-109246582D01*
X129229863Y-108928684D01*
X129229860Y-108928682D01*
X129229859Y-108928681D01*
X129229858Y-108928680D01*
X129155643Y-108885832D01*
X129155645Y-108885832D01*
X129123522Y-108877225D01*
X129072854Y-108863649D01*
X129072852Y-108863649D01*
X128580139Y-108863649D01*
X128521948Y-108844742D01*
X128485984Y-108795242D01*
X128485984Y-108734056D01*
X128510133Y-108694647D01*
X128595977Y-108608804D01*
X128710941Y-108436747D01*
X128790130Y-108245569D01*
X128830500Y-108042614D01*
X128830500Y-107835684D01*
X128790130Y-107632729D01*
X128710941Y-107441551D01*
X128595977Y-107269494D01*
X128449655Y-107123172D01*
X128449651Y-107123169D01*
X128277597Y-107008207D01*
X128086418Y-106929018D01*
X127883467Y-106888649D01*
X127883465Y-106888649D01*
X127676535Y-106888649D01*
X127676532Y-106888649D01*
X127473581Y-106929018D01*
X127282402Y-107008207D01*
X127110348Y-107123169D01*
X126964020Y-107269497D01*
X126849058Y-107441551D01*
X126769869Y-107632730D01*
X126729500Y-107835681D01*
X126729500Y-108042616D01*
X126769869Y-108245567D01*
X126849058Y-108436746D01*
X126964020Y-108608800D01*
X126964023Y-108608804D01*
X127049866Y-108694647D01*
X127077642Y-108749162D01*
X127068071Y-108809594D01*
X127024806Y-108852859D01*
X126979861Y-108863649D01*
X125993375Y-108863649D01*
X125935184Y-108844742D01*
X125923371Y-108834653D01*
X125471538Y-108382820D01*
X125547007Y-108339248D01*
X125640099Y-108246156D01*
X125683670Y-108170687D01*
X126152574Y-108639591D01*
X126152575Y-108639591D01*
X126223564Y-108541884D01*
X126223568Y-108541879D01*
X126305749Y-108380589D01*
X126361683Y-108208438D01*
X126390000Y-108029659D01*
X126390000Y-107848638D01*
X126361683Y-107669859D01*
X126305749Y-107497708D01*
X126223568Y-107336418D01*
X126223564Y-107336412D01*
X126152575Y-107238705D01*
X126152574Y-107238705D01*
X125683670Y-107707609D01*
X125640099Y-107632142D01*
X125547007Y-107539050D01*
X125471536Y-107495477D01*
X125940442Y-107026573D01*
X125842728Y-106955579D01*
X125681440Y-106873399D01*
X125509289Y-106817465D01*
X125330510Y-106789149D01*
X125149490Y-106789149D01*
X124970710Y-106817465D01*
X124798559Y-106873399D01*
X124637269Y-106955580D01*
X124637265Y-106955582D01*
X124539556Y-107026572D01*
X125008461Y-107495477D01*
X124932993Y-107539050D01*
X124839901Y-107632142D01*
X124796328Y-107707610D01*
X124327423Y-107238705D01*
X124256433Y-107336414D01*
X124256431Y-107336418D01*
X124174250Y-107497708D01*
X124118316Y-107669859D01*
X124090000Y-107848638D01*
X124090000Y-108029659D01*
X124118316Y-108208438D01*
X124174250Y-108380589D01*
X124256430Y-108541877D01*
X124327424Y-108639591D01*
X124796328Y-108170685D01*
X124839901Y-108246156D01*
X124932993Y-108339248D01*
X125008460Y-108382819D01*
X124556628Y-108834653D01*
X124502111Y-108862430D01*
X124486624Y-108863649D01*
X123773322Y-108863649D01*
X123715131Y-108844742D01*
X123703319Y-108834653D01*
X123657315Y-108788649D01*
X123657309Y-108788645D01*
X123543189Y-108722758D01*
X123543191Y-108722758D01*
X123493799Y-108709524D01*
X123415892Y-108688649D01*
X123284108Y-108688649D01*
X123206200Y-108709524D01*
X123156809Y-108722758D01*
X123042690Y-108788645D01*
X122949496Y-108881839D01*
X122883609Y-108995958D01*
X122870950Y-109043204D01*
X122849500Y-109123257D01*
X122849500Y-109255041D01*
X122863864Y-109308648D01*
X122883609Y-109382339D01*
X122949496Y-109496458D01*
X122949498Y-109496460D01*
X122949500Y-109496463D01*
X123042686Y-109589649D01*
X123042688Y-109589650D01*
X123042690Y-109589652D01*
X123156810Y-109655539D01*
X123156808Y-109655539D01*
X123156812Y-109655540D01*
X123156814Y-109655541D01*
X123284108Y-109689649D01*
X123284110Y-109689649D01*
X123415890Y-109689649D01*
X123415892Y-109689649D01*
X123543186Y-109655541D01*
X123543188Y-109655539D01*
X123543190Y-109655539D01*
X123657309Y-109589652D01*
X123657310Y-109589651D01*
X123657314Y-109589649D01*
X123678259Y-109568704D01*
X123703319Y-109543645D01*
X123757836Y-109515868D01*
X123773322Y-109514649D01*
X124479861Y-109514649D01*
X124538052Y-109533556D01*
X124574016Y-109583056D01*
X124574016Y-109644242D01*
X124549866Y-109683650D01*
X124458886Y-109774631D01*
X124424020Y-109809497D01*
X124309058Y-109981551D01*
X124229869Y-110172730D01*
X124189500Y-110375681D01*
X124189500Y-110582616D01*
X124229869Y-110785567D01*
X124309058Y-110976746D01*
X124421244Y-111144645D01*
X124424023Y-111148804D01*
X124570345Y-111295126D01*
X124742402Y-111410090D01*
X124933580Y-111489279D01*
X125136535Y-111529649D01*
X125136536Y-111529649D01*
X125343464Y-111529649D01*
X125343465Y-111529649D01*
X125546420Y-111489279D01*
X125737598Y-111410090D01*
X125909655Y-111295126D01*
X126055977Y-111148804D01*
X126170941Y-110976747D01*
X126250130Y-110785569D01*
X126290500Y-110582614D01*
X126290500Y-110375684D01*
X126250130Y-110172729D01*
X126170941Y-109981551D01*
X126055977Y-109809494D01*
X125930133Y-109683650D01*
X125902358Y-109629136D01*
X125911929Y-109568704D01*
X125955194Y-109525439D01*
X126000139Y-109514649D01*
X127019861Y-109514649D01*
X127078052Y-109533556D01*
X127114016Y-109583056D01*
X127114016Y-109644242D01*
X127089866Y-109683650D01*
X126998886Y-109774631D01*
X126964020Y-109809497D01*
X126849058Y-109981551D01*
X126769869Y-110172730D01*
X126729500Y-110375681D01*
X126729500Y-110582616D01*
X126769869Y-110785567D01*
X126849058Y-110976746D01*
X126961244Y-111144645D01*
X126964023Y-111148804D01*
X127110345Y-111295126D01*
X127282402Y-111410090D01*
X127473580Y-111489279D01*
X127676535Y-111529649D01*
X127676536Y-111529649D01*
X127883464Y-111529649D01*
X127883465Y-111529649D01*
X128086420Y-111489279D01*
X128277598Y-111410090D01*
X128449655Y-111295126D01*
X128595977Y-111148804D01*
X128710941Y-110976747D01*
X128790130Y-110785569D01*
X128830500Y-110582614D01*
X128830500Y-110375684D01*
X128790130Y-110172729D01*
X128710941Y-109981551D01*
X128595977Y-109809494D01*
X128470133Y-109683650D01*
X128442358Y-109629136D01*
X128451929Y-109568704D01*
X128495194Y-109525439D01*
X128540139Y-109514649D01*
X128854166Y-109514649D01*
X128912357Y-109533556D01*
X128924170Y-109543645D01*
X129334381Y-109953856D01*
X129362158Y-110008373D01*
X129355841Y-110061745D01*
X129309871Y-110172727D01*
X129309871Y-110172729D01*
X129269501Y-110375681D01*
X129269501Y-110582616D01*
X129309870Y-110785567D01*
X129389059Y-110976746D01*
X129501245Y-111144645D01*
X129504024Y-111148804D01*
X129650346Y-111295126D01*
X129822403Y-111410090D01*
X130013581Y-111489279D01*
X130216536Y-111529649D01*
X130216537Y-111529649D01*
X130423465Y-111529649D01*
X130423466Y-111529649D01*
X130626421Y-111489279D01*
X130737403Y-111443307D01*
X130798400Y-111438507D01*
X130845293Y-111464768D01*
X131025170Y-111644645D01*
X131052947Y-111699162D01*
X131043376Y-111759594D01*
X131000111Y-111802859D01*
X130955166Y-111813649D01*
X113449321Y-111813649D01*
X113391130Y-111794742D01*
X113379323Y-111784658D01*
X113308314Y-111713649D01*
X113308311Y-111713647D01*
X113308309Y-111713645D01*
X113194189Y-111647758D01*
X113194191Y-111647758D01*
X113144799Y-111634524D01*
X113066892Y-111613649D01*
X112935108Y-111613649D01*
X112857200Y-111634524D01*
X112807809Y-111647758D01*
X112693690Y-111713645D01*
X112693689Y-111713646D01*
X112693686Y-111713648D01*
X112693686Y-111713649D01*
X112622680Y-111784654D01*
X112568166Y-111812430D01*
X112552679Y-111813649D01*
X111575835Y-111813649D01*
X111517644Y-111794742D01*
X111505831Y-111784653D01*
X109760326Y-110039148D01*
X114425000Y-110039148D01*
X114425000Y-110182211D01*
X114435613Y-110270590D01*
X114491080Y-110411242D01*
X114582435Y-110531711D01*
X114702904Y-110623066D01*
X114843556Y-110678533D01*
X114931935Y-110689146D01*
X114931942Y-110689147D01*
X115299999Y-110689147D01*
X115300000Y-110689146D01*
X115300000Y-110039148D01*
X115600000Y-110039148D01*
X115600000Y-110689146D01*
X115600001Y-110689147D01*
X115968058Y-110689147D01*
X115968064Y-110689146D01*
X116056443Y-110678533D01*
X116197095Y-110623066D01*
X116317564Y-110531711D01*
X116408919Y-110411242D01*
X116464386Y-110270590D01*
X116474999Y-110182211D01*
X116475000Y-110182205D01*
X116475000Y-110039148D01*
X116474999Y-110039147D01*
X115600001Y-110039147D01*
X115600000Y-110039148D01*
X115300000Y-110039148D01*
X115299999Y-110039147D01*
X114425001Y-110039147D01*
X114425000Y-110039148D01*
X109760326Y-110039148D01*
X109317260Y-109596082D01*
X114425000Y-109596082D01*
X114425000Y-109739146D01*
X114425001Y-109739147D01*
X115299999Y-109739147D01*
X115300000Y-109739146D01*
X115300000Y-109089148D01*
X115600000Y-109089148D01*
X115600000Y-109739146D01*
X115600001Y-109739147D01*
X116474999Y-109739147D01*
X116475000Y-109739146D01*
X116475000Y-109596088D01*
X116474999Y-109596082D01*
X116464386Y-109507703D01*
X116408919Y-109367051D01*
X116317564Y-109246582D01*
X116197095Y-109155227D01*
X116056443Y-109099760D01*
X115968064Y-109089147D01*
X115600001Y-109089147D01*
X115600000Y-109089148D01*
X115300000Y-109089148D01*
X115299999Y-109089147D01*
X114931935Y-109089147D01*
X114843556Y-109099760D01*
X114702904Y-109155227D01*
X114582435Y-109246582D01*
X114491080Y-109367051D01*
X114435613Y-109507703D01*
X114425000Y-109596082D01*
X109317260Y-109596082D01*
X108085619Y-108364441D01*
X108057842Y-108309924D01*
X108064159Y-108256551D01*
X108084088Y-108208438D01*
X108110130Y-108145569D01*
X108150500Y-107942614D01*
X108150500Y-107735684D01*
X108110130Y-107532729D01*
X108030941Y-107341551D01*
X107915977Y-107169494D01*
X107769655Y-107023172D01*
X107769651Y-107023169D01*
X107766215Y-107019733D01*
X107767993Y-107017954D01*
X107740269Y-106974413D01*
X107744019Y-106913343D01*
X107782950Y-106866140D01*
X107836122Y-106850649D01*
X113676678Y-106850649D01*
X113734869Y-106869556D01*
X113746681Y-106879645D01*
X113792684Y-106925648D01*
X113792690Y-106925652D01*
X113906810Y-106991539D01*
X113906808Y-106991539D01*
X113906812Y-106991540D01*
X113906814Y-106991541D01*
X114034108Y-107025649D01*
X114034110Y-107025649D01*
X114165890Y-107025649D01*
X114165892Y-107025649D01*
X114293186Y-106991541D01*
X114293188Y-106991539D01*
X114293190Y-106991539D01*
X114407309Y-106925652D01*
X114407309Y-106925651D01*
X114407314Y-106925649D01*
X114500500Y-106832463D01*
X114501548Y-106830648D01*
X114566390Y-106718339D01*
X114566390Y-106718337D01*
X114566392Y-106718335D01*
X114587910Y-106638024D01*
X114621234Y-106586712D01*
X114678355Y-106564785D01*
X114683537Y-106564649D01*
X114889836Y-106564649D01*
X114948027Y-106583556D01*
G37*
%TD.AperFunction*%
%TA.AperFunction,Conductor*%
G36*
X151184275Y-106567117D02*
G01*
X151192164Y-106565868D01*
X151212817Y-106576391D01*
X151234869Y-106583556D01*
X151246681Y-106593645D01*
X151292684Y-106639648D01*
X151292690Y-106639652D01*
X151406810Y-106705539D01*
X151406808Y-106705539D01*
X151406812Y-106705540D01*
X151406814Y-106705541D01*
X151534108Y-106739649D01*
X151534110Y-106739649D01*
X151665890Y-106739649D01*
X151665892Y-106739649D01*
X151793186Y-106705541D01*
X151793188Y-106705539D01*
X151793190Y-106705539D01*
X151907309Y-106639652D01*
X151907310Y-106639651D01*
X151907314Y-106639649D01*
X151918792Y-106628171D01*
X151953319Y-106593645D01*
X152007836Y-106565868D01*
X152023322Y-106564649D01*
X158824165Y-106564649D01*
X158882356Y-106583556D01*
X158894168Y-106593645D01*
X159100137Y-106799613D01*
X159100142Y-106799617D01*
X159174357Y-106842465D01*
X159174355Y-106842465D01*
X159174359Y-106842466D01*
X159174361Y-106842467D01*
X159257147Y-106864649D01*
X160999859Y-106864649D01*
X161058050Y-106883556D01*
X161094014Y-106933056D01*
X161094014Y-106994242D01*
X161069864Y-107033650D01*
X161005228Y-107098287D01*
X160954020Y-107149495D01*
X160839058Y-107321549D01*
X160759869Y-107512728D01*
X160719500Y-107715679D01*
X160719500Y-107922614D01*
X160759870Y-108125566D01*
X160759870Y-108125568D01*
X160805840Y-108236549D01*
X160810641Y-108297545D01*
X160784380Y-108344438D01*
X157344167Y-111784653D01*
X157289650Y-111812430D01*
X157274163Y-111813649D01*
X137199835Y-111813649D01*
X137141644Y-111794742D01*
X137105680Y-111745242D01*
X137105680Y-111684056D01*
X137129831Y-111644645D01*
X138418331Y-110356145D01*
X138472848Y-110328368D01*
X138488335Y-110327149D01*
X141724517Y-110327149D01*
X141782708Y-110346056D01*
X141817961Y-110393451D01*
X141847207Y-110477032D01*
X141927845Y-110586293D01*
X141927847Y-110586295D01*
X141927850Y-110586299D01*
X141927853Y-110586301D01*
X141927855Y-110586303D01*
X142037116Y-110666941D01*
X142037117Y-110666941D01*
X142037118Y-110666942D01*
X142165301Y-110711795D01*
X142195725Y-110714648D01*
X142195727Y-110714649D01*
X142195734Y-110714649D01*
X143204273Y-110714649D01*
X143204273Y-110714648D01*
X143234699Y-110711795D01*
X143362882Y-110666942D01*
X143472150Y-110586299D01*
X143552793Y-110477031D01*
X143597646Y-110348848D01*
X143600499Y-110318422D01*
X143600500Y-110318422D01*
X143600500Y-109684876D01*
X143600499Y-109684874D01*
X143597646Y-109654450D01*
X143585713Y-109620347D01*
X143584340Y-109559177D01*
X143619183Y-109508882D01*
X143676935Y-109488674D01*
X143679157Y-109488649D01*
X144035665Y-109488649D01*
X144043262Y-109491117D01*
X144051152Y-109489868D01*
X144071807Y-109500392D01*
X144093856Y-109507556D01*
X144105669Y-109517645D01*
X144131728Y-109543704D01*
X144159505Y-109598221D01*
X144155170Y-109646401D01*
X144152353Y-109654451D01*
X144149500Y-109684874D01*
X144149500Y-110318423D01*
X144152353Y-110348843D01*
X144152355Y-110348852D01*
X144197207Y-110477032D01*
X144277845Y-110586293D01*
X144277847Y-110586295D01*
X144277850Y-110586299D01*
X144277853Y-110586301D01*
X144277855Y-110586303D01*
X144387116Y-110666941D01*
X144387117Y-110666941D01*
X144387118Y-110666942D01*
X144515301Y-110711795D01*
X144545725Y-110714648D01*
X144545727Y-110714649D01*
X144545734Y-110714649D01*
X145554273Y-110714649D01*
X145554273Y-110714648D01*
X145584699Y-110711795D01*
X145712882Y-110666942D01*
X145822150Y-110586299D01*
X145902793Y-110477031D01*
X145947646Y-110348848D01*
X145950499Y-110318422D01*
X145950500Y-110318422D01*
X145950500Y-109684876D01*
X145950499Y-109684874D01*
X145947646Y-109654450D01*
X145902793Y-109526267D01*
X145898012Y-109519789D01*
X145822154Y-109417004D01*
X145822152Y-109417002D01*
X145822150Y-109416999D01*
X145822146Y-109416996D01*
X145822144Y-109416994D01*
X145712883Y-109336356D01*
X145584703Y-109291504D01*
X145584694Y-109291502D01*
X145554274Y-109288649D01*
X145554266Y-109288649D01*
X144838335Y-109288649D01*
X144830737Y-109286180D01*
X144822848Y-109287430D01*
X144802192Y-109276905D01*
X144780144Y-109269742D01*
X144768331Y-109259653D01*
X144666831Y-109158153D01*
X144639054Y-109103636D01*
X144648625Y-109043204D01*
X144691890Y-108999939D01*
X144736835Y-108989149D01*
X144899999Y-108989149D01*
X144900000Y-108989148D01*
X144900000Y-108326650D01*
X145200000Y-108326650D01*
X145200000Y-108989148D01*
X145200001Y-108989149D01*
X145543058Y-108989149D01*
X145543064Y-108989148D01*
X145631443Y-108978535D01*
X145772095Y-108923068D01*
X145892564Y-108831713D01*
X145983919Y-108711244D01*
X146039386Y-108570592D01*
X146049999Y-108482213D01*
X146050000Y-108482207D01*
X146050000Y-108326650D01*
X146049999Y-108326649D01*
X145200001Y-108326649D01*
X145200000Y-108326650D01*
X144900000Y-108326650D01*
X144899999Y-108326649D01*
X144050001Y-108326649D01*
X144050000Y-108326650D01*
X144050000Y-108482213D01*
X144060614Y-108570595D01*
X144112564Y-108702330D01*
X144116323Y-108763400D01*
X144083468Y-108815016D01*
X144026549Y-108837462D01*
X144020467Y-108837649D01*
X143611909Y-108837649D01*
X143553718Y-108818742D01*
X143517754Y-108769242D01*
X143517754Y-108708056D01*
X143532254Y-108679860D01*
X143550507Y-108655128D01*
X143552793Y-108652031D01*
X143597646Y-108523848D01*
X143600499Y-108493422D01*
X143600500Y-108493422D01*
X143600500Y-107871084D01*
X144050000Y-107871084D01*
X144050000Y-108026648D01*
X144050001Y-108026649D01*
X144899999Y-108026649D01*
X144900000Y-108026648D01*
X144900000Y-107364150D01*
X145200000Y-107364150D01*
X145200000Y-108026648D01*
X145200001Y-108026649D01*
X146049999Y-108026649D01*
X146050000Y-108026648D01*
X146050000Y-107871090D01*
X146049999Y-107871084D01*
X146039386Y-107782705D01*
X145983919Y-107642053D01*
X145892564Y-107521584D01*
X145772095Y-107430229D01*
X145631443Y-107374762D01*
X145543064Y-107364149D01*
X145200001Y-107364149D01*
X145200000Y-107364150D01*
X144900000Y-107364150D01*
X144899999Y-107364149D01*
X144556935Y-107364149D01*
X144468556Y-107374762D01*
X144327904Y-107430229D01*
X144207435Y-107521584D01*
X144116080Y-107642053D01*
X144060613Y-107782705D01*
X144050000Y-107871084D01*
X143600500Y-107871084D01*
X143600500Y-107859876D01*
X143600499Y-107859874D01*
X143599445Y-107848638D01*
X143597646Y-107829450D01*
X143552793Y-107701267D01*
X143540701Y-107684883D01*
X143472154Y-107592004D01*
X143472152Y-107592002D01*
X143472150Y-107591999D01*
X143472146Y-107591996D01*
X143472144Y-107591994D01*
X143362883Y-107511356D01*
X143234703Y-107466504D01*
X143234694Y-107466502D01*
X143204274Y-107463649D01*
X143204266Y-107463649D01*
X142195734Y-107463649D01*
X142195725Y-107463649D01*
X142165305Y-107466502D01*
X142165296Y-107466504D01*
X142037116Y-107511356D01*
X141927855Y-107591994D01*
X141927845Y-107592004D01*
X141847207Y-107701265D01*
X141817961Y-107784847D01*
X141780896Y-107833527D01*
X141724517Y-107851149D01*
X137113622Y-107851149D01*
X137113606Y-107851148D01*
X137107543Y-107851148D01*
X137021837Y-107851148D01*
X137021834Y-107851148D01*
X136939052Y-107873330D01*
X136939048Y-107873332D01*
X136864828Y-107916183D01*
X136804224Y-107976786D01*
X136804225Y-107976787D01*
X136719004Y-108062008D01*
X136664487Y-108089785D01*
X136604055Y-108080214D01*
X136560790Y-108036949D01*
X136550000Y-107992004D01*
X136550000Y-107848638D01*
X136521683Y-107669859D01*
X136465749Y-107497708D01*
X136383568Y-107336418D01*
X136383564Y-107336412D01*
X136312575Y-107238705D01*
X136312574Y-107238705D01*
X135843670Y-107707609D01*
X135800099Y-107632142D01*
X135707007Y-107539050D01*
X135631536Y-107495477D01*
X136100442Y-107026573D01*
X136002728Y-106955579D01*
X135841440Y-106873399D01*
X135669289Y-106817465D01*
X135490510Y-106789149D01*
X135309490Y-106789149D01*
X135130710Y-106817465D01*
X134958559Y-106873399D01*
X134797269Y-106955580D01*
X134797265Y-106955582D01*
X134699556Y-107026572D01*
X135168461Y-107495477D01*
X135092993Y-107539050D01*
X134999901Y-107632142D01*
X134956328Y-107707610D01*
X134487423Y-107238705D01*
X134416433Y-107336414D01*
X134416431Y-107336418D01*
X134334250Y-107497708D01*
X134278316Y-107669859D01*
X134250000Y-107848638D01*
X134250000Y-108029659D01*
X134278316Y-108208438D01*
X134334250Y-108380589D01*
X134416430Y-108541877D01*
X134487424Y-108639591D01*
X134956328Y-108170685D01*
X134999901Y-108246156D01*
X135092993Y-108339248D01*
X135168460Y-108382819D01*
X134699556Y-108851723D01*
X134699962Y-108856881D01*
X134685679Y-108916376D01*
X134639153Y-108956113D01*
X134601267Y-108963649D01*
X134385835Y-108963649D01*
X134327644Y-108944742D01*
X134315831Y-108934653D01*
X133845619Y-108464441D01*
X133817842Y-108409924D01*
X133824159Y-108356551D01*
X133832362Y-108336747D01*
X133870130Y-108245569D01*
X133910500Y-108042614D01*
X133910500Y-107835684D01*
X133870130Y-107632729D01*
X133790941Y-107441551D01*
X133675977Y-107269494D01*
X133529655Y-107123172D01*
X133529651Y-107123169D01*
X133357597Y-107008207D01*
X133166418Y-106929018D01*
X132963467Y-106888649D01*
X132963465Y-106888649D01*
X132756535Y-106888649D01*
X132756532Y-106888649D01*
X132553581Y-106929018D01*
X132362402Y-107008207D01*
X132190345Y-107123171D01*
X132134802Y-107178714D01*
X132109747Y-107191479D01*
X132085386Y-107205546D01*
X132082694Y-107205263D01*
X132080285Y-107206491D01*
X132052507Y-107202091D01*
X132024535Y-107199152D01*
X132022524Y-107197342D01*
X132019853Y-107196919D01*
X131979064Y-107158213D01*
X131976200Y-107153254D01*
X131974030Y-107149496D01*
X131951263Y-107110062D01*
X131951262Y-107110060D01*
X131951262Y-107110059D01*
X131951260Y-107110057D01*
X131944465Y-107098287D01*
X131883862Y-107037684D01*
X131883859Y-107037682D01*
X131880404Y-107034226D01*
X131880398Y-107034221D01*
X131779496Y-106933318D01*
X131751719Y-106878802D01*
X131750500Y-106863315D01*
X131750500Y-106798258D01*
X131750500Y-106798257D01*
X131721297Y-106689269D01*
X131724500Y-106628171D01*
X131763005Y-106580621D01*
X131816924Y-106564649D01*
X151176678Y-106564649D01*
X151184275Y-106567117D01*
G37*
%TD.AperFunction*%
%TA.AperFunction,Conductor*%
G36*
X140546250Y-94142023D02*
G01*
X140560235Y-94145770D01*
X140578443Y-94150649D01*
X140578445Y-94150650D01*
X140578446Y-94150650D01*
X140670214Y-94150650D01*
X140670230Y-94150649D01*
X141177678Y-94150649D01*
X141235869Y-94169556D01*
X141247681Y-94179645D01*
X141293684Y-94225648D01*
X141293690Y-94225652D01*
X141407810Y-94291539D01*
X141407808Y-94291539D01*
X141407812Y-94291540D01*
X141407814Y-94291541D01*
X141535108Y-94325649D01*
X141535110Y-94325649D01*
X141666890Y-94325649D01*
X141666892Y-94325649D01*
X141794186Y-94291541D01*
X141794188Y-94291539D01*
X141794190Y-94291539D01*
X141908309Y-94225652D01*
X141908310Y-94225651D01*
X141908314Y-94225649D01*
X141929259Y-94204704D01*
X141954319Y-94179645D01*
X142008836Y-94151868D01*
X142024322Y-94150649D01*
X161013860Y-94150649D01*
X161072051Y-94169556D01*
X161108015Y-94219056D01*
X161108015Y-94280242D01*
X161083865Y-94319650D01*
X160954023Y-94449493D01*
X160954020Y-94449496D01*
X160839058Y-94621550D01*
X160784803Y-94752535D01*
X160745066Y-94799060D01*
X160693339Y-94813649D01*
X139898322Y-94813649D01*
X139840131Y-94794742D01*
X139828319Y-94784653D01*
X139782315Y-94738649D01*
X139782309Y-94738645D01*
X139668189Y-94672758D01*
X139668191Y-94672758D01*
X139618799Y-94659524D01*
X139540892Y-94638649D01*
X139409108Y-94638649D01*
X139331200Y-94659524D01*
X139281809Y-94672758D01*
X139167690Y-94738645D01*
X139167684Y-94738649D01*
X139121681Y-94784653D01*
X139067164Y-94812430D01*
X139051678Y-94813649D01*
X117073322Y-94813649D01*
X117015131Y-94794742D01*
X117003319Y-94784653D01*
X116957315Y-94738649D01*
X116957309Y-94738645D01*
X116843189Y-94672758D01*
X116843191Y-94672758D01*
X116793799Y-94659524D01*
X116715892Y-94638649D01*
X116584108Y-94638649D01*
X116506200Y-94659524D01*
X116456809Y-94672758D01*
X116342690Y-94738645D01*
X116342684Y-94738649D01*
X116296681Y-94784653D01*
X116242164Y-94812430D01*
X116226678Y-94813649D01*
X108168378Y-94813649D01*
X108110187Y-94794742D01*
X108076914Y-94752535D01*
X108030942Y-94641551D01*
X107915980Y-94469497D01*
X107915978Y-94469494D01*
X107769656Y-94323172D01*
X107769652Y-94323169D01*
X107766216Y-94319733D01*
X107767994Y-94317954D01*
X107740270Y-94274413D01*
X107744020Y-94213343D01*
X107782951Y-94166140D01*
X107836123Y-94150649D01*
X120957147Y-94150649D01*
X123226678Y-94150649D01*
X123284869Y-94169556D01*
X123296681Y-94179645D01*
X123342684Y-94225648D01*
X123342690Y-94225652D01*
X123456810Y-94291539D01*
X123456808Y-94291539D01*
X123456812Y-94291540D01*
X123456814Y-94291541D01*
X123584108Y-94325649D01*
X123584110Y-94325649D01*
X123715890Y-94325649D01*
X123715892Y-94325649D01*
X123843186Y-94291541D01*
X123843188Y-94291539D01*
X123843190Y-94291539D01*
X123957309Y-94225652D01*
X123957310Y-94225651D01*
X123957314Y-94225649D01*
X123978259Y-94204704D01*
X124003319Y-94179645D01*
X124057836Y-94151868D01*
X124073322Y-94150649D01*
X140121554Y-94150649D01*
X140121555Y-94150649D01*
X140153752Y-94142021D01*
X140179374Y-94138649D01*
X140520626Y-94138649D01*
X140546250Y-94142023D01*
G37*
%TD.AperFunction*%
%TA.AperFunction,Conductor*%
G36*
X129444108Y-90810556D02*
G01*
X129480072Y-90860056D01*
X129480072Y-90921242D01*
X129444108Y-90970742D01*
X129422236Y-90982746D01*
X129377907Y-91000226D01*
X129257435Y-91091584D01*
X129166080Y-91212053D01*
X129110613Y-91352705D01*
X129100000Y-91441084D01*
X129100000Y-91809148D01*
X129100001Y-91809149D01*
X132199999Y-91809149D01*
X132200000Y-91809148D01*
X132200000Y-91441090D01*
X132199999Y-91441084D01*
X132189386Y-91352705D01*
X132133919Y-91212053D01*
X132042564Y-91091584D01*
X131922092Y-91000226D01*
X131877764Y-90982746D01*
X131830567Y-90943810D01*
X131815270Y-90884568D01*
X131837716Y-90827648D01*
X131889332Y-90794793D01*
X131914083Y-90791649D01*
X135855166Y-90791649D01*
X135913357Y-90810556D01*
X135925170Y-90820645D01*
X136589535Y-91485010D01*
X136589534Y-91485010D01*
X136624767Y-91520242D01*
X136650138Y-91545613D01*
X136724362Y-91588466D01*
X136807147Y-91610648D01*
X139483076Y-91610648D01*
X139541267Y-91629555D01*
X139577231Y-91679055D01*
X139578702Y-91735268D01*
X139549500Y-91844256D01*
X139549500Y-91976040D01*
X139562152Y-92023257D01*
X139583608Y-92103335D01*
X139596203Y-92125149D01*
X139608924Y-92184997D01*
X139584037Y-92240893D01*
X139531049Y-92271486D01*
X139510466Y-92273649D01*
X136892853Y-92273649D01*
X136807147Y-92273649D01*
X136735943Y-92292728D01*
X136724362Y-92295831D01*
X136650138Y-92338684D01*
X136589533Y-92399289D01*
X136543438Y-92479129D01*
X136542438Y-92478552D01*
X136526657Y-92502162D01*
X136009169Y-93019652D01*
X135954652Y-93047430D01*
X135939165Y-93048649D01*
X133740528Y-93048649D01*
X133682337Y-93029742D01*
X133646373Y-92980242D01*
X133646373Y-92919056D01*
X133682337Y-92869556D01*
X133707830Y-92856205D01*
X133722924Y-92850923D01*
X133762880Y-92836942D01*
X133872148Y-92756299D01*
X133952791Y-92647031D01*
X133952792Y-92647025D01*
X133955241Y-92642395D01*
X133999145Y-92599780D01*
X134042771Y-92589649D01*
X134165890Y-92589649D01*
X134165892Y-92589649D01*
X134293186Y-92555541D01*
X134293188Y-92555539D01*
X134293190Y-92555539D01*
X134407309Y-92489652D01*
X134407309Y-92489651D01*
X134407314Y-92489649D01*
X134500500Y-92396463D01*
X134558600Y-92295831D01*
X134566390Y-92282339D01*
X134566390Y-92282337D01*
X134566392Y-92282335D01*
X134600500Y-92155041D01*
X134600500Y-92023257D01*
X134566392Y-91895963D01*
X134566390Y-91895960D01*
X134566390Y-91895958D01*
X134500503Y-91781839D01*
X134500501Y-91781837D01*
X134500500Y-91781835D01*
X134407314Y-91688649D01*
X134407311Y-91688647D01*
X134407309Y-91688645D01*
X134293189Y-91622758D01*
X134293191Y-91622758D01*
X134229192Y-91605610D01*
X134165892Y-91588649D01*
X134099498Y-91588649D01*
X134041307Y-91569742D01*
X134005343Y-91520242D01*
X134000498Y-91489649D01*
X134000498Y-91429876D01*
X134000497Y-91429874D01*
X133997644Y-91399454D01*
X133997644Y-91399450D01*
X133952791Y-91271267D01*
X133909089Y-91212053D01*
X133872152Y-91162004D01*
X133872150Y-91162002D01*
X133872148Y-91161999D01*
X133872144Y-91161996D01*
X133872142Y-91161994D01*
X133762881Y-91081356D01*
X133634701Y-91036504D01*
X133634692Y-91036502D01*
X133604272Y-91033649D01*
X133604264Y-91033649D01*
X132995732Y-91033649D01*
X132995723Y-91033649D01*
X132965303Y-91036502D01*
X132965294Y-91036504D01*
X132837114Y-91081356D01*
X132727853Y-91161994D01*
X132727843Y-91162004D01*
X132647205Y-91271265D01*
X132602353Y-91399445D01*
X132602351Y-91399454D01*
X132599498Y-91429874D01*
X132599498Y-92488423D01*
X132602351Y-92518843D01*
X132602353Y-92518852D01*
X132647205Y-92647032D01*
X132727843Y-92756293D01*
X132727845Y-92756295D01*
X132727848Y-92756299D01*
X132727851Y-92756301D01*
X132727853Y-92756303D01*
X132837114Y-92836941D01*
X132837115Y-92836941D01*
X132837116Y-92836942D01*
X132867393Y-92847536D01*
X132892166Y-92856205D01*
X132940846Y-92893270D01*
X132958443Y-92951870D01*
X132938235Y-93009622D01*
X132887940Y-93044466D01*
X132859468Y-93048649D01*
X132044294Y-93048649D01*
X131986103Y-93029742D01*
X131950139Y-92980242D01*
X131950139Y-92919056D01*
X131984475Y-92870765D01*
X132042561Y-92826716D01*
X132042564Y-92826713D01*
X132133919Y-92706244D01*
X132189386Y-92565592D01*
X132199999Y-92477213D01*
X132200000Y-92477207D01*
X132200000Y-92109150D01*
X132199999Y-92109149D01*
X129100001Y-92109149D01*
X129100000Y-92109150D01*
X129100000Y-92477213D01*
X129110613Y-92565592D01*
X129166080Y-92706244D01*
X129257435Y-92826713D01*
X129257438Y-92826716D01*
X129315525Y-92870765D01*
X129350468Y-92920992D01*
X129349214Y-92982164D01*
X129312244Y-93030917D01*
X129255706Y-93048649D01*
X128440530Y-93048649D01*
X128382339Y-93029742D01*
X128346375Y-92980242D01*
X128346375Y-92919056D01*
X128382339Y-92869556D01*
X128407832Y-92856205D01*
X128422926Y-92850923D01*
X128462882Y-92836942D01*
X128572150Y-92756299D01*
X128652793Y-92647031D01*
X128697646Y-92518848D01*
X128700499Y-92488422D01*
X128700500Y-92488422D01*
X128700500Y-91429876D01*
X128700499Y-91429874D01*
X128697646Y-91399454D01*
X128697646Y-91399450D01*
X128652793Y-91271267D01*
X128609091Y-91212053D01*
X128572154Y-91162004D01*
X128572152Y-91162002D01*
X128572150Y-91161999D01*
X128572146Y-91161996D01*
X128572144Y-91161994D01*
X128462883Y-91081356D01*
X128334703Y-91036504D01*
X128334694Y-91036502D01*
X128304274Y-91033649D01*
X128304266Y-91033649D01*
X127695734Y-91033649D01*
X127695725Y-91033649D01*
X127665305Y-91036502D01*
X127665296Y-91036504D01*
X127537116Y-91081356D01*
X127427855Y-91161994D01*
X127427845Y-91162004D01*
X127347207Y-91271265D01*
X127302355Y-91399445D01*
X127302353Y-91399454D01*
X127299500Y-91429874D01*
X127299500Y-91495429D01*
X127280593Y-91553620D01*
X127231093Y-91589584D01*
X127174883Y-91591057D01*
X127165896Y-91588649D01*
X127165892Y-91588649D01*
X127034108Y-91588649D01*
X126970808Y-91605610D01*
X126906809Y-91622758D01*
X126792690Y-91688645D01*
X126699496Y-91781839D01*
X126633609Y-91895958D01*
X126614539Y-91967127D01*
X126599500Y-92023257D01*
X126599500Y-92155041D01*
X126622504Y-92240893D01*
X126633609Y-92282339D01*
X126699496Y-92396458D01*
X126699498Y-92396460D01*
X126699500Y-92396463D01*
X126792686Y-92489649D01*
X126792688Y-92489650D01*
X126792690Y-92489652D01*
X126906810Y-92555539D01*
X126906808Y-92555539D01*
X126906812Y-92555540D01*
X126906814Y-92555541D01*
X127034108Y-92589649D01*
X127034110Y-92589649D01*
X127165891Y-92589649D01*
X127165892Y-92589649D01*
X127224578Y-92573924D01*
X127285679Y-92577125D01*
X127333229Y-92615630D01*
X127343645Y-92636852D01*
X127347207Y-92647032D01*
X127427845Y-92756293D01*
X127427847Y-92756295D01*
X127427850Y-92756299D01*
X127427853Y-92756301D01*
X127427855Y-92756303D01*
X127537116Y-92836941D01*
X127537117Y-92836941D01*
X127537118Y-92836942D01*
X127567395Y-92847536D01*
X127592168Y-92856205D01*
X127640848Y-92893270D01*
X127658445Y-92951870D01*
X127638237Y-93009622D01*
X127587942Y-93044466D01*
X127559470Y-93048649D01*
X125550833Y-93048649D01*
X125492642Y-93029742D01*
X125480829Y-93019652D01*
X125129496Y-92668318D01*
X125101719Y-92613802D01*
X125100500Y-92598315D01*
X125100500Y-92533258D01*
X125090432Y-92495683D01*
X125066392Y-92405963D01*
X125066390Y-92405960D01*
X125066390Y-92405958D01*
X125000503Y-92291839D01*
X125000501Y-92291837D01*
X125000500Y-92291835D01*
X124907314Y-92198649D01*
X124907311Y-92198647D01*
X124907309Y-92198645D01*
X124793189Y-92132758D01*
X124793191Y-92132758D01*
X124743799Y-92119524D01*
X124665892Y-92098649D01*
X124534108Y-92098649D01*
X124456200Y-92119524D01*
X124406809Y-92132758D01*
X124292690Y-92198645D01*
X124292684Y-92198649D01*
X124246681Y-92244653D01*
X124192164Y-92272430D01*
X124176678Y-92273649D01*
X109023322Y-92273649D01*
X108965131Y-92254742D01*
X108953319Y-92244653D01*
X108907315Y-92198649D01*
X108907309Y-92198645D01*
X108793189Y-92132758D01*
X108793191Y-92132758D01*
X108743799Y-92119524D01*
X108665892Y-92098649D01*
X108534108Y-92098649D01*
X108456200Y-92119524D01*
X108406809Y-92132758D01*
X108292690Y-92198645D01*
X108292684Y-92198649D01*
X108246681Y-92244653D01*
X108239564Y-92248278D01*
X108234869Y-92254742D01*
X108212817Y-92261906D01*
X108192164Y-92272430D01*
X108176678Y-92273649D01*
X108168378Y-92273649D01*
X108110187Y-92254742D01*
X108076914Y-92212535D01*
X108030942Y-92101551D01*
X107915980Y-91929497D01*
X107915979Y-91929496D01*
X107915978Y-91929494D01*
X107769656Y-91783172D01*
X107769652Y-91783169D01*
X107766216Y-91779733D01*
X107768052Y-91777896D01*
X107740366Y-91734788D01*
X107743877Y-91673703D01*
X107782622Y-91626348D01*
X107836121Y-91610648D01*
X108823678Y-91610648D01*
X108881869Y-91629555D01*
X108893675Y-91639638D01*
X108917686Y-91663649D01*
X108917688Y-91663650D01*
X108917690Y-91663652D01*
X109031810Y-91729539D01*
X109031808Y-91729539D01*
X109031812Y-91729540D01*
X109031814Y-91729541D01*
X109159108Y-91763649D01*
X109159110Y-91763649D01*
X109290890Y-91763649D01*
X109290892Y-91763649D01*
X109418186Y-91729541D01*
X109418188Y-91729539D01*
X109418190Y-91729539D01*
X109532309Y-91663652D01*
X109532309Y-91663651D01*
X109532314Y-91663649D01*
X109556319Y-91639643D01*
X109610835Y-91611867D01*
X109626322Y-91610648D01*
X109694861Y-91610648D01*
X119426678Y-91610648D01*
X119484869Y-91629555D01*
X119496681Y-91639644D01*
X119542684Y-91685647D01*
X119542690Y-91685651D01*
X119656810Y-91751538D01*
X119656808Y-91751538D01*
X119656812Y-91751539D01*
X119656814Y-91751540D01*
X119784108Y-91785648D01*
X119784110Y-91785648D01*
X119915890Y-91785648D01*
X119915892Y-91785648D01*
X120043186Y-91751540D01*
X120043188Y-91751538D01*
X120043190Y-91751538D01*
X120157309Y-91685651D01*
X120157310Y-91685650D01*
X120157314Y-91685648D01*
X120179313Y-91663649D01*
X120203319Y-91639644D01*
X120257836Y-91611867D01*
X120273322Y-91610648D01*
X124542851Y-91610648D01*
X124542853Y-91610648D01*
X124625639Y-91588466D01*
X124625641Y-91588464D01*
X124625643Y-91588464D01*
X124699857Y-91545616D01*
X124699857Y-91545615D01*
X124699862Y-91545613D01*
X125424830Y-90820645D01*
X125479347Y-90792868D01*
X125494834Y-90791649D01*
X129385917Y-90791649D01*
X129444108Y-90810556D01*
G37*
%TD.AperFunction*%
%TA.AperFunction,Conductor*%
G36*
X139560574Y-89033556D02*
G01*
X139596538Y-89083056D01*
X139596538Y-89144242D01*
X139588118Y-89163151D01*
X139583609Y-89170959D01*
X139583608Y-89170963D01*
X139549500Y-89298257D01*
X139549500Y-89430041D01*
X139583608Y-89557335D01*
X139583608Y-89557336D01*
X139585288Y-89563603D01*
X139582628Y-89564315D01*
X139586509Y-89613785D01*
X139554526Y-89665946D01*
X139497992Y-89689346D01*
X139490250Y-89689649D01*
X125016656Y-89689649D01*
X124958465Y-89670742D01*
X124922501Y-89621242D01*
X124921029Y-89565029D01*
X124950500Y-89455041D01*
X124950500Y-89323257D01*
X124916392Y-89195963D01*
X124915110Y-89193742D01*
X124897447Y-89163148D01*
X124884726Y-89103300D01*
X124909613Y-89047405D01*
X124962601Y-89016812D01*
X124983184Y-89014649D01*
X139502383Y-89014649D01*
X139560574Y-89033556D01*
G37*
%TD.AperFunction*%
%TA.AperFunction,Conductor*%
G36*
X139548027Y-85283556D02*
G01*
X139583991Y-85333056D01*
X139583991Y-85389347D01*
X139585288Y-85389695D01*
X139583608Y-85395961D01*
X139583608Y-85395963D01*
X139549500Y-85523257D01*
X139549500Y-85655041D01*
X139583608Y-85782335D01*
X139583608Y-85782336D01*
X139585288Y-85788603D01*
X139582302Y-85789402D01*
X139586091Y-85837801D01*
X139554099Y-85889957D01*
X139497561Y-85913347D01*
X139489836Y-85913649D01*
X120307321Y-85913649D01*
X120249130Y-85894742D01*
X120237323Y-85884658D01*
X120157314Y-85804649D01*
X120157311Y-85804647D01*
X120157309Y-85804645D01*
X120043189Y-85738758D01*
X120043191Y-85738758D01*
X119993799Y-85725524D01*
X119915892Y-85704649D01*
X119784108Y-85704649D01*
X119706200Y-85725524D01*
X119656809Y-85738758D01*
X119542690Y-85804645D01*
X119449499Y-85897836D01*
X119434794Y-85923306D01*
X119411212Y-85964149D01*
X119365744Y-86005090D01*
X119325477Y-86013649D01*
X107768971Y-86013649D01*
X107710780Y-85994742D01*
X107674816Y-85945242D01*
X107674816Y-85884056D01*
X107710780Y-85834556D01*
X107713970Y-85832333D01*
X107769655Y-85795126D01*
X107915977Y-85648804D01*
X108030941Y-85476747D01*
X108064403Y-85395963D01*
X108076913Y-85365763D01*
X108116650Y-85319237D01*
X108168377Y-85304649D01*
X120576678Y-85304649D01*
X120634869Y-85323556D01*
X120646681Y-85333645D01*
X120692684Y-85379648D01*
X120692690Y-85379652D01*
X120806810Y-85445539D01*
X120806808Y-85445539D01*
X120806812Y-85445540D01*
X120806814Y-85445541D01*
X120934108Y-85479649D01*
X120934110Y-85479649D01*
X121065890Y-85479649D01*
X121065892Y-85479649D01*
X121193186Y-85445541D01*
X121193188Y-85445539D01*
X121193190Y-85445539D01*
X121307309Y-85379652D01*
X121307309Y-85379651D01*
X121307314Y-85379649D01*
X121393319Y-85293643D01*
X121447834Y-85265868D01*
X121463321Y-85264649D01*
X139489836Y-85264649D01*
X139548027Y-85283556D01*
G37*
%TD.AperFunction*%
%TA.AperFunction,Conductor*%
G36*
X111322059Y-83933556D02*
G01*
X111333865Y-83943639D01*
X111340840Y-83950614D01*
X111359762Y-83961538D01*
X111378683Y-83972463D01*
X111378684Y-83972463D01*
X111415064Y-83993467D01*
X111497847Y-84015649D01*
X111497849Y-84015650D01*
X111497850Y-84015650D01*
X111589618Y-84015650D01*
X111589634Y-84015649D01*
X112102149Y-84015649D01*
X112102151Y-84015649D01*
X112184937Y-83993467D01*
X112184939Y-83993465D01*
X112184941Y-83993465D01*
X112259155Y-83950617D01*
X112259155Y-83950616D01*
X112259160Y-83950614D01*
X112266130Y-83943643D01*
X112320645Y-83915868D01*
X112336132Y-83914649D01*
X119363868Y-83914649D01*
X119422059Y-83933556D01*
X119433865Y-83943639D01*
X119440840Y-83950614D01*
X119459762Y-83961538D01*
X119478683Y-83972463D01*
X119478684Y-83972463D01*
X119515064Y-83993467D01*
X119597847Y-84015649D01*
X119597849Y-84015650D01*
X119597850Y-84015650D01*
X119689618Y-84015650D01*
X119689634Y-84015649D01*
X120202149Y-84015649D01*
X120202151Y-84015649D01*
X120284937Y-83993467D01*
X120284939Y-83993465D01*
X120284941Y-83993465D01*
X120359155Y-83950617D01*
X120359155Y-83950616D01*
X120359160Y-83950614D01*
X120366130Y-83943643D01*
X120373245Y-83940018D01*
X120377941Y-83933556D01*
X120399989Y-83926392D01*
X120420645Y-83915868D01*
X120436132Y-83914649D01*
X120540239Y-83914649D01*
X120598430Y-83933556D01*
X120625975Y-83964149D01*
X120673496Y-84046458D01*
X120673498Y-84046460D01*
X120673500Y-84046463D01*
X120766686Y-84139649D01*
X120766688Y-84139650D01*
X120766690Y-84139652D01*
X120880810Y-84205539D01*
X120880808Y-84205539D01*
X120880812Y-84205540D01*
X120880814Y-84205541D01*
X121008108Y-84239649D01*
X121008110Y-84239649D01*
X121139890Y-84239649D01*
X121139892Y-84239649D01*
X121267186Y-84205541D01*
X121267188Y-84205539D01*
X121267190Y-84205539D01*
X121381309Y-84139652D01*
X121381309Y-84139651D01*
X121381314Y-84139649D01*
X121474500Y-84046463D01*
X121485041Y-84028206D01*
X121522025Y-83964149D01*
X121567494Y-83923208D01*
X121607761Y-83914649D01*
X139517394Y-83914649D01*
X139575585Y-83933556D01*
X139611549Y-83983056D01*
X139611549Y-84044242D01*
X139603130Y-84063150D01*
X139583609Y-84096960D01*
X139583608Y-84096962D01*
X139583608Y-84096963D01*
X139549500Y-84224257D01*
X139549500Y-84356041D01*
X139583130Y-84481551D01*
X139585133Y-84489026D01*
X139581930Y-84550128D01*
X139543425Y-84597678D01*
X139489506Y-84613649D01*
X121383321Y-84613649D01*
X121325130Y-84594742D01*
X121313323Y-84584658D01*
X121307314Y-84578649D01*
X121307311Y-84578647D01*
X121307309Y-84578645D01*
X121193189Y-84512758D01*
X121193191Y-84512758D01*
X121125952Y-84494742D01*
X121065892Y-84478649D01*
X120934108Y-84478649D01*
X120874048Y-84494742D01*
X120806809Y-84512758D01*
X120692690Y-84578645D01*
X120692684Y-84578649D01*
X120646681Y-84624653D01*
X120592164Y-84652430D01*
X120576678Y-84653649D01*
X108168377Y-84653649D01*
X108110186Y-84634742D01*
X108076913Y-84592535D01*
X108030941Y-84481551D01*
X107915979Y-84309497D01*
X107915977Y-84309494D01*
X107769655Y-84163172D01*
X107769649Y-84163168D01*
X107673641Y-84099018D01*
X107661212Y-84083253D01*
X107645612Y-84070619D01*
X107642708Y-84059780D01*
X107635761Y-84050968D01*
X107634972Y-84030908D01*
X107629778Y-84011518D01*
X107633799Y-84001042D01*
X107633359Y-83989830D01*
X107644511Y-83973138D01*
X107651706Y-83954398D01*
X107661116Y-83948287D01*
X107667351Y-83938956D01*
X107703019Y-83921075D01*
X107712756Y-83918467D01*
X107712756Y-83918466D01*
X107714416Y-83918022D01*
X107740037Y-83914649D01*
X111263868Y-83914649D01*
X111322059Y-83933556D01*
G37*
%TD.AperFunction*%
%TA.AperFunction,Conductor*%
G36*
X118137207Y-75444407D02*
G01*
X118149020Y-75454496D01*
X118670504Y-75975979D01*
X118698281Y-76030496D01*
X118699500Y-76045983D01*
X118699500Y-76111041D01*
X118724060Y-76202702D01*
X118733609Y-76238339D01*
X118763522Y-76290149D01*
X118776244Y-76349997D01*
X118751357Y-76405893D01*
X118698369Y-76436486D01*
X118677786Y-76438649D01*
X113593377Y-76438649D01*
X113535186Y-76419742D01*
X113499737Y-76370951D01*
X113499636Y-76370987D01*
X113499517Y-76370649D01*
X113499222Y-76370242D01*
X113498696Y-76368300D01*
X113455554Y-76245008D01*
X113452793Y-76237118D01*
X113372150Y-76127850D01*
X113372146Y-76127847D01*
X113372144Y-76127845D01*
X113262883Y-76047207D01*
X113134703Y-76002355D01*
X113134694Y-76002353D01*
X113104274Y-75999500D01*
X113104266Y-75999500D01*
X111895734Y-75999500D01*
X111895725Y-75999500D01*
X111865305Y-76002353D01*
X111865296Y-76002355D01*
X111737116Y-76047207D01*
X111627855Y-76127845D01*
X111627845Y-76127855D01*
X111547207Y-76237115D01*
X111531037Y-76283328D01*
X111493971Y-76332008D01*
X111435371Y-76349604D01*
X111399826Y-76337166D01*
X111376777Y-76335352D01*
X110870464Y-76841665D01*
X110820079Y-76754394D01*
X110745605Y-76679920D01*
X110658331Y-76629532D01*
X111164645Y-76123219D01*
X111076527Y-76059197D01*
X111076523Y-76059195D01*
X110922247Y-75980588D01*
X110757578Y-75927084D01*
X110586574Y-75900000D01*
X110413424Y-75900000D01*
X110242419Y-75927084D01*
X110077750Y-75980588D01*
X109923475Y-76059195D01*
X109835351Y-76123219D01*
X110341665Y-76629533D01*
X110254393Y-76679920D01*
X110179919Y-76754394D01*
X110129532Y-76841666D01*
X109623218Y-76335352D01*
X109559194Y-76423476D01*
X109480587Y-76577751D01*
X109427083Y-76742420D01*
X109399999Y-76913424D01*
X109399999Y-77086575D01*
X109427083Y-77257579D01*
X109480587Y-77422248D01*
X109559194Y-77576524D01*
X109559196Y-77576528D01*
X109623218Y-77664646D01*
X110129531Y-77158332D01*
X110179919Y-77245606D01*
X110254393Y-77320080D01*
X110341664Y-77370465D01*
X109835351Y-77876778D01*
X109923476Y-77940805D01*
X110077750Y-78019411D01*
X110242419Y-78072915D01*
X110413424Y-78100000D01*
X110586574Y-78100000D01*
X110757578Y-78072915D01*
X110922247Y-78019411D01*
X111076523Y-77940804D01*
X111076529Y-77940800D01*
X111164645Y-77876779D01*
X111164645Y-77876778D01*
X110658332Y-77370466D01*
X110745605Y-77320080D01*
X110820079Y-77245606D01*
X110870465Y-77158333D01*
X111376777Y-77664646D01*
X111396111Y-77663125D01*
X111406997Y-77655216D01*
X111468183Y-77655214D01*
X111517684Y-77691177D01*
X111531037Y-77716672D01*
X111547207Y-77762883D01*
X111627845Y-77872144D01*
X111627847Y-77872146D01*
X111627850Y-77872150D01*
X111627853Y-77872152D01*
X111627855Y-77872154D01*
X111737116Y-77952792D01*
X111737117Y-77952792D01*
X111737118Y-77952793D01*
X111865301Y-77997646D01*
X111895725Y-78000499D01*
X111895727Y-78000500D01*
X111895734Y-78000500D01*
X113104273Y-78000500D01*
X113104273Y-78000499D01*
X113134699Y-77997646D01*
X113262882Y-77952793D01*
X113372150Y-77872150D01*
X113452793Y-77762882D01*
X113497646Y-77634699D01*
X113500499Y-77604273D01*
X113500500Y-77604273D01*
X113500500Y-77438649D01*
X113519407Y-77380458D01*
X113568907Y-77344494D01*
X113599500Y-77339649D01*
X120452761Y-77339649D01*
X120502258Y-77352910D01*
X120506814Y-77355541D01*
X120634108Y-77389649D01*
X120634110Y-77389649D01*
X120765890Y-77389649D01*
X120765892Y-77389649D01*
X120893186Y-77355541D01*
X120893188Y-77355539D01*
X120893190Y-77355539D01*
X121007309Y-77289652D01*
X121007309Y-77289651D01*
X121007314Y-77289649D01*
X121100500Y-77196463D01*
X121166392Y-77082335D01*
X121200500Y-76955041D01*
X121200500Y-76823257D01*
X121166392Y-76695963D01*
X121166390Y-76695960D01*
X121166390Y-76695958D01*
X121100503Y-76581839D01*
X121100501Y-76581837D01*
X121100500Y-76581835D01*
X121058315Y-76539650D01*
X121030540Y-76485136D01*
X121040111Y-76424704D01*
X121083376Y-76381439D01*
X121128321Y-76370649D01*
X161013860Y-76370649D01*
X161072051Y-76389556D01*
X161108015Y-76439056D01*
X161108015Y-76500242D01*
X161083865Y-76539650D01*
X160996257Y-76627259D01*
X160954020Y-76669496D01*
X160839058Y-76841550D01*
X160784803Y-76972535D01*
X160745066Y-77019060D01*
X160693339Y-77033649D01*
X141523322Y-77033649D01*
X141465131Y-77014742D01*
X141453319Y-77004653D01*
X141407315Y-76958649D01*
X141407309Y-76958645D01*
X141293189Y-76892758D01*
X141293191Y-76892758D01*
X141243799Y-76879524D01*
X141165892Y-76858649D01*
X141034108Y-76858649D01*
X140956200Y-76879524D01*
X140906809Y-76892758D01*
X140792690Y-76958645D01*
X140792684Y-76958649D01*
X140746681Y-77004653D01*
X140692164Y-77032430D01*
X140676678Y-77033649D01*
X124173322Y-77033649D01*
X124115131Y-77014742D01*
X124103319Y-77004653D01*
X124057315Y-76958649D01*
X124057309Y-76958645D01*
X123943189Y-76892758D01*
X123943191Y-76892758D01*
X123893799Y-76879524D01*
X123815892Y-76858649D01*
X123684108Y-76858649D01*
X123606200Y-76879524D01*
X123556809Y-76892758D01*
X123442690Y-76958645D01*
X123349496Y-77051839D01*
X123283609Y-77165958D01*
X123249500Y-77293258D01*
X123249500Y-77358314D01*
X123230593Y-77416505D01*
X123220504Y-77428318D01*
X122303318Y-78345504D01*
X122248801Y-78373281D01*
X122233314Y-78374500D01*
X110016685Y-78374500D01*
X109958494Y-78355593D01*
X109946681Y-78345504D01*
X109346940Y-77745763D01*
X108699862Y-77098684D01*
X108699859Y-77098682D01*
X108699857Y-77098680D01*
X108625642Y-77055832D01*
X108625644Y-77055832D01*
X108593521Y-77047225D01*
X108542853Y-77033649D01*
X108542851Y-77033649D01*
X108168377Y-77033649D01*
X108142802Y-77025339D01*
X108116652Y-77019062D01*
X108114028Y-77015990D01*
X108110186Y-77014742D01*
X108076914Y-76972537D01*
X108066512Y-76947426D01*
X108066511Y-76947425D01*
X108030941Y-76861551D01*
X107915977Y-76689494D01*
X107769655Y-76543172D01*
X107769651Y-76543169D01*
X107766215Y-76539733D01*
X107767993Y-76537954D01*
X107740269Y-76494413D01*
X107744019Y-76433343D01*
X107782950Y-76386140D01*
X107836122Y-76370649D01*
X108897702Y-76370649D01*
X108897704Y-76370649D01*
X108980490Y-76348467D01*
X108980492Y-76348465D01*
X108980494Y-76348465D01*
X109054708Y-76305617D01*
X109054708Y-76305616D01*
X109054713Y-76305614D01*
X109905830Y-75454495D01*
X109960347Y-75426719D01*
X109975834Y-75425500D01*
X118079016Y-75425500D01*
X118137207Y-75444407D01*
G37*
%TD.AperFunction*%
%TA.AperFunction,Conductor*%
G36*
X103869501Y-65454282D02*
G01*
X103890345Y-65475126D01*
X104062402Y-65590090D01*
X104253580Y-65669279D01*
X104456535Y-65709649D01*
X104456536Y-65709649D01*
X104663464Y-65709649D01*
X104663465Y-65709649D01*
X104866420Y-65669279D01*
X104866425Y-65669276D01*
X104870074Y-65668551D01*
X104930835Y-65675743D01*
X104959392Y-65695645D01*
X105509386Y-66245639D01*
X105612113Y-66304948D01*
X105726691Y-66335648D01*
X105759304Y-66335648D01*
X105762142Y-66335689D01*
X105773731Y-66336021D01*
X105787273Y-66339650D01*
X105892727Y-66339650D01*
X105892731Y-66339649D01*
X106234861Y-66339649D01*
X106293052Y-66358556D01*
X106329016Y-66408056D01*
X106329016Y-66469242D01*
X106304866Y-66508650D01*
X106284023Y-66529494D01*
X106284020Y-66529497D01*
X106169058Y-66701551D01*
X106089869Y-66892730D01*
X106049500Y-67095681D01*
X106049500Y-67302616D01*
X106089869Y-67505567D01*
X106169058Y-67696746D01*
X106240499Y-67803666D01*
X106284023Y-67868804D01*
X106430345Y-68015126D01*
X106602402Y-68130090D01*
X106638384Y-68144994D01*
X106684910Y-68184729D01*
X106699500Y-68236458D01*
X106699500Y-68701837D01*
X106680593Y-68760028D01*
X106638387Y-68793300D01*
X106602405Y-68808204D01*
X106430348Y-68923168D01*
X106284020Y-69069496D01*
X106169058Y-69241550D01*
X106089869Y-69432729D01*
X106049500Y-69635680D01*
X106049500Y-69842615D01*
X106089869Y-70045566D01*
X106169058Y-70236745D01*
X106284020Y-70408799D01*
X106284023Y-70408803D01*
X106430345Y-70555125D01*
X106602402Y-70670089D01*
X106793580Y-70749278D01*
X106996535Y-70789648D01*
X106996536Y-70789648D01*
X107203464Y-70789648D01*
X107203465Y-70789648D01*
X107406420Y-70749278D01*
X107442403Y-70734372D01*
X107503398Y-70729572D01*
X107550292Y-70755833D01*
X108029521Y-71235062D01*
X108029520Y-71235062D01*
X108067987Y-71273528D01*
X108104088Y-71309629D01*
X108195414Y-71362356D01*
X108297274Y-71389649D01*
X160144040Y-71389649D01*
X160202231Y-71408556D01*
X160238195Y-71458056D01*
X160238195Y-71519242D01*
X160214044Y-71558653D01*
X159868045Y-71904652D01*
X159813528Y-71932429D01*
X159798041Y-71933648D01*
X115425178Y-71933648D01*
X115375679Y-71920384D01*
X115293186Y-71872757D01*
X115165892Y-71838649D01*
X115034108Y-71838649D01*
X114957973Y-71859049D01*
X114906809Y-71872758D01*
X114792690Y-71938645D01*
X114699496Y-72031839D01*
X114633609Y-72145958D01*
X114625645Y-72175681D01*
X114599500Y-72273257D01*
X114599500Y-72405041D01*
X114622608Y-72491281D01*
X114633609Y-72532339D01*
X114699496Y-72646458D01*
X114699498Y-72646460D01*
X114699500Y-72646463D01*
X114792686Y-72739649D01*
X114792688Y-72739650D01*
X114792690Y-72739652D01*
X114906810Y-72805539D01*
X114906808Y-72805539D01*
X114906812Y-72805540D01*
X114906814Y-72805541D01*
X115034108Y-72839649D01*
X115034110Y-72839649D01*
X115165890Y-72839649D01*
X115165892Y-72839649D01*
X115293186Y-72805541D01*
X115293188Y-72805539D01*
X115293190Y-72805539D01*
X115407309Y-72739652D01*
X115407309Y-72739651D01*
X115407314Y-72739649D01*
X115500500Y-72646463D01*
X115507611Y-72634147D01*
X115553081Y-72593207D01*
X115593347Y-72584648D01*
X127505270Y-72584648D01*
X127563461Y-72603555D01*
X127599425Y-72653055D01*
X127599425Y-72714241D01*
X127591006Y-72733148D01*
X127583609Y-72745958D01*
X127574716Y-72779149D01*
X127549500Y-72873257D01*
X127549500Y-73005041D01*
X127583608Y-73132335D01*
X127586234Y-73136884D01*
X127599500Y-73186387D01*
X127599500Y-73502238D01*
X127580593Y-73560429D01*
X127559288Y-73581893D01*
X127477853Y-73641994D01*
X127477843Y-73642004D01*
X127397205Y-73751265D01*
X127352353Y-73879445D01*
X127352351Y-73879454D01*
X127349498Y-73909874D01*
X127349498Y-74968423D01*
X127352351Y-74998843D01*
X127352353Y-74998852D01*
X127397205Y-75127032D01*
X127477843Y-75236293D01*
X127477845Y-75236295D01*
X127477848Y-75236299D01*
X127477851Y-75236301D01*
X127477853Y-75236303D01*
X127587114Y-75316941D01*
X127587115Y-75316941D01*
X127587116Y-75316942D01*
X127715299Y-75361795D01*
X127745723Y-75364648D01*
X127745725Y-75364649D01*
X127745732Y-75364649D01*
X128354271Y-75364649D01*
X128354271Y-75364648D01*
X128384697Y-75361795D01*
X128512880Y-75316942D01*
X128622148Y-75236299D01*
X128702791Y-75127031D01*
X128747644Y-74998848D01*
X128750497Y-74968422D01*
X128750498Y-74968422D01*
X128750498Y-73909876D01*
X128750497Y-73909874D01*
X128747644Y-73879450D01*
X128702791Y-73751267D01*
X128700858Y-73748648D01*
X128622152Y-73642004D01*
X128622150Y-73642002D01*
X128622148Y-73641999D01*
X128622144Y-73641996D01*
X128622142Y-73641994D01*
X128540712Y-73581896D01*
X128505119Y-73532128D01*
X128500500Y-73502241D01*
X128500500Y-73186387D01*
X128506396Y-73152732D01*
X128509376Y-73144485D01*
X128516392Y-73132335D01*
X128550500Y-73005041D01*
X128550500Y-72873257D01*
X128516392Y-72745963D01*
X128516390Y-72745960D01*
X128516390Y-72745958D01*
X128508994Y-72733148D01*
X128496272Y-72673300D01*
X128521158Y-72617404D01*
X128574146Y-72586811D01*
X128594730Y-72584648D01*
X160016727Y-72584648D01*
X160016729Y-72584648D01*
X160099515Y-72562466D01*
X160099517Y-72562464D01*
X160099519Y-72562464D01*
X160173733Y-72519616D01*
X160173733Y-72519615D01*
X160173738Y-72519613D01*
X160450998Y-72242352D01*
X160505513Y-72214576D01*
X160565945Y-72224147D01*
X160609210Y-72267412D01*
X160620000Y-72312357D01*
X160620000Y-72349658D01*
X160648316Y-72528437D01*
X160704250Y-72700588D01*
X160786430Y-72861876D01*
X160857424Y-72959590D01*
X161326328Y-72490685D01*
X161369901Y-72566155D01*
X161462993Y-72659247D01*
X161538460Y-72702818D01*
X161069556Y-73171722D01*
X161069556Y-73171723D01*
X161167263Y-73242712D01*
X161167269Y-73242716D01*
X161328559Y-73324897D01*
X161500710Y-73380831D01*
X161679490Y-73409148D01*
X161860510Y-73409148D01*
X162039289Y-73380831D01*
X162211440Y-73324897D01*
X162372730Y-73242716D01*
X162372735Y-73242712D01*
X162470442Y-73171723D01*
X162470442Y-73171722D01*
X162001538Y-72702818D01*
X162077007Y-72659247D01*
X162170099Y-72566155D01*
X162213670Y-72490686D01*
X162682574Y-72959590D01*
X162682575Y-72959590D01*
X162753564Y-72861883D01*
X162753568Y-72861878D01*
X162835749Y-72700588D01*
X162891683Y-72528437D01*
X162920000Y-72349658D01*
X162920000Y-72168637D01*
X162891683Y-71989858D01*
X162835749Y-71817707D01*
X162753569Y-71656418D01*
X162687759Y-71565839D01*
X162682913Y-71550926D01*
X162673697Y-71538241D01*
X162673697Y-71522559D01*
X162668852Y-71507648D01*
X162673697Y-71492736D01*
X162673697Y-71477055D01*
X162682913Y-71464369D01*
X162687759Y-71449457D01*
X162700444Y-71440240D01*
X162709661Y-71427555D01*
X162724573Y-71422709D01*
X162737259Y-71413493D01*
X162767852Y-71408648D01*
X162958165Y-71408648D01*
X163016356Y-71427555D01*
X163028169Y-71437644D01*
X163324380Y-71733855D01*
X163352157Y-71788372D01*
X163345840Y-71841744D01*
X163299870Y-71952726D01*
X163299870Y-71952728D01*
X163259500Y-72155680D01*
X163259500Y-72362615D01*
X163299869Y-72565566D01*
X163379058Y-72756745D01*
X163494020Y-72928799D01*
X163494023Y-72928803D01*
X163640345Y-73075125D01*
X163812402Y-73190089D01*
X164003580Y-73269278D01*
X164206535Y-73309648D01*
X164206536Y-73309648D01*
X164413464Y-73309648D01*
X164413465Y-73309648D01*
X164616420Y-73269278D01*
X164807598Y-73190089D01*
X164979655Y-73075125D01*
X165024725Y-73030055D01*
X165061136Y-72993645D01*
X165115653Y-72965868D01*
X165131139Y-72964649D01*
X174078166Y-72964649D01*
X174136357Y-72983556D01*
X174148170Y-72993645D01*
X174900138Y-73745613D01*
X174900140Y-73745614D01*
X174900141Y-73745615D01*
X174900142Y-73745616D01*
X174974357Y-73788464D01*
X174974355Y-73788464D01*
X174974359Y-73788465D01*
X174974361Y-73788466D01*
X175057147Y-73810648D01*
X175057149Y-73810648D01*
X181888435Y-73810648D01*
X181946626Y-73829555D01*
X181982590Y-73879055D01*
X181982663Y-73879678D01*
X182458462Y-74355477D01*
X182382994Y-74399050D01*
X182289902Y-74492142D01*
X182246330Y-74567610D01*
X181777424Y-74098705D01*
X181706434Y-74196414D01*
X181706432Y-74196418D01*
X181624251Y-74357708D01*
X181568317Y-74529859D01*
X181540001Y-74708638D01*
X181540001Y-74889659D01*
X181568317Y-75068438D01*
X181624251Y-75240589D01*
X181706432Y-75401879D01*
X181706434Y-75401883D01*
X181808568Y-75542459D01*
X181827475Y-75600650D01*
X181808567Y-75658840D01*
X181759067Y-75694804D01*
X181728475Y-75699649D01*
X175142853Y-75699649D01*
X175057147Y-75699649D01*
X174974361Y-75721831D01*
X174974360Y-75721831D01*
X174974358Y-75721832D01*
X174946643Y-75737834D01*
X174900136Y-75764684D01*
X174839534Y-75825286D01*
X174839535Y-75825287D01*
X174180169Y-76484653D01*
X174125652Y-76512430D01*
X174110165Y-76513649D01*
X166525836Y-76513649D01*
X166467645Y-76494742D01*
X166455832Y-76484653D01*
X165295619Y-75324440D01*
X165267842Y-75269923D01*
X165274159Y-75216550D01*
X165286712Y-75186244D01*
X165320130Y-75105568D01*
X165360500Y-74902613D01*
X165360500Y-74695683D01*
X165345655Y-74621053D01*
X168599500Y-74621053D01*
X168599500Y-74857244D01*
X168636445Y-75090512D01*
X168709432Y-75315141D01*
X168811597Y-75515653D01*
X168816657Y-75525582D01*
X168955483Y-75716659D01*
X169122490Y-75883666D01*
X169313567Y-76022492D01*
X169524008Y-76129717D01*
X169748632Y-76202702D01*
X169748633Y-76202702D01*
X169748636Y-76202703D01*
X169981905Y-76239649D01*
X169981908Y-76239649D01*
X170218095Y-76239649D01*
X170451363Y-76202703D01*
X170451364Y-76202702D01*
X170451368Y-76202702D01*
X170675992Y-76129717D01*
X170886433Y-76022492D01*
X171077510Y-75883666D01*
X171244517Y-75716659D01*
X171383343Y-75525582D01*
X171490568Y-75315141D01*
X171563553Y-75090517D01*
X171567050Y-75068438D01*
X171600500Y-74857244D01*
X171600500Y-74621053D01*
X171563554Y-74387785D01*
X171558834Y-74373257D01*
X171490568Y-74163157D01*
X171383343Y-73952716D01*
X171244517Y-73761639D01*
X171077510Y-73594632D01*
X170886433Y-73455806D01*
X170886432Y-73455805D01*
X170886430Y-73455804D01*
X170675992Y-73348581D01*
X170451363Y-73275594D01*
X170218095Y-73238649D01*
X170218092Y-73238649D01*
X169981908Y-73238649D01*
X169981905Y-73238649D01*
X169748636Y-73275594D01*
X169524007Y-73348581D01*
X169313569Y-73455804D01*
X169122491Y-73594631D01*
X168955482Y-73761640D01*
X168816655Y-73952718D01*
X168709432Y-74163156D01*
X168636445Y-74387785D01*
X168599500Y-74621053D01*
X165345655Y-74621053D01*
X165320130Y-74492728D01*
X165240941Y-74301550D01*
X165125977Y-74129493D01*
X164979655Y-73983171D01*
X164979651Y-73983168D01*
X164807597Y-73868206D01*
X164616418Y-73789017D01*
X164413467Y-73748648D01*
X164413465Y-73748648D01*
X164206535Y-73748648D01*
X164206532Y-73748648D01*
X164003581Y-73789017D01*
X163812402Y-73868206D01*
X163640348Y-73983168D01*
X163494020Y-74129496D01*
X163379058Y-74301550D01*
X163299869Y-74492729D01*
X163259500Y-74695680D01*
X163259500Y-74902615D01*
X163286413Y-75037916D01*
X163299869Y-75105565D01*
X163299870Y-75105567D01*
X163299870Y-75105569D01*
X163345840Y-75216551D01*
X163350640Y-75277548D01*
X163324380Y-75324439D01*
X162958169Y-75690652D01*
X162903652Y-75718430D01*
X162888165Y-75719649D01*
X162519375Y-75719649D01*
X162461184Y-75700742D01*
X162449371Y-75690653D01*
X162001538Y-75242820D01*
X162077007Y-75199248D01*
X162170099Y-75106156D01*
X162213670Y-75030687D01*
X162682574Y-75499591D01*
X162682575Y-75499591D01*
X162753564Y-75401884D01*
X162753568Y-75401879D01*
X162835749Y-75240589D01*
X162891683Y-75068438D01*
X162920000Y-74889659D01*
X162920000Y-74708638D01*
X162891683Y-74529859D01*
X162835749Y-74357708D01*
X162753568Y-74196418D01*
X162753564Y-74196412D01*
X162682575Y-74098705D01*
X162682574Y-74098705D01*
X162213670Y-74567609D01*
X162170099Y-74492142D01*
X162077007Y-74399050D01*
X162001536Y-74355477D01*
X162470442Y-73886573D01*
X162372728Y-73815579D01*
X162211440Y-73733399D01*
X162039289Y-73677465D01*
X161860510Y-73649149D01*
X161679490Y-73649149D01*
X161500710Y-73677465D01*
X161328559Y-73733399D01*
X161167269Y-73815580D01*
X161167265Y-73815582D01*
X161069556Y-73886572D01*
X161538461Y-74355477D01*
X161462993Y-74399050D01*
X161369901Y-74492142D01*
X161326328Y-74567610D01*
X160857423Y-74098705D01*
X160786433Y-74196414D01*
X160786431Y-74196418D01*
X160704250Y-74357708D01*
X160648316Y-74529859D01*
X160620000Y-74708638D01*
X160620000Y-74889659D01*
X160648316Y-75068438D01*
X160704250Y-75240589D01*
X160786430Y-75401877D01*
X160857424Y-75499591D01*
X161326328Y-75030685D01*
X161369901Y-75106156D01*
X161462993Y-75199248D01*
X161538460Y-75242819D01*
X161090628Y-75690653D01*
X161036111Y-75718430D01*
X161020624Y-75719649D01*
X119623322Y-75719649D01*
X119565131Y-75700742D01*
X119553319Y-75690653D01*
X119507315Y-75644649D01*
X119507309Y-75644645D01*
X119393189Y-75578758D01*
X119393191Y-75578758D01*
X119332360Y-75562459D01*
X119265892Y-75544649D01*
X119265890Y-75544649D01*
X119200834Y-75544649D01*
X119142643Y-75525742D01*
X119130830Y-75515653D01*
X118814425Y-75199248D01*
X118454713Y-74839535D01*
X118454710Y-74839533D01*
X118454708Y-74839531D01*
X118380493Y-74796683D01*
X118380495Y-74796683D01*
X118348372Y-74788076D01*
X118297704Y-74774500D01*
X118297702Y-74774500D01*
X109848932Y-74774500D01*
X109848916Y-74774499D01*
X109842853Y-74774499D01*
X109757148Y-74774499D01*
X109757145Y-74774499D01*
X109674365Y-74796680D01*
X109637250Y-74818108D01*
X109607628Y-74835211D01*
X109600135Y-74839537D01*
X109539534Y-74900137D01*
X109539535Y-74900138D01*
X108749020Y-75690653D01*
X108694503Y-75718430D01*
X108679016Y-75719649D01*
X108061526Y-75719649D01*
X108003335Y-75700742D01*
X107967371Y-75651242D01*
X107967371Y-75590056D01*
X107981433Y-75562459D01*
X108083566Y-75421883D01*
X108083568Y-75421879D01*
X108165749Y-75260589D01*
X108221683Y-75088438D01*
X108250000Y-74909659D01*
X108250000Y-74728638D01*
X108221684Y-74549861D01*
X108172134Y-74397361D01*
X108172134Y-74397359D01*
X108165750Y-74377709D01*
X108163482Y-74373257D01*
X120199500Y-74373257D01*
X120199500Y-74505041D01*
X120222037Y-74589150D01*
X120233609Y-74632339D01*
X120299496Y-74746458D01*
X120299498Y-74746460D01*
X120299500Y-74746463D01*
X120392686Y-74839649D01*
X120392688Y-74839650D01*
X120392690Y-74839652D01*
X120506810Y-74905539D01*
X120506808Y-74905539D01*
X120506812Y-74905540D01*
X120506814Y-74905541D01*
X120634108Y-74939649D01*
X120634110Y-74939649D01*
X120765890Y-74939649D01*
X120765892Y-74939649D01*
X120893186Y-74905541D01*
X120897741Y-74902910D01*
X120947239Y-74889649D01*
X121101963Y-74889649D01*
X121160154Y-74908556D01*
X121196118Y-74958056D01*
X121200530Y-74979404D01*
X121202353Y-74998843D01*
X121202355Y-74998852D01*
X121247207Y-75127032D01*
X121327845Y-75236293D01*
X121327847Y-75236295D01*
X121327850Y-75236299D01*
X121327853Y-75236301D01*
X121327855Y-75236303D01*
X121437116Y-75316941D01*
X121437117Y-75316941D01*
X121437118Y-75316942D01*
X121565301Y-75361795D01*
X121595725Y-75364648D01*
X121595727Y-75364649D01*
X121595734Y-75364649D01*
X122204273Y-75364649D01*
X122204273Y-75364648D01*
X122234699Y-75361795D01*
X122362882Y-75316942D01*
X122472150Y-75236299D01*
X122552793Y-75127031D01*
X122597646Y-74998848D01*
X122600499Y-74968422D01*
X122600500Y-74968422D01*
X122600500Y-74589150D01*
X123000000Y-74589150D01*
X123000000Y-74957213D01*
X123010613Y-75045592D01*
X123066080Y-75186244D01*
X123157435Y-75306713D01*
X123277904Y-75398068D01*
X123418556Y-75453535D01*
X123506935Y-75464148D01*
X123506942Y-75464149D01*
X123649999Y-75464149D01*
X123650000Y-75464148D01*
X123650000Y-74589150D01*
X123950000Y-74589150D01*
X123950000Y-75464148D01*
X123950001Y-75464149D01*
X124093058Y-75464149D01*
X124093064Y-75464148D01*
X124181443Y-75453535D01*
X124322095Y-75398068D01*
X124442564Y-75306713D01*
X124533919Y-75186244D01*
X124589386Y-75045592D01*
X124599999Y-74957213D01*
X124600000Y-74957207D01*
X124600000Y-74589150D01*
X125350000Y-74589150D01*
X125350000Y-74957213D01*
X125360613Y-75045592D01*
X125416080Y-75186244D01*
X125507435Y-75306713D01*
X125627904Y-75398068D01*
X125768556Y-75453535D01*
X125856935Y-75464148D01*
X125856942Y-75464149D01*
X125999999Y-75464149D01*
X126000000Y-75464148D01*
X126000000Y-74589150D01*
X126300000Y-74589150D01*
X126300000Y-75464148D01*
X126300001Y-75464149D01*
X126443058Y-75464149D01*
X126443064Y-75464148D01*
X126531443Y-75453535D01*
X126672095Y-75398068D01*
X126792564Y-75306713D01*
X126883919Y-75186244D01*
X126939386Y-75045592D01*
X126949999Y-74957213D01*
X126950000Y-74957207D01*
X126950000Y-74589150D01*
X126949999Y-74589149D01*
X126300001Y-74589149D01*
X126300000Y-74589150D01*
X126000000Y-74589150D01*
X125999999Y-74589149D01*
X125350001Y-74589149D01*
X125350000Y-74589150D01*
X124600000Y-74589150D01*
X124599999Y-74589149D01*
X123950001Y-74589149D01*
X123950000Y-74589150D01*
X123650000Y-74589150D01*
X123649999Y-74589149D01*
X123000001Y-74589149D01*
X123000000Y-74589150D01*
X122600500Y-74589150D01*
X122600500Y-73921084D01*
X123000000Y-73921084D01*
X123000000Y-74289148D01*
X123000001Y-74289149D01*
X123649999Y-74289149D01*
X123650000Y-74289148D01*
X123650000Y-73414150D01*
X123950000Y-73414150D01*
X123950000Y-74289148D01*
X123950001Y-74289149D01*
X124599999Y-74289149D01*
X124600000Y-74289148D01*
X124600000Y-73921090D01*
X124599999Y-73921084D01*
X125350000Y-73921084D01*
X125350000Y-74289148D01*
X125350001Y-74289149D01*
X125999999Y-74289149D01*
X126000000Y-74289148D01*
X126000000Y-73414150D01*
X126300000Y-73414150D01*
X126300000Y-74289148D01*
X126300001Y-74289149D01*
X126949999Y-74289149D01*
X126950000Y-74289148D01*
X126950000Y-73921090D01*
X126949999Y-73921084D01*
X126939386Y-73832705D01*
X126883919Y-73692053D01*
X126792564Y-73571584D01*
X126672095Y-73480229D01*
X126531443Y-73424762D01*
X126443064Y-73414149D01*
X126300001Y-73414149D01*
X126300000Y-73414150D01*
X126000000Y-73414150D01*
X125999999Y-73414149D01*
X125856935Y-73414149D01*
X125768556Y-73424762D01*
X125627904Y-73480229D01*
X125507435Y-73571584D01*
X125416080Y-73692053D01*
X125360613Y-73832705D01*
X125350000Y-73921084D01*
X124599999Y-73921084D01*
X124589386Y-73832705D01*
X124533919Y-73692053D01*
X124442564Y-73571584D01*
X124322095Y-73480229D01*
X124181443Y-73424762D01*
X124093064Y-73414149D01*
X123950001Y-73414149D01*
X123950000Y-73414150D01*
X123650000Y-73414150D01*
X123649999Y-73414149D01*
X123506935Y-73414149D01*
X123418556Y-73424762D01*
X123277904Y-73480229D01*
X123157435Y-73571584D01*
X123066080Y-73692053D01*
X123010613Y-73832705D01*
X123000000Y-73921084D01*
X122600500Y-73921084D01*
X122600500Y-73909876D01*
X122600499Y-73909874D01*
X122597646Y-73879450D01*
X122552793Y-73751267D01*
X122550860Y-73748648D01*
X122472154Y-73642004D01*
X122472152Y-73642002D01*
X122472150Y-73641999D01*
X122472146Y-73641996D01*
X122472144Y-73641994D01*
X122362883Y-73561356D01*
X122234703Y-73516504D01*
X122234694Y-73516502D01*
X122204274Y-73513649D01*
X122204266Y-73513649D01*
X121595734Y-73513649D01*
X121595725Y-73513649D01*
X121565305Y-73516502D01*
X121565296Y-73516504D01*
X121437116Y-73561356D01*
X121327855Y-73641994D01*
X121327845Y-73642004D01*
X121247207Y-73751265D01*
X121202355Y-73879445D01*
X121202353Y-73879454D01*
X121200530Y-73898894D01*
X121196118Y-73909110D01*
X121196118Y-73920242D01*
X121184264Y-73936556D01*
X121176272Y-73955064D01*
X121166697Y-73960736D01*
X121160154Y-73969742D01*
X121140976Y-73975973D01*
X121123630Y-73986249D01*
X121101963Y-73988649D01*
X120947239Y-73988649D01*
X120897741Y-73975387D01*
X120893186Y-73972757D01*
X120881934Y-73969742D01*
X120765892Y-73938649D01*
X120634108Y-73938649D01*
X120572846Y-73955064D01*
X120506809Y-73972758D01*
X120392690Y-74038645D01*
X120299496Y-74131839D01*
X120233609Y-74245958D01*
X120233608Y-74245963D01*
X120199500Y-74373257D01*
X108163482Y-74373257D01*
X108083568Y-74216418D01*
X108083564Y-74216412D01*
X108012575Y-74118705D01*
X108012574Y-74118705D01*
X107543670Y-74587609D01*
X107500099Y-74512142D01*
X107407007Y-74419050D01*
X107331536Y-74375477D01*
X107800442Y-73906573D01*
X107702728Y-73835579D01*
X107541440Y-73753399D01*
X107369289Y-73697465D01*
X107190510Y-73669149D01*
X107009490Y-73669149D01*
X106830710Y-73697465D01*
X106658559Y-73753399D01*
X106497269Y-73835580D01*
X106497265Y-73835582D01*
X106399556Y-73906572D01*
X106868461Y-74375477D01*
X106792993Y-74419050D01*
X106699901Y-74512142D01*
X106656329Y-74587610D01*
X106187423Y-74118705D01*
X106116433Y-74216414D01*
X106116431Y-74216418D01*
X106034250Y-74377708D01*
X105978316Y-74549859D01*
X105950000Y-74728638D01*
X105950000Y-74909659D01*
X105978316Y-75088438D01*
X106034250Y-75260589D01*
X106116431Y-75421879D01*
X106116433Y-75421883D01*
X106218567Y-75562459D01*
X106223411Y-75577369D01*
X106232629Y-75590056D01*
X106232629Y-75605738D01*
X106237474Y-75620650D01*
X106232629Y-75635560D01*
X106232629Y-75651242D01*
X106223410Y-75663929D01*
X106218566Y-75678840D01*
X106205882Y-75688055D01*
X106196665Y-75700742D01*
X106181751Y-75705587D01*
X106169066Y-75714804D01*
X106138474Y-75719649D01*
X105961833Y-75719649D01*
X105903642Y-75700742D01*
X105891829Y-75690652D01*
X105545618Y-75344440D01*
X105517841Y-75289924D01*
X105524157Y-75236554D01*
X105570130Y-75125569D01*
X105610500Y-74922614D01*
X105610500Y-74715684D01*
X105570130Y-74512729D01*
X105490941Y-74321551D01*
X105375977Y-74149494D01*
X105229655Y-74003172D01*
X105204328Y-73986249D01*
X105057597Y-73888207D01*
X104866418Y-73809018D01*
X104663467Y-73768649D01*
X104663465Y-73768649D01*
X104456535Y-73768649D01*
X104456532Y-73768649D01*
X104253581Y-73809018D01*
X104062402Y-73888207D01*
X103890348Y-74003169D01*
X103890345Y-74003171D01*
X103890345Y-74003172D01*
X103869501Y-74024015D01*
X103814987Y-74051791D01*
X103754555Y-74042220D01*
X103711290Y-73998955D01*
X103700500Y-73954010D01*
X103700500Y-73144288D01*
X103719407Y-73086097D01*
X103768907Y-73050133D01*
X103830093Y-73050133D01*
X103869501Y-73074282D01*
X103890345Y-73095126D01*
X104062402Y-73210090D01*
X104253580Y-73289279D01*
X104456535Y-73329649D01*
X104456536Y-73329649D01*
X104663464Y-73329649D01*
X104663465Y-73329649D01*
X104866420Y-73289279D01*
X105057598Y-73210090D01*
X105229655Y-73095126D01*
X105375977Y-72948804D01*
X105490941Y-72776747D01*
X105570130Y-72585569D01*
X105610500Y-72382614D01*
X105610500Y-72188638D01*
X105950001Y-72188638D01*
X105950001Y-72369659D01*
X105978317Y-72548438D01*
X106034251Y-72720589D01*
X106116431Y-72881877D01*
X106187425Y-72979591D01*
X106656329Y-72510685D01*
X106699902Y-72586156D01*
X106792994Y-72679248D01*
X106868461Y-72722819D01*
X106399557Y-73191723D01*
X106399557Y-73191724D01*
X106497264Y-73262713D01*
X106497270Y-73262717D01*
X106658560Y-73344898D01*
X106830711Y-73400832D01*
X107009491Y-73429149D01*
X107190511Y-73429149D01*
X107369290Y-73400832D01*
X107541441Y-73344898D01*
X107702731Y-73262717D01*
X107702736Y-73262713D01*
X107800443Y-73191724D01*
X107800443Y-73191723D01*
X107331539Y-72722819D01*
X107407008Y-72679248D01*
X107500100Y-72586156D01*
X107543671Y-72510687D01*
X108012575Y-72979591D01*
X108012576Y-72979591D01*
X108083565Y-72881884D01*
X108083569Y-72881879D01*
X108165750Y-72720589D01*
X108221684Y-72548438D01*
X108250001Y-72369659D01*
X108250001Y-72188638D01*
X108221684Y-72009859D01*
X108165750Y-71837708D01*
X108083569Y-71676418D01*
X108083565Y-71676412D01*
X108012576Y-71578705D01*
X108012575Y-71578705D01*
X107543671Y-72047609D01*
X107500100Y-71972142D01*
X107407008Y-71879050D01*
X107331537Y-71835477D01*
X107800443Y-71366573D01*
X107702729Y-71295579D01*
X107541441Y-71213399D01*
X107369290Y-71157465D01*
X107190511Y-71129149D01*
X107009491Y-71129149D01*
X106830711Y-71157465D01*
X106658560Y-71213399D01*
X106497270Y-71295580D01*
X106497266Y-71295582D01*
X106399557Y-71366572D01*
X106868462Y-71835477D01*
X106792994Y-71879050D01*
X106699902Y-71972142D01*
X106656329Y-72047610D01*
X106187424Y-71578705D01*
X106116434Y-71676414D01*
X106116432Y-71676418D01*
X106034251Y-71837708D01*
X105978317Y-72009859D01*
X105950001Y-72188638D01*
X105610500Y-72188638D01*
X105610500Y-72175684D01*
X105570130Y-71972729D01*
X105490941Y-71781551D01*
X105375977Y-71609494D01*
X105229655Y-71463172D01*
X105223344Y-71458955D01*
X105057597Y-71348207D01*
X104866418Y-71269018D01*
X104663467Y-71228649D01*
X104663465Y-71228649D01*
X104456535Y-71228649D01*
X104456532Y-71228649D01*
X104253581Y-71269018D01*
X104062402Y-71348207D01*
X103890348Y-71463169D01*
X103890345Y-71463171D01*
X103890345Y-71463172D01*
X103869501Y-71484015D01*
X103814987Y-71511791D01*
X103754555Y-71502220D01*
X103711290Y-71458955D01*
X103700500Y-71414010D01*
X103700500Y-70604287D01*
X103719407Y-70546096D01*
X103768907Y-70510132D01*
X103830093Y-70510132D01*
X103869501Y-70534281D01*
X103890345Y-70555125D01*
X104062402Y-70670089D01*
X104253580Y-70749278D01*
X104456535Y-70789648D01*
X104456536Y-70789648D01*
X104663464Y-70789648D01*
X104663465Y-70789648D01*
X104866420Y-70749278D01*
X105057598Y-70670089D01*
X105229655Y-70555125D01*
X105375977Y-70408803D01*
X105490941Y-70236746D01*
X105570130Y-70045568D01*
X105610500Y-69842613D01*
X105610500Y-69635683D01*
X105570130Y-69432728D01*
X105490941Y-69241550D01*
X105375977Y-69069493D01*
X105229655Y-68923171D01*
X105199723Y-68903171D01*
X105057597Y-68808206D01*
X104866418Y-68729017D01*
X104663467Y-68688648D01*
X104663465Y-68688648D01*
X104456535Y-68688648D01*
X104456532Y-68688648D01*
X104253581Y-68729017D01*
X104062402Y-68808206D01*
X103890348Y-68923168D01*
X103890345Y-68923170D01*
X103890345Y-68923171D01*
X103869501Y-68944014D01*
X103814987Y-68971790D01*
X103754555Y-68962219D01*
X103711290Y-68918954D01*
X103700500Y-68874009D01*
X103700500Y-68064288D01*
X103719407Y-68006097D01*
X103768907Y-67970133D01*
X103830093Y-67970133D01*
X103869501Y-67994282D01*
X103890345Y-68015126D01*
X104062402Y-68130090D01*
X104253580Y-68209279D01*
X104456535Y-68249649D01*
X104456536Y-68249649D01*
X104663464Y-68249649D01*
X104663465Y-68249649D01*
X104866420Y-68209279D01*
X105057598Y-68130090D01*
X105229655Y-68015126D01*
X105375977Y-67868804D01*
X105490941Y-67696747D01*
X105570130Y-67505569D01*
X105610500Y-67302614D01*
X105610500Y-67095684D01*
X105570130Y-66892729D01*
X105490941Y-66701551D01*
X105375977Y-66529494D01*
X105229655Y-66383172D01*
X105223344Y-66378955D01*
X105057597Y-66268207D01*
X104866418Y-66189018D01*
X104663467Y-66148649D01*
X104663465Y-66148649D01*
X104456535Y-66148649D01*
X104456532Y-66148649D01*
X104253581Y-66189018D01*
X104062402Y-66268207D01*
X103890348Y-66383169D01*
X103890345Y-66383171D01*
X103890345Y-66383172D01*
X103869501Y-66404015D01*
X103814987Y-66431791D01*
X103754555Y-66422220D01*
X103711290Y-66378955D01*
X103700500Y-66334010D01*
X103700500Y-65524288D01*
X103719407Y-65466097D01*
X103768907Y-65430133D01*
X103830093Y-65430133D01*
X103869501Y-65454282D01*
G37*
%TD.AperFunction*%
%TA.AperFunction,Conductor*%
G36*
X163016356Y-68887555D02*
G01*
X163028169Y-68897644D01*
X163324380Y-69193855D01*
X163352157Y-69248372D01*
X163345840Y-69301744D01*
X163299870Y-69412726D01*
X163299870Y-69412728D01*
X163259500Y-69615680D01*
X163259500Y-69822615D01*
X163299869Y-70025566D01*
X163379058Y-70216745D01*
X163463863Y-70343665D01*
X163494023Y-70388803D01*
X163640345Y-70535125D01*
X163812402Y-70650089D01*
X164003580Y-70729278D01*
X164206535Y-70769648D01*
X164206536Y-70769648D01*
X164413464Y-70769648D01*
X164413465Y-70769648D01*
X164616420Y-70729278D01*
X164727405Y-70683305D01*
X164788398Y-70678505D01*
X164835291Y-70704766D01*
X165275533Y-71145007D01*
X165275535Y-71145010D01*
X165336138Y-71205613D01*
X165341636Y-71208787D01*
X165410361Y-71248466D01*
X165493147Y-71270648D01*
X165493149Y-71270648D01*
X181888434Y-71270648D01*
X181946625Y-71289555D01*
X181982589Y-71339055D01*
X181982662Y-71339676D01*
X182458462Y-71815476D01*
X182382994Y-71859049D01*
X182289902Y-71952141D01*
X182246330Y-72027609D01*
X181777424Y-71558704D01*
X181706434Y-71656413D01*
X181706432Y-71656417D01*
X181624251Y-71817707D01*
X181568317Y-71989858D01*
X181540001Y-72168637D01*
X181540001Y-72349658D01*
X181568317Y-72528437D01*
X181624251Y-72700588D01*
X181706432Y-72861878D01*
X181706434Y-72861882D01*
X181808568Y-73002458D01*
X181827475Y-73060649D01*
X181808567Y-73118839D01*
X181759067Y-73154803D01*
X181728475Y-73159648D01*
X175275835Y-73159648D01*
X175217644Y-73140741D01*
X175205831Y-73130652D01*
X174831924Y-72756745D01*
X174453863Y-72378684D01*
X174453860Y-72378682D01*
X174453859Y-72378681D01*
X174453858Y-72378680D01*
X174379643Y-72335832D01*
X174379645Y-72335832D01*
X174339120Y-72324974D01*
X174296854Y-72313649D01*
X174296852Y-72313649D01*
X165459500Y-72313649D01*
X165401309Y-72294742D01*
X165365345Y-72245242D01*
X165360500Y-72214649D01*
X165360500Y-72155684D01*
X165360499Y-72155680D01*
X165358566Y-72145963D01*
X165320130Y-71952728D01*
X165240941Y-71761550D01*
X165125977Y-71589493D01*
X164979655Y-71443171D01*
X164979651Y-71443168D01*
X164807597Y-71328206D01*
X164616418Y-71249017D01*
X164413467Y-71208648D01*
X164413465Y-71208648D01*
X164206535Y-71208648D01*
X164206532Y-71208648D01*
X164003580Y-71249018D01*
X164003578Y-71249018D01*
X163892596Y-71294988D01*
X163831599Y-71299788D01*
X163784708Y-71273528D01*
X163333862Y-70822683D01*
X163333857Y-70822679D01*
X163259642Y-70779831D01*
X163259644Y-70779831D01*
X163227521Y-70771224D01*
X163176853Y-70757648D01*
X163176851Y-70757648D01*
X162432985Y-70757648D01*
X162374794Y-70738741D01*
X162338830Y-70689241D01*
X162338830Y-70628055D01*
X162374794Y-70578555D01*
X162377984Y-70576332D01*
X162402947Y-70559652D01*
X162439655Y-70535125D01*
X162585977Y-70388803D01*
X162700941Y-70216746D01*
X162780130Y-70025568D01*
X162820500Y-69822613D01*
X162820500Y-69615683D01*
X162780130Y-69412728D01*
X162700941Y-69221550D01*
X162585977Y-69049493D01*
X162574133Y-69037649D01*
X162546358Y-68983135D01*
X162555929Y-68922703D01*
X162599194Y-68879438D01*
X162644139Y-68868648D01*
X162958165Y-68868648D01*
X163016356Y-68887555D01*
G37*
%TD.AperFunction*%
%TA.AperFunction,Conductor*%
G36*
X158830580Y-65108555D02*
G01*
X158842393Y-65118644D01*
X159949387Y-66225638D01*
X159949389Y-66225639D01*
X159949390Y-66225640D01*
X159949391Y-66225641D01*
X160052108Y-66284945D01*
X160052109Y-66284945D01*
X160052114Y-66284948D01*
X160166692Y-66315648D01*
X160166694Y-66315648D01*
X160285309Y-66315648D01*
X160285310Y-66315648D01*
X160369754Y-66293021D01*
X160395376Y-66289649D01*
X160934860Y-66289649D01*
X160993051Y-66308556D01*
X161029015Y-66358056D01*
X161029015Y-66419242D01*
X161004865Y-66458650D01*
X160954863Y-66508653D01*
X160954020Y-66509496D01*
X160839058Y-66681550D01*
X160759869Y-66872729D01*
X160719500Y-67075680D01*
X160719500Y-67282615D01*
X160759869Y-67485566D01*
X160774775Y-67521552D01*
X160779574Y-67582549D01*
X160753314Y-67629439D01*
X160373103Y-68009652D01*
X160318586Y-68037430D01*
X160303099Y-68038649D01*
X113049500Y-68038649D01*
X112991309Y-68019742D01*
X112955345Y-67970242D01*
X112950500Y-67939649D01*
X112950500Y-67699500D01*
X112969407Y-67641309D01*
X113018907Y-67605345D01*
X113049500Y-67600500D01*
X113104273Y-67600500D01*
X113104273Y-67600499D01*
X113134699Y-67597646D01*
X113262882Y-67552793D01*
X113372150Y-67472150D01*
X113452793Y-67362882D01*
X113497646Y-67234699D01*
X113500499Y-67204273D01*
X113500500Y-67204273D01*
X113500500Y-66223257D01*
X114599500Y-66223257D01*
X114599500Y-66355041D01*
X114629579Y-66467300D01*
X114633609Y-66482339D01*
X114699496Y-66596458D01*
X114699498Y-66596460D01*
X114699500Y-66596463D01*
X114772184Y-66669147D01*
X114799960Y-66723662D01*
X114790389Y-66784094D01*
X114772185Y-66809149D01*
X114735729Y-66845606D01*
X114699497Y-66881838D01*
X114699496Y-66881839D01*
X114633609Y-66995958D01*
X114633608Y-66995963D01*
X114599500Y-67123257D01*
X114599500Y-67255041D01*
X114612247Y-67302614D01*
X114633609Y-67382339D01*
X114699496Y-67496458D01*
X114699498Y-67496460D01*
X114699500Y-67496463D01*
X114792686Y-67589649D01*
X114792688Y-67589650D01*
X114792690Y-67589652D01*
X114906810Y-67655539D01*
X114906808Y-67655539D01*
X114906812Y-67655540D01*
X114906814Y-67655541D01*
X115034108Y-67689649D01*
X115034110Y-67689649D01*
X115165890Y-67689649D01*
X115165892Y-67689649D01*
X115293186Y-67655541D01*
X115315062Y-67642911D01*
X115364561Y-67629648D01*
X158752761Y-67629648D01*
X158802258Y-67642909D01*
X158806814Y-67645540D01*
X158934108Y-67679648D01*
X158934110Y-67679648D01*
X159065890Y-67679648D01*
X159065892Y-67679648D01*
X159193186Y-67645540D01*
X159193188Y-67645538D01*
X159193190Y-67645538D01*
X159307309Y-67579651D01*
X159307309Y-67579650D01*
X159307314Y-67579648D01*
X159400500Y-67486462D01*
X159401017Y-67485566D01*
X159466390Y-67372338D01*
X159466390Y-67372336D01*
X159466392Y-67372334D01*
X159500500Y-67245040D01*
X159500500Y-67113256D01*
X159466392Y-66985962D01*
X159466390Y-66985959D01*
X159466390Y-66985957D01*
X159400503Y-66871838D01*
X159400501Y-66871836D01*
X159400500Y-66871834D01*
X159307314Y-66778648D01*
X159307311Y-66778646D01*
X159307309Y-66778644D01*
X159193189Y-66712757D01*
X159193191Y-66712757D01*
X159143799Y-66699523D01*
X159065892Y-66678648D01*
X158934108Y-66678648D01*
X158849245Y-66701386D01*
X158806813Y-66712756D01*
X158802259Y-66715386D01*
X158752761Y-66728648D01*
X156608185Y-66728648D01*
X156549994Y-66709741D01*
X156514030Y-66660241D01*
X156514030Y-66599055D01*
X156545540Y-66554468D01*
X156545274Y-66554202D01*
X156546827Y-66552648D01*
X156547917Y-66551107D01*
X156549859Y-66549616D01*
X156549859Y-66549615D01*
X156549862Y-66549614D01*
X156680234Y-66419242D01*
X156730832Y-66368645D01*
X156785348Y-66340868D01*
X156800835Y-66339649D01*
X156865890Y-66339649D01*
X156865892Y-66339649D01*
X156993186Y-66305541D01*
X156993188Y-66305539D01*
X156993190Y-66305539D01*
X157107309Y-66239652D01*
X157107309Y-66239651D01*
X157107314Y-66239649D01*
X157200500Y-66146463D01*
X157266392Y-66032335D01*
X157300500Y-65905041D01*
X157300500Y-65773257D01*
X157266392Y-65645963D01*
X157266390Y-65645960D01*
X157266390Y-65645958D01*
X157200503Y-65531839D01*
X157200501Y-65531837D01*
X157200500Y-65531835D01*
X157107314Y-65438649D01*
X157107311Y-65438647D01*
X157107309Y-65438645D01*
X156993189Y-65372758D01*
X156993191Y-65372758D01*
X156942053Y-65359056D01*
X156865892Y-65338649D01*
X156734108Y-65338649D01*
X156657947Y-65359056D01*
X156606809Y-65372758D01*
X156492690Y-65438645D01*
X156399496Y-65531839D01*
X156333609Y-65645958D01*
X156299500Y-65773258D01*
X156299500Y-65838314D01*
X156297031Y-65845911D01*
X156298281Y-65853801D01*
X156287756Y-65874456D01*
X156280593Y-65896505D01*
X156270504Y-65908318D01*
X156244169Y-65934653D01*
X156189652Y-65962430D01*
X156174165Y-65963649D01*
X115523322Y-65963649D01*
X115465131Y-65944742D01*
X115453319Y-65934653D01*
X115407315Y-65888649D01*
X115407309Y-65888645D01*
X115293189Y-65822758D01*
X115293191Y-65822758D01*
X115243799Y-65809524D01*
X115165892Y-65788649D01*
X115034108Y-65788649D01*
X114956200Y-65809524D01*
X114906809Y-65822758D01*
X114792690Y-65888645D01*
X114699496Y-65981839D01*
X114633609Y-66095958D01*
X114633608Y-66095963D01*
X114599500Y-66223257D01*
X113500500Y-66223257D01*
X113500500Y-65995727D01*
X113500499Y-65995725D01*
X113499197Y-65981839D01*
X113497646Y-65965301D01*
X113452793Y-65837118D01*
X113442194Y-65822757D01*
X113372154Y-65727855D01*
X113372152Y-65727853D01*
X113372150Y-65727850D01*
X113372146Y-65727847D01*
X113372144Y-65727845D01*
X113262883Y-65647207D01*
X113134703Y-65602355D01*
X113134694Y-65602353D01*
X113104274Y-65599500D01*
X113104266Y-65599500D01*
X111895734Y-65599500D01*
X111895725Y-65599500D01*
X111865305Y-65602353D01*
X111865296Y-65602355D01*
X111737116Y-65647207D01*
X111627855Y-65727845D01*
X111627845Y-65727855D01*
X111547207Y-65837115D01*
X111531037Y-65883328D01*
X111493971Y-65932008D01*
X111435371Y-65949604D01*
X111399826Y-65937166D01*
X111376777Y-65935352D01*
X110870464Y-66441665D01*
X110820079Y-66354394D01*
X110745605Y-66279920D01*
X110658331Y-66229532D01*
X111164645Y-65723219D01*
X111076527Y-65659197D01*
X111076523Y-65659195D01*
X110922247Y-65580588D01*
X110757578Y-65527084D01*
X110586574Y-65500000D01*
X110413424Y-65500000D01*
X110242419Y-65527084D01*
X110077750Y-65580588D01*
X109923475Y-65659195D01*
X109835351Y-65723219D01*
X110341665Y-66229533D01*
X110254393Y-66279920D01*
X110179919Y-66354394D01*
X110129532Y-66441666D01*
X109623218Y-65935352D01*
X109559194Y-66023476D01*
X109480587Y-66177751D01*
X109427083Y-66342420D01*
X109399999Y-66513424D01*
X109399999Y-66686575D01*
X109427083Y-66857579D01*
X109480587Y-67022248D01*
X109559194Y-67176524D01*
X109559196Y-67176528D01*
X109623218Y-67264646D01*
X110129531Y-66758332D01*
X110179919Y-66845606D01*
X110254393Y-66920080D01*
X110341664Y-66970465D01*
X109835351Y-67476778D01*
X109923476Y-67540805D01*
X110077750Y-67619411D01*
X110242419Y-67672915D01*
X110413424Y-67700000D01*
X110586574Y-67700000D01*
X110757578Y-67672915D01*
X110922247Y-67619411D01*
X111076523Y-67540804D01*
X111076529Y-67540800D01*
X111164645Y-67476779D01*
X111164645Y-67476778D01*
X110658332Y-66970466D01*
X110745605Y-66920080D01*
X110820079Y-66845606D01*
X110870465Y-66758333D01*
X111376777Y-67264646D01*
X111396111Y-67263125D01*
X111406997Y-67255216D01*
X111468183Y-67255214D01*
X111517684Y-67291177D01*
X111531037Y-67316672D01*
X111547207Y-67362883D01*
X111627845Y-67472144D01*
X111627847Y-67472146D01*
X111627850Y-67472150D01*
X111627853Y-67472152D01*
X111627855Y-67472154D01*
X111737116Y-67552792D01*
X111737117Y-67552792D01*
X111737118Y-67552793D01*
X111865301Y-67597646D01*
X111895725Y-67600499D01*
X111895727Y-67600500D01*
X111895734Y-67600500D01*
X111950500Y-67600500D01*
X112008691Y-67619407D01*
X112044655Y-67668907D01*
X112049500Y-67699500D01*
X112049500Y-67939649D01*
X112030593Y-67997840D01*
X111981093Y-68033804D01*
X111950500Y-68038649D01*
X108546901Y-68038649D01*
X108488710Y-68019742D01*
X108476897Y-68009653D01*
X108116685Y-67649441D01*
X108107288Y-67630998D01*
X108094266Y-67614918D01*
X108094386Y-67605677D01*
X108088908Y-67594924D01*
X108091062Y-67553817D01*
X108092742Y-67547546D01*
X108110130Y-67505569D01*
X108150500Y-67302614D01*
X108150500Y-67095684D01*
X108110130Y-66892729D01*
X108030941Y-66701551D01*
X107915977Y-66529494D01*
X107870289Y-66483806D01*
X107867626Y-66480657D01*
X107857542Y-66455974D01*
X107845437Y-66432215D01*
X107846107Y-66427982D01*
X107844487Y-66424016D01*
X107850836Y-66398123D01*
X107855008Y-66371783D01*
X107858038Y-66368752D01*
X107859059Y-66364591D01*
X107879417Y-66347373D01*
X107898273Y-66328518D01*
X107904571Y-66326100D01*
X107905777Y-66325081D01*
X107907573Y-66324948D01*
X107917587Y-66321104D01*
X107977887Y-66304948D01*
X108050096Y-66263257D01*
X108080609Y-66245641D01*
X108080609Y-66245640D01*
X108080614Y-66245638D01*
X109207608Y-65118644D01*
X109262125Y-65090867D01*
X109277612Y-65089648D01*
X158772389Y-65089648D01*
X158830580Y-65108555D01*
G37*
%TD.AperFunction*%
%TD*%
M02*
