M48
; DRILL file {KiCad 9.0.3} date 2025-10-18T21:53:53+0200
; FORMAT={-:-/ absolute / inch / decimal}
; #@! TF.CreationDate,2025-10-18T21:53:53+02:00
; #@! TF.GenerationSoftware,Kicad,Pcbnew,9.0.3
; #@! TF.FileFunction,Plated,1,2,PTH
FMAT,2
INCH
; #@! TA.AperFunction,Plated,PTH,ViaDrill
T1C0.0118
; #@! TA.AperFunction,Plated,PTH,ComponentDrill
T2C0.0315
; #@! TA.AperFunction,Plated,PTH,ComponentDrill
T3C0.0394
%
G90
G05
T1
X4.2756Y-3.6456
X4.3002Y-3.593
X4.3248Y-3.5456
X4.3494Y-3.4939
X4.3681Y-3.221
X4.374Y-3.4456
X4.3996Y-3.9494
X4.4016Y-3.2702
X4.4075Y-2.9016
X4.4263Y-4.5702
X4.4272Y-3.5193
X4.4409Y-2.9016
X4.4449Y-3.3204
X4.4449Y-3.3716
X4.4489Y-4.4139
X4.4803Y-2.622
X4.4921Y-4.1939
X4.5315Y-2.5783
X4.5315Y-2.6098
X4.5315Y-2.6452
X4.5315Y-2.7417
X4.5315Y-2.848
X4.5413Y-3.8456
X4.5453Y-4.2082
X4.5689Y-3.3204
X4.5689Y-3.3716
X4.5689Y-3.7185
X4.5925Y-3.7456
X4.6161Y-3.3204
X4.6161Y-3.3716
X4.6161Y-3.7185
X4.6299Y-2.9016
X4.6417Y-3.922
X4.6654Y-2.9016
X4.6929Y-2.9939
X4.6929Y-3.7939
X4.6929Y-4.2791
X4.6929Y-4.3086
X4.7185Y-3.3939
X4.7185Y-3.4456
X4.7185Y-3.4939
X4.7185Y-3.5456
X4.7185Y-3.5939
X4.7205Y-3.2702
X4.7264Y-3.2185
X4.7264Y-3.3204
X4.752Y-2.9307
X4.752Y-3.0271
X4.7638Y-3.1456
X4.7638Y-3.1939
X4.7638Y-3.2456
X4.7638Y-3.3456
X4.7667Y-3.2968
X4.7913Y-3.8939
X4.7933Y-4.2791
X4.7933Y-4.3086
X4.8563Y-4.2988
X4.8622Y-4.2072
X4.8681Y-3.6939
X4.872Y-3.0456
X4.872Y-3.0939
X4.8917Y-4.1456
X4.8976Y-3.3697
X4.8996Y-3.5193
X4.9055Y-3.6456
X4.9843Y-4.4395
X4.9902Y-3.3165
X4.9902Y-3.3697
X4.9902Y-3.5163
X4.9902Y-4.0456
X5.0039Y-3.6256
X5.0413Y-2.8716
X5.0807Y-4.4632
X5.0925Y-3.8716
X5.1024Y-3.8185
X5.1437Y-3.6204
X5.1673Y-4.2072
X5.1929Y-3.8185
X5.1929Y-4.0939
X5.2264Y-3.8716
X5.2795Y-3.6256
X5.2933Y-3.3155
X5.2933Y-3.3697
X5.2933Y-3.5173
X5.3484Y-4.7939
X5.3671Y-3.9485
X5.3819Y-3.3185
X5.3819Y-3.3697
X5.3819Y-3.5193
X5.3917Y-3.9228
X5.3937Y-4.224
X5.4173Y-3.8939
X5.4272Y-3.72
X5.4419Y-3.8456
X5.4665Y-3.7939
X5.4911Y-3.7456
X5.5059Y-4.224
X5.5059Y-4.3756
X5.5138Y-3.2191
X5.5138Y-3.2683
X5.5138Y-3.3185
X5.5138Y-3.3697
X5.5138Y-3.4661
X5.5138Y-3.5183
X5.5138Y-3.5693
X5.5138Y-3.6185
X5.5256Y-3.7181
X5.5551Y-3.0456
X5.5748Y-3.6939
X5.6004Y-3.0939
X5.628Y-3.1476
X5.6526Y-3.1939
X5.6781Y-3.2456
X5.7579Y-3.7181
X5.8071Y-4.1456
X5.8386Y-3.3933
X5.8632Y-3.347
X5.8878Y-3.2939
X5.8937Y-4.0939
X5.9173Y-3.6185
X5.939Y-3.5685
X5.9626Y-3.5183
X5.9685Y-4.0456
X5.9685Y-4.1826
X5.9843Y-4.2948
X5.9843Y-4.596
X5.9921Y-3.4671
X6.0177Y-4.2948
X6.0177Y-4.596
X6.0213Y-3.3693
X6.0217Y-3.2092
X6.0217Y-3.2604
X6.0217Y-3.3155
X6.1732Y-2.5921
X6.185Y-4.596
X6.2008Y-4.2948
X6.2126Y-3.7181
X6.2185Y-2.5941
X6.2185Y-2.8933
X6.2185Y-2.9484
X6.2185Y-4.596
X6.2343Y-4.2948
X6.2441Y-4.5724
X6.2598Y-2.6448
X6.565Y-2.5429
X6.5669Y-2.8322
X6.5669Y-2.9445
X6.8189Y-4.4385
X6.8189Y-4.7535
X7.0827Y-2.8322
X7.0827Y-2.9445
X7.3681Y-2.8441
X7.3681Y-3.1452
X7.3681Y-3.4425
X7.3681Y-3.7417
X7.3681Y-4.0429
X7.3681Y-4.3441
X7.3681Y-4.6452
T2
X4.3504Y-2.622
X4.3504Y-3.0315
X4.4291Y-2.622
X4.4291Y-3.0315
X4.4917Y-3.9948
X4.4917Y-4.5948
X4.5917Y-3.9948
X4.5917Y-4.5948
X4.6917Y-4.5948
X4.6917Y-3.9948
X4.7917Y-3.9948
X4.7917Y-4.5948
X4.8917Y-3.9948
X4.8917Y-4.5948
X4.9917Y-3.9948
X4.9917Y-4.5948
X5.0917Y-3.9948
X5.0917Y-4.5948
X5.1917Y-3.9948
X5.1917Y-4.5948
X5.2917Y-3.9948
X5.2917Y-4.5948
X5.3917Y-3.9948
X5.3917Y-4.5948
X5.4917Y-3.9948
X5.4917Y-4.5948
X5.5917Y-4.5948
X5.5917Y-3.9948
X5.6917Y-3.9948
X5.6917Y-4.5948
X5.7917Y-3.9948
X5.7917Y-4.5948
T3
X4.1165Y-2.5456
X4.1165Y-2.6456
X4.1165Y-2.7456
X4.1165Y-2.8456
X4.1165Y-2.9456
X4.1165Y-3.0456
X4.1165Y-3.1456
X4.1165Y-3.2456
X4.1165Y-3.3456
X4.1165Y-3.4456
X4.1165Y-3.5456
X4.1165Y-3.6456
X4.1165Y-3.7456
X4.1165Y-3.8456
X4.1165Y-3.9456
X4.1165Y-4.0456
X4.1165Y-4.1456
X4.1165Y-4.2456
X4.1165Y-4.3456
X4.1165Y-4.4456
X4.1165Y-4.5456
X4.1165Y-4.6456
X4.1165Y-4.7456
X4.1165Y-4.8456
X4.1165Y-4.9456
X4.2165Y-2.5456
X4.2165Y-2.6456
X4.2165Y-2.7456
X4.2165Y-2.9456
X4.2165Y-3.0456
X4.2165Y-3.3456
X4.2165Y-3.4456
X4.2165Y-3.5456
X4.2165Y-3.8456
X4.2165Y-3.9456
X4.2165Y-4.2456
X4.2165Y-4.3456
X4.2165Y-4.4456
X4.2165Y-4.6456
X4.2165Y-4.7456
X4.2165Y-4.8456
X4.2165Y-2.8456
X4.2165Y-3.1456
X4.2165Y-3.2456
X4.2165Y-3.6456
X4.2165Y-3.7456
X4.2165Y-4.0456
X4.2165Y-4.1456
X4.2165Y-4.5456
X4.2165Y-4.9456
X4.9307Y-4.2496
X4.9307Y-4.3496
X5.0307Y-4.2496
X5.0307Y-4.3496
X5.1307Y-4.2496
X5.1307Y-4.3496
X5.2307Y-4.2496
X5.2307Y-4.3496
X5.3307Y-4.2496
X5.3307Y-4.3496
X6.3689Y-2.5448
X6.3689Y-2.6448
X6.3689Y-2.7448
X6.3689Y-2.8448
X6.3689Y-2.9448
X6.3689Y-3.0448
X6.3689Y-3.1448
X6.3689Y-3.2448
X6.3689Y-3.3448
X6.3689Y-3.4448
X6.3689Y-3.5448
X6.3689Y-3.6448
X6.3689Y-3.7448
X6.3689Y-3.8448
X6.3689Y-3.9448
X6.3689Y-4.0448
X6.3689Y-4.1448
X6.3689Y-4.2448
X6.3689Y-4.3448
X6.3689Y-4.4448
X6.3689Y-4.5448
X6.3689Y-4.6448
X6.3689Y-4.7448
X6.3689Y-4.8448
X6.3689Y-4.9448
X6.4689Y-2.5448
X6.4689Y-2.6448
X6.4689Y-2.7448
X6.4689Y-2.8448
X6.4689Y-2.9448
X6.4689Y-3.0448
X6.4689Y-3.1448
X6.4689Y-3.2448
X6.4689Y-3.3448
X6.4689Y-3.4448
X6.4689Y-3.5448
X6.4689Y-3.6448
X6.4689Y-3.7448
X6.4689Y-3.8448
X6.4689Y-3.9448
X6.4689Y-4.0448
X6.4689Y-4.1448
X6.4689Y-4.2448
X6.4689Y-4.3448
X6.4689Y-4.4448
X6.4689Y-4.5448
X6.4689Y-4.6448
X6.4689Y-4.7448
X6.4689Y-4.8448
X6.4689Y-4.9448
X7.1925Y-2.5448
X7.1925Y-2.6448
X7.1925Y-2.7448
X7.1925Y-2.8448
X7.1925Y-2.9448
X7.1925Y-3.0448
X7.1925Y-3.1448
X7.1925Y-3.2448
X7.1925Y-3.3448
X7.1925Y-3.4448
X7.1925Y-3.5448
X7.1925Y-3.6448
X7.1925Y-3.7448
X7.1925Y-3.8448
X7.1925Y-3.9448
X7.1925Y-4.0448
X7.1925Y-4.1448
X7.1925Y-4.2448
X7.1925Y-4.3448
X7.1925Y-4.4448
X7.1925Y-4.5448
X7.1925Y-4.6448
X7.1925Y-4.7448
X7.1925Y-4.8448
X7.1925Y-4.9448
X7.2925Y-2.5448
X7.2925Y-2.6448
X7.2925Y-2.7448
X7.2925Y-2.8448
X7.2925Y-2.9448
X7.2925Y-3.0448
X7.2925Y-3.1448
X7.2925Y-3.2448
X7.2925Y-3.3448
X7.2925Y-3.4448
X7.2925Y-3.5448
X7.2925Y-3.6448
X7.2925Y-3.7448
X7.2925Y-3.8448
X7.2925Y-3.9448
X7.2925Y-4.0448
X7.2925Y-4.1448
X7.2925Y-4.2448
X7.2925Y-4.3448
X7.2925Y-4.4448
X7.2925Y-4.5448
X7.2925Y-4.6448
X7.2925Y-4.7448
X7.2925Y-4.8448
X7.2925Y-4.9448
M30
