%TF.GenerationSoftware,KiCad,Pcbnew,9.0.3*%
%TF.CreationDate,2025-08-13T01:40:39+02:00*%
%TF.ProjectId,DaewooBackslotRAMExpansion,44616577-6f6f-4426-9163-6b736c6f7452,1.0*%
%TF.SameCoordinates,Original*%
%TF.FileFunction,Paste,Top*%
%TF.FilePolarity,Positive*%
%FSLAX46Y46*%
G04 Gerber Fmt 4.6, Leading zero omitted, Abs format (unit mm)*
G04 Created by KiCad (PCBNEW 9.0.3) date 2025-08-13 01:40:39*
%MOMM*%
%LPD*%
G01*
G04 APERTURE LIST*
G04 Aperture macros list*
%AMRoundRect*
0 Rectangle with rounded corners*
0 $1 Rounding radius*
0 $2 $3 $4 $5 $6 $7 $8 $9 X,Y pos of 4 corners*
0 Add a 4 corners polygon primitive as box body*
4,1,4,$2,$3,$4,$5,$6,$7,$8,$9,$2,$3,0*
0 Add four circle primitives for the rounded corners*
1,1,$1+$1,$2,$3*
1,1,$1+$1,$4,$5*
1,1,$1+$1,$6,$7*
1,1,$1+$1,$8,$9*
0 Add four rect primitives between the rounded corners*
20,1,$1+$1,$2,$3,$4,$5,0*
20,1,$1+$1,$4,$5,$6,$7,0*
20,1,$1+$1,$6,$7,$8,$9,0*
20,1,$1+$1,$8,$9,$2,$3,0*%
G04 Aperture macros list end*
%ADD10RoundRect,0.150000X-0.150000X0.825000X-0.150000X-0.825000X0.150000X-0.825000X0.150000X0.825000X0*%
%ADD11RoundRect,0.150000X-0.875000X-0.150000X0.875000X-0.150000X0.875000X0.150000X-0.875000X0.150000X0*%
%ADD12RoundRect,0.150000X-0.150000X0.875000X-0.150000X-0.875000X0.150000X-0.875000X0.150000X0.875000X0*%
%ADD13RoundRect,0.150000X-0.150000X0.725000X-0.150000X-0.725000X0.150000X-0.725000X0.150000X0.725000X0*%
G04 APERTURE END LIST*
D10*
%TO.C,U3*%
X237082500Y-117150000D03*
X235812500Y-117150000D03*
X234542500Y-117150000D03*
X233272500Y-117150000D03*
X232002500Y-117150000D03*
X230732500Y-117150000D03*
X229462500Y-117150000D03*
X229462500Y-112200000D03*
X230732500Y-112200000D03*
X232002500Y-112200000D03*
X233272500Y-112200000D03*
X234542500Y-112200000D03*
X235812500Y-112200000D03*
X237082500Y-112200000D03*
%TD*%
D11*
%TO.C,U8*%
X226800000Y-82825000D03*
X226800000Y-84095000D03*
X226800000Y-85365000D03*
X226800000Y-86635000D03*
X226800000Y-87905000D03*
X226800000Y-89175000D03*
X226800000Y-90445000D03*
X226800000Y-91715000D03*
X226800000Y-92985000D03*
X226800000Y-94255000D03*
X226800000Y-95525000D03*
X226800000Y-96795000D03*
X226800000Y-98065000D03*
X226800000Y-99335000D03*
X226800000Y-100605000D03*
X226800000Y-101875000D03*
X239900000Y-101875000D03*
X239900000Y-100605000D03*
X239900000Y-99335000D03*
X239900000Y-98065000D03*
X239900000Y-96795000D03*
X239900000Y-95525000D03*
X239900000Y-94255000D03*
X239900000Y-92985000D03*
X239900000Y-91715000D03*
X239900000Y-90445000D03*
X239900000Y-89175000D03*
X239900000Y-87905000D03*
X239900000Y-86635000D03*
X239900000Y-85365000D03*
X239900000Y-84095000D03*
X239900000Y-82825000D03*
%TD*%
D12*
%TO.C,U5*%
X184400000Y-126600000D03*
X183130000Y-126600000D03*
X181860000Y-126600001D03*
X180590000Y-126600000D03*
X179320000Y-126600000D03*
X178050000Y-126600000D03*
X176780000Y-126600000D03*
X175510000Y-126600001D03*
X174240000Y-126600000D03*
X172970000Y-126600000D03*
X172970000Y-117300000D03*
X174240000Y-117300000D03*
X175510000Y-117299999D03*
X176780000Y-117300000D03*
X178050000Y-117300000D03*
X179320000Y-117300000D03*
X180590000Y-117300000D03*
X181860000Y-117299999D03*
X183130000Y-117300000D03*
X184400000Y-117300000D03*
%TD*%
D13*
%TO.C,U7*%
X201310001Y-112100000D03*
X200040000Y-112100000D03*
X198769999Y-112100000D03*
X197500000Y-112100000D03*
X196230000Y-112100000D03*
X194960001Y-112100000D03*
X193690000Y-112100000D03*
X192419999Y-112100000D03*
X192419999Y-117250000D03*
X193690000Y-117250000D03*
X194960001Y-117250000D03*
X196230000Y-117250000D03*
X197500000Y-117250000D03*
X198769999Y-117250000D03*
X200040000Y-117250000D03*
X201310001Y-117250000D03*
%TD*%
%TO.C,U6*%
X219510001Y-117250000D03*
X218240000Y-117250000D03*
X216969999Y-117250000D03*
X215700000Y-117250000D03*
X214430000Y-117250000D03*
X213160001Y-117250000D03*
X211890000Y-117250000D03*
X210619999Y-117250000D03*
X210619999Y-112100000D03*
X211890000Y-112100000D03*
X213160001Y-112100000D03*
X214430000Y-112100000D03*
X215700000Y-112100000D03*
X216969999Y-112100000D03*
X218240000Y-112100000D03*
X219510001Y-112100000D03*
%TD*%
%TO.C,U4*%
X237710001Y-131925000D03*
X236440000Y-131925000D03*
X235169999Y-131925000D03*
X233900000Y-131925000D03*
X232630000Y-131925000D03*
X231360001Y-131925000D03*
X230090000Y-131925000D03*
X228819999Y-131925000D03*
X228819999Y-126775000D03*
X230090000Y-126775000D03*
X231360001Y-126775000D03*
X232630000Y-126775000D03*
X233900000Y-126775000D03*
X235169999Y-126775000D03*
X236440000Y-126775000D03*
X237710001Y-126775000D03*
%TD*%
%TO.C,U1*%
X219510001Y-131925000D03*
X218240000Y-131925000D03*
X216969999Y-131925000D03*
X215700000Y-131925000D03*
X214430000Y-131925000D03*
X213160001Y-131925000D03*
X211890000Y-131925000D03*
X210619999Y-131925000D03*
X210619999Y-126775000D03*
X211890000Y-126775000D03*
X213160001Y-126775000D03*
X214430000Y-126775000D03*
X215700000Y-126775000D03*
X216969999Y-126775000D03*
X218240000Y-126775000D03*
X219510001Y-126775000D03*
%TD*%
%TO.C,U2*%
X201310001Y-126774999D03*
X200040000Y-126774999D03*
X198769999Y-126774999D03*
X197500000Y-126774999D03*
X196230000Y-126774999D03*
X194960001Y-126774999D03*
X193690000Y-126774999D03*
X192419999Y-126774999D03*
X192419999Y-131924999D03*
X193690000Y-131924999D03*
X194960001Y-131924999D03*
X196230000Y-131924999D03*
X197500000Y-131924999D03*
X198769999Y-131924999D03*
X200040000Y-131924999D03*
X201310001Y-131924999D03*
%TD*%
D11*
%TO.C,U9*%
X221700000Y-82825000D03*
X221700000Y-84095000D03*
X221700000Y-85365000D03*
X221700000Y-86635000D03*
X221700000Y-87905000D03*
X221700000Y-89175000D03*
X221700000Y-90445000D03*
X221700000Y-91715000D03*
X221700000Y-92985000D03*
X221700000Y-94255000D03*
X221700000Y-95525000D03*
X221700000Y-96795000D03*
X221700000Y-98065000D03*
X221700000Y-99335000D03*
X221700000Y-100605000D03*
X221700000Y-101875000D03*
X208600000Y-101875000D03*
X208600000Y-100605000D03*
X208600000Y-99335000D03*
X208600000Y-98065000D03*
X208600000Y-96795000D03*
X208600000Y-95525000D03*
X208600000Y-94255000D03*
X208600000Y-92985000D03*
X208600000Y-91715000D03*
X208600000Y-90445000D03*
X208600000Y-89175000D03*
X208600000Y-87905000D03*
X208600000Y-86635000D03*
X208600000Y-85365000D03*
X208600000Y-84095000D03*
X208600000Y-82825000D03*
%TD*%
%TO.C,U11*%
X185300000Y-82825000D03*
X185300000Y-84095000D03*
X185300000Y-85365000D03*
X185300000Y-86635000D03*
X185300000Y-87905000D03*
X185300000Y-89175000D03*
X185300000Y-90445000D03*
X185300000Y-91715000D03*
X185300000Y-92985000D03*
X185300000Y-94255000D03*
X185300000Y-95525000D03*
X185300000Y-96795000D03*
X185300000Y-98065000D03*
X185300000Y-99335000D03*
X185300000Y-100605000D03*
X185300000Y-101875000D03*
X172200000Y-101875000D03*
X172200000Y-100605000D03*
X172200000Y-99335000D03*
X172200000Y-98065000D03*
X172200000Y-96795000D03*
X172200000Y-95525000D03*
X172200000Y-94255000D03*
X172200000Y-92985000D03*
X172200000Y-91715000D03*
X172200000Y-90445000D03*
X172200000Y-89175000D03*
X172200000Y-87905000D03*
X172200000Y-86635000D03*
X172200000Y-85365000D03*
X172200000Y-84095000D03*
X172200000Y-82825000D03*
%TD*%
%TO.C,U10*%
X203500000Y-82825000D03*
X203500000Y-84095000D03*
X203500000Y-85365000D03*
X203500000Y-86635000D03*
X203500000Y-87905000D03*
X203500000Y-89175000D03*
X203500000Y-90445000D03*
X203500000Y-91715000D03*
X203500000Y-92985000D03*
X203500000Y-94255000D03*
X203500000Y-95525000D03*
X203500000Y-96795000D03*
X203500000Y-98065000D03*
X203500000Y-99335000D03*
X203500000Y-100605000D03*
X203500000Y-101875000D03*
X190400000Y-101875000D03*
X190400000Y-100605000D03*
X190400000Y-99335000D03*
X190400000Y-98065000D03*
X190400000Y-96795000D03*
X190400000Y-95525000D03*
X190400000Y-94255000D03*
X190400000Y-92985000D03*
X190400000Y-91715000D03*
X190400000Y-90445000D03*
X190400000Y-89175000D03*
X190400000Y-87905000D03*
X190400000Y-86635000D03*
X190400000Y-85365000D03*
X190400000Y-84095000D03*
X190400000Y-82825000D03*
%TD*%
M02*
