M48
; DRILL file {KiCad 9.0.3} date 2025-08-13T01:40:41+0200
; FORMAT={-:-/ absolute / inch / decimal}
; #@! TF.CreationDate,2025-08-13T01:40:41+02:00
; #@! TF.GenerationSoftware,Kicad,Pcbnew,9.0.3
; #@! TF.FileFunction,Plated,1,2,PTH
FMAT,2
INCH
; #@! TA.AperFunction,Plated,PTH,ViaDrill
T1C0.0118
; #@! TA.AperFunction,Plated,PTH,ComponentDrill
T2C0.0315
; #@! TA.AperFunction,Plated,PTH,ComponentDrill
T3C0.0394
%
G90
G05
T1
X6.502Y-4.002
X6.5095Y-4.1579
X6.5098Y-4.2229
X6.5138Y-4.4274
X6.5175Y-3.5439
X6.5354Y-3.5177
X6.565Y-4.2717
X6.5773Y-4.3938
X6.6142Y-4.6496
X6.6142Y-4.685
X6.6389Y-4.5512
X6.6849Y-3.4096
X6.6849Y-3.4608
X6.6849Y-3.512
X6.6849Y-3.5612
X6.6849Y-3.6108
X6.6849Y-3.6616
X6.686Y-4.4213
X6.6982Y-4.1883
X6.6988Y-4.0689
X6.6988Y-4.1004
X6.6988Y-4.1319
X6.6988Y-4.2224
X6.6988Y-4.3071
X6.7146Y-4.0394
X6.7244Y-4.6181
X6.7244Y-5.1457
X6.7402Y-4.4213
X6.7441Y-4.3071
X6.7933Y-4.2736
X6.7992Y-5.3228
X6.842Y-3.685
X6.8425Y-3.3346
X6.8425Y-3.3858
X6.8425Y-3.435
X6.8425Y-3.4862
X6.8425Y-3.5354
X6.8425Y-3.5856
X6.8425Y-3.6355
X6.8425Y-3.7362
X6.8425Y-3.7854
X6.8425Y-3.8346
X6.8425Y-3.8858
X6.8425Y-3.935
X6.8425Y-3.9862
X6.8839Y-4.8346
X6.9075Y-5.0728
X6.9098Y-4.6909
X6.9173Y-3.7106
X6.9291Y-4.9173
X6.9469Y-4.0709
X6.9479Y-4.1526
X6.9606Y-4.6909
X6.9705Y-5.3189
X6.9705Y-5.3543
X6.9705Y-5.3858
X6.9823Y-5.0728
X7.0Y-4.1102
X7.0433Y-3.128
X7.0699Y-3.9606
X7.0866Y-5.0472
X7.0915Y-4.0101
X7.1098Y-4.5492
X7.1407Y-3.9852
X7.1585Y-3.7601
X7.1585Y-3.936
X7.1594Y-4.8346
X7.1594Y-5.0472
X7.1598Y-4.5492
X7.1606Y-4.2441
X7.2303Y-3.7601
X7.2598Y-5.2146
X7.2854Y-4.2795
X7.2953Y-3.1594
X7.313Y-4.6467
X7.3209Y-4.9567
X7.3659Y-3.8111
X7.3659Y-3.8603
X7.3659Y-3.9095
X7.3659Y-3.9607
X7.3659Y-4.0119
X7.374Y-5.0472
X7.3856Y-3.3603
X7.3856Y-3.4115
X7.3856Y-3.4607
X7.3856Y-3.5119
X7.3856Y-3.5611
X7.3856Y-3.6103
X7.3856Y-3.6615
X7.3856Y-3.7107
X7.3858Y-3.3109
X7.3874Y-4.0955
X7.4232Y-4.0433
X7.4232Y-4.8887
X7.4331Y-3.7362
X7.4331Y-3.7854
X7.4331Y-3.8366
X7.4331Y-3.8858
X7.4331Y-3.937
X7.4341Y-3.3366
X7.4341Y-3.3858
X7.4341Y-3.435
X7.4341Y-3.4862
X7.4341Y-3.5354
X7.4341Y-3.5866
X7.4341Y-3.6358
X7.4341Y-3.685
X7.4341Y-3.9862
X7.437Y-4.4606
X7.4606Y-5.3071
X7.4744Y-4.9606
X7.4803Y-4.2638
X7.4961Y-4.1594
X7.5098Y-5.0728
X7.518Y-4.2261
X7.5591Y-3.7362
X7.5591Y-3.7854
X7.5591Y-3.8346
X7.5591Y-3.8858
X7.5591Y-3.935
X7.5591Y-3.9862
X7.6024Y-4.2795
X7.6299Y-5.0512
X7.6299Y-5.1122
X7.6324Y-4.716
X7.6498Y-4.6638
X7.651Y-4.1516
X7.7007Y-4.4593
X7.7264Y-5.0591
X7.7264Y-5.3012
X7.7283Y-4.5531
X7.7579Y-3.128
X7.7756Y-5.2766
X7.813Y-3.8604
X7.8169Y-4.1594
X7.8248Y-4.9094
X7.8268Y-4.4783
X7.8268Y-5.252
X7.8465Y-4.3366
X7.8504Y-4.5492
X7.8756Y-4.9094
X7.8976Y-4.0984
X7.8996Y-4.2638
X7.9252Y-4.3406
X7.9705Y-4.8445
X8.0079Y-4.1427
X8.0118Y-3.1614
X8.0256Y-5.1535
X8.062Y-4.7136
X8.0669Y-5.0866
X8.0965Y-4.8996
X8.1022Y-3.3604
X8.1022Y-3.4116
X8.1022Y-3.4608
X8.1022Y-3.512
X8.1022Y-3.5612
X8.1022Y-3.6104
X8.1022Y-3.6616
X8.1022Y-3.7108
X8.1022Y-3.8112
X8.1022Y-3.8604
X8.1022Y-3.9096
X8.1022Y-3.9608
X8.1022Y-4.012
X8.1024Y-3.311
X8.122Y-5.1929
X8.1339Y-4.7146
X8.1358Y-4.0413
X8.1358Y-4.248
X8.1496Y-3.7362
X8.1496Y-3.7854
X8.1496Y-3.8366
X8.1496Y-3.8858
X8.1496Y-3.937
X8.1506Y-3.9862
X8.1515Y-5.0679
X8.1519Y-5.0364
X8.2126Y-4.871
X8.2303Y-4.9902
X8.2756Y-3.7362
X8.2756Y-3.7854
X8.2756Y-3.8346
X8.2756Y-3.8858
X8.2756Y-3.935
X8.2756Y-3.9862
X8.2756Y-4.8091
X8.3484Y-4.1024
X8.3588Y-4.5217
X8.4409Y-5.1378
X8.4414Y-4.8091
X8.4414Y-5.065
X8.4419Y-5.1063
X8.4419Y-5.2913
X8.4724Y-3.128
X8.4783Y-4.1791
X8.4921Y-4.685
X8.4921Y-5.0709
X8.4941Y-4.8957
X8.4941Y-5.2697
X8.5177Y-5.3071
X8.5413Y-4.4921
X8.5433Y-5.2697
X8.6122Y-4.1772
X8.6417Y-4.6772
X8.6421Y-4.7657
X8.6427Y-4.7175
X8.6654Y-3.6862
X8.6988Y-4.5709
X8.7028Y-4.248
X8.7244Y-4.3888
X8.7283Y-3.1594
X8.7382Y-4.8957
X8.752Y-5.1063
X8.752Y-5.2579
X8.7795Y-4.4941
X8.7972Y-5.1063
X8.8167Y-3.3603
X8.8167Y-3.4115
X8.8167Y-3.4607
X8.8167Y-3.5119
X8.8167Y-3.5611
X8.8167Y-3.6103
X8.8167Y-3.6614
X8.8167Y-3.7107
X8.8167Y-3.8111
X8.8167Y-3.8603
X8.8167Y-3.9095
X8.8167Y-3.9607
X8.8167Y-4.0119
X8.8169Y-3.3109
X8.8366Y-4.8071
X8.8386Y-4.0413
X8.8386Y-4.1063
X8.8445Y-5.3051
X8.8661Y-3.5366
X8.8661Y-3.5858
X8.8661Y-3.6355
X8.8661Y-3.6862
X8.8661Y-3.7362
X8.8661Y-3.7854
X8.8661Y-3.8366
X8.8661Y-3.8858
X8.8661Y-3.937
X8.8671Y-3.9862
X8.8681Y-4.6201
X8.8996Y-4.4272
X8.8996Y-4.7047
X8.9054Y-4.9529
X8.9055Y-5.0512
X8.9311Y-4.4685
X8.9331Y-4.1063
X9.0247Y-3.885
X9.0247Y-4.1998
X9.0531Y-3.9362
X9.0562Y-4.1998
X9.0945Y-3.5366
X9.1083Y-5.0669
X9.1417Y-3.5858
X9.1693Y-3.6358
X9.1831Y-4.689
X9.187Y-3.128
X9.2067Y-5.3602
X9.2106Y-3.6862
X9.2598Y-4.9272
X9.311Y-3.7362
X9.3587Y-5.2579
X9.364Y-3.3604
X9.364Y-3.4116
X9.364Y-3.4608
X9.364Y-3.512
X9.364Y-3.5612
X9.364Y-3.6104
X9.364Y-3.6616
X9.364Y-3.7108
X9.364Y-3.8112
X9.364Y-3.8604
X9.364Y-3.9096
X9.364Y-3.9608
X9.364Y-4.012
X9.3642Y-3.311
X9.4094Y-4.6122
X9.4134Y-4.1024
X9.4823Y-4.126
X9.4823Y-4.1752
X9.4823Y-4.3701
X9.4882Y-5.1024
X9.5394Y-3.3346
X9.5551Y-3.1575
T2
X6.5903Y-3.128
X6.6888Y-3.128
T3
X6.3567Y-3.052
X6.3567Y-3.152
X6.3567Y-3.252
X6.3567Y-3.352
X6.3567Y-3.452
X6.3567Y-3.552
X6.3567Y-3.652
X6.3567Y-3.752
X6.3567Y-3.852
X6.3567Y-3.952
X6.3567Y-4.052
X6.3567Y-4.152
X6.3567Y-4.252
X6.3567Y-4.352
X6.3567Y-4.452
X6.3567Y-4.552
X6.3567Y-4.652
X6.3567Y-4.752
X6.3567Y-4.852
X6.3567Y-4.952
X6.3567Y-5.052
X6.3567Y-5.152
X6.3567Y-5.252
X6.3567Y-5.352
X6.3567Y-5.452
X6.4567Y-3.052
X6.4567Y-3.152
X6.4567Y-3.252
X6.4567Y-3.452
X6.4567Y-3.552
X6.4567Y-3.852
X6.4567Y-3.952
X6.4567Y-4.052
X6.4567Y-4.352
X6.4567Y-4.452
X6.4567Y-4.752
X6.4567Y-4.852
X6.4567Y-4.952
X6.4567Y-5.152
X6.4567Y-5.252
X6.4567Y-5.352
X6.4567Y-3.352
X6.4567Y-3.652
X6.4567Y-3.752
X6.4567Y-4.152
X6.4567Y-4.252
X6.4567Y-4.552
X6.4567Y-4.652
X6.4567Y-5.052
X6.4567Y-5.452
M30
