%TF.GenerationSoftware,KiCad,Pcbnew,9.0.3*%
%TF.CreationDate,2025-08-13T01:40:39+02:00*%
%TF.ProjectId,DaewooBackslotRAMExpansion,44616577-6f6f-4426-9163-6b736c6f7452,1.0*%
%TF.SameCoordinates,Original*%
%TF.FileFunction,Soldermask,Bot*%
%TF.FilePolarity,Negative*%
%FSLAX46Y46*%
G04 Gerber Fmt 4.6, Leading zero omitted, Abs format (unit mm)*
G04 Created by KiCad (PCBNEW 9.0.3) date 2025-08-13 01:40:39*
%MOMM*%
%LPD*%
G01*
G04 APERTURE LIST*
G04 Aperture macros list*
%AMRoundRect*
0 Rectangle with rounded corners*
0 $1 Rounding radius*
0 $2 $3 $4 $5 $6 $7 $8 $9 X,Y pos of 4 corners*
0 Add a 4 corners polygon primitive as box body*
4,1,4,$2,$3,$4,$5,$6,$7,$8,$9,$2,$3,0*
0 Add four circle primitives for the rounded corners*
1,1,$1+$1,$2,$3*
1,1,$1+$1,$4,$5*
1,1,$1+$1,$6,$7*
1,1,$1+$1,$8,$9*
0 Add four rect primitives between the rounded corners*
20,1,$1+$1,$2,$3,$4,$5,0*
20,1,$1+$1,$4,$5,$6,$7,0*
20,1,$1+$1,$6,$7,$8,$9,0*
20,1,$1+$1,$8,$9,$2,$3,0*%
G04 Aperture macros list end*
%ADD10RoundRect,0.250000X-0.550000X-0.550000X0.550000X-0.550000X0.550000X0.550000X-0.550000X0.550000X0*%
%ADD11C,1.600000*%
%ADD12RoundRect,0.250000X0.250000X0.475000X-0.250000X0.475000X-0.250000X-0.475000X0.250000X-0.475000X0*%
%ADD13RoundRect,0.250000X-0.250000X-0.475000X0.250000X-0.475000X0.250000X0.475000X-0.250000X0.475000X0*%
%ADD14R,1.700000X1.700000*%
%ADD15C,1.700000*%
G04 APERTURE END LIST*
D10*
%TO.C,C5*%
X167394888Y-79450000D03*
D11*
X169894888Y-79450000D03*
%TD*%
D12*
%TO.C,C6*%
X181250002Y-132450000D03*
X183150000Y-132450000D03*
%TD*%
D13*
%TO.C,C7*%
X239000001Y-114650000D03*
X240899999Y-114650000D03*
%TD*%
%TO.C,C8*%
X241999999Y-132350000D03*
X240100001Y-132350000D03*
%TD*%
D12*
%TO.C,C1*%
X182000001Y-80250000D03*
X183899999Y-80250000D03*
%TD*%
%TO.C,C2*%
X200200001Y-80250000D03*
X202099999Y-80250000D03*
%TD*%
%TO.C,C3*%
X218400001Y-80250000D03*
X220299999Y-80250000D03*
%TD*%
%TO.C,C4*%
X236600001Y-80250000D03*
X238499999Y-80250000D03*
%TD*%
D14*
%TO.C,BUS1*%
X164000001Y-138479999D03*
D15*
X161460000Y-138479999D03*
X164000000Y-135940000D03*
X161460000Y-135940000D03*
X164000000Y-133400000D03*
X161460000Y-133400000D03*
X164000000Y-130860000D03*
X161460000Y-130860000D03*
X164000001Y-128320000D03*
X161460000Y-128320000D03*
X164000000Y-125779999D03*
X161460000Y-125779999D03*
X164000000Y-123240000D03*
X161460000Y-123240000D03*
X164000000Y-120700000D03*
X161460000Y-120700000D03*
X164000001Y-118160000D03*
X161460000Y-118160000D03*
X164000001Y-115619999D03*
X161460000Y-115619999D03*
X164000000Y-113080000D03*
X161460000Y-113080000D03*
X164000000Y-110540000D03*
X161460000Y-110540000D03*
X164000001Y-108000000D03*
X161460000Y-108000000D03*
X164000001Y-105460000D03*
X161460000Y-105459999D03*
X164000000Y-102919999D03*
X161460000Y-102919999D03*
X164000000Y-100380000D03*
X161460000Y-100380000D03*
X164000000Y-97840000D03*
X161460000Y-97840000D03*
X164000001Y-95300000D03*
X161460000Y-95300000D03*
X164000001Y-92759999D03*
X161460000Y-92759999D03*
X164000000Y-90220000D03*
X161460000Y-90220000D03*
X164000000Y-87680000D03*
X161460000Y-87680000D03*
X164000001Y-85140000D03*
X161460000Y-85140000D03*
X164000000Y-82599999D03*
X161460000Y-82599999D03*
X164000000Y-80060000D03*
X161460000Y-80060000D03*
X164000000Y-77520000D03*
X161460000Y-77520000D03*
%TD*%
M02*
