%TF.GenerationSoftware,KiCad,Pcbnew,9.0.3*%
%TF.CreationDate,2025-08-13T01:40:39+02:00*%
%TF.ProjectId,DaewooBackslotRAMExpansion,44616577-6f6f-4426-9163-6b736c6f7452,1.0*%
%TF.SameCoordinates,Original*%
%TF.FileFunction,Legend,Top*%
%TF.FilePolarity,Positive*%
%FSLAX46Y46*%
G04 Gerber Fmt 4.6, Leading zero omitted, Abs format (unit mm)*
G04 Created by KiCad (PCBNEW 9.0.3) date 2025-08-13 01:40:39*
%MOMM*%
%LPD*%
G01*
G04 APERTURE LIST*
%ADD10C,0.200000*%
%ADD11C,0.300000*%
%ADD12C,0.125000*%
%ADD13C,0.150000*%
%ADD14C,0.120000*%
G04 APERTURE END LIST*
D10*
X197374435Y-77749552D02*
X197560149Y-77811457D01*
X197560149Y-77811457D02*
X197622054Y-77873361D01*
X197622054Y-77873361D02*
X197683958Y-77997171D01*
X197683958Y-77997171D02*
X197683958Y-78182885D01*
X197683958Y-78182885D02*
X197622054Y-78306695D01*
X197622054Y-78306695D02*
X197560149Y-78368600D01*
X197560149Y-78368600D02*
X197436339Y-78430504D01*
X197436339Y-78430504D02*
X196941101Y-78430504D01*
X196941101Y-78430504D02*
X196941101Y-77130504D01*
X196941101Y-77130504D02*
X197374435Y-77130504D01*
X197374435Y-77130504D02*
X197498244Y-77192409D01*
X197498244Y-77192409D02*
X197560149Y-77254314D01*
X197560149Y-77254314D02*
X197622054Y-77378123D01*
X197622054Y-77378123D02*
X197622054Y-77501933D01*
X197622054Y-77501933D02*
X197560149Y-77625742D01*
X197560149Y-77625742D02*
X197498244Y-77687647D01*
X197498244Y-77687647D02*
X197374435Y-77749552D01*
X197374435Y-77749552D02*
X196941101Y-77749552D01*
X198426816Y-78430504D02*
X198303006Y-78368600D01*
X198303006Y-78368600D02*
X198241101Y-78306695D01*
X198241101Y-78306695D02*
X198179197Y-78182885D01*
X198179197Y-78182885D02*
X198179197Y-77811457D01*
X198179197Y-77811457D02*
X198241101Y-77687647D01*
X198241101Y-77687647D02*
X198303006Y-77625742D01*
X198303006Y-77625742D02*
X198426816Y-77563838D01*
X198426816Y-77563838D02*
X198612530Y-77563838D01*
X198612530Y-77563838D02*
X198736339Y-77625742D01*
X198736339Y-77625742D02*
X198798244Y-77687647D01*
X198798244Y-77687647D02*
X198860149Y-77811457D01*
X198860149Y-77811457D02*
X198860149Y-78182885D01*
X198860149Y-78182885D02*
X198798244Y-78306695D01*
X198798244Y-78306695D02*
X198736339Y-78368600D01*
X198736339Y-78368600D02*
X198612530Y-78430504D01*
X198612530Y-78430504D02*
X198426816Y-78430504D01*
X199974434Y-78430504D02*
X199974434Y-77749552D01*
X199974434Y-77749552D02*
X199912529Y-77625742D01*
X199912529Y-77625742D02*
X199788720Y-77563838D01*
X199788720Y-77563838D02*
X199541101Y-77563838D01*
X199541101Y-77563838D02*
X199417291Y-77625742D01*
X199974434Y-78368600D02*
X199850625Y-78430504D01*
X199850625Y-78430504D02*
X199541101Y-78430504D01*
X199541101Y-78430504D02*
X199417291Y-78368600D01*
X199417291Y-78368600D02*
X199355387Y-78244790D01*
X199355387Y-78244790D02*
X199355387Y-78120980D01*
X199355387Y-78120980D02*
X199417291Y-77997171D01*
X199417291Y-77997171D02*
X199541101Y-77935266D01*
X199541101Y-77935266D02*
X199850625Y-77935266D01*
X199850625Y-77935266D02*
X199974434Y-77873361D01*
X200593481Y-78430504D02*
X200593481Y-77563838D01*
X200593481Y-77811457D02*
X200655386Y-77687647D01*
X200655386Y-77687647D02*
X200717291Y-77625742D01*
X200717291Y-77625742D02*
X200841100Y-77563838D01*
X200841100Y-77563838D02*
X200964910Y-77563838D01*
X201955386Y-78430504D02*
X201955386Y-77130504D01*
X201955386Y-78368600D02*
X201831577Y-78430504D01*
X201831577Y-78430504D02*
X201583958Y-78430504D01*
X201583958Y-78430504D02*
X201460148Y-78368600D01*
X201460148Y-78368600D02*
X201398243Y-78306695D01*
X201398243Y-78306695D02*
X201336339Y-78182885D01*
X201336339Y-78182885D02*
X201336339Y-77811457D01*
X201336339Y-77811457D02*
X201398243Y-77687647D01*
X201398243Y-77687647D02*
X201460148Y-77625742D01*
X201460148Y-77625742D02*
X201583958Y-77563838D01*
X201583958Y-77563838D02*
X201831577Y-77563838D01*
X201831577Y-77563838D02*
X201955386Y-77625742D01*
X203564909Y-78430504D02*
X203564909Y-77563838D01*
X203564909Y-77811457D02*
X203626814Y-77687647D01*
X203626814Y-77687647D02*
X203688719Y-77625742D01*
X203688719Y-77625742D02*
X203812528Y-77563838D01*
X203812528Y-77563838D02*
X203936338Y-77563838D01*
X204864909Y-78368600D02*
X204741100Y-78430504D01*
X204741100Y-78430504D02*
X204493481Y-78430504D01*
X204493481Y-78430504D02*
X204369671Y-78368600D01*
X204369671Y-78368600D02*
X204307767Y-78244790D01*
X204307767Y-78244790D02*
X204307767Y-77749552D01*
X204307767Y-77749552D02*
X204369671Y-77625742D01*
X204369671Y-77625742D02*
X204493481Y-77563838D01*
X204493481Y-77563838D02*
X204741100Y-77563838D01*
X204741100Y-77563838D02*
X204864909Y-77625742D01*
X204864909Y-77625742D02*
X204926814Y-77749552D01*
X204926814Y-77749552D02*
X204926814Y-77873361D01*
X204926814Y-77873361D02*
X204307767Y-77997171D01*
X205360148Y-77563838D02*
X205669672Y-78430504D01*
X205669672Y-78430504D02*
X205979195Y-77563838D01*
X206474433Y-78430504D02*
X206474433Y-77563838D01*
X206474433Y-77130504D02*
X206412529Y-77192409D01*
X206412529Y-77192409D02*
X206474433Y-77254314D01*
X206474433Y-77254314D02*
X206536338Y-77192409D01*
X206536338Y-77192409D02*
X206474433Y-77130504D01*
X206474433Y-77130504D02*
X206474433Y-77254314D01*
X207031577Y-78368600D02*
X207155386Y-78430504D01*
X207155386Y-78430504D02*
X207403005Y-78430504D01*
X207403005Y-78430504D02*
X207526815Y-78368600D01*
X207526815Y-78368600D02*
X207588719Y-78244790D01*
X207588719Y-78244790D02*
X207588719Y-78182885D01*
X207588719Y-78182885D02*
X207526815Y-78059076D01*
X207526815Y-78059076D02*
X207403005Y-77997171D01*
X207403005Y-77997171D02*
X207217291Y-77997171D01*
X207217291Y-77997171D02*
X207093481Y-77935266D01*
X207093481Y-77935266D02*
X207031577Y-77811457D01*
X207031577Y-77811457D02*
X207031577Y-77749552D01*
X207031577Y-77749552D02*
X207093481Y-77625742D01*
X207093481Y-77625742D02*
X207217291Y-77563838D01*
X207217291Y-77563838D02*
X207403005Y-77563838D01*
X207403005Y-77563838D02*
X207526815Y-77625742D01*
X208145862Y-78430504D02*
X208145862Y-77563838D01*
X208145862Y-77130504D02*
X208083958Y-77192409D01*
X208083958Y-77192409D02*
X208145862Y-77254314D01*
X208145862Y-77254314D02*
X208207767Y-77192409D01*
X208207767Y-77192409D02*
X208145862Y-77130504D01*
X208145862Y-77130504D02*
X208145862Y-77254314D01*
X208950625Y-78430504D02*
X208826815Y-78368600D01*
X208826815Y-78368600D02*
X208764910Y-78306695D01*
X208764910Y-78306695D02*
X208703006Y-78182885D01*
X208703006Y-78182885D02*
X208703006Y-77811457D01*
X208703006Y-77811457D02*
X208764910Y-77687647D01*
X208764910Y-77687647D02*
X208826815Y-77625742D01*
X208826815Y-77625742D02*
X208950625Y-77563838D01*
X208950625Y-77563838D02*
X209136339Y-77563838D01*
X209136339Y-77563838D02*
X209260148Y-77625742D01*
X209260148Y-77625742D02*
X209322053Y-77687647D01*
X209322053Y-77687647D02*
X209383958Y-77811457D01*
X209383958Y-77811457D02*
X209383958Y-78182885D01*
X209383958Y-78182885D02*
X209322053Y-78306695D01*
X209322053Y-78306695D02*
X209260148Y-78368600D01*
X209260148Y-78368600D02*
X209136339Y-78430504D01*
X209136339Y-78430504D02*
X208950625Y-78430504D01*
X209941100Y-77563838D02*
X209941100Y-78430504D01*
X209941100Y-77687647D02*
X210003005Y-77625742D01*
X210003005Y-77625742D02*
X210126815Y-77563838D01*
X210126815Y-77563838D02*
X210312529Y-77563838D01*
X210312529Y-77563838D02*
X210436338Y-77625742D01*
X210436338Y-77625742D02*
X210498243Y-77749552D01*
X210498243Y-77749552D02*
X210498243Y-78430504D01*
X212788719Y-78430504D02*
X212045862Y-78430504D01*
X212417290Y-78430504D02*
X212417290Y-77130504D01*
X212417290Y-77130504D02*
X212293481Y-77316219D01*
X212293481Y-77316219D02*
X212169671Y-77440028D01*
X212169671Y-77440028D02*
X212045862Y-77501933D01*
X213345861Y-78306695D02*
X213407766Y-78368600D01*
X213407766Y-78368600D02*
X213345861Y-78430504D01*
X213345861Y-78430504D02*
X213283957Y-78368600D01*
X213283957Y-78368600D02*
X213345861Y-78306695D01*
X213345861Y-78306695D02*
X213345861Y-78430504D01*
X214212528Y-77130504D02*
X214336338Y-77130504D01*
X214336338Y-77130504D02*
X214460147Y-77192409D01*
X214460147Y-77192409D02*
X214522052Y-77254314D01*
X214522052Y-77254314D02*
X214583957Y-77378123D01*
X214583957Y-77378123D02*
X214645862Y-77625742D01*
X214645862Y-77625742D02*
X214645862Y-77935266D01*
X214645862Y-77935266D02*
X214583957Y-78182885D01*
X214583957Y-78182885D02*
X214522052Y-78306695D01*
X214522052Y-78306695D02*
X214460147Y-78368600D01*
X214460147Y-78368600D02*
X214336338Y-78430504D01*
X214336338Y-78430504D02*
X214212528Y-78430504D01*
X214212528Y-78430504D02*
X214088719Y-78368600D01*
X214088719Y-78368600D02*
X214026814Y-78306695D01*
X214026814Y-78306695D02*
X213964909Y-78182885D01*
X213964909Y-78182885D02*
X213903005Y-77935266D01*
X213903005Y-77935266D02*
X213903005Y-77625742D01*
X213903005Y-77625742D02*
X213964909Y-77378123D01*
X213964909Y-77378123D02*
X214026814Y-77254314D01*
X214026814Y-77254314D02*
X214088719Y-77192409D01*
X214088719Y-77192409D02*
X214212528Y-77130504D01*
X193133958Y-122406695D02*
X193072054Y-122468600D01*
X193072054Y-122468600D02*
X192886339Y-122530504D01*
X192886339Y-122530504D02*
X192762530Y-122530504D01*
X192762530Y-122530504D02*
X192576816Y-122468600D01*
X192576816Y-122468600D02*
X192453006Y-122344790D01*
X192453006Y-122344790D02*
X192391101Y-122220980D01*
X192391101Y-122220980D02*
X192329197Y-121973361D01*
X192329197Y-121973361D02*
X192329197Y-121787647D01*
X192329197Y-121787647D02*
X192391101Y-121540028D01*
X192391101Y-121540028D02*
X192453006Y-121416219D01*
X192453006Y-121416219D02*
X192576816Y-121292409D01*
X192576816Y-121292409D02*
X192762530Y-121230504D01*
X192762530Y-121230504D02*
X192886339Y-121230504D01*
X192886339Y-121230504D02*
X193072054Y-121292409D01*
X193072054Y-121292409D02*
X193133958Y-121354314D01*
X193691101Y-122530504D02*
X193691101Y-121663838D01*
X193691101Y-121911457D02*
X193753006Y-121787647D01*
X193753006Y-121787647D02*
X193814911Y-121725742D01*
X193814911Y-121725742D02*
X193938720Y-121663838D01*
X193938720Y-121663838D02*
X194062530Y-121663838D01*
X194991101Y-122468600D02*
X194867292Y-122530504D01*
X194867292Y-122530504D02*
X194619673Y-122530504D01*
X194619673Y-122530504D02*
X194495863Y-122468600D01*
X194495863Y-122468600D02*
X194433959Y-122344790D01*
X194433959Y-122344790D02*
X194433959Y-121849552D01*
X194433959Y-121849552D02*
X194495863Y-121725742D01*
X194495863Y-121725742D02*
X194619673Y-121663838D01*
X194619673Y-121663838D02*
X194867292Y-121663838D01*
X194867292Y-121663838D02*
X194991101Y-121725742D01*
X194991101Y-121725742D02*
X195053006Y-121849552D01*
X195053006Y-121849552D02*
X195053006Y-121973361D01*
X195053006Y-121973361D02*
X194433959Y-122097171D01*
X196167292Y-122530504D02*
X196167292Y-121849552D01*
X196167292Y-121849552D02*
X196105387Y-121725742D01*
X196105387Y-121725742D02*
X195981578Y-121663838D01*
X195981578Y-121663838D02*
X195733959Y-121663838D01*
X195733959Y-121663838D02*
X195610149Y-121725742D01*
X196167292Y-122468600D02*
X196043483Y-122530504D01*
X196043483Y-122530504D02*
X195733959Y-122530504D01*
X195733959Y-122530504D02*
X195610149Y-122468600D01*
X195610149Y-122468600D02*
X195548245Y-122344790D01*
X195548245Y-122344790D02*
X195548245Y-122220980D01*
X195548245Y-122220980D02*
X195610149Y-122097171D01*
X195610149Y-122097171D02*
X195733959Y-122035266D01*
X195733959Y-122035266D02*
X196043483Y-122035266D01*
X196043483Y-122035266D02*
X196167292Y-121973361D01*
X196600625Y-121663838D02*
X197095863Y-121663838D01*
X196786339Y-121230504D02*
X196786339Y-122344790D01*
X196786339Y-122344790D02*
X196848244Y-122468600D01*
X196848244Y-122468600D02*
X196972054Y-122530504D01*
X196972054Y-122530504D02*
X197095863Y-122530504D01*
X198024434Y-122468600D02*
X197900625Y-122530504D01*
X197900625Y-122530504D02*
X197653006Y-122530504D01*
X197653006Y-122530504D02*
X197529196Y-122468600D01*
X197529196Y-122468600D02*
X197467292Y-122344790D01*
X197467292Y-122344790D02*
X197467292Y-121849552D01*
X197467292Y-121849552D02*
X197529196Y-121725742D01*
X197529196Y-121725742D02*
X197653006Y-121663838D01*
X197653006Y-121663838D02*
X197900625Y-121663838D01*
X197900625Y-121663838D02*
X198024434Y-121725742D01*
X198024434Y-121725742D02*
X198086339Y-121849552D01*
X198086339Y-121849552D02*
X198086339Y-121973361D01*
X198086339Y-121973361D02*
X197467292Y-122097171D01*
X199200625Y-122530504D02*
X199200625Y-121230504D01*
X199200625Y-122468600D02*
X199076816Y-122530504D01*
X199076816Y-122530504D02*
X198829197Y-122530504D01*
X198829197Y-122530504D02*
X198705387Y-122468600D01*
X198705387Y-122468600D02*
X198643482Y-122406695D01*
X198643482Y-122406695D02*
X198581578Y-122282885D01*
X198581578Y-122282885D02*
X198581578Y-121911457D01*
X198581578Y-121911457D02*
X198643482Y-121787647D01*
X198643482Y-121787647D02*
X198705387Y-121725742D01*
X198705387Y-121725742D02*
X198829197Y-121663838D01*
X198829197Y-121663838D02*
X199076816Y-121663838D01*
X199076816Y-121663838D02*
X199200625Y-121725742D01*
X200810148Y-122530504D02*
X200810148Y-121230504D01*
X200810148Y-121725742D02*
X200933958Y-121663838D01*
X200933958Y-121663838D02*
X201181577Y-121663838D01*
X201181577Y-121663838D02*
X201305386Y-121725742D01*
X201305386Y-121725742D02*
X201367291Y-121787647D01*
X201367291Y-121787647D02*
X201429196Y-121911457D01*
X201429196Y-121911457D02*
X201429196Y-122282885D01*
X201429196Y-122282885D02*
X201367291Y-122406695D01*
X201367291Y-122406695D02*
X201305386Y-122468600D01*
X201305386Y-122468600D02*
X201181577Y-122530504D01*
X201181577Y-122530504D02*
X200933958Y-122530504D01*
X200933958Y-122530504D02*
X200810148Y-122468600D01*
X201862529Y-121663838D02*
X202172053Y-122530504D01*
X202481576Y-121663838D02*
X202172053Y-122530504D01*
X202172053Y-122530504D02*
X202048243Y-122840028D01*
X202048243Y-122840028D02*
X201986338Y-122901933D01*
X201986338Y-122901933D02*
X201862529Y-122963838D01*
X209786337Y-121230504D02*
X210095861Y-122530504D01*
X210095861Y-122530504D02*
X210343480Y-121601933D01*
X210343480Y-121601933D02*
X210591099Y-122530504D01*
X210591099Y-122530504D02*
X210900623Y-121230504D01*
X211395860Y-122530504D02*
X211395860Y-121663838D01*
X211395860Y-121230504D02*
X211333956Y-121292409D01*
X211333956Y-121292409D02*
X211395860Y-121354314D01*
X211395860Y-121354314D02*
X211457765Y-121292409D01*
X211457765Y-121292409D02*
X211395860Y-121230504D01*
X211395860Y-121230504D02*
X211395860Y-121354314D01*
X212510146Y-122468600D02*
X212386337Y-122530504D01*
X212386337Y-122530504D02*
X212138718Y-122530504D01*
X212138718Y-122530504D02*
X212014908Y-122468600D01*
X212014908Y-122468600D02*
X211953004Y-122344790D01*
X211953004Y-122344790D02*
X211953004Y-121849552D01*
X211953004Y-121849552D02*
X212014908Y-121725742D01*
X212014908Y-121725742D02*
X212138718Y-121663838D01*
X212138718Y-121663838D02*
X212386337Y-121663838D01*
X212386337Y-121663838D02*
X212510146Y-121725742D01*
X212510146Y-121725742D02*
X212572051Y-121849552D01*
X212572051Y-121849552D02*
X212572051Y-121973361D01*
X212572051Y-121973361D02*
X211953004Y-122097171D01*
X213129194Y-122530504D02*
X213129194Y-121663838D01*
X213129194Y-121911457D02*
X213191099Y-121787647D01*
X213191099Y-121787647D02*
X213253004Y-121725742D01*
X213253004Y-121725742D02*
X213376813Y-121663838D01*
X213376813Y-121663838D02*
X213500623Y-121663838D01*
X213810147Y-121663838D02*
X214491099Y-121663838D01*
X214491099Y-121663838D02*
X213810147Y-122530504D01*
X213810147Y-122530504D02*
X214491099Y-122530504D01*
X214986337Y-122530504D02*
X214986337Y-121230504D01*
X214986337Y-121725742D02*
X215110147Y-121663838D01*
X215110147Y-121663838D02*
X215357766Y-121663838D01*
X215357766Y-121663838D02*
X215481575Y-121725742D01*
X215481575Y-121725742D02*
X215543480Y-121787647D01*
X215543480Y-121787647D02*
X215605385Y-121911457D01*
X215605385Y-121911457D02*
X215605385Y-122282885D01*
X215605385Y-122282885D02*
X215543480Y-122406695D01*
X215543480Y-122406695D02*
X215481575Y-122468600D01*
X215481575Y-122468600D02*
X215357766Y-122530504D01*
X215357766Y-122530504D02*
X215110147Y-122530504D01*
X215110147Y-122530504D02*
X214986337Y-122468600D01*
X216348242Y-122530504D02*
X216224432Y-122468600D01*
X216224432Y-122468600D02*
X216162527Y-122406695D01*
X216162527Y-122406695D02*
X216100623Y-122282885D01*
X216100623Y-122282885D02*
X216100623Y-121911457D01*
X216100623Y-121911457D02*
X216162527Y-121787647D01*
X216162527Y-121787647D02*
X216224432Y-121725742D01*
X216224432Y-121725742D02*
X216348242Y-121663838D01*
X216348242Y-121663838D02*
X216533956Y-121663838D01*
X216533956Y-121663838D02*
X216657765Y-121725742D01*
X216657765Y-121725742D02*
X216719670Y-121787647D01*
X216719670Y-121787647D02*
X216781575Y-121911457D01*
X216781575Y-121911457D02*
X216781575Y-122282885D01*
X216781575Y-122282885D02*
X216719670Y-122406695D01*
X216719670Y-122406695D02*
X216657765Y-122468600D01*
X216657765Y-122468600D02*
X216533956Y-122530504D01*
X216533956Y-122530504D02*
X216348242Y-122530504D01*
X217214908Y-121663838D02*
X217462527Y-122530504D01*
X217462527Y-122530504D02*
X217710146Y-121911457D01*
X217710146Y-121911457D02*
X217957765Y-122530504D01*
X217957765Y-122530504D02*
X218205384Y-121663838D01*
X218638718Y-122468600D02*
X218762527Y-122530504D01*
X218762527Y-122530504D02*
X219010146Y-122530504D01*
X219010146Y-122530504D02*
X219133956Y-122468600D01*
X219133956Y-122468600D02*
X219195860Y-122344790D01*
X219195860Y-122344790D02*
X219195860Y-122282885D01*
X219195860Y-122282885D02*
X219133956Y-122159076D01*
X219133956Y-122159076D02*
X219010146Y-122097171D01*
X219010146Y-122097171D02*
X218824432Y-122097171D01*
X218824432Y-122097171D02*
X218700622Y-122035266D01*
X218700622Y-122035266D02*
X218638718Y-121911457D01*
X218638718Y-121911457D02*
X218638718Y-121849552D01*
X218638718Y-121849552D02*
X218700622Y-121725742D01*
X218700622Y-121725742D02*
X218824432Y-121663838D01*
X218824432Y-121663838D02*
X219010146Y-121663838D01*
X219010146Y-121663838D02*
X219133956Y-121725742D01*
X219753003Y-122530504D02*
X219753003Y-121230504D01*
X219876813Y-122035266D02*
X220248241Y-122530504D01*
X220248241Y-121663838D02*
X219753003Y-122159076D01*
X220681575Y-121663838D02*
X220991099Y-122530504D01*
X221300622Y-121663838D02*
X220991099Y-122530504D01*
X220991099Y-122530504D02*
X220867289Y-122840028D01*
X220867289Y-122840028D02*
X220805384Y-122901933D01*
X220805384Y-122901933D02*
X220681575Y-122963838D01*
D11*
X208100000Y-122000000D02*
G75*
G02*
X204100000Y-122000000I-2000000J0D01*
G01*
X204100000Y-122000000D02*
G75*
G02*
X208100000Y-122000000I2000000J0D01*
G01*
X205211653Y-121035163D02*
X205735463Y-123235163D01*
X205735463Y-123235163D02*
X206154510Y-121663735D01*
X206154510Y-121663735D02*
X206573558Y-123235163D01*
X206573558Y-123235163D02*
X207097368Y-121035163D01*
D10*
X220083958Y-138006695D02*
X220022054Y-138068600D01*
X220022054Y-138068600D02*
X219836339Y-138130504D01*
X219836339Y-138130504D02*
X219712530Y-138130504D01*
X219712530Y-138130504D02*
X219526816Y-138068600D01*
X219526816Y-138068600D02*
X219403006Y-137944790D01*
X219403006Y-137944790D02*
X219341101Y-137820980D01*
X219341101Y-137820980D02*
X219279197Y-137573361D01*
X219279197Y-137573361D02*
X219279197Y-137387647D01*
X219279197Y-137387647D02*
X219341101Y-137140028D01*
X219341101Y-137140028D02*
X219403006Y-137016219D01*
X219403006Y-137016219D02*
X219526816Y-136892409D01*
X219526816Y-136892409D02*
X219712530Y-136830504D01*
X219712530Y-136830504D02*
X219836339Y-136830504D01*
X219836339Y-136830504D02*
X220022054Y-136892409D01*
X220022054Y-136892409D02*
X220083958Y-136954314D01*
X220826816Y-138130504D02*
X220703006Y-138068600D01*
X220703006Y-138068600D02*
X220641101Y-138006695D01*
X220641101Y-138006695D02*
X220579197Y-137882885D01*
X220579197Y-137882885D02*
X220579197Y-137511457D01*
X220579197Y-137511457D02*
X220641101Y-137387647D01*
X220641101Y-137387647D02*
X220703006Y-137325742D01*
X220703006Y-137325742D02*
X220826816Y-137263838D01*
X220826816Y-137263838D02*
X221012530Y-137263838D01*
X221012530Y-137263838D02*
X221136339Y-137325742D01*
X221136339Y-137325742D02*
X221198244Y-137387647D01*
X221198244Y-137387647D02*
X221260149Y-137511457D01*
X221260149Y-137511457D02*
X221260149Y-137882885D01*
X221260149Y-137882885D02*
X221198244Y-138006695D01*
X221198244Y-138006695D02*
X221136339Y-138068600D01*
X221136339Y-138068600D02*
X221012530Y-138130504D01*
X221012530Y-138130504D02*
X220826816Y-138130504D01*
X221817291Y-137263838D02*
X221817291Y-138563838D01*
X221817291Y-137325742D02*
X221941101Y-137263838D01*
X221941101Y-137263838D02*
X222188720Y-137263838D01*
X222188720Y-137263838D02*
X222312529Y-137325742D01*
X222312529Y-137325742D02*
X222374434Y-137387647D01*
X222374434Y-137387647D02*
X222436339Y-137511457D01*
X222436339Y-137511457D02*
X222436339Y-137882885D01*
X222436339Y-137882885D02*
X222374434Y-138006695D01*
X222374434Y-138006695D02*
X222312529Y-138068600D01*
X222312529Y-138068600D02*
X222188720Y-138130504D01*
X222188720Y-138130504D02*
X221941101Y-138130504D01*
X221941101Y-138130504D02*
X221817291Y-138068600D01*
X222869672Y-137263838D02*
X223179196Y-138130504D01*
X223488719Y-137263838D02*
X223179196Y-138130504D01*
X223179196Y-138130504D02*
X223055386Y-138440028D01*
X223055386Y-138440028D02*
X222993481Y-138501933D01*
X222993481Y-138501933D02*
X222869672Y-138563838D01*
X223983957Y-138130504D02*
X223983957Y-137263838D01*
X223983957Y-137511457D02*
X224045862Y-137387647D01*
X224045862Y-137387647D02*
X224107767Y-137325742D01*
X224107767Y-137325742D02*
X224231576Y-137263838D01*
X224231576Y-137263838D02*
X224355386Y-137263838D01*
X224788719Y-138130504D02*
X224788719Y-137263838D01*
X224788719Y-136830504D02*
X224726815Y-136892409D01*
X224726815Y-136892409D02*
X224788719Y-136954314D01*
X224788719Y-136954314D02*
X224850624Y-136892409D01*
X224850624Y-136892409D02*
X224788719Y-136830504D01*
X224788719Y-136830504D02*
X224788719Y-136954314D01*
X225964910Y-137263838D02*
X225964910Y-138316219D01*
X225964910Y-138316219D02*
X225903005Y-138440028D01*
X225903005Y-138440028D02*
X225841101Y-138501933D01*
X225841101Y-138501933D02*
X225717291Y-138563838D01*
X225717291Y-138563838D02*
X225531577Y-138563838D01*
X225531577Y-138563838D02*
X225407767Y-138501933D01*
X225964910Y-138068600D02*
X225841101Y-138130504D01*
X225841101Y-138130504D02*
X225593482Y-138130504D01*
X225593482Y-138130504D02*
X225469672Y-138068600D01*
X225469672Y-138068600D02*
X225407767Y-138006695D01*
X225407767Y-138006695D02*
X225345863Y-137882885D01*
X225345863Y-137882885D02*
X225345863Y-137511457D01*
X225345863Y-137511457D02*
X225407767Y-137387647D01*
X225407767Y-137387647D02*
X225469672Y-137325742D01*
X225469672Y-137325742D02*
X225593482Y-137263838D01*
X225593482Y-137263838D02*
X225841101Y-137263838D01*
X225841101Y-137263838D02*
X225964910Y-137325742D01*
X226583957Y-138130504D02*
X226583957Y-136830504D01*
X227141100Y-138130504D02*
X227141100Y-137449552D01*
X227141100Y-137449552D02*
X227079195Y-137325742D01*
X227079195Y-137325742D02*
X226955386Y-137263838D01*
X226955386Y-137263838D02*
X226769672Y-137263838D01*
X226769672Y-137263838D02*
X226645862Y-137325742D01*
X226645862Y-137325742D02*
X226583957Y-137387647D01*
X227574433Y-137263838D02*
X228069671Y-137263838D01*
X227760147Y-136830504D02*
X227760147Y-137944790D01*
X227760147Y-137944790D02*
X227822052Y-138068600D01*
X227822052Y-138068600D02*
X227945862Y-138130504D01*
X227945862Y-138130504D02*
X228069671Y-138130504D01*
X229864909Y-138625742D02*
X229803004Y-138563838D01*
X229803004Y-138563838D02*
X229679195Y-138378123D01*
X229679195Y-138378123D02*
X229617290Y-138254314D01*
X229617290Y-138254314D02*
X229555385Y-138068600D01*
X229555385Y-138068600D02*
X229493480Y-137759076D01*
X229493480Y-137759076D02*
X229493480Y-137511457D01*
X229493480Y-137511457D02*
X229555385Y-137201933D01*
X229555385Y-137201933D02*
X229617290Y-137016219D01*
X229617290Y-137016219D02*
X229679195Y-136892409D01*
X229679195Y-136892409D02*
X229803004Y-136706695D01*
X229803004Y-136706695D02*
X229864909Y-136644790D01*
X230917290Y-138068600D02*
X230793481Y-138130504D01*
X230793481Y-138130504D02*
X230545862Y-138130504D01*
X230545862Y-138130504D02*
X230422052Y-138068600D01*
X230422052Y-138068600D02*
X230360147Y-138006695D01*
X230360147Y-138006695D02*
X230298243Y-137882885D01*
X230298243Y-137882885D02*
X230298243Y-137511457D01*
X230298243Y-137511457D02*
X230360147Y-137387647D01*
X230360147Y-137387647D02*
X230422052Y-137325742D01*
X230422052Y-137325742D02*
X230545862Y-137263838D01*
X230545862Y-137263838D02*
X230793481Y-137263838D01*
X230793481Y-137263838D02*
X230917290Y-137325742D01*
X231350624Y-138625742D02*
X231412529Y-138563838D01*
X231412529Y-138563838D02*
X231536338Y-138378123D01*
X231536338Y-138378123D02*
X231598243Y-138254314D01*
X231598243Y-138254314D02*
X231660148Y-138068600D01*
X231660148Y-138068600D02*
X231722052Y-137759076D01*
X231722052Y-137759076D02*
X231722052Y-137511457D01*
X231722052Y-137511457D02*
X231660148Y-137201933D01*
X231660148Y-137201933D02*
X231598243Y-137016219D01*
X231598243Y-137016219D02*
X231536338Y-136892409D01*
X231536338Y-136892409D02*
X231412529Y-136706695D01*
X231412529Y-136706695D02*
X231350624Y-136644790D01*
X233269672Y-136954314D02*
X233331576Y-136892409D01*
X233331576Y-136892409D02*
X233455386Y-136830504D01*
X233455386Y-136830504D02*
X233764910Y-136830504D01*
X233764910Y-136830504D02*
X233888719Y-136892409D01*
X233888719Y-136892409D02*
X233950624Y-136954314D01*
X233950624Y-136954314D02*
X234012529Y-137078123D01*
X234012529Y-137078123D02*
X234012529Y-137201933D01*
X234012529Y-137201933D02*
X233950624Y-137387647D01*
X233950624Y-137387647D02*
X233207767Y-138130504D01*
X233207767Y-138130504D02*
X234012529Y-138130504D01*
X234817290Y-136830504D02*
X234941100Y-136830504D01*
X234941100Y-136830504D02*
X235064909Y-136892409D01*
X235064909Y-136892409D02*
X235126814Y-136954314D01*
X235126814Y-136954314D02*
X235188719Y-137078123D01*
X235188719Y-137078123D02*
X235250624Y-137325742D01*
X235250624Y-137325742D02*
X235250624Y-137635266D01*
X235250624Y-137635266D02*
X235188719Y-137882885D01*
X235188719Y-137882885D02*
X235126814Y-138006695D01*
X235126814Y-138006695D02*
X235064909Y-138068600D01*
X235064909Y-138068600D02*
X234941100Y-138130504D01*
X234941100Y-138130504D02*
X234817290Y-138130504D01*
X234817290Y-138130504D02*
X234693481Y-138068600D01*
X234693481Y-138068600D02*
X234631576Y-138006695D01*
X234631576Y-138006695D02*
X234569671Y-137882885D01*
X234569671Y-137882885D02*
X234507767Y-137635266D01*
X234507767Y-137635266D02*
X234507767Y-137325742D01*
X234507767Y-137325742D02*
X234569671Y-137078123D01*
X234569671Y-137078123D02*
X234631576Y-136954314D01*
X234631576Y-136954314D02*
X234693481Y-136892409D01*
X234693481Y-136892409D02*
X234817290Y-136830504D01*
X235745862Y-136954314D02*
X235807766Y-136892409D01*
X235807766Y-136892409D02*
X235931576Y-136830504D01*
X235931576Y-136830504D02*
X236241100Y-136830504D01*
X236241100Y-136830504D02*
X236364909Y-136892409D01*
X236364909Y-136892409D02*
X236426814Y-136954314D01*
X236426814Y-136954314D02*
X236488719Y-137078123D01*
X236488719Y-137078123D02*
X236488719Y-137201933D01*
X236488719Y-137201933D02*
X236426814Y-137387647D01*
X236426814Y-137387647D02*
X235683957Y-138130504D01*
X235683957Y-138130504D02*
X236488719Y-138130504D01*
X237664909Y-136830504D02*
X237045861Y-136830504D01*
X237045861Y-136830504D02*
X236983957Y-137449552D01*
X236983957Y-137449552D02*
X237045861Y-137387647D01*
X237045861Y-137387647D02*
X237169671Y-137325742D01*
X237169671Y-137325742D02*
X237479195Y-137325742D01*
X237479195Y-137325742D02*
X237603004Y-137387647D01*
X237603004Y-137387647D02*
X237664909Y-137449552D01*
X237664909Y-137449552D02*
X237726814Y-137573361D01*
X237726814Y-137573361D02*
X237726814Y-137882885D01*
X237726814Y-137882885D02*
X237664909Y-138006695D01*
X237664909Y-138006695D02*
X237603004Y-138068600D01*
X237603004Y-138068600D02*
X237479195Y-138130504D01*
X237479195Y-138130504D02*
X237169671Y-138130504D01*
X237169671Y-138130504D02*
X237045861Y-138068600D01*
X237045861Y-138068600D02*
X236983957Y-138006695D01*
X240017289Y-138130504D02*
X239583956Y-137511457D01*
X239274432Y-138130504D02*
X239274432Y-136830504D01*
X239274432Y-136830504D02*
X239769670Y-136830504D01*
X239769670Y-136830504D02*
X239893480Y-136892409D01*
X239893480Y-136892409D02*
X239955385Y-136954314D01*
X239955385Y-136954314D02*
X240017289Y-137078123D01*
X240017289Y-137078123D02*
X240017289Y-137263838D01*
X240017289Y-137263838D02*
X239955385Y-137387647D01*
X239955385Y-137387647D02*
X239893480Y-137449552D01*
X239893480Y-137449552D02*
X239769670Y-137511457D01*
X239769670Y-137511457D02*
X239274432Y-137511457D01*
X241007766Y-137449552D02*
X241193480Y-137511457D01*
X241193480Y-137511457D02*
X241255385Y-137573361D01*
X241255385Y-137573361D02*
X241317289Y-137697171D01*
X241317289Y-137697171D02*
X241317289Y-137882885D01*
X241317289Y-137882885D02*
X241255385Y-138006695D01*
X241255385Y-138006695D02*
X241193480Y-138068600D01*
X241193480Y-138068600D02*
X241069670Y-138130504D01*
X241069670Y-138130504D02*
X240574432Y-138130504D01*
X240574432Y-138130504D02*
X240574432Y-136830504D01*
X240574432Y-136830504D02*
X241007766Y-136830504D01*
X241007766Y-136830504D02*
X241131575Y-136892409D01*
X241131575Y-136892409D02*
X241193480Y-136954314D01*
X241193480Y-136954314D02*
X241255385Y-137078123D01*
X241255385Y-137078123D02*
X241255385Y-137201933D01*
X241255385Y-137201933D02*
X241193480Y-137325742D01*
X241193480Y-137325742D02*
X241131575Y-137387647D01*
X241131575Y-137387647D02*
X241007766Y-137449552D01*
X241007766Y-137449552D02*
X240574432Y-137449552D01*
X241812528Y-138068600D02*
X241998242Y-138130504D01*
X241998242Y-138130504D02*
X242307766Y-138130504D01*
X242307766Y-138130504D02*
X242431575Y-138068600D01*
X242431575Y-138068600D02*
X242493480Y-138006695D01*
X242493480Y-138006695D02*
X242555385Y-137882885D01*
X242555385Y-137882885D02*
X242555385Y-137759076D01*
X242555385Y-137759076D02*
X242493480Y-137635266D01*
X242493480Y-137635266D02*
X242431575Y-137573361D01*
X242431575Y-137573361D02*
X242307766Y-137511457D01*
X242307766Y-137511457D02*
X242060147Y-137449552D01*
X242060147Y-137449552D02*
X241936337Y-137387647D01*
X241936337Y-137387647D02*
X241874432Y-137325742D01*
X241874432Y-137325742D02*
X241812528Y-137201933D01*
X241812528Y-137201933D02*
X241812528Y-137078123D01*
X241812528Y-137078123D02*
X241874432Y-136954314D01*
X241874432Y-136954314D02*
X241936337Y-136892409D01*
X241936337Y-136892409D02*
X242060147Y-136830504D01*
X242060147Y-136830504D02*
X242369670Y-136830504D01*
X242369670Y-136830504D02*
X242555385Y-136892409D01*
X243855384Y-138006695D02*
X243793480Y-138068600D01*
X243793480Y-138068600D02*
X243607765Y-138130504D01*
X243607765Y-138130504D02*
X243483956Y-138130504D01*
X243483956Y-138130504D02*
X243298242Y-138068600D01*
X243298242Y-138068600D02*
X243174432Y-137944790D01*
X243174432Y-137944790D02*
X243112527Y-137820980D01*
X243112527Y-137820980D02*
X243050623Y-137573361D01*
X243050623Y-137573361D02*
X243050623Y-137387647D01*
X243050623Y-137387647D02*
X243112527Y-137140028D01*
X243112527Y-137140028D02*
X243174432Y-137016219D01*
X243174432Y-137016219D02*
X243298242Y-136892409D01*
X243298242Y-136892409D02*
X243483956Y-136830504D01*
X243483956Y-136830504D02*
X243607765Y-136830504D01*
X243607765Y-136830504D02*
X243793480Y-136892409D01*
X243793480Y-136892409D02*
X243855384Y-136954314D01*
D11*
X176273558Y-108189638D02*
X176273558Y-106189638D01*
X176273558Y-106189638D02*
X176749748Y-106189638D01*
X176749748Y-106189638D02*
X177035463Y-106284876D01*
X177035463Y-106284876D02*
X177225939Y-106475352D01*
X177225939Y-106475352D02*
X177321177Y-106665828D01*
X177321177Y-106665828D02*
X177416415Y-107046780D01*
X177416415Y-107046780D02*
X177416415Y-107332495D01*
X177416415Y-107332495D02*
X177321177Y-107713447D01*
X177321177Y-107713447D02*
X177225939Y-107903923D01*
X177225939Y-107903923D02*
X177035463Y-108094400D01*
X177035463Y-108094400D02*
X176749748Y-108189638D01*
X176749748Y-108189638D02*
X176273558Y-108189638D01*
X179130701Y-108189638D02*
X179130701Y-107142019D01*
X179130701Y-107142019D02*
X179035463Y-106951542D01*
X179035463Y-106951542D02*
X178844987Y-106856304D01*
X178844987Y-106856304D02*
X178464034Y-106856304D01*
X178464034Y-106856304D02*
X178273558Y-106951542D01*
X179130701Y-108094400D02*
X178940225Y-108189638D01*
X178940225Y-108189638D02*
X178464034Y-108189638D01*
X178464034Y-108189638D02*
X178273558Y-108094400D01*
X178273558Y-108094400D02*
X178178320Y-107903923D01*
X178178320Y-107903923D02*
X178178320Y-107713447D01*
X178178320Y-107713447D02*
X178273558Y-107522971D01*
X178273558Y-107522971D02*
X178464034Y-107427733D01*
X178464034Y-107427733D02*
X178940225Y-107427733D01*
X178940225Y-107427733D02*
X179130701Y-107332495D01*
X180844987Y-108094400D02*
X180654511Y-108189638D01*
X180654511Y-108189638D02*
X180273558Y-108189638D01*
X180273558Y-108189638D02*
X180083082Y-108094400D01*
X180083082Y-108094400D02*
X179987844Y-107903923D01*
X179987844Y-107903923D02*
X179987844Y-107142019D01*
X179987844Y-107142019D02*
X180083082Y-106951542D01*
X180083082Y-106951542D02*
X180273558Y-106856304D01*
X180273558Y-106856304D02*
X180654511Y-106856304D01*
X180654511Y-106856304D02*
X180844987Y-106951542D01*
X180844987Y-106951542D02*
X180940225Y-107142019D01*
X180940225Y-107142019D02*
X180940225Y-107332495D01*
X180940225Y-107332495D02*
X179987844Y-107522971D01*
X181606892Y-106856304D02*
X181987844Y-108189638D01*
X181987844Y-108189638D02*
X182368797Y-107237257D01*
X182368797Y-107237257D02*
X182749749Y-108189638D01*
X182749749Y-108189638D02*
X183130701Y-106856304D01*
X184178320Y-108189638D02*
X183987844Y-108094400D01*
X183987844Y-108094400D02*
X183892606Y-107999161D01*
X183892606Y-107999161D02*
X183797368Y-107808685D01*
X183797368Y-107808685D02*
X183797368Y-107237257D01*
X183797368Y-107237257D02*
X183892606Y-107046780D01*
X183892606Y-107046780D02*
X183987844Y-106951542D01*
X183987844Y-106951542D02*
X184178320Y-106856304D01*
X184178320Y-106856304D02*
X184464035Y-106856304D01*
X184464035Y-106856304D02*
X184654511Y-106951542D01*
X184654511Y-106951542D02*
X184749749Y-107046780D01*
X184749749Y-107046780D02*
X184844987Y-107237257D01*
X184844987Y-107237257D02*
X184844987Y-107808685D01*
X184844987Y-107808685D02*
X184749749Y-107999161D01*
X184749749Y-107999161D02*
X184654511Y-108094400D01*
X184654511Y-108094400D02*
X184464035Y-108189638D01*
X184464035Y-108189638D02*
X184178320Y-108189638D01*
X185987844Y-108189638D02*
X185797368Y-108094400D01*
X185797368Y-108094400D02*
X185702130Y-107999161D01*
X185702130Y-107999161D02*
X185606892Y-107808685D01*
X185606892Y-107808685D02*
X185606892Y-107237257D01*
X185606892Y-107237257D02*
X185702130Y-107046780D01*
X185702130Y-107046780D02*
X185797368Y-106951542D01*
X185797368Y-106951542D02*
X185987844Y-106856304D01*
X185987844Y-106856304D02*
X186273559Y-106856304D01*
X186273559Y-106856304D02*
X186464035Y-106951542D01*
X186464035Y-106951542D02*
X186559273Y-107046780D01*
X186559273Y-107046780D02*
X186654511Y-107237257D01*
X186654511Y-107237257D02*
X186654511Y-107808685D01*
X186654511Y-107808685D02*
X186559273Y-107999161D01*
X186559273Y-107999161D02*
X186464035Y-108094400D01*
X186464035Y-108094400D02*
X186273559Y-108189638D01*
X186273559Y-108189638D02*
X185987844Y-108189638D01*
X190178321Y-107999161D02*
X190083083Y-108094400D01*
X190083083Y-108094400D02*
X189797369Y-108189638D01*
X189797369Y-108189638D02*
X189606893Y-108189638D01*
X189606893Y-108189638D02*
X189321178Y-108094400D01*
X189321178Y-108094400D02*
X189130702Y-107903923D01*
X189130702Y-107903923D02*
X189035464Y-107713447D01*
X189035464Y-107713447D02*
X188940226Y-107332495D01*
X188940226Y-107332495D02*
X188940226Y-107046780D01*
X188940226Y-107046780D02*
X189035464Y-106665828D01*
X189035464Y-106665828D02*
X189130702Y-106475352D01*
X189130702Y-106475352D02*
X189321178Y-106284876D01*
X189321178Y-106284876D02*
X189606893Y-106189638D01*
X189606893Y-106189638D02*
X189797369Y-106189638D01*
X189797369Y-106189638D02*
X190083083Y-106284876D01*
X190083083Y-106284876D02*
X190178321Y-106380114D01*
X191035464Y-108189638D02*
X191035464Y-106189638D01*
X191035464Y-106189638D02*
X191797369Y-106189638D01*
X191797369Y-106189638D02*
X191987845Y-106284876D01*
X191987845Y-106284876D02*
X192083083Y-106380114D01*
X192083083Y-106380114D02*
X192178321Y-106570590D01*
X192178321Y-106570590D02*
X192178321Y-106856304D01*
X192178321Y-106856304D02*
X192083083Y-107046780D01*
X192083083Y-107046780D02*
X191987845Y-107142019D01*
X191987845Y-107142019D02*
X191797369Y-107237257D01*
X191797369Y-107237257D02*
X191035464Y-107237257D01*
X194178321Y-107999161D02*
X194083083Y-108094400D01*
X194083083Y-108094400D02*
X193797369Y-108189638D01*
X193797369Y-108189638D02*
X193606893Y-108189638D01*
X193606893Y-108189638D02*
X193321178Y-108094400D01*
X193321178Y-108094400D02*
X193130702Y-107903923D01*
X193130702Y-107903923D02*
X193035464Y-107713447D01*
X193035464Y-107713447D02*
X192940226Y-107332495D01*
X192940226Y-107332495D02*
X192940226Y-107046780D01*
X192940226Y-107046780D02*
X193035464Y-106665828D01*
X193035464Y-106665828D02*
X193130702Y-106475352D01*
X193130702Y-106475352D02*
X193321178Y-106284876D01*
X193321178Y-106284876D02*
X193606893Y-106189638D01*
X193606893Y-106189638D02*
X193797369Y-106189638D01*
X193797369Y-106189638D02*
X194083083Y-106284876D01*
X194083083Y-106284876D02*
X194178321Y-106380114D01*
X195035464Y-107427733D02*
X196559274Y-107427733D01*
X198368797Y-106856304D02*
X198368797Y-108189638D01*
X197892606Y-106094400D02*
X197416416Y-107522971D01*
X197416416Y-107522971D02*
X198654511Y-107522971D01*
X199797368Y-106189638D02*
X199987845Y-106189638D01*
X199987845Y-106189638D02*
X200178321Y-106284876D01*
X200178321Y-106284876D02*
X200273559Y-106380114D01*
X200273559Y-106380114D02*
X200368797Y-106570590D01*
X200368797Y-106570590D02*
X200464035Y-106951542D01*
X200464035Y-106951542D02*
X200464035Y-107427733D01*
X200464035Y-107427733D02*
X200368797Y-107808685D01*
X200368797Y-107808685D02*
X200273559Y-107999161D01*
X200273559Y-107999161D02*
X200178321Y-108094400D01*
X200178321Y-108094400D02*
X199987845Y-108189638D01*
X199987845Y-108189638D02*
X199797368Y-108189638D01*
X199797368Y-108189638D02*
X199606892Y-108094400D01*
X199606892Y-108094400D02*
X199511654Y-107999161D01*
X199511654Y-107999161D02*
X199416416Y-107808685D01*
X199416416Y-107808685D02*
X199321178Y-107427733D01*
X199321178Y-107427733D02*
X199321178Y-106951542D01*
X199321178Y-106951542D02*
X199416416Y-106570590D01*
X199416416Y-106570590D02*
X199511654Y-106380114D01*
X199511654Y-106380114D02*
X199606892Y-106284876D01*
X199606892Y-106284876D02*
X199797368Y-106189638D01*
X201702130Y-106189638D02*
X201892607Y-106189638D01*
X201892607Y-106189638D02*
X202083083Y-106284876D01*
X202083083Y-106284876D02*
X202178321Y-106380114D01*
X202178321Y-106380114D02*
X202273559Y-106570590D01*
X202273559Y-106570590D02*
X202368797Y-106951542D01*
X202368797Y-106951542D02*
X202368797Y-107427733D01*
X202368797Y-107427733D02*
X202273559Y-107808685D01*
X202273559Y-107808685D02*
X202178321Y-107999161D01*
X202178321Y-107999161D02*
X202083083Y-108094400D01*
X202083083Y-108094400D02*
X201892607Y-108189638D01*
X201892607Y-108189638D02*
X201702130Y-108189638D01*
X201702130Y-108189638D02*
X201511654Y-108094400D01*
X201511654Y-108094400D02*
X201416416Y-107999161D01*
X201416416Y-107999161D02*
X201321178Y-107808685D01*
X201321178Y-107808685D02*
X201225940Y-107427733D01*
X201225940Y-107427733D02*
X201225940Y-106951542D01*
X201225940Y-106951542D02*
X201321178Y-106570590D01*
X201321178Y-106570590D02*
X201416416Y-106380114D01*
X201416416Y-106380114D02*
X201511654Y-106284876D01*
X201511654Y-106284876D02*
X201702130Y-106189638D01*
X204654511Y-106094400D02*
X202940226Y-108665828D01*
X206178321Y-106856304D02*
X206178321Y-108189638D01*
X205702130Y-106094400D02*
X205225940Y-107522971D01*
X205225940Y-107522971D02*
X206464035Y-107522971D01*
X207606892Y-106189638D02*
X207797369Y-106189638D01*
X207797369Y-106189638D02*
X207987845Y-106284876D01*
X207987845Y-106284876D02*
X208083083Y-106380114D01*
X208083083Y-106380114D02*
X208178321Y-106570590D01*
X208178321Y-106570590D02*
X208273559Y-106951542D01*
X208273559Y-106951542D02*
X208273559Y-107427733D01*
X208273559Y-107427733D02*
X208178321Y-107808685D01*
X208178321Y-107808685D02*
X208083083Y-107999161D01*
X208083083Y-107999161D02*
X207987845Y-108094400D01*
X207987845Y-108094400D02*
X207797369Y-108189638D01*
X207797369Y-108189638D02*
X207606892Y-108189638D01*
X207606892Y-108189638D02*
X207416416Y-108094400D01*
X207416416Y-108094400D02*
X207321178Y-107999161D01*
X207321178Y-107999161D02*
X207225940Y-107808685D01*
X207225940Y-107808685D02*
X207130702Y-107427733D01*
X207130702Y-107427733D02*
X207130702Y-106951542D01*
X207130702Y-106951542D02*
X207225940Y-106570590D01*
X207225940Y-106570590D02*
X207321178Y-106380114D01*
X207321178Y-106380114D02*
X207416416Y-106284876D01*
X207416416Y-106284876D02*
X207606892Y-106189638D01*
X209511654Y-106189638D02*
X209702131Y-106189638D01*
X209702131Y-106189638D02*
X209892607Y-106284876D01*
X209892607Y-106284876D02*
X209987845Y-106380114D01*
X209987845Y-106380114D02*
X210083083Y-106570590D01*
X210083083Y-106570590D02*
X210178321Y-106951542D01*
X210178321Y-106951542D02*
X210178321Y-107427733D01*
X210178321Y-107427733D02*
X210083083Y-107808685D01*
X210083083Y-107808685D02*
X209987845Y-107999161D01*
X209987845Y-107999161D02*
X209892607Y-108094400D01*
X209892607Y-108094400D02*
X209702131Y-108189638D01*
X209702131Y-108189638D02*
X209511654Y-108189638D01*
X209511654Y-108189638D02*
X209321178Y-108094400D01*
X209321178Y-108094400D02*
X209225940Y-107999161D01*
X209225940Y-107999161D02*
X209130702Y-107808685D01*
X209130702Y-107808685D02*
X209035464Y-107427733D01*
X209035464Y-107427733D02*
X209035464Y-106951542D01*
X209035464Y-106951542D02*
X209130702Y-106570590D01*
X209130702Y-106570590D02*
X209225940Y-106380114D01*
X209225940Y-106380114D02*
X209321178Y-106284876D01*
X209321178Y-106284876D02*
X209511654Y-106189638D01*
X210940226Y-108094400D02*
X211225940Y-108189638D01*
X211225940Y-108189638D02*
X211702131Y-108189638D01*
X211702131Y-108189638D02*
X211892607Y-108094400D01*
X211892607Y-108094400D02*
X211987845Y-107999161D01*
X211987845Y-107999161D02*
X212083083Y-107808685D01*
X212083083Y-107808685D02*
X212083083Y-107618209D01*
X212083083Y-107618209D02*
X211987845Y-107427733D01*
X211987845Y-107427733D02*
X211892607Y-107332495D01*
X211892607Y-107332495D02*
X211702131Y-107237257D01*
X211702131Y-107237257D02*
X211321178Y-107142019D01*
X211321178Y-107142019D02*
X211130702Y-107046780D01*
X211130702Y-107046780D02*
X211035464Y-106951542D01*
X211035464Y-106951542D02*
X210940226Y-106761066D01*
X210940226Y-106761066D02*
X210940226Y-106570590D01*
X210940226Y-106570590D02*
X211035464Y-106380114D01*
X211035464Y-106380114D02*
X211130702Y-106284876D01*
X211130702Y-106284876D02*
X211321178Y-106189638D01*
X211321178Y-106189638D02*
X211797369Y-106189638D01*
X211797369Y-106189638D02*
X212083083Y-106284876D01*
X215606893Y-108189638D02*
X214940226Y-107237257D01*
X214464036Y-108189638D02*
X214464036Y-106189638D01*
X214464036Y-106189638D02*
X215225941Y-106189638D01*
X215225941Y-106189638D02*
X215416417Y-106284876D01*
X215416417Y-106284876D02*
X215511655Y-106380114D01*
X215511655Y-106380114D02*
X215606893Y-106570590D01*
X215606893Y-106570590D02*
X215606893Y-106856304D01*
X215606893Y-106856304D02*
X215511655Y-107046780D01*
X215511655Y-107046780D02*
X215416417Y-107142019D01*
X215416417Y-107142019D02*
X215225941Y-107237257D01*
X215225941Y-107237257D02*
X214464036Y-107237257D01*
X216368798Y-107618209D02*
X217321179Y-107618209D01*
X216178322Y-108189638D02*
X216844988Y-106189638D01*
X216844988Y-106189638D02*
X217511655Y-108189638D01*
X218178322Y-108189638D02*
X218178322Y-106189638D01*
X218178322Y-106189638D02*
X218844989Y-107618209D01*
X218844989Y-107618209D02*
X219511655Y-106189638D01*
X219511655Y-106189638D02*
X219511655Y-108189638D01*
X221987846Y-107142019D02*
X222654513Y-107142019D01*
X222940227Y-108189638D02*
X221987846Y-108189638D01*
X221987846Y-108189638D02*
X221987846Y-106189638D01*
X221987846Y-106189638D02*
X222940227Y-106189638D01*
X223606894Y-108189638D02*
X224654513Y-106856304D01*
X223606894Y-106856304D02*
X224654513Y-108189638D01*
X225416418Y-106856304D02*
X225416418Y-108856304D01*
X225416418Y-106951542D02*
X225606894Y-106856304D01*
X225606894Y-106856304D02*
X225987847Y-106856304D01*
X225987847Y-106856304D02*
X226178323Y-106951542D01*
X226178323Y-106951542D02*
X226273561Y-107046780D01*
X226273561Y-107046780D02*
X226368799Y-107237257D01*
X226368799Y-107237257D02*
X226368799Y-107808685D01*
X226368799Y-107808685D02*
X226273561Y-107999161D01*
X226273561Y-107999161D02*
X226178323Y-108094400D01*
X226178323Y-108094400D02*
X225987847Y-108189638D01*
X225987847Y-108189638D02*
X225606894Y-108189638D01*
X225606894Y-108189638D02*
X225416418Y-108094400D01*
X228083085Y-108189638D02*
X228083085Y-107142019D01*
X228083085Y-107142019D02*
X227987847Y-106951542D01*
X227987847Y-106951542D02*
X227797371Y-106856304D01*
X227797371Y-106856304D02*
X227416418Y-106856304D01*
X227416418Y-106856304D02*
X227225942Y-106951542D01*
X228083085Y-108094400D02*
X227892609Y-108189638D01*
X227892609Y-108189638D02*
X227416418Y-108189638D01*
X227416418Y-108189638D02*
X227225942Y-108094400D01*
X227225942Y-108094400D02*
X227130704Y-107903923D01*
X227130704Y-107903923D02*
X227130704Y-107713447D01*
X227130704Y-107713447D02*
X227225942Y-107522971D01*
X227225942Y-107522971D02*
X227416418Y-107427733D01*
X227416418Y-107427733D02*
X227892609Y-107427733D01*
X227892609Y-107427733D02*
X228083085Y-107332495D01*
X229035466Y-106856304D02*
X229035466Y-108189638D01*
X229035466Y-107046780D02*
X229130704Y-106951542D01*
X229130704Y-106951542D02*
X229321180Y-106856304D01*
X229321180Y-106856304D02*
X229606895Y-106856304D01*
X229606895Y-106856304D02*
X229797371Y-106951542D01*
X229797371Y-106951542D02*
X229892609Y-107142019D01*
X229892609Y-107142019D02*
X229892609Y-108189638D01*
X230749752Y-108094400D02*
X230940228Y-108189638D01*
X230940228Y-108189638D02*
X231321180Y-108189638D01*
X231321180Y-108189638D02*
X231511657Y-108094400D01*
X231511657Y-108094400D02*
X231606895Y-107903923D01*
X231606895Y-107903923D02*
X231606895Y-107808685D01*
X231606895Y-107808685D02*
X231511657Y-107618209D01*
X231511657Y-107618209D02*
X231321180Y-107522971D01*
X231321180Y-107522971D02*
X231035466Y-107522971D01*
X231035466Y-107522971D02*
X230844990Y-107427733D01*
X230844990Y-107427733D02*
X230749752Y-107237257D01*
X230749752Y-107237257D02*
X230749752Y-107142019D01*
X230749752Y-107142019D02*
X230844990Y-106951542D01*
X230844990Y-106951542D02*
X231035466Y-106856304D01*
X231035466Y-106856304D02*
X231321180Y-106856304D01*
X231321180Y-106856304D02*
X231511657Y-106951542D01*
X232464038Y-108189638D02*
X232464038Y-106856304D01*
X232464038Y-106189638D02*
X232368800Y-106284876D01*
X232368800Y-106284876D02*
X232464038Y-106380114D01*
X232464038Y-106380114D02*
X232559276Y-106284876D01*
X232559276Y-106284876D02*
X232464038Y-106189638D01*
X232464038Y-106189638D02*
X232464038Y-106380114D01*
X233702133Y-108189638D02*
X233511657Y-108094400D01*
X233511657Y-108094400D02*
X233416419Y-107999161D01*
X233416419Y-107999161D02*
X233321181Y-107808685D01*
X233321181Y-107808685D02*
X233321181Y-107237257D01*
X233321181Y-107237257D02*
X233416419Y-107046780D01*
X233416419Y-107046780D02*
X233511657Y-106951542D01*
X233511657Y-106951542D02*
X233702133Y-106856304D01*
X233702133Y-106856304D02*
X233987848Y-106856304D01*
X233987848Y-106856304D02*
X234178324Y-106951542D01*
X234178324Y-106951542D02*
X234273562Y-107046780D01*
X234273562Y-107046780D02*
X234368800Y-107237257D01*
X234368800Y-107237257D02*
X234368800Y-107808685D01*
X234368800Y-107808685D02*
X234273562Y-107999161D01*
X234273562Y-107999161D02*
X234178324Y-108094400D01*
X234178324Y-108094400D02*
X233987848Y-108189638D01*
X233987848Y-108189638D02*
X233702133Y-108189638D01*
X235225943Y-106856304D02*
X235225943Y-108189638D01*
X235225943Y-107046780D02*
X235321181Y-106951542D01*
X235321181Y-106951542D02*
X235511657Y-106856304D01*
X235511657Y-106856304D02*
X235797372Y-106856304D01*
X235797372Y-106856304D02*
X235987848Y-106951542D01*
X235987848Y-106951542D02*
X236083086Y-107142019D01*
X236083086Y-107142019D02*
X236083086Y-108189638D01*
D12*
X174244140Y-135261175D02*
X173672712Y-135261175D01*
X173958426Y-135261175D02*
X173958426Y-134261175D01*
X173958426Y-134261175D02*
X173863188Y-134404032D01*
X173863188Y-134404032D02*
X173767950Y-134499270D01*
X173767950Y-134499270D02*
X173672712Y-134546889D01*
X174672712Y-134880222D02*
X175434617Y-134880222D01*
X175863188Y-134356413D02*
X175910807Y-134308794D01*
X175910807Y-134308794D02*
X176006045Y-134261175D01*
X176006045Y-134261175D02*
X176244140Y-134261175D01*
X176244140Y-134261175D02*
X176339378Y-134308794D01*
X176339378Y-134308794D02*
X176386997Y-134356413D01*
X176386997Y-134356413D02*
X176434616Y-134451651D01*
X176434616Y-134451651D02*
X176434616Y-134546889D01*
X176434616Y-134546889D02*
X176386997Y-134689746D01*
X176386997Y-134689746D02*
X175815569Y-135261175D01*
X175815569Y-135261175D02*
X176434616Y-135261175D01*
X177625093Y-135261175D02*
X177625093Y-134261175D01*
X177625093Y-134261175D02*
X177863188Y-134261175D01*
X177863188Y-134261175D02*
X178006045Y-134308794D01*
X178006045Y-134308794D02*
X178101283Y-134404032D01*
X178101283Y-134404032D02*
X178148902Y-134499270D01*
X178148902Y-134499270D02*
X178196521Y-134689746D01*
X178196521Y-134689746D02*
X178196521Y-134832603D01*
X178196521Y-134832603D02*
X178148902Y-135023079D01*
X178148902Y-135023079D02*
X178101283Y-135118317D01*
X178101283Y-135118317D02*
X178006045Y-135213556D01*
X178006045Y-135213556D02*
X177863188Y-135261175D01*
X177863188Y-135261175D02*
X177625093Y-135261175D01*
X179006045Y-135213556D02*
X178910807Y-135261175D01*
X178910807Y-135261175D02*
X178720331Y-135261175D01*
X178720331Y-135261175D02*
X178625093Y-135213556D01*
X178625093Y-135213556D02*
X178577474Y-135118317D01*
X178577474Y-135118317D02*
X178577474Y-134737365D01*
X178577474Y-134737365D02*
X178625093Y-134642127D01*
X178625093Y-134642127D02*
X178720331Y-134594508D01*
X178720331Y-134594508D02*
X178910807Y-134594508D01*
X178910807Y-134594508D02*
X179006045Y-134642127D01*
X179006045Y-134642127D02*
X179053664Y-134737365D01*
X179053664Y-134737365D02*
X179053664Y-134832603D01*
X179053664Y-134832603D02*
X178577474Y-134927841D01*
X179339379Y-134594508D02*
X179720331Y-134594508D01*
X179482236Y-135261175D02*
X179482236Y-134404032D01*
X179482236Y-134404032D02*
X179529855Y-134308794D01*
X179529855Y-134308794D02*
X179625093Y-134261175D01*
X179625093Y-134261175D02*
X179720331Y-134261175D01*
X180482236Y-135261175D02*
X180482236Y-134737365D01*
X180482236Y-134737365D02*
X180434617Y-134642127D01*
X180434617Y-134642127D02*
X180339379Y-134594508D01*
X180339379Y-134594508D02*
X180148903Y-134594508D01*
X180148903Y-134594508D02*
X180053665Y-134642127D01*
X180482236Y-135213556D02*
X180386998Y-135261175D01*
X180386998Y-135261175D02*
X180148903Y-135261175D01*
X180148903Y-135261175D02*
X180053665Y-135213556D01*
X180053665Y-135213556D02*
X180006046Y-135118317D01*
X180006046Y-135118317D02*
X180006046Y-135023079D01*
X180006046Y-135023079D02*
X180053665Y-134927841D01*
X180053665Y-134927841D02*
X180148903Y-134880222D01*
X180148903Y-134880222D02*
X180386998Y-134880222D01*
X180386998Y-134880222D02*
X180482236Y-134832603D01*
X181386998Y-134594508D02*
X181386998Y-135261175D01*
X180958427Y-134594508D02*
X180958427Y-135118317D01*
X180958427Y-135118317D02*
X181006046Y-135213556D01*
X181006046Y-135213556D02*
X181101284Y-135261175D01*
X181101284Y-135261175D02*
X181244141Y-135261175D01*
X181244141Y-135261175D02*
X181339379Y-135213556D01*
X181339379Y-135213556D02*
X181386998Y-135165936D01*
X182006046Y-135261175D02*
X181910808Y-135213556D01*
X181910808Y-135213556D02*
X181863189Y-135118317D01*
X181863189Y-135118317D02*
X181863189Y-134261175D01*
X182244142Y-134594508D02*
X182625094Y-134594508D01*
X182386999Y-134261175D02*
X182386999Y-135118317D01*
X182386999Y-135118317D02*
X182434618Y-135213556D01*
X182434618Y-135213556D02*
X182529856Y-135261175D01*
X182529856Y-135261175D02*
X182625094Y-135261175D01*
X183672714Y-135213556D02*
X183815571Y-135261175D01*
X183815571Y-135261175D02*
X184053666Y-135261175D01*
X184053666Y-135261175D02*
X184148904Y-135213556D01*
X184148904Y-135213556D02*
X184196523Y-135165936D01*
X184196523Y-135165936D02*
X184244142Y-135070698D01*
X184244142Y-135070698D02*
X184244142Y-134975460D01*
X184244142Y-134975460D02*
X184196523Y-134880222D01*
X184196523Y-134880222D02*
X184148904Y-134832603D01*
X184148904Y-134832603D02*
X184053666Y-134784984D01*
X184053666Y-134784984D02*
X183863190Y-134737365D01*
X183863190Y-134737365D02*
X183767952Y-134689746D01*
X183767952Y-134689746D02*
X183720333Y-134642127D01*
X183720333Y-134642127D02*
X183672714Y-134546889D01*
X183672714Y-134546889D02*
X183672714Y-134451651D01*
X183672714Y-134451651D02*
X183720333Y-134356413D01*
X183720333Y-134356413D02*
X183767952Y-134308794D01*
X183767952Y-134308794D02*
X183863190Y-134261175D01*
X183863190Y-134261175D02*
X184101285Y-134261175D01*
X184101285Y-134261175D02*
X184244142Y-134308794D01*
X185148904Y-135261175D02*
X184672714Y-135261175D01*
X184672714Y-135261175D02*
X184672714Y-134261175D01*
X185339381Y-134261175D02*
X185910809Y-134261175D01*
X185625095Y-135261175D02*
X185625095Y-134261175D01*
X186196524Y-135213556D02*
X186339381Y-135261175D01*
X186339381Y-135261175D02*
X186577476Y-135261175D01*
X186577476Y-135261175D02*
X186672714Y-135213556D01*
X186672714Y-135213556D02*
X186720333Y-135165936D01*
X186720333Y-135165936D02*
X186767952Y-135070698D01*
X186767952Y-135070698D02*
X186767952Y-134975460D01*
X186767952Y-134975460D02*
X186720333Y-134880222D01*
X186720333Y-134880222D02*
X186672714Y-134832603D01*
X186672714Y-134832603D02*
X186577476Y-134784984D01*
X186577476Y-134784984D02*
X186387000Y-134737365D01*
X186387000Y-134737365D02*
X186291762Y-134689746D01*
X186291762Y-134689746D02*
X186244143Y-134642127D01*
X186244143Y-134642127D02*
X186196524Y-134546889D01*
X186196524Y-134546889D02*
X186196524Y-134451651D01*
X186196524Y-134451651D02*
X186244143Y-134356413D01*
X186244143Y-134356413D02*
X186291762Y-134308794D01*
X186291762Y-134308794D02*
X186387000Y-134261175D01*
X186387000Y-134261175D02*
X186625095Y-134261175D01*
X186625095Y-134261175D02*
X186767952Y-134308794D01*
X187196524Y-134737365D02*
X187529857Y-134737365D01*
X187672714Y-135261175D02*
X187196524Y-135261175D01*
X187196524Y-135261175D02*
X187196524Y-134261175D01*
X187196524Y-134261175D02*
X187672714Y-134261175D01*
X188577476Y-135261175D02*
X188101286Y-135261175D01*
X188101286Y-135261175D02*
X188101286Y-134261175D01*
X173672712Y-135966357D02*
X173720331Y-135918738D01*
X173720331Y-135918738D02*
X173815569Y-135871119D01*
X173815569Y-135871119D02*
X174053664Y-135871119D01*
X174053664Y-135871119D02*
X174148902Y-135918738D01*
X174148902Y-135918738D02*
X174196521Y-135966357D01*
X174196521Y-135966357D02*
X174244140Y-136061595D01*
X174244140Y-136061595D02*
X174244140Y-136156833D01*
X174244140Y-136156833D02*
X174196521Y-136299690D01*
X174196521Y-136299690D02*
X173625093Y-136871119D01*
X173625093Y-136871119D02*
X174244140Y-136871119D01*
X174672712Y-136490166D02*
X175434617Y-136490166D01*
X175815569Y-135871119D02*
X176434616Y-135871119D01*
X176434616Y-135871119D02*
X176101283Y-136252071D01*
X176101283Y-136252071D02*
X176244140Y-136252071D01*
X176244140Y-136252071D02*
X176339378Y-136299690D01*
X176339378Y-136299690D02*
X176386997Y-136347309D01*
X176386997Y-136347309D02*
X176434616Y-136442547D01*
X176434616Y-136442547D02*
X176434616Y-136680642D01*
X176434616Y-136680642D02*
X176386997Y-136775880D01*
X176386997Y-136775880D02*
X176339378Y-136823500D01*
X176339378Y-136823500D02*
X176244140Y-136871119D01*
X176244140Y-136871119D02*
X175958426Y-136871119D01*
X175958426Y-136871119D02*
X175863188Y-136823500D01*
X175863188Y-136823500D02*
X175815569Y-136775880D01*
X178196521Y-136775880D02*
X178148902Y-136823500D01*
X178148902Y-136823500D02*
X178006045Y-136871119D01*
X178006045Y-136871119D02*
X177910807Y-136871119D01*
X177910807Y-136871119D02*
X177767950Y-136823500D01*
X177767950Y-136823500D02*
X177672712Y-136728261D01*
X177672712Y-136728261D02*
X177625093Y-136633023D01*
X177625093Y-136633023D02*
X177577474Y-136442547D01*
X177577474Y-136442547D02*
X177577474Y-136299690D01*
X177577474Y-136299690D02*
X177625093Y-136109214D01*
X177625093Y-136109214D02*
X177672712Y-136013976D01*
X177672712Y-136013976D02*
X177767950Y-135918738D01*
X177767950Y-135918738D02*
X177910807Y-135871119D01*
X177910807Y-135871119D02*
X178006045Y-135871119D01*
X178006045Y-135871119D02*
X178148902Y-135918738D01*
X178148902Y-135918738D02*
X178196521Y-135966357D01*
X179053664Y-136204452D02*
X179053664Y-136871119D01*
X178625093Y-136204452D02*
X178625093Y-136728261D01*
X178625093Y-136728261D02*
X178672712Y-136823500D01*
X178672712Y-136823500D02*
X178767950Y-136871119D01*
X178767950Y-136871119D02*
X178910807Y-136871119D01*
X178910807Y-136871119D02*
X179006045Y-136823500D01*
X179006045Y-136823500D02*
X179053664Y-136775880D01*
X179482236Y-136823500D02*
X179577474Y-136871119D01*
X179577474Y-136871119D02*
X179767950Y-136871119D01*
X179767950Y-136871119D02*
X179863188Y-136823500D01*
X179863188Y-136823500D02*
X179910807Y-136728261D01*
X179910807Y-136728261D02*
X179910807Y-136680642D01*
X179910807Y-136680642D02*
X179863188Y-136585404D01*
X179863188Y-136585404D02*
X179767950Y-136537785D01*
X179767950Y-136537785D02*
X179625093Y-136537785D01*
X179625093Y-136537785D02*
X179529855Y-136490166D01*
X179529855Y-136490166D02*
X179482236Y-136394928D01*
X179482236Y-136394928D02*
X179482236Y-136347309D01*
X179482236Y-136347309D02*
X179529855Y-136252071D01*
X179529855Y-136252071D02*
X179625093Y-136204452D01*
X179625093Y-136204452D02*
X179767950Y-136204452D01*
X179767950Y-136204452D02*
X179863188Y-136252071D01*
X180196522Y-136204452D02*
X180577474Y-136204452D01*
X180339379Y-135871119D02*
X180339379Y-136728261D01*
X180339379Y-136728261D02*
X180386998Y-136823500D01*
X180386998Y-136823500D02*
X180482236Y-136871119D01*
X180482236Y-136871119D02*
X180577474Y-136871119D01*
X181053665Y-136871119D02*
X180958427Y-136823500D01*
X180958427Y-136823500D02*
X180910808Y-136775880D01*
X180910808Y-136775880D02*
X180863189Y-136680642D01*
X180863189Y-136680642D02*
X180863189Y-136394928D01*
X180863189Y-136394928D02*
X180910808Y-136299690D01*
X180910808Y-136299690D02*
X180958427Y-136252071D01*
X180958427Y-136252071D02*
X181053665Y-136204452D01*
X181053665Y-136204452D02*
X181196522Y-136204452D01*
X181196522Y-136204452D02*
X181291760Y-136252071D01*
X181291760Y-136252071D02*
X181339379Y-136299690D01*
X181339379Y-136299690D02*
X181386998Y-136394928D01*
X181386998Y-136394928D02*
X181386998Y-136680642D01*
X181386998Y-136680642D02*
X181339379Y-136775880D01*
X181339379Y-136775880D02*
X181291760Y-136823500D01*
X181291760Y-136823500D02*
X181196522Y-136871119D01*
X181196522Y-136871119D02*
X181053665Y-136871119D01*
X181815570Y-136871119D02*
X181815570Y-136204452D01*
X181815570Y-136299690D02*
X181863189Y-136252071D01*
X181863189Y-136252071D02*
X181958427Y-136204452D01*
X181958427Y-136204452D02*
X182101284Y-136204452D01*
X182101284Y-136204452D02*
X182196522Y-136252071D01*
X182196522Y-136252071D02*
X182244141Y-136347309D01*
X182244141Y-136347309D02*
X182244141Y-136871119D01*
X182244141Y-136347309D02*
X182291760Y-136252071D01*
X182291760Y-136252071D02*
X182386998Y-136204452D01*
X182386998Y-136204452D02*
X182529855Y-136204452D01*
X182529855Y-136204452D02*
X182625094Y-136252071D01*
X182625094Y-136252071D02*
X182672713Y-136347309D01*
X182672713Y-136347309D02*
X182672713Y-136871119D01*
X183863189Y-136823500D02*
X184006046Y-136871119D01*
X184006046Y-136871119D02*
X184244141Y-136871119D01*
X184244141Y-136871119D02*
X184339379Y-136823500D01*
X184339379Y-136823500D02*
X184386998Y-136775880D01*
X184386998Y-136775880D02*
X184434617Y-136680642D01*
X184434617Y-136680642D02*
X184434617Y-136585404D01*
X184434617Y-136585404D02*
X184386998Y-136490166D01*
X184386998Y-136490166D02*
X184339379Y-136442547D01*
X184339379Y-136442547D02*
X184244141Y-136394928D01*
X184244141Y-136394928D02*
X184053665Y-136347309D01*
X184053665Y-136347309D02*
X183958427Y-136299690D01*
X183958427Y-136299690D02*
X183910808Y-136252071D01*
X183910808Y-136252071D02*
X183863189Y-136156833D01*
X183863189Y-136156833D02*
X183863189Y-136061595D01*
X183863189Y-136061595D02*
X183910808Y-135966357D01*
X183910808Y-135966357D02*
X183958427Y-135918738D01*
X183958427Y-135918738D02*
X184053665Y-135871119D01*
X184053665Y-135871119D02*
X184291760Y-135871119D01*
X184291760Y-135871119D02*
X184434617Y-135918738D01*
X185339379Y-136871119D02*
X184863189Y-136871119D01*
X184863189Y-136871119D02*
X184863189Y-135871119D01*
X185529856Y-135871119D02*
X186101284Y-135871119D01*
X185815570Y-136871119D02*
X185815570Y-135871119D01*
X186386999Y-136823500D02*
X186529856Y-136871119D01*
X186529856Y-136871119D02*
X186767951Y-136871119D01*
X186767951Y-136871119D02*
X186863189Y-136823500D01*
X186863189Y-136823500D02*
X186910808Y-136775880D01*
X186910808Y-136775880D02*
X186958427Y-136680642D01*
X186958427Y-136680642D02*
X186958427Y-136585404D01*
X186958427Y-136585404D02*
X186910808Y-136490166D01*
X186910808Y-136490166D02*
X186863189Y-136442547D01*
X186863189Y-136442547D02*
X186767951Y-136394928D01*
X186767951Y-136394928D02*
X186577475Y-136347309D01*
X186577475Y-136347309D02*
X186482237Y-136299690D01*
X186482237Y-136299690D02*
X186434618Y-136252071D01*
X186434618Y-136252071D02*
X186386999Y-136156833D01*
X186386999Y-136156833D02*
X186386999Y-136061595D01*
X186386999Y-136061595D02*
X186434618Y-135966357D01*
X186434618Y-135966357D02*
X186482237Y-135918738D01*
X186482237Y-135918738D02*
X186577475Y-135871119D01*
X186577475Y-135871119D02*
X186815570Y-135871119D01*
X186815570Y-135871119D02*
X186958427Y-135918738D01*
X187386999Y-136347309D02*
X187720332Y-136347309D01*
X187863189Y-136871119D02*
X187386999Y-136871119D01*
X187386999Y-136871119D02*
X187386999Y-135871119D01*
X187386999Y-135871119D02*
X187863189Y-135871119D01*
X188767951Y-136871119D02*
X188291761Y-136871119D01*
X188291761Y-136871119D02*
X188291761Y-135871119D01*
X190148904Y-137252071D02*
X190101285Y-137204452D01*
X190101285Y-137204452D02*
X190006047Y-137061595D01*
X190006047Y-137061595D02*
X189958428Y-136966357D01*
X189958428Y-136966357D02*
X189910809Y-136823500D01*
X189910809Y-136823500D02*
X189863190Y-136585404D01*
X189863190Y-136585404D02*
X189863190Y-136394928D01*
X189863190Y-136394928D02*
X189910809Y-136156833D01*
X189910809Y-136156833D02*
X189958428Y-136013976D01*
X189958428Y-136013976D02*
X190006047Y-135918738D01*
X190006047Y-135918738D02*
X190101285Y-135775880D01*
X190101285Y-135775880D02*
X190148904Y-135728261D01*
X190529857Y-136204452D02*
X190529857Y-137204452D01*
X190529857Y-136252071D02*
X190625095Y-136204452D01*
X190625095Y-136204452D02*
X190815571Y-136204452D01*
X190815571Y-136204452D02*
X190910809Y-136252071D01*
X190910809Y-136252071D02*
X190958428Y-136299690D01*
X190958428Y-136299690D02*
X191006047Y-136394928D01*
X191006047Y-136394928D02*
X191006047Y-136680642D01*
X191006047Y-136680642D02*
X190958428Y-136775880D01*
X190958428Y-136775880D02*
X190910809Y-136823500D01*
X190910809Y-136823500D02*
X190815571Y-136871119D01*
X190815571Y-136871119D02*
X190625095Y-136871119D01*
X190625095Y-136871119D02*
X190529857Y-136823500D01*
X191434619Y-136871119D02*
X191434619Y-136204452D01*
X191434619Y-135871119D02*
X191387000Y-135918738D01*
X191387000Y-135918738D02*
X191434619Y-135966357D01*
X191434619Y-135966357D02*
X191482238Y-135918738D01*
X191482238Y-135918738D02*
X191434619Y-135871119D01*
X191434619Y-135871119D02*
X191434619Y-135966357D01*
X191910809Y-136204452D02*
X191910809Y-136871119D01*
X191910809Y-136299690D02*
X191958428Y-136252071D01*
X191958428Y-136252071D02*
X192053666Y-136204452D01*
X192053666Y-136204452D02*
X192196523Y-136204452D01*
X192196523Y-136204452D02*
X192291761Y-136252071D01*
X192291761Y-136252071D02*
X192339380Y-136347309D01*
X192339380Y-136347309D02*
X192339380Y-136871119D01*
X194053666Y-135871119D02*
X193577476Y-135871119D01*
X193577476Y-135871119D02*
X193529857Y-136347309D01*
X193529857Y-136347309D02*
X193577476Y-136299690D01*
X193577476Y-136299690D02*
X193672714Y-136252071D01*
X193672714Y-136252071D02*
X193910809Y-136252071D01*
X193910809Y-136252071D02*
X194006047Y-136299690D01*
X194006047Y-136299690D02*
X194053666Y-136347309D01*
X194053666Y-136347309D02*
X194101285Y-136442547D01*
X194101285Y-136442547D02*
X194101285Y-136680642D01*
X194101285Y-136680642D02*
X194053666Y-136775880D01*
X194053666Y-136775880D02*
X194006047Y-136823500D01*
X194006047Y-136823500D02*
X193910809Y-136871119D01*
X193910809Y-136871119D02*
X193672714Y-136871119D01*
X193672714Y-136871119D02*
X193577476Y-136823500D01*
X193577476Y-136823500D02*
X193529857Y-136775880D01*
X194434619Y-137252071D02*
X194482238Y-137204452D01*
X194482238Y-137204452D02*
X194577476Y-137061595D01*
X194577476Y-137061595D02*
X194625095Y-136966357D01*
X194625095Y-136966357D02*
X194672714Y-136823500D01*
X194672714Y-136823500D02*
X194720333Y-136585404D01*
X194720333Y-136585404D02*
X194720333Y-136394928D01*
X194720333Y-136394928D02*
X194672714Y-136156833D01*
X194672714Y-136156833D02*
X194625095Y-136013976D01*
X194625095Y-136013976D02*
X194577476Y-135918738D01*
X194577476Y-135918738D02*
X194482238Y-135775880D01*
X194482238Y-135775880D02*
X194434619Y-135728261D01*
D13*
X168383333Y-83359580D02*
X168335714Y-83407200D01*
X168335714Y-83407200D02*
X168192857Y-83454819D01*
X168192857Y-83454819D02*
X168097619Y-83454819D01*
X168097619Y-83454819D02*
X167954762Y-83407200D01*
X167954762Y-83407200D02*
X167859524Y-83311961D01*
X167859524Y-83311961D02*
X167811905Y-83216723D01*
X167811905Y-83216723D02*
X167764286Y-83026247D01*
X167764286Y-83026247D02*
X167764286Y-82883390D01*
X167764286Y-82883390D02*
X167811905Y-82692914D01*
X167811905Y-82692914D02*
X167859524Y-82597676D01*
X167859524Y-82597676D02*
X167954762Y-82502438D01*
X167954762Y-82502438D02*
X168097619Y-82454819D01*
X168097619Y-82454819D02*
X168192857Y-82454819D01*
X168192857Y-82454819D02*
X168335714Y-82502438D01*
X168335714Y-82502438D02*
X168383333Y-82550057D01*
X169288095Y-82454819D02*
X168811905Y-82454819D01*
X168811905Y-82454819D02*
X168764286Y-82931009D01*
X168764286Y-82931009D02*
X168811905Y-82883390D01*
X168811905Y-82883390D02*
X168907143Y-82835771D01*
X168907143Y-82835771D02*
X169145238Y-82835771D01*
X169145238Y-82835771D02*
X169240476Y-82883390D01*
X169240476Y-82883390D02*
X169288095Y-82931009D01*
X169288095Y-82931009D02*
X169335714Y-83026247D01*
X169335714Y-83026247D02*
X169335714Y-83264342D01*
X169335714Y-83264342D02*
X169288095Y-83359580D01*
X169288095Y-83359580D02*
X169240476Y-83407200D01*
X169240476Y-83407200D02*
X169145238Y-83454819D01*
X169145238Y-83454819D02*
X168907143Y-83454819D01*
X168907143Y-83454819D02*
X168811905Y-83407200D01*
X168811905Y-83407200D02*
X168764286Y-83359580D01*
X238007319Y-115436904D02*
X238816842Y-115436904D01*
X238816842Y-115436904D02*
X238912080Y-115389285D01*
X238912080Y-115389285D02*
X238959700Y-115341666D01*
X238959700Y-115341666D02*
X239007319Y-115246428D01*
X239007319Y-115246428D02*
X239007319Y-115055952D01*
X239007319Y-115055952D02*
X238959700Y-114960714D01*
X238959700Y-114960714D02*
X238912080Y-114913095D01*
X238912080Y-114913095D02*
X238816842Y-114865476D01*
X238816842Y-114865476D02*
X238007319Y-114865476D01*
X238007319Y-114484523D02*
X238007319Y-113865476D01*
X238007319Y-113865476D02*
X238388271Y-114198809D01*
X238388271Y-114198809D02*
X238388271Y-114055952D01*
X238388271Y-114055952D02*
X238435890Y-113960714D01*
X238435890Y-113960714D02*
X238483509Y-113913095D01*
X238483509Y-113913095D02*
X238578747Y-113865476D01*
X238578747Y-113865476D02*
X238816842Y-113865476D01*
X238816842Y-113865476D02*
X238912080Y-113913095D01*
X238912080Y-113913095D02*
X238959700Y-113960714D01*
X238959700Y-113960714D02*
X239007319Y-114055952D01*
X239007319Y-114055952D02*
X239007319Y-114341666D01*
X239007319Y-114341666D02*
X238959700Y-114436904D01*
X238959700Y-114436904D02*
X238912080Y-114484523D01*
X230607143Y-114129819D02*
X231273809Y-114129819D01*
X231273809Y-114129819D02*
X230845238Y-115129819D01*
X232083333Y-114463152D02*
X232083333Y-115129819D01*
X231845238Y-114082200D02*
X231607143Y-114796485D01*
X231607143Y-114796485D02*
X232226190Y-114796485D01*
X233083333Y-115129819D02*
X232607143Y-115129819D01*
X232607143Y-115129819D02*
X232607143Y-114129819D01*
X233369048Y-115082200D02*
X233511905Y-115129819D01*
X233511905Y-115129819D02*
X233750000Y-115129819D01*
X233750000Y-115129819D02*
X233845238Y-115082200D01*
X233845238Y-115082200D02*
X233892857Y-115034580D01*
X233892857Y-115034580D02*
X233940476Y-114939342D01*
X233940476Y-114939342D02*
X233940476Y-114844104D01*
X233940476Y-114844104D02*
X233892857Y-114748866D01*
X233892857Y-114748866D02*
X233845238Y-114701247D01*
X233845238Y-114701247D02*
X233750000Y-114653628D01*
X233750000Y-114653628D02*
X233559524Y-114606009D01*
X233559524Y-114606009D02*
X233464286Y-114558390D01*
X233464286Y-114558390D02*
X233416667Y-114510771D01*
X233416667Y-114510771D02*
X233369048Y-114415533D01*
X233369048Y-114415533D02*
X233369048Y-114320295D01*
X233369048Y-114320295D02*
X233416667Y-114225057D01*
X233416667Y-114225057D02*
X233464286Y-114177438D01*
X233464286Y-114177438D02*
X233559524Y-114129819D01*
X233559524Y-114129819D02*
X233797619Y-114129819D01*
X233797619Y-114129819D02*
X233940476Y-114177438D01*
X234273810Y-114129819D02*
X234892857Y-114129819D01*
X234892857Y-114129819D02*
X234559524Y-114510771D01*
X234559524Y-114510771D02*
X234702381Y-114510771D01*
X234702381Y-114510771D02*
X234797619Y-114558390D01*
X234797619Y-114558390D02*
X234845238Y-114606009D01*
X234845238Y-114606009D02*
X234892857Y-114701247D01*
X234892857Y-114701247D02*
X234892857Y-114939342D01*
X234892857Y-114939342D02*
X234845238Y-115034580D01*
X234845238Y-115034580D02*
X234797619Y-115082200D01*
X234797619Y-115082200D02*
X234702381Y-115129819D01*
X234702381Y-115129819D02*
X234416667Y-115129819D01*
X234416667Y-115129819D02*
X234321429Y-115082200D01*
X234321429Y-115082200D02*
X234273810Y-115034580D01*
X235511905Y-114129819D02*
X235607143Y-114129819D01*
X235607143Y-114129819D02*
X235702381Y-114177438D01*
X235702381Y-114177438D02*
X235750000Y-114225057D01*
X235750000Y-114225057D02*
X235797619Y-114320295D01*
X235797619Y-114320295D02*
X235845238Y-114510771D01*
X235845238Y-114510771D02*
X235845238Y-114748866D01*
X235845238Y-114748866D02*
X235797619Y-114939342D01*
X235797619Y-114939342D02*
X235750000Y-115034580D01*
X235750000Y-115034580D02*
X235702381Y-115082200D01*
X235702381Y-115082200D02*
X235607143Y-115129819D01*
X235607143Y-115129819D02*
X235511905Y-115129819D01*
X235511905Y-115129819D02*
X235416667Y-115082200D01*
X235416667Y-115082200D02*
X235369048Y-115034580D01*
X235369048Y-115034580D02*
X235321429Y-114939342D01*
X235321429Y-114939342D02*
X235273810Y-114748866D01*
X235273810Y-114748866D02*
X235273810Y-114510771D01*
X235273810Y-114510771D02*
X235321429Y-114320295D01*
X235321429Y-114320295D02*
X235369048Y-114225057D01*
X235369048Y-114225057D02*
X235416667Y-114177438D01*
X235416667Y-114177438D02*
X235511905Y-114129819D01*
X232588095Y-80604819D02*
X232588095Y-81414342D01*
X232588095Y-81414342D02*
X232635714Y-81509580D01*
X232635714Y-81509580D02*
X232683333Y-81557200D01*
X232683333Y-81557200D02*
X232778571Y-81604819D01*
X232778571Y-81604819D02*
X232969047Y-81604819D01*
X232969047Y-81604819D02*
X233064285Y-81557200D01*
X233064285Y-81557200D02*
X233111904Y-81509580D01*
X233111904Y-81509580D02*
X233159523Y-81414342D01*
X233159523Y-81414342D02*
X233159523Y-80604819D01*
X233778571Y-81033390D02*
X233683333Y-80985771D01*
X233683333Y-80985771D02*
X233635714Y-80938152D01*
X233635714Y-80938152D02*
X233588095Y-80842914D01*
X233588095Y-80842914D02*
X233588095Y-80795295D01*
X233588095Y-80795295D02*
X233635714Y-80700057D01*
X233635714Y-80700057D02*
X233683333Y-80652438D01*
X233683333Y-80652438D02*
X233778571Y-80604819D01*
X233778571Y-80604819D02*
X233969047Y-80604819D01*
X233969047Y-80604819D02*
X234064285Y-80652438D01*
X234064285Y-80652438D02*
X234111904Y-80700057D01*
X234111904Y-80700057D02*
X234159523Y-80795295D01*
X234159523Y-80795295D02*
X234159523Y-80842914D01*
X234159523Y-80842914D02*
X234111904Y-80938152D01*
X234111904Y-80938152D02*
X234064285Y-80985771D01*
X234064285Y-80985771D02*
X233969047Y-81033390D01*
X233969047Y-81033390D02*
X233778571Y-81033390D01*
X233778571Y-81033390D02*
X233683333Y-81081009D01*
X233683333Y-81081009D02*
X233635714Y-81128628D01*
X233635714Y-81128628D02*
X233588095Y-81223866D01*
X233588095Y-81223866D02*
X233588095Y-81414342D01*
X233588095Y-81414342D02*
X233635714Y-81509580D01*
X233635714Y-81509580D02*
X233683333Y-81557200D01*
X233683333Y-81557200D02*
X233778571Y-81604819D01*
X233778571Y-81604819D02*
X233969047Y-81604819D01*
X233969047Y-81604819D02*
X234064285Y-81557200D01*
X234064285Y-81557200D02*
X234111904Y-81509580D01*
X234111904Y-81509580D02*
X234159523Y-81414342D01*
X234159523Y-81414342D02*
X234159523Y-81223866D01*
X234159523Y-81223866D02*
X234111904Y-81128628D01*
X234111904Y-81128628D02*
X234064285Y-81081009D01*
X234064285Y-81081009D02*
X233969047Y-81033390D01*
X233519104Y-99340475D02*
X233519104Y-98864285D01*
X233804819Y-99435713D02*
X232804819Y-99102380D01*
X232804819Y-99102380D02*
X233804819Y-98769047D01*
X233757200Y-98483332D02*
X233804819Y-98340475D01*
X233804819Y-98340475D02*
X233804819Y-98102380D01*
X233804819Y-98102380D02*
X233757200Y-98007142D01*
X233757200Y-98007142D02*
X233709580Y-97959523D01*
X233709580Y-97959523D02*
X233614342Y-97911904D01*
X233614342Y-97911904D02*
X233519104Y-97911904D01*
X233519104Y-97911904D02*
X233423866Y-97959523D01*
X233423866Y-97959523D02*
X233376247Y-98007142D01*
X233376247Y-98007142D02*
X233328628Y-98102380D01*
X233328628Y-98102380D02*
X233281009Y-98292856D01*
X233281009Y-98292856D02*
X233233390Y-98388094D01*
X233233390Y-98388094D02*
X233185771Y-98435713D01*
X233185771Y-98435713D02*
X233090533Y-98483332D01*
X233090533Y-98483332D02*
X232995295Y-98483332D01*
X232995295Y-98483332D02*
X232900057Y-98435713D01*
X232900057Y-98435713D02*
X232852438Y-98388094D01*
X232852438Y-98388094D02*
X232804819Y-98292856D01*
X232804819Y-98292856D02*
X232804819Y-98054761D01*
X232804819Y-98054761D02*
X232852438Y-97911904D01*
X232804819Y-97054761D02*
X232804819Y-97245237D01*
X232804819Y-97245237D02*
X232852438Y-97340475D01*
X232852438Y-97340475D02*
X232900057Y-97388094D01*
X232900057Y-97388094D02*
X233042914Y-97483332D01*
X233042914Y-97483332D02*
X233233390Y-97530951D01*
X233233390Y-97530951D02*
X233614342Y-97530951D01*
X233614342Y-97530951D02*
X233709580Y-97483332D01*
X233709580Y-97483332D02*
X233757200Y-97435713D01*
X233757200Y-97435713D02*
X233804819Y-97340475D01*
X233804819Y-97340475D02*
X233804819Y-97149999D01*
X233804819Y-97149999D02*
X233757200Y-97054761D01*
X233757200Y-97054761D02*
X233709580Y-97007142D01*
X233709580Y-97007142D02*
X233614342Y-96959523D01*
X233614342Y-96959523D02*
X233376247Y-96959523D01*
X233376247Y-96959523D02*
X233281009Y-97007142D01*
X233281009Y-97007142D02*
X233233390Y-97054761D01*
X233233390Y-97054761D02*
X233185771Y-97149999D01*
X233185771Y-97149999D02*
X233185771Y-97340475D01*
X233185771Y-97340475D02*
X233233390Y-97435713D01*
X233233390Y-97435713D02*
X233281009Y-97483332D01*
X233281009Y-97483332D02*
X233376247Y-97530951D01*
X233709580Y-95959523D02*
X233757200Y-96007142D01*
X233757200Y-96007142D02*
X233804819Y-96149999D01*
X233804819Y-96149999D02*
X233804819Y-96245237D01*
X233804819Y-96245237D02*
X233757200Y-96388094D01*
X233757200Y-96388094D02*
X233661961Y-96483332D01*
X233661961Y-96483332D02*
X233566723Y-96530951D01*
X233566723Y-96530951D02*
X233376247Y-96578570D01*
X233376247Y-96578570D02*
X233233390Y-96578570D01*
X233233390Y-96578570D02*
X233042914Y-96530951D01*
X233042914Y-96530951D02*
X232947676Y-96483332D01*
X232947676Y-96483332D02*
X232852438Y-96388094D01*
X232852438Y-96388094D02*
X232804819Y-96245237D01*
X232804819Y-96245237D02*
X232804819Y-96149999D01*
X232804819Y-96149999D02*
X232852438Y-96007142D01*
X232852438Y-96007142D02*
X232900057Y-95959523D01*
X233138152Y-95102380D02*
X233804819Y-95102380D01*
X232757200Y-95340475D02*
X233471485Y-95578570D01*
X233471485Y-95578570D02*
X233471485Y-94959523D01*
X232804819Y-94388094D02*
X232804819Y-94292856D01*
X232804819Y-94292856D02*
X232852438Y-94197618D01*
X232852438Y-94197618D02*
X232900057Y-94149999D01*
X232900057Y-94149999D02*
X232995295Y-94102380D01*
X232995295Y-94102380D02*
X233185771Y-94054761D01*
X233185771Y-94054761D02*
X233423866Y-94054761D01*
X233423866Y-94054761D02*
X233614342Y-94102380D01*
X233614342Y-94102380D02*
X233709580Y-94149999D01*
X233709580Y-94149999D02*
X233757200Y-94197618D01*
X233757200Y-94197618D02*
X233804819Y-94292856D01*
X233804819Y-94292856D02*
X233804819Y-94388094D01*
X233804819Y-94388094D02*
X233757200Y-94483332D01*
X233757200Y-94483332D02*
X233709580Y-94530951D01*
X233709580Y-94530951D02*
X233614342Y-94578570D01*
X233614342Y-94578570D02*
X233423866Y-94626189D01*
X233423866Y-94626189D02*
X233185771Y-94626189D01*
X233185771Y-94626189D02*
X232995295Y-94578570D01*
X232995295Y-94578570D02*
X232900057Y-94530951D01*
X232900057Y-94530951D02*
X232852438Y-94483332D01*
X232852438Y-94483332D02*
X232804819Y-94388094D01*
X232804819Y-93435713D02*
X232804819Y-93340475D01*
X232804819Y-93340475D02*
X232852438Y-93245237D01*
X232852438Y-93245237D02*
X232900057Y-93197618D01*
X232900057Y-93197618D02*
X232995295Y-93149999D01*
X232995295Y-93149999D02*
X233185771Y-93102380D01*
X233185771Y-93102380D02*
X233423866Y-93102380D01*
X233423866Y-93102380D02*
X233614342Y-93149999D01*
X233614342Y-93149999D02*
X233709580Y-93197618D01*
X233709580Y-93197618D02*
X233757200Y-93245237D01*
X233757200Y-93245237D02*
X233804819Y-93340475D01*
X233804819Y-93340475D02*
X233804819Y-93435713D01*
X233804819Y-93435713D02*
X233757200Y-93530951D01*
X233757200Y-93530951D02*
X233709580Y-93578570D01*
X233709580Y-93578570D02*
X233614342Y-93626189D01*
X233614342Y-93626189D02*
X233423866Y-93673808D01*
X233423866Y-93673808D02*
X233185771Y-93673808D01*
X233185771Y-93673808D02*
X232995295Y-93626189D01*
X232995295Y-93626189D02*
X232900057Y-93578570D01*
X232900057Y-93578570D02*
X232852438Y-93530951D01*
X232852438Y-93530951D02*
X232804819Y-93435713D01*
X233233390Y-92530951D02*
X233185771Y-92626189D01*
X233185771Y-92626189D02*
X233138152Y-92673808D01*
X233138152Y-92673808D02*
X233042914Y-92721427D01*
X233042914Y-92721427D02*
X232995295Y-92721427D01*
X232995295Y-92721427D02*
X232900057Y-92673808D01*
X232900057Y-92673808D02*
X232852438Y-92626189D01*
X232852438Y-92626189D02*
X232804819Y-92530951D01*
X232804819Y-92530951D02*
X232804819Y-92340475D01*
X232804819Y-92340475D02*
X232852438Y-92245237D01*
X232852438Y-92245237D02*
X232900057Y-92197618D01*
X232900057Y-92197618D02*
X232995295Y-92149999D01*
X232995295Y-92149999D02*
X233042914Y-92149999D01*
X233042914Y-92149999D02*
X233138152Y-92197618D01*
X233138152Y-92197618D02*
X233185771Y-92245237D01*
X233185771Y-92245237D02*
X233233390Y-92340475D01*
X233233390Y-92340475D02*
X233233390Y-92530951D01*
X233233390Y-92530951D02*
X233281009Y-92626189D01*
X233281009Y-92626189D02*
X233328628Y-92673808D01*
X233328628Y-92673808D02*
X233423866Y-92721427D01*
X233423866Y-92721427D02*
X233614342Y-92721427D01*
X233614342Y-92721427D02*
X233709580Y-92673808D01*
X233709580Y-92673808D02*
X233757200Y-92626189D01*
X233757200Y-92626189D02*
X233804819Y-92530951D01*
X233804819Y-92530951D02*
X233804819Y-92340475D01*
X233804819Y-92340475D02*
X233757200Y-92245237D01*
X233757200Y-92245237D02*
X233709580Y-92197618D01*
X233709580Y-92197618D02*
X233614342Y-92149999D01*
X233614342Y-92149999D02*
X233423866Y-92149999D01*
X233423866Y-92149999D02*
X233328628Y-92197618D01*
X233328628Y-92197618D02*
X233281009Y-92245237D01*
X233281009Y-92245237D02*
X233233390Y-92340475D01*
X233423866Y-91721427D02*
X233423866Y-90959523D01*
X232804819Y-90007142D02*
X232804819Y-90483332D01*
X232804819Y-90483332D02*
X233281009Y-90530951D01*
X233281009Y-90530951D02*
X233233390Y-90483332D01*
X233233390Y-90483332D02*
X233185771Y-90388094D01*
X233185771Y-90388094D02*
X233185771Y-90149999D01*
X233185771Y-90149999D02*
X233233390Y-90054761D01*
X233233390Y-90054761D02*
X233281009Y-90007142D01*
X233281009Y-90007142D02*
X233376247Y-89959523D01*
X233376247Y-89959523D02*
X233614342Y-89959523D01*
X233614342Y-89959523D02*
X233709580Y-90007142D01*
X233709580Y-90007142D02*
X233757200Y-90054761D01*
X233757200Y-90054761D02*
X233804819Y-90149999D01*
X233804819Y-90149999D02*
X233804819Y-90388094D01*
X233804819Y-90388094D02*
X233757200Y-90483332D01*
X233757200Y-90483332D02*
X233709580Y-90530951D01*
X232804819Y-89054761D02*
X232804819Y-89530951D01*
X232804819Y-89530951D02*
X233281009Y-89578570D01*
X233281009Y-89578570D02*
X233233390Y-89530951D01*
X233233390Y-89530951D02*
X233185771Y-89435713D01*
X233185771Y-89435713D02*
X233185771Y-89197618D01*
X233185771Y-89197618D02*
X233233390Y-89102380D01*
X233233390Y-89102380D02*
X233281009Y-89054761D01*
X233281009Y-89054761D02*
X233376247Y-89007142D01*
X233376247Y-89007142D02*
X233614342Y-89007142D01*
X233614342Y-89007142D02*
X233709580Y-89054761D01*
X233709580Y-89054761D02*
X233757200Y-89102380D01*
X233757200Y-89102380D02*
X233804819Y-89197618D01*
X233804819Y-89197618D02*
X233804819Y-89435713D01*
X233804819Y-89435713D02*
X233757200Y-89530951D01*
X233757200Y-89530951D02*
X233709580Y-89578570D01*
X233804819Y-88578570D02*
X232804819Y-88578570D01*
X232804819Y-88578570D02*
X232804819Y-88197618D01*
X232804819Y-88197618D02*
X232852438Y-88102380D01*
X232852438Y-88102380D02*
X232900057Y-88054761D01*
X232900057Y-88054761D02*
X232995295Y-88007142D01*
X232995295Y-88007142D02*
X233138152Y-88007142D01*
X233138152Y-88007142D02*
X233233390Y-88054761D01*
X233233390Y-88054761D02*
X233281009Y-88102380D01*
X233281009Y-88102380D02*
X233328628Y-88197618D01*
X233328628Y-88197618D02*
X233328628Y-88578570D01*
X233709580Y-87007142D02*
X233757200Y-87054761D01*
X233757200Y-87054761D02*
X233804819Y-87197618D01*
X233804819Y-87197618D02*
X233804819Y-87292856D01*
X233804819Y-87292856D02*
X233757200Y-87435713D01*
X233757200Y-87435713D02*
X233661961Y-87530951D01*
X233661961Y-87530951D02*
X233566723Y-87578570D01*
X233566723Y-87578570D02*
X233376247Y-87626189D01*
X233376247Y-87626189D02*
X233233390Y-87626189D01*
X233233390Y-87626189D02*
X233042914Y-87578570D01*
X233042914Y-87578570D02*
X232947676Y-87530951D01*
X232947676Y-87530951D02*
X232852438Y-87435713D01*
X232852438Y-87435713D02*
X232804819Y-87292856D01*
X232804819Y-87292856D02*
X232804819Y-87197618D01*
X232804819Y-87197618D02*
X232852438Y-87054761D01*
X232852438Y-87054761D02*
X232900057Y-87007142D01*
X233804819Y-86578570D02*
X232804819Y-86578570D01*
X232804819Y-86578570D02*
X233804819Y-86007142D01*
X233804819Y-86007142D02*
X232804819Y-86007142D01*
X185489819Y-122711904D02*
X186299342Y-122711904D01*
X186299342Y-122711904D02*
X186394580Y-122664285D01*
X186394580Y-122664285D02*
X186442200Y-122616666D01*
X186442200Y-122616666D02*
X186489819Y-122521428D01*
X186489819Y-122521428D02*
X186489819Y-122330952D01*
X186489819Y-122330952D02*
X186442200Y-122235714D01*
X186442200Y-122235714D02*
X186394580Y-122188095D01*
X186394580Y-122188095D02*
X186299342Y-122140476D01*
X186299342Y-122140476D02*
X185489819Y-122140476D01*
X185489819Y-121188095D02*
X185489819Y-121664285D01*
X185489819Y-121664285D02*
X185966009Y-121711904D01*
X185966009Y-121711904D02*
X185918390Y-121664285D01*
X185918390Y-121664285D02*
X185870771Y-121569047D01*
X185870771Y-121569047D02*
X185870771Y-121330952D01*
X185870771Y-121330952D02*
X185918390Y-121235714D01*
X185918390Y-121235714D02*
X185966009Y-121188095D01*
X185966009Y-121188095D02*
X186061247Y-121140476D01*
X186061247Y-121140476D02*
X186299342Y-121140476D01*
X186299342Y-121140476D02*
X186394580Y-121188095D01*
X186394580Y-121188095D02*
X186442200Y-121235714D01*
X186442200Y-121235714D02*
X186489819Y-121330952D01*
X186489819Y-121330952D02*
X186489819Y-121569047D01*
X186489819Y-121569047D02*
X186442200Y-121664285D01*
X186442200Y-121664285D02*
X186394580Y-121711904D01*
X175580952Y-121404819D02*
X176247618Y-121404819D01*
X176247618Y-121404819D02*
X175819047Y-122404819D01*
X177057142Y-121738152D02*
X177057142Y-122404819D01*
X176819047Y-121357200D02*
X176580952Y-122071485D01*
X176580952Y-122071485D02*
X177199999Y-122071485D01*
X178057142Y-122404819D02*
X177580952Y-122404819D01*
X177580952Y-122404819D02*
X177580952Y-121404819D01*
X178342857Y-122357200D02*
X178485714Y-122404819D01*
X178485714Y-122404819D02*
X178723809Y-122404819D01*
X178723809Y-122404819D02*
X178819047Y-122357200D01*
X178819047Y-122357200D02*
X178866666Y-122309580D01*
X178866666Y-122309580D02*
X178914285Y-122214342D01*
X178914285Y-122214342D02*
X178914285Y-122119104D01*
X178914285Y-122119104D02*
X178866666Y-122023866D01*
X178866666Y-122023866D02*
X178819047Y-121976247D01*
X178819047Y-121976247D02*
X178723809Y-121928628D01*
X178723809Y-121928628D02*
X178533333Y-121881009D01*
X178533333Y-121881009D02*
X178438095Y-121833390D01*
X178438095Y-121833390D02*
X178390476Y-121785771D01*
X178390476Y-121785771D02*
X178342857Y-121690533D01*
X178342857Y-121690533D02*
X178342857Y-121595295D01*
X178342857Y-121595295D02*
X178390476Y-121500057D01*
X178390476Y-121500057D02*
X178438095Y-121452438D01*
X178438095Y-121452438D02*
X178533333Y-121404819D01*
X178533333Y-121404819D02*
X178771428Y-121404819D01*
X178771428Y-121404819D02*
X178914285Y-121452438D01*
X179247619Y-121404819D02*
X179866666Y-121404819D01*
X179866666Y-121404819D02*
X179533333Y-121785771D01*
X179533333Y-121785771D02*
X179676190Y-121785771D01*
X179676190Y-121785771D02*
X179771428Y-121833390D01*
X179771428Y-121833390D02*
X179819047Y-121881009D01*
X179819047Y-121881009D02*
X179866666Y-121976247D01*
X179866666Y-121976247D02*
X179866666Y-122214342D01*
X179866666Y-122214342D02*
X179819047Y-122309580D01*
X179819047Y-122309580D02*
X179771428Y-122357200D01*
X179771428Y-122357200D02*
X179676190Y-122404819D01*
X179676190Y-122404819D02*
X179390476Y-122404819D01*
X179390476Y-122404819D02*
X179295238Y-122357200D01*
X179295238Y-122357200D02*
X179247619Y-122309580D01*
X180200000Y-121404819D02*
X180866666Y-121404819D01*
X180866666Y-121404819D02*
X180438095Y-122404819D01*
X181152381Y-121404819D02*
X181771428Y-121404819D01*
X181771428Y-121404819D02*
X181438095Y-121785771D01*
X181438095Y-121785771D02*
X181580952Y-121785771D01*
X181580952Y-121785771D02*
X181676190Y-121833390D01*
X181676190Y-121833390D02*
X181723809Y-121881009D01*
X181723809Y-121881009D02*
X181771428Y-121976247D01*
X181771428Y-121976247D02*
X181771428Y-122214342D01*
X181771428Y-122214342D02*
X181723809Y-122309580D01*
X181723809Y-122309580D02*
X181676190Y-122357200D01*
X181676190Y-122357200D02*
X181580952Y-122404819D01*
X181580952Y-122404819D02*
X181295238Y-122404819D01*
X181295238Y-122404819D02*
X181200000Y-122357200D01*
X181200000Y-122357200D02*
X181152381Y-122309580D01*
X202219819Y-115436904D02*
X203029342Y-115436904D01*
X203029342Y-115436904D02*
X203124580Y-115389285D01*
X203124580Y-115389285D02*
X203172200Y-115341666D01*
X203172200Y-115341666D02*
X203219819Y-115246428D01*
X203219819Y-115246428D02*
X203219819Y-115055952D01*
X203219819Y-115055952D02*
X203172200Y-114960714D01*
X203172200Y-114960714D02*
X203124580Y-114913095D01*
X203124580Y-114913095D02*
X203029342Y-114865476D01*
X203029342Y-114865476D02*
X202219819Y-114865476D01*
X202219819Y-114484523D02*
X202219819Y-113817857D01*
X202219819Y-113817857D02*
X203219819Y-114246428D01*
X193780952Y-114129819D02*
X194447618Y-114129819D01*
X194447618Y-114129819D02*
X194019047Y-115129819D01*
X195257142Y-114463152D02*
X195257142Y-115129819D01*
X195019047Y-114082200D02*
X194780952Y-114796485D01*
X194780952Y-114796485D02*
X195399999Y-114796485D01*
X196257142Y-115129819D02*
X195780952Y-115129819D01*
X195780952Y-115129819D02*
X195780952Y-114129819D01*
X196542857Y-115082200D02*
X196685714Y-115129819D01*
X196685714Y-115129819D02*
X196923809Y-115129819D01*
X196923809Y-115129819D02*
X197019047Y-115082200D01*
X197019047Y-115082200D02*
X197066666Y-115034580D01*
X197066666Y-115034580D02*
X197114285Y-114939342D01*
X197114285Y-114939342D02*
X197114285Y-114844104D01*
X197114285Y-114844104D02*
X197066666Y-114748866D01*
X197066666Y-114748866D02*
X197019047Y-114701247D01*
X197019047Y-114701247D02*
X196923809Y-114653628D01*
X196923809Y-114653628D02*
X196733333Y-114606009D01*
X196733333Y-114606009D02*
X196638095Y-114558390D01*
X196638095Y-114558390D02*
X196590476Y-114510771D01*
X196590476Y-114510771D02*
X196542857Y-114415533D01*
X196542857Y-114415533D02*
X196542857Y-114320295D01*
X196542857Y-114320295D02*
X196590476Y-114225057D01*
X196590476Y-114225057D02*
X196638095Y-114177438D01*
X196638095Y-114177438D02*
X196733333Y-114129819D01*
X196733333Y-114129819D02*
X196971428Y-114129819D01*
X196971428Y-114129819D02*
X197114285Y-114177438D01*
X198066666Y-115129819D02*
X197495238Y-115129819D01*
X197780952Y-115129819D02*
X197780952Y-114129819D01*
X197780952Y-114129819D02*
X197685714Y-114272676D01*
X197685714Y-114272676D02*
X197590476Y-114367914D01*
X197590476Y-114367914D02*
X197495238Y-114415533D01*
X198400000Y-114129819D02*
X199019047Y-114129819D01*
X199019047Y-114129819D02*
X198685714Y-114510771D01*
X198685714Y-114510771D02*
X198828571Y-114510771D01*
X198828571Y-114510771D02*
X198923809Y-114558390D01*
X198923809Y-114558390D02*
X198971428Y-114606009D01*
X198971428Y-114606009D02*
X199019047Y-114701247D01*
X199019047Y-114701247D02*
X199019047Y-114939342D01*
X199019047Y-114939342D02*
X198971428Y-115034580D01*
X198971428Y-115034580D02*
X198923809Y-115082200D01*
X198923809Y-115082200D02*
X198828571Y-115129819D01*
X198828571Y-115129819D02*
X198542857Y-115129819D01*
X198542857Y-115129819D02*
X198447619Y-115082200D01*
X198447619Y-115082200D02*
X198400000Y-115034580D01*
X199495238Y-115129819D02*
X199685714Y-115129819D01*
X199685714Y-115129819D02*
X199780952Y-115082200D01*
X199780952Y-115082200D02*
X199828571Y-115034580D01*
X199828571Y-115034580D02*
X199923809Y-114891723D01*
X199923809Y-114891723D02*
X199971428Y-114701247D01*
X199971428Y-114701247D02*
X199971428Y-114320295D01*
X199971428Y-114320295D02*
X199923809Y-114225057D01*
X199923809Y-114225057D02*
X199876190Y-114177438D01*
X199876190Y-114177438D02*
X199780952Y-114129819D01*
X199780952Y-114129819D02*
X199590476Y-114129819D01*
X199590476Y-114129819D02*
X199495238Y-114177438D01*
X199495238Y-114177438D02*
X199447619Y-114225057D01*
X199447619Y-114225057D02*
X199400000Y-114320295D01*
X199400000Y-114320295D02*
X199400000Y-114558390D01*
X199400000Y-114558390D02*
X199447619Y-114653628D01*
X199447619Y-114653628D02*
X199495238Y-114701247D01*
X199495238Y-114701247D02*
X199590476Y-114748866D01*
X199590476Y-114748866D02*
X199780952Y-114748866D01*
X199780952Y-114748866D02*
X199876190Y-114701247D01*
X199876190Y-114701247D02*
X199923809Y-114653628D01*
X199923809Y-114653628D02*
X199971428Y-114558390D01*
X220419819Y-115436904D02*
X221229342Y-115436904D01*
X221229342Y-115436904D02*
X221324580Y-115389285D01*
X221324580Y-115389285D02*
X221372200Y-115341666D01*
X221372200Y-115341666D02*
X221419819Y-115246428D01*
X221419819Y-115246428D02*
X221419819Y-115055952D01*
X221419819Y-115055952D02*
X221372200Y-114960714D01*
X221372200Y-114960714D02*
X221324580Y-114913095D01*
X221324580Y-114913095D02*
X221229342Y-114865476D01*
X221229342Y-114865476D02*
X220419819Y-114865476D01*
X220419819Y-113960714D02*
X220419819Y-114151190D01*
X220419819Y-114151190D02*
X220467438Y-114246428D01*
X220467438Y-114246428D02*
X220515057Y-114294047D01*
X220515057Y-114294047D02*
X220657914Y-114389285D01*
X220657914Y-114389285D02*
X220848390Y-114436904D01*
X220848390Y-114436904D02*
X221229342Y-114436904D01*
X221229342Y-114436904D02*
X221324580Y-114389285D01*
X221324580Y-114389285D02*
X221372200Y-114341666D01*
X221372200Y-114341666D02*
X221419819Y-114246428D01*
X221419819Y-114246428D02*
X221419819Y-114055952D01*
X221419819Y-114055952D02*
X221372200Y-113960714D01*
X221372200Y-113960714D02*
X221324580Y-113913095D01*
X221324580Y-113913095D02*
X221229342Y-113865476D01*
X221229342Y-113865476D02*
X220991247Y-113865476D01*
X220991247Y-113865476D02*
X220896009Y-113913095D01*
X220896009Y-113913095D02*
X220848390Y-113960714D01*
X220848390Y-113960714D02*
X220800771Y-114055952D01*
X220800771Y-114055952D02*
X220800771Y-114246428D01*
X220800771Y-114246428D02*
X220848390Y-114341666D01*
X220848390Y-114341666D02*
X220896009Y-114389285D01*
X220896009Y-114389285D02*
X220991247Y-114436904D01*
X212280952Y-114129819D02*
X212947618Y-114129819D01*
X212947618Y-114129819D02*
X212519047Y-115129819D01*
X213757142Y-114463152D02*
X213757142Y-115129819D01*
X213519047Y-114082200D02*
X213280952Y-114796485D01*
X213280952Y-114796485D02*
X213899999Y-114796485D01*
X214757142Y-115129819D02*
X214280952Y-115129819D01*
X214280952Y-115129819D02*
X214280952Y-114129819D01*
X215042857Y-115082200D02*
X215185714Y-115129819D01*
X215185714Y-115129819D02*
X215423809Y-115129819D01*
X215423809Y-115129819D02*
X215519047Y-115082200D01*
X215519047Y-115082200D02*
X215566666Y-115034580D01*
X215566666Y-115034580D02*
X215614285Y-114939342D01*
X215614285Y-114939342D02*
X215614285Y-114844104D01*
X215614285Y-114844104D02*
X215566666Y-114748866D01*
X215566666Y-114748866D02*
X215519047Y-114701247D01*
X215519047Y-114701247D02*
X215423809Y-114653628D01*
X215423809Y-114653628D02*
X215233333Y-114606009D01*
X215233333Y-114606009D02*
X215138095Y-114558390D01*
X215138095Y-114558390D02*
X215090476Y-114510771D01*
X215090476Y-114510771D02*
X215042857Y-114415533D01*
X215042857Y-114415533D02*
X215042857Y-114320295D01*
X215042857Y-114320295D02*
X215090476Y-114225057D01*
X215090476Y-114225057D02*
X215138095Y-114177438D01*
X215138095Y-114177438D02*
X215233333Y-114129819D01*
X215233333Y-114129819D02*
X215471428Y-114129819D01*
X215471428Y-114129819D02*
X215614285Y-114177438D01*
X216566666Y-115129819D02*
X215995238Y-115129819D01*
X216280952Y-115129819D02*
X216280952Y-114129819D01*
X216280952Y-114129819D02*
X216185714Y-114272676D01*
X216185714Y-114272676D02*
X216090476Y-114367914D01*
X216090476Y-114367914D02*
X215995238Y-114415533D01*
X216900000Y-114129819D02*
X217519047Y-114129819D01*
X217519047Y-114129819D02*
X217185714Y-114510771D01*
X217185714Y-114510771D02*
X217328571Y-114510771D01*
X217328571Y-114510771D02*
X217423809Y-114558390D01*
X217423809Y-114558390D02*
X217471428Y-114606009D01*
X217471428Y-114606009D02*
X217519047Y-114701247D01*
X217519047Y-114701247D02*
X217519047Y-114939342D01*
X217519047Y-114939342D02*
X217471428Y-115034580D01*
X217471428Y-115034580D02*
X217423809Y-115082200D01*
X217423809Y-115082200D02*
X217328571Y-115129819D01*
X217328571Y-115129819D02*
X217042857Y-115129819D01*
X217042857Y-115129819D02*
X216947619Y-115082200D01*
X216947619Y-115082200D02*
X216900000Y-115034580D01*
X217995238Y-115129819D02*
X218185714Y-115129819D01*
X218185714Y-115129819D02*
X218280952Y-115082200D01*
X218280952Y-115082200D02*
X218328571Y-115034580D01*
X218328571Y-115034580D02*
X218423809Y-114891723D01*
X218423809Y-114891723D02*
X218471428Y-114701247D01*
X218471428Y-114701247D02*
X218471428Y-114320295D01*
X218471428Y-114320295D02*
X218423809Y-114225057D01*
X218423809Y-114225057D02*
X218376190Y-114177438D01*
X218376190Y-114177438D02*
X218280952Y-114129819D01*
X218280952Y-114129819D02*
X218090476Y-114129819D01*
X218090476Y-114129819D02*
X217995238Y-114177438D01*
X217995238Y-114177438D02*
X217947619Y-114225057D01*
X217947619Y-114225057D02*
X217900000Y-114320295D01*
X217900000Y-114320295D02*
X217900000Y-114558390D01*
X217900000Y-114558390D02*
X217947619Y-114653628D01*
X217947619Y-114653628D02*
X217995238Y-114701247D01*
X217995238Y-114701247D02*
X218090476Y-114748866D01*
X218090476Y-114748866D02*
X218280952Y-114748866D01*
X218280952Y-114748866D02*
X218376190Y-114701247D01*
X218376190Y-114701247D02*
X218423809Y-114653628D01*
X218423809Y-114653628D02*
X218471428Y-114558390D01*
X238619819Y-130111904D02*
X239429342Y-130111904D01*
X239429342Y-130111904D02*
X239524580Y-130064285D01*
X239524580Y-130064285D02*
X239572200Y-130016666D01*
X239572200Y-130016666D02*
X239619819Y-129921428D01*
X239619819Y-129921428D02*
X239619819Y-129730952D01*
X239619819Y-129730952D02*
X239572200Y-129635714D01*
X239572200Y-129635714D02*
X239524580Y-129588095D01*
X239524580Y-129588095D02*
X239429342Y-129540476D01*
X239429342Y-129540476D02*
X238619819Y-129540476D01*
X238953152Y-128635714D02*
X239619819Y-128635714D01*
X238572200Y-128873809D02*
X239286485Y-129111904D01*
X239286485Y-129111904D02*
X239286485Y-128492857D01*
X230130952Y-128804819D02*
X230797618Y-128804819D01*
X230797618Y-128804819D02*
X230369047Y-129804819D01*
X231607142Y-129138152D02*
X231607142Y-129804819D01*
X231369047Y-128757200D02*
X231130952Y-129471485D01*
X231130952Y-129471485D02*
X231749999Y-129471485D01*
X232607142Y-129804819D02*
X232130952Y-129804819D01*
X232130952Y-129804819D02*
X232130952Y-128804819D01*
X232892857Y-129757200D02*
X233035714Y-129804819D01*
X233035714Y-129804819D02*
X233273809Y-129804819D01*
X233273809Y-129804819D02*
X233369047Y-129757200D01*
X233369047Y-129757200D02*
X233416666Y-129709580D01*
X233416666Y-129709580D02*
X233464285Y-129614342D01*
X233464285Y-129614342D02*
X233464285Y-129519104D01*
X233464285Y-129519104D02*
X233416666Y-129423866D01*
X233416666Y-129423866D02*
X233369047Y-129376247D01*
X233369047Y-129376247D02*
X233273809Y-129328628D01*
X233273809Y-129328628D02*
X233083333Y-129281009D01*
X233083333Y-129281009D02*
X232988095Y-129233390D01*
X232988095Y-129233390D02*
X232940476Y-129185771D01*
X232940476Y-129185771D02*
X232892857Y-129090533D01*
X232892857Y-129090533D02*
X232892857Y-128995295D01*
X232892857Y-128995295D02*
X232940476Y-128900057D01*
X232940476Y-128900057D02*
X232988095Y-128852438D01*
X232988095Y-128852438D02*
X233083333Y-128804819D01*
X233083333Y-128804819D02*
X233321428Y-128804819D01*
X233321428Y-128804819D02*
X233464285Y-128852438D01*
X233845238Y-128900057D02*
X233892857Y-128852438D01*
X233892857Y-128852438D02*
X233988095Y-128804819D01*
X233988095Y-128804819D02*
X234226190Y-128804819D01*
X234226190Y-128804819D02*
X234321428Y-128852438D01*
X234321428Y-128852438D02*
X234369047Y-128900057D01*
X234369047Y-128900057D02*
X234416666Y-128995295D01*
X234416666Y-128995295D02*
X234416666Y-129090533D01*
X234416666Y-129090533D02*
X234369047Y-129233390D01*
X234369047Y-129233390D02*
X233797619Y-129804819D01*
X233797619Y-129804819D02*
X234416666Y-129804819D01*
X235321428Y-128804819D02*
X234845238Y-128804819D01*
X234845238Y-128804819D02*
X234797619Y-129281009D01*
X234797619Y-129281009D02*
X234845238Y-129233390D01*
X234845238Y-129233390D02*
X234940476Y-129185771D01*
X234940476Y-129185771D02*
X235178571Y-129185771D01*
X235178571Y-129185771D02*
X235273809Y-129233390D01*
X235273809Y-129233390D02*
X235321428Y-129281009D01*
X235321428Y-129281009D02*
X235369047Y-129376247D01*
X235369047Y-129376247D02*
X235369047Y-129614342D01*
X235369047Y-129614342D02*
X235321428Y-129709580D01*
X235321428Y-129709580D02*
X235273809Y-129757200D01*
X235273809Y-129757200D02*
X235178571Y-129804819D01*
X235178571Y-129804819D02*
X234940476Y-129804819D01*
X234940476Y-129804819D02*
X234845238Y-129757200D01*
X234845238Y-129757200D02*
X234797619Y-129709580D01*
X235702381Y-128804819D02*
X236369047Y-128804819D01*
X236369047Y-128804819D02*
X235940476Y-129804819D01*
X220419819Y-130111904D02*
X221229342Y-130111904D01*
X221229342Y-130111904D02*
X221324580Y-130064285D01*
X221324580Y-130064285D02*
X221372200Y-130016666D01*
X221372200Y-130016666D02*
X221419819Y-129921428D01*
X221419819Y-129921428D02*
X221419819Y-129730952D01*
X221419819Y-129730952D02*
X221372200Y-129635714D01*
X221372200Y-129635714D02*
X221324580Y-129588095D01*
X221324580Y-129588095D02*
X221229342Y-129540476D01*
X221229342Y-129540476D02*
X220419819Y-129540476D01*
X221419819Y-128540476D02*
X221419819Y-129111904D01*
X221419819Y-128826190D02*
X220419819Y-128826190D01*
X220419819Y-128826190D02*
X220562676Y-128921428D01*
X220562676Y-128921428D02*
X220657914Y-129016666D01*
X220657914Y-129016666D02*
X220705533Y-129111904D01*
X212030952Y-128804819D02*
X212697618Y-128804819D01*
X212697618Y-128804819D02*
X212269047Y-129804819D01*
X213507142Y-129138152D02*
X213507142Y-129804819D01*
X213269047Y-128757200D02*
X213030952Y-129471485D01*
X213030952Y-129471485D02*
X213649999Y-129471485D01*
X214507142Y-129804819D02*
X214030952Y-129804819D01*
X214030952Y-129804819D02*
X214030952Y-128804819D01*
X214792857Y-129757200D02*
X214935714Y-129804819D01*
X214935714Y-129804819D02*
X215173809Y-129804819D01*
X215173809Y-129804819D02*
X215269047Y-129757200D01*
X215269047Y-129757200D02*
X215316666Y-129709580D01*
X215316666Y-129709580D02*
X215364285Y-129614342D01*
X215364285Y-129614342D02*
X215364285Y-129519104D01*
X215364285Y-129519104D02*
X215316666Y-129423866D01*
X215316666Y-129423866D02*
X215269047Y-129376247D01*
X215269047Y-129376247D02*
X215173809Y-129328628D01*
X215173809Y-129328628D02*
X214983333Y-129281009D01*
X214983333Y-129281009D02*
X214888095Y-129233390D01*
X214888095Y-129233390D02*
X214840476Y-129185771D01*
X214840476Y-129185771D02*
X214792857Y-129090533D01*
X214792857Y-129090533D02*
X214792857Y-128995295D01*
X214792857Y-128995295D02*
X214840476Y-128900057D01*
X214840476Y-128900057D02*
X214888095Y-128852438D01*
X214888095Y-128852438D02*
X214983333Y-128804819D01*
X214983333Y-128804819D02*
X215221428Y-128804819D01*
X215221428Y-128804819D02*
X215364285Y-128852438D01*
X216221428Y-128804819D02*
X216030952Y-128804819D01*
X216030952Y-128804819D02*
X215935714Y-128852438D01*
X215935714Y-128852438D02*
X215888095Y-128900057D01*
X215888095Y-128900057D02*
X215792857Y-129042914D01*
X215792857Y-129042914D02*
X215745238Y-129233390D01*
X215745238Y-129233390D02*
X215745238Y-129614342D01*
X215745238Y-129614342D02*
X215792857Y-129709580D01*
X215792857Y-129709580D02*
X215840476Y-129757200D01*
X215840476Y-129757200D02*
X215935714Y-129804819D01*
X215935714Y-129804819D02*
X216126190Y-129804819D01*
X216126190Y-129804819D02*
X216221428Y-129757200D01*
X216221428Y-129757200D02*
X216269047Y-129709580D01*
X216269047Y-129709580D02*
X216316666Y-129614342D01*
X216316666Y-129614342D02*
X216316666Y-129376247D01*
X216316666Y-129376247D02*
X216269047Y-129281009D01*
X216269047Y-129281009D02*
X216221428Y-129233390D01*
X216221428Y-129233390D02*
X216126190Y-129185771D01*
X216126190Y-129185771D02*
X215935714Y-129185771D01*
X215935714Y-129185771D02*
X215840476Y-129233390D01*
X215840476Y-129233390D02*
X215792857Y-129281009D01*
X215792857Y-129281009D02*
X215745238Y-129376247D01*
X216650000Y-128804819D02*
X217316666Y-128804819D01*
X217316666Y-128804819D02*
X216888095Y-129804819D01*
X217888095Y-128804819D02*
X217983333Y-128804819D01*
X217983333Y-128804819D02*
X218078571Y-128852438D01*
X218078571Y-128852438D02*
X218126190Y-128900057D01*
X218126190Y-128900057D02*
X218173809Y-128995295D01*
X218173809Y-128995295D02*
X218221428Y-129185771D01*
X218221428Y-129185771D02*
X218221428Y-129423866D01*
X218221428Y-129423866D02*
X218173809Y-129614342D01*
X218173809Y-129614342D02*
X218126190Y-129709580D01*
X218126190Y-129709580D02*
X218078571Y-129757200D01*
X218078571Y-129757200D02*
X217983333Y-129804819D01*
X217983333Y-129804819D02*
X217888095Y-129804819D01*
X217888095Y-129804819D02*
X217792857Y-129757200D01*
X217792857Y-129757200D02*
X217745238Y-129709580D01*
X217745238Y-129709580D02*
X217697619Y-129614342D01*
X217697619Y-129614342D02*
X217650000Y-129423866D01*
X217650000Y-129423866D02*
X217650000Y-129185771D01*
X217650000Y-129185771D02*
X217697619Y-128995295D01*
X217697619Y-128995295D02*
X217745238Y-128900057D01*
X217745238Y-128900057D02*
X217792857Y-128852438D01*
X217792857Y-128852438D02*
X217888095Y-128804819D01*
X202219819Y-130111903D02*
X203029342Y-130111903D01*
X203029342Y-130111903D02*
X203124580Y-130064284D01*
X203124580Y-130064284D02*
X203172200Y-130016665D01*
X203172200Y-130016665D02*
X203219819Y-129921427D01*
X203219819Y-129921427D02*
X203219819Y-129730951D01*
X203219819Y-129730951D02*
X203172200Y-129635713D01*
X203172200Y-129635713D02*
X203124580Y-129588094D01*
X203124580Y-129588094D02*
X203029342Y-129540475D01*
X203029342Y-129540475D02*
X202219819Y-129540475D01*
X202315057Y-129111903D02*
X202267438Y-129064284D01*
X202267438Y-129064284D02*
X202219819Y-128969046D01*
X202219819Y-128969046D02*
X202219819Y-128730951D01*
X202219819Y-128730951D02*
X202267438Y-128635713D01*
X202267438Y-128635713D02*
X202315057Y-128588094D01*
X202315057Y-128588094D02*
X202410295Y-128540475D01*
X202410295Y-128540475D02*
X202505533Y-128540475D01*
X202505533Y-128540475D02*
X202648390Y-128588094D01*
X202648390Y-128588094D02*
X203219819Y-129159522D01*
X203219819Y-129159522D02*
X203219819Y-128540475D01*
X193730952Y-128804818D02*
X194397618Y-128804818D01*
X194397618Y-128804818D02*
X193969047Y-129804818D01*
X195207142Y-129138151D02*
X195207142Y-129804818D01*
X194969047Y-128757199D02*
X194730952Y-129471484D01*
X194730952Y-129471484D02*
X195349999Y-129471484D01*
X196207142Y-129804818D02*
X195730952Y-129804818D01*
X195730952Y-129804818D02*
X195730952Y-128804818D01*
X196492857Y-129757199D02*
X196635714Y-129804818D01*
X196635714Y-129804818D02*
X196873809Y-129804818D01*
X196873809Y-129804818D02*
X196969047Y-129757199D01*
X196969047Y-129757199D02*
X197016666Y-129709579D01*
X197016666Y-129709579D02*
X197064285Y-129614341D01*
X197064285Y-129614341D02*
X197064285Y-129519103D01*
X197064285Y-129519103D02*
X197016666Y-129423865D01*
X197016666Y-129423865D02*
X196969047Y-129376246D01*
X196969047Y-129376246D02*
X196873809Y-129328627D01*
X196873809Y-129328627D02*
X196683333Y-129281008D01*
X196683333Y-129281008D02*
X196588095Y-129233389D01*
X196588095Y-129233389D02*
X196540476Y-129185770D01*
X196540476Y-129185770D02*
X196492857Y-129090532D01*
X196492857Y-129090532D02*
X196492857Y-128995294D01*
X196492857Y-128995294D02*
X196540476Y-128900056D01*
X196540476Y-128900056D02*
X196588095Y-128852437D01*
X196588095Y-128852437D02*
X196683333Y-128804818D01*
X196683333Y-128804818D02*
X196921428Y-128804818D01*
X196921428Y-128804818D02*
X197064285Y-128852437D01*
X197921428Y-128804818D02*
X197730952Y-128804818D01*
X197730952Y-128804818D02*
X197635714Y-128852437D01*
X197635714Y-128852437D02*
X197588095Y-128900056D01*
X197588095Y-128900056D02*
X197492857Y-129042913D01*
X197492857Y-129042913D02*
X197445238Y-129233389D01*
X197445238Y-129233389D02*
X197445238Y-129614341D01*
X197445238Y-129614341D02*
X197492857Y-129709579D01*
X197492857Y-129709579D02*
X197540476Y-129757199D01*
X197540476Y-129757199D02*
X197635714Y-129804818D01*
X197635714Y-129804818D02*
X197826190Y-129804818D01*
X197826190Y-129804818D02*
X197921428Y-129757199D01*
X197921428Y-129757199D02*
X197969047Y-129709579D01*
X197969047Y-129709579D02*
X198016666Y-129614341D01*
X198016666Y-129614341D02*
X198016666Y-129376246D01*
X198016666Y-129376246D02*
X197969047Y-129281008D01*
X197969047Y-129281008D02*
X197921428Y-129233389D01*
X197921428Y-129233389D02*
X197826190Y-129185770D01*
X197826190Y-129185770D02*
X197635714Y-129185770D01*
X197635714Y-129185770D02*
X197540476Y-129233389D01*
X197540476Y-129233389D02*
X197492857Y-129281008D01*
X197492857Y-129281008D02*
X197445238Y-129376246D01*
X198350000Y-128804818D02*
X199016666Y-128804818D01*
X199016666Y-128804818D02*
X198588095Y-129804818D01*
X199588095Y-128804818D02*
X199683333Y-128804818D01*
X199683333Y-128804818D02*
X199778571Y-128852437D01*
X199778571Y-128852437D02*
X199826190Y-128900056D01*
X199826190Y-128900056D02*
X199873809Y-128995294D01*
X199873809Y-128995294D02*
X199921428Y-129185770D01*
X199921428Y-129185770D02*
X199921428Y-129423865D01*
X199921428Y-129423865D02*
X199873809Y-129614341D01*
X199873809Y-129614341D02*
X199826190Y-129709579D01*
X199826190Y-129709579D02*
X199778571Y-129757199D01*
X199778571Y-129757199D02*
X199683333Y-129804818D01*
X199683333Y-129804818D02*
X199588095Y-129804818D01*
X199588095Y-129804818D02*
X199492857Y-129757199D01*
X199492857Y-129757199D02*
X199445238Y-129709579D01*
X199445238Y-129709579D02*
X199397619Y-129614341D01*
X199397619Y-129614341D02*
X199350000Y-129423865D01*
X199350000Y-129423865D02*
X199350000Y-129185770D01*
X199350000Y-129185770D02*
X199397619Y-128995294D01*
X199397619Y-128995294D02*
X199445238Y-128900056D01*
X199445238Y-128900056D02*
X199492857Y-128852437D01*
X199492857Y-128852437D02*
X199588095Y-128804818D01*
X214388095Y-80604819D02*
X214388095Y-81414342D01*
X214388095Y-81414342D02*
X214435714Y-81509580D01*
X214435714Y-81509580D02*
X214483333Y-81557200D01*
X214483333Y-81557200D02*
X214578571Y-81604819D01*
X214578571Y-81604819D02*
X214769047Y-81604819D01*
X214769047Y-81604819D02*
X214864285Y-81557200D01*
X214864285Y-81557200D02*
X214911904Y-81509580D01*
X214911904Y-81509580D02*
X214959523Y-81414342D01*
X214959523Y-81414342D02*
X214959523Y-80604819D01*
X215483333Y-81604819D02*
X215673809Y-81604819D01*
X215673809Y-81604819D02*
X215769047Y-81557200D01*
X215769047Y-81557200D02*
X215816666Y-81509580D01*
X215816666Y-81509580D02*
X215911904Y-81366723D01*
X215911904Y-81366723D02*
X215959523Y-81176247D01*
X215959523Y-81176247D02*
X215959523Y-80795295D01*
X215959523Y-80795295D02*
X215911904Y-80700057D01*
X215911904Y-80700057D02*
X215864285Y-80652438D01*
X215864285Y-80652438D02*
X215769047Y-80604819D01*
X215769047Y-80604819D02*
X215578571Y-80604819D01*
X215578571Y-80604819D02*
X215483333Y-80652438D01*
X215483333Y-80652438D02*
X215435714Y-80700057D01*
X215435714Y-80700057D02*
X215388095Y-80795295D01*
X215388095Y-80795295D02*
X215388095Y-81033390D01*
X215388095Y-81033390D02*
X215435714Y-81128628D01*
X215435714Y-81128628D02*
X215483333Y-81176247D01*
X215483333Y-81176247D02*
X215578571Y-81223866D01*
X215578571Y-81223866D02*
X215769047Y-81223866D01*
X215769047Y-81223866D02*
X215864285Y-81176247D01*
X215864285Y-81176247D02*
X215911904Y-81128628D01*
X215911904Y-81128628D02*
X215959523Y-81033390D01*
X215319104Y-99340475D02*
X215319104Y-98864285D01*
X215604819Y-99435713D02*
X214604819Y-99102380D01*
X214604819Y-99102380D02*
X215604819Y-98769047D01*
X215557200Y-98483332D02*
X215604819Y-98340475D01*
X215604819Y-98340475D02*
X215604819Y-98102380D01*
X215604819Y-98102380D02*
X215557200Y-98007142D01*
X215557200Y-98007142D02*
X215509580Y-97959523D01*
X215509580Y-97959523D02*
X215414342Y-97911904D01*
X215414342Y-97911904D02*
X215319104Y-97911904D01*
X215319104Y-97911904D02*
X215223866Y-97959523D01*
X215223866Y-97959523D02*
X215176247Y-98007142D01*
X215176247Y-98007142D02*
X215128628Y-98102380D01*
X215128628Y-98102380D02*
X215081009Y-98292856D01*
X215081009Y-98292856D02*
X215033390Y-98388094D01*
X215033390Y-98388094D02*
X214985771Y-98435713D01*
X214985771Y-98435713D02*
X214890533Y-98483332D01*
X214890533Y-98483332D02*
X214795295Y-98483332D01*
X214795295Y-98483332D02*
X214700057Y-98435713D01*
X214700057Y-98435713D02*
X214652438Y-98388094D01*
X214652438Y-98388094D02*
X214604819Y-98292856D01*
X214604819Y-98292856D02*
X214604819Y-98054761D01*
X214604819Y-98054761D02*
X214652438Y-97911904D01*
X214604819Y-97054761D02*
X214604819Y-97245237D01*
X214604819Y-97245237D02*
X214652438Y-97340475D01*
X214652438Y-97340475D02*
X214700057Y-97388094D01*
X214700057Y-97388094D02*
X214842914Y-97483332D01*
X214842914Y-97483332D02*
X215033390Y-97530951D01*
X215033390Y-97530951D02*
X215414342Y-97530951D01*
X215414342Y-97530951D02*
X215509580Y-97483332D01*
X215509580Y-97483332D02*
X215557200Y-97435713D01*
X215557200Y-97435713D02*
X215604819Y-97340475D01*
X215604819Y-97340475D02*
X215604819Y-97149999D01*
X215604819Y-97149999D02*
X215557200Y-97054761D01*
X215557200Y-97054761D02*
X215509580Y-97007142D01*
X215509580Y-97007142D02*
X215414342Y-96959523D01*
X215414342Y-96959523D02*
X215176247Y-96959523D01*
X215176247Y-96959523D02*
X215081009Y-97007142D01*
X215081009Y-97007142D02*
X215033390Y-97054761D01*
X215033390Y-97054761D02*
X214985771Y-97149999D01*
X214985771Y-97149999D02*
X214985771Y-97340475D01*
X214985771Y-97340475D02*
X215033390Y-97435713D01*
X215033390Y-97435713D02*
X215081009Y-97483332D01*
X215081009Y-97483332D02*
X215176247Y-97530951D01*
X215509580Y-95959523D02*
X215557200Y-96007142D01*
X215557200Y-96007142D02*
X215604819Y-96149999D01*
X215604819Y-96149999D02*
X215604819Y-96245237D01*
X215604819Y-96245237D02*
X215557200Y-96388094D01*
X215557200Y-96388094D02*
X215461961Y-96483332D01*
X215461961Y-96483332D02*
X215366723Y-96530951D01*
X215366723Y-96530951D02*
X215176247Y-96578570D01*
X215176247Y-96578570D02*
X215033390Y-96578570D01*
X215033390Y-96578570D02*
X214842914Y-96530951D01*
X214842914Y-96530951D02*
X214747676Y-96483332D01*
X214747676Y-96483332D02*
X214652438Y-96388094D01*
X214652438Y-96388094D02*
X214604819Y-96245237D01*
X214604819Y-96245237D02*
X214604819Y-96149999D01*
X214604819Y-96149999D02*
X214652438Y-96007142D01*
X214652438Y-96007142D02*
X214700057Y-95959523D01*
X214938152Y-95102380D02*
X215604819Y-95102380D01*
X214557200Y-95340475D02*
X215271485Y-95578570D01*
X215271485Y-95578570D02*
X215271485Y-94959523D01*
X214604819Y-94388094D02*
X214604819Y-94292856D01*
X214604819Y-94292856D02*
X214652438Y-94197618D01*
X214652438Y-94197618D02*
X214700057Y-94149999D01*
X214700057Y-94149999D02*
X214795295Y-94102380D01*
X214795295Y-94102380D02*
X214985771Y-94054761D01*
X214985771Y-94054761D02*
X215223866Y-94054761D01*
X215223866Y-94054761D02*
X215414342Y-94102380D01*
X215414342Y-94102380D02*
X215509580Y-94149999D01*
X215509580Y-94149999D02*
X215557200Y-94197618D01*
X215557200Y-94197618D02*
X215604819Y-94292856D01*
X215604819Y-94292856D02*
X215604819Y-94388094D01*
X215604819Y-94388094D02*
X215557200Y-94483332D01*
X215557200Y-94483332D02*
X215509580Y-94530951D01*
X215509580Y-94530951D02*
X215414342Y-94578570D01*
X215414342Y-94578570D02*
X215223866Y-94626189D01*
X215223866Y-94626189D02*
X214985771Y-94626189D01*
X214985771Y-94626189D02*
X214795295Y-94578570D01*
X214795295Y-94578570D02*
X214700057Y-94530951D01*
X214700057Y-94530951D02*
X214652438Y-94483332D01*
X214652438Y-94483332D02*
X214604819Y-94388094D01*
X214604819Y-93435713D02*
X214604819Y-93340475D01*
X214604819Y-93340475D02*
X214652438Y-93245237D01*
X214652438Y-93245237D02*
X214700057Y-93197618D01*
X214700057Y-93197618D02*
X214795295Y-93149999D01*
X214795295Y-93149999D02*
X214985771Y-93102380D01*
X214985771Y-93102380D02*
X215223866Y-93102380D01*
X215223866Y-93102380D02*
X215414342Y-93149999D01*
X215414342Y-93149999D02*
X215509580Y-93197618D01*
X215509580Y-93197618D02*
X215557200Y-93245237D01*
X215557200Y-93245237D02*
X215604819Y-93340475D01*
X215604819Y-93340475D02*
X215604819Y-93435713D01*
X215604819Y-93435713D02*
X215557200Y-93530951D01*
X215557200Y-93530951D02*
X215509580Y-93578570D01*
X215509580Y-93578570D02*
X215414342Y-93626189D01*
X215414342Y-93626189D02*
X215223866Y-93673808D01*
X215223866Y-93673808D02*
X214985771Y-93673808D01*
X214985771Y-93673808D02*
X214795295Y-93626189D01*
X214795295Y-93626189D02*
X214700057Y-93578570D01*
X214700057Y-93578570D02*
X214652438Y-93530951D01*
X214652438Y-93530951D02*
X214604819Y-93435713D01*
X215033390Y-92530951D02*
X214985771Y-92626189D01*
X214985771Y-92626189D02*
X214938152Y-92673808D01*
X214938152Y-92673808D02*
X214842914Y-92721427D01*
X214842914Y-92721427D02*
X214795295Y-92721427D01*
X214795295Y-92721427D02*
X214700057Y-92673808D01*
X214700057Y-92673808D02*
X214652438Y-92626189D01*
X214652438Y-92626189D02*
X214604819Y-92530951D01*
X214604819Y-92530951D02*
X214604819Y-92340475D01*
X214604819Y-92340475D02*
X214652438Y-92245237D01*
X214652438Y-92245237D02*
X214700057Y-92197618D01*
X214700057Y-92197618D02*
X214795295Y-92149999D01*
X214795295Y-92149999D02*
X214842914Y-92149999D01*
X214842914Y-92149999D02*
X214938152Y-92197618D01*
X214938152Y-92197618D02*
X214985771Y-92245237D01*
X214985771Y-92245237D02*
X215033390Y-92340475D01*
X215033390Y-92340475D02*
X215033390Y-92530951D01*
X215033390Y-92530951D02*
X215081009Y-92626189D01*
X215081009Y-92626189D02*
X215128628Y-92673808D01*
X215128628Y-92673808D02*
X215223866Y-92721427D01*
X215223866Y-92721427D02*
X215414342Y-92721427D01*
X215414342Y-92721427D02*
X215509580Y-92673808D01*
X215509580Y-92673808D02*
X215557200Y-92626189D01*
X215557200Y-92626189D02*
X215604819Y-92530951D01*
X215604819Y-92530951D02*
X215604819Y-92340475D01*
X215604819Y-92340475D02*
X215557200Y-92245237D01*
X215557200Y-92245237D02*
X215509580Y-92197618D01*
X215509580Y-92197618D02*
X215414342Y-92149999D01*
X215414342Y-92149999D02*
X215223866Y-92149999D01*
X215223866Y-92149999D02*
X215128628Y-92197618D01*
X215128628Y-92197618D02*
X215081009Y-92245237D01*
X215081009Y-92245237D02*
X215033390Y-92340475D01*
X215223866Y-91721427D02*
X215223866Y-90959523D01*
X214604819Y-90007142D02*
X214604819Y-90483332D01*
X214604819Y-90483332D02*
X215081009Y-90530951D01*
X215081009Y-90530951D02*
X215033390Y-90483332D01*
X215033390Y-90483332D02*
X214985771Y-90388094D01*
X214985771Y-90388094D02*
X214985771Y-90149999D01*
X214985771Y-90149999D02*
X215033390Y-90054761D01*
X215033390Y-90054761D02*
X215081009Y-90007142D01*
X215081009Y-90007142D02*
X215176247Y-89959523D01*
X215176247Y-89959523D02*
X215414342Y-89959523D01*
X215414342Y-89959523D02*
X215509580Y-90007142D01*
X215509580Y-90007142D02*
X215557200Y-90054761D01*
X215557200Y-90054761D02*
X215604819Y-90149999D01*
X215604819Y-90149999D02*
X215604819Y-90388094D01*
X215604819Y-90388094D02*
X215557200Y-90483332D01*
X215557200Y-90483332D02*
X215509580Y-90530951D01*
X214604819Y-89054761D02*
X214604819Y-89530951D01*
X214604819Y-89530951D02*
X215081009Y-89578570D01*
X215081009Y-89578570D02*
X215033390Y-89530951D01*
X215033390Y-89530951D02*
X214985771Y-89435713D01*
X214985771Y-89435713D02*
X214985771Y-89197618D01*
X214985771Y-89197618D02*
X215033390Y-89102380D01*
X215033390Y-89102380D02*
X215081009Y-89054761D01*
X215081009Y-89054761D02*
X215176247Y-89007142D01*
X215176247Y-89007142D02*
X215414342Y-89007142D01*
X215414342Y-89007142D02*
X215509580Y-89054761D01*
X215509580Y-89054761D02*
X215557200Y-89102380D01*
X215557200Y-89102380D02*
X215604819Y-89197618D01*
X215604819Y-89197618D02*
X215604819Y-89435713D01*
X215604819Y-89435713D02*
X215557200Y-89530951D01*
X215557200Y-89530951D02*
X215509580Y-89578570D01*
X215604819Y-88578570D02*
X214604819Y-88578570D01*
X214604819Y-88578570D02*
X214604819Y-88197618D01*
X214604819Y-88197618D02*
X214652438Y-88102380D01*
X214652438Y-88102380D02*
X214700057Y-88054761D01*
X214700057Y-88054761D02*
X214795295Y-88007142D01*
X214795295Y-88007142D02*
X214938152Y-88007142D01*
X214938152Y-88007142D02*
X215033390Y-88054761D01*
X215033390Y-88054761D02*
X215081009Y-88102380D01*
X215081009Y-88102380D02*
X215128628Y-88197618D01*
X215128628Y-88197618D02*
X215128628Y-88578570D01*
X215509580Y-87007142D02*
X215557200Y-87054761D01*
X215557200Y-87054761D02*
X215604819Y-87197618D01*
X215604819Y-87197618D02*
X215604819Y-87292856D01*
X215604819Y-87292856D02*
X215557200Y-87435713D01*
X215557200Y-87435713D02*
X215461961Y-87530951D01*
X215461961Y-87530951D02*
X215366723Y-87578570D01*
X215366723Y-87578570D02*
X215176247Y-87626189D01*
X215176247Y-87626189D02*
X215033390Y-87626189D01*
X215033390Y-87626189D02*
X214842914Y-87578570D01*
X214842914Y-87578570D02*
X214747676Y-87530951D01*
X214747676Y-87530951D02*
X214652438Y-87435713D01*
X214652438Y-87435713D02*
X214604819Y-87292856D01*
X214604819Y-87292856D02*
X214604819Y-87197618D01*
X214604819Y-87197618D02*
X214652438Y-87054761D01*
X214652438Y-87054761D02*
X214700057Y-87007142D01*
X215604819Y-86578570D02*
X214604819Y-86578570D01*
X214604819Y-86578570D02*
X215604819Y-86007142D01*
X215604819Y-86007142D02*
X214604819Y-86007142D01*
X177511905Y-80604819D02*
X177511905Y-81414342D01*
X177511905Y-81414342D02*
X177559524Y-81509580D01*
X177559524Y-81509580D02*
X177607143Y-81557200D01*
X177607143Y-81557200D02*
X177702381Y-81604819D01*
X177702381Y-81604819D02*
X177892857Y-81604819D01*
X177892857Y-81604819D02*
X177988095Y-81557200D01*
X177988095Y-81557200D02*
X178035714Y-81509580D01*
X178035714Y-81509580D02*
X178083333Y-81414342D01*
X178083333Y-81414342D02*
X178083333Y-80604819D01*
X179083333Y-81604819D02*
X178511905Y-81604819D01*
X178797619Y-81604819D02*
X178797619Y-80604819D01*
X178797619Y-80604819D02*
X178702381Y-80747676D01*
X178702381Y-80747676D02*
X178607143Y-80842914D01*
X178607143Y-80842914D02*
X178511905Y-80890533D01*
X180035714Y-81604819D02*
X179464286Y-81604819D01*
X179750000Y-81604819D02*
X179750000Y-80604819D01*
X179750000Y-80604819D02*
X179654762Y-80747676D01*
X179654762Y-80747676D02*
X179559524Y-80842914D01*
X179559524Y-80842914D02*
X179464286Y-80890533D01*
X178919104Y-99340475D02*
X178919104Y-98864285D01*
X179204819Y-99435713D02*
X178204819Y-99102380D01*
X178204819Y-99102380D02*
X179204819Y-98769047D01*
X179157200Y-98483332D02*
X179204819Y-98340475D01*
X179204819Y-98340475D02*
X179204819Y-98102380D01*
X179204819Y-98102380D02*
X179157200Y-98007142D01*
X179157200Y-98007142D02*
X179109580Y-97959523D01*
X179109580Y-97959523D02*
X179014342Y-97911904D01*
X179014342Y-97911904D02*
X178919104Y-97911904D01*
X178919104Y-97911904D02*
X178823866Y-97959523D01*
X178823866Y-97959523D02*
X178776247Y-98007142D01*
X178776247Y-98007142D02*
X178728628Y-98102380D01*
X178728628Y-98102380D02*
X178681009Y-98292856D01*
X178681009Y-98292856D02*
X178633390Y-98388094D01*
X178633390Y-98388094D02*
X178585771Y-98435713D01*
X178585771Y-98435713D02*
X178490533Y-98483332D01*
X178490533Y-98483332D02*
X178395295Y-98483332D01*
X178395295Y-98483332D02*
X178300057Y-98435713D01*
X178300057Y-98435713D02*
X178252438Y-98388094D01*
X178252438Y-98388094D02*
X178204819Y-98292856D01*
X178204819Y-98292856D02*
X178204819Y-98054761D01*
X178204819Y-98054761D02*
X178252438Y-97911904D01*
X178204819Y-97054761D02*
X178204819Y-97245237D01*
X178204819Y-97245237D02*
X178252438Y-97340475D01*
X178252438Y-97340475D02*
X178300057Y-97388094D01*
X178300057Y-97388094D02*
X178442914Y-97483332D01*
X178442914Y-97483332D02*
X178633390Y-97530951D01*
X178633390Y-97530951D02*
X179014342Y-97530951D01*
X179014342Y-97530951D02*
X179109580Y-97483332D01*
X179109580Y-97483332D02*
X179157200Y-97435713D01*
X179157200Y-97435713D02*
X179204819Y-97340475D01*
X179204819Y-97340475D02*
X179204819Y-97149999D01*
X179204819Y-97149999D02*
X179157200Y-97054761D01*
X179157200Y-97054761D02*
X179109580Y-97007142D01*
X179109580Y-97007142D02*
X179014342Y-96959523D01*
X179014342Y-96959523D02*
X178776247Y-96959523D01*
X178776247Y-96959523D02*
X178681009Y-97007142D01*
X178681009Y-97007142D02*
X178633390Y-97054761D01*
X178633390Y-97054761D02*
X178585771Y-97149999D01*
X178585771Y-97149999D02*
X178585771Y-97340475D01*
X178585771Y-97340475D02*
X178633390Y-97435713D01*
X178633390Y-97435713D02*
X178681009Y-97483332D01*
X178681009Y-97483332D02*
X178776247Y-97530951D01*
X179109580Y-95959523D02*
X179157200Y-96007142D01*
X179157200Y-96007142D02*
X179204819Y-96149999D01*
X179204819Y-96149999D02*
X179204819Y-96245237D01*
X179204819Y-96245237D02*
X179157200Y-96388094D01*
X179157200Y-96388094D02*
X179061961Y-96483332D01*
X179061961Y-96483332D02*
X178966723Y-96530951D01*
X178966723Y-96530951D02*
X178776247Y-96578570D01*
X178776247Y-96578570D02*
X178633390Y-96578570D01*
X178633390Y-96578570D02*
X178442914Y-96530951D01*
X178442914Y-96530951D02*
X178347676Y-96483332D01*
X178347676Y-96483332D02*
X178252438Y-96388094D01*
X178252438Y-96388094D02*
X178204819Y-96245237D01*
X178204819Y-96245237D02*
X178204819Y-96149999D01*
X178204819Y-96149999D02*
X178252438Y-96007142D01*
X178252438Y-96007142D02*
X178300057Y-95959523D01*
X178538152Y-95102380D02*
X179204819Y-95102380D01*
X178157200Y-95340475D02*
X178871485Y-95578570D01*
X178871485Y-95578570D02*
X178871485Y-94959523D01*
X178204819Y-94388094D02*
X178204819Y-94292856D01*
X178204819Y-94292856D02*
X178252438Y-94197618D01*
X178252438Y-94197618D02*
X178300057Y-94149999D01*
X178300057Y-94149999D02*
X178395295Y-94102380D01*
X178395295Y-94102380D02*
X178585771Y-94054761D01*
X178585771Y-94054761D02*
X178823866Y-94054761D01*
X178823866Y-94054761D02*
X179014342Y-94102380D01*
X179014342Y-94102380D02*
X179109580Y-94149999D01*
X179109580Y-94149999D02*
X179157200Y-94197618D01*
X179157200Y-94197618D02*
X179204819Y-94292856D01*
X179204819Y-94292856D02*
X179204819Y-94388094D01*
X179204819Y-94388094D02*
X179157200Y-94483332D01*
X179157200Y-94483332D02*
X179109580Y-94530951D01*
X179109580Y-94530951D02*
X179014342Y-94578570D01*
X179014342Y-94578570D02*
X178823866Y-94626189D01*
X178823866Y-94626189D02*
X178585771Y-94626189D01*
X178585771Y-94626189D02*
X178395295Y-94578570D01*
X178395295Y-94578570D02*
X178300057Y-94530951D01*
X178300057Y-94530951D02*
X178252438Y-94483332D01*
X178252438Y-94483332D02*
X178204819Y-94388094D01*
X178204819Y-93435713D02*
X178204819Y-93340475D01*
X178204819Y-93340475D02*
X178252438Y-93245237D01*
X178252438Y-93245237D02*
X178300057Y-93197618D01*
X178300057Y-93197618D02*
X178395295Y-93149999D01*
X178395295Y-93149999D02*
X178585771Y-93102380D01*
X178585771Y-93102380D02*
X178823866Y-93102380D01*
X178823866Y-93102380D02*
X179014342Y-93149999D01*
X179014342Y-93149999D02*
X179109580Y-93197618D01*
X179109580Y-93197618D02*
X179157200Y-93245237D01*
X179157200Y-93245237D02*
X179204819Y-93340475D01*
X179204819Y-93340475D02*
X179204819Y-93435713D01*
X179204819Y-93435713D02*
X179157200Y-93530951D01*
X179157200Y-93530951D02*
X179109580Y-93578570D01*
X179109580Y-93578570D02*
X179014342Y-93626189D01*
X179014342Y-93626189D02*
X178823866Y-93673808D01*
X178823866Y-93673808D02*
X178585771Y-93673808D01*
X178585771Y-93673808D02*
X178395295Y-93626189D01*
X178395295Y-93626189D02*
X178300057Y-93578570D01*
X178300057Y-93578570D02*
X178252438Y-93530951D01*
X178252438Y-93530951D02*
X178204819Y-93435713D01*
X178633390Y-92530951D02*
X178585771Y-92626189D01*
X178585771Y-92626189D02*
X178538152Y-92673808D01*
X178538152Y-92673808D02*
X178442914Y-92721427D01*
X178442914Y-92721427D02*
X178395295Y-92721427D01*
X178395295Y-92721427D02*
X178300057Y-92673808D01*
X178300057Y-92673808D02*
X178252438Y-92626189D01*
X178252438Y-92626189D02*
X178204819Y-92530951D01*
X178204819Y-92530951D02*
X178204819Y-92340475D01*
X178204819Y-92340475D02*
X178252438Y-92245237D01*
X178252438Y-92245237D02*
X178300057Y-92197618D01*
X178300057Y-92197618D02*
X178395295Y-92149999D01*
X178395295Y-92149999D02*
X178442914Y-92149999D01*
X178442914Y-92149999D02*
X178538152Y-92197618D01*
X178538152Y-92197618D02*
X178585771Y-92245237D01*
X178585771Y-92245237D02*
X178633390Y-92340475D01*
X178633390Y-92340475D02*
X178633390Y-92530951D01*
X178633390Y-92530951D02*
X178681009Y-92626189D01*
X178681009Y-92626189D02*
X178728628Y-92673808D01*
X178728628Y-92673808D02*
X178823866Y-92721427D01*
X178823866Y-92721427D02*
X179014342Y-92721427D01*
X179014342Y-92721427D02*
X179109580Y-92673808D01*
X179109580Y-92673808D02*
X179157200Y-92626189D01*
X179157200Y-92626189D02*
X179204819Y-92530951D01*
X179204819Y-92530951D02*
X179204819Y-92340475D01*
X179204819Y-92340475D02*
X179157200Y-92245237D01*
X179157200Y-92245237D02*
X179109580Y-92197618D01*
X179109580Y-92197618D02*
X179014342Y-92149999D01*
X179014342Y-92149999D02*
X178823866Y-92149999D01*
X178823866Y-92149999D02*
X178728628Y-92197618D01*
X178728628Y-92197618D02*
X178681009Y-92245237D01*
X178681009Y-92245237D02*
X178633390Y-92340475D01*
X178823866Y-91721427D02*
X178823866Y-90959523D01*
X178204819Y-90007142D02*
X178204819Y-90483332D01*
X178204819Y-90483332D02*
X178681009Y-90530951D01*
X178681009Y-90530951D02*
X178633390Y-90483332D01*
X178633390Y-90483332D02*
X178585771Y-90388094D01*
X178585771Y-90388094D02*
X178585771Y-90149999D01*
X178585771Y-90149999D02*
X178633390Y-90054761D01*
X178633390Y-90054761D02*
X178681009Y-90007142D01*
X178681009Y-90007142D02*
X178776247Y-89959523D01*
X178776247Y-89959523D02*
X179014342Y-89959523D01*
X179014342Y-89959523D02*
X179109580Y-90007142D01*
X179109580Y-90007142D02*
X179157200Y-90054761D01*
X179157200Y-90054761D02*
X179204819Y-90149999D01*
X179204819Y-90149999D02*
X179204819Y-90388094D01*
X179204819Y-90388094D02*
X179157200Y-90483332D01*
X179157200Y-90483332D02*
X179109580Y-90530951D01*
X178204819Y-89054761D02*
X178204819Y-89530951D01*
X178204819Y-89530951D02*
X178681009Y-89578570D01*
X178681009Y-89578570D02*
X178633390Y-89530951D01*
X178633390Y-89530951D02*
X178585771Y-89435713D01*
X178585771Y-89435713D02*
X178585771Y-89197618D01*
X178585771Y-89197618D02*
X178633390Y-89102380D01*
X178633390Y-89102380D02*
X178681009Y-89054761D01*
X178681009Y-89054761D02*
X178776247Y-89007142D01*
X178776247Y-89007142D02*
X179014342Y-89007142D01*
X179014342Y-89007142D02*
X179109580Y-89054761D01*
X179109580Y-89054761D02*
X179157200Y-89102380D01*
X179157200Y-89102380D02*
X179204819Y-89197618D01*
X179204819Y-89197618D02*
X179204819Y-89435713D01*
X179204819Y-89435713D02*
X179157200Y-89530951D01*
X179157200Y-89530951D02*
X179109580Y-89578570D01*
X179204819Y-88578570D02*
X178204819Y-88578570D01*
X178204819Y-88578570D02*
X178204819Y-88197618D01*
X178204819Y-88197618D02*
X178252438Y-88102380D01*
X178252438Y-88102380D02*
X178300057Y-88054761D01*
X178300057Y-88054761D02*
X178395295Y-88007142D01*
X178395295Y-88007142D02*
X178538152Y-88007142D01*
X178538152Y-88007142D02*
X178633390Y-88054761D01*
X178633390Y-88054761D02*
X178681009Y-88102380D01*
X178681009Y-88102380D02*
X178728628Y-88197618D01*
X178728628Y-88197618D02*
X178728628Y-88578570D01*
X179109580Y-87007142D02*
X179157200Y-87054761D01*
X179157200Y-87054761D02*
X179204819Y-87197618D01*
X179204819Y-87197618D02*
X179204819Y-87292856D01*
X179204819Y-87292856D02*
X179157200Y-87435713D01*
X179157200Y-87435713D02*
X179061961Y-87530951D01*
X179061961Y-87530951D02*
X178966723Y-87578570D01*
X178966723Y-87578570D02*
X178776247Y-87626189D01*
X178776247Y-87626189D02*
X178633390Y-87626189D01*
X178633390Y-87626189D02*
X178442914Y-87578570D01*
X178442914Y-87578570D02*
X178347676Y-87530951D01*
X178347676Y-87530951D02*
X178252438Y-87435713D01*
X178252438Y-87435713D02*
X178204819Y-87292856D01*
X178204819Y-87292856D02*
X178204819Y-87197618D01*
X178204819Y-87197618D02*
X178252438Y-87054761D01*
X178252438Y-87054761D02*
X178300057Y-87007142D01*
X179204819Y-86578570D02*
X178204819Y-86578570D01*
X178204819Y-86578570D02*
X179204819Y-86007142D01*
X179204819Y-86007142D02*
X178204819Y-86007142D01*
X168704819Y-136433333D02*
X169419104Y-136433333D01*
X169419104Y-136433333D02*
X169561961Y-136480952D01*
X169561961Y-136480952D02*
X169657200Y-136576190D01*
X169657200Y-136576190D02*
X169704819Y-136719047D01*
X169704819Y-136719047D02*
X169704819Y-136814285D01*
X169704819Y-135957142D02*
X168704819Y-135957142D01*
X168704819Y-135957142D02*
X168704819Y-135576190D01*
X168704819Y-135576190D02*
X168752438Y-135480952D01*
X168752438Y-135480952D02*
X168800057Y-135433333D01*
X168800057Y-135433333D02*
X168895295Y-135385714D01*
X168895295Y-135385714D02*
X169038152Y-135385714D01*
X169038152Y-135385714D02*
X169133390Y-135433333D01*
X169133390Y-135433333D02*
X169181009Y-135480952D01*
X169181009Y-135480952D02*
X169228628Y-135576190D01*
X169228628Y-135576190D02*
X169228628Y-135957142D01*
X169704819Y-134433333D02*
X169704819Y-135004761D01*
X169704819Y-134719047D02*
X168704819Y-134719047D01*
X168704819Y-134719047D02*
X168847676Y-134814285D01*
X168847676Y-134814285D02*
X168942914Y-134909523D01*
X168942914Y-134909523D02*
X168990533Y-135004761D01*
X170504819Y-133333331D02*
X170504819Y-132714284D01*
X170504819Y-132714284D02*
X170885771Y-133047617D01*
X170885771Y-133047617D02*
X170885771Y-132904760D01*
X170885771Y-132904760D02*
X170933390Y-132809522D01*
X170933390Y-132809522D02*
X170981009Y-132761903D01*
X170981009Y-132761903D02*
X171076247Y-132714284D01*
X171076247Y-132714284D02*
X171314342Y-132714284D01*
X171314342Y-132714284D02*
X171409580Y-132761903D01*
X171409580Y-132761903D02*
X171457200Y-132809522D01*
X171457200Y-132809522D02*
X171504819Y-132904760D01*
X171504819Y-132904760D02*
X171504819Y-133190474D01*
X171504819Y-133190474D02*
X171457200Y-133285712D01*
X171457200Y-133285712D02*
X171409580Y-133333331D01*
X171504819Y-137914286D02*
X171504819Y-138485714D01*
X171504819Y-138200000D02*
X170504819Y-138200000D01*
X170504819Y-138200000D02*
X170647676Y-138295238D01*
X170647676Y-138295238D02*
X170742914Y-138390476D01*
X170742914Y-138390476D02*
X170790533Y-138485714D01*
X195711905Y-80604819D02*
X195711905Y-81414342D01*
X195711905Y-81414342D02*
X195759524Y-81509580D01*
X195759524Y-81509580D02*
X195807143Y-81557200D01*
X195807143Y-81557200D02*
X195902381Y-81604819D01*
X195902381Y-81604819D02*
X196092857Y-81604819D01*
X196092857Y-81604819D02*
X196188095Y-81557200D01*
X196188095Y-81557200D02*
X196235714Y-81509580D01*
X196235714Y-81509580D02*
X196283333Y-81414342D01*
X196283333Y-81414342D02*
X196283333Y-80604819D01*
X197283333Y-81604819D02*
X196711905Y-81604819D01*
X196997619Y-81604819D02*
X196997619Y-80604819D01*
X196997619Y-80604819D02*
X196902381Y-80747676D01*
X196902381Y-80747676D02*
X196807143Y-80842914D01*
X196807143Y-80842914D02*
X196711905Y-80890533D01*
X197902381Y-80604819D02*
X197997619Y-80604819D01*
X197997619Y-80604819D02*
X198092857Y-80652438D01*
X198092857Y-80652438D02*
X198140476Y-80700057D01*
X198140476Y-80700057D02*
X198188095Y-80795295D01*
X198188095Y-80795295D02*
X198235714Y-80985771D01*
X198235714Y-80985771D02*
X198235714Y-81223866D01*
X198235714Y-81223866D02*
X198188095Y-81414342D01*
X198188095Y-81414342D02*
X198140476Y-81509580D01*
X198140476Y-81509580D02*
X198092857Y-81557200D01*
X198092857Y-81557200D02*
X197997619Y-81604819D01*
X197997619Y-81604819D02*
X197902381Y-81604819D01*
X197902381Y-81604819D02*
X197807143Y-81557200D01*
X197807143Y-81557200D02*
X197759524Y-81509580D01*
X197759524Y-81509580D02*
X197711905Y-81414342D01*
X197711905Y-81414342D02*
X197664286Y-81223866D01*
X197664286Y-81223866D02*
X197664286Y-80985771D01*
X197664286Y-80985771D02*
X197711905Y-80795295D01*
X197711905Y-80795295D02*
X197759524Y-80700057D01*
X197759524Y-80700057D02*
X197807143Y-80652438D01*
X197807143Y-80652438D02*
X197902381Y-80604819D01*
X197119104Y-99340475D02*
X197119104Y-98864285D01*
X197404819Y-99435713D02*
X196404819Y-99102380D01*
X196404819Y-99102380D02*
X197404819Y-98769047D01*
X197357200Y-98483332D02*
X197404819Y-98340475D01*
X197404819Y-98340475D02*
X197404819Y-98102380D01*
X197404819Y-98102380D02*
X197357200Y-98007142D01*
X197357200Y-98007142D02*
X197309580Y-97959523D01*
X197309580Y-97959523D02*
X197214342Y-97911904D01*
X197214342Y-97911904D02*
X197119104Y-97911904D01*
X197119104Y-97911904D02*
X197023866Y-97959523D01*
X197023866Y-97959523D02*
X196976247Y-98007142D01*
X196976247Y-98007142D02*
X196928628Y-98102380D01*
X196928628Y-98102380D02*
X196881009Y-98292856D01*
X196881009Y-98292856D02*
X196833390Y-98388094D01*
X196833390Y-98388094D02*
X196785771Y-98435713D01*
X196785771Y-98435713D02*
X196690533Y-98483332D01*
X196690533Y-98483332D02*
X196595295Y-98483332D01*
X196595295Y-98483332D02*
X196500057Y-98435713D01*
X196500057Y-98435713D02*
X196452438Y-98388094D01*
X196452438Y-98388094D02*
X196404819Y-98292856D01*
X196404819Y-98292856D02*
X196404819Y-98054761D01*
X196404819Y-98054761D02*
X196452438Y-97911904D01*
X196404819Y-97054761D02*
X196404819Y-97245237D01*
X196404819Y-97245237D02*
X196452438Y-97340475D01*
X196452438Y-97340475D02*
X196500057Y-97388094D01*
X196500057Y-97388094D02*
X196642914Y-97483332D01*
X196642914Y-97483332D02*
X196833390Y-97530951D01*
X196833390Y-97530951D02*
X197214342Y-97530951D01*
X197214342Y-97530951D02*
X197309580Y-97483332D01*
X197309580Y-97483332D02*
X197357200Y-97435713D01*
X197357200Y-97435713D02*
X197404819Y-97340475D01*
X197404819Y-97340475D02*
X197404819Y-97149999D01*
X197404819Y-97149999D02*
X197357200Y-97054761D01*
X197357200Y-97054761D02*
X197309580Y-97007142D01*
X197309580Y-97007142D02*
X197214342Y-96959523D01*
X197214342Y-96959523D02*
X196976247Y-96959523D01*
X196976247Y-96959523D02*
X196881009Y-97007142D01*
X196881009Y-97007142D02*
X196833390Y-97054761D01*
X196833390Y-97054761D02*
X196785771Y-97149999D01*
X196785771Y-97149999D02*
X196785771Y-97340475D01*
X196785771Y-97340475D02*
X196833390Y-97435713D01*
X196833390Y-97435713D02*
X196881009Y-97483332D01*
X196881009Y-97483332D02*
X196976247Y-97530951D01*
X197309580Y-95959523D02*
X197357200Y-96007142D01*
X197357200Y-96007142D02*
X197404819Y-96149999D01*
X197404819Y-96149999D02*
X197404819Y-96245237D01*
X197404819Y-96245237D02*
X197357200Y-96388094D01*
X197357200Y-96388094D02*
X197261961Y-96483332D01*
X197261961Y-96483332D02*
X197166723Y-96530951D01*
X197166723Y-96530951D02*
X196976247Y-96578570D01*
X196976247Y-96578570D02*
X196833390Y-96578570D01*
X196833390Y-96578570D02*
X196642914Y-96530951D01*
X196642914Y-96530951D02*
X196547676Y-96483332D01*
X196547676Y-96483332D02*
X196452438Y-96388094D01*
X196452438Y-96388094D02*
X196404819Y-96245237D01*
X196404819Y-96245237D02*
X196404819Y-96149999D01*
X196404819Y-96149999D02*
X196452438Y-96007142D01*
X196452438Y-96007142D02*
X196500057Y-95959523D01*
X196738152Y-95102380D02*
X197404819Y-95102380D01*
X196357200Y-95340475D02*
X197071485Y-95578570D01*
X197071485Y-95578570D02*
X197071485Y-94959523D01*
X196404819Y-94388094D02*
X196404819Y-94292856D01*
X196404819Y-94292856D02*
X196452438Y-94197618D01*
X196452438Y-94197618D02*
X196500057Y-94149999D01*
X196500057Y-94149999D02*
X196595295Y-94102380D01*
X196595295Y-94102380D02*
X196785771Y-94054761D01*
X196785771Y-94054761D02*
X197023866Y-94054761D01*
X197023866Y-94054761D02*
X197214342Y-94102380D01*
X197214342Y-94102380D02*
X197309580Y-94149999D01*
X197309580Y-94149999D02*
X197357200Y-94197618D01*
X197357200Y-94197618D02*
X197404819Y-94292856D01*
X197404819Y-94292856D02*
X197404819Y-94388094D01*
X197404819Y-94388094D02*
X197357200Y-94483332D01*
X197357200Y-94483332D02*
X197309580Y-94530951D01*
X197309580Y-94530951D02*
X197214342Y-94578570D01*
X197214342Y-94578570D02*
X197023866Y-94626189D01*
X197023866Y-94626189D02*
X196785771Y-94626189D01*
X196785771Y-94626189D02*
X196595295Y-94578570D01*
X196595295Y-94578570D02*
X196500057Y-94530951D01*
X196500057Y-94530951D02*
X196452438Y-94483332D01*
X196452438Y-94483332D02*
X196404819Y-94388094D01*
X196404819Y-93435713D02*
X196404819Y-93340475D01*
X196404819Y-93340475D02*
X196452438Y-93245237D01*
X196452438Y-93245237D02*
X196500057Y-93197618D01*
X196500057Y-93197618D02*
X196595295Y-93149999D01*
X196595295Y-93149999D02*
X196785771Y-93102380D01*
X196785771Y-93102380D02*
X197023866Y-93102380D01*
X197023866Y-93102380D02*
X197214342Y-93149999D01*
X197214342Y-93149999D02*
X197309580Y-93197618D01*
X197309580Y-93197618D02*
X197357200Y-93245237D01*
X197357200Y-93245237D02*
X197404819Y-93340475D01*
X197404819Y-93340475D02*
X197404819Y-93435713D01*
X197404819Y-93435713D02*
X197357200Y-93530951D01*
X197357200Y-93530951D02*
X197309580Y-93578570D01*
X197309580Y-93578570D02*
X197214342Y-93626189D01*
X197214342Y-93626189D02*
X197023866Y-93673808D01*
X197023866Y-93673808D02*
X196785771Y-93673808D01*
X196785771Y-93673808D02*
X196595295Y-93626189D01*
X196595295Y-93626189D02*
X196500057Y-93578570D01*
X196500057Y-93578570D02*
X196452438Y-93530951D01*
X196452438Y-93530951D02*
X196404819Y-93435713D01*
X196833390Y-92530951D02*
X196785771Y-92626189D01*
X196785771Y-92626189D02*
X196738152Y-92673808D01*
X196738152Y-92673808D02*
X196642914Y-92721427D01*
X196642914Y-92721427D02*
X196595295Y-92721427D01*
X196595295Y-92721427D02*
X196500057Y-92673808D01*
X196500057Y-92673808D02*
X196452438Y-92626189D01*
X196452438Y-92626189D02*
X196404819Y-92530951D01*
X196404819Y-92530951D02*
X196404819Y-92340475D01*
X196404819Y-92340475D02*
X196452438Y-92245237D01*
X196452438Y-92245237D02*
X196500057Y-92197618D01*
X196500057Y-92197618D02*
X196595295Y-92149999D01*
X196595295Y-92149999D02*
X196642914Y-92149999D01*
X196642914Y-92149999D02*
X196738152Y-92197618D01*
X196738152Y-92197618D02*
X196785771Y-92245237D01*
X196785771Y-92245237D02*
X196833390Y-92340475D01*
X196833390Y-92340475D02*
X196833390Y-92530951D01*
X196833390Y-92530951D02*
X196881009Y-92626189D01*
X196881009Y-92626189D02*
X196928628Y-92673808D01*
X196928628Y-92673808D02*
X197023866Y-92721427D01*
X197023866Y-92721427D02*
X197214342Y-92721427D01*
X197214342Y-92721427D02*
X197309580Y-92673808D01*
X197309580Y-92673808D02*
X197357200Y-92626189D01*
X197357200Y-92626189D02*
X197404819Y-92530951D01*
X197404819Y-92530951D02*
X197404819Y-92340475D01*
X197404819Y-92340475D02*
X197357200Y-92245237D01*
X197357200Y-92245237D02*
X197309580Y-92197618D01*
X197309580Y-92197618D02*
X197214342Y-92149999D01*
X197214342Y-92149999D02*
X197023866Y-92149999D01*
X197023866Y-92149999D02*
X196928628Y-92197618D01*
X196928628Y-92197618D02*
X196881009Y-92245237D01*
X196881009Y-92245237D02*
X196833390Y-92340475D01*
X197023866Y-91721427D02*
X197023866Y-90959523D01*
X196404819Y-90007142D02*
X196404819Y-90483332D01*
X196404819Y-90483332D02*
X196881009Y-90530951D01*
X196881009Y-90530951D02*
X196833390Y-90483332D01*
X196833390Y-90483332D02*
X196785771Y-90388094D01*
X196785771Y-90388094D02*
X196785771Y-90149999D01*
X196785771Y-90149999D02*
X196833390Y-90054761D01*
X196833390Y-90054761D02*
X196881009Y-90007142D01*
X196881009Y-90007142D02*
X196976247Y-89959523D01*
X196976247Y-89959523D02*
X197214342Y-89959523D01*
X197214342Y-89959523D02*
X197309580Y-90007142D01*
X197309580Y-90007142D02*
X197357200Y-90054761D01*
X197357200Y-90054761D02*
X197404819Y-90149999D01*
X197404819Y-90149999D02*
X197404819Y-90388094D01*
X197404819Y-90388094D02*
X197357200Y-90483332D01*
X197357200Y-90483332D02*
X197309580Y-90530951D01*
X196404819Y-89054761D02*
X196404819Y-89530951D01*
X196404819Y-89530951D02*
X196881009Y-89578570D01*
X196881009Y-89578570D02*
X196833390Y-89530951D01*
X196833390Y-89530951D02*
X196785771Y-89435713D01*
X196785771Y-89435713D02*
X196785771Y-89197618D01*
X196785771Y-89197618D02*
X196833390Y-89102380D01*
X196833390Y-89102380D02*
X196881009Y-89054761D01*
X196881009Y-89054761D02*
X196976247Y-89007142D01*
X196976247Y-89007142D02*
X197214342Y-89007142D01*
X197214342Y-89007142D02*
X197309580Y-89054761D01*
X197309580Y-89054761D02*
X197357200Y-89102380D01*
X197357200Y-89102380D02*
X197404819Y-89197618D01*
X197404819Y-89197618D02*
X197404819Y-89435713D01*
X197404819Y-89435713D02*
X197357200Y-89530951D01*
X197357200Y-89530951D02*
X197309580Y-89578570D01*
X197404819Y-88578570D02*
X196404819Y-88578570D01*
X196404819Y-88578570D02*
X196404819Y-88197618D01*
X196404819Y-88197618D02*
X196452438Y-88102380D01*
X196452438Y-88102380D02*
X196500057Y-88054761D01*
X196500057Y-88054761D02*
X196595295Y-88007142D01*
X196595295Y-88007142D02*
X196738152Y-88007142D01*
X196738152Y-88007142D02*
X196833390Y-88054761D01*
X196833390Y-88054761D02*
X196881009Y-88102380D01*
X196881009Y-88102380D02*
X196928628Y-88197618D01*
X196928628Y-88197618D02*
X196928628Y-88578570D01*
X197309580Y-87007142D02*
X197357200Y-87054761D01*
X197357200Y-87054761D02*
X197404819Y-87197618D01*
X197404819Y-87197618D02*
X197404819Y-87292856D01*
X197404819Y-87292856D02*
X197357200Y-87435713D01*
X197357200Y-87435713D02*
X197261961Y-87530951D01*
X197261961Y-87530951D02*
X197166723Y-87578570D01*
X197166723Y-87578570D02*
X196976247Y-87626189D01*
X196976247Y-87626189D02*
X196833390Y-87626189D01*
X196833390Y-87626189D02*
X196642914Y-87578570D01*
X196642914Y-87578570D02*
X196547676Y-87530951D01*
X196547676Y-87530951D02*
X196452438Y-87435713D01*
X196452438Y-87435713D02*
X196404819Y-87292856D01*
X196404819Y-87292856D02*
X196404819Y-87197618D01*
X196404819Y-87197618D02*
X196452438Y-87054761D01*
X196452438Y-87054761D02*
X196500057Y-87007142D01*
X197404819Y-86578570D02*
X196404819Y-86578570D01*
X196404819Y-86578570D02*
X197404819Y-86007142D01*
X197404819Y-86007142D02*
X196404819Y-86007142D01*
D14*
%TO.C,C5*%
X165840113Y-77975000D02*
X166340113Y-77975000D01*
X166090113Y-77725000D02*
X166090113Y-78225000D01*
X168644888Y-76870000D02*
X168644888Y-82030000D01*
X168684888Y-76870000D02*
X168684888Y-82030000D01*
X168724888Y-76871000D02*
X168724888Y-82029000D01*
X168764888Y-76873000D02*
X168764888Y-82027000D01*
X168804888Y-76875000D02*
X168804888Y-82025000D01*
X168844888Y-76878000D02*
X168844888Y-82022000D01*
X168884888Y-76881000D02*
X168884888Y-78410000D01*
X168884888Y-80490000D02*
X168884888Y-82019000D01*
X168924888Y-76885000D02*
X168924888Y-78410000D01*
X168924888Y-80490000D02*
X168924888Y-82015000D01*
X168964888Y-76890000D02*
X168964888Y-78410000D01*
X168964888Y-80490000D02*
X168964888Y-82010000D01*
X169004888Y-76895000D02*
X169004888Y-78410000D01*
X169004888Y-80490000D02*
X169004888Y-82005000D01*
X169044888Y-76901000D02*
X169044888Y-78410000D01*
X169044888Y-80490000D02*
X169044888Y-81999000D01*
X169084888Y-76907000D02*
X169084888Y-78410000D01*
X169084888Y-80490000D02*
X169084888Y-81993000D01*
X169124888Y-76914000D02*
X169124888Y-78410000D01*
X169124888Y-80490000D02*
X169124888Y-81986000D01*
X169164888Y-76922000D02*
X169164888Y-78410000D01*
X169164888Y-80490000D02*
X169164888Y-81978000D01*
X169204888Y-76931000D02*
X169204888Y-78410000D01*
X169204888Y-80490000D02*
X169204888Y-81969000D01*
X169244888Y-76940000D02*
X169244888Y-78410000D01*
X169244888Y-80490000D02*
X169244888Y-81960000D01*
X169284888Y-76949000D02*
X169284888Y-78410000D01*
X169284888Y-80490000D02*
X169284888Y-81951000D01*
X169324888Y-76960000D02*
X169324888Y-78410000D01*
X169324888Y-80490000D02*
X169324888Y-81940000D01*
X169364888Y-76971000D02*
X169364888Y-78410000D01*
X169364888Y-80490000D02*
X169364888Y-81929000D01*
X169404888Y-76983000D02*
X169404888Y-78410000D01*
X169404888Y-80490000D02*
X169404888Y-81917000D01*
X169444888Y-76995000D02*
X169444888Y-78410000D01*
X169444888Y-80490000D02*
X169444888Y-81905000D01*
X169484888Y-77008000D02*
X169484888Y-78410000D01*
X169484888Y-80490000D02*
X169484888Y-81892000D01*
X169524888Y-77022000D02*
X169524888Y-78410000D01*
X169524888Y-80490000D02*
X169524888Y-81878000D01*
X169564888Y-77037000D02*
X169564888Y-78410000D01*
X169564888Y-80490000D02*
X169564888Y-81863000D01*
X169604888Y-77052000D02*
X169604888Y-78410000D01*
X169604888Y-80490000D02*
X169604888Y-81848000D01*
X169644888Y-77068000D02*
X169644888Y-78410000D01*
X169644888Y-80490000D02*
X169644888Y-81832000D01*
X169684888Y-77085000D02*
X169684888Y-78410000D01*
X169684888Y-80490000D02*
X169684888Y-81815000D01*
X169724888Y-77103000D02*
X169724888Y-78410000D01*
X169724888Y-80490000D02*
X169724888Y-81797000D01*
X169764888Y-77121000D02*
X169764888Y-78410000D01*
X169764888Y-80490000D02*
X169764888Y-81779000D01*
X169804888Y-77141000D02*
X169804888Y-78410000D01*
X169804888Y-80490000D02*
X169804888Y-81759000D01*
X169844888Y-77161000D02*
X169844888Y-78410000D01*
X169844888Y-80490000D02*
X169844888Y-81739000D01*
X169884888Y-77182000D02*
X169884888Y-78410000D01*
X169884888Y-80490000D02*
X169884888Y-81718000D01*
X169924888Y-77204000D02*
X169924888Y-78410000D01*
X169924888Y-80490000D02*
X169924888Y-81696000D01*
X169964888Y-77227000D02*
X169964888Y-78410000D01*
X169964888Y-80490000D02*
X169964888Y-81673000D01*
X170004888Y-77251000D02*
X170004888Y-78410000D01*
X170004888Y-80490000D02*
X170004888Y-81649000D01*
X170044888Y-77275000D02*
X170044888Y-78410000D01*
X170044888Y-80490000D02*
X170044888Y-81625000D01*
X170084888Y-77301000D02*
X170084888Y-78410000D01*
X170084888Y-80490000D02*
X170084888Y-81599000D01*
X170124888Y-77328000D02*
X170124888Y-78410000D01*
X170124888Y-80490000D02*
X170124888Y-81572000D01*
X170164888Y-77356000D02*
X170164888Y-78410000D01*
X170164888Y-80490000D02*
X170164888Y-81544000D01*
X170204888Y-77385000D02*
X170204888Y-78410000D01*
X170204888Y-80490000D02*
X170204888Y-81515000D01*
X170244888Y-77415000D02*
X170244888Y-78410000D01*
X170244888Y-80490000D02*
X170244888Y-81485000D01*
X170284888Y-77447000D02*
X170284888Y-78410000D01*
X170284888Y-80490000D02*
X170284888Y-81453000D01*
X170324888Y-77480000D02*
X170324888Y-78410000D01*
X170324888Y-80490000D02*
X170324888Y-81420000D01*
X170364888Y-77514000D02*
X170364888Y-78410000D01*
X170364888Y-80490000D02*
X170364888Y-81386000D01*
X170404888Y-77549000D02*
X170404888Y-78410000D01*
X170404888Y-80490000D02*
X170404888Y-81351000D01*
X170444888Y-77586000D02*
X170444888Y-78410000D01*
X170444888Y-80490000D02*
X170444888Y-81314000D01*
X170484888Y-77625000D02*
X170484888Y-78410000D01*
X170484888Y-80490000D02*
X170484888Y-81275000D01*
X170524888Y-77665000D02*
X170524888Y-78410000D01*
X170524888Y-80490000D02*
X170524888Y-81235000D01*
X170564888Y-77707000D02*
X170564888Y-78410000D01*
X170564888Y-80490000D02*
X170564888Y-81193000D01*
X170604888Y-77751000D02*
X170604888Y-78410000D01*
X170604888Y-80490000D02*
X170604888Y-81149000D01*
X170644888Y-77798000D02*
X170644888Y-78410000D01*
X170644888Y-80490000D02*
X170644888Y-81102000D01*
X170684888Y-77846000D02*
X170684888Y-78410000D01*
X170684888Y-80490000D02*
X170684888Y-81054000D01*
X170724888Y-77897000D02*
X170724888Y-78410000D01*
X170724888Y-80490000D02*
X170724888Y-81003000D01*
X170764888Y-77951000D02*
X170764888Y-78410000D01*
X170764888Y-80490000D02*
X170764888Y-80949000D01*
X170804888Y-78007000D02*
X170804888Y-78410000D01*
X170804888Y-80490000D02*
X170804888Y-80893000D01*
X170844888Y-78067000D02*
X170844888Y-78410000D01*
X170844888Y-80490000D02*
X170844888Y-80833000D01*
X170884888Y-78131000D02*
X170884888Y-78410000D01*
X170884888Y-80490000D02*
X170884888Y-80769000D01*
X170924888Y-78199000D02*
X170924888Y-78410000D01*
X170924888Y-80490000D02*
X170924888Y-80701000D01*
X170964888Y-78273000D02*
X170964888Y-80627000D01*
X171004888Y-78352000D02*
X171004888Y-80548000D01*
X171044888Y-78439000D02*
X171044888Y-80461000D01*
X171084888Y-78536000D02*
X171084888Y-80364000D01*
X171124888Y-78645000D02*
X171124888Y-80255000D01*
X171164888Y-78773000D02*
X171164888Y-80127000D01*
X171204888Y-78933000D02*
X171204888Y-79967000D01*
X171244888Y-79167000D02*
X171244888Y-79733000D01*
X171264888Y-79450000D02*
G75*
G02*
X166024888Y-79450000I-2620000J0D01*
G01*
X166024888Y-79450000D02*
G75*
G02*
X171264888Y-79450000I2620000J0D01*
G01*
%TO.C,U3*%
X237972500Y-112215000D02*
X237642500Y-111975000D01*
X237972500Y-111735000D01*
X237972500Y-112215000D01*
G36*
X237972500Y-112215000D02*
G01*
X237642500Y-111975000D01*
X237972500Y-111735000D01*
X237972500Y-112215000D01*
G37*
X237707501Y-114675000D02*
X237707500Y-116625000D01*
X237707501Y-114675000D02*
X237707500Y-112725000D01*
X228837499Y-114675000D02*
X228837500Y-116625000D01*
X228837499Y-114675000D02*
X228837500Y-112725000D01*
%TO.C,U8*%
X227587500Y-81992500D02*
X227587500Y-82265000D01*
X227587500Y-102707500D02*
X227587500Y-102435000D01*
X233350000Y-81992500D02*
X227587500Y-81992500D01*
X233350000Y-81992500D02*
X239112500Y-81992500D01*
X233350000Y-102707500D02*
X227587500Y-102707500D01*
X233350000Y-102707500D02*
X239112500Y-102707500D01*
X239112500Y-81992500D02*
X239112500Y-82265000D01*
X239112500Y-102707500D02*
X239112500Y-102435000D01*
X226736250Y-82265000D02*
X226396250Y-81795000D01*
X227076250Y-81795000D01*
X226736250Y-82265000D01*
G36*
X226736250Y-82265000D02*
G01*
X226396250Y-81795000D01*
X227076250Y-81795000D01*
X226736250Y-82265000D01*
G37*
%TO.C,U5*%
X185430000Y-117577500D02*
X184960000Y-117237500D01*
X185430000Y-116897500D01*
X185430000Y-117577500D01*
G36*
X185430000Y-117577500D02*
G01*
X184960000Y-117237500D01*
X185430000Y-116897500D01*
X185430000Y-117577500D01*
G37*
X185195000Y-125810000D02*
X184960000Y-125810000D01*
X185195000Y-121950000D02*
X185195000Y-125810000D01*
X185195000Y-121950000D02*
X185195000Y-118090000D01*
X185195000Y-118090000D02*
X184960000Y-118090000D01*
X172175000Y-125810000D02*
X172410000Y-125810000D01*
X172175000Y-121950000D02*
X172175000Y-125810000D01*
X172175000Y-121950000D02*
X172175000Y-118090000D01*
X172175000Y-118090000D02*
X172410000Y-118090000D01*
%TO.C,U7*%
X191805000Y-114675000D02*
X191805000Y-112725000D01*
X191805000Y-114675000D02*
X191805000Y-116625000D01*
X201925000Y-114675000D02*
X201925000Y-112725000D01*
X201925000Y-114675000D02*
X201925000Y-116625000D01*
X202200000Y-112215000D02*
X201870000Y-111975000D01*
X202200000Y-111735000D01*
X202200000Y-112215000D01*
G36*
X202200000Y-112215000D02*
G01*
X201870000Y-111975000D01*
X202200000Y-111735000D01*
X202200000Y-112215000D01*
G37*
%TO.C,U6*%
X220400000Y-112215000D02*
X220070000Y-111975000D01*
X220400000Y-111735000D01*
X220400000Y-112215000D01*
G36*
X220400000Y-112215000D02*
G01*
X220070000Y-111975000D01*
X220400000Y-111735000D01*
X220400000Y-112215000D01*
G37*
X220125000Y-114675000D02*
X220125000Y-116625000D01*
X220125000Y-114675000D02*
X220125000Y-112725000D01*
X210005000Y-114675000D02*
X210005000Y-116625000D01*
X210005000Y-114675000D02*
X210005000Y-112725000D01*
%TO.C,U4*%
X238600000Y-126890000D02*
X238270000Y-126650000D01*
X238600000Y-126410000D01*
X238600000Y-126890000D01*
G36*
X238600000Y-126890000D02*
G01*
X238270000Y-126650000D01*
X238600000Y-126410000D01*
X238600000Y-126890000D01*
G37*
X238325000Y-129350000D02*
X238325000Y-131300000D01*
X238325000Y-129350000D02*
X238325000Y-127400000D01*
X228205000Y-129350000D02*
X228205000Y-131300000D01*
X228205000Y-129350000D02*
X228205000Y-127400000D01*
%TO.C,U1*%
X220400000Y-126890000D02*
X220070000Y-126650000D01*
X220400000Y-126410000D01*
X220400000Y-126890000D01*
G36*
X220400000Y-126890000D02*
G01*
X220070000Y-126650000D01*
X220400000Y-126410000D01*
X220400000Y-126890000D01*
G37*
X220125000Y-129350000D02*
X220125000Y-131300000D01*
X220125000Y-129350000D02*
X220125000Y-127400000D01*
X210005000Y-129350000D02*
X210005000Y-131300000D01*
X210005000Y-129350000D02*
X210005000Y-127400000D01*
%TO.C,U2*%
X191805000Y-129349999D02*
X191805000Y-127399999D01*
X191805000Y-129349999D02*
X191805000Y-131299999D01*
X201925000Y-129349999D02*
X201925000Y-127399999D01*
X201925000Y-129349999D02*
X201925000Y-131299999D01*
X202200000Y-126889999D02*
X201870000Y-126649999D01*
X202200000Y-126409999D01*
X202200000Y-126889999D01*
G36*
X202200000Y-126889999D02*
G01*
X201870000Y-126649999D01*
X202200000Y-126409999D01*
X202200000Y-126889999D01*
G37*
%TO.C,U9*%
X208536250Y-82265000D02*
X208196250Y-81795000D01*
X208876250Y-81795000D01*
X208536250Y-82265000D01*
G36*
X208536250Y-82265000D02*
G01*
X208196250Y-81795000D01*
X208876250Y-81795000D01*
X208536250Y-82265000D01*
G37*
X220912500Y-102707500D02*
X220912500Y-102435000D01*
X220912500Y-81992500D02*
X220912500Y-82265000D01*
X215150000Y-102707500D02*
X220912500Y-102707500D01*
X215150000Y-102707500D02*
X209387500Y-102707500D01*
X215150000Y-81992500D02*
X220912500Y-81992500D01*
X215150000Y-81992500D02*
X209387500Y-81992500D01*
X209387500Y-102707500D02*
X209387500Y-102435000D01*
X209387500Y-81992500D02*
X209387500Y-82265000D01*
%TO.C,U11*%
X172136250Y-82265000D02*
X171796250Y-81795000D01*
X172476250Y-81795000D01*
X172136250Y-82265000D01*
G36*
X172136250Y-82265000D02*
G01*
X171796250Y-81795000D01*
X172476250Y-81795000D01*
X172136250Y-82265000D01*
G37*
X184512500Y-102707500D02*
X184512500Y-102435000D01*
X184512500Y-81992500D02*
X184512500Y-82265000D01*
X178750000Y-102707500D02*
X184512500Y-102707500D01*
X178750000Y-102707500D02*
X172987500Y-102707500D01*
X178750000Y-81992500D02*
X184512500Y-81992500D01*
X178750000Y-81992500D02*
X172987500Y-81992500D01*
X172987500Y-102707500D02*
X172987500Y-102435000D01*
X172987500Y-81992500D02*
X172987500Y-82265000D01*
%TO.C,JP1*%
X170050000Y-137000000D02*
X170050000Y-134200000D01*
X170750000Y-133550000D02*
X171350000Y-133550000D01*
X171350000Y-137650000D02*
X170750000Y-137650000D01*
X172050000Y-134200000D02*
X172050000Y-137000000D01*
X170050000Y-134250000D02*
G75*
G02*
X170750000Y-133550000I700000J0D01*
G01*
X170750000Y-137650000D02*
G75*
G02*
X170050000Y-136950000I-1J699999D01*
G01*
X171350000Y-133550000D02*
G75*
G02*
X172050000Y-134250000I0J-700000D01*
G01*
X172050000Y-136950000D02*
G75*
G02*
X171350000Y-137650000I-699999J-1D01*
G01*
%TO.C,BUS1*%
X151370000Y-76189999D02*
X160000000Y-76190000D01*
X151370000Y-78790000D02*
X160000000Y-78790000D01*
X151370000Y-81329999D02*
X160000000Y-81330000D01*
X151370000Y-83870000D02*
X160000000Y-83870000D01*
X151370000Y-86410000D02*
X160000000Y-86409999D01*
X151370000Y-88950000D02*
X160000000Y-88949999D01*
X151370000Y-91489999D02*
X160000000Y-91490000D01*
X151370000Y-94029999D02*
X160000000Y-94030000D01*
X151370000Y-96570000D02*
X160000000Y-96570000D01*
X151370000Y-99110000D02*
X160000000Y-99109999D01*
X151370000Y-101650000D02*
X160000000Y-101650000D01*
X151370000Y-104189999D02*
X160000000Y-104190000D01*
X151370000Y-106730000D02*
X160000000Y-106730000D01*
X151370000Y-109270000D02*
X160000000Y-109269999D01*
X151370000Y-111810000D02*
X160000000Y-111809999D01*
X151370000Y-114349999D02*
X160000000Y-114350000D01*
X151370000Y-116889999D02*
X160000000Y-116890000D01*
X151370000Y-119430000D02*
X160000000Y-119430000D01*
X151370000Y-121970000D02*
X160000000Y-121969999D01*
X151370000Y-124510000D02*
X160000000Y-124510000D01*
X151370000Y-127049999D02*
X160000000Y-127050000D01*
X151370000Y-129590000D02*
X160000000Y-129590000D01*
X151370000Y-132130000D02*
X160000000Y-132129999D01*
X151370000Y-134670000D02*
X160000000Y-134669999D01*
X151370000Y-137209999D02*
X160000000Y-137210000D01*
X151370000Y-137328100D02*
X160000000Y-137328100D01*
X151370000Y-137446194D02*
X160000000Y-137446195D01*
X151370000Y-137564290D02*
X160000000Y-137564290D01*
X151370000Y-137682385D02*
X160000000Y-137682384D01*
X151370000Y-137800480D02*
X160000000Y-137800480D01*
X151370000Y-137918574D02*
X160000000Y-137918575D01*
X151370000Y-138036669D02*
X160000000Y-138036670D01*
X151370000Y-138154765D02*
X160000000Y-138154764D01*
X151370000Y-138272860D02*
X160000000Y-138272859D01*
X151370000Y-138390955D02*
X160000000Y-138390955D01*
X151370000Y-138509049D02*
X160000000Y-138509050D01*
X151370000Y-138627145D02*
X160000000Y-138627145D01*
X151370000Y-138745240D02*
X160000000Y-138745239D01*
X151370000Y-138863335D02*
X160000000Y-138863335D01*
X151370000Y-138981429D02*
X160000000Y-138981430D01*
X151370000Y-139099525D02*
X160000000Y-139099525D01*
X151370000Y-139217620D02*
X160000000Y-139217619D01*
X151370000Y-139335715D02*
X160000000Y-139335714D01*
X151370000Y-139453809D02*
X160000000Y-139453810D01*
X151370000Y-139571904D02*
X160000000Y-139571905D01*
X151370000Y-139690000D02*
X160000000Y-139690000D01*
X151370000Y-139810000D02*
X151370000Y-76189999D01*
X151370000Y-139810000D02*
X160000000Y-139809999D01*
X160000000Y-77159999D02*
X160410000Y-77160000D01*
X160000000Y-77879999D02*
X160409999Y-77879999D01*
X160000000Y-79700000D02*
X160409999Y-79700000D01*
X160000000Y-80420000D02*
X160409999Y-80420000D01*
X160000000Y-82240000D02*
X160410001Y-82240000D01*
X160000000Y-82960000D02*
X160410001Y-82960000D01*
X160000000Y-84779999D02*
X160410001Y-84779999D01*
X160000000Y-85500000D02*
X160410001Y-85500000D01*
X160000000Y-87319999D02*
X160409999Y-87319999D01*
X160000000Y-88039999D02*
X160410000Y-88039999D01*
X160000000Y-89860000D02*
X160409999Y-89860000D01*
X160000000Y-90579999D02*
X160410000Y-90580000D01*
X160000000Y-92400000D02*
X160410001Y-92400000D01*
X160000000Y-93120000D02*
X160409999Y-93120000D01*
X160000000Y-94940000D02*
X160410001Y-94940000D01*
X160000000Y-95660000D02*
X160410001Y-95660000D01*
X160000000Y-97479999D02*
X160410000Y-97479999D01*
X160000000Y-98199999D02*
X160410001Y-98199999D01*
X160000000Y-100019999D02*
X160410000Y-100020000D01*
X160000000Y-100739999D02*
X160409999Y-100739999D01*
X160000000Y-102560000D02*
X160410001Y-102560000D01*
X160000000Y-103280000D02*
X160409999Y-103280000D01*
X160000000Y-105100000D02*
X160410001Y-105100000D01*
X160000000Y-105820000D02*
X160410001Y-105820000D01*
X160000000Y-107639999D02*
X160410001Y-107639999D01*
X160000000Y-108360000D02*
X160410001Y-108360000D01*
X160000000Y-110179999D02*
X160409999Y-110179999D01*
X160000000Y-110899999D02*
X160410000Y-110899999D01*
X160000000Y-112720000D02*
X160409999Y-112720000D01*
X160000000Y-113440000D02*
X160410000Y-113440000D01*
X160000000Y-115260000D02*
X160410001Y-115260000D01*
X160000000Y-115980000D02*
X160410001Y-115980000D01*
X160000000Y-117800000D02*
X160410001Y-117800000D01*
X160000000Y-118520000D02*
X160410001Y-118520000D01*
X160000000Y-120339999D02*
X160409999Y-120339999D01*
X160000000Y-121059999D02*
X160410001Y-121059999D01*
X160000000Y-122880000D02*
X160410000Y-122880000D01*
X160000000Y-123599999D02*
X160409999Y-123599999D01*
X160000000Y-125420000D02*
X160410001Y-125420000D01*
X160000000Y-126140000D02*
X160409999Y-126140000D01*
X160000000Y-127960000D02*
X160410001Y-127960000D01*
X160000000Y-128680000D02*
X160410001Y-128680000D01*
X160000000Y-130499999D02*
X160410001Y-130499999D01*
X160000000Y-131220000D02*
X160410001Y-131220000D01*
X160000000Y-133039999D02*
X160409999Y-133039999D01*
X160000000Y-133759999D02*
X160409999Y-133759999D01*
X160000000Y-135580000D02*
X160409999Y-135580000D01*
X160000000Y-136300000D02*
X160410000Y-136300000D01*
X160000000Y-138120000D02*
X160410001Y-138120000D01*
X160000000Y-138840000D02*
X160410001Y-138840000D01*
X160000000Y-139809999D02*
X160000000Y-76190000D01*
X162510000Y-77879999D02*
X162950000Y-77879999D01*
X162510000Y-79700000D02*
X162950000Y-79700000D01*
X162510000Y-80420000D02*
X162950000Y-80420000D01*
X162510000Y-82240000D02*
X162950000Y-82240000D01*
X162510000Y-82960000D02*
X162950000Y-82960000D01*
X162510000Y-84779999D02*
X162950000Y-84779999D01*
X162510000Y-85500000D02*
X162950000Y-85500000D01*
X162510000Y-87319999D02*
X162950000Y-87319999D01*
X162510000Y-88039999D02*
X162950000Y-88039999D01*
X162510000Y-89860000D02*
X162950000Y-89860000D01*
X162510000Y-92400000D02*
X162950000Y-92400000D01*
X162510000Y-93120000D02*
X162950000Y-93120000D01*
X162510000Y-94940000D02*
X162950000Y-94940000D01*
X162510000Y-95660000D02*
X162950000Y-95660000D01*
X162510000Y-97479999D02*
X162950000Y-97479999D01*
X162510000Y-98199999D02*
X162950000Y-98199999D01*
X162510000Y-100739999D02*
X162950000Y-100739999D01*
X162510000Y-102560000D02*
X162950000Y-102560000D01*
X162510000Y-103280000D02*
X162950000Y-103280000D01*
X162510000Y-105100000D02*
X162950000Y-105100000D01*
X162510000Y-105820000D02*
X162950000Y-105820000D01*
X162510000Y-107639999D02*
X162950000Y-107639999D01*
X162510000Y-108360000D02*
X162950000Y-108360000D01*
X162510000Y-110179999D02*
X162950000Y-110179999D01*
X162510000Y-110899999D02*
X162950000Y-110899999D01*
X162510000Y-112720000D02*
X162950000Y-112720000D01*
X162510000Y-115260000D02*
X162950000Y-115260000D01*
X162510000Y-115980000D02*
X162950000Y-115980000D01*
X162510000Y-117800000D02*
X162950000Y-117800000D01*
X162510000Y-118520000D02*
X162950000Y-118520000D01*
X162510000Y-120339999D02*
X162950000Y-120339999D01*
X162510000Y-121059999D02*
X162950000Y-121059999D01*
X162510000Y-123599999D02*
X162950000Y-123599999D01*
X162510000Y-125420000D02*
X162950000Y-125420000D01*
X162510000Y-126140000D02*
X162950000Y-126140000D01*
X162510000Y-127960000D02*
X162950000Y-127960000D01*
X162510000Y-128680000D02*
X162950000Y-128680000D01*
X162510000Y-130499999D02*
X162950000Y-130499999D01*
X162510000Y-131220000D02*
X162950000Y-131220000D01*
X162510000Y-133039999D02*
X162950000Y-133039999D01*
X162510000Y-133759999D02*
X162950000Y-133759999D01*
X162510000Y-135580000D02*
X162950000Y-135580000D01*
X162510000Y-138120000D02*
X162890000Y-138119999D01*
X162510000Y-138840000D02*
X162890000Y-138839999D01*
X162510001Y-77160000D02*
X162950000Y-77159999D01*
X162510001Y-90580000D02*
X162950000Y-90579999D01*
X162510001Y-100020000D02*
X162950001Y-100020000D01*
X162510001Y-113440000D02*
X162950001Y-113440000D01*
X162510001Y-122880000D02*
X162950000Y-122880000D01*
X162510001Y-136300000D02*
X162950000Y-136300000D01*
X164000001Y-139809999D02*
X165110000Y-139810000D01*
X165110000Y-139810000D02*
X165110000Y-138480000D01*
%TO.C,U10*%
X190336250Y-82265000D02*
X189996250Y-81795000D01*
X190676250Y-81795000D01*
X190336250Y-82265000D01*
G36*
X190336250Y-82265000D02*
G01*
X189996250Y-81795000D01*
X190676250Y-81795000D01*
X190336250Y-82265000D01*
G37*
X202712500Y-102707500D02*
X202712500Y-102435000D01*
X202712500Y-81992500D02*
X202712500Y-82265000D01*
X196950000Y-102707500D02*
X202712500Y-102707500D01*
X196950000Y-102707500D02*
X191187500Y-102707500D01*
X196950000Y-81992500D02*
X202712500Y-81992500D01*
X196950000Y-81992500D02*
X191187500Y-81992500D01*
X191187500Y-102707500D02*
X191187500Y-102435000D01*
X191187500Y-81992500D02*
X191187500Y-82265000D01*
%TD*%
M02*
