%TF.GenerationSoftware,KiCad,Pcbnew,9.0.3*%
%TF.CreationDate,2025-10-17T20:45:24+02:00*%
%TF.ProjectId,DaewooSlotExpanderBoard,44616577-6f6f-4536-9c6f-74457870616e,1.1*%
%TF.SameCoordinates,Original*%
%TF.FileFunction,Soldermask,Top*%
%TF.FilePolarity,Negative*%
%FSLAX46Y46*%
G04 Gerber Fmt 4.6, Leading zero omitted, Abs format (unit mm)*
G04 Created by KiCad (PCBNEW 9.0.3) date 2025-10-17 20:45:24*
%MOMM*%
%LPD*%
G01*
G04 APERTURE LIST*
G04 Aperture macros list*
%AMRoundRect*
0 Rectangle with rounded corners*
0 $1 Rounding radius*
0 $2 $3 $4 $5 $6 $7 $8 $9 X,Y pos of 4 corners*
0 Add a 4 corners polygon primitive as box body*
4,1,4,$2,$3,$4,$5,$6,$7,$8,$9,$2,$3,0*
0 Add four circle primitives for the rounded corners*
1,1,$1+$1,$2,$3*
1,1,$1+$1,$4,$5*
1,1,$1+$1,$6,$7*
1,1,$1+$1,$8,$9*
0 Add four rect primitives between the rounded corners*
20,1,$1+$1,$2,$3,$4,$5,0*
20,1,$1+$1,$4,$5,$6,$7,0*
20,1,$1+$1,$6,$7,$8,$9,0*
20,1,$1+$1,$8,$9,$2,$3,0*%
%AMFreePoly0*
4,1,23,0.500000,-0.750000,0.000000,-0.750000,0.000000,-0.745722,-0.065263,-0.745722,-0.191342,-0.711940,-0.304381,-0.646677,-0.396677,-0.554381,-0.461940,-0.441342,-0.495722,-0.315263,-0.495722,-0.250000,-0.500000,-0.250000,-0.500000,0.250000,-0.495722,0.250000,-0.495722,0.315263,-0.461940,0.441342,-0.396677,0.554381,-0.304381,0.646677,-0.191342,0.711940,-0.065263,0.745722,0.000000,0.745722,
0.000000,0.750000,0.500000,0.750000,0.500000,-0.750000,0.500000,-0.750000,$1*%
%AMFreePoly1*
4,1,23,0.000000,0.745722,0.065263,0.745722,0.191342,0.711940,0.304381,0.646677,0.396677,0.554381,0.461940,0.441342,0.495722,0.315263,0.495722,0.250000,0.500000,0.250000,0.500000,-0.250000,0.495722,-0.250000,0.495722,-0.315263,0.461940,-0.441342,0.396677,-0.554381,0.304381,-0.646677,0.191342,-0.711940,0.065263,-0.745722,0.000000,-0.745722,0.000000,-0.750000,-0.500000,-0.750000,
-0.500000,0.750000,0.000000,0.750000,0.000000,0.745722,0.000000,0.745722,$1*%
G04 Aperture macros list end*
%ADD10C,0.000000*%
%ADD11FreePoly0,90.000000*%
%ADD12FreePoly1,90.000000*%
%ADD13RoundRect,0.250000X-0.550000X-0.550000X0.550000X-0.550000X0.550000X0.550000X-0.550000X0.550000X0*%
%ADD14C,1.600000*%
%ADD15C,1.524000*%
%ADD16R,1.700000X1.700000*%
%ADD17C,1.700000*%
G04 APERTURE END LIST*
D10*
%TO.C,JP2*%
G36*
X119330000Y-74270001D02*
G01*
X117830000Y-74270001D01*
X117830000Y-73970001D01*
X119330000Y-73970001D01*
X119330000Y-74270001D01*
G37*
%TD*%
D11*
%TO.C,JP2*%
X118580000Y-74770000D03*
D12*
X118580000Y-73470002D03*
%TD*%
D13*
%TO.C,U1*%
X127540000Y-81060001D03*
D14*
X127540000Y-83600001D03*
X127540000Y-86140000D03*
X127540000Y-88680001D03*
X127540000Y-91220001D03*
X127540000Y-93760001D03*
X127540000Y-96300001D03*
X127540000Y-98840002D03*
X127540000Y-101380001D03*
X127540000Y-103920001D03*
X127540000Y-106460001D03*
X127540000Y-109000000D03*
X127540000Y-111540001D03*
X127540000Y-114080001D03*
X142780000Y-114080001D03*
X142780000Y-111540001D03*
X142780000Y-109000001D03*
X142780000Y-106460001D03*
X142780000Y-103920001D03*
X142780000Y-101380001D03*
X142780000Y-98840001D03*
X142780000Y-96300001D03*
X142780000Y-93760001D03*
X142780000Y-91220001D03*
X142780000Y-88680001D03*
X142780000Y-86140001D03*
X142780000Y-83600001D03*
X142780000Y-81060001D03*
%TD*%
D15*
%TO.C,BUS_Expansion2*%
X161300000Y-128030000D03*
X156220001Y-128030000D03*
X161300000Y-125490000D03*
X156220000Y-125490000D03*
X161300000Y-122950001D03*
X156220000Y-122950000D03*
X161300000Y-120410000D03*
X156220000Y-120410000D03*
X161300000Y-117870000D03*
X156220000Y-117870001D03*
X161300000Y-115330000D03*
X156220000Y-115329999D03*
X161300000Y-112790000D03*
X156220000Y-112790000D03*
X161300000Y-110249999D03*
X156220000Y-110250000D03*
X161300000Y-107710000D03*
X156220000Y-107710000D03*
X161300000Y-105170000D03*
X156220001Y-105170000D03*
X161300000Y-102630000D03*
X156220000Y-102630000D03*
X161300000Y-100090001D03*
X156220000Y-100090000D03*
X161300000Y-97550000D03*
X156220000Y-97550000D03*
X161300000Y-95010000D03*
X156220000Y-95010001D03*
X161300000Y-92470000D03*
X156220000Y-92469999D03*
X161300000Y-89930001D03*
X156220000Y-89930000D03*
X161300000Y-87389999D03*
X156220000Y-87390000D03*
X161300000Y-84850000D03*
X156220000Y-84850000D03*
X161300000Y-82310000D03*
X156220001Y-82310000D03*
X161300000Y-79770000D03*
X156220000Y-79770000D03*
X161300000Y-77230001D03*
X156220000Y-77230000D03*
X161300000Y-74690000D03*
X156220000Y-74690000D03*
X161300000Y-72150000D03*
X156220000Y-72150001D03*
X161300000Y-69610000D03*
X156220000Y-69610000D03*
X161300000Y-67070001D03*
X156220000Y-67070000D03*
%TD*%
D16*
%TO.C,BUS_Expansion1*%
X113880001Y-128050000D03*
D17*
X111340000Y-128050000D03*
X113880000Y-125510001D03*
X111340000Y-125510001D03*
X113880000Y-122970001D03*
X111340000Y-122970001D03*
X113880000Y-120430001D03*
X111340000Y-120430001D03*
X113880001Y-117890001D03*
X111340000Y-117890001D03*
X113880000Y-115350000D03*
X111340000Y-115350000D03*
X113880000Y-112810001D03*
X111340000Y-112810001D03*
X113880000Y-110270001D03*
X111340000Y-110270001D03*
X113880001Y-107730001D03*
X111340000Y-107730001D03*
X113880001Y-105190000D03*
X111340000Y-105190000D03*
X113880000Y-102650001D03*
X111340000Y-102650001D03*
X113880000Y-100110001D03*
X111340000Y-100110001D03*
X113880001Y-97570001D03*
X111340000Y-97570001D03*
X113880001Y-95030001D03*
X111340000Y-95030000D03*
X113880000Y-92490000D03*
X111340000Y-92490000D03*
X113880000Y-89950001D03*
X111340000Y-89950001D03*
X113880000Y-87410001D03*
X111340000Y-87410001D03*
X113880001Y-84870001D03*
X111340000Y-84870001D03*
X113880001Y-82330000D03*
X111340000Y-82330000D03*
X113880000Y-79790001D03*
X111340000Y-79790001D03*
X113880000Y-77250001D03*
X111340000Y-77250001D03*
X113880001Y-74710001D03*
X111340000Y-74710001D03*
X113880000Y-72170000D03*
X111340000Y-72170000D03*
X113880000Y-69630001D03*
X111340000Y-69630001D03*
X113880000Y-67090001D03*
X111340000Y-67090001D03*
%TD*%
D13*
%TO.C,C3*%
X117880000Y-69020001D03*
D14*
X119880000Y-69020001D03*
%TD*%
M02*
