M48
; DRILL file {KiCad 9.0.3} date 2025-10-17T20:45:18+0200
; FORMAT={-:-/ absolute / inch / decimal}
; #@! TF.CreationDate,2025-10-17T20:45:18+02:00
; #@! TF.GenerationSoftware,Kicad,Pcbnew,9.0.3
; #@! TF.FileFunction,Plated,1,2,PTH
FMAT,2
INCH
; #@! TA.AperFunction,Plated,PTH,ViaDrill
T1C0.0118
; #@! TA.AperFunction,Plated,PTH,ComponentDrill
T2C0.0300
; #@! TA.AperFunction,Plated,PTH,ComponentDrill
T3C0.0315
; #@! TA.AperFunction,Plated,PTH,ComponentDrill
T4C0.0394
%
G90
G05
T1
X4.5866Y-4.5413
X4.5866Y-4.6417
X4.5866Y-4.7421
X4.5866Y-4.8425
X4.5866Y-4.9429
X4.5866Y-5.0433
X4.8071Y-4.4921
X4.8789Y-4.4921
X4.9213Y-3.5413
X4.9213Y-3.7165
X4.9508Y-4.4921
X5.0984Y-2.7185
X5.0984Y-3.1913
X5.1142Y-3.3917
X5.1142Y-3.4921
X5.1142Y-3.5925
X5.1142Y-3.7913
X5.1142Y-3.8917
X5.1142Y-3.9921
X5.1142Y-4.0906
X5.1142Y-4.1909
X5.1142Y-4.2913
X5.1142Y-4.3917
X5.1142Y-4.4921
X5.1506Y-2.7185
X5.1506Y-3.1913
X5.1575Y-3.7413
X5.1841Y-3.8917
X5.2028Y-2.7185
X5.2028Y-3.1913
X5.2264Y-4.1909
X5.2795Y-4.0413
X5.3041Y-3.9413
X5.3287Y-4.3917
X5.3504Y-3.3917
X5.3583Y-4.4167
X5.376Y-3.3413
X5.4016Y-3.2413
X5.4016Y-3.8167
X5.4272Y-3.0433
X5.4686Y-3.8413
X5.5276Y-3.3917
X5.5276Y-3.4921
X5.5276Y-3.5925
X5.5276Y-3.6909
X5.5276Y-3.7913
X5.5276Y-3.8917
X5.5276Y-3.9921
X5.5276Y-4.0906
X5.5276Y-4.1909
X5.5276Y-4.2913
X5.5276Y-4.3917
X5.5276Y-4.4921
X5.998Y-2.6457
X6.021Y-2.6691
X6.0728Y-2.685
X6.2106Y-4.0256
X6.2165Y-3.5335
X6.2165Y-3.6358
X6.2205Y-2.7402
X6.2205Y-2.8898
X6.252Y-3.813
X6.2579Y-3.0906
X6.2579Y-3.124
X6.2776Y-4.1406
X6.2854Y-2.7402
X6.3022Y-4.008
X6.439Y-2.689
X6.439Y-3.4961
X6.439Y-4.1791
X6.439Y-4.9921
T2
X6.1504Y-2.6406
X6.1504Y-2.7406
X6.1504Y-2.8406
X6.1504Y-2.9406
X6.1504Y-3.0406
X6.1504Y-3.1406
X6.1504Y-3.3406
X6.1504Y-3.4406
X6.1504Y-3.5406
X6.1504Y-3.6406
X6.1504Y-3.7406
X6.1504Y-3.8406
X6.1504Y-3.9406
X6.1504Y-4.0406
X6.1504Y-4.2406
X6.1504Y-4.3406
X6.1504Y-4.4406
X6.1504Y-4.5406
X6.1504Y-4.6406
X6.1504Y-4.7406
X6.1504Y-4.8406
X6.1504Y-4.9406
X6.1504Y-3.2406
X6.1504Y-4.1406
X6.1504Y-5.0406
X6.3504Y-2.6406
X6.3504Y-2.7406
X6.3504Y-2.8406
X6.3504Y-2.9406
X6.3504Y-3.0406
X6.3504Y-3.1406
X6.3504Y-3.2406
X6.3504Y-3.3406
X6.3504Y-3.4406
X6.3504Y-3.5406
X6.3504Y-3.6406
X6.3504Y-3.7406
X6.3504Y-3.8406
X6.3504Y-3.9406
X6.3504Y-4.0406
X6.3504Y-4.1406
X6.3504Y-4.2406
X6.3504Y-4.3406
X6.3504Y-4.4406
X6.3504Y-4.5406
X6.3504Y-4.6406
X6.3504Y-4.7406
X6.3504Y-4.8406
X6.3504Y-4.9406
X6.3504Y-5.0406
T3
X4.6409Y-2.7173
X4.7197Y-2.7173
X5.0213Y-3.1913
X5.0213Y-3.2913
X5.0213Y-3.3913
X5.0213Y-3.4913
X5.0213Y-3.5913
X5.0213Y-3.6913
X5.0213Y-3.7913
X5.0213Y-3.8913
X5.0213Y-3.9913
X5.0213Y-4.0913
X5.0213Y-4.1913
X5.0213Y-4.2913
X5.0213Y-4.3913
X5.0213Y-4.4913
X5.6213Y-3.1913
X5.6213Y-3.2913
X5.6213Y-3.3913
X5.6213Y-3.4913
X5.6213Y-3.5913
X5.6213Y-3.6913
X5.6213Y-3.7913
X5.6213Y-3.8913
X5.6213Y-3.9913
X5.6213Y-4.0913
X5.6213Y-4.1913
X5.6213Y-4.2913
X5.6213Y-4.3913
X5.6213Y-4.4913
T4
X4.3835Y-2.6413
X4.3835Y-2.7413
X4.3835Y-2.8413
X4.3835Y-2.9413
X4.3835Y-3.0413
X4.3835Y-3.1413
X4.3835Y-3.2413
X4.3835Y-3.3413
X4.3835Y-3.4413
X4.3835Y-3.5413
X4.3835Y-3.6413
X4.3835Y-3.7413
X4.3835Y-3.8413
X4.3835Y-3.9413
X4.3835Y-4.0413
X4.3835Y-4.1413
X4.3835Y-4.2413
X4.3835Y-4.3413
X4.3835Y-4.4413
X4.3835Y-4.5413
X4.3835Y-4.6413
X4.3835Y-4.7413
X4.3835Y-4.8413
X4.3835Y-4.9413
X4.3835Y-5.0413
X4.4835Y-2.6413
X4.4835Y-2.7413
X4.4835Y-2.8413
X4.4835Y-3.0413
X4.4835Y-3.1413
X4.4835Y-3.4413
X4.4835Y-3.5413
X4.4835Y-3.6413
X4.4835Y-3.9413
X4.4835Y-4.0413
X4.4835Y-4.3413
X4.4835Y-4.4413
X4.4835Y-4.5413
X4.4835Y-4.7413
X4.4835Y-4.8413
X4.4835Y-4.9413
X4.4835Y-2.9413
X4.4835Y-3.2413
X4.4835Y-3.3413
X4.4835Y-3.7413
X4.4835Y-3.8413
X4.4835Y-4.1413
X4.4835Y-4.2413
X4.4835Y-4.6413
X4.4835Y-5.0413
M30
