%TF.GenerationSoftware,KiCad,Pcbnew,9.0.3*%
%TF.CreationDate,2025-10-17T20:45:24+02:00*%
%TF.ProjectId,DaewooSlotExpanderBoard,44616577-6f6f-4536-9c6f-74457870616e,1.1*%
%TF.SameCoordinates,Original*%
%TF.FileFunction,Legend,Bot*%
%TF.FilePolarity,Positive*%
%FSLAX46Y46*%
G04 Gerber Fmt 4.6, Leading zero omitted, Abs format (unit mm)*
G04 Created by KiCad (PCBNEW 9.0.3) date 2025-10-17 20:45:24*
%MOMM*%
%LPD*%
G01*
G04 APERTURE LIST*
%ADD10C,0.300000*%
%ADD11C,0.200000*%
%ADD12C,0.150000*%
%ADD13C,0.120000*%
G04 APERTURE END LIST*
D10*
X124520002Y-97550000D02*
G75*
G02*
X120520002Y-97550000I-2000000J0D01*
G01*
X120520002Y-97550000D02*
G75*
G02*
X124520002Y-97550000I2000000J0D01*
G01*
D11*
X135562422Y-99105089D02*
X136181469Y-99538422D01*
X135562422Y-99847946D02*
X136862422Y-99847946D01*
X136862422Y-99847946D02*
X136862422Y-99352708D01*
X136862422Y-99352708D02*
X136800517Y-99228898D01*
X136800517Y-99228898D02*
X136738612Y-99166993D01*
X136738612Y-99166993D02*
X136614803Y-99105089D01*
X136614803Y-99105089D02*
X136429088Y-99105089D01*
X136429088Y-99105089D02*
X136305279Y-99166993D01*
X136305279Y-99166993D02*
X136243374Y-99228898D01*
X136243374Y-99228898D02*
X136181469Y-99352708D01*
X136181469Y-99352708D02*
X136181469Y-99847946D01*
X136243374Y-98114612D02*
X136181469Y-97928898D01*
X136181469Y-97928898D02*
X136119565Y-97866993D01*
X136119565Y-97866993D02*
X135995755Y-97805089D01*
X135995755Y-97805089D02*
X135810041Y-97805089D01*
X135810041Y-97805089D02*
X135686231Y-97866993D01*
X135686231Y-97866993D02*
X135624327Y-97928898D01*
X135624327Y-97928898D02*
X135562422Y-98052708D01*
X135562422Y-98052708D02*
X135562422Y-98547946D01*
X135562422Y-98547946D02*
X136862422Y-98547946D01*
X136862422Y-98547946D02*
X136862422Y-98114612D01*
X136862422Y-98114612D02*
X136800517Y-97990803D01*
X136800517Y-97990803D02*
X136738612Y-97928898D01*
X136738612Y-97928898D02*
X136614803Y-97866993D01*
X136614803Y-97866993D02*
X136490993Y-97866993D01*
X136490993Y-97866993D02*
X136367184Y-97928898D01*
X136367184Y-97928898D02*
X136305279Y-97990803D01*
X136305279Y-97990803D02*
X136243374Y-98114612D01*
X136243374Y-98114612D02*
X136243374Y-98547946D01*
X135624327Y-97309850D02*
X135562422Y-97124136D01*
X135562422Y-97124136D02*
X135562422Y-96814612D01*
X135562422Y-96814612D02*
X135624327Y-96690803D01*
X135624327Y-96690803D02*
X135686231Y-96628898D01*
X135686231Y-96628898D02*
X135810041Y-96566993D01*
X135810041Y-96566993D02*
X135933850Y-96566993D01*
X135933850Y-96566993D02*
X136057660Y-96628898D01*
X136057660Y-96628898D02*
X136119565Y-96690803D01*
X136119565Y-96690803D02*
X136181469Y-96814612D01*
X136181469Y-96814612D02*
X136243374Y-97062231D01*
X136243374Y-97062231D02*
X136305279Y-97186041D01*
X136305279Y-97186041D02*
X136367184Y-97247946D01*
X136367184Y-97247946D02*
X136490993Y-97309850D01*
X136490993Y-97309850D02*
X136614803Y-97309850D01*
X136614803Y-97309850D02*
X136738612Y-97247946D01*
X136738612Y-97247946D02*
X136800517Y-97186041D01*
X136800517Y-97186041D02*
X136862422Y-97062231D01*
X136862422Y-97062231D02*
X136862422Y-96752708D01*
X136862422Y-96752708D02*
X136800517Y-96566993D01*
X135686231Y-95266994D02*
X135624327Y-95328898D01*
X135624327Y-95328898D02*
X135562422Y-95514613D01*
X135562422Y-95514613D02*
X135562422Y-95638422D01*
X135562422Y-95638422D02*
X135624327Y-95824136D01*
X135624327Y-95824136D02*
X135748136Y-95947946D01*
X135748136Y-95947946D02*
X135871946Y-96009851D01*
X135871946Y-96009851D02*
X136119565Y-96071755D01*
X136119565Y-96071755D02*
X136305279Y-96071755D01*
X136305279Y-96071755D02*
X136552898Y-96009851D01*
X136552898Y-96009851D02*
X136676707Y-95947946D01*
X136676707Y-95947946D02*
X136800517Y-95824136D01*
X136800517Y-95824136D02*
X136862422Y-95638422D01*
X136862422Y-95638422D02*
X136862422Y-95514613D01*
X136862422Y-95514613D02*
X136800517Y-95328898D01*
X136800517Y-95328898D02*
X136738612Y-95266994D01*
X134645685Y-99909850D02*
X134707590Y-99847946D01*
X134707590Y-99847946D02*
X134769495Y-99724136D01*
X134769495Y-99724136D02*
X134769495Y-99414612D01*
X134769495Y-99414612D02*
X134707590Y-99290803D01*
X134707590Y-99290803D02*
X134645685Y-99228898D01*
X134645685Y-99228898D02*
X134521876Y-99166993D01*
X134521876Y-99166993D02*
X134398066Y-99166993D01*
X134398066Y-99166993D02*
X134212352Y-99228898D01*
X134212352Y-99228898D02*
X133469495Y-99971755D01*
X133469495Y-99971755D02*
X133469495Y-99166993D01*
X134769495Y-98362232D02*
X134769495Y-98238422D01*
X134769495Y-98238422D02*
X134707590Y-98114613D01*
X134707590Y-98114613D02*
X134645685Y-98052708D01*
X134645685Y-98052708D02*
X134521876Y-97990803D01*
X134521876Y-97990803D02*
X134274257Y-97928898D01*
X134274257Y-97928898D02*
X133964733Y-97928898D01*
X133964733Y-97928898D02*
X133717114Y-97990803D01*
X133717114Y-97990803D02*
X133593304Y-98052708D01*
X133593304Y-98052708D02*
X133531400Y-98114613D01*
X133531400Y-98114613D02*
X133469495Y-98238422D01*
X133469495Y-98238422D02*
X133469495Y-98362232D01*
X133469495Y-98362232D02*
X133531400Y-98486041D01*
X133531400Y-98486041D02*
X133593304Y-98547946D01*
X133593304Y-98547946D02*
X133717114Y-98609851D01*
X133717114Y-98609851D02*
X133964733Y-98671755D01*
X133964733Y-98671755D02*
X134274257Y-98671755D01*
X134274257Y-98671755D02*
X134521876Y-98609851D01*
X134521876Y-98609851D02*
X134645685Y-98547946D01*
X134645685Y-98547946D02*
X134707590Y-98486041D01*
X134707590Y-98486041D02*
X134769495Y-98362232D01*
X134645685Y-97433660D02*
X134707590Y-97371756D01*
X134707590Y-97371756D02*
X134769495Y-97247946D01*
X134769495Y-97247946D02*
X134769495Y-96938422D01*
X134769495Y-96938422D02*
X134707590Y-96814613D01*
X134707590Y-96814613D02*
X134645685Y-96752708D01*
X134645685Y-96752708D02*
X134521876Y-96690803D01*
X134521876Y-96690803D02*
X134398066Y-96690803D01*
X134398066Y-96690803D02*
X134212352Y-96752708D01*
X134212352Y-96752708D02*
X133469495Y-97495565D01*
X133469495Y-97495565D02*
X133469495Y-96690803D01*
X134769495Y-95514613D02*
X134769495Y-96133661D01*
X134769495Y-96133661D02*
X134150447Y-96195565D01*
X134150447Y-96195565D02*
X134212352Y-96133661D01*
X134212352Y-96133661D02*
X134274257Y-96009851D01*
X134274257Y-96009851D02*
X134274257Y-95700327D01*
X134274257Y-95700327D02*
X134212352Y-95576518D01*
X134212352Y-95576518D02*
X134150447Y-95514613D01*
X134150447Y-95514613D02*
X134026638Y-95452708D01*
X134026638Y-95452708D02*
X133717114Y-95452708D01*
X133717114Y-95452708D02*
X133593304Y-95514613D01*
X133593304Y-95514613D02*
X133531400Y-95576518D01*
X133531400Y-95576518D02*
X133469495Y-95700327D01*
X133469495Y-95700327D02*
X133469495Y-96009851D01*
X133469495Y-96009851D02*
X133531400Y-96133661D01*
X133531400Y-96133661D02*
X133593304Y-96195565D01*
D10*
X123484838Y-98438346D02*
X121284838Y-97914536D01*
X121284838Y-97914536D02*
X122856266Y-97495489D01*
X122856266Y-97495489D02*
X121284838Y-97076441D01*
X121284838Y-97076441D02*
X123484838Y-96552632D01*
X148610361Y-119146444D02*
X150610361Y-119146444D01*
X150610361Y-119146444D02*
X150610361Y-118670254D01*
X150610361Y-118670254D02*
X150515123Y-118384539D01*
X150515123Y-118384539D02*
X150324647Y-118194063D01*
X150324647Y-118194063D02*
X150134171Y-118098825D01*
X150134171Y-118098825D02*
X149753219Y-118003587D01*
X149753219Y-118003587D02*
X149467504Y-118003587D01*
X149467504Y-118003587D02*
X149086552Y-118098825D01*
X149086552Y-118098825D02*
X148896076Y-118194063D01*
X148896076Y-118194063D02*
X148705600Y-118384539D01*
X148705600Y-118384539D02*
X148610361Y-118670254D01*
X148610361Y-118670254D02*
X148610361Y-119146444D01*
X148610361Y-116289301D02*
X149657980Y-116289301D01*
X149657980Y-116289301D02*
X149848457Y-116384539D01*
X149848457Y-116384539D02*
X149943695Y-116575015D01*
X149943695Y-116575015D02*
X149943695Y-116955968D01*
X149943695Y-116955968D02*
X149848457Y-117146444D01*
X148705600Y-116289301D02*
X148610361Y-116479777D01*
X148610361Y-116479777D02*
X148610361Y-116955968D01*
X148610361Y-116955968D02*
X148705600Y-117146444D01*
X148705600Y-117146444D02*
X148896076Y-117241682D01*
X148896076Y-117241682D02*
X149086552Y-117241682D01*
X149086552Y-117241682D02*
X149277028Y-117146444D01*
X149277028Y-117146444D02*
X149372266Y-116955968D01*
X149372266Y-116955968D02*
X149372266Y-116479777D01*
X149372266Y-116479777D02*
X149467504Y-116289301D01*
X148705600Y-114575015D02*
X148610361Y-114765491D01*
X148610361Y-114765491D02*
X148610361Y-115146444D01*
X148610361Y-115146444D02*
X148705600Y-115336920D01*
X148705600Y-115336920D02*
X148896076Y-115432158D01*
X148896076Y-115432158D02*
X149657980Y-115432158D01*
X149657980Y-115432158D02*
X149848457Y-115336920D01*
X149848457Y-115336920D02*
X149943695Y-115146444D01*
X149943695Y-115146444D02*
X149943695Y-114765491D01*
X149943695Y-114765491D02*
X149848457Y-114575015D01*
X149848457Y-114575015D02*
X149657980Y-114479777D01*
X149657980Y-114479777D02*
X149467504Y-114479777D01*
X149467504Y-114479777D02*
X149277028Y-115432158D01*
X149943695Y-113813110D02*
X148610361Y-113432158D01*
X148610361Y-113432158D02*
X149562742Y-113051205D01*
X149562742Y-113051205D02*
X148610361Y-112670253D01*
X148610361Y-112670253D02*
X149943695Y-112289301D01*
X148610361Y-111241682D02*
X148705600Y-111432158D01*
X148705600Y-111432158D02*
X148800838Y-111527396D01*
X148800838Y-111527396D02*
X148991314Y-111622634D01*
X148991314Y-111622634D02*
X149562742Y-111622634D01*
X149562742Y-111622634D02*
X149753219Y-111527396D01*
X149753219Y-111527396D02*
X149848457Y-111432158D01*
X149848457Y-111432158D02*
X149943695Y-111241682D01*
X149943695Y-111241682D02*
X149943695Y-110955967D01*
X149943695Y-110955967D02*
X149848457Y-110765491D01*
X149848457Y-110765491D02*
X149753219Y-110670253D01*
X149753219Y-110670253D02*
X149562742Y-110575015D01*
X149562742Y-110575015D02*
X148991314Y-110575015D01*
X148991314Y-110575015D02*
X148800838Y-110670253D01*
X148800838Y-110670253D02*
X148705600Y-110765491D01*
X148705600Y-110765491D02*
X148610361Y-110955967D01*
X148610361Y-110955967D02*
X148610361Y-111241682D01*
X148610361Y-109432158D02*
X148705600Y-109622634D01*
X148705600Y-109622634D02*
X148800838Y-109717872D01*
X148800838Y-109717872D02*
X148991314Y-109813110D01*
X148991314Y-109813110D02*
X149562742Y-109813110D01*
X149562742Y-109813110D02*
X149753219Y-109717872D01*
X149753219Y-109717872D02*
X149848457Y-109622634D01*
X149848457Y-109622634D02*
X149943695Y-109432158D01*
X149943695Y-109432158D02*
X149943695Y-109146443D01*
X149943695Y-109146443D02*
X149848457Y-108955967D01*
X149848457Y-108955967D02*
X149753219Y-108860729D01*
X149753219Y-108860729D02*
X149562742Y-108765491D01*
X149562742Y-108765491D02*
X148991314Y-108765491D01*
X148991314Y-108765491D02*
X148800838Y-108860729D01*
X148800838Y-108860729D02*
X148705600Y-108955967D01*
X148705600Y-108955967D02*
X148610361Y-109146443D01*
X148610361Y-109146443D02*
X148610361Y-109432158D01*
X148705600Y-106479776D02*
X148610361Y-106194062D01*
X148610361Y-106194062D02*
X148610361Y-105717871D01*
X148610361Y-105717871D02*
X148705600Y-105527395D01*
X148705600Y-105527395D02*
X148800838Y-105432157D01*
X148800838Y-105432157D02*
X148991314Y-105336919D01*
X148991314Y-105336919D02*
X149181790Y-105336919D01*
X149181790Y-105336919D02*
X149372266Y-105432157D01*
X149372266Y-105432157D02*
X149467504Y-105527395D01*
X149467504Y-105527395D02*
X149562742Y-105717871D01*
X149562742Y-105717871D02*
X149657980Y-106098824D01*
X149657980Y-106098824D02*
X149753219Y-106289300D01*
X149753219Y-106289300D02*
X149848457Y-106384538D01*
X149848457Y-106384538D02*
X150038933Y-106479776D01*
X150038933Y-106479776D02*
X150229409Y-106479776D01*
X150229409Y-106479776D02*
X150419885Y-106384538D01*
X150419885Y-106384538D02*
X150515123Y-106289300D01*
X150515123Y-106289300D02*
X150610361Y-106098824D01*
X150610361Y-106098824D02*
X150610361Y-105622633D01*
X150610361Y-105622633D02*
X150515123Y-105336919D01*
X148610361Y-104194062D02*
X148705600Y-104384538D01*
X148705600Y-104384538D02*
X148896076Y-104479776D01*
X148896076Y-104479776D02*
X150610361Y-104479776D01*
X148610361Y-103146443D02*
X148705600Y-103336919D01*
X148705600Y-103336919D02*
X148800838Y-103432157D01*
X148800838Y-103432157D02*
X148991314Y-103527395D01*
X148991314Y-103527395D02*
X149562742Y-103527395D01*
X149562742Y-103527395D02*
X149753219Y-103432157D01*
X149753219Y-103432157D02*
X149848457Y-103336919D01*
X149848457Y-103336919D02*
X149943695Y-103146443D01*
X149943695Y-103146443D02*
X149943695Y-102860728D01*
X149943695Y-102860728D02*
X149848457Y-102670252D01*
X149848457Y-102670252D02*
X149753219Y-102575014D01*
X149753219Y-102575014D02*
X149562742Y-102479776D01*
X149562742Y-102479776D02*
X148991314Y-102479776D01*
X148991314Y-102479776D02*
X148800838Y-102575014D01*
X148800838Y-102575014D02*
X148705600Y-102670252D01*
X148705600Y-102670252D02*
X148610361Y-102860728D01*
X148610361Y-102860728D02*
X148610361Y-103146443D01*
X149943695Y-101908347D02*
X149943695Y-101146443D01*
X150610361Y-101622633D02*
X148896076Y-101622633D01*
X148896076Y-101622633D02*
X148705600Y-101527395D01*
X148705600Y-101527395D02*
X148610361Y-101336919D01*
X148610361Y-101336919D02*
X148610361Y-101146443D01*
X149657980Y-98955966D02*
X149657980Y-98289299D01*
X148610361Y-98003585D02*
X148610361Y-98955966D01*
X148610361Y-98955966D02*
X150610361Y-98955966D01*
X150610361Y-98955966D02*
X150610361Y-98003585D01*
X148610361Y-97336918D02*
X149943695Y-96289299D01*
X149943695Y-97336918D02*
X148610361Y-96289299D01*
X149943695Y-95527394D02*
X147943695Y-95527394D01*
X149848457Y-95527394D02*
X149943695Y-95336918D01*
X149943695Y-95336918D02*
X149943695Y-94955965D01*
X149943695Y-94955965D02*
X149848457Y-94765489D01*
X149848457Y-94765489D02*
X149753219Y-94670251D01*
X149753219Y-94670251D02*
X149562742Y-94575013D01*
X149562742Y-94575013D02*
X148991314Y-94575013D01*
X148991314Y-94575013D02*
X148800838Y-94670251D01*
X148800838Y-94670251D02*
X148705600Y-94765489D01*
X148705600Y-94765489D02*
X148610361Y-94955965D01*
X148610361Y-94955965D02*
X148610361Y-95336918D01*
X148610361Y-95336918D02*
X148705600Y-95527394D01*
X148610361Y-92860727D02*
X149657980Y-92860727D01*
X149657980Y-92860727D02*
X149848457Y-92955965D01*
X149848457Y-92955965D02*
X149943695Y-93146441D01*
X149943695Y-93146441D02*
X149943695Y-93527394D01*
X149943695Y-93527394D02*
X149848457Y-93717870D01*
X148705600Y-92860727D02*
X148610361Y-93051203D01*
X148610361Y-93051203D02*
X148610361Y-93527394D01*
X148610361Y-93527394D02*
X148705600Y-93717870D01*
X148705600Y-93717870D02*
X148896076Y-93813108D01*
X148896076Y-93813108D02*
X149086552Y-93813108D01*
X149086552Y-93813108D02*
X149277028Y-93717870D01*
X149277028Y-93717870D02*
X149372266Y-93527394D01*
X149372266Y-93527394D02*
X149372266Y-93051203D01*
X149372266Y-93051203D02*
X149467504Y-92860727D01*
X149943695Y-91908346D02*
X148610361Y-91908346D01*
X149753219Y-91908346D02*
X149848457Y-91813108D01*
X149848457Y-91813108D02*
X149943695Y-91622632D01*
X149943695Y-91622632D02*
X149943695Y-91336917D01*
X149943695Y-91336917D02*
X149848457Y-91146441D01*
X149848457Y-91146441D02*
X149657980Y-91051203D01*
X149657980Y-91051203D02*
X148610361Y-91051203D01*
X148610361Y-89241679D02*
X150610361Y-89241679D01*
X148705600Y-89241679D02*
X148610361Y-89432155D01*
X148610361Y-89432155D02*
X148610361Y-89813108D01*
X148610361Y-89813108D02*
X148705600Y-90003584D01*
X148705600Y-90003584D02*
X148800838Y-90098822D01*
X148800838Y-90098822D02*
X148991314Y-90194060D01*
X148991314Y-90194060D02*
X149562742Y-90194060D01*
X149562742Y-90194060D02*
X149753219Y-90098822D01*
X149753219Y-90098822D02*
X149848457Y-90003584D01*
X149848457Y-90003584D02*
X149943695Y-89813108D01*
X149943695Y-89813108D02*
X149943695Y-89432155D01*
X149943695Y-89432155D02*
X149848457Y-89241679D01*
X148705600Y-87527393D02*
X148610361Y-87717869D01*
X148610361Y-87717869D02*
X148610361Y-88098822D01*
X148610361Y-88098822D02*
X148705600Y-88289298D01*
X148705600Y-88289298D02*
X148896076Y-88384536D01*
X148896076Y-88384536D02*
X149657980Y-88384536D01*
X149657980Y-88384536D02*
X149848457Y-88289298D01*
X149848457Y-88289298D02*
X149943695Y-88098822D01*
X149943695Y-88098822D02*
X149943695Y-87717869D01*
X149943695Y-87717869D02*
X149848457Y-87527393D01*
X149848457Y-87527393D02*
X149657980Y-87432155D01*
X149657980Y-87432155D02*
X149467504Y-87432155D01*
X149467504Y-87432155D02*
X149277028Y-88384536D01*
X148610361Y-86575012D02*
X149943695Y-86575012D01*
X149562742Y-86575012D02*
X149753219Y-86479774D01*
X149753219Y-86479774D02*
X149848457Y-86384536D01*
X149848457Y-86384536D02*
X149943695Y-86194060D01*
X149943695Y-86194060D02*
X149943695Y-86003583D01*
X149657980Y-83146440D02*
X149562742Y-82860726D01*
X149562742Y-82860726D02*
X149467504Y-82765488D01*
X149467504Y-82765488D02*
X149277028Y-82670250D01*
X149277028Y-82670250D02*
X148991314Y-82670250D01*
X148991314Y-82670250D02*
X148800838Y-82765488D01*
X148800838Y-82765488D02*
X148705600Y-82860726D01*
X148705600Y-82860726D02*
X148610361Y-83051202D01*
X148610361Y-83051202D02*
X148610361Y-83813107D01*
X148610361Y-83813107D02*
X150610361Y-83813107D01*
X150610361Y-83813107D02*
X150610361Y-83146440D01*
X150610361Y-83146440D02*
X150515123Y-82955964D01*
X150515123Y-82955964D02*
X150419885Y-82860726D01*
X150419885Y-82860726D02*
X150229409Y-82765488D01*
X150229409Y-82765488D02*
X150038933Y-82765488D01*
X150038933Y-82765488D02*
X149848457Y-82860726D01*
X149848457Y-82860726D02*
X149753219Y-82955964D01*
X149753219Y-82955964D02*
X149657980Y-83146440D01*
X149657980Y-83146440D02*
X149657980Y-83813107D01*
X148610361Y-81527393D02*
X148705600Y-81717869D01*
X148705600Y-81717869D02*
X148800838Y-81813107D01*
X148800838Y-81813107D02*
X148991314Y-81908345D01*
X148991314Y-81908345D02*
X149562742Y-81908345D01*
X149562742Y-81908345D02*
X149753219Y-81813107D01*
X149753219Y-81813107D02*
X149848457Y-81717869D01*
X149848457Y-81717869D02*
X149943695Y-81527393D01*
X149943695Y-81527393D02*
X149943695Y-81241678D01*
X149943695Y-81241678D02*
X149848457Y-81051202D01*
X149848457Y-81051202D02*
X149753219Y-80955964D01*
X149753219Y-80955964D02*
X149562742Y-80860726D01*
X149562742Y-80860726D02*
X148991314Y-80860726D01*
X148991314Y-80860726D02*
X148800838Y-80955964D01*
X148800838Y-80955964D02*
X148705600Y-81051202D01*
X148705600Y-81051202D02*
X148610361Y-81241678D01*
X148610361Y-81241678D02*
X148610361Y-81527393D01*
X148610361Y-79146440D02*
X149657980Y-79146440D01*
X149657980Y-79146440D02*
X149848457Y-79241678D01*
X149848457Y-79241678D02*
X149943695Y-79432154D01*
X149943695Y-79432154D02*
X149943695Y-79813107D01*
X149943695Y-79813107D02*
X149848457Y-80003583D01*
X148705600Y-79146440D02*
X148610361Y-79336916D01*
X148610361Y-79336916D02*
X148610361Y-79813107D01*
X148610361Y-79813107D02*
X148705600Y-80003583D01*
X148705600Y-80003583D02*
X148896076Y-80098821D01*
X148896076Y-80098821D02*
X149086552Y-80098821D01*
X149086552Y-80098821D02*
X149277028Y-80003583D01*
X149277028Y-80003583D02*
X149372266Y-79813107D01*
X149372266Y-79813107D02*
X149372266Y-79336916D01*
X149372266Y-79336916D02*
X149467504Y-79146440D01*
X148610361Y-78194059D02*
X149943695Y-78194059D01*
X149562742Y-78194059D02*
X149753219Y-78098821D01*
X149753219Y-78098821D02*
X149848457Y-78003583D01*
X149848457Y-78003583D02*
X149943695Y-77813107D01*
X149943695Y-77813107D02*
X149943695Y-77622630D01*
X148610361Y-76098821D02*
X150610361Y-76098821D01*
X148705600Y-76098821D02*
X148610361Y-76289297D01*
X148610361Y-76289297D02*
X148610361Y-76670250D01*
X148610361Y-76670250D02*
X148705600Y-76860726D01*
X148705600Y-76860726D02*
X148800838Y-76955964D01*
X148800838Y-76955964D02*
X148991314Y-77051202D01*
X148991314Y-77051202D02*
X149562742Y-77051202D01*
X149562742Y-77051202D02*
X149753219Y-76955964D01*
X149753219Y-76955964D02*
X149848457Y-76860726D01*
X149848457Y-76860726D02*
X149943695Y-76670250D01*
X149943695Y-76670250D02*
X149943695Y-76289297D01*
X149943695Y-76289297D02*
X149848457Y-76098821D01*
D11*
X163671209Y-104726041D02*
X163618828Y-104568898D01*
X163618828Y-104568898D02*
X163566447Y-104516517D01*
X163566447Y-104516517D02*
X163461685Y-104464136D01*
X163461685Y-104464136D02*
X163304542Y-104464136D01*
X163304542Y-104464136D02*
X163199780Y-104516517D01*
X163199780Y-104516517D02*
X163147400Y-104568898D01*
X163147400Y-104568898D02*
X163095019Y-104673660D01*
X163095019Y-104673660D02*
X163095019Y-105092708D01*
X163095019Y-105092708D02*
X164195019Y-105092708D01*
X164195019Y-105092708D02*
X164195019Y-104726041D01*
X164195019Y-104726041D02*
X164142638Y-104621279D01*
X164142638Y-104621279D02*
X164090257Y-104568898D01*
X164090257Y-104568898D02*
X163985495Y-104516517D01*
X163985495Y-104516517D02*
X163880733Y-104516517D01*
X163880733Y-104516517D02*
X163775971Y-104568898D01*
X163775971Y-104568898D02*
X163723590Y-104621279D01*
X163723590Y-104621279D02*
X163671209Y-104726041D01*
X163671209Y-104726041D02*
X163671209Y-105092708D01*
X163095019Y-103835565D02*
X163147400Y-103940327D01*
X163147400Y-103940327D02*
X163199780Y-103992708D01*
X163199780Y-103992708D02*
X163304542Y-104045089D01*
X163304542Y-104045089D02*
X163618828Y-104045089D01*
X163618828Y-104045089D02*
X163723590Y-103992708D01*
X163723590Y-103992708D02*
X163775971Y-103940327D01*
X163775971Y-103940327D02*
X163828352Y-103835565D01*
X163828352Y-103835565D02*
X163828352Y-103678422D01*
X163828352Y-103678422D02*
X163775971Y-103573660D01*
X163775971Y-103573660D02*
X163723590Y-103521279D01*
X163723590Y-103521279D02*
X163618828Y-103468898D01*
X163618828Y-103468898D02*
X163304542Y-103468898D01*
X163304542Y-103468898D02*
X163199780Y-103521279D01*
X163199780Y-103521279D02*
X163147400Y-103573660D01*
X163147400Y-103573660D02*
X163095019Y-103678422D01*
X163095019Y-103678422D02*
X163095019Y-103835565D01*
X163095019Y-102526041D02*
X163671209Y-102526041D01*
X163671209Y-102526041D02*
X163775971Y-102578422D01*
X163775971Y-102578422D02*
X163828352Y-102683184D01*
X163828352Y-102683184D02*
X163828352Y-102892708D01*
X163828352Y-102892708D02*
X163775971Y-102997470D01*
X163147400Y-102526041D02*
X163095019Y-102630803D01*
X163095019Y-102630803D02*
X163095019Y-102892708D01*
X163095019Y-102892708D02*
X163147400Y-102997470D01*
X163147400Y-102997470D02*
X163252161Y-103049851D01*
X163252161Y-103049851D02*
X163356923Y-103049851D01*
X163356923Y-103049851D02*
X163461685Y-102997470D01*
X163461685Y-102997470D02*
X163514066Y-102892708D01*
X163514066Y-102892708D02*
X163514066Y-102630803D01*
X163514066Y-102630803D02*
X163566447Y-102526041D01*
X163095019Y-102002232D02*
X163828352Y-102002232D01*
X163618828Y-102002232D02*
X163723590Y-101949851D01*
X163723590Y-101949851D02*
X163775971Y-101897470D01*
X163775971Y-101897470D02*
X163828352Y-101792708D01*
X163828352Y-101792708D02*
X163828352Y-101687946D01*
X163095019Y-100849851D02*
X164195019Y-100849851D01*
X163147400Y-100849851D02*
X163095019Y-100954613D01*
X163095019Y-100954613D02*
X163095019Y-101164137D01*
X163095019Y-101164137D02*
X163147400Y-101268899D01*
X163147400Y-101268899D02*
X163199780Y-101321280D01*
X163199780Y-101321280D02*
X163304542Y-101373661D01*
X163304542Y-101373661D02*
X163618828Y-101373661D01*
X163618828Y-101373661D02*
X163723590Y-101321280D01*
X163723590Y-101321280D02*
X163775971Y-101268899D01*
X163775971Y-101268899D02*
X163828352Y-101164137D01*
X163828352Y-101164137D02*
X163828352Y-100954613D01*
X163828352Y-100954613D02*
X163775971Y-100849851D01*
X163095019Y-99487947D02*
X163828352Y-99487947D01*
X163618828Y-99487947D02*
X163723590Y-99435566D01*
X163723590Y-99435566D02*
X163775971Y-99383185D01*
X163775971Y-99383185D02*
X163828352Y-99278423D01*
X163828352Y-99278423D02*
X163828352Y-99173661D01*
X163147400Y-98387947D02*
X163095019Y-98492709D01*
X163095019Y-98492709D02*
X163095019Y-98702233D01*
X163095019Y-98702233D02*
X163147400Y-98806995D01*
X163147400Y-98806995D02*
X163252161Y-98859376D01*
X163252161Y-98859376D02*
X163671209Y-98859376D01*
X163671209Y-98859376D02*
X163775971Y-98806995D01*
X163775971Y-98806995D02*
X163828352Y-98702233D01*
X163828352Y-98702233D02*
X163828352Y-98492709D01*
X163828352Y-98492709D02*
X163775971Y-98387947D01*
X163775971Y-98387947D02*
X163671209Y-98335566D01*
X163671209Y-98335566D02*
X163566447Y-98335566D01*
X163566447Y-98335566D02*
X163461685Y-98859376D01*
X163828352Y-97968900D02*
X163095019Y-97706995D01*
X163095019Y-97706995D02*
X163828352Y-97445090D01*
X163095019Y-97026043D02*
X163828352Y-97026043D01*
X164195019Y-97026043D02*
X164142638Y-97078424D01*
X164142638Y-97078424D02*
X164090257Y-97026043D01*
X164090257Y-97026043D02*
X164142638Y-96973662D01*
X164142638Y-96973662D02*
X164195019Y-97026043D01*
X164195019Y-97026043D02*
X164090257Y-97026043D01*
X163147400Y-96554614D02*
X163095019Y-96449852D01*
X163095019Y-96449852D02*
X163095019Y-96240328D01*
X163095019Y-96240328D02*
X163147400Y-96135566D01*
X163147400Y-96135566D02*
X163252161Y-96083185D01*
X163252161Y-96083185D02*
X163304542Y-96083185D01*
X163304542Y-96083185D02*
X163409304Y-96135566D01*
X163409304Y-96135566D02*
X163461685Y-96240328D01*
X163461685Y-96240328D02*
X163461685Y-96397471D01*
X163461685Y-96397471D02*
X163514066Y-96502233D01*
X163514066Y-96502233D02*
X163618828Y-96554614D01*
X163618828Y-96554614D02*
X163671209Y-96554614D01*
X163671209Y-96554614D02*
X163775971Y-96502233D01*
X163775971Y-96502233D02*
X163828352Y-96397471D01*
X163828352Y-96397471D02*
X163828352Y-96240328D01*
X163828352Y-96240328D02*
X163775971Y-96135566D01*
X163095019Y-95611757D02*
X163828352Y-95611757D01*
X164195019Y-95611757D02*
X164142638Y-95664138D01*
X164142638Y-95664138D02*
X164090257Y-95611757D01*
X164090257Y-95611757D02*
X164142638Y-95559376D01*
X164142638Y-95559376D02*
X164195019Y-95611757D01*
X164195019Y-95611757D02*
X164090257Y-95611757D01*
X163095019Y-94930804D02*
X163147400Y-95035566D01*
X163147400Y-95035566D02*
X163199780Y-95087947D01*
X163199780Y-95087947D02*
X163304542Y-95140328D01*
X163304542Y-95140328D02*
X163618828Y-95140328D01*
X163618828Y-95140328D02*
X163723590Y-95087947D01*
X163723590Y-95087947D02*
X163775971Y-95035566D01*
X163775971Y-95035566D02*
X163828352Y-94930804D01*
X163828352Y-94930804D02*
X163828352Y-94773661D01*
X163828352Y-94773661D02*
X163775971Y-94668899D01*
X163775971Y-94668899D02*
X163723590Y-94616518D01*
X163723590Y-94616518D02*
X163618828Y-94564137D01*
X163618828Y-94564137D02*
X163304542Y-94564137D01*
X163304542Y-94564137D02*
X163199780Y-94616518D01*
X163199780Y-94616518D02*
X163147400Y-94668899D01*
X163147400Y-94668899D02*
X163095019Y-94773661D01*
X163095019Y-94773661D02*
X163095019Y-94930804D01*
X163828352Y-94092709D02*
X163095019Y-94092709D01*
X163723590Y-94092709D02*
X163775971Y-94040328D01*
X163775971Y-94040328D02*
X163828352Y-93935566D01*
X163828352Y-93935566D02*
X163828352Y-93778423D01*
X163828352Y-93778423D02*
X163775971Y-93673661D01*
X163775971Y-93673661D02*
X163671209Y-93621280D01*
X163671209Y-93621280D02*
X163095019Y-93621280D01*
X163095019Y-91683185D02*
X163095019Y-92311757D01*
X163095019Y-91997471D02*
X164195019Y-91997471D01*
X164195019Y-91997471D02*
X164037876Y-92102233D01*
X164037876Y-92102233D02*
X163933114Y-92206995D01*
X163933114Y-92206995D02*
X163880733Y-92311757D01*
X163199780Y-91211757D02*
X163147400Y-91159376D01*
X163147400Y-91159376D02*
X163095019Y-91211757D01*
X163095019Y-91211757D02*
X163147400Y-91264138D01*
X163147400Y-91264138D02*
X163199780Y-91211757D01*
X163199780Y-91211757D02*
X163095019Y-91211757D01*
X163095019Y-90111756D02*
X163095019Y-90740328D01*
X163095019Y-90426042D02*
X164195019Y-90426042D01*
X164195019Y-90426042D02*
X164037876Y-90530804D01*
X164037876Y-90530804D02*
X163933114Y-90635566D01*
X163933114Y-90635566D02*
X163880733Y-90740328D01*
X117419495Y-109659850D02*
X118719495Y-109659850D01*
X118719495Y-109659850D02*
X118719495Y-109350326D01*
X118719495Y-109350326D02*
X118657590Y-109164612D01*
X118657590Y-109164612D02*
X118533780Y-109040802D01*
X118533780Y-109040802D02*
X118409971Y-108978897D01*
X118409971Y-108978897D02*
X118162352Y-108916993D01*
X118162352Y-108916993D02*
X117976638Y-108916993D01*
X117976638Y-108916993D02*
X117729019Y-108978897D01*
X117729019Y-108978897D02*
X117605209Y-109040802D01*
X117605209Y-109040802D02*
X117481400Y-109164612D01*
X117481400Y-109164612D02*
X117419495Y-109350326D01*
X117419495Y-109350326D02*
X117419495Y-109659850D01*
X117481400Y-107864612D02*
X117419495Y-107988421D01*
X117419495Y-107988421D02*
X117419495Y-108236040D01*
X117419495Y-108236040D02*
X117481400Y-108359850D01*
X117481400Y-108359850D02*
X117605209Y-108421754D01*
X117605209Y-108421754D02*
X118100447Y-108421754D01*
X118100447Y-108421754D02*
X118224257Y-108359850D01*
X118224257Y-108359850D02*
X118286161Y-108236040D01*
X118286161Y-108236040D02*
X118286161Y-107988421D01*
X118286161Y-107988421D02*
X118224257Y-107864612D01*
X118224257Y-107864612D02*
X118100447Y-107802707D01*
X118100447Y-107802707D02*
X117976638Y-107802707D01*
X117976638Y-107802707D02*
X117852828Y-108421754D01*
X117481400Y-107307468D02*
X117419495Y-107183659D01*
X117419495Y-107183659D02*
X117419495Y-106936040D01*
X117419495Y-106936040D02*
X117481400Y-106812230D01*
X117481400Y-106812230D02*
X117605209Y-106750326D01*
X117605209Y-106750326D02*
X117667114Y-106750326D01*
X117667114Y-106750326D02*
X117790923Y-106812230D01*
X117790923Y-106812230D02*
X117852828Y-106936040D01*
X117852828Y-106936040D02*
X117852828Y-107121754D01*
X117852828Y-107121754D02*
X117914733Y-107245564D01*
X117914733Y-107245564D02*
X118038542Y-107307468D01*
X118038542Y-107307468D02*
X118100447Y-107307468D01*
X118100447Y-107307468D02*
X118224257Y-107245564D01*
X118224257Y-107245564D02*
X118286161Y-107121754D01*
X118286161Y-107121754D02*
X118286161Y-106936040D01*
X118286161Y-106936040D02*
X118224257Y-106812230D01*
X117419495Y-106193183D02*
X118286161Y-106193183D01*
X118719495Y-106193183D02*
X118657590Y-106255087D01*
X118657590Y-106255087D02*
X118595685Y-106193183D01*
X118595685Y-106193183D02*
X118657590Y-106131278D01*
X118657590Y-106131278D02*
X118719495Y-106193183D01*
X118719495Y-106193183D02*
X118595685Y-106193183D01*
X118286161Y-105016992D02*
X117233780Y-105016992D01*
X117233780Y-105016992D02*
X117109971Y-105078897D01*
X117109971Y-105078897D02*
X117048066Y-105140801D01*
X117048066Y-105140801D02*
X116986161Y-105264611D01*
X116986161Y-105264611D02*
X116986161Y-105450325D01*
X116986161Y-105450325D02*
X117048066Y-105574135D01*
X117481400Y-105016992D02*
X117419495Y-105140801D01*
X117419495Y-105140801D02*
X117419495Y-105388420D01*
X117419495Y-105388420D02*
X117481400Y-105512230D01*
X117481400Y-105512230D02*
X117543304Y-105574135D01*
X117543304Y-105574135D02*
X117667114Y-105636039D01*
X117667114Y-105636039D02*
X118038542Y-105636039D01*
X118038542Y-105636039D02*
X118162352Y-105574135D01*
X118162352Y-105574135D02*
X118224257Y-105512230D01*
X118224257Y-105512230D02*
X118286161Y-105388420D01*
X118286161Y-105388420D02*
X118286161Y-105140801D01*
X118286161Y-105140801D02*
X118224257Y-105016992D01*
X118286161Y-104397945D02*
X117419495Y-104397945D01*
X118162352Y-104397945D02*
X118224257Y-104336040D01*
X118224257Y-104336040D02*
X118286161Y-104212230D01*
X118286161Y-104212230D02*
X118286161Y-104026516D01*
X118286161Y-104026516D02*
X118224257Y-103902707D01*
X118224257Y-103902707D02*
X118100447Y-103840802D01*
X118100447Y-103840802D02*
X117419495Y-103840802D01*
X117481400Y-102726517D02*
X117419495Y-102850326D01*
X117419495Y-102850326D02*
X117419495Y-103097945D01*
X117419495Y-103097945D02*
X117481400Y-103221755D01*
X117481400Y-103221755D02*
X117605209Y-103283659D01*
X117605209Y-103283659D02*
X118100447Y-103283659D01*
X118100447Y-103283659D02*
X118224257Y-103221755D01*
X118224257Y-103221755D02*
X118286161Y-103097945D01*
X118286161Y-103097945D02*
X118286161Y-102850326D01*
X118286161Y-102850326D02*
X118224257Y-102726517D01*
X118224257Y-102726517D02*
X118100447Y-102664612D01*
X118100447Y-102664612D02*
X117976638Y-102664612D01*
X117976638Y-102664612D02*
X117852828Y-103283659D01*
X117419495Y-101550326D02*
X118719495Y-101550326D01*
X117481400Y-101550326D02*
X117419495Y-101674135D01*
X117419495Y-101674135D02*
X117419495Y-101921754D01*
X117419495Y-101921754D02*
X117481400Y-102045564D01*
X117481400Y-102045564D02*
X117543304Y-102107469D01*
X117543304Y-102107469D02*
X117667114Y-102169373D01*
X117667114Y-102169373D02*
X118038542Y-102169373D01*
X118038542Y-102169373D02*
X118162352Y-102107469D01*
X118162352Y-102107469D02*
X118224257Y-102045564D01*
X118224257Y-102045564D02*
X118286161Y-101921754D01*
X118286161Y-101921754D02*
X118286161Y-101674135D01*
X118286161Y-101674135D02*
X118224257Y-101550326D01*
X117419495Y-99940803D02*
X118719495Y-99940803D01*
X118224257Y-99940803D02*
X118286161Y-99816993D01*
X118286161Y-99816993D02*
X118286161Y-99569374D01*
X118286161Y-99569374D02*
X118224257Y-99445565D01*
X118224257Y-99445565D02*
X118162352Y-99383660D01*
X118162352Y-99383660D02*
X118038542Y-99321755D01*
X118038542Y-99321755D02*
X117667114Y-99321755D01*
X117667114Y-99321755D02*
X117543304Y-99383660D01*
X117543304Y-99383660D02*
X117481400Y-99445565D01*
X117481400Y-99445565D02*
X117419495Y-99569374D01*
X117419495Y-99569374D02*
X117419495Y-99816993D01*
X117419495Y-99816993D02*
X117481400Y-99940803D01*
X118286161Y-98888422D02*
X117419495Y-98578898D01*
X118286161Y-98269375D02*
X117419495Y-98578898D01*
X117419495Y-98578898D02*
X117109971Y-98702708D01*
X117109971Y-98702708D02*
X117048066Y-98764613D01*
X117048066Y-98764613D02*
X116986161Y-98888422D01*
X118719495Y-96907470D02*
X117419495Y-96597946D01*
X117419495Y-96597946D02*
X118348066Y-96350327D01*
X118348066Y-96350327D02*
X117419495Y-96102708D01*
X117419495Y-96102708D02*
X118719495Y-95793185D01*
X117419495Y-95297947D02*
X118286161Y-95297947D01*
X118719495Y-95297947D02*
X118657590Y-95359851D01*
X118657590Y-95359851D02*
X118595685Y-95297947D01*
X118595685Y-95297947D02*
X118657590Y-95236042D01*
X118657590Y-95236042D02*
X118719495Y-95297947D01*
X118719495Y-95297947D02*
X118595685Y-95297947D01*
X117481400Y-94183661D02*
X117419495Y-94307470D01*
X117419495Y-94307470D02*
X117419495Y-94555089D01*
X117419495Y-94555089D02*
X117481400Y-94678899D01*
X117481400Y-94678899D02*
X117605209Y-94740803D01*
X117605209Y-94740803D02*
X118100447Y-94740803D01*
X118100447Y-94740803D02*
X118224257Y-94678899D01*
X118224257Y-94678899D02*
X118286161Y-94555089D01*
X118286161Y-94555089D02*
X118286161Y-94307470D01*
X118286161Y-94307470D02*
X118224257Y-94183661D01*
X118224257Y-94183661D02*
X118100447Y-94121756D01*
X118100447Y-94121756D02*
X117976638Y-94121756D01*
X117976638Y-94121756D02*
X117852828Y-94740803D01*
X117419495Y-93564613D02*
X118286161Y-93564613D01*
X118038542Y-93564613D02*
X118162352Y-93502708D01*
X118162352Y-93502708D02*
X118224257Y-93440803D01*
X118224257Y-93440803D02*
X118286161Y-93316994D01*
X118286161Y-93316994D02*
X118286161Y-93193184D01*
X118286161Y-92883660D02*
X118286161Y-92202708D01*
X118286161Y-92202708D02*
X117419495Y-92883660D01*
X117419495Y-92883660D02*
X117419495Y-92202708D01*
X117419495Y-91707470D02*
X118719495Y-91707470D01*
X118224257Y-91707470D02*
X118286161Y-91583660D01*
X118286161Y-91583660D02*
X118286161Y-91336041D01*
X118286161Y-91336041D02*
X118224257Y-91212232D01*
X118224257Y-91212232D02*
X118162352Y-91150327D01*
X118162352Y-91150327D02*
X118038542Y-91088422D01*
X118038542Y-91088422D02*
X117667114Y-91088422D01*
X117667114Y-91088422D02*
X117543304Y-91150327D01*
X117543304Y-91150327D02*
X117481400Y-91212232D01*
X117481400Y-91212232D02*
X117419495Y-91336041D01*
X117419495Y-91336041D02*
X117419495Y-91583660D01*
X117419495Y-91583660D02*
X117481400Y-91707470D01*
X117419495Y-90345565D02*
X117481400Y-90469375D01*
X117481400Y-90469375D02*
X117543304Y-90531280D01*
X117543304Y-90531280D02*
X117667114Y-90593184D01*
X117667114Y-90593184D02*
X118038542Y-90593184D01*
X118038542Y-90593184D02*
X118162352Y-90531280D01*
X118162352Y-90531280D02*
X118224257Y-90469375D01*
X118224257Y-90469375D02*
X118286161Y-90345565D01*
X118286161Y-90345565D02*
X118286161Y-90159851D01*
X118286161Y-90159851D02*
X118224257Y-90036042D01*
X118224257Y-90036042D02*
X118162352Y-89974137D01*
X118162352Y-89974137D02*
X118038542Y-89912232D01*
X118038542Y-89912232D02*
X117667114Y-89912232D01*
X117667114Y-89912232D02*
X117543304Y-89974137D01*
X117543304Y-89974137D02*
X117481400Y-90036042D01*
X117481400Y-90036042D02*
X117419495Y-90159851D01*
X117419495Y-90159851D02*
X117419495Y-90345565D01*
X118286161Y-89478899D02*
X117419495Y-89231280D01*
X117419495Y-89231280D02*
X118038542Y-88983661D01*
X118038542Y-88983661D02*
X117419495Y-88736042D01*
X117419495Y-88736042D02*
X118286161Y-88488423D01*
X117481400Y-88055089D02*
X117419495Y-87931280D01*
X117419495Y-87931280D02*
X117419495Y-87683661D01*
X117419495Y-87683661D02*
X117481400Y-87559851D01*
X117481400Y-87559851D02*
X117605209Y-87497947D01*
X117605209Y-87497947D02*
X117667114Y-87497947D01*
X117667114Y-87497947D02*
X117790923Y-87559851D01*
X117790923Y-87559851D02*
X117852828Y-87683661D01*
X117852828Y-87683661D02*
X117852828Y-87869375D01*
X117852828Y-87869375D02*
X117914733Y-87993185D01*
X117914733Y-87993185D02*
X118038542Y-88055089D01*
X118038542Y-88055089D02*
X118100447Y-88055089D01*
X118100447Y-88055089D02*
X118224257Y-87993185D01*
X118224257Y-87993185D02*
X118286161Y-87869375D01*
X118286161Y-87869375D02*
X118286161Y-87683661D01*
X118286161Y-87683661D02*
X118224257Y-87559851D01*
X117419495Y-86940804D02*
X118719495Y-86940804D01*
X117914733Y-86816994D02*
X117419495Y-86445566D01*
X118286161Y-86445566D02*
X117790923Y-86940804D01*
X118286161Y-86012232D02*
X117419495Y-85702708D01*
X118286161Y-85393185D02*
X117419495Y-85702708D01*
X117419495Y-85702708D02*
X117109971Y-85826518D01*
X117109971Y-85826518D02*
X117048066Y-85888423D01*
X117048066Y-85888423D02*
X116986161Y-86012232D01*
D12*
X125216666Y-67729581D02*
X125264285Y-67777201D01*
X125264285Y-67777201D02*
X125407142Y-67824820D01*
X125407142Y-67824820D02*
X125502380Y-67824820D01*
X125502380Y-67824820D02*
X125645237Y-67777201D01*
X125645237Y-67777201D02*
X125740475Y-67681962D01*
X125740475Y-67681962D02*
X125788094Y-67586724D01*
X125788094Y-67586724D02*
X125835713Y-67396248D01*
X125835713Y-67396248D02*
X125835713Y-67253391D01*
X125835713Y-67253391D02*
X125788094Y-67062915D01*
X125788094Y-67062915D02*
X125740475Y-66967677D01*
X125740475Y-66967677D02*
X125645237Y-66872439D01*
X125645237Y-66872439D02*
X125502380Y-66824820D01*
X125502380Y-66824820D02*
X125407142Y-66824820D01*
X125407142Y-66824820D02*
X125264285Y-66872439D01*
X125264285Y-66872439D02*
X125216666Y-66920058D01*
X124835713Y-66920058D02*
X124788094Y-66872439D01*
X124788094Y-66872439D02*
X124692856Y-66824820D01*
X124692856Y-66824820D02*
X124454761Y-66824820D01*
X124454761Y-66824820D02*
X124359523Y-66872439D01*
X124359523Y-66872439D02*
X124311904Y-66920058D01*
X124311904Y-66920058D02*
X124264285Y-67015296D01*
X124264285Y-67015296D02*
X124264285Y-67110534D01*
X124264285Y-67110534D02*
X124311904Y-67253391D01*
X124311904Y-67253391D02*
X124883332Y-67824820D01*
X124883332Y-67824820D02*
X124264285Y-67824820D01*
X135326666Y-79609580D02*
X135374285Y-79657200D01*
X135374285Y-79657200D02*
X135517142Y-79704819D01*
X135517142Y-79704819D02*
X135612380Y-79704819D01*
X135612380Y-79704819D02*
X135755237Y-79657200D01*
X135755237Y-79657200D02*
X135850475Y-79561961D01*
X135850475Y-79561961D02*
X135898094Y-79466723D01*
X135898094Y-79466723D02*
X135945713Y-79276247D01*
X135945713Y-79276247D02*
X135945713Y-79133390D01*
X135945713Y-79133390D02*
X135898094Y-78942914D01*
X135898094Y-78942914D02*
X135850475Y-78847676D01*
X135850475Y-78847676D02*
X135755237Y-78752438D01*
X135755237Y-78752438D02*
X135612380Y-78704819D01*
X135612380Y-78704819D02*
X135517142Y-78704819D01*
X135517142Y-78704819D02*
X135374285Y-78752438D01*
X135374285Y-78752438D02*
X135326666Y-78800057D01*
X134374285Y-79704819D02*
X134945713Y-79704819D01*
X134659999Y-79704819D02*
X134659999Y-78704819D01*
X134659999Y-78704819D02*
X134755237Y-78847676D01*
X134755237Y-78847676D02*
X134850475Y-78942914D01*
X134850475Y-78942914D02*
X134945713Y-78990533D01*
D13*
%TO.C,C2*%
X125311253Y-68315000D02*
X124788747Y-68315000D01*
X125311253Y-69785000D02*
X124788747Y-69785000D01*
%TO.C,C1*%
X135421253Y-80315000D02*
X134898747Y-80315000D01*
X135421253Y-81785000D02*
X134898747Y-81785000D01*
%TD*%
M02*
