%TF.GenerationSoftware,KiCad,Pcbnew,9.0.3*%
%TF.CreationDate,2026-01-04T22:55:42+01:00*%
%TF.ProjectId,DaewooBackslotFMPAC,44616577-6f6f-4426-9163-6b736c6f7446,1.1*%
%TF.SameCoordinates,Original*%
%TF.FileFunction,Paste,Top*%
%TF.FilePolarity,Positive*%
%FSLAX46Y46*%
G04 Gerber Fmt 4.6, Leading zero omitted, Abs format (unit mm)*
G04 Created by KiCad (PCBNEW 9.0.3) date 2026-01-04 22:55:42*
%MOMM*%
%LPD*%
G01*
G04 APERTURE LIST*
G04 Aperture macros list*
%AMRoundRect*
0 Rectangle with rounded corners*
0 $1 Rounding radius*
0 $2 $3 $4 $5 $6 $7 $8 $9 X,Y pos of 4 corners*
0 Add a 4 corners polygon primitive as box body*
4,1,4,$2,$3,$4,$5,$6,$7,$8,$9,$2,$3,0*
0 Add four circle primitives for the rounded corners*
1,1,$1+$1,$2,$3*
1,1,$1+$1,$4,$5*
1,1,$1+$1,$6,$7*
1,1,$1+$1,$8,$9*
0 Add four rect primitives between the rounded corners*
20,1,$1+$1,$2,$3,$4,$5,0*
20,1,$1+$1,$4,$5,$6,$7,0*
20,1,$1+$1,$6,$7,$8,$9,0*
20,1,$1+$1,$8,$9,$2,$3,0*%
G04 Aperture macros list end*
%ADD10RoundRect,0.250000X0.475000X-0.250000X0.475000X0.250000X-0.475000X0.250000X-0.475000X-0.250000X0*%
%ADD11RoundRect,0.250000X-0.262500X-0.450000X0.262500X-0.450000X0.262500X0.450000X-0.262500X0.450000X0*%
%ADD12RoundRect,0.150000X-0.825000X-0.150000X0.825000X-0.150000X0.825000X0.150000X-0.825000X0.150000X0*%
%ADD13RoundRect,0.250000X1.100000X-0.325000X1.100000X0.325000X-1.100000X0.325000X-1.100000X-0.325000X0*%
%ADD14RoundRect,0.250000X0.450000X-0.262500X0.450000X0.262500X-0.450000X0.262500X-0.450000X-0.262500X0*%
%ADD15RoundRect,0.250000X-0.325000X-1.100000X0.325000X-1.100000X0.325000X1.100000X-0.325000X1.100000X0*%
%ADD16RoundRect,0.250000X-0.475000X0.250000X-0.475000X-0.250000X0.475000X-0.250000X0.475000X0.250000X0*%
%ADD17RoundRect,0.250000X0.325000X1.100000X-0.325000X1.100000X-0.325000X-1.100000X0.325000X-1.100000X0*%
%ADD18RoundRect,0.250000X-0.450000X0.262500X-0.450000X-0.262500X0.450000X-0.262500X0.450000X0.262500X0*%
G04 APERTURE END LIST*
D10*
%TO.C,C9*%
X164800000Y-95249999D03*
X164800000Y-93350001D03*
%TD*%
D11*
%TO.C,R8*%
X159687500Y-88900000D03*
X161512500Y-88900000D03*
%TD*%
D12*
%TO.C,IC4*%
X176250000Y-99000000D03*
X176250000Y-100270000D03*
X176250000Y-101540000D03*
X176250000Y-102810000D03*
X181200000Y-102810000D03*
X181200000Y-101540000D03*
X181200000Y-100270000D03*
X181200000Y-99000000D03*
%TD*%
D13*
%TO.C,C1*%
X152489999Y-73170182D03*
X152489999Y-70220180D03*
%TD*%
D11*
%TO.C,R19*%
X162087500Y-120250000D03*
X163912500Y-120250000D03*
%TD*%
D14*
%TO.C,R16*%
X160200000Y-101012500D03*
X160200000Y-99187500D03*
%TD*%
%TO.C,R11*%
X131300000Y-72662500D03*
X131300000Y-70837500D03*
%TD*%
%TO.C,R3*%
X173500000Y-101025000D03*
X173500000Y-99200000D03*
%TD*%
D15*
%TO.C,C3*%
X168425000Y-85200000D03*
X171375000Y-85200000D03*
%TD*%
D12*
%TO.C,IC2*%
X135350000Y-83500000D03*
X135350000Y-84770000D03*
X135350000Y-86040000D03*
X135350000Y-87310000D03*
X135350000Y-88580000D03*
X135350000Y-89850000D03*
X135350000Y-91120000D03*
X140300000Y-91120000D03*
X140300000Y-89850000D03*
X140300000Y-88580000D03*
X140300000Y-87310000D03*
X140300000Y-86040000D03*
X140300000Y-84770000D03*
X140300000Y-83500000D03*
%TD*%
D11*
%TO.C,R9*%
X163887500Y-88900000D03*
X165712500Y-88900000D03*
%TD*%
D15*
%TO.C,C14*%
X168425000Y-89500000D03*
X171375000Y-89500000D03*
%TD*%
D16*
%TO.C,C8*%
X164800000Y-79500000D03*
X164800000Y-81399998D03*
%TD*%
D11*
%TO.C,R5*%
X159687500Y-85900000D03*
X161512500Y-85900000D03*
%TD*%
%TO.C,R4*%
X162200000Y-110950000D03*
X164025000Y-110950000D03*
%TD*%
D17*
%TO.C,C19*%
X169675001Y-120250000D03*
X166724999Y-120250000D03*
%TD*%
D11*
%TO.C,R10*%
X163887500Y-85900000D03*
X165712500Y-85900000D03*
%TD*%
D13*
%TO.C,C2*%
X137114999Y-73170182D03*
X137114999Y-70220180D03*
%TD*%
D17*
%TO.C,C4*%
X169675001Y-110950000D03*
X166724999Y-110950000D03*
%TD*%
D14*
%TO.C,R1*%
X184000000Y-100975000D03*
X184000000Y-99150000D03*
%TD*%
D12*
%TO.C,IC3*%
X135350000Y-98880000D03*
X135350000Y-100150000D03*
X135350000Y-101420000D03*
X135350000Y-102690000D03*
X135350000Y-103960000D03*
X135350000Y-105230000D03*
X135350000Y-106500000D03*
X140300000Y-106500000D03*
X140300000Y-105230000D03*
X140300000Y-103960000D03*
X140300000Y-102690000D03*
X140300000Y-101420000D03*
X140300000Y-100150000D03*
X140300000Y-98880000D03*
%TD*%
D18*
%TO.C,R6*%
X160600000Y-91387500D03*
X160600000Y-93212500D03*
%TD*%
D14*
%TO.C,R18*%
X170400000Y-101025000D03*
X170400000Y-99200000D03*
%TD*%
D11*
%TO.C,R14*%
X177835000Y-106790000D03*
X179660000Y-106790000D03*
%TD*%
D14*
%TO.C,R7*%
X160600000Y-83512500D03*
X160600000Y-81687500D03*
%TD*%
D11*
%TO.C,R15*%
X164297500Y-106790000D03*
X166122500Y-106790000D03*
%TD*%
D12*
%TO.C,IC5*%
X162750000Y-99000000D03*
X162750000Y-100270000D03*
X162750000Y-101540000D03*
X162750000Y-102810000D03*
X167700000Y-102810000D03*
X167700000Y-101540000D03*
X167700000Y-100270000D03*
X167700000Y-99000000D03*
%TD*%
M02*
