%TF.GenerationSoftware,KiCad,Pcbnew,9.0.3*%
%TF.CreationDate,2026-01-04T22:55:42+01:00*%
%TF.ProjectId,DaewooBackslotFMPAC,44616577-6f6f-4426-9163-6b736c6f7446,1.1*%
%TF.SameCoordinates,Original*%
%TF.FileFunction,Soldermask,Top*%
%TF.FilePolarity,Negative*%
%FSLAX46Y46*%
G04 Gerber Fmt 4.6, Leading zero omitted, Abs format (unit mm)*
G04 Created by KiCad (PCBNEW 9.0.3) date 2026-01-04 22:55:42*
%MOMM*%
%LPD*%
G01*
G04 APERTURE LIST*
G04 Aperture macros list*
%AMRoundRect*
0 Rectangle with rounded corners*
0 $1 Rounding radius*
0 $2 $3 $4 $5 $6 $7 $8 $9 X,Y pos of 4 corners*
0 Add a 4 corners polygon primitive as box body*
4,1,4,$2,$3,$4,$5,$6,$7,$8,$9,$2,$3,0*
0 Add four circle primitives for the rounded corners*
1,1,$1+$1,$2,$3*
1,1,$1+$1,$4,$5*
1,1,$1+$1,$6,$7*
1,1,$1+$1,$8,$9*
0 Add four rect primitives between the rounded corners*
20,1,$1+$1,$2,$3,$4,$5,0*
20,1,$1+$1,$4,$5,$6,$7,0*
20,1,$1+$1,$6,$7,$8,$9,0*
20,1,$1+$1,$8,$9,$2,$3,0*%
%AMFreePoly0*
4,1,23,0.500000,-0.750000,0.000000,-0.750000,0.000000,-0.745722,-0.065263,-0.745722,-0.191342,-0.711940,-0.304381,-0.646677,-0.396677,-0.554381,-0.461940,-0.441342,-0.495722,-0.315263,-0.495722,-0.250000,-0.500000,-0.250000,-0.500000,0.250000,-0.495722,0.250000,-0.495722,0.315263,-0.461940,0.441342,-0.396677,0.554381,-0.304381,0.646677,-0.191342,0.711940,-0.065263,0.745722,0.000000,0.745722,
0.000000,0.750000,0.500000,0.750000,0.500000,-0.750000,0.500000,-0.750000,$1*%
%AMFreePoly1*
4,1,23,0.000000,0.745722,0.065263,0.745722,0.191342,0.711940,0.304381,0.646677,0.396677,0.554381,0.461940,0.441342,0.495722,0.315263,0.495722,0.250000,0.500000,0.250000,0.500000,-0.250000,0.495722,-0.250000,0.495722,-0.315263,0.461940,-0.441342,0.396677,-0.554381,0.304381,-0.646677,0.191342,-0.711940,0.065263,-0.745722,0.000000,-0.745722,0.000000,-0.750000,-0.500000,-0.750000,
-0.500000,0.750000,0.000000,0.750000,0.000000,0.745722,0.000000,0.745722,$1*%
%AMFreePoly2*
4,1,23,0.550000,-0.750000,0.000000,-0.750000,0.000000,-0.745722,-0.065263,-0.745722,-0.191342,-0.711940,-0.304381,-0.646677,-0.396677,-0.554381,-0.461940,-0.441342,-0.495722,-0.315263,-0.495722,-0.250000,-0.500000,-0.250000,-0.500000,0.250000,-0.495722,0.250000,-0.495722,0.315263,-0.461940,0.441342,-0.396677,0.554381,-0.304381,0.646677,-0.191342,0.711940,-0.065263,0.745722,0.000000,0.745722,
0.000000,0.750000,0.550000,0.750000,0.550000,-0.750000,0.550000,-0.750000,$1*%
%AMFreePoly3*
4,1,23,0.000000,0.745722,0.065263,0.745722,0.191342,0.711940,0.304381,0.646677,0.396677,0.554381,0.461940,0.441342,0.495722,0.315263,0.495722,0.250000,0.500000,0.250000,0.500000,-0.250000,0.495722,-0.250000,0.495722,-0.315263,0.461940,-0.441342,0.396677,-0.554381,0.304381,-0.646677,0.191342,-0.711940,0.065263,-0.745722,0.000000,-0.745722,0.000000,-0.750000,-0.550000,-0.750000,
-0.550000,0.750000,0.000000,0.750000,0.000000,0.745722,0.000000,0.745722,$1*%
G04 Aperture macros list end*
%ADD10C,0.000000*%
%ADD11FreePoly0,90.000000*%
%ADD12FreePoly1,90.000000*%
%ADD13C,1.200000*%
%ADD14O,2.200000X1.200000*%
%ADD15O,2.300000X1.600000*%
%ADD16O,1.200000X2.200000*%
%ADD17O,2.500000X1.600000*%
%ADD18R,1.300000X1.300000*%
%ADD19C,1.300000*%
%ADD20FreePoly2,90.000000*%
%ADD21R,1.500000X1.000000*%
%ADD22FreePoly3,90.000000*%
%ADD23FreePoly0,0.000000*%
%ADD24FreePoly1,0.000000*%
%ADD25RoundRect,0.250000X0.475000X-0.250000X0.475000X0.250000X-0.475000X0.250000X-0.475000X-0.250000X0*%
%ADD26RoundRect,0.250000X-0.262500X-0.450000X0.262500X-0.450000X0.262500X0.450000X-0.262500X0.450000X0*%
%ADD27RoundRect,0.250000X-0.950000X-0.550000X0.950000X-0.550000X0.950000X0.550000X-0.950000X0.550000X0*%
%ADD28O,2.400000X1.600000*%
%ADD29RoundRect,0.150000X-0.825000X-0.150000X0.825000X-0.150000X0.825000X0.150000X-0.825000X0.150000X0*%
%ADD30RoundRect,0.250000X0.550000X0.550000X-0.550000X0.550000X-0.550000X-0.550000X0.550000X-0.550000X0*%
%ADD31C,1.600000*%
%ADD32RoundRect,0.250000X1.100000X-0.325000X1.100000X0.325000X-1.100000X0.325000X-1.100000X-0.325000X0*%
%ADD33RoundRect,0.250000X0.450000X-0.262500X0.450000X0.262500X-0.450000X0.262500X-0.450000X-0.262500X0*%
%ADD34FreePoly0,180.000000*%
%ADD35FreePoly1,180.000000*%
%ADD36RoundRect,0.250000X-0.325000X-1.100000X0.325000X-1.100000X0.325000X1.100000X-0.325000X1.100000X0*%
%ADD37RoundRect,0.250000X-0.475000X0.250000X-0.475000X-0.250000X0.475000X-0.250000X0.475000X0.250000X0*%
%ADD38RoundRect,0.250000X-0.550000X-0.550000X0.550000X-0.550000X0.550000X0.550000X-0.550000X0.550000X0*%
%ADD39RoundRect,0.250000X0.325000X1.100000X-0.325000X1.100000X-0.325000X-1.100000X0.325000X-1.100000X0*%
%ADD40RoundRect,0.250000X-0.450000X0.262500X-0.450000X-0.262500X0.450000X-0.262500X0.450000X0.262500X0*%
%ADD41R,1.700000X1.700000*%
%ADD42C,1.700000*%
G04 APERTURE END LIST*
D10*
%TO.C,JP2*%
G36*
X112550000Y-71839149D02*
G01*
X111050000Y-71839149D01*
X111050000Y-71539149D01*
X112550000Y-71539149D01*
X112550000Y-71839149D01*
G37*
%TO.C,JP1*%
G36*
X112550000Y-123489149D02*
G01*
X111050000Y-123489149D01*
X111050000Y-121989149D01*
X112550000Y-121989149D01*
X112550000Y-123489149D01*
G37*
%TO.C,JP6*%
G36*
X185800000Y-107550000D02*
G01*
X185500000Y-107550000D01*
X185500000Y-106050000D01*
X185800000Y-106050000D01*
X185800000Y-107550000D01*
G37*
%TO.C,JP5*%
G36*
X173500000Y-121000000D02*
G01*
X173200000Y-121000000D01*
X173200000Y-119500000D01*
X173500000Y-119500000D01*
X173500000Y-121000000D01*
G37*
%TO.C,JP4*%
G36*
X173500000Y-111750000D02*
G01*
X173200000Y-111750000D01*
X173200000Y-110250000D01*
X173500000Y-110250000D01*
X173500000Y-111750000D01*
G37*
%TO.C,JP3*%
G36*
X122050000Y-72439149D02*
G01*
X120550000Y-72439149D01*
X120550000Y-70939149D01*
X122050000Y-70939149D01*
X122050000Y-72439149D01*
G37*
%TD*%
D11*
%TO.C,JP2*%
X111800000Y-72339148D03*
D12*
X111800000Y-71039150D03*
%TD*%
D13*
%TO.C,J1*%
X184600000Y-120650000D03*
X187100000Y-120650000D03*
X179600000Y-115650000D03*
X184600000Y-110650000D03*
X187100000Y-110650000D03*
D14*
X179600000Y-120650000D03*
D15*
X179600000Y-118150000D03*
D16*
X184600000Y-115650000D03*
D14*
X179600000Y-110650000D03*
D17*
X179600000Y-113150000D03*
%TD*%
D18*
%TO.C,VREG1*%
X144442500Y-70430000D03*
D19*
X145712500Y-71700000D03*
X144442500Y-72970000D03*
%TD*%
D20*
%TO.C,JP1*%
X111800000Y-124039149D03*
D21*
X111800000Y-122739149D03*
D22*
X111800000Y-121439149D03*
%TD*%
D23*
%TO.C,JP6*%
X185000001Y-106800000D03*
D24*
X186299999Y-106800000D03*
%TD*%
D25*
%TO.C,C9*%
X164800000Y-95249999D03*
X164800000Y-93350001D03*
%TD*%
D26*
%TO.C,R8*%
X159687500Y-88900000D03*
X161512500Y-88900000D03*
%TD*%
D27*
%TO.C,IC1*%
X148480000Y-78599148D03*
D28*
X148480000Y-81139148D03*
X148480000Y-83679147D03*
X148480000Y-86219148D03*
X148480000Y-88759148D03*
X148480000Y-91299148D03*
X148480000Y-93839148D03*
X148480000Y-96379149D03*
X148480000Y-98919148D03*
X156100000Y-98919148D03*
X156100000Y-96379148D03*
X156100000Y-93839148D03*
X156100000Y-91299148D03*
X156100000Y-88759148D03*
X156100000Y-86219148D03*
X156100000Y-83679148D03*
X156100000Y-81139148D03*
X156100000Y-78599148D03*
%TD*%
D29*
%TO.C,IC4*%
X176250000Y-99000000D03*
X176250000Y-100270000D03*
X176250000Y-101540000D03*
X176250000Y-102810000D03*
X181200000Y-102810000D03*
X181200000Y-101540000D03*
X181200000Y-100270000D03*
X181200000Y-99000000D03*
%TD*%
D30*
%TO.C,C12*%
X180400000Y-91300000D03*
D31*
X178399999Y-91300000D03*
%TD*%
D32*
%TO.C,C1*%
X152489999Y-73170182D03*
X152489999Y-70220180D03*
%TD*%
D26*
%TO.C,R19*%
X162087500Y-120250000D03*
X163912500Y-120250000D03*
%TD*%
D33*
%TO.C,R16*%
X160200000Y-101012500D03*
X160200000Y-99187500D03*
%TD*%
%TO.C,R11*%
X131300000Y-72662500D03*
X131300000Y-70837500D03*
%TD*%
D23*
%TO.C,JP5*%
X172700001Y-120250000D03*
D24*
X173999999Y-120250000D03*
%TD*%
D34*
%TO.C,JP4*%
X173999999Y-111000000D03*
D35*
X172700001Y-111000000D03*
%TD*%
D20*
%TO.C,JP3*%
X121300000Y-72989149D03*
D21*
X121300000Y-71689149D03*
D22*
X121300000Y-70389149D03*
%TD*%
D33*
%TO.C,R3*%
X173500000Y-101025000D03*
X173500000Y-99200000D03*
%TD*%
D36*
%TO.C,C3*%
X168425000Y-85200000D03*
X171375000Y-85200000D03*
%TD*%
D29*
%TO.C,IC2*%
X135350000Y-83500000D03*
X135350000Y-84770000D03*
X135350000Y-86040000D03*
X135350000Y-87310000D03*
X135350000Y-88580000D03*
X135350000Y-89850000D03*
X135350000Y-91120000D03*
X140300000Y-91120000D03*
X140300000Y-89850000D03*
X140300000Y-88580000D03*
X140300000Y-87310000D03*
X140300000Y-86040000D03*
X140300000Y-84770000D03*
X140300000Y-83500000D03*
%TD*%
D26*
%TO.C,R9*%
X163887500Y-88900000D03*
X165712500Y-88900000D03*
%TD*%
D30*
%TO.C,C6*%
X112500000Y-66600000D03*
D31*
X110499999Y-66600000D03*
%TD*%
D36*
%TO.C,C14*%
X168425000Y-89500000D03*
X171375000Y-89500000D03*
%TD*%
D37*
%TO.C,C8*%
X164800000Y-79500000D03*
X164800000Y-81399998D03*
%TD*%
D38*
%TO.C,IC6*%
X113660000Y-78609148D03*
D31*
X113660000Y-81149148D03*
X113660000Y-83689147D03*
X113660000Y-86229148D03*
X113660000Y-88769148D03*
X113660000Y-91309148D03*
X113660000Y-93849148D03*
X113660000Y-96389149D03*
X113660000Y-98929148D03*
X113660000Y-101469148D03*
X113660000Y-104009148D03*
X113660000Y-106549147D03*
X113660000Y-109089148D03*
X113660000Y-111629148D03*
X128900000Y-111629148D03*
X128900000Y-109089148D03*
X128900000Y-106549148D03*
X128900000Y-104009148D03*
X128900000Y-101469148D03*
X128900000Y-98929148D03*
X128900000Y-96389148D03*
X128900000Y-93849148D03*
X128900000Y-91309148D03*
X128900000Y-88769148D03*
X128900000Y-86229148D03*
X128900000Y-83689148D03*
X128900000Y-81149148D03*
X128900000Y-78609148D03*
%TD*%
D26*
%TO.C,R5*%
X159687500Y-85900000D03*
X161512500Y-85900000D03*
%TD*%
%TO.C,R4*%
X162200000Y-110950000D03*
X164025000Y-110950000D03*
%TD*%
D39*
%TO.C,C19*%
X169675001Y-120250000D03*
X166724999Y-120250000D03*
%TD*%
D26*
%TO.C,R10*%
X163887500Y-85900000D03*
X165712500Y-85900000D03*
%TD*%
D32*
%TO.C,C2*%
X137114999Y-73170182D03*
X137114999Y-70220180D03*
%TD*%
D39*
%TO.C,C4*%
X169675001Y-110950000D03*
X166724999Y-110950000D03*
%TD*%
D33*
%TO.C,R1*%
X184000000Y-100975000D03*
X184000000Y-99150000D03*
%TD*%
D29*
%TO.C,IC3*%
X135350000Y-98880000D03*
X135350000Y-100150000D03*
X135350000Y-101420000D03*
X135350000Y-102690000D03*
X135350000Y-103960000D03*
X135350000Y-105230000D03*
X135350000Y-106500000D03*
X140300000Y-106500000D03*
X140300000Y-105230000D03*
X140300000Y-103960000D03*
X140300000Y-102690000D03*
X140300000Y-101420000D03*
X140300000Y-100150000D03*
X140300000Y-98880000D03*
%TD*%
D40*
%TO.C,R6*%
X160600000Y-91387500D03*
X160600000Y-93212500D03*
%TD*%
D41*
%TO.C,BUS_Expansion1*%
X107100001Y-125619148D03*
D42*
X104560000Y-125619148D03*
X107100000Y-123079149D03*
X104560000Y-123079149D03*
X107100000Y-120539149D03*
X104560000Y-120539149D03*
X107100000Y-117999149D03*
X104560000Y-117999149D03*
X107100001Y-115459149D03*
X104560000Y-115459149D03*
X107100000Y-112919148D03*
X104560000Y-112919148D03*
X107100000Y-110379149D03*
X104560000Y-110379149D03*
X107100000Y-107839149D03*
X104560000Y-107839149D03*
X107100001Y-105299149D03*
X104560000Y-105299149D03*
X107100001Y-102759148D03*
X104560000Y-102759148D03*
X107100000Y-100219149D03*
X104560000Y-100219149D03*
X107100000Y-97679149D03*
X104560000Y-97679149D03*
X107100001Y-95139149D03*
X104560000Y-95139149D03*
X107100001Y-92599149D03*
X104560000Y-92599148D03*
X107100000Y-90059148D03*
X104560000Y-90059148D03*
X107100000Y-87519149D03*
X104560000Y-87519149D03*
X107100000Y-84979149D03*
X104560000Y-84979149D03*
X107100001Y-82439149D03*
X104560000Y-82439149D03*
X107100001Y-79899148D03*
X104560000Y-79899148D03*
X107100000Y-77359149D03*
X104560000Y-77359149D03*
X107100000Y-74819149D03*
X104560000Y-74819149D03*
X107100001Y-72279149D03*
X104560000Y-72279149D03*
X107100000Y-69739148D03*
X104560000Y-69739148D03*
X107100000Y-67199149D03*
X104560000Y-67199149D03*
X107100000Y-64659149D03*
X104560000Y-64659149D03*
%TD*%
D33*
%TO.C,R18*%
X170400000Y-101025000D03*
X170400000Y-99200000D03*
%TD*%
D26*
%TO.C,R14*%
X177835000Y-106790000D03*
X179660000Y-106790000D03*
%TD*%
D30*
%TO.C,C11*%
X180400000Y-83700000D03*
D31*
X178399999Y-83700000D03*
%TD*%
D33*
%TO.C,R7*%
X160600000Y-83512500D03*
X160600000Y-81687500D03*
%TD*%
D26*
%TO.C,R15*%
X164297500Y-106790000D03*
X166122500Y-106790000D03*
%TD*%
D29*
%TO.C,IC5*%
X162750000Y-99000000D03*
X162750000Y-100270000D03*
X162750000Y-101540000D03*
X162750000Y-102810000D03*
X167700000Y-102810000D03*
X167700000Y-101540000D03*
X167700000Y-100270000D03*
X167700000Y-99000000D03*
%TD*%
M02*
