%TF.GenerationSoftware,KiCad,Pcbnew,9.0.3*%
%TF.CreationDate,2026-01-04T22:55:42+01:00*%
%TF.ProjectId,DaewooBackslotFMPAC,44616577-6f6f-4426-9163-6b736c6f7446,1.1*%
%TF.SameCoordinates,Original*%
%TF.FileFunction,Copper,L2,Bot*%
%TF.FilePolarity,Positive*%
%FSLAX46Y46*%
G04 Gerber Fmt 4.6, Leading zero omitted, Abs format (unit mm)*
G04 Created by KiCad (PCBNEW 9.0.3) date 2026-01-04 22:55:42*
%MOMM*%
%LPD*%
G01*
G04 APERTURE LIST*
G04 Aperture macros list*
%AMRoundRect*
0 Rectangle with rounded corners*
0 $1 Rounding radius*
0 $2 $3 $4 $5 $6 $7 $8 $9 X,Y pos of 4 corners*
0 Add a 4 corners polygon primitive as box body*
4,1,4,$2,$3,$4,$5,$6,$7,$8,$9,$2,$3,0*
0 Add four circle primitives for the rounded corners*
1,1,$1+$1,$2,$3*
1,1,$1+$1,$4,$5*
1,1,$1+$1,$6,$7*
1,1,$1+$1,$8,$9*
0 Add four rect primitives between the rounded corners*
20,1,$1+$1,$2,$3,$4,$5,0*
20,1,$1+$1,$4,$5,$6,$7,0*
20,1,$1+$1,$6,$7,$8,$9,0*
20,1,$1+$1,$8,$9,$2,$3,0*%
G04 Aperture macros list end*
%TA.AperFunction,ComponentPad*%
%ADD10O,2.200000X1.200000*%
%TD*%
%TA.AperFunction,ComponentPad*%
%ADD11O,2.300000X1.600000*%
%TD*%
%TA.AperFunction,ComponentPad*%
%ADD12O,1.200000X2.200000*%
%TD*%
%TA.AperFunction,ComponentPad*%
%ADD13O,2.500000X1.600000*%
%TD*%
%TA.AperFunction,ComponentPad*%
%ADD14R,1.300000X1.300000*%
%TD*%
%TA.AperFunction,ComponentPad*%
%ADD15C,1.300000*%
%TD*%
%TA.AperFunction,ComponentPad*%
%ADD16RoundRect,0.250000X-0.950000X-0.550000X0.950000X-0.550000X0.950000X0.550000X-0.950000X0.550000X0*%
%TD*%
%TA.AperFunction,ComponentPad*%
%ADD17O,2.400000X1.600000*%
%TD*%
%TA.AperFunction,ComponentPad*%
%ADD18RoundRect,0.250000X0.550000X0.550000X-0.550000X0.550000X-0.550000X-0.550000X0.550000X-0.550000X0*%
%TD*%
%TA.AperFunction,ComponentPad*%
%ADD19C,1.600000*%
%TD*%
%TA.AperFunction,ComponentPad*%
%ADD20RoundRect,0.250000X-0.550000X-0.550000X0.550000X-0.550000X0.550000X0.550000X-0.550000X0.550000X0*%
%TD*%
%TA.AperFunction,ComponentPad*%
%ADD21R,1.700000X1.700000*%
%TD*%
%TA.AperFunction,ComponentPad*%
%ADD22C,1.700000*%
%TD*%
%TA.AperFunction,SMDPad,CuDef*%
%ADD23RoundRect,0.250000X0.475000X-0.250000X0.475000X0.250000X-0.475000X0.250000X-0.475000X-0.250000X0*%
%TD*%
%TA.AperFunction,SMDPad,CuDef*%
%ADD24RoundRect,0.250000X0.450000X-0.262500X0.450000X0.262500X-0.450000X0.262500X-0.450000X-0.262500X0*%
%TD*%
%TA.AperFunction,SMDPad,CuDef*%
%ADD25RoundRect,0.250000X0.250000X0.475000X-0.250000X0.475000X-0.250000X-0.475000X0.250000X-0.475000X0*%
%TD*%
%TA.AperFunction,SMDPad,CuDef*%
%ADD26RoundRect,0.250000X-0.250000X-0.475000X0.250000X-0.475000X0.250000X0.475000X-0.250000X0.475000X0*%
%TD*%
%TA.AperFunction,SMDPad,CuDef*%
%ADD27RoundRect,0.250000X-0.262500X-0.450000X0.262500X-0.450000X0.262500X0.450000X-0.262500X0.450000X0*%
%TD*%
%TA.AperFunction,ViaPad*%
%ADD28C,0.600000*%
%TD*%
%TA.AperFunction,Conductor*%
%ADD29C,0.350000*%
%TD*%
%TA.AperFunction,Conductor*%
%ADD30C,0.500000*%
%TD*%
%TA.AperFunction,Conductor*%
%ADD31C,0.400000*%
%TD*%
G04 APERTURE END LIST*
D10*
%TO.P,J1,R*%
%TO.N,Net-(JP5-B)*%
X179600000Y-120650000D03*
D11*
%TO.P,J1,RN*%
%TO.N,N/C*%
X179600000Y-118150000D03*
D12*
%TO.P,J1,S*%
%TO.N,GND*%
X184600000Y-115650000D03*
D10*
%TO.P,J1,T*%
%TO.N,Net-(JP4-A)*%
X179600000Y-110650000D03*
D13*
%TO.P,J1,TN*%
%TO.N,N/C*%
X179600000Y-113150000D03*
%TD*%
D14*
%TO.P,VREG1,1,VO*%
%TO.N,5VREG*%
X144442500Y-70430000D03*
D15*
%TO.P,VREG1,2,GND*%
%TO.N,GND*%
X145712500Y-71700000D03*
%TO.P,VREG1,3,VI*%
%TO.N,Net-(VREG1-VI)*%
X144442500Y-72970000D03*
%TD*%
D16*
%TO.P,IC1,1,1*%
%TO.N,GND*%
X148480000Y-78599148D03*
D17*
%TO.P,IC1,2,2*%
%TO.N,D2*%
X148480000Y-81139148D03*
%TO.P,IC1,3,3*%
%TO.N,D3*%
X148480000Y-83679147D03*
%TO.P,IC1,4,4*%
%TO.N,D4*%
X148480000Y-86219148D03*
%TO.P,IC1,5,5*%
%TO.N,D5*%
X148480000Y-88759148D03*
%TO.P,IC1,6,6*%
%TO.N,D6*%
X148480000Y-91299148D03*
%TO.P,IC1,7,7*%
%TO.N,D7*%
X148480000Y-93839148D03*
%TO.P,IC1,8,8*%
%TO.N,CLK*%
X148480000Y-96379149D03*
%TO.P,IC1,9,9*%
%TO.N,unconnected-(IC1-Pad9)*%
X148480000Y-98919148D03*
%TO.P,IC1,10,10*%
%TO.N,A0*%
X156100000Y-98919148D03*
%TO.P,IC1,11,11*%
%TO.N,WR*%
X156100000Y-96379148D03*
%TO.P,IC1,12,12*%
%TO.N,Net-(IC2A-O)*%
X156100000Y-93839148D03*
%TO.P,IC1,13,13*%
%TO.N,RST*%
X156100000Y-91299148D03*
%TO.P,IC1,14,14*%
%TO.N,Net-(IC1-Pad14)*%
X156100000Y-88759148D03*
%TO.P,IC1,15,15*%
%TO.N,Net-(IC1-Pad15)*%
X156100000Y-86219148D03*
%TO.P,IC1,16,16*%
%TO.N,5VREG*%
X156100000Y-83679148D03*
%TO.P,IC1,17,17*%
%TO.N,D0*%
X156100000Y-81139148D03*
%TO.P,IC1,18,18*%
%TO.N,D1*%
X156100000Y-78599148D03*
%TD*%
D18*
%TO.P,C12,1*%
%TO.N,N/C*%
X180400000Y-91300000D03*
D19*
%TO.P,C12,2*%
%TO.N,-12V*%
X178399999Y-91300000D03*
%TD*%
D18*
%TO.P,C6,1*%
%TO.N,VCC*%
X112500000Y-66600000D03*
D19*
%TO.P,C6,2*%
%TO.N,GND*%
X110499999Y-66600000D03*
%TD*%
D20*
%TO.P,IC6,1,A15*%
%TO.N,Net-(IC6-A15)*%
X113660000Y-78609148D03*
D19*
%TO.P,IC6,2,A12*%
%TO.N,A12*%
X113660000Y-81149148D03*
%TO.P,IC6,3,A7*%
%TO.N,A7*%
X113660000Y-83689147D03*
%TO.P,IC6,4,A6*%
%TO.N,A6*%
X113660000Y-86229148D03*
%TO.P,IC6,5,A5*%
%TO.N,A5*%
X113660000Y-88769148D03*
%TO.P,IC6,6,A4*%
%TO.N,A4*%
X113660000Y-91309148D03*
%TO.P,IC6,7,A3*%
%TO.N,A3*%
X113660000Y-93849148D03*
%TO.P,IC6,8,A2*%
%TO.N,A2*%
X113660000Y-96389149D03*
%TO.P,IC6,9,A1*%
%TO.N,A1*%
X113660000Y-98929148D03*
%TO.P,IC6,10,A0*%
%TO.N,A0*%
X113660000Y-101469148D03*
%TO.P,IC6,11,D0*%
%TO.N,D0*%
X113660000Y-104009148D03*
%TO.P,IC6,12,D1*%
%TO.N,D1*%
X113660000Y-106549147D03*
%TO.P,IC6,13,D2*%
%TO.N,D2*%
X113660000Y-109089148D03*
%TO.P,IC6,14,GND*%
%TO.N,GND*%
X113660000Y-111629148D03*
%TO.P,IC6,15,D3*%
%TO.N,D3*%
X128900000Y-111629148D03*
%TO.P,IC6,16,D4*%
%TO.N,D4*%
X128900000Y-109089148D03*
%TO.P,IC6,17,D5*%
%TO.N,D5*%
X128900000Y-106549148D03*
%TO.P,IC6,18,D6*%
%TO.N,D6*%
X128900000Y-104009148D03*
%TO.P,IC6,19,D7*%
%TO.N,D7*%
X128900000Y-101469148D03*
%TO.P,IC6,20,~{CE}*%
%TO.N,MY_SLTSEL*%
X128900000Y-98929148D03*
%TO.P,IC6,21,A10*%
%TO.N,A10*%
X128900000Y-96389148D03*
%TO.P,IC6,22,~{OE}*%
%TO.N,RD*%
X128900000Y-93849148D03*
%TO.P,IC6,23,A11*%
%TO.N,A11*%
X128900000Y-91309148D03*
%TO.P,IC6,24,A9*%
%TO.N,A9*%
X128900000Y-88769148D03*
%TO.P,IC6,25,A8*%
%TO.N,A8*%
X128900000Y-86229148D03*
%TO.P,IC6,26,A13*%
%TO.N,A13*%
X128900000Y-83689148D03*
%TO.P,IC6,27,A14*%
%TO.N,A14*%
X128900000Y-81149148D03*
%TO.P,IC6,28,VCC*%
%TO.N,VCC*%
X128900000Y-78609148D03*
%TD*%
D21*
%TO.P,BUS_Expansion1,1,~{CS1}*%
%TO.N,CS1*%
X107100001Y-125619148D03*
D22*
%TO.P,BUS_Expansion1,2,~{CS2}*%
%TO.N,CS2*%
X104560000Y-125619148D03*
%TO.P,BUS_Expansion1,3,~{CS12}*%
%TO.N,CS12*%
X107100000Y-123079149D03*
%TO.P,BUS_Expansion1,4,~{SLTSL}*%
%TO.N,SLTSEL*%
X104560000Y-123079149D03*
%TO.P,BUS_Expansion1,5,NC*%
%TO.N,SLTSEL_ALT*%
X107100000Y-120539149D03*
%TO.P,BUS_Expansion1,6,~{RFSH}*%
%TO.N,RFSH*%
X104560000Y-120539149D03*
%TO.P,BUS_Expansion1,7,~{WAIT}*%
%TO.N,WAIT*%
X107100000Y-117999149D03*
%TO.P,BUS_Expansion1,8,~{INT}*%
%TO.N,INT*%
X104560000Y-117999149D03*
%TO.P,BUS_Expansion1,9,~{M1}*%
%TO.N,M1*%
X107100001Y-115459149D03*
%TO.P,BUS_Expansion1,10,~{BUSDIR}*%
%TO.N,BUSDIR*%
X104560000Y-115459149D03*
%TO.P,BUS_Expansion1,11,~{IORQ}*%
%TO.N,IORQ*%
X107100000Y-112919148D03*
%TO.P,BUS_Expansion1,12,~{MERQ}*%
%TO.N,MERQ*%
X104560000Y-112919148D03*
%TO.P,BUS_Expansion1,13,~{WR}*%
%TO.N,WR*%
X107100000Y-110379149D03*
%TO.P,BUS_Expansion1,14,~{RD}*%
%TO.N,RD*%
X104560000Y-110379149D03*
%TO.P,BUS_Expansion1,15,~{RESET}*%
%TO.N,RST*%
X107100000Y-107839149D03*
%TO.P,BUS_Expansion1,16,NC*%
%TO.N,unconnected-(BUS_Expansion1-NC-Pad16)*%
X104560000Y-107839149D03*
%TO.P,BUS_Expansion1,17,A9*%
%TO.N,A9*%
X107100001Y-105299149D03*
%TO.P,BUS_Expansion1,18,A15*%
%TO.N,A15*%
X104560000Y-105299149D03*
%TO.P,BUS_Expansion1,19,A11*%
%TO.N,A11*%
X107100001Y-102759148D03*
%TO.P,BUS_Expansion1,20,A10*%
%TO.N,A10*%
X104560000Y-102759148D03*
%TO.P,BUS_Expansion1,21,A7*%
%TO.N,A7*%
X107100000Y-100219149D03*
%TO.P,BUS_Expansion1,22,A6*%
%TO.N,A6*%
X104560000Y-100219149D03*
%TO.P,BUS_Expansion1,23,A12*%
%TO.N,A12*%
X107100000Y-97679149D03*
%TO.P,BUS_Expansion1,24,A8*%
%TO.N,A8*%
X104560000Y-97679149D03*
%TO.P,BUS_Expansion1,25,A14*%
%TO.N,A14*%
X107100001Y-95139149D03*
%TO.P,BUS_Expansion1,26,A13*%
%TO.N,A13*%
X104560000Y-95139149D03*
%TO.P,BUS_Expansion1,27,A1*%
%TO.N,A1*%
X107100001Y-92599149D03*
%TO.P,BUS_Expansion1,28,A0*%
%TO.N,A0*%
X104560000Y-92599148D03*
%TO.P,BUS_Expansion1,29,A3*%
%TO.N,A3*%
X107100000Y-90059148D03*
%TO.P,BUS_Expansion1,30,A2*%
%TO.N,A2*%
X104560000Y-90059148D03*
%TO.P,BUS_Expansion1,31,A5*%
%TO.N,A5*%
X107100000Y-87519149D03*
%TO.P,BUS_Expansion1,32,A4*%
%TO.N,A4*%
X104560000Y-87519149D03*
%TO.P,BUS_Expansion1,33,D1*%
%TO.N,D1*%
X107100000Y-84979149D03*
%TO.P,BUS_Expansion1,34,D0*%
%TO.N,D0*%
X104560000Y-84979149D03*
%TO.P,BUS_Expansion1,35,D3*%
%TO.N,D3*%
X107100001Y-82439149D03*
%TO.P,BUS_Expansion1,36,D2~{}*%
%TO.N,D2*%
X104560000Y-82439149D03*
%TO.P,BUS_Expansion1,37,D5*%
%TO.N,D5*%
X107100001Y-79899148D03*
%TO.P,BUS_Expansion1,38,D4*%
%TO.N,D4*%
X104560000Y-79899148D03*
%TO.P,BUS_Expansion1,39,D7*%
%TO.N,D7*%
X107100000Y-77359149D03*
%TO.P,BUS_Expansion1,40,D6*%
%TO.N,D6*%
X104560000Y-77359149D03*
%TO.P,BUS_Expansion1,41,GND*%
%TO.N,GND*%
X107100000Y-74819149D03*
%TO.P,BUS_Expansion1,42,CLOCK*%
%TO.N,CLK*%
X104560000Y-74819149D03*
%TO.P,BUS_Expansion1,43,GND*%
%TO.N,GND*%
X107100001Y-72279149D03*
%TO.P,BUS_Expansion1,44,SW1*%
%TO.N,SW1*%
X104560000Y-72279149D03*
%TO.P,BUS_Expansion1,45,VCC*%
%TO.N,VCC*%
X107100000Y-69739148D03*
%TO.P,BUS_Expansion1,46,SW2*%
%TO.N,SW2*%
X104560000Y-69739148D03*
%TO.P,BUS_Expansion1,47,VCC*%
%TO.N,VCC*%
X107100000Y-67199149D03*
%TO.P,BUS_Expansion1,48,+12V*%
%TO.N,+12V*%
X104560000Y-67199149D03*
%TO.P,BUS_Expansion1,49,SOUNDIN*%
%TO.N,SNDIN*%
X107100000Y-64659149D03*
%TO.P,BUS_Expansion1,50,-12V*%
%TO.N,-12V*%
X104560000Y-64659149D03*
%TD*%
D18*
%TO.P,C11,1*%
%TO.N,+12V*%
X180400000Y-83700000D03*
D19*
%TO.P,C11,2*%
%TO.N,N/C*%
X178399999Y-83700000D03*
%TD*%
D23*
%TO.P,C10,1,1*%
%TO.N,Net-(IC4A--IN)*%
X173500000Y-101112500D03*
%TO.P,C10,2,2*%
%TO.N,EXTR*%
X173500000Y-99212502D03*
%TD*%
D24*
%TO.P,R12,1,1*%
%TO.N,Net-(IC4C-V+)*%
X184000000Y-84612500D03*
%TO.P,R12,2,2*%
%TO.N,+12V*%
X184000000Y-82787500D03*
%TD*%
D25*
%TO.P,C15,1*%
%TO.N,VCC*%
X138774999Y-102690000D03*
%TO.P,C15,2*%
%TO.N,GND*%
X136875001Y-102690000D03*
%TD*%
%TO.P,C5,1*%
%TO.N,VCC*%
X122229999Y-78600000D03*
%TO.P,C5,2*%
%TO.N,GND*%
X120330001Y-78600000D03*
%TD*%
D23*
%TO.P,C13,1,1*%
%TO.N,Net-(IC4B--IN)*%
X184000000Y-100999998D03*
%TO.P,C13,2,2*%
%TO.N,STLR*%
X184000000Y-99100000D03*
%TD*%
D26*
%TO.P,C7,1,1*%
%TO.N,GND*%
X151450000Y-83700000D03*
%TO.P,C7,2,2*%
%TO.N,5VREG*%
X153350000Y-83700000D03*
%TD*%
D27*
%TO.P,R17,1,1*%
%TO.N,EXTL*%
X164275000Y-100900000D03*
%TO.P,R17,2,2*%
%TO.N,Net-(IC5B--IN)*%
X166100000Y-100900000D03*
%TD*%
D24*
%TO.P,R13,1,1*%
%TO.N,Net-(IC4C-V-)*%
X184060000Y-92212500D03*
%TO.P,R13,2,2*%
%TO.N,-12V*%
X184060000Y-90387500D03*
%TD*%
D25*
%TO.P,C16,1*%
%TO.N,VCC*%
X138774999Y-87310000D03*
%TO.P,C16,2*%
%TO.N,GND*%
X136875001Y-87310000D03*
%TD*%
D23*
%TO.P,C17,1,1*%
%TO.N,Net-(IC5A--IN)*%
X160200000Y-101049999D03*
%TO.P,C17,2,2*%
%TO.N,EXTL*%
X160200000Y-99150001D03*
%TD*%
%TO.P,C18,1,1*%
%TO.N,Net-(IC5B--IN)*%
X170400000Y-101049999D03*
%TO.P,C18,2,2*%
%TO.N,SLTL*%
X170400000Y-99150001D03*
%TD*%
D27*
%TO.P,R2,1,1*%
%TO.N,EXTR*%
X177775000Y-100900000D03*
%TO.P,R2,2,2*%
%TO.N,Net-(IC4B--IN)*%
X179600000Y-100900000D03*
%TD*%
D28*
%TO.N,-12V*%
X184060000Y-87740000D03*
%TO.N,GND*%
X136400000Y-66600000D03*
X122200000Y-66600000D03*
X173250000Y-95000000D03*
X113700000Y-126050000D03*
X111200000Y-69700000D03*
X184550000Y-68550000D03*
X141500000Y-82150000D03*
X130500000Y-80050000D03*
X186850000Y-64950000D03*
X173400000Y-74700000D03*
X182750000Y-95900000D03*
X182800000Y-104000000D03*
X117000000Y-67600000D03*
X171850000Y-104000000D03*
X137700000Y-106500000D03*
X167800000Y-115589149D03*
X108500000Y-66500000D03*
X166900000Y-74700000D03*
X162200000Y-115500000D03*
X133500000Y-98900000D03*
X112400000Y-69700000D03*
X133600000Y-80050000D03*
X152500000Y-98600000D03*
X186950000Y-108600000D03*
X147200000Y-76400000D03*
X130500000Y-75850000D03*
X115500000Y-111600000D03*
X142500000Y-102700000D03*
X156850000Y-124900000D03*
X156900000Y-115500000D03*
X118400000Y-67600000D03*
X117300000Y-78530000D03*
X133500000Y-91100000D03*
X142500000Y-100200000D03*
X113700000Y-117850000D03*
X133600000Y-83700000D03*
X108500000Y-67700000D03*
X152500000Y-88750000D03*
X155750000Y-76400000D03*
X130500000Y-83700000D03*
X125300000Y-66600000D03*
X171850000Y-107800000D03*
X133600000Y-75850000D03*
X139500000Y-66600000D03*
X186350000Y-124900000D03*
X149600000Y-76400000D03*
X111900000Y-111600000D03*
X118740000Y-78530000D03*
X177250000Y-87800000D03*
X133500000Y-102650000D03*
X133500000Y-106500000D03*
%TO.N,VCC*%
X141440000Y-97740000D03*
X142700000Y-87300000D03*
%TO.N,+12V*%
X131300000Y-65600000D03*
X129900000Y-65600000D03*
%TO.N,A8*%
X112300000Y-100400000D03*
%TO.N,A14*%
X110900000Y-98500000D03*
%TO.N,D2*%
X143874000Y-81000000D03*
X141500000Y-81000000D03*
%TO.N,D1*%
X126300000Y-95213148D03*
X136300000Y-74479000D03*
X117700000Y-103000000D03*
%TO.N,D3*%
X143874000Y-83600000D03*
%TO.N,A2*%
X130300000Y-92400000D03*
X117300000Y-96400000D03*
%TO.N,D4*%
X145225000Y-86300000D03*
%TO.N,RD*%
X115600000Y-103900000D03*
%TO.N,A13*%
X111600000Y-99400000D03*
%TO.N,D7*%
X146500000Y-93800000D03*
%TO.N,D5*%
X145100000Y-88759148D03*
%TO.N,IORQ*%
X142200000Y-105200000D03*
X123200000Y-107900000D03*
%TO.N,D6*%
X146600000Y-91299148D03*
%TO.N,EXTR*%
X161800000Y-104250000D03*
X176250000Y-97250000D03*
X173530000Y-97240000D03*
%TO.N,A0*%
X108700000Y-106600000D03*
X108800000Y-114950000D03*
X108800000Y-111800000D03*
%TO.N,A6*%
X115900000Y-84000000D03*
%TO.N,D0*%
X142425000Y-80000000D03*
X120600000Y-97753148D03*
X136300000Y-75700000D03*
%TO.N,A7*%
X116227298Y-92927298D03*
X130700000Y-100300000D03*
%TO.N,A1*%
X116000000Y-98900000D03*
X130700000Y-102900000D03*
%TO.N,MY_SLTSEL*%
X124200000Y-115900000D03*
X124200000Y-113200000D03*
%TO.N,Net-(IC4A--IN)*%
X173530000Y-102800000D03*
%TO.N,Net-(IC4B--IN)*%
X185600000Y-101000000D03*
%TO.N,EXTL*%
X162710000Y-97240000D03*
X158590000Y-99180000D03*
X160550000Y-105350000D03*
%TO.N,Net-(IC2A-O)*%
X140300000Y-92200000D03*
%TO.N,Net-(IC2A-I0)*%
X137200000Y-84200000D03*
X139000000Y-96600000D03*
%TO.N,Net-(IC4C-V+)*%
X171000000Y-95950000D03*
X181200000Y-94400000D03*
%TO.N,Net-(IC4C-V-)*%
X176250000Y-105350000D03*
X162700000Y-105350000D03*
%TO.N,Net-(IC5A--IN)*%
X158620000Y-101010000D03*
%TO.N,Net-(IC5B--IN)*%
X170390000Y-102800000D03*
%TO.N,STLR*%
X185600000Y-99150000D03*
%TO.N,SLTL*%
X170390000Y-97240000D03*
%TD*%
D29*
%TO.N,CLK*%
X109706851Y-73593149D02*
X113896000Y-69404000D01*
X113896000Y-69404000D02*
X149304000Y-69404000D01*
X150400000Y-94459149D02*
X148480000Y-96379149D01*
X150400000Y-70500000D02*
X150400000Y-94459149D01*
X105786000Y-73593149D02*
X109706851Y-73593149D01*
X149304000Y-69404000D02*
X150400000Y-70500000D01*
X104560000Y-74819149D02*
X105786000Y-73593149D01*
D30*
%TO.N,-12V*%
X186900000Y-67200000D02*
X184400000Y-64700000D01*
X104560000Y-64659149D02*
X105786000Y-65885149D01*
X184060000Y-87740000D02*
X186900000Y-84900000D01*
D31*
X105827190Y-65926339D02*
X107973661Y-65926339D01*
D30*
X184400000Y-64700000D02*
X109200000Y-64700000D01*
D31*
X105786000Y-65885149D02*
X105827190Y-65926339D01*
D30*
X109200000Y-64700000D02*
X108014851Y-65885149D01*
X186900000Y-84900000D02*
X186900000Y-67200000D01*
X184060000Y-90387500D02*
X184060000Y-87740000D01*
D31*
X107973661Y-65926339D02*
X108014851Y-65885149D01*
D29*
%TO.N,VCC*%
X138774999Y-102690000D02*
X138774999Y-100405001D01*
X142690000Y-87310000D02*
X142700000Y-87300000D01*
X128570000Y-78279148D02*
X128900000Y-78609148D01*
X122229999Y-78600000D02*
X128890852Y-78600000D01*
X138774999Y-100405001D02*
X141440000Y-97740000D01*
X128890852Y-78600000D02*
X128900000Y-78609148D01*
X138774999Y-87310000D02*
X142690000Y-87310000D01*
D31*
%TO.N,+12V*%
X105829212Y-68468361D02*
X113931639Y-68468361D01*
X113931639Y-68468361D02*
X113974851Y-68425149D01*
D30*
X131300000Y-65600000D02*
X183700000Y-65600000D01*
X185900000Y-78500000D02*
X184000000Y-80400000D01*
X129900000Y-65600000D02*
X131300000Y-65600000D01*
X127074851Y-68425149D02*
X129900000Y-65600000D01*
D31*
X105786000Y-68425149D02*
X105829212Y-68468361D01*
D30*
X181312500Y-82787500D02*
X180400000Y-83700000D01*
X113974851Y-68425149D02*
X127074851Y-68425149D01*
X184000000Y-82787500D02*
X181312500Y-82787500D01*
X104560000Y-67199149D02*
X105786000Y-68425149D01*
X185900000Y-67800000D02*
X185900000Y-78500000D01*
X184000000Y-80400000D02*
X184000000Y-82787500D01*
X183700000Y-65600000D02*
X185900000Y-67800000D01*
D29*
%TO.N,A8*%
X112300000Y-93400000D02*
X112300000Y-100400000D01*
X113214852Y-92485148D02*
X112300000Y-93400000D01*
X128900000Y-86229148D02*
X120470852Y-86229148D01*
X114214852Y-92485148D02*
X113214852Y-92485148D01*
X120470852Y-86229148D02*
X114214852Y-92485148D01*
%TO.N,A9*%
X115200000Y-93000000D02*
X115200000Y-101592264D01*
X111866852Y-102833148D02*
X109400851Y-105299149D01*
X115200000Y-101592264D02*
X113959116Y-102833148D01*
X113959116Y-102833148D02*
X111866852Y-102833148D01*
X128900000Y-88769148D02*
X119430852Y-88769148D01*
X119430852Y-88769148D02*
X115200000Y-93000000D01*
X109400851Y-105299149D02*
X107100001Y-105299149D01*
%TO.N,A14*%
X114294852Y-87405148D02*
X113294852Y-87405148D01*
X120550852Y-81149148D02*
X114294852Y-87405148D01*
X128900000Y-81149148D02*
X120550852Y-81149148D01*
X110900000Y-89800000D02*
X110900000Y-98500000D01*
X113294852Y-87405148D02*
X110900000Y-89800000D01*
%TO.N,D2*%
X115298000Y-72702000D02*
X137185072Y-72702000D01*
X143874000Y-79390928D02*
X143874000Y-81000000D01*
X105786000Y-81213149D02*
X107786851Y-81213149D01*
X124400000Y-105300000D02*
X129900000Y-105300000D01*
X132800000Y-82000000D02*
X133800000Y-81000000D01*
X108500000Y-80500000D02*
X108500000Y-79500000D01*
X108500000Y-79500000D02*
X115298000Y-72702000D01*
X137185072Y-72702000D02*
X143874000Y-79390928D01*
X104560000Y-82439149D02*
X105786000Y-81213149D01*
X120610852Y-109089148D02*
X124400000Y-105300000D01*
X107786851Y-81213149D02*
X108500000Y-80500000D01*
X133800000Y-81000000D02*
X141500000Y-81000000D01*
X132800000Y-102400000D02*
X132800000Y-82000000D01*
X129900000Y-105300000D02*
X132800000Y-102400000D01*
X113660000Y-109089148D02*
X120610852Y-109089148D01*
%TO.N,D1*%
X119900000Y-74400000D02*
X114326852Y-79973148D01*
X114150853Y-106549147D02*
X113660000Y-106549147D01*
X117700000Y-103000000D02*
X114150853Y-106549147D01*
X129286852Y-95213148D02*
X131300000Y-93200000D01*
X136300000Y-74479000D02*
X136221000Y-74400000D01*
X112106001Y-79973148D02*
X107100000Y-84979149D01*
X131300000Y-93200000D02*
X131300000Y-74400000D01*
X136221000Y-74400000D02*
X131300000Y-74400000D01*
X126300000Y-95213148D02*
X129286852Y-95213148D01*
X114326852Y-79973148D02*
X112106001Y-79973148D01*
X131300000Y-74400000D02*
X119900000Y-74400000D01*
%TO.N,WR*%
X107100000Y-110379149D02*
X142576884Y-110379149D01*
X156100000Y-96856033D02*
X156100000Y-96379148D01*
X142576884Y-110379149D02*
X156100000Y-96856033D01*
%TO.N,D3*%
X143100000Y-79396160D02*
X143100000Y-82826000D01*
X109200000Y-80700000D02*
X109200000Y-79700000D01*
X136956840Y-73253000D02*
X143100000Y-79396160D01*
X115647000Y-73253000D02*
X136956840Y-73253000D01*
X143100000Y-82826000D02*
X143874000Y-83600000D01*
X107100001Y-82439149D02*
X107460851Y-82439149D01*
X107460851Y-82439149D02*
X109200000Y-80700000D01*
X109200000Y-79700000D02*
X115647000Y-73253000D01*
%TO.N,A2*%
X121100000Y-92600000D02*
X117300000Y-96400000D01*
X130100000Y-92600000D02*
X121100000Y-92600000D01*
X130300000Y-92400000D02*
X130100000Y-92600000D01*
%TO.N,D4*%
X107614851Y-78585149D02*
X114600000Y-71600000D01*
X105873999Y-78585149D02*
X107614851Y-78585149D01*
X114600000Y-71600000D02*
X137641536Y-71600000D01*
X137641536Y-71600000D02*
X145200000Y-79158464D01*
X104560000Y-79899148D02*
X105873999Y-78585149D01*
X145200000Y-86275000D02*
X145225000Y-86300000D01*
X145200000Y-79158464D02*
X145200000Y-86275000D01*
%TO.N,RD*%
X115600000Y-103900000D02*
X114126853Y-105373147D01*
X111387828Y-105373147D02*
X107607826Y-109153149D01*
X107607826Y-109153149D02*
X105786000Y-109153149D01*
X114126853Y-105373147D02*
X111387828Y-105373147D01*
X105786000Y-109153149D02*
X104560000Y-110379149D01*
%TO.N,A13*%
X114154852Y-89945148D02*
X113360884Y-89945148D01*
X120410852Y-83689148D02*
X114154852Y-89945148D01*
X113360884Y-89945148D02*
X111600000Y-91706032D01*
X128900000Y-83689148D02*
X120410852Y-83689148D01*
X111600000Y-91706032D02*
X111600000Y-99400000D01*
%TO.N,D7*%
X107940851Y-77359149D02*
X107100000Y-77359149D01*
X114300000Y-71000000D02*
X107940851Y-77359149D01*
X137820768Y-71000000D02*
X114300000Y-71000000D01*
X145900000Y-93200000D02*
X145900000Y-79079232D01*
X146500000Y-93800000D02*
X145900000Y-93200000D01*
X145900000Y-79079232D02*
X137820768Y-71000000D01*
%TO.N,D5*%
X144549000Y-88208148D02*
X144549000Y-79286696D01*
X107200852Y-79899148D02*
X107100001Y-79899148D01*
X145100000Y-88759148D02*
X144549000Y-88208148D01*
X144549000Y-79286696D02*
X137413304Y-72151000D01*
X114949000Y-72151000D02*
X107200852Y-79899148D01*
X137413304Y-72151000D02*
X114949000Y-72151000D01*
%TO.N,IORQ*%
X125913148Y-107913148D02*
X139486852Y-107913148D01*
X139486852Y-107913148D02*
X142200000Y-105200000D01*
X125900000Y-107900000D02*
X125913148Y-107913148D01*
X123200000Y-107900000D02*
X125900000Y-107900000D01*
%TO.N,D6*%
X146600000Y-91299148D02*
X146600000Y-79000000D01*
X138049000Y-70449000D02*
X113851000Y-70449000D01*
X113851000Y-70449000D02*
X108254851Y-76045149D01*
X105874000Y-76045149D02*
X104560000Y-77359149D01*
X108254851Y-76045149D02*
X105874000Y-76045149D01*
X146600000Y-79000000D02*
X138049000Y-70449000D01*
D30*
%TO.N,EXTR*%
X173530000Y-99182502D02*
X173500000Y-99212502D01*
X173500000Y-99212502D02*
X172324000Y-100388502D01*
X170002075Y-104250000D02*
X161800000Y-104250000D01*
X172324000Y-101928075D02*
X170002075Y-104250000D01*
X172324000Y-100388502D02*
X172324000Y-101928075D01*
X177775000Y-98775000D02*
X176250000Y-97250000D01*
X173530000Y-97240000D02*
X173530000Y-99182502D01*
X177775000Y-100900000D02*
X177775000Y-98775000D01*
D29*
%TO.N,A0*%
X108800000Y-114950000D02*
X108800000Y-111800000D01*
X106614852Y-103985148D02*
X108414852Y-103985148D01*
X110930852Y-101469148D02*
X113660000Y-101469148D01*
X105874001Y-104725999D02*
X106614852Y-103985148D01*
X108700000Y-106600000D02*
X106667026Y-106600000D01*
X108414852Y-103985148D02*
X110930852Y-101469148D01*
X105874001Y-105806975D02*
X105874001Y-104725999D01*
X106667026Y-106600000D02*
X105874001Y-105806975D01*
%TO.N,A6*%
X115900000Y-84000000D02*
X115889148Y-84000000D01*
X113660000Y-86229148D02*
X112870852Y-86229148D01*
X110095190Y-98957785D02*
X107607826Y-101445149D01*
X115889148Y-84000000D02*
X113660000Y-86229148D01*
X105786000Y-101445149D02*
X104560000Y-100219149D01*
X112870852Y-86229148D02*
X110095190Y-89004810D01*
X107607826Y-101445149D02*
X105786000Y-101445149D01*
X110095190Y-89004810D02*
X110095190Y-98957785D01*
%TO.N,A12*%
X108515999Y-96263150D02*
X107100000Y-97679149D01*
X113660000Y-81149148D02*
X108515999Y-86293149D01*
X108515999Y-86293149D02*
X108515999Y-96263150D01*
%TO.N,D0*%
X142549000Y-79876000D02*
X142425000Y-80000000D01*
X104560000Y-84979149D02*
X105786000Y-83753149D01*
X136300000Y-75700000D02*
X136200000Y-75700000D01*
X107519827Y-83753149D02*
X112000000Y-79272976D01*
X132100000Y-79800000D02*
X132100000Y-95500000D01*
X114190852Y-104009148D02*
X113660000Y-104009148D01*
X115996000Y-73804000D02*
X136704000Y-73804000D01*
X136704000Y-73804000D02*
X142549000Y-79649000D01*
X132100000Y-95500000D02*
X129846852Y-97753148D01*
X112000000Y-77800000D02*
X115996000Y-73804000D01*
X136200000Y-75700000D02*
X132100000Y-79800000D01*
X112000000Y-79272976D02*
X112000000Y-77800000D01*
X142549000Y-79649000D02*
X142549000Y-79876000D01*
X105786000Y-83753149D02*
X107519827Y-83753149D01*
X129846852Y-97753148D02*
X120600000Y-97753148D01*
%TO.N,A7*%
X109300000Y-98019149D02*
X107100000Y-100219149D01*
X116227298Y-92927298D02*
X116227298Y-97327298D01*
X119193148Y-100293148D02*
X130693148Y-100293148D01*
X109300000Y-88100000D02*
X109300000Y-98019149D01*
X113660000Y-83689147D02*
X113660000Y-83740000D01*
X113660000Y-83740000D02*
X109300000Y-88100000D01*
X116227298Y-97327298D02*
X119193148Y-100293148D01*
X130693148Y-100293148D02*
X130700000Y-100300000D01*
%TO.N,A1*%
X116000000Y-98900000D02*
X116200000Y-98900000D01*
X130633148Y-102833148D02*
X130700000Y-102900000D01*
X116200000Y-98900000D02*
X120133148Y-102833148D01*
X120133148Y-102833148D02*
X130633148Y-102833148D01*
%TO.N,MY_SLTSEL*%
X124200000Y-113200000D02*
X124200000Y-115900000D01*
%TO.N,5VREG*%
X156079148Y-83700000D02*
X156100000Y-83679148D01*
X153350000Y-83700000D02*
X156079148Y-83700000D01*
D30*
%TO.N,Net-(IC4A--IN)*%
X173530000Y-102800000D02*
X173530000Y-101142500D01*
X173530000Y-101142500D02*
X173500000Y-101112500D01*
%TO.N,Net-(IC4B--IN)*%
X185500000Y-100900000D02*
X185600000Y-101000000D01*
X179600000Y-100900000D02*
X185500000Y-100900000D01*
X184000002Y-101000000D02*
X184000000Y-100999998D01*
X185600000Y-101000000D02*
X184000002Y-101000000D01*
%TO.N,EXTL*%
X160550000Y-103350000D02*
X163000000Y-100900000D01*
X160550000Y-105350000D02*
X160550000Y-103350000D01*
X164275000Y-100900000D02*
X164275000Y-98805000D01*
X163000000Y-100900000D02*
X164275000Y-100900000D01*
X164275000Y-98805000D02*
X162710000Y-97240000D01*
X160170001Y-99180000D02*
X160200000Y-99150001D01*
X158590000Y-99180000D02*
X160170001Y-99180000D01*
D29*
%TO.N,Net-(IC2A-O)*%
X147455149Y-97555149D02*
X152383999Y-97555149D01*
X152383999Y-97555149D02*
X156100000Y-93839148D01*
X142800000Y-92900000D02*
X147455149Y-97555149D01*
X140300000Y-92200000D02*
X141000000Y-92900000D01*
X141000000Y-92900000D02*
X142800000Y-92900000D01*
%TO.N,Net-(IC2A-I0)*%
X139000000Y-96600000D02*
X137898999Y-95498999D01*
X137898999Y-95498999D02*
X137898999Y-84898999D01*
X137898999Y-84898999D02*
X137200000Y-84200000D01*
D30*
%TO.N,Net-(IC4C-V+)*%
X181200000Y-94400000D02*
X181200000Y-94300000D01*
X181200000Y-94300000D02*
X182200000Y-93300000D01*
X181200000Y-94400000D02*
X181100000Y-94400000D01*
X179550000Y-95950000D02*
X171000000Y-95950000D01*
X183437500Y-84612500D02*
X184000000Y-84612500D01*
X181100000Y-94400000D02*
X179550000Y-95950000D01*
X182200000Y-85850000D02*
X183437500Y-84612500D01*
X182200000Y-93300000D02*
X182200000Y-85850000D01*
%TO.N,Net-(IC4C-V-)*%
X184050000Y-95050000D02*
X184060000Y-95040000D01*
X176250000Y-108700000D02*
X176250000Y-105350000D01*
X182100000Y-108700000D02*
X176250000Y-108700000D01*
X184060000Y-95040000D02*
X184060000Y-92212500D01*
X162700000Y-105350000D02*
X162700000Y-107600000D01*
X163800000Y-108700000D02*
X176250000Y-108700000D01*
X184050000Y-95050000D02*
X186850000Y-97850000D01*
X186850000Y-97850000D02*
X186850000Y-103950000D01*
X162700000Y-107600000D02*
X163800000Y-108700000D01*
X186850000Y-103950000D02*
X182100000Y-108700000D01*
%TO.N,Net-(IC5A--IN)*%
X160160001Y-101010000D02*
X160200000Y-101049999D01*
X158620000Y-101010000D02*
X160160001Y-101010000D01*
%TO.N,Net-(IC5B--IN)*%
X170390000Y-102800000D02*
X170390000Y-101059999D01*
X166100000Y-101580000D02*
X166100000Y-100900000D01*
X170390000Y-101059999D02*
X170400000Y-101049999D01*
X167320000Y-102800000D02*
X166100000Y-101580000D01*
X170390000Y-102800000D02*
X167320000Y-102800000D01*
%TO.N,STLR*%
X185600000Y-99150000D02*
X184050000Y-99150000D01*
X184050000Y-99150000D02*
X184000000Y-99100000D01*
%TO.N,SLTL*%
X170390000Y-97240000D02*
X170390000Y-99140001D01*
X170390000Y-99140001D02*
X170400000Y-99150001D01*
%TD*%
%TA.AperFunction,Conductor*%
%TO.N,GND*%
G36*
X187326420Y-63658556D02*
G01*
X187334820Y-63665392D01*
X188067096Y-64331096D01*
X188097434Y-64384228D01*
X188099500Y-64404349D01*
X188099500Y-110342835D01*
X188080593Y-110401026D01*
X188031093Y-110436990D01*
X187969907Y-110436990D01*
X187920407Y-110401026D01*
X187909036Y-110380721D01*
X187853703Y-110247137D01*
X187760626Y-110107838D01*
X187642162Y-109989374D01*
X187549084Y-109927181D01*
X187502862Y-109896296D01*
X187348085Y-109832185D01*
X187348079Y-109832183D01*
X187183769Y-109799500D01*
X187183767Y-109799500D01*
X187016233Y-109799500D01*
X187016230Y-109799500D01*
X186851920Y-109832183D01*
X186851914Y-109832185D01*
X186697137Y-109896296D01*
X186557838Y-109989374D01*
X186557834Y-109989377D01*
X186439377Y-110107834D01*
X186439374Y-110107838D01*
X186346296Y-110247137D01*
X186282185Y-110401914D01*
X186282183Y-110401920D01*
X186249500Y-110566230D01*
X186249500Y-110733769D01*
X186282183Y-110898079D01*
X186282185Y-110898085D01*
X186346296Y-111052862D01*
X186346297Y-111052863D01*
X186439374Y-111192162D01*
X186557838Y-111310626D01*
X186697137Y-111403703D01*
X186851918Y-111467816D01*
X187016233Y-111500500D01*
X187016234Y-111500500D01*
X187183766Y-111500500D01*
X187183767Y-111500500D01*
X187348082Y-111467816D01*
X187502863Y-111403703D01*
X187642162Y-111310626D01*
X187760626Y-111192162D01*
X187853703Y-111052863D01*
X187909036Y-110919277D01*
X187948773Y-110872753D01*
X188008268Y-110858469D01*
X188064795Y-110881884D01*
X188096765Y-110934053D01*
X188099500Y-110957164D01*
X188099500Y-120342835D01*
X188080593Y-120401026D01*
X188031093Y-120436990D01*
X187969907Y-120436990D01*
X187920407Y-120401026D01*
X187909036Y-120380721D01*
X187853703Y-120247137D01*
X187760626Y-120107838D01*
X187642162Y-119989374D01*
X187502863Y-119896297D01*
X187502864Y-119896297D01*
X187502862Y-119896296D01*
X187348085Y-119832185D01*
X187348079Y-119832183D01*
X187183769Y-119799500D01*
X187183767Y-119799500D01*
X187016233Y-119799500D01*
X187016230Y-119799500D01*
X186851920Y-119832183D01*
X186851914Y-119832185D01*
X186697137Y-119896296D01*
X186557838Y-119989374D01*
X186557834Y-119989377D01*
X186439377Y-120107834D01*
X186439374Y-120107838D01*
X186346296Y-120247137D01*
X186282185Y-120401914D01*
X186282183Y-120401920D01*
X186249500Y-120566230D01*
X186249500Y-120733769D01*
X186282183Y-120898079D01*
X186282185Y-120898085D01*
X186346296Y-121052862D01*
X186346297Y-121052863D01*
X186439374Y-121192162D01*
X186557838Y-121310626D01*
X186697137Y-121403703D01*
X186851918Y-121467816D01*
X187016233Y-121500500D01*
X187016234Y-121500500D01*
X187183766Y-121500500D01*
X187183767Y-121500500D01*
X187348082Y-121467816D01*
X187502863Y-121403703D01*
X187642162Y-121310626D01*
X187760626Y-121192162D01*
X187853703Y-121052863D01*
X187909036Y-120919277D01*
X187948773Y-120872753D01*
X188008268Y-120858469D01*
X188064795Y-120881884D01*
X188096765Y-120934053D01*
X188099500Y-120957164D01*
X188099500Y-125873947D01*
X188080593Y-125932138D01*
X188067094Y-125947201D01*
X187369813Y-126581095D01*
X187334824Y-126612903D01*
X187279048Y-126638056D01*
X187268229Y-126638649D01*
X108241345Y-126638649D01*
X108183154Y-126619742D01*
X108147190Y-126570242D01*
X108144248Y-126520334D01*
X108150499Y-126488906D01*
X108150501Y-126488894D01*
X108150501Y-124749401D01*
X108150499Y-124749389D01*
X108147712Y-124735379D01*
X108138868Y-124690917D01*
X108094553Y-124624596D01*
X108094549Y-124624593D01*
X108028234Y-124580282D01*
X108028232Y-124580281D01*
X108028229Y-124580280D01*
X108028228Y-124580280D01*
X107969759Y-124568649D01*
X107969749Y-124568648D01*
X106230253Y-124568648D01*
X106230252Y-124568648D01*
X106230242Y-124568649D01*
X106171773Y-124580280D01*
X106171767Y-124580282D01*
X106105452Y-124624593D01*
X106105446Y-124624599D01*
X106061135Y-124690914D01*
X106061133Y-124690920D01*
X106049502Y-124749389D01*
X106049501Y-124749401D01*
X106049501Y-126488894D01*
X106049502Y-126488906D01*
X106055754Y-126520334D01*
X106048564Y-126581095D01*
X106007032Y-126626025D01*
X105958657Y-126638649D01*
X105251419Y-126638649D01*
X105193228Y-126619742D01*
X105157264Y-126570242D01*
X105157264Y-126509056D01*
X105193228Y-126459556D01*
X105196418Y-126457333D01*
X105212686Y-126446463D01*
X105229655Y-126435125D01*
X105375977Y-126288803D01*
X105490941Y-126116746D01*
X105570130Y-125925568D01*
X105610500Y-125722613D01*
X105610500Y-125515683D01*
X105570130Y-125312728D01*
X105490941Y-125121550D01*
X105375977Y-124949493D01*
X105229655Y-124803171D01*
X105223344Y-124798954D01*
X105057597Y-124688206D01*
X104866418Y-124609017D01*
X104663467Y-124568648D01*
X104663465Y-124568648D01*
X104456535Y-124568648D01*
X104456532Y-124568648D01*
X104253581Y-124609017D01*
X104062402Y-124688206D01*
X103890348Y-124803168D01*
X103890345Y-124803170D01*
X103890345Y-124803171D01*
X103869501Y-124824014D01*
X103814987Y-124851790D01*
X103754555Y-124842219D01*
X103711290Y-124798954D01*
X103700500Y-124754009D01*
X103700500Y-123944288D01*
X103719407Y-123886097D01*
X103768907Y-123850133D01*
X103830093Y-123850133D01*
X103869501Y-123874282D01*
X103890345Y-123895126D01*
X104062402Y-124010090D01*
X104253580Y-124089279D01*
X104456535Y-124129649D01*
X104456536Y-124129649D01*
X104663464Y-124129649D01*
X104663465Y-124129649D01*
X104866420Y-124089279D01*
X105057598Y-124010090D01*
X105229655Y-123895126D01*
X105375977Y-123748804D01*
X105490941Y-123576747D01*
X105570130Y-123385569D01*
X105610500Y-123182614D01*
X105610500Y-122975684D01*
X105610499Y-122975681D01*
X106049500Y-122975681D01*
X106049500Y-123182616D01*
X106089869Y-123385567D01*
X106169058Y-123576746D01*
X106169059Y-123576747D01*
X106284023Y-123748804D01*
X106430345Y-123895126D01*
X106602402Y-124010090D01*
X106793580Y-124089279D01*
X106996535Y-124129649D01*
X106996536Y-124129649D01*
X107203464Y-124129649D01*
X107203465Y-124129649D01*
X107406420Y-124089279D01*
X107597598Y-124010090D01*
X107769655Y-123895126D01*
X107915977Y-123748804D01*
X108030941Y-123576747D01*
X108110130Y-123385569D01*
X108150500Y-123182614D01*
X108150500Y-122975684D01*
X108110130Y-122772729D01*
X108030941Y-122581551D01*
X107915977Y-122409494D01*
X107769655Y-122263172D01*
X107763344Y-122258955D01*
X107597597Y-122148207D01*
X107406418Y-122069018D01*
X107203467Y-122028649D01*
X107203465Y-122028649D01*
X106996535Y-122028649D01*
X106996532Y-122028649D01*
X106793581Y-122069018D01*
X106602402Y-122148207D01*
X106430348Y-122263169D01*
X106284020Y-122409497D01*
X106169058Y-122581551D01*
X106089869Y-122772730D01*
X106049500Y-122975681D01*
X105610499Y-122975681D01*
X105570130Y-122772729D01*
X105490941Y-122581551D01*
X105375977Y-122409494D01*
X105229655Y-122263172D01*
X105223344Y-122258955D01*
X105057597Y-122148207D01*
X104866418Y-122069018D01*
X104663467Y-122028649D01*
X104663465Y-122028649D01*
X104456535Y-122028649D01*
X104456532Y-122028649D01*
X104253581Y-122069018D01*
X104062402Y-122148207D01*
X103890348Y-122263169D01*
X103890345Y-122263171D01*
X103890345Y-122263172D01*
X103869501Y-122284015D01*
X103814987Y-122311791D01*
X103754555Y-122302220D01*
X103711290Y-122258955D01*
X103700500Y-122214010D01*
X103700500Y-121404288D01*
X103719407Y-121346097D01*
X103768907Y-121310133D01*
X103830093Y-121310133D01*
X103869501Y-121334282D01*
X103890345Y-121355126D01*
X104062402Y-121470090D01*
X104253580Y-121549279D01*
X104456535Y-121589649D01*
X104456536Y-121589649D01*
X104663464Y-121589649D01*
X104663465Y-121589649D01*
X104866420Y-121549279D01*
X105057598Y-121470090D01*
X105229655Y-121355126D01*
X105375977Y-121208804D01*
X105490941Y-121036747D01*
X105570130Y-120845569D01*
X105610500Y-120642614D01*
X105610500Y-120435684D01*
X105610499Y-120435681D01*
X106049500Y-120435681D01*
X106049500Y-120642616D01*
X106089869Y-120845567D01*
X106169058Y-121036746D01*
X106272903Y-121192162D01*
X106284023Y-121208804D01*
X106430345Y-121355126D01*
X106602402Y-121470090D01*
X106793580Y-121549279D01*
X106996535Y-121589649D01*
X106996536Y-121589649D01*
X107203464Y-121589649D01*
X107203465Y-121589649D01*
X107406420Y-121549279D01*
X107597598Y-121470090D01*
X107769655Y-121355126D01*
X107915977Y-121208804D01*
X108030941Y-121036747D01*
X108110130Y-120845569D01*
X108150500Y-120642614D01*
X108150500Y-120571155D01*
X178299500Y-120571155D01*
X178299500Y-120728844D01*
X178330263Y-120883496D01*
X178330263Y-120883498D01*
X178390603Y-121029174D01*
X178390609Y-121029185D01*
X178443312Y-121108059D01*
X178478211Y-121160289D01*
X178589711Y-121271789D01*
X178647097Y-121310133D01*
X178720814Y-121359390D01*
X178720825Y-121359396D01*
X178774638Y-121381685D01*
X178866503Y-121419737D01*
X179021158Y-121450500D01*
X179021159Y-121450500D01*
X180178841Y-121450500D01*
X180178842Y-121450500D01*
X180333497Y-121419737D01*
X180479179Y-121359394D01*
X180610289Y-121271789D01*
X180721789Y-121160289D01*
X180809394Y-121029179D01*
X180869737Y-120883497D01*
X180900500Y-120728842D01*
X180900500Y-120571158D01*
X180900499Y-120571155D01*
X180899519Y-120566230D01*
X183749500Y-120566230D01*
X183749500Y-120733769D01*
X183782183Y-120898079D01*
X183782185Y-120898085D01*
X183846296Y-121052862D01*
X183846297Y-121052863D01*
X183939374Y-121192162D01*
X184057838Y-121310626D01*
X184197137Y-121403703D01*
X184351918Y-121467816D01*
X184516233Y-121500500D01*
X184516234Y-121500500D01*
X184683766Y-121500500D01*
X184683767Y-121500500D01*
X184848082Y-121467816D01*
X185002863Y-121403703D01*
X185142162Y-121310626D01*
X185260626Y-121192162D01*
X185353703Y-121052863D01*
X185417816Y-120898082D01*
X185450500Y-120733767D01*
X185450500Y-120566233D01*
X185417816Y-120401918D01*
X185353703Y-120247137D01*
X185260626Y-120107838D01*
X185142162Y-119989374D01*
X185002863Y-119896297D01*
X185002864Y-119896297D01*
X185002862Y-119896296D01*
X184848085Y-119832185D01*
X184848079Y-119832183D01*
X184683769Y-119799500D01*
X184683767Y-119799500D01*
X184516233Y-119799500D01*
X184516230Y-119799500D01*
X184351920Y-119832183D01*
X184351914Y-119832185D01*
X184197137Y-119896296D01*
X184057838Y-119989374D01*
X184057834Y-119989377D01*
X183939377Y-120107834D01*
X183939374Y-120107838D01*
X183846296Y-120247137D01*
X183782185Y-120401914D01*
X183782183Y-120401920D01*
X183749500Y-120566230D01*
X180899519Y-120566230D01*
X180895395Y-120545498D01*
X180869737Y-120416503D01*
X180809394Y-120270821D01*
X180809393Y-120270819D01*
X180809390Y-120270814D01*
X180774017Y-120217876D01*
X180721789Y-120139711D01*
X180610289Y-120028211D01*
X180552170Y-119989377D01*
X180479185Y-119940609D01*
X180479174Y-119940603D01*
X180333497Y-119880263D01*
X180178844Y-119849500D01*
X180178842Y-119849500D01*
X179021158Y-119849500D01*
X179021155Y-119849500D01*
X178866503Y-119880263D01*
X178866501Y-119880263D01*
X178720825Y-119940603D01*
X178720814Y-119940609D01*
X178589711Y-120028211D01*
X178589707Y-120028214D01*
X178478214Y-120139707D01*
X178478211Y-120139711D01*
X178390609Y-120270814D01*
X178390603Y-120270825D01*
X178330263Y-120416501D01*
X178330263Y-120416503D01*
X178299500Y-120571155D01*
X108150500Y-120571155D01*
X108150500Y-120435684D01*
X108110130Y-120232729D01*
X108030941Y-120041551D01*
X107915977Y-119869494D01*
X107769655Y-119723172D01*
X107763344Y-119718955D01*
X107597597Y-119608207D01*
X107406418Y-119529018D01*
X107203467Y-119488649D01*
X107203465Y-119488649D01*
X106996535Y-119488649D01*
X106996532Y-119488649D01*
X106793581Y-119529018D01*
X106602402Y-119608207D01*
X106430348Y-119723169D01*
X106284020Y-119869497D01*
X106169058Y-120041551D01*
X106089869Y-120232730D01*
X106049500Y-120435681D01*
X105610499Y-120435681D01*
X105570130Y-120232729D01*
X105490941Y-120041551D01*
X105375977Y-119869494D01*
X105229655Y-119723172D01*
X105223344Y-119718955D01*
X105057597Y-119608207D01*
X104866418Y-119529018D01*
X104663467Y-119488649D01*
X104663465Y-119488649D01*
X104456535Y-119488649D01*
X104456532Y-119488649D01*
X104253581Y-119529018D01*
X104062402Y-119608207D01*
X103890348Y-119723169D01*
X103890345Y-119723171D01*
X103890345Y-119723172D01*
X103869501Y-119744015D01*
X103814987Y-119771791D01*
X103754555Y-119762220D01*
X103711290Y-119718955D01*
X103700500Y-119674010D01*
X103700500Y-118864288D01*
X103719407Y-118806097D01*
X103768907Y-118770133D01*
X103830093Y-118770133D01*
X103869501Y-118794282D01*
X103890345Y-118815126D01*
X104062402Y-118930090D01*
X104253580Y-119009279D01*
X104456535Y-119049649D01*
X104456536Y-119049649D01*
X104663464Y-119049649D01*
X104663465Y-119049649D01*
X104866420Y-119009279D01*
X105057598Y-118930090D01*
X105229655Y-118815126D01*
X105375977Y-118668804D01*
X105490941Y-118496747D01*
X105570130Y-118305569D01*
X105610500Y-118102614D01*
X105610500Y-117895684D01*
X105610499Y-117895681D01*
X106049500Y-117895681D01*
X106049500Y-118102616D01*
X106089869Y-118305567D01*
X106169058Y-118496746D01*
X106284020Y-118668800D01*
X106284023Y-118668804D01*
X106430345Y-118815126D01*
X106602402Y-118930090D01*
X106793580Y-119009279D01*
X106996535Y-119049649D01*
X106996536Y-119049649D01*
X107203464Y-119049649D01*
X107203465Y-119049649D01*
X107406420Y-119009279D01*
X107597598Y-118930090D01*
X107769655Y-118815126D01*
X107915977Y-118668804D01*
X108030941Y-118496747D01*
X108110130Y-118305569D01*
X108150500Y-118102614D01*
X108150500Y-118051456D01*
X178249500Y-118051456D01*
X178249500Y-118248543D01*
X178287949Y-118441834D01*
X178287949Y-118441836D01*
X178363367Y-118623913D01*
X178399699Y-118678288D01*
X178472861Y-118787782D01*
X178612218Y-118927139D01*
X178776086Y-119036632D01*
X178958165Y-119112051D01*
X179151459Y-119150500D01*
X179151460Y-119150500D01*
X180048540Y-119150500D01*
X180048541Y-119150500D01*
X180241835Y-119112051D01*
X180423914Y-119036632D01*
X180587782Y-118927139D01*
X180727139Y-118787782D01*
X180836632Y-118623914D01*
X180912051Y-118441835D01*
X180950500Y-118248541D01*
X180950500Y-118051459D01*
X180912051Y-117858165D01*
X180836632Y-117676086D01*
X180727139Y-117512218D01*
X180587782Y-117372861D01*
X180423914Y-117263368D01*
X180423915Y-117263368D01*
X180423913Y-117263367D01*
X180241835Y-117187949D01*
X180048543Y-117149500D01*
X180048541Y-117149500D01*
X179151459Y-117149500D01*
X179151456Y-117149500D01*
X178958165Y-117187949D01*
X178958163Y-117187949D01*
X178776086Y-117263367D01*
X178612218Y-117372861D01*
X178612214Y-117372864D01*
X178472864Y-117512214D01*
X178472861Y-117512218D01*
X178363367Y-117676086D01*
X178287949Y-117858163D01*
X178287949Y-117858165D01*
X178249500Y-118051456D01*
X108150500Y-118051456D01*
X108150500Y-117895684D01*
X108110130Y-117692729D01*
X108030941Y-117501551D01*
X107915977Y-117329494D01*
X107769655Y-117183172D01*
X107719261Y-117149500D01*
X107597597Y-117068207D01*
X107406418Y-116989018D01*
X107203467Y-116948649D01*
X107203465Y-116948649D01*
X106996535Y-116948649D01*
X106996532Y-116948649D01*
X106793581Y-116989018D01*
X106602402Y-117068207D01*
X106430348Y-117183169D01*
X106284020Y-117329497D01*
X106169058Y-117501551D01*
X106089869Y-117692730D01*
X106049500Y-117895681D01*
X105610499Y-117895681D01*
X105570130Y-117692729D01*
X105490941Y-117501551D01*
X105375977Y-117329494D01*
X105229655Y-117183172D01*
X105179261Y-117149500D01*
X105057597Y-117068207D01*
X104866418Y-116989018D01*
X104663467Y-116948649D01*
X104663465Y-116948649D01*
X104456535Y-116948649D01*
X104456532Y-116948649D01*
X104253581Y-116989018D01*
X104062402Y-117068207D01*
X103890348Y-117183169D01*
X103890345Y-117183171D01*
X103890345Y-117183172D01*
X103869501Y-117204015D01*
X103814987Y-117231791D01*
X103754555Y-117222220D01*
X103711290Y-117178955D01*
X103700500Y-117134010D01*
X103700500Y-116324288D01*
X103719407Y-116266097D01*
X103768907Y-116230133D01*
X103830093Y-116230133D01*
X103869501Y-116254282D01*
X103890345Y-116275126D01*
X104062402Y-116390090D01*
X104253580Y-116469279D01*
X104456535Y-116509649D01*
X104456536Y-116509649D01*
X104663464Y-116509649D01*
X104663465Y-116509649D01*
X104866420Y-116469279D01*
X105057598Y-116390090D01*
X105229655Y-116275126D01*
X105375977Y-116128804D01*
X105490941Y-115956747D01*
X105570130Y-115765569D01*
X105610500Y-115562614D01*
X105610500Y-115355684D01*
X105610499Y-115355681D01*
X106049501Y-115355681D01*
X106049501Y-115562616D01*
X106089870Y-115765567D01*
X106169059Y-115956746D01*
X106284021Y-116128800D01*
X106284024Y-116128804D01*
X106430346Y-116275126D01*
X106602403Y-116390090D01*
X106793581Y-116469279D01*
X106996536Y-116509649D01*
X106996537Y-116509649D01*
X107203465Y-116509649D01*
X107203466Y-116509649D01*
X107406421Y-116469279D01*
X107597599Y-116390090D01*
X107769656Y-116275126D01*
X107915978Y-116128804D01*
X108030942Y-115956747D01*
X108110131Y-115765569D01*
X108150501Y-115562614D01*
X108150501Y-115355684D01*
X108110131Y-115152729D01*
X108030942Y-114961551D01*
X107915978Y-114789494D01*
X107769656Y-114643172D01*
X107763345Y-114638955D01*
X107597598Y-114528207D01*
X107406419Y-114449018D01*
X107203468Y-114408649D01*
X107203466Y-114408649D01*
X106996536Y-114408649D01*
X106996533Y-114408649D01*
X106793582Y-114449018D01*
X106602403Y-114528207D01*
X106430349Y-114643169D01*
X106284021Y-114789497D01*
X106169059Y-114961551D01*
X106089870Y-115152730D01*
X106049501Y-115355681D01*
X105610499Y-115355681D01*
X105570130Y-115152729D01*
X105490941Y-114961551D01*
X105375977Y-114789494D01*
X105229655Y-114643172D01*
X105223344Y-114638955D01*
X105057597Y-114528207D01*
X104866418Y-114449018D01*
X104663467Y-114408649D01*
X104663465Y-114408649D01*
X104456535Y-114408649D01*
X104456532Y-114408649D01*
X104253581Y-114449018D01*
X104062402Y-114528207D01*
X103890348Y-114643169D01*
X103890345Y-114643171D01*
X103890345Y-114643172D01*
X103869501Y-114664015D01*
X103814987Y-114691791D01*
X103754555Y-114682220D01*
X103711290Y-114638955D01*
X103700500Y-114594010D01*
X103700500Y-113784287D01*
X103719407Y-113726096D01*
X103768907Y-113690132D01*
X103830093Y-113690132D01*
X103869501Y-113714281D01*
X103890345Y-113735125D01*
X104062402Y-113850089D01*
X104253580Y-113929278D01*
X104456535Y-113969648D01*
X104456536Y-113969648D01*
X104663464Y-113969648D01*
X104663465Y-113969648D01*
X104866420Y-113929278D01*
X105057598Y-113850089D01*
X105229655Y-113735125D01*
X105375977Y-113588803D01*
X105490941Y-113416746D01*
X105570130Y-113225568D01*
X105610500Y-113022613D01*
X105610500Y-112815683D01*
X105610499Y-112815680D01*
X106049500Y-112815680D01*
X106049500Y-113022615D01*
X106089869Y-113225566D01*
X106169058Y-113416745D01*
X106263330Y-113557834D01*
X106284023Y-113588803D01*
X106430345Y-113735125D01*
X106602402Y-113850089D01*
X106793580Y-113929278D01*
X106996535Y-113969648D01*
X106996536Y-113969648D01*
X107203464Y-113969648D01*
X107203465Y-113969648D01*
X107406420Y-113929278D01*
X107597598Y-113850089D01*
X107769655Y-113735125D01*
X107915977Y-113588803D01*
X108030941Y-113416746D01*
X108110130Y-113225568D01*
X108150500Y-113022613D01*
X108150500Y-112815683D01*
X108110130Y-112612728D01*
X108030941Y-112421550D01*
X107915977Y-112249493D01*
X107769655Y-112103171D01*
X107769492Y-112103062D01*
X107597597Y-111988206D01*
X107406418Y-111909017D01*
X107203467Y-111868648D01*
X107203465Y-111868648D01*
X106996535Y-111868648D01*
X106996532Y-111868648D01*
X106793581Y-111909017D01*
X106602402Y-111988206D01*
X106430348Y-112103168D01*
X106284020Y-112249496D01*
X106169058Y-112421550D01*
X106089869Y-112612729D01*
X106049500Y-112815680D01*
X105610499Y-112815680D01*
X105570130Y-112612728D01*
X105490941Y-112421550D01*
X105375977Y-112249493D01*
X105229655Y-112103171D01*
X105229492Y-112103062D01*
X105057597Y-111988206D01*
X104866418Y-111909017D01*
X104663467Y-111868648D01*
X104663465Y-111868648D01*
X104456535Y-111868648D01*
X104456532Y-111868648D01*
X104253581Y-111909017D01*
X104062402Y-111988206D01*
X103890348Y-112103168D01*
X103890345Y-112103170D01*
X103890345Y-112103171D01*
X103869501Y-112124014D01*
X103814987Y-112151790D01*
X103754555Y-112142219D01*
X103711290Y-112098954D01*
X103700500Y-112054009D01*
X103700500Y-111734108D01*
X108299500Y-111734108D01*
X108299500Y-111865892D01*
X108314262Y-111920984D01*
X108333609Y-111993190D01*
X108399496Y-112107309D01*
X108403449Y-112112460D01*
X108401086Y-112114273D01*
X108423281Y-112157834D01*
X108424500Y-112173321D01*
X108424500Y-114576678D01*
X108405593Y-114634869D01*
X108403367Y-114637477D01*
X108403449Y-114637540D01*
X108399496Y-114642690D01*
X108333609Y-114756809D01*
X108324851Y-114789497D01*
X108299500Y-114884108D01*
X108299500Y-115015892D01*
X108320408Y-115093922D01*
X108333609Y-115143190D01*
X108399496Y-115257309D01*
X108399498Y-115257311D01*
X108399500Y-115257314D01*
X108492686Y-115350500D01*
X108492688Y-115350501D01*
X108492690Y-115350503D01*
X108606810Y-115416390D01*
X108606808Y-115416390D01*
X108606812Y-115416391D01*
X108606814Y-115416392D01*
X108734108Y-115450500D01*
X108734110Y-115450500D01*
X108865890Y-115450500D01*
X108865892Y-115450500D01*
X108993186Y-115416392D01*
X108993188Y-115416390D01*
X108993190Y-115416390D01*
X109107309Y-115350503D01*
X109107309Y-115350502D01*
X109107314Y-115350500D01*
X109200500Y-115257314D01*
X109211775Y-115237785D01*
X109266390Y-115143190D01*
X109266390Y-115143188D01*
X109266392Y-115143186D01*
X109300500Y-115015892D01*
X109300500Y-114884108D01*
X109266392Y-114756814D01*
X109266390Y-114756811D01*
X109266390Y-114756809D01*
X109200503Y-114642690D01*
X109196551Y-114637540D01*
X109198901Y-114635735D01*
X109176706Y-114592082D01*
X109175500Y-114576678D01*
X109175500Y-113134108D01*
X123699500Y-113134108D01*
X123699500Y-113265892D01*
X123729579Y-113378151D01*
X123733609Y-113393190D01*
X123799496Y-113507309D01*
X123803449Y-113512460D01*
X123801086Y-113514273D01*
X123823281Y-113557834D01*
X123824500Y-113573321D01*
X123824500Y-115526678D01*
X123805593Y-115584869D01*
X123803367Y-115587477D01*
X123803449Y-115587540D01*
X123799496Y-115592690D01*
X123733609Y-115706809D01*
X123726386Y-115733767D01*
X123699500Y-115834108D01*
X123699500Y-115965892D01*
X123722803Y-116052862D01*
X123733609Y-116093190D01*
X123799496Y-116207309D01*
X123799498Y-116207311D01*
X123799500Y-116207314D01*
X123892686Y-116300500D01*
X123892688Y-116300501D01*
X123892690Y-116300503D01*
X124006810Y-116366390D01*
X124006808Y-116366390D01*
X124006812Y-116366391D01*
X124006814Y-116366392D01*
X124134108Y-116400500D01*
X124134110Y-116400500D01*
X124265890Y-116400500D01*
X124265892Y-116400500D01*
X124393186Y-116366392D01*
X124393188Y-116366390D01*
X124393190Y-116366390D01*
X124507309Y-116300503D01*
X124507309Y-116300502D01*
X124507314Y-116300500D01*
X124600500Y-116207314D01*
X124666392Y-116093186D01*
X124700500Y-115965892D01*
X124700500Y-115834108D01*
X124666392Y-115706814D01*
X124666390Y-115706811D01*
X124666390Y-115706809D01*
X124600503Y-115592690D01*
X124596551Y-115587540D01*
X124597296Y-115586968D01*
X124594407Y-115584869D01*
X124587230Y-115562780D01*
X124576706Y-115542082D01*
X124575500Y-115526678D01*
X124575500Y-115471053D01*
X168599500Y-115471053D01*
X168599500Y-115707244D01*
X168636445Y-115940512D01*
X168709432Y-116165141D01*
X168783559Y-116310625D01*
X168816657Y-116375582D01*
X168955483Y-116566659D01*
X169122490Y-116733666D01*
X169313567Y-116872492D01*
X169524008Y-116979717D01*
X169748632Y-117052702D01*
X169748633Y-117052702D01*
X169748636Y-117052703D01*
X169981905Y-117089649D01*
X169981908Y-117089649D01*
X170218095Y-117089649D01*
X170451363Y-117052703D01*
X170451364Y-117052702D01*
X170451368Y-117052702D01*
X170675992Y-116979717D01*
X170886433Y-116872492D01*
X171077510Y-116733666D01*
X171244517Y-116566659D01*
X171383343Y-116375582D01*
X171490568Y-116165141D01*
X171563553Y-115940517D01*
X171570274Y-115898082D01*
X171600500Y-115707244D01*
X171600500Y-115566230D01*
X178749500Y-115566230D01*
X178749500Y-115733769D01*
X178782183Y-115898079D01*
X178782185Y-115898085D01*
X178846296Y-116052862D01*
X178846297Y-116052863D01*
X178939374Y-116192162D01*
X179057838Y-116310626D01*
X179197137Y-116403703D01*
X179351918Y-116467816D01*
X179516233Y-116500500D01*
X179516234Y-116500500D01*
X179683766Y-116500500D01*
X179683767Y-116500500D01*
X179848082Y-116467816D01*
X180002863Y-116403703D01*
X180142162Y-116310626D01*
X180260626Y-116192162D01*
X180353703Y-116052863D01*
X180417816Y-115898082D01*
X180450500Y-115733767D01*
X180450500Y-115566233D01*
X180417816Y-115401918D01*
X180353703Y-115247137D01*
X180260626Y-115107838D01*
X180214143Y-115061355D01*
X183700000Y-115061355D01*
X183700000Y-115499999D01*
X183700001Y-115500000D01*
X184400000Y-115500000D01*
X184400000Y-115800000D01*
X183700001Y-115800000D01*
X183700000Y-115800001D01*
X183700000Y-116238644D01*
X183734586Y-116412519D01*
X183734586Y-116412521D01*
X183802429Y-116576308D01*
X183900923Y-116723715D01*
X184026284Y-116849076D01*
X184173691Y-116947570D01*
X184337478Y-117015413D01*
X184337481Y-117015414D01*
X184449999Y-117037794D01*
X184450000Y-117037794D01*
X184450000Y-116282843D01*
X184486709Y-116319552D01*
X184560218Y-116350000D01*
X184639782Y-116350000D01*
X184713291Y-116319552D01*
X184750000Y-116282843D01*
X184750000Y-117037794D01*
X184862518Y-117015414D01*
X184862521Y-117015413D01*
X185026308Y-116947570D01*
X185173715Y-116849076D01*
X185299076Y-116723715D01*
X185397570Y-116576308D01*
X185465413Y-116412521D01*
X185465413Y-116412519D01*
X185499999Y-116238644D01*
X185500000Y-116238641D01*
X185500000Y-115800001D01*
X185499999Y-115800000D01*
X184800000Y-115800000D01*
X184800000Y-115500000D01*
X185499999Y-115500000D01*
X185500000Y-115499999D01*
X185500000Y-115061358D01*
X185499999Y-115061355D01*
X185465413Y-114887480D01*
X185465413Y-114887478D01*
X185397570Y-114723691D01*
X185299076Y-114576284D01*
X185173715Y-114450923D01*
X185026308Y-114352429D01*
X184862520Y-114284586D01*
X184750000Y-114262204D01*
X184750000Y-115017157D01*
X184713291Y-114980448D01*
X184639782Y-114950000D01*
X184560218Y-114950000D01*
X184486709Y-114980448D01*
X184450000Y-115017157D01*
X184450000Y-114262204D01*
X184337480Y-114284586D01*
X184337478Y-114284586D01*
X184173691Y-114352429D01*
X184026284Y-114450923D01*
X183900923Y-114576284D01*
X183802429Y-114723691D01*
X183734586Y-114887478D01*
X183734586Y-114887480D01*
X183700000Y-115061355D01*
X180214143Y-115061355D01*
X180142162Y-114989374D01*
X180002863Y-114896297D01*
X180002864Y-114896297D01*
X180002862Y-114896296D01*
X179848085Y-114832185D01*
X179848079Y-114832183D01*
X179683769Y-114799500D01*
X179683767Y-114799500D01*
X179516233Y-114799500D01*
X179516230Y-114799500D01*
X179351920Y-114832183D01*
X179351914Y-114832185D01*
X179197137Y-114896296D01*
X179057838Y-114989374D01*
X179057834Y-114989377D01*
X178939377Y-115107834D01*
X178939374Y-115107838D01*
X178846296Y-115247137D01*
X178782185Y-115401914D01*
X178782183Y-115401920D01*
X178749500Y-115566230D01*
X171600500Y-115566230D01*
X171600500Y-115471053D01*
X171563554Y-115237785D01*
X171535918Y-115152730D01*
X171490568Y-115013157D01*
X171383343Y-114802716D01*
X171244517Y-114611639D01*
X171077510Y-114444632D01*
X170886433Y-114305806D01*
X170886432Y-114305805D01*
X170886430Y-114305804D01*
X170675992Y-114198581D01*
X170451363Y-114125594D01*
X170218095Y-114088649D01*
X170218092Y-114088649D01*
X169981908Y-114088649D01*
X169981905Y-114088649D01*
X169748636Y-114125594D01*
X169524007Y-114198581D01*
X169313569Y-114305804D01*
X169122491Y-114444631D01*
X168955482Y-114611640D01*
X168816655Y-114802718D01*
X168709432Y-115013156D01*
X168636445Y-115237785D01*
X168599500Y-115471053D01*
X124575500Y-115471053D01*
X124575500Y-113573321D01*
X124594407Y-113515130D01*
X124596633Y-113512523D01*
X124596551Y-113512460D01*
X124600496Y-113507317D01*
X124600500Y-113507314D01*
X124638304Y-113441836D01*
X124666390Y-113393190D01*
X124666390Y-113393188D01*
X124666392Y-113393186D01*
X124700500Y-113265892D01*
X124700500Y-113134108D01*
X124678354Y-113051456D01*
X178149500Y-113051456D01*
X178149500Y-113051459D01*
X178149500Y-113248541D01*
X178182958Y-113416746D01*
X178187949Y-113441834D01*
X178187949Y-113441836D01*
X178263367Y-113623913D01*
X178263368Y-113623914D01*
X178372861Y-113787782D01*
X178512218Y-113927139D01*
X178676086Y-114036632D01*
X178858165Y-114112051D01*
X179051459Y-114150500D01*
X179051460Y-114150500D01*
X180148540Y-114150500D01*
X180148541Y-114150500D01*
X180341835Y-114112051D01*
X180523914Y-114036632D01*
X180687782Y-113927139D01*
X180827139Y-113787782D01*
X180936632Y-113623914D01*
X181012051Y-113441835D01*
X181050500Y-113248541D01*
X181050500Y-113051459D01*
X181012051Y-112858165D01*
X180936632Y-112676086D01*
X180827139Y-112512218D01*
X180687782Y-112372861D01*
X180569450Y-112293794D01*
X180523913Y-112263367D01*
X180341835Y-112187949D01*
X180148543Y-112149500D01*
X180148541Y-112149500D01*
X179051459Y-112149500D01*
X179051456Y-112149500D01*
X178858165Y-112187949D01*
X178858163Y-112187949D01*
X178676086Y-112263367D01*
X178512218Y-112372861D01*
X178512214Y-112372864D01*
X178372864Y-112512214D01*
X178372861Y-112512218D01*
X178263367Y-112676086D01*
X178187949Y-112858163D01*
X178187949Y-112858165D01*
X178149500Y-113051456D01*
X124678354Y-113051456D01*
X124666392Y-113006814D01*
X124666390Y-113006811D01*
X124666390Y-113006809D01*
X124600503Y-112892690D01*
X124600501Y-112892688D01*
X124600500Y-112892686D01*
X124507314Y-112799500D01*
X124507311Y-112799498D01*
X124507309Y-112799496D01*
X124393189Y-112733609D01*
X124393191Y-112733609D01*
X124343799Y-112720375D01*
X124265892Y-112699500D01*
X124134108Y-112699500D01*
X124056200Y-112720375D01*
X124006809Y-112733609D01*
X123892690Y-112799496D01*
X123799496Y-112892690D01*
X123733609Y-113006809D01*
X123721645Y-113051460D01*
X123699500Y-113134108D01*
X109175500Y-113134108D01*
X109175500Y-112173321D01*
X109194407Y-112115130D01*
X109196633Y-112112523D01*
X109196551Y-112112460D01*
X109200496Y-112107317D01*
X109200500Y-112107314D01*
X109202955Y-112103062D01*
X109266390Y-111993190D01*
X109266390Y-111993188D01*
X109266392Y-111993186D01*
X109300500Y-111865892D01*
X109300500Y-111734108D01*
X109266392Y-111606814D01*
X109255636Y-111588185D01*
X109255636Y-111588183D01*
X109200503Y-111492690D01*
X109200501Y-111492688D01*
X109200500Y-111492686D01*
X109107314Y-111399500D01*
X109107311Y-111399498D01*
X109107309Y-111399496D01*
X108993189Y-111333609D01*
X108993191Y-111333609D01*
X108943799Y-111320375D01*
X108865892Y-111299500D01*
X108734108Y-111299500D01*
X108656200Y-111320375D01*
X108606809Y-111333609D01*
X108492690Y-111399496D01*
X108399496Y-111492690D01*
X108333609Y-111606809D01*
X108333608Y-111606814D01*
X108299500Y-111734108D01*
X103700500Y-111734108D01*
X103700500Y-111244288D01*
X103719407Y-111186097D01*
X103768907Y-111150133D01*
X103830093Y-111150133D01*
X103869501Y-111174282D01*
X103890345Y-111195126D01*
X104062402Y-111310090D01*
X104253580Y-111389279D01*
X104456535Y-111429649D01*
X104456536Y-111429649D01*
X104663464Y-111429649D01*
X104663465Y-111429649D01*
X104866420Y-111389279D01*
X105057598Y-111310090D01*
X105229655Y-111195126D01*
X105375977Y-111048804D01*
X105490941Y-110876747D01*
X105570130Y-110685569D01*
X105610500Y-110482614D01*
X105610500Y-110275684D01*
X105570130Y-110072729D01*
X105544868Y-110011743D01*
X105540068Y-109950748D01*
X105566328Y-109903857D01*
X105912542Y-109557645D01*
X105967058Y-109529868D01*
X105982545Y-109528649D01*
X106225861Y-109528649D01*
X106284052Y-109547556D01*
X106320016Y-109597056D01*
X106320016Y-109658242D01*
X106295866Y-109697650D01*
X106284023Y-109709494D01*
X106284020Y-109709497D01*
X106169058Y-109881551D01*
X106089869Y-110072730D01*
X106049500Y-110275681D01*
X106049500Y-110482616D01*
X106089869Y-110685567D01*
X106169058Y-110876746D01*
X106270910Y-111029179D01*
X106284023Y-111048804D01*
X106430345Y-111195126D01*
X106602402Y-111310090D01*
X106793580Y-111389279D01*
X106996535Y-111429649D01*
X106996536Y-111429649D01*
X107203464Y-111429649D01*
X107203465Y-111429649D01*
X107406420Y-111389279D01*
X107597598Y-111310090D01*
X107769655Y-111195126D01*
X107915977Y-111048804D01*
X108030941Y-110876747D01*
X108056202Y-110815763D01*
X108095939Y-110769237D01*
X108147666Y-110754649D01*
X112956625Y-110754649D01*
X113014816Y-110773556D01*
X113026629Y-110783645D01*
X113501666Y-111258681D01*
X113414394Y-111309068D01*
X113339920Y-111383542D01*
X113289533Y-111470814D01*
X112783219Y-110964500D01*
X112719195Y-111052624D01*
X112640588Y-111206899D01*
X112587084Y-111371568D01*
X112560000Y-111542572D01*
X112560000Y-111715723D01*
X112587084Y-111886727D01*
X112640588Y-112051396D01*
X112719195Y-112205672D01*
X112719197Y-112205676D01*
X112783219Y-112293794D01*
X113289532Y-111787480D01*
X113339920Y-111874754D01*
X113414394Y-111949228D01*
X113501665Y-111999613D01*
X112995352Y-112505926D01*
X113083477Y-112569953D01*
X113237751Y-112648559D01*
X113402420Y-112702063D01*
X113573425Y-112729148D01*
X113746575Y-112729148D01*
X113917579Y-112702063D01*
X114082248Y-112648559D01*
X114236524Y-112569952D01*
X114236530Y-112569948D01*
X114324646Y-112505927D01*
X114324646Y-112505926D01*
X113818333Y-111999614D01*
X113905606Y-111949228D01*
X113980080Y-111874754D01*
X114030466Y-111787481D01*
X114536778Y-112293794D01*
X114536779Y-112293794D01*
X114600800Y-112205678D01*
X114600804Y-112205672D01*
X114679411Y-112051396D01*
X114732915Y-111886727D01*
X114760000Y-111715723D01*
X114760000Y-111542572D01*
X114732915Y-111371568D01*
X114679411Y-111206899D01*
X114600805Y-111052625D01*
X114536778Y-110964500D01*
X114030465Y-111470813D01*
X113980080Y-111383542D01*
X113905606Y-111309068D01*
X113818333Y-111258681D01*
X114293371Y-110783645D01*
X114347888Y-110755868D01*
X114363375Y-110754649D01*
X128120570Y-110754649D01*
X128178761Y-110773556D01*
X128214725Y-110823056D01*
X128214725Y-110884242D01*
X128190574Y-110923653D01*
X128122864Y-110991362D01*
X128122861Y-110991366D01*
X128013367Y-111155234D01*
X127937949Y-111337311D01*
X127937949Y-111337313D01*
X127899500Y-111530604D01*
X127899500Y-111727691D01*
X127937949Y-111920982D01*
X127937949Y-111920984D01*
X128013367Y-112103061D01*
X128039532Y-112142219D01*
X128122861Y-112266930D01*
X128262218Y-112406287D01*
X128426086Y-112515780D01*
X128608165Y-112591199D01*
X128801459Y-112629648D01*
X128801460Y-112629648D01*
X128998540Y-112629648D01*
X128998541Y-112629648D01*
X129191835Y-112591199D01*
X129373914Y-112515780D01*
X129537782Y-112406287D01*
X129677139Y-112266930D01*
X129786632Y-112103062D01*
X129862051Y-111920983D01*
X129900500Y-111727689D01*
X129900500Y-111530607D01*
X129862051Y-111337313D01*
X129786632Y-111155234D01*
X129677139Y-110991366D01*
X129609426Y-110923653D01*
X129581649Y-110869136D01*
X129591220Y-110808704D01*
X129634485Y-110765439D01*
X129679430Y-110754649D01*
X142626320Y-110754649D01*
X142674070Y-110741854D01*
X142674071Y-110741854D01*
X142721818Y-110729060D01*
X142721817Y-110729060D01*
X142721822Y-110729059D01*
X142807446Y-110679624D01*
X142877359Y-110609711D01*
X142915915Y-110571155D01*
X178299500Y-110571155D01*
X178299500Y-110728844D01*
X178307535Y-110769237D01*
X178328920Y-110876747D01*
X178330263Y-110883496D01*
X178330263Y-110883498D01*
X178390603Y-111029174D01*
X178390609Y-111029185D01*
X178443312Y-111108059D01*
X178478211Y-111160289D01*
X178589711Y-111271789D01*
X178647829Y-111310622D01*
X178720814Y-111359390D01*
X178720825Y-111359396D01*
X178774638Y-111381685D01*
X178866503Y-111419737D01*
X179021158Y-111450500D01*
X179021159Y-111450500D01*
X180178841Y-111450500D01*
X180178842Y-111450500D01*
X180333497Y-111419737D01*
X180479179Y-111359394D01*
X180610289Y-111271789D01*
X180721789Y-111160289D01*
X180809394Y-111029179D01*
X180869737Y-110883497D01*
X180900500Y-110728842D01*
X180900500Y-110571158D01*
X180900499Y-110571155D01*
X180899519Y-110566230D01*
X183749500Y-110566230D01*
X183749500Y-110733769D01*
X183782183Y-110898079D01*
X183782185Y-110898085D01*
X183846296Y-111052862D01*
X183846297Y-111052863D01*
X183939374Y-111192162D01*
X184057838Y-111310626D01*
X184197137Y-111403703D01*
X184351918Y-111467816D01*
X184516233Y-111500500D01*
X184516234Y-111500500D01*
X184683766Y-111500500D01*
X184683767Y-111500500D01*
X184848082Y-111467816D01*
X185002863Y-111403703D01*
X185142162Y-111310626D01*
X185260626Y-111192162D01*
X185353703Y-111052863D01*
X185417816Y-110898082D01*
X185450500Y-110733767D01*
X185450500Y-110566233D01*
X185417816Y-110401918D01*
X185353703Y-110247137D01*
X185260626Y-110107838D01*
X185142162Y-109989374D01*
X185049084Y-109927181D01*
X185002862Y-109896296D01*
X184848085Y-109832185D01*
X184848079Y-109832183D01*
X184683769Y-109799500D01*
X184683767Y-109799500D01*
X184516233Y-109799500D01*
X184516230Y-109799500D01*
X184351920Y-109832183D01*
X184351914Y-109832185D01*
X184197137Y-109896296D01*
X184057838Y-109989374D01*
X184057834Y-109989377D01*
X183939377Y-110107834D01*
X183939374Y-110107838D01*
X183846296Y-110247137D01*
X183782185Y-110401914D01*
X183782183Y-110401920D01*
X183749500Y-110566230D01*
X180899519Y-110566230D01*
X180895395Y-110545498D01*
X180869737Y-110416503D01*
X180811409Y-110275685D01*
X180809396Y-110270825D01*
X180809390Y-110270814D01*
X180774017Y-110217876D01*
X180721789Y-110139711D01*
X180610289Y-110028211D01*
X180552170Y-109989377D01*
X180479185Y-109940609D01*
X180479174Y-109940603D01*
X180333497Y-109880263D01*
X180178844Y-109849500D01*
X180178842Y-109849500D01*
X179021158Y-109849500D01*
X179021155Y-109849500D01*
X178866503Y-109880263D01*
X178866501Y-109880263D01*
X178720825Y-109940603D01*
X178720814Y-109940609D01*
X178589711Y-110028211D01*
X178589707Y-110028214D01*
X178478214Y-110139707D01*
X178478211Y-110139711D01*
X178390609Y-110270814D01*
X178390603Y-110270825D01*
X178330263Y-110416501D01*
X178330263Y-110416503D01*
X178299500Y-110571155D01*
X142915915Y-110571155D01*
X148202961Y-105284108D01*
X160049500Y-105284108D01*
X160049500Y-105415892D01*
X160073995Y-105507309D01*
X160083609Y-105543190D01*
X160149496Y-105657309D01*
X160149498Y-105657311D01*
X160149500Y-105657314D01*
X160242686Y-105750500D01*
X160242688Y-105750501D01*
X160242690Y-105750503D01*
X160356810Y-105816390D01*
X160356808Y-105816390D01*
X160356812Y-105816391D01*
X160356814Y-105816392D01*
X160484108Y-105850500D01*
X160484110Y-105850500D01*
X160615890Y-105850500D01*
X160615892Y-105850500D01*
X160743186Y-105816392D01*
X160743188Y-105816390D01*
X160743190Y-105816390D01*
X160857309Y-105750503D01*
X160857309Y-105750502D01*
X160857314Y-105750500D01*
X160950500Y-105657314D01*
X160983316Y-105600475D01*
X161016390Y-105543190D01*
X161016390Y-105543188D01*
X161016392Y-105543186D01*
X161050500Y-105415892D01*
X161050500Y-105284108D01*
X161016392Y-105156814D01*
X161013761Y-105152258D01*
X161000500Y-105102761D01*
X161000500Y-104184108D01*
X161299500Y-104184108D01*
X161299500Y-104315892D01*
X161325976Y-104414703D01*
X161333609Y-104443190D01*
X161399496Y-104557309D01*
X161399498Y-104557311D01*
X161399500Y-104557314D01*
X161492686Y-104650500D01*
X161492688Y-104650501D01*
X161492690Y-104650503D01*
X161606810Y-104716390D01*
X161606808Y-104716390D01*
X161606812Y-104716391D01*
X161606814Y-104716392D01*
X161734108Y-104750500D01*
X161734110Y-104750500D01*
X161865890Y-104750500D01*
X161865892Y-104750500D01*
X161993186Y-104716392D01*
X161997741Y-104713761D01*
X162047239Y-104700500D01*
X162454493Y-104700500D01*
X162512684Y-104719407D01*
X162548648Y-104768907D01*
X162548648Y-104830093D01*
X162512684Y-104879593D01*
X162503993Y-104885236D01*
X162392690Y-104949496D01*
X162299496Y-105042690D01*
X162233609Y-105156809D01*
X162219996Y-105207615D01*
X162199500Y-105284108D01*
X162199500Y-105415892D01*
X162233608Y-105543186D01*
X162236234Y-105547735D01*
X162249500Y-105597238D01*
X162249500Y-107659309D01*
X162255592Y-107682045D01*
X162262229Y-107706814D01*
X162280202Y-107773891D01*
X162339507Y-107876609D01*
X162339509Y-107876611D01*
X162339511Y-107876614D01*
X163523386Y-109060489D01*
X163523388Y-109060490D01*
X163523390Y-109060492D01*
X163626107Y-109119796D01*
X163626109Y-109119797D01*
X163626113Y-109119799D01*
X163650322Y-109126284D01*
X163650325Y-109126287D01*
X163650326Y-109126286D01*
X163740688Y-109150499D01*
X163740690Y-109150500D01*
X163740691Y-109150500D01*
X182159309Y-109150500D01*
X182249669Y-109126287D01*
X182249672Y-109126287D01*
X182262903Y-109122741D01*
X182273887Y-109119799D01*
X182376614Y-109060489D01*
X187210489Y-104226614D01*
X187252363Y-104154086D01*
X187269799Y-104123886D01*
X187300500Y-104009309D01*
X187300500Y-97790691D01*
X187269799Y-97676114D01*
X187269799Y-97676113D01*
X187269799Y-97676112D01*
X187210492Y-97573390D01*
X187210491Y-97573389D01*
X187210490Y-97573388D01*
X187210489Y-97573386D01*
X184539496Y-94902393D01*
X184511719Y-94847876D01*
X184510500Y-94832389D01*
X184510500Y-93020692D01*
X184529407Y-92962501D01*
X184578907Y-92926537D01*
X184588932Y-92924468D01*
X184588815Y-92923931D01*
X184594689Y-92922646D01*
X184594699Y-92922646D01*
X184722882Y-92877793D01*
X184832150Y-92797150D01*
X184912793Y-92687882D01*
X184957646Y-92559699D01*
X184960499Y-92529273D01*
X184960500Y-92529273D01*
X184960500Y-91895727D01*
X184960499Y-91895725D01*
X184957646Y-91865301D01*
X184912793Y-91737118D01*
X184910498Y-91734009D01*
X184832154Y-91627855D01*
X184832152Y-91627853D01*
X184832150Y-91627850D01*
X184832146Y-91627847D01*
X184832144Y-91627845D01*
X184722883Y-91547207D01*
X184594703Y-91502355D01*
X184594694Y-91502353D01*
X184564274Y-91499500D01*
X184564266Y-91499500D01*
X183555734Y-91499500D01*
X183555725Y-91499500D01*
X183525305Y-91502353D01*
X183525296Y-91502355D01*
X183397116Y-91547207D01*
X183287855Y-91627845D01*
X183287845Y-91627855D01*
X183207207Y-91737116D01*
X183162355Y-91865296D01*
X183162353Y-91865305D01*
X183159500Y-91895725D01*
X183159500Y-92529274D01*
X183162353Y-92559694D01*
X183162355Y-92559703D01*
X183207207Y-92687883D01*
X183287845Y-92797144D01*
X183287847Y-92797146D01*
X183287850Y-92797150D01*
X183287853Y-92797152D01*
X183287855Y-92797154D01*
X183397116Y-92877792D01*
X183397117Y-92877792D01*
X183397118Y-92877793D01*
X183525301Y-92922646D01*
X183525308Y-92922646D01*
X183531185Y-92923931D01*
X183530556Y-92926806D01*
X183575871Y-92946344D01*
X183607087Y-92998967D01*
X183609500Y-93020692D01*
X183609500Y-94940339D01*
X183606127Y-94965960D01*
X183599501Y-94990689D01*
X183599501Y-94990691D01*
X183599501Y-95109309D01*
X183630201Y-95223887D01*
X183630202Y-95223889D01*
X183630203Y-95223892D01*
X183689507Y-95326609D01*
X183689509Y-95326611D01*
X183689511Y-95326614D01*
X186370505Y-98007608D01*
X186398281Y-98062123D01*
X186399500Y-98077610D01*
X186399500Y-103722389D01*
X186380593Y-103780580D01*
X186370504Y-103792393D01*
X181942393Y-108220504D01*
X181887876Y-108248281D01*
X181872389Y-108249500D01*
X176799500Y-108249500D01*
X176741309Y-108230593D01*
X176705345Y-108181093D01*
X176700500Y-108150500D01*
X176700500Y-105597238D01*
X176713765Y-105547735D01*
X176716392Y-105543186D01*
X176750500Y-105415892D01*
X176750500Y-105284108D01*
X176716392Y-105156814D01*
X176716390Y-105156811D01*
X176716390Y-105156809D01*
X176650503Y-105042690D01*
X176650501Y-105042688D01*
X176650500Y-105042686D01*
X176557314Y-104949500D01*
X176557311Y-104949498D01*
X176557309Y-104949496D01*
X176443189Y-104883609D01*
X176443191Y-104883609D01*
X176393799Y-104870375D01*
X176315892Y-104849500D01*
X176184108Y-104849500D01*
X176106200Y-104870375D01*
X176056809Y-104883609D01*
X175942690Y-104949496D01*
X175849496Y-105042690D01*
X175783609Y-105156809D01*
X175769996Y-105207615D01*
X175749500Y-105284108D01*
X175749500Y-105415892D01*
X175783608Y-105543186D01*
X175786234Y-105547735D01*
X175799500Y-105597238D01*
X175799500Y-108150500D01*
X175780593Y-108208691D01*
X175731093Y-108244655D01*
X175700500Y-108249500D01*
X164027611Y-108249500D01*
X163969420Y-108230593D01*
X163957607Y-108220504D01*
X163179496Y-107442393D01*
X163151719Y-107387876D01*
X163150500Y-107372389D01*
X163150500Y-105597238D01*
X163163765Y-105547735D01*
X163166392Y-105543186D01*
X163200500Y-105415892D01*
X163200500Y-105284108D01*
X163166392Y-105156814D01*
X163166390Y-105156811D01*
X163166390Y-105156809D01*
X163100503Y-105042690D01*
X163100501Y-105042688D01*
X163100500Y-105042686D01*
X163007314Y-104949500D01*
X163007311Y-104949498D01*
X163007309Y-104949496D01*
X162896007Y-104885236D01*
X162855066Y-104839767D01*
X162848670Y-104778917D01*
X162879263Y-104725929D01*
X162935159Y-104701042D01*
X162945507Y-104700500D01*
X170061384Y-104700500D01*
X170151744Y-104676287D01*
X170151747Y-104676287D01*
X170164978Y-104672741D01*
X170175962Y-104669799D01*
X170278689Y-104610489D01*
X172684490Y-102204689D01*
X172743799Y-102101962D01*
X172762947Y-102030500D01*
X172774500Y-101987384D01*
X172774500Y-101891657D01*
X172793407Y-101833466D01*
X172842907Y-101797502D01*
X172891991Y-101794399D01*
X172899233Y-101795776D01*
X172940301Y-101810146D01*
X172970734Y-101813000D01*
X172989828Y-101813000D01*
X172998991Y-101814742D01*
X173018032Y-101825194D01*
X173038691Y-101831907D01*
X173044284Y-101839606D01*
X173052626Y-101844185D01*
X173061886Y-101863832D01*
X173074655Y-101881407D01*
X173076924Y-101895739D01*
X173078712Y-101899531D01*
X173078064Y-101902936D01*
X173079500Y-101912000D01*
X173079500Y-102552761D01*
X173066238Y-102602259D01*
X173063608Y-102606813D01*
X173050514Y-102655683D01*
X173029500Y-102734108D01*
X173029500Y-102865892D01*
X173047778Y-102934108D01*
X173063609Y-102993190D01*
X173129496Y-103107309D01*
X173129498Y-103107311D01*
X173129500Y-103107314D01*
X173222686Y-103200500D01*
X173222688Y-103200501D01*
X173222690Y-103200503D01*
X173336810Y-103266390D01*
X173336808Y-103266390D01*
X173336812Y-103266391D01*
X173336814Y-103266392D01*
X173464108Y-103300500D01*
X173464110Y-103300500D01*
X173595890Y-103300500D01*
X173595892Y-103300500D01*
X173723186Y-103266392D01*
X173723188Y-103266390D01*
X173723190Y-103266390D01*
X173837309Y-103200503D01*
X173837309Y-103200502D01*
X173837314Y-103200500D01*
X173930500Y-103107314D01*
X173950086Y-103073390D01*
X173996390Y-102993190D01*
X173996390Y-102993188D01*
X173996392Y-102993186D01*
X174030500Y-102865892D01*
X174030500Y-102734108D01*
X173996392Y-102606814D01*
X173993761Y-102602258D01*
X173980500Y-102552761D01*
X173980500Y-101907155D01*
X173999407Y-101848964D01*
X174048907Y-101813000D01*
X174058375Y-101810435D01*
X174059690Y-101810146D01*
X174059699Y-101810146D01*
X174187882Y-101765293D01*
X174297150Y-101684650D01*
X174377793Y-101575382D01*
X174422646Y-101447199D01*
X174425499Y-101416773D01*
X174425500Y-101416773D01*
X174425500Y-100808227D01*
X174425499Y-100808225D01*
X174424775Y-100800503D01*
X174422646Y-100777801D01*
X174377793Y-100649618D01*
X174376352Y-100647666D01*
X174297154Y-100540355D01*
X174297152Y-100540353D01*
X174297150Y-100540350D01*
X174297146Y-100540347D01*
X174297144Y-100540345D01*
X174187883Y-100459707D01*
X174059703Y-100414855D01*
X174059694Y-100414853D01*
X174029274Y-100412000D01*
X174029266Y-100412000D01*
X173176612Y-100412000D01*
X173118421Y-100393093D01*
X173082457Y-100343593D01*
X173082457Y-100282407D01*
X173106609Y-100242996D01*
X173407608Y-99941998D01*
X173462124Y-99914221D01*
X173477611Y-99913002D01*
X174029273Y-99913002D01*
X174029273Y-99913001D01*
X174059699Y-99910148D01*
X174187882Y-99865295D01*
X174297150Y-99784652D01*
X174377793Y-99675384D01*
X174422646Y-99547201D01*
X174425499Y-99516775D01*
X174425500Y-99516775D01*
X174425500Y-98908229D01*
X174425499Y-98908227D01*
X174425016Y-98903080D01*
X174422646Y-98877803D01*
X174377793Y-98749620D01*
X174377704Y-98749500D01*
X174297154Y-98640357D01*
X174297152Y-98640355D01*
X174297150Y-98640352D01*
X174297146Y-98640349D01*
X174297144Y-98640347D01*
X174187883Y-98559709D01*
X174059695Y-98514854D01*
X174058362Y-98514563D01*
X174057616Y-98514127D01*
X174054013Y-98512866D01*
X174054259Y-98512162D01*
X174005550Y-98483667D01*
X173980985Y-98427630D01*
X173980500Y-98417846D01*
X173980500Y-97487238D01*
X173993765Y-97437735D01*
X173996392Y-97433186D01*
X174030500Y-97305892D01*
X174030500Y-97184108D01*
X175749500Y-97184108D01*
X175749500Y-97315892D01*
X175769263Y-97389648D01*
X175783609Y-97443190D01*
X175849496Y-97557309D01*
X175849498Y-97557311D01*
X175849500Y-97557314D01*
X175942686Y-97650500D01*
X176056814Y-97716392D01*
X176061887Y-97717751D01*
X176106271Y-97743374D01*
X177295504Y-98932607D01*
X177323281Y-98987124D01*
X177324500Y-99002611D01*
X177324500Y-99978865D01*
X177305593Y-100037056D01*
X177284288Y-100058520D01*
X177190355Y-100127845D01*
X177190345Y-100127855D01*
X177109707Y-100237116D01*
X177064855Y-100365296D01*
X177064853Y-100365305D01*
X177062000Y-100395725D01*
X177062000Y-101404274D01*
X177064853Y-101434694D01*
X177064855Y-101434703D01*
X177109707Y-101562883D01*
X177190345Y-101672144D01*
X177190347Y-101672146D01*
X177190350Y-101672150D01*
X177190353Y-101672152D01*
X177190355Y-101672154D01*
X177299616Y-101752792D01*
X177299617Y-101752792D01*
X177299618Y-101752793D01*
X177427801Y-101797646D01*
X177458225Y-101800499D01*
X177458227Y-101800500D01*
X177458234Y-101800500D01*
X178091773Y-101800500D01*
X178091773Y-101800499D01*
X178122199Y-101797646D01*
X178250382Y-101752793D01*
X178359650Y-101672150D01*
X178440293Y-101562882D01*
X178485146Y-101434699D01*
X178487999Y-101404273D01*
X178488000Y-101404273D01*
X178488000Y-100395727D01*
X178487999Y-100395725D01*
X178887000Y-100395725D01*
X178887000Y-101404274D01*
X178889853Y-101434694D01*
X178889855Y-101434703D01*
X178934707Y-101562883D01*
X179015345Y-101672144D01*
X179015347Y-101672146D01*
X179015350Y-101672150D01*
X179015353Y-101672152D01*
X179015355Y-101672154D01*
X179124616Y-101752792D01*
X179124617Y-101752792D01*
X179124618Y-101752793D01*
X179252801Y-101797646D01*
X179283225Y-101800499D01*
X179283227Y-101800500D01*
X179283234Y-101800500D01*
X179916773Y-101800500D01*
X179916773Y-101800499D01*
X179947199Y-101797646D01*
X180075382Y-101752793D01*
X180184650Y-101672150D01*
X180265293Y-101562882D01*
X180310146Y-101434699D01*
X180310146Y-101434689D01*
X180311431Y-101428815D01*
X180314306Y-101429443D01*
X180333844Y-101384129D01*
X180386467Y-101352913D01*
X180408192Y-101350500D01*
X183012639Y-101350500D01*
X183070830Y-101369407D01*
X183106083Y-101416802D01*
X183122207Y-101462880D01*
X183122207Y-101462881D01*
X183202845Y-101572142D01*
X183202847Y-101572144D01*
X183202850Y-101572148D01*
X183202853Y-101572150D01*
X183202855Y-101572152D01*
X183312116Y-101652790D01*
X183312117Y-101652790D01*
X183312118Y-101652791D01*
X183440301Y-101697644D01*
X183470725Y-101700497D01*
X183470727Y-101700498D01*
X183470734Y-101700498D01*
X184529273Y-101700498D01*
X184529273Y-101700497D01*
X184559699Y-101697644D01*
X184687882Y-101652791D01*
X184797150Y-101572148D01*
X184822552Y-101537729D01*
X184857253Y-101490712D01*
X184907021Y-101455119D01*
X184936908Y-101450500D01*
X185352761Y-101450500D01*
X185402258Y-101463761D01*
X185406814Y-101466392D01*
X185534108Y-101500500D01*
X185534110Y-101500500D01*
X185665890Y-101500500D01*
X185665892Y-101500500D01*
X185793186Y-101466392D01*
X185793188Y-101466390D01*
X185793190Y-101466390D01*
X185907309Y-101400503D01*
X185907309Y-101400502D01*
X185907314Y-101400500D01*
X186000500Y-101307314D01*
X186045554Y-101229279D01*
X186066390Y-101193190D01*
X186066390Y-101193188D01*
X186066392Y-101193186D01*
X186100500Y-101065892D01*
X186100500Y-100934108D01*
X186066392Y-100806814D01*
X186066390Y-100806811D01*
X186066390Y-100806809D01*
X186000503Y-100692690D01*
X186000501Y-100692688D01*
X186000500Y-100692686D01*
X185907314Y-100599500D01*
X185907311Y-100599498D01*
X185907309Y-100599496D01*
X185793189Y-100533609D01*
X185793190Y-100533609D01*
X185785476Y-100531542D01*
X185755768Y-100523582D01*
X185731901Y-100513695D01*
X185673887Y-100480201D01*
X185673884Y-100480200D01*
X185649673Y-100473712D01*
X185649673Y-100473713D01*
X185559309Y-100449500D01*
X185559307Y-100449500D01*
X184859064Y-100449500D01*
X184800873Y-100430593D01*
X184800276Y-100430155D01*
X184687883Y-100347205D01*
X184559703Y-100302353D01*
X184559694Y-100302351D01*
X184529274Y-100299498D01*
X184529266Y-100299498D01*
X183470734Y-100299498D01*
X183470725Y-100299498D01*
X183440305Y-100302351D01*
X183440296Y-100302353D01*
X183312116Y-100347205D01*
X183199724Y-100430155D01*
X183141677Y-100449497D01*
X183140936Y-100449500D01*
X180408192Y-100449500D01*
X180350001Y-100430593D01*
X180314037Y-100381093D01*
X180311968Y-100371067D01*
X180311431Y-100371185D01*
X180310146Y-100365305D01*
X180310146Y-100365301D01*
X180265293Y-100237118D01*
X180263072Y-100234109D01*
X180184654Y-100127855D01*
X180184652Y-100127853D01*
X180184650Y-100127850D01*
X180184646Y-100127847D01*
X180184644Y-100127845D01*
X180075383Y-100047207D01*
X179947203Y-100002355D01*
X179947194Y-100002353D01*
X179916774Y-99999500D01*
X179916766Y-99999500D01*
X179283234Y-99999500D01*
X179283225Y-99999500D01*
X179252805Y-100002353D01*
X179252796Y-100002355D01*
X179124616Y-100047207D01*
X179015355Y-100127845D01*
X179015345Y-100127855D01*
X178934707Y-100237116D01*
X178889855Y-100365296D01*
X178889853Y-100365305D01*
X178887000Y-100395725D01*
X178487999Y-100395725D01*
X178486627Y-100381093D01*
X178485146Y-100365301D01*
X178440293Y-100237118D01*
X178438072Y-100234109D01*
X178359654Y-100127855D01*
X178359652Y-100127853D01*
X178359650Y-100127850D01*
X178359646Y-100127847D01*
X178359644Y-100127845D01*
X178265712Y-100058520D01*
X178230119Y-100008752D01*
X178225500Y-99978865D01*
X178225500Y-98795725D01*
X183074500Y-98795725D01*
X183074500Y-99404274D01*
X183077353Y-99434694D01*
X183077355Y-99434703D01*
X183122207Y-99562883D01*
X183202845Y-99672144D01*
X183202847Y-99672146D01*
X183202850Y-99672150D01*
X183202853Y-99672152D01*
X183202855Y-99672154D01*
X183312116Y-99752792D01*
X183312117Y-99752792D01*
X183312118Y-99752793D01*
X183440301Y-99797646D01*
X183470725Y-99800499D01*
X183470727Y-99800500D01*
X183470734Y-99800500D01*
X184529273Y-99800500D01*
X184529273Y-99800499D01*
X184559699Y-99797646D01*
X184687882Y-99752793D01*
X184797150Y-99672150D01*
X184820352Y-99640711D01*
X184870120Y-99605119D01*
X184900008Y-99600500D01*
X185352761Y-99600500D01*
X185402258Y-99613761D01*
X185406814Y-99616392D01*
X185534108Y-99650500D01*
X185534110Y-99650500D01*
X185665890Y-99650500D01*
X185665892Y-99650500D01*
X185793186Y-99616392D01*
X185793188Y-99616390D01*
X185793190Y-99616390D01*
X185907309Y-99550503D01*
X185907309Y-99550502D01*
X185907314Y-99550500D01*
X186000500Y-99457314D01*
X186031123Y-99404274D01*
X186066390Y-99343190D01*
X186066390Y-99343188D01*
X186066392Y-99343186D01*
X186100500Y-99215892D01*
X186100500Y-99084108D01*
X186066392Y-98956814D01*
X186066390Y-98956811D01*
X186066390Y-98956809D01*
X186000503Y-98842690D01*
X186000501Y-98842688D01*
X186000500Y-98842686D01*
X185907314Y-98749500D01*
X185907311Y-98749498D01*
X185907309Y-98749496D01*
X185793189Y-98683609D01*
X185793191Y-98683609D01*
X185739571Y-98669242D01*
X185665892Y-98649500D01*
X185534108Y-98649500D01*
X185460429Y-98669242D01*
X185406813Y-98683608D01*
X185402259Y-98686238D01*
X185352761Y-98699500D01*
X184969865Y-98699500D01*
X184911674Y-98680593D01*
X184883381Y-98642551D01*
X184881258Y-98643674D01*
X184877792Y-98637116D01*
X184797154Y-98527855D01*
X184797152Y-98527853D01*
X184797150Y-98527850D01*
X184797146Y-98527847D01*
X184797144Y-98527845D01*
X184687883Y-98447207D01*
X184559703Y-98402355D01*
X184559694Y-98402353D01*
X184529274Y-98399500D01*
X184529266Y-98399500D01*
X183470734Y-98399500D01*
X183470725Y-98399500D01*
X183440305Y-98402353D01*
X183440296Y-98402355D01*
X183312116Y-98447207D01*
X183202855Y-98527845D01*
X183202845Y-98527855D01*
X183122207Y-98637116D01*
X183077355Y-98765296D01*
X183077353Y-98765305D01*
X183074500Y-98795725D01*
X178225500Y-98795725D01*
X178225500Y-98715692D01*
X178221161Y-98699500D01*
X178194799Y-98601114D01*
X178194799Y-98601113D01*
X178135490Y-98498386D01*
X176743373Y-97106270D01*
X176717751Y-97061887D01*
X176716392Y-97056815D01*
X176716392Y-97056814D01*
X176650500Y-96942686D01*
X176557314Y-96849500D01*
X176557311Y-96849498D01*
X176557309Y-96849496D01*
X176443189Y-96783609D01*
X176443191Y-96783609D01*
X176393799Y-96770375D01*
X176315892Y-96749500D01*
X176184108Y-96749500D01*
X176106200Y-96770375D01*
X176056809Y-96783609D01*
X175942690Y-96849496D01*
X175849496Y-96942690D01*
X175783609Y-97056809D01*
X175771902Y-97100500D01*
X175749500Y-97184108D01*
X174030500Y-97184108D01*
X174030500Y-97174108D01*
X173996392Y-97046814D01*
X173996390Y-97046811D01*
X173996390Y-97046809D01*
X173930503Y-96932690D01*
X173930501Y-96932688D01*
X173930500Y-96932686D01*
X173837314Y-96839500D01*
X173837311Y-96839498D01*
X173837309Y-96839496D01*
X173723189Y-96773609D01*
X173723191Y-96773609D01*
X173673799Y-96760375D01*
X173595892Y-96739500D01*
X173464108Y-96739500D01*
X173386200Y-96760375D01*
X173336809Y-96773609D01*
X173222690Y-96839496D01*
X173129496Y-96932690D01*
X173063609Y-97046809D01*
X173055382Y-97077515D01*
X173029500Y-97174108D01*
X173029500Y-97305892D01*
X173063608Y-97433186D01*
X173066234Y-97437735D01*
X173079500Y-97487238D01*
X173079500Y-98413002D01*
X173060593Y-98471193D01*
X173011093Y-98507157D01*
X172980500Y-98512002D01*
X172970725Y-98512002D01*
X172940305Y-98514855D01*
X172940296Y-98514857D01*
X172812116Y-98559709D01*
X172702855Y-98640347D01*
X172702845Y-98640357D01*
X172622207Y-98749618D01*
X172577355Y-98877798D01*
X172577353Y-98877807D01*
X172574500Y-98908227D01*
X172574500Y-99459891D01*
X172555593Y-99518082D01*
X172545504Y-99529895D01*
X171963507Y-100111892D01*
X171904200Y-100214614D01*
X171904200Y-100214615D01*
X171904201Y-100214616D01*
X171875263Y-100322616D01*
X171873500Y-100329194D01*
X171873500Y-101700462D01*
X171854593Y-101758653D01*
X171844504Y-101770466D01*
X171009504Y-102605466D01*
X170954987Y-102633243D01*
X170894555Y-102623672D01*
X170851290Y-102580407D01*
X170840500Y-102535462D01*
X170840500Y-101848973D01*
X170859407Y-101790782D01*
X170908907Y-101754818D01*
X170930249Y-101750406D01*
X170959699Y-101747645D01*
X171087882Y-101702792D01*
X171197150Y-101622149D01*
X171277793Y-101512881D01*
X171322646Y-101384698D01*
X171325499Y-101354272D01*
X171325500Y-101354272D01*
X171325500Y-100745726D01*
X171325499Y-100745724D01*
X171324686Y-100737055D01*
X171322646Y-100715300D01*
X171277793Y-100587117D01*
X171277375Y-100586551D01*
X171197154Y-100477854D01*
X171197152Y-100477852D01*
X171197150Y-100477849D01*
X171197146Y-100477846D01*
X171197144Y-100477844D01*
X171087883Y-100397206D01*
X170959703Y-100352354D01*
X170959694Y-100352352D01*
X170929274Y-100349499D01*
X170929266Y-100349499D01*
X169870734Y-100349499D01*
X169870725Y-100349499D01*
X169840305Y-100352352D01*
X169840296Y-100352354D01*
X169712116Y-100397206D01*
X169602855Y-100477844D01*
X169602845Y-100477854D01*
X169522207Y-100587115D01*
X169477355Y-100715295D01*
X169477353Y-100715304D01*
X169474500Y-100745724D01*
X169474500Y-101354273D01*
X169477353Y-101384693D01*
X169477355Y-101384702D01*
X169522207Y-101512882D01*
X169602845Y-101622143D01*
X169602847Y-101622145D01*
X169602850Y-101622149D01*
X169602853Y-101622151D01*
X169602855Y-101622153D01*
X169712116Y-101702791D01*
X169712117Y-101702791D01*
X169712118Y-101702792D01*
X169840301Y-101747645D01*
X169844661Y-101748053D01*
X169849744Y-101748531D01*
X169905915Y-101772789D01*
X169937100Y-101825430D01*
X169939500Y-101847098D01*
X169939500Y-102250500D01*
X169920593Y-102308691D01*
X169871093Y-102344655D01*
X169840500Y-102349500D01*
X167547611Y-102349500D01*
X167489420Y-102330593D01*
X167477607Y-102320504D01*
X166797534Y-101640431D01*
X166769757Y-101585914D01*
X166774094Y-101537729D01*
X166810146Y-101434699D01*
X166812999Y-101404273D01*
X166813000Y-101404273D01*
X166813000Y-100395727D01*
X166812999Y-100395725D01*
X166811627Y-100381093D01*
X166810146Y-100365301D01*
X166765293Y-100237118D01*
X166763072Y-100234109D01*
X166684654Y-100127855D01*
X166684652Y-100127853D01*
X166684650Y-100127850D01*
X166684646Y-100127847D01*
X166684644Y-100127845D01*
X166575383Y-100047207D01*
X166447203Y-100002355D01*
X166447194Y-100002353D01*
X166416774Y-99999500D01*
X166416766Y-99999500D01*
X165783234Y-99999500D01*
X165783225Y-99999500D01*
X165752805Y-100002353D01*
X165752796Y-100002355D01*
X165624616Y-100047207D01*
X165515355Y-100127845D01*
X165515345Y-100127855D01*
X165434707Y-100237116D01*
X165389855Y-100365296D01*
X165389853Y-100365305D01*
X165387000Y-100395725D01*
X165387000Y-101404274D01*
X165389853Y-101434694D01*
X165389855Y-101434703D01*
X165434707Y-101562883D01*
X165515345Y-101672144D01*
X165515347Y-101672146D01*
X165515350Y-101672150D01*
X165515353Y-101672152D01*
X165515355Y-101672154D01*
X165624616Y-101752792D01*
X165624617Y-101752792D01*
X165624618Y-101752793D01*
X165641365Y-101758653D01*
X165658809Y-101764757D01*
X165707489Y-101801822D01*
X165711847Y-101808700D01*
X165723109Y-101828206D01*
X165739511Y-101856614D01*
X167043387Y-103160490D01*
X167043389Y-103160491D01*
X167126793Y-103208645D01*
X167126800Y-103208648D01*
X167133238Y-103212365D01*
X167146110Y-103219797D01*
X167146111Y-103219797D01*
X167146114Y-103219799D01*
X167260691Y-103250500D01*
X170125463Y-103250500D01*
X170183654Y-103269407D01*
X170219618Y-103318907D01*
X170219618Y-103380093D01*
X170195467Y-103419503D01*
X169844468Y-103770503D01*
X169789951Y-103798281D01*
X169774464Y-103799500D01*
X162047239Y-103799500D01*
X161997741Y-103786238D01*
X161993186Y-103783608D01*
X161981885Y-103780580D01*
X161865892Y-103749500D01*
X161734108Y-103749500D01*
X161660295Y-103769278D01*
X161606809Y-103783609D01*
X161492690Y-103849496D01*
X161399496Y-103942690D01*
X161333609Y-104056809D01*
X161333608Y-104056814D01*
X161299500Y-104184108D01*
X161000500Y-104184108D01*
X161000500Y-103577611D01*
X161019407Y-103519420D01*
X161029496Y-103507607D01*
X163157607Y-101379496D01*
X163212124Y-101351719D01*
X163227611Y-101350500D01*
X163466808Y-101350500D01*
X163524999Y-101369407D01*
X163560963Y-101418907D01*
X163563031Y-101428932D01*
X163563569Y-101428815D01*
X163564855Y-101434703D01*
X163609707Y-101562883D01*
X163690345Y-101672144D01*
X163690347Y-101672146D01*
X163690350Y-101672150D01*
X163690353Y-101672152D01*
X163690355Y-101672154D01*
X163799616Y-101752792D01*
X163799617Y-101752792D01*
X163799618Y-101752793D01*
X163927801Y-101797646D01*
X163958225Y-101800499D01*
X163958227Y-101800500D01*
X163958234Y-101800500D01*
X164591773Y-101800500D01*
X164591773Y-101800499D01*
X164622199Y-101797646D01*
X164750382Y-101752793D01*
X164859650Y-101672150D01*
X164940293Y-101562882D01*
X164985146Y-101434699D01*
X164987999Y-101404273D01*
X164988000Y-101404273D01*
X164988000Y-100395727D01*
X164987999Y-100395725D01*
X164986627Y-100381093D01*
X164985146Y-100365301D01*
X164940293Y-100237118D01*
X164938072Y-100234109D01*
X164859654Y-100127855D01*
X164859652Y-100127853D01*
X164859650Y-100127850D01*
X164859646Y-100127847D01*
X164859644Y-100127845D01*
X164765712Y-100058520D01*
X164730119Y-100008752D01*
X164725500Y-99978865D01*
X164725500Y-98845726D01*
X169474500Y-98845726D01*
X169474500Y-99454275D01*
X169477353Y-99484695D01*
X169477355Y-99484704D01*
X169522207Y-99612884D01*
X169602845Y-99722145D01*
X169602847Y-99722147D01*
X169602850Y-99722151D01*
X169602853Y-99722153D01*
X169602855Y-99722155D01*
X169712116Y-99802793D01*
X169712117Y-99802793D01*
X169712118Y-99802794D01*
X169840301Y-99847647D01*
X169870725Y-99850500D01*
X169870727Y-99850501D01*
X169870734Y-99850501D01*
X170929273Y-99850501D01*
X170929273Y-99850500D01*
X170959699Y-99847647D01*
X171087882Y-99802794D01*
X171197150Y-99722151D01*
X171277793Y-99612883D01*
X171322646Y-99484700D01*
X171325499Y-99454274D01*
X171325500Y-99454274D01*
X171325500Y-98845728D01*
X171325499Y-98845726D01*
X171324081Y-98830604D01*
X171322646Y-98815302D01*
X171277793Y-98687119D01*
X171264599Y-98669242D01*
X171197154Y-98577856D01*
X171197152Y-98577854D01*
X171197150Y-98577851D01*
X171197146Y-98577848D01*
X171197144Y-98577846D01*
X171087883Y-98497208D01*
X170959703Y-98452356D01*
X170959694Y-98452354D01*
X170930255Y-98449593D01*
X170874084Y-98425335D01*
X170842900Y-98372693D01*
X170840500Y-98351026D01*
X170840500Y-97487238D01*
X170853765Y-97437735D01*
X170856392Y-97433186D01*
X170890500Y-97305892D01*
X170890500Y-97174108D01*
X170856392Y-97046814D01*
X170856390Y-97046811D01*
X170856390Y-97046809D01*
X170790503Y-96932690D01*
X170790501Y-96932688D01*
X170790500Y-96932686D01*
X170697314Y-96839500D01*
X170697311Y-96839498D01*
X170697309Y-96839496D01*
X170583189Y-96773609D01*
X170583191Y-96773609D01*
X170533799Y-96760375D01*
X170455892Y-96739500D01*
X170324108Y-96739500D01*
X170246200Y-96760375D01*
X170196809Y-96773609D01*
X170082690Y-96839496D01*
X169989496Y-96932690D01*
X169923609Y-97046809D01*
X169915382Y-97077515D01*
X169889500Y-97174108D01*
X169889500Y-97305892D01*
X169923608Y-97433186D01*
X169926234Y-97437735D01*
X169939500Y-97487238D01*
X169939500Y-98352901D01*
X169920593Y-98411092D01*
X169871093Y-98447056D01*
X169849750Y-98451468D01*
X169840304Y-98452354D01*
X169840296Y-98452356D01*
X169712116Y-98497208D01*
X169602855Y-98577846D01*
X169602845Y-98577856D01*
X169522207Y-98687117D01*
X169477355Y-98815297D01*
X169477353Y-98815306D01*
X169474500Y-98845726D01*
X164725500Y-98845726D01*
X164725500Y-98745692D01*
X164721201Y-98729649D01*
X164694799Y-98631114D01*
X164694799Y-98631113D01*
X164694799Y-98631112D01*
X164635492Y-98528390D01*
X164635491Y-98528389D01*
X164635490Y-98528388D01*
X164635489Y-98528386D01*
X163203374Y-97096271D01*
X163177751Y-97051887D01*
X163176392Y-97046814D01*
X163110500Y-96932686D01*
X163017314Y-96839500D01*
X163017311Y-96839498D01*
X163017309Y-96839496D01*
X162903189Y-96773609D01*
X162903191Y-96773609D01*
X162853799Y-96760375D01*
X162775892Y-96739500D01*
X162644108Y-96739500D01*
X162566200Y-96760375D01*
X162516809Y-96773609D01*
X162402690Y-96839496D01*
X162309496Y-96932690D01*
X162243609Y-97046809D01*
X162235382Y-97077515D01*
X162209500Y-97174108D01*
X162209500Y-97305892D01*
X162237032Y-97408644D01*
X162243609Y-97433190D01*
X162309496Y-97547309D01*
X162309498Y-97547311D01*
X162309500Y-97547314D01*
X162402686Y-97640500D01*
X162516814Y-97706392D01*
X162521887Y-97707751D01*
X162566271Y-97733374D01*
X163795504Y-98962607D01*
X163823281Y-99017124D01*
X163824500Y-99032611D01*
X163824500Y-99978865D01*
X163805593Y-100037056D01*
X163784288Y-100058520D01*
X163690355Y-100127845D01*
X163690345Y-100127855D01*
X163609707Y-100237116D01*
X163564855Y-100365296D01*
X163563569Y-100371185D01*
X163560693Y-100370556D01*
X163541156Y-100415871D01*
X163488533Y-100447087D01*
X163466808Y-100449500D01*
X162940691Y-100449500D01*
X162902598Y-100459707D01*
X162850325Y-100473713D01*
X162850324Y-100473712D01*
X162826112Y-100480201D01*
X162826109Y-100480202D01*
X162723390Y-100539507D01*
X160189507Y-103073390D01*
X160130202Y-103176109D01*
X160130201Y-103176112D01*
X160123712Y-103200324D01*
X160123713Y-103200325D01*
X160099500Y-103290691D01*
X160099500Y-105102761D01*
X160095276Y-105118524D01*
X160095685Y-105129979D01*
X160092332Y-105141701D01*
X160083608Y-105156814D01*
X160049500Y-105284108D01*
X148202961Y-105284108D01*
X152542960Y-100944108D01*
X158119500Y-100944108D01*
X158119500Y-101075892D01*
X158131115Y-101119239D01*
X158153609Y-101203190D01*
X158219496Y-101317309D01*
X158219498Y-101317311D01*
X158219500Y-101317314D01*
X158312686Y-101410500D01*
X158312688Y-101410501D01*
X158312690Y-101410503D01*
X158426810Y-101476390D01*
X158426808Y-101476390D01*
X158426812Y-101476391D01*
X158426814Y-101476392D01*
X158554108Y-101510500D01*
X158554110Y-101510500D01*
X158685890Y-101510500D01*
X158685892Y-101510500D01*
X158813186Y-101476392D01*
X158817741Y-101473761D01*
X158867239Y-101460500D01*
X159234869Y-101460500D01*
X159293060Y-101479407D01*
X159317257Y-101507313D01*
X159317801Y-101506912D01*
X159402845Y-101622143D01*
X159402847Y-101622145D01*
X159402850Y-101622149D01*
X159402853Y-101622151D01*
X159402855Y-101622153D01*
X159512116Y-101702791D01*
X159512117Y-101702791D01*
X159512118Y-101702792D01*
X159640301Y-101747645D01*
X159670725Y-101750498D01*
X159670727Y-101750499D01*
X159670734Y-101750499D01*
X160729273Y-101750499D01*
X160729273Y-101750498D01*
X160759699Y-101747645D01*
X160887882Y-101702792D01*
X160997150Y-101622149D01*
X161077793Y-101512881D01*
X161122646Y-101384698D01*
X161125499Y-101354272D01*
X161125500Y-101354272D01*
X161125500Y-100745726D01*
X161125499Y-100745724D01*
X161124686Y-100737055D01*
X161122646Y-100715300D01*
X161077793Y-100587117D01*
X161077375Y-100586551D01*
X160997154Y-100477854D01*
X160997152Y-100477852D01*
X160997150Y-100477849D01*
X160997146Y-100477846D01*
X160997144Y-100477844D01*
X160887883Y-100397206D01*
X160759703Y-100352354D01*
X160759694Y-100352352D01*
X160729274Y-100349499D01*
X160729266Y-100349499D01*
X159670734Y-100349499D01*
X159670725Y-100349499D01*
X159640305Y-100352352D01*
X159640296Y-100352354D01*
X159512116Y-100397206D01*
X159402850Y-100477848D01*
X159372267Y-100519288D01*
X159322499Y-100554881D01*
X159292611Y-100559500D01*
X158867239Y-100559500D01*
X158817741Y-100546238D01*
X158813186Y-100543608D01*
X158812242Y-100543355D01*
X158685892Y-100509500D01*
X158554108Y-100509500D01*
X158494126Y-100525572D01*
X158426809Y-100543609D01*
X158312690Y-100609496D01*
X158219496Y-100702690D01*
X158153609Y-100816809D01*
X158150091Y-100829938D01*
X158119500Y-100944108D01*
X152542960Y-100944108D01*
X154530858Y-98956210D01*
X154585373Y-98928435D01*
X154645805Y-98938006D01*
X154689070Y-98981271D01*
X154698345Y-99012959D01*
X154698551Y-99012919D01*
X154699013Y-99015242D01*
X154699383Y-99016506D01*
X154699499Y-99017686D01*
X154716415Y-99102726D01*
X154737558Y-99209019D01*
X154737949Y-99210982D01*
X154737949Y-99210984D01*
X154813367Y-99393061D01*
X154834049Y-99424014D01*
X154922861Y-99556930D01*
X155062218Y-99696287D01*
X155226086Y-99805780D01*
X155408165Y-99881199D01*
X155601459Y-99919648D01*
X155601460Y-99919648D01*
X156598540Y-99919648D01*
X156598541Y-99919648D01*
X156791835Y-99881199D01*
X156973914Y-99805780D01*
X157137782Y-99696287D01*
X157277139Y-99556930D01*
X157386632Y-99393062D01*
X157462051Y-99210983D01*
X157481321Y-99114108D01*
X158089500Y-99114108D01*
X158089500Y-99245892D01*
X158115570Y-99343186D01*
X158123609Y-99373190D01*
X158189496Y-99487309D01*
X158189498Y-99487311D01*
X158189500Y-99487314D01*
X158282686Y-99580500D01*
X158282688Y-99580501D01*
X158282690Y-99580503D01*
X158396810Y-99646390D01*
X158396808Y-99646390D01*
X158396812Y-99646391D01*
X158396814Y-99646392D01*
X158524108Y-99680500D01*
X158524110Y-99680500D01*
X158655890Y-99680500D01*
X158655892Y-99680500D01*
X158783186Y-99646392D01*
X158787741Y-99643761D01*
X158837239Y-99630500D01*
X159285231Y-99630500D01*
X159343422Y-99649407D01*
X159364886Y-99670712D01*
X159402845Y-99722145D01*
X159402847Y-99722147D01*
X159402850Y-99722151D01*
X159402853Y-99722153D01*
X159402855Y-99722155D01*
X159512116Y-99802793D01*
X159512117Y-99802793D01*
X159512118Y-99802794D01*
X159640301Y-99847647D01*
X159670725Y-99850500D01*
X159670727Y-99850501D01*
X159670734Y-99850501D01*
X160729273Y-99850501D01*
X160729273Y-99850500D01*
X160759699Y-99847647D01*
X160887882Y-99802794D01*
X160997150Y-99722151D01*
X161077793Y-99612883D01*
X161122646Y-99484700D01*
X161125499Y-99454274D01*
X161125500Y-99454274D01*
X161125500Y-98845728D01*
X161125499Y-98845726D01*
X161124081Y-98830604D01*
X161122646Y-98815302D01*
X161077793Y-98687119D01*
X161064599Y-98669242D01*
X160997154Y-98577856D01*
X160997152Y-98577854D01*
X160997150Y-98577851D01*
X160997146Y-98577848D01*
X160997144Y-98577846D01*
X160887883Y-98497208D01*
X160759703Y-98452356D01*
X160759694Y-98452354D01*
X160729274Y-98449501D01*
X160729266Y-98449501D01*
X159670734Y-98449501D01*
X159670725Y-98449501D01*
X159640305Y-98452354D01*
X159640296Y-98452356D01*
X159512116Y-98497208D01*
X159402855Y-98577846D01*
X159402846Y-98577855D01*
X159320606Y-98689288D01*
X159270839Y-98724881D01*
X159240951Y-98729500D01*
X158837239Y-98729500D01*
X158787741Y-98716238D01*
X158786795Y-98715692D01*
X158783186Y-98713608D01*
X158655892Y-98679500D01*
X158524108Y-98679500D01*
X158449466Y-98699500D01*
X158396809Y-98713609D01*
X158282690Y-98779496D01*
X158189496Y-98872690D01*
X158123609Y-98986809D01*
X158112656Y-99027687D01*
X158089500Y-99114108D01*
X157481321Y-99114108D01*
X157500500Y-99017689D01*
X157500500Y-98820607D01*
X157462051Y-98627313D01*
X157386632Y-98445234D01*
X157277139Y-98281366D01*
X157137782Y-98142009D01*
X157027895Y-98068585D01*
X156973913Y-98032515D01*
X156791835Y-97957097D01*
X156598543Y-97918648D01*
X156598541Y-97918648D01*
X155807429Y-97918648D01*
X155749238Y-97899741D01*
X155713274Y-97850241D01*
X155713274Y-97789055D01*
X155737426Y-97749644D01*
X156078427Y-97408644D01*
X156132943Y-97380867D01*
X156148430Y-97379648D01*
X156598540Y-97379648D01*
X156598541Y-97379648D01*
X156791835Y-97341199D01*
X156973914Y-97265780D01*
X157137782Y-97156287D01*
X157277139Y-97016930D01*
X157386632Y-96853062D01*
X157462051Y-96670983D01*
X157500500Y-96477689D01*
X157500500Y-96280607D01*
X157462051Y-96087313D01*
X157386633Y-95905236D01*
X157386632Y-95905233D01*
X157372516Y-95884108D01*
X170499500Y-95884108D01*
X170499500Y-96015892D01*
X170524076Y-96107613D01*
X170533609Y-96143190D01*
X170599496Y-96257309D01*
X170599498Y-96257311D01*
X170599500Y-96257314D01*
X170692686Y-96350500D01*
X170692688Y-96350501D01*
X170692690Y-96350503D01*
X170806810Y-96416390D01*
X170806808Y-96416390D01*
X170806812Y-96416391D01*
X170806814Y-96416392D01*
X170934108Y-96450500D01*
X170934110Y-96450500D01*
X171065890Y-96450500D01*
X171065892Y-96450500D01*
X171193186Y-96416392D01*
X171197741Y-96413761D01*
X171247239Y-96400500D01*
X179609309Y-96400500D01*
X179699669Y-96376287D01*
X179699672Y-96376287D01*
X179712903Y-96372741D01*
X179723887Y-96369799D01*
X179826614Y-96310489D01*
X181208403Y-94928699D01*
X181259723Y-94902551D01*
X181259624Y-94902179D01*
X181261376Y-94901709D01*
X181262916Y-94900925D01*
X181265495Y-94900551D01*
X181265882Y-94900500D01*
X181265892Y-94900500D01*
X181393186Y-94866392D01*
X181393188Y-94866390D01*
X181393190Y-94866390D01*
X181507309Y-94800503D01*
X181507309Y-94800502D01*
X181507314Y-94800500D01*
X181600500Y-94707314D01*
X181629935Y-94656332D01*
X181666390Y-94593190D01*
X181666390Y-94593188D01*
X181666392Y-94593186D01*
X181700500Y-94465892D01*
X181700500Y-94465881D01*
X181700551Y-94465495D01*
X181700676Y-94465232D01*
X181702179Y-94459624D01*
X181703217Y-94459902D01*
X181726884Y-94410267D01*
X181728629Y-94408473D01*
X182560490Y-93576613D01*
X182619799Y-93473886D01*
X182631407Y-93430563D01*
X182650500Y-93359309D01*
X182650500Y-86077610D01*
X182669407Y-86019419D01*
X182679490Y-86007612D01*
X183346612Y-85340489D01*
X183401127Y-85312714D01*
X183449310Y-85317050D01*
X183465301Y-85322646D01*
X183495725Y-85325499D01*
X183495727Y-85325500D01*
X183495734Y-85325500D01*
X184504273Y-85325500D01*
X184504273Y-85325499D01*
X184534699Y-85322646D01*
X184662882Y-85277793D01*
X184772150Y-85197150D01*
X184852793Y-85087882D01*
X184897646Y-84959699D01*
X184900499Y-84929273D01*
X184900500Y-84929273D01*
X184900500Y-84295727D01*
X184900499Y-84295725D01*
X184897646Y-84265305D01*
X184897646Y-84265304D01*
X184897646Y-84265301D01*
X184852793Y-84137118D01*
X184850572Y-84134109D01*
X184772154Y-84027855D01*
X184772152Y-84027853D01*
X184772150Y-84027850D01*
X184772146Y-84027847D01*
X184772144Y-84027845D01*
X184662883Y-83947207D01*
X184534703Y-83902355D01*
X184534694Y-83902353D01*
X184504274Y-83899500D01*
X184504266Y-83899500D01*
X183495734Y-83899500D01*
X183495725Y-83899500D01*
X183465305Y-83902353D01*
X183465296Y-83902355D01*
X183337116Y-83947207D01*
X183227855Y-84027845D01*
X183227845Y-84027855D01*
X183147207Y-84137116D01*
X183102355Y-84265296D01*
X183102353Y-84265304D01*
X183101003Y-84279699D01*
X183076743Y-84335869D01*
X183072440Y-84340456D01*
X181839508Y-85573389D01*
X181839507Y-85573390D01*
X181780200Y-85676112D01*
X181780200Y-85676113D01*
X181780201Y-85676114D01*
X181754105Y-85773507D01*
X181749500Y-85790692D01*
X181749500Y-93072389D01*
X181730593Y-93130580D01*
X181720504Y-93142393D01*
X180839511Y-94023386D01*
X180839509Y-94023388D01*
X180834925Y-94027973D01*
X180834784Y-94027832D01*
X180827832Y-94034784D01*
X180827973Y-94034925D01*
X180823388Y-94039509D01*
X180823386Y-94039511D01*
X180097377Y-94765520D01*
X179392393Y-95470504D01*
X179337876Y-95498281D01*
X179322389Y-95499500D01*
X171247239Y-95499500D01*
X171197741Y-95486238D01*
X171193186Y-95483608D01*
X171189081Y-95482508D01*
X171065892Y-95449500D01*
X170934108Y-95449500D01*
X170856200Y-95470375D01*
X170806809Y-95483609D01*
X170692690Y-95549496D01*
X170599496Y-95642690D01*
X170533609Y-95756809D01*
X170519677Y-95808804D01*
X170499500Y-95884108D01*
X157372516Y-95884108D01*
X157338428Y-95833092D01*
X157277139Y-95741366D01*
X157137782Y-95602009D01*
X156988880Y-95502516D01*
X156973913Y-95492515D01*
X156791835Y-95417097D01*
X156598543Y-95378648D01*
X156598541Y-95378648D01*
X155601459Y-95378648D01*
X155601456Y-95378648D01*
X155408165Y-95417097D01*
X155408163Y-95417097D01*
X155261833Y-95477708D01*
X155200836Y-95482508D01*
X155148667Y-95450539D01*
X155125253Y-95394010D01*
X155139537Y-95334516D01*
X155153945Y-95316240D01*
X155601542Y-94868644D01*
X155656058Y-94840867D01*
X155671545Y-94839648D01*
X156598540Y-94839648D01*
X156598541Y-94839648D01*
X156791835Y-94801199D01*
X156973914Y-94725780D01*
X157137782Y-94616287D01*
X157277139Y-94476930D01*
X157386632Y-94313062D01*
X157462051Y-94130983D01*
X157500500Y-93937689D01*
X157500500Y-93740607D01*
X157462051Y-93547313D01*
X157386632Y-93365234D01*
X157277139Y-93201366D01*
X157137782Y-93062009D01*
X157019032Y-92982663D01*
X156973913Y-92952515D01*
X156791835Y-92877097D01*
X156598543Y-92838648D01*
X156598541Y-92838648D01*
X155601459Y-92838648D01*
X155601456Y-92838648D01*
X155408165Y-92877097D01*
X155408163Y-92877097D01*
X155226086Y-92952515D01*
X155062218Y-93062009D01*
X155062214Y-93062012D01*
X154922864Y-93201362D01*
X154922861Y-93201366D01*
X154813367Y-93365234D01*
X154737949Y-93547311D01*
X154737949Y-93547313D01*
X154699500Y-93740604D01*
X154699500Y-93937691D01*
X154710539Y-93993186D01*
X154737558Y-94129019D01*
X154737949Y-94130982D01*
X154737949Y-94130984D01*
X154813367Y-94313061D01*
X154881054Y-94414361D01*
X154897663Y-94473249D01*
X154876486Y-94530653D01*
X154868743Y-94539367D01*
X152257458Y-97150653D01*
X152202941Y-97178430D01*
X152187454Y-97179649D01*
X149732918Y-97179649D01*
X149674727Y-97160742D01*
X149638763Y-97111242D01*
X149638763Y-97050056D01*
X149654611Y-97021090D01*
X149654437Y-97020974D01*
X149655750Y-97019008D01*
X149656382Y-97017854D01*
X149657134Y-97016936D01*
X149657139Y-97016931D01*
X149766632Y-96853063D01*
X149842051Y-96670984D01*
X149880500Y-96477690D01*
X149880500Y-96280608D01*
X149842051Y-96087314D01*
X149766632Y-95905235D01*
X149698944Y-95803933D01*
X149682336Y-95745047D01*
X149703513Y-95687643D01*
X149711248Y-95678937D01*
X150700474Y-94689712D01*
X150706364Y-94679511D01*
X150749910Y-94604087D01*
X150775500Y-94508584D01*
X150775500Y-91200604D01*
X154699500Y-91200604D01*
X154699500Y-91397691D01*
X154704720Y-91423931D01*
X154737558Y-91589019D01*
X154737949Y-91590982D01*
X154737949Y-91590984D01*
X154813367Y-91773061D01*
X154831033Y-91799500D01*
X154922861Y-91936930D01*
X155062218Y-92076287D01*
X155226086Y-92185780D01*
X155408165Y-92261199D01*
X155601459Y-92299648D01*
X155601460Y-92299648D01*
X156598540Y-92299648D01*
X156598541Y-92299648D01*
X156791835Y-92261199D01*
X156973914Y-92185780D01*
X157137782Y-92076287D01*
X157277139Y-91936930D01*
X157386632Y-91773062D01*
X157462051Y-91590983D01*
X157500500Y-91397689D01*
X157500500Y-91201456D01*
X177399499Y-91201456D01*
X177399499Y-91398543D01*
X177401319Y-91407691D01*
X177437778Y-91590982D01*
X177437948Y-91591834D01*
X177437948Y-91591836D01*
X177513366Y-91773913D01*
X177519479Y-91783061D01*
X177622860Y-91937782D01*
X177762217Y-92077139D01*
X177926085Y-92186632D01*
X178108164Y-92262051D01*
X178301458Y-92300500D01*
X178301459Y-92300500D01*
X178498539Y-92300500D01*
X178498540Y-92300500D01*
X178691834Y-92262051D01*
X178873913Y-92186632D01*
X179037781Y-92077139D01*
X179177138Y-91937782D01*
X179220033Y-91873584D01*
X179268080Y-91835707D01*
X179329218Y-91833305D01*
X179380092Y-91867297D01*
X179400913Y-91919342D01*
X179402353Y-91934694D01*
X179402355Y-91934703D01*
X179447207Y-92062883D01*
X179527845Y-92172144D01*
X179527847Y-92172146D01*
X179527850Y-92172150D01*
X179527853Y-92172152D01*
X179527855Y-92172154D01*
X179637116Y-92252792D01*
X179637117Y-92252792D01*
X179637118Y-92252793D01*
X179765301Y-92297646D01*
X179795725Y-92300499D01*
X179795727Y-92300500D01*
X179795734Y-92300500D01*
X181004273Y-92300500D01*
X181004273Y-92300499D01*
X181034699Y-92297646D01*
X181162882Y-92252793D01*
X181272150Y-92172150D01*
X181352793Y-92062882D01*
X181397646Y-91934699D01*
X181400499Y-91904273D01*
X181400500Y-91904273D01*
X181400500Y-90695727D01*
X181400499Y-90695725D01*
X181399086Y-90680658D01*
X181397646Y-90665301D01*
X181352793Y-90537118D01*
X181349022Y-90532009D01*
X181272154Y-90427855D01*
X181272152Y-90427853D01*
X181272150Y-90427850D01*
X181272146Y-90427847D01*
X181272144Y-90427845D01*
X181162883Y-90347207D01*
X181034703Y-90302355D01*
X181034694Y-90302353D01*
X181004274Y-90299500D01*
X181004266Y-90299500D01*
X179795734Y-90299500D01*
X179795725Y-90299500D01*
X179765305Y-90302353D01*
X179765296Y-90302355D01*
X179637116Y-90347207D01*
X179527855Y-90427845D01*
X179527845Y-90427855D01*
X179447207Y-90537116D01*
X179402355Y-90665296D01*
X179402353Y-90665304D01*
X179400913Y-90680658D01*
X179376653Y-90736828D01*
X179324011Y-90768011D01*
X179263093Y-90762297D01*
X179220032Y-90726413D01*
X179177138Y-90662218D01*
X179037781Y-90522861D01*
X178908690Y-90436605D01*
X178873912Y-90413367D01*
X178691834Y-90337949D01*
X178498542Y-90299500D01*
X178498540Y-90299500D01*
X178301458Y-90299500D01*
X178301455Y-90299500D01*
X178108164Y-90337949D01*
X178108162Y-90337949D01*
X177926085Y-90413367D01*
X177762217Y-90522861D01*
X177762213Y-90522864D01*
X177622863Y-90662214D01*
X177622860Y-90662218D01*
X177513366Y-90826086D01*
X177437948Y-91008163D01*
X177437948Y-91008165D01*
X177399499Y-91201456D01*
X157500500Y-91201456D01*
X157500500Y-91200607D01*
X157462051Y-91007313D01*
X157386632Y-90825234D01*
X157277139Y-90661366D01*
X157137782Y-90522009D01*
X157009966Y-90436605D01*
X156973913Y-90412515D01*
X156791835Y-90337097D01*
X156598543Y-90298648D01*
X156598541Y-90298648D01*
X155601459Y-90298648D01*
X155601456Y-90298648D01*
X155408165Y-90337097D01*
X155408163Y-90337097D01*
X155226086Y-90412515D01*
X155062218Y-90522009D01*
X155062214Y-90522012D01*
X154922864Y-90661362D01*
X154922861Y-90661366D01*
X154813367Y-90825234D01*
X154737949Y-91007311D01*
X154737949Y-91007313D01*
X154699500Y-91200604D01*
X150775500Y-91200604D01*
X150775500Y-88660604D01*
X154699500Y-88660604D01*
X154699500Y-88857691D01*
X154718326Y-88952334D01*
X154734359Y-89032937D01*
X154737949Y-89050982D01*
X154737949Y-89050984D01*
X154813367Y-89233061D01*
X154831132Y-89259648D01*
X154922861Y-89396930D01*
X155062218Y-89536287D01*
X155226086Y-89645780D01*
X155408165Y-89721199D01*
X155601459Y-89759648D01*
X155601460Y-89759648D01*
X156598540Y-89759648D01*
X156598541Y-89759648D01*
X156791835Y-89721199D01*
X156973914Y-89645780D01*
X157137782Y-89536287D01*
X157277139Y-89396930D01*
X157386632Y-89233062D01*
X157462051Y-89050983D01*
X157500500Y-88857689D01*
X157500500Y-88660607D01*
X157462051Y-88467313D01*
X157386632Y-88285234D01*
X157277139Y-88121366D01*
X157137782Y-87982009D01*
X156973914Y-87872516D01*
X156973915Y-87872516D01*
X156973913Y-87872515D01*
X156791835Y-87797097D01*
X156598543Y-87758648D01*
X156598541Y-87758648D01*
X155601459Y-87758648D01*
X155601456Y-87758648D01*
X155408165Y-87797097D01*
X155408163Y-87797097D01*
X155226086Y-87872515D01*
X155062218Y-87982009D01*
X155062214Y-87982012D01*
X154922864Y-88121362D01*
X154922861Y-88121366D01*
X154813367Y-88285234D01*
X154737949Y-88467311D01*
X154737949Y-88467313D01*
X154699500Y-88660604D01*
X150775500Y-88660604D01*
X150775500Y-86120604D01*
X154699500Y-86120604D01*
X154699500Y-86317691D01*
X154715731Y-86399287D01*
X154737558Y-86509019D01*
X154737949Y-86510982D01*
X154737949Y-86510984D01*
X154813367Y-86693061D01*
X154821352Y-86705011D01*
X154922861Y-86856930D01*
X155062218Y-86996287D01*
X155226086Y-87105780D01*
X155408165Y-87181199D01*
X155601459Y-87219648D01*
X155601460Y-87219648D01*
X156598540Y-87219648D01*
X156598541Y-87219648D01*
X156791835Y-87181199D01*
X156973914Y-87105780D01*
X157137782Y-86996287D01*
X157277139Y-86856930D01*
X157386632Y-86693062D01*
X157462051Y-86510983D01*
X157500500Y-86317689D01*
X157500500Y-86120607D01*
X157462051Y-85927313D01*
X157386632Y-85745234D01*
X157277139Y-85581366D01*
X157137782Y-85442009D01*
X156988879Y-85342515D01*
X156973913Y-85332515D01*
X156791835Y-85257097D01*
X156598543Y-85218648D01*
X156598541Y-85218648D01*
X155601459Y-85218648D01*
X155601456Y-85218648D01*
X155408165Y-85257097D01*
X155408163Y-85257097D01*
X155226086Y-85332515D01*
X155062218Y-85442009D01*
X155062214Y-85442012D01*
X154922864Y-85581362D01*
X154922861Y-85581366D01*
X154813367Y-85745234D01*
X154737949Y-85927311D01*
X154737949Y-85927313D01*
X154699500Y-86120604D01*
X150775500Y-86120604D01*
X150775500Y-84742468D01*
X150794407Y-84684277D01*
X150843907Y-84648313D01*
X150905093Y-84648313D01*
X150923026Y-84656176D01*
X150927907Y-84658920D01*
X151068556Y-84714386D01*
X151156935Y-84724999D01*
X151156942Y-84725000D01*
X151299999Y-84725000D01*
X151300000Y-84724999D01*
X151300000Y-83850001D01*
X151600000Y-83850001D01*
X151600000Y-84724999D01*
X151600001Y-84725000D01*
X151743058Y-84725000D01*
X151743064Y-84724999D01*
X151831443Y-84714386D01*
X151972095Y-84658919D01*
X152092564Y-84567564D01*
X152183919Y-84447095D01*
X152239386Y-84306443D01*
X152249999Y-84218064D01*
X152250000Y-84218058D01*
X152250000Y-83850001D01*
X152249999Y-83850000D01*
X151600001Y-83850000D01*
X151600000Y-83850001D01*
X151300000Y-83850001D01*
X151300000Y-82675001D01*
X151600000Y-82675001D01*
X151600000Y-83549999D01*
X151600001Y-83550000D01*
X152249999Y-83550000D01*
X152250000Y-83549999D01*
X152250000Y-83181941D01*
X152249999Y-83181935D01*
X152249794Y-83180223D01*
X152248653Y-83170725D01*
X152649500Y-83170725D01*
X152649500Y-84229274D01*
X152652353Y-84259694D01*
X152652355Y-84259703D01*
X152697207Y-84387883D01*
X152777845Y-84497144D01*
X152777847Y-84497146D01*
X152777850Y-84497150D01*
X152777853Y-84497152D01*
X152777855Y-84497154D01*
X152887116Y-84577792D01*
X152887117Y-84577792D01*
X152887118Y-84577793D01*
X153015301Y-84622646D01*
X153045725Y-84625499D01*
X153045727Y-84625500D01*
X153045734Y-84625500D01*
X153654273Y-84625500D01*
X153654273Y-84625499D01*
X153684699Y-84622646D01*
X153812882Y-84577793D01*
X153922150Y-84497150D01*
X154002793Y-84387882D01*
X154047646Y-84259699D01*
X154050499Y-84229273D01*
X154050500Y-84229273D01*
X154050500Y-84174500D01*
X154069407Y-84116309D01*
X154118907Y-84080345D01*
X154149500Y-84075500D01*
X154715091Y-84075500D01*
X154773282Y-84094407D01*
X154806555Y-84136615D01*
X154808176Y-84140528D01*
X154813368Y-84153062D01*
X154922861Y-84316930D01*
X155062218Y-84456287D01*
X155226086Y-84565780D01*
X155408165Y-84641199D01*
X155601459Y-84679648D01*
X155601460Y-84679648D01*
X156598540Y-84679648D01*
X156598541Y-84679648D01*
X156791835Y-84641199D01*
X156973914Y-84565780D01*
X157137782Y-84456287D01*
X157277139Y-84316930D01*
X157386632Y-84153062D01*
X157462051Y-83970983D01*
X157500500Y-83777689D01*
X157500500Y-83580607D01*
X157462051Y-83387313D01*
X157386632Y-83205234D01*
X157277139Y-83041366D01*
X157137782Y-82902009D01*
X156973914Y-82792516D01*
X156973915Y-82792516D01*
X156973913Y-82792515D01*
X156791835Y-82717097D01*
X156598543Y-82678648D01*
X156598541Y-82678648D01*
X155601459Y-82678648D01*
X155601456Y-82678648D01*
X155408165Y-82717097D01*
X155408163Y-82717097D01*
X155226086Y-82792515D01*
X155062218Y-82902009D01*
X155062214Y-82902012D01*
X154922864Y-83041362D01*
X154922861Y-83041366D01*
X154813367Y-83205234D01*
X154789281Y-83263385D01*
X154749545Y-83309911D01*
X154697817Y-83324500D01*
X154149500Y-83324500D01*
X154091309Y-83305593D01*
X154055345Y-83256093D01*
X154050500Y-83225500D01*
X154050500Y-83170727D01*
X154050499Y-83170725D01*
X154047646Y-83140301D01*
X154002793Y-83012118D01*
X153959091Y-82952904D01*
X153922154Y-82902855D01*
X153922152Y-82902853D01*
X153922150Y-82902850D01*
X153922146Y-82902847D01*
X153922144Y-82902845D01*
X153812883Y-82822207D01*
X153684703Y-82777355D01*
X153684694Y-82777353D01*
X153654274Y-82774500D01*
X153654266Y-82774500D01*
X153045734Y-82774500D01*
X153045725Y-82774500D01*
X153015305Y-82777353D01*
X153015296Y-82777355D01*
X152887116Y-82822207D01*
X152777855Y-82902845D01*
X152777845Y-82902855D01*
X152697207Y-83012116D01*
X152652355Y-83140296D01*
X152652353Y-83140305D01*
X152649500Y-83170725D01*
X152248653Y-83170725D01*
X152239386Y-83093556D01*
X152183919Y-82952904D01*
X152092564Y-82832435D01*
X151972095Y-82741080D01*
X151831443Y-82685613D01*
X151743064Y-82675000D01*
X151600001Y-82675000D01*
X151600000Y-82675001D01*
X151300000Y-82675001D01*
X151299999Y-82675000D01*
X151156935Y-82675000D01*
X151068556Y-82685613D01*
X150927901Y-82741081D01*
X150923020Y-82743826D01*
X150863030Y-82755864D01*
X150807422Y-82730342D01*
X150777435Y-82677009D01*
X150775500Y-82657531D01*
X150775500Y-81040604D01*
X154699500Y-81040604D01*
X154699500Y-81237691D01*
X154713348Y-81307309D01*
X154737558Y-81429019D01*
X154737949Y-81430982D01*
X154737949Y-81430984D01*
X154813367Y-81613061D01*
X154820049Y-81623061D01*
X154922861Y-81776930D01*
X155062218Y-81916287D01*
X155226086Y-82025780D01*
X155408165Y-82101199D01*
X155601459Y-82139648D01*
X155601460Y-82139648D01*
X156598540Y-82139648D01*
X156598541Y-82139648D01*
X156791835Y-82101199D01*
X156973914Y-82025780D01*
X157137782Y-81916287D01*
X157277139Y-81776930D01*
X157386632Y-81613062D01*
X157462051Y-81430983D01*
X157500500Y-81237689D01*
X157500500Y-81040607D01*
X157462051Y-80847313D01*
X157386632Y-80665234D01*
X157277139Y-80501366D01*
X157137782Y-80362009D01*
X156973914Y-80252516D01*
X156973915Y-80252516D01*
X156973913Y-80252515D01*
X156791835Y-80177097D01*
X156598543Y-80138648D01*
X156598541Y-80138648D01*
X155601459Y-80138648D01*
X155601456Y-80138648D01*
X155408165Y-80177097D01*
X155408163Y-80177097D01*
X155226086Y-80252515D01*
X155062218Y-80362009D01*
X155062214Y-80362012D01*
X154922864Y-80501362D01*
X154922861Y-80501366D01*
X154813367Y-80665234D01*
X154737949Y-80847311D01*
X154737949Y-80847313D01*
X154699500Y-81040604D01*
X150775500Y-81040604D01*
X150775500Y-78500604D01*
X154699500Y-78500604D01*
X154699500Y-78697691D01*
X154737949Y-78890982D01*
X154737949Y-78890984D01*
X154813367Y-79073061D01*
X154824847Y-79090242D01*
X154922861Y-79236930D01*
X155062218Y-79376287D01*
X155226086Y-79485780D01*
X155408165Y-79561199D01*
X155601459Y-79599648D01*
X155601460Y-79599648D01*
X156598540Y-79599648D01*
X156598541Y-79599648D01*
X156791835Y-79561199D01*
X156973914Y-79485780D01*
X157137782Y-79376287D01*
X157277139Y-79236930D01*
X157386632Y-79073062D01*
X157462051Y-78890983D01*
X157500500Y-78697689D01*
X157500500Y-78500607D01*
X157462051Y-78307313D01*
X157386632Y-78125234D01*
X157277139Y-77961366D01*
X157137782Y-77822009D01*
X157028288Y-77748847D01*
X156973913Y-77712515D01*
X156791835Y-77637097D01*
X156598543Y-77598648D01*
X156598541Y-77598648D01*
X155601459Y-77598648D01*
X155601456Y-77598648D01*
X155408165Y-77637097D01*
X155408163Y-77637097D01*
X155226086Y-77712515D01*
X155062218Y-77822009D01*
X155062214Y-77822012D01*
X154922864Y-77961362D01*
X154922861Y-77961366D01*
X154813367Y-78125234D01*
X154737949Y-78307311D01*
X154737949Y-78307313D01*
X154699500Y-78500604D01*
X150775500Y-78500604D01*
X150775500Y-74621053D01*
X168599500Y-74621053D01*
X168599500Y-74857244D01*
X168636445Y-75090512D01*
X168709432Y-75315141D01*
X168813904Y-75520180D01*
X168816657Y-75525582D01*
X168955483Y-75716659D01*
X169122490Y-75883666D01*
X169313567Y-76022492D01*
X169524008Y-76129717D01*
X169748632Y-76202702D01*
X169748633Y-76202702D01*
X169748636Y-76202703D01*
X169981905Y-76239649D01*
X169981908Y-76239649D01*
X170218095Y-76239649D01*
X170451363Y-76202703D01*
X170451364Y-76202702D01*
X170451368Y-76202702D01*
X170675992Y-76129717D01*
X170886433Y-76022492D01*
X171077510Y-75883666D01*
X171244517Y-75716659D01*
X171383343Y-75525582D01*
X171490568Y-75315141D01*
X171563553Y-75090517D01*
X171563882Y-75088438D01*
X171600500Y-74857244D01*
X171600500Y-74621053D01*
X171563554Y-74387785D01*
X171560280Y-74377708D01*
X171490568Y-74163157D01*
X171383343Y-73952716D01*
X171244517Y-73761639D01*
X171077510Y-73594632D01*
X170886433Y-73455806D01*
X170886432Y-73455805D01*
X170886430Y-73455804D01*
X170675992Y-73348581D01*
X170451363Y-73275594D01*
X170218095Y-73238649D01*
X170218092Y-73238649D01*
X169981908Y-73238649D01*
X169981905Y-73238649D01*
X169748636Y-73275594D01*
X169524007Y-73348581D01*
X169313569Y-73455804D01*
X169122491Y-73594631D01*
X168955482Y-73761640D01*
X168816655Y-73952718D01*
X168709432Y-74163156D01*
X168636445Y-74387785D01*
X168599500Y-74621053D01*
X150775500Y-74621053D01*
X150775500Y-70450566D01*
X150775500Y-70450565D01*
X150749910Y-70355062D01*
X150749908Y-70355059D01*
X150749908Y-70355057D01*
X150700475Y-70269438D01*
X150630562Y-70199524D01*
X150630562Y-70199525D01*
X149534563Y-69103526D01*
X149534563Y-69103525D01*
X149448941Y-69054091D01*
X149448934Y-69054088D01*
X149401185Y-69041294D01*
X149401184Y-69041294D01*
X149353438Y-69028500D01*
X149353436Y-69028500D01*
X149353435Y-69028500D01*
X127300289Y-69028500D01*
X127242098Y-69009593D01*
X127206134Y-68960093D01*
X127206134Y-68898907D01*
X127242098Y-68849407D01*
X127250777Y-68843770D01*
X127351465Y-68785638D01*
X130043729Y-66093372D01*
X130075846Y-66071914D01*
X130081836Y-66069432D01*
X130093186Y-66066392D01*
X130103360Y-66060517D01*
X130109355Y-66058035D01*
X130123173Y-66056947D01*
X130147239Y-66050500D01*
X131052761Y-66050500D01*
X131102258Y-66063761D01*
X131106814Y-66066392D01*
X131234108Y-66100500D01*
X131234110Y-66100500D01*
X131365890Y-66100500D01*
X131365892Y-66100500D01*
X131493186Y-66066392D01*
X131497741Y-66063761D01*
X131547239Y-66050500D01*
X183472389Y-66050500D01*
X183530580Y-66069407D01*
X183542393Y-66079496D01*
X185420504Y-67957607D01*
X185448281Y-68012124D01*
X185449500Y-68027611D01*
X185449500Y-78272388D01*
X185430593Y-78330579D01*
X185420504Y-78342392D01*
X183639508Y-80123389D01*
X183639507Y-80123390D01*
X183580200Y-80226112D01*
X183580200Y-80226113D01*
X183580201Y-80226114D01*
X183551505Y-80333211D01*
X183549500Y-80340692D01*
X183549500Y-81979307D01*
X183530593Y-82037498D01*
X183481093Y-82073462D01*
X183471069Y-82075542D01*
X183471185Y-82076069D01*
X183465296Y-82077355D01*
X183337116Y-82122207D01*
X183227855Y-82202845D01*
X183227845Y-82202855D01*
X183158520Y-82296788D01*
X183108752Y-82332381D01*
X183078865Y-82337000D01*
X181253191Y-82337000D01*
X181208008Y-82349106D01*
X181162825Y-82361213D01*
X181162824Y-82361212D01*
X181138612Y-82367701D01*
X181138609Y-82367702D01*
X181035890Y-82427007D01*
X181035885Y-82427011D01*
X180792392Y-82670504D01*
X180737876Y-82698281D01*
X180722389Y-82699500D01*
X179795725Y-82699500D01*
X179765305Y-82702353D01*
X179765296Y-82702355D01*
X179637116Y-82747207D01*
X179527855Y-82827845D01*
X179527845Y-82827855D01*
X179447207Y-82937116D01*
X179402355Y-83065296D01*
X179402353Y-83065304D01*
X179400913Y-83080658D01*
X179376653Y-83136828D01*
X179324011Y-83168011D01*
X179263093Y-83162297D01*
X179220032Y-83126413D01*
X179177138Y-83062218D01*
X179037781Y-82922861D01*
X178902449Y-82832435D01*
X178873912Y-82813367D01*
X178691834Y-82737949D01*
X178498542Y-82699500D01*
X178498540Y-82699500D01*
X178301458Y-82699500D01*
X178301455Y-82699500D01*
X178108164Y-82737949D01*
X178108162Y-82737949D01*
X177926085Y-82813367D01*
X177762217Y-82922861D01*
X177762213Y-82922864D01*
X177622863Y-83062214D01*
X177622860Y-83062218D01*
X177513366Y-83226086D01*
X177437948Y-83408163D01*
X177437948Y-83408165D01*
X177399499Y-83601456D01*
X177399499Y-83798543D01*
X177425131Y-83927403D01*
X177435789Y-83980983D01*
X177437948Y-83991834D01*
X177437948Y-83991836D01*
X177513366Y-84173913D01*
X177542863Y-84218058D01*
X177622860Y-84337782D01*
X177762217Y-84477139D01*
X177926085Y-84586632D01*
X178108164Y-84662051D01*
X178301458Y-84700500D01*
X178301459Y-84700500D01*
X178498539Y-84700500D01*
X178498540Y-84700500D01*
X178691834Y-84662051D01*
X178873913Y-84586632D01*
X179037781Y-84477139D01*
X179177138Y-84337782D01*
X179220033Y-84273584D01*
X179268080Y-84235707D01*
X179329218Y-84233305D01*
X179380092Y-84267297D01*
X179400913Y-84319342D01*
X179402353Y-84334694D01*
X179402355Y-84334703D01*
X179447207Y-84462883D01*
X179527845Y-84572144D01*
X179527847Y-84572146D01*
X179527850Y-84572150D01*
X179527853Y-84572152D01*
X179527855Y-84572154D01*
X179637116Y-84652792D01*
X179637117Y-84652792D01*
X179637118Y-84652793D01*
X179765301Y-84697646D01*
X179795725Y-84700499D01*
X179795727Y-84700500D01*
X179795734Y-84700500D01*
X181004273Y-84700500D01*
X181004273Y-84700499D01*
X181034699Y-84697646D01*
X181162882Y-84652793D01*
X181272150Y-84572150D01*
X181352793Y-84462882D01*
X181397646Y-84334699D01*
X181400499Y-84304273D01*
X181400500Y-84304273D01*
X181400500Y-83377611D01*
X181402968Y-83370013D01*
X181401719Y-83362124D01*
X181412243Y-83341468D01*
X181419407Y-83319420D01*
X181429496Y-83307607D01*
X181470107Y-83266996D01*
X181524624Y-83239219D01*
X181540111Y-83238000D01*
X183078865Y-83238000D01*
X183137056Y-83256907D01*
X183158520Y-83278212D01*
X183227845Y-83372144D01*
X183227847Y-83372146D01*
X183227850Y-83372150D01*
X183227853Y-83372152D01*
X183227855Y-83372154D01*
X183337116Y-83452792D01*
X183337117Y-83452792D01*
X183337118Y-83452793D01*
X183465301Y-83497646D01*
X183495725Y-83500499D01*
X183495727Y-83500500D01*
X183495734Y-83500500D01*
X184504273Y-83500500D01*
X184504273Y-83500499D01*
X184534699Y-83497646D01*
X184662882Y-83452793D01*
X184772150Y-83372150D01*
X184852793Y-83262882D01*
X184897646Y-83134699D01*
X184900499Y-83104273D01*
X184900500Y-83104273D01*
X184900500Y-82470727D01*
X184900499Y-82470725D01*
X184898254Y-82446788D01*
X184897646Y-82440301D01*
X184852793Y-82312118D01*
X184823417Y-82272315D01*
X184772154Y-82202855D01*
X184772152Y-82202853D01*
X184772150Y-82202850D01*
X184772146Y-82202847D01*
X184772144Y-82202845D01*
X184662883Y-82122207D01*
X184534703Y-82077355D01*
X184534699Y-82077354D01*
X184534697Y-82077353D01*
X184528815Y-82076069D01*
X184529434Y-82073234D01*
X184483962Y-82053508D01*
X184452864Y-82000814D01*
X184450500Y-81979307D01*
X184450500Y-80627611D01*
X184469407Y-80569420D01*
X184479496Y-80557607D01*
X185348569Y-79688534D01*
X186260490Y-78776614D01*
X186264764Y-78769211D01*
X186310232Y-78728271D01*
X186371082Y-78721874D01*
X186424070Y-78752466D01*
X186448958Y-78808361D01*
X186449500Y-78818711D01*
X186449500Y-84672388D01*
X186430593Y-84730579D01*
X186420504Y-84742392D01*
X183916271Y-87246624D01*
X183871899Y-87272244D01*
X183866819Y-87273605D01*
X183866810Y-87273609D01*
X183752690Y-87339496D01*
X183659496Y-87432690D01*
X183593609Y-87546809D01*
X183593608Y-87546814D01*
X183559500Y-87674108D01*
X183559500Y-87805892D01*
X183593608Y-87933186D01*
X183596234Y-87937735D01*
X183609500Y-87987238D01*
X183609500Y-89579307D01*
X183590593Y-89637498D01*
X183541093Y-89673462D01*
X183531069Y-89675542D01*
X183531185Y-89676069D01*
X183525296Y-89677355D01*
X183397116Y-89722207D01*
X183287855Y-89802845D01*
X183287845Y-89802855D01*
X183207207Y-89912116D01*
X183162355Y-90040296D01*
X183162353Y-90040305D01*
X183159500Y-90070725D01*
X183159500Y-90704274D01*
X183162353Y-90734694D01*
X183162355Y-90734703D01*
X183207207Y-90862883D01*
X183287845Y-90972144D01*
X183287847Y-90972146D01*
X183287850Y-90972150D01*
X183287853Y-90972152D01*
X183287855Y-90972154D01*
X183397116Y-91052792D01*
X183397117Y-91052792D01*
X183397118Y-91052793D01*
X183525301Y-91097646D01*
X183555725Y-91100499D01*
X183555727Y-91100500D01*
X183555734Y-91100500D01*
X184564273Y-91100500D01*
X184564273Y-91100499D01*
X184594699Y-91097646D01*
X184722882Y-91052793D01*
X184832150Y-90972150D01*
X184912793Y-90862882D01*
X184957646Y-90734699D01*
X184960499Y-90704273D01*
X184960500Y-90704273D01*
X184960500Y-90070727D01*
X184960499Y-90070725D01*
X184957646Y-90040305D01*
X184957646Y-90040301D01*
X184912793Y-89912118D01*
X184832150Y-89802850D01*
X184832146Y-89802847D01*
X184832144Y-89802845D01*
X184722883Y-89722207D01*
X184594703Y-89677355D01*
X184594699Y-89677354D01*
X184594697Y-89677353D01*
X184588815Y-89676069D01*
X184589434Y-89673234D01*
X184543962Y-89653508D01*
X184512864Y-89600814D01*
X184510500Y-89579307D01*
X184510500Y-87987238D01*
X184518035Y-87949353D01*
X184520515Y-87943363D01*
X184526392Y-87933186D01*
X184529433Y-87921832D01*
X184531914Y-87915845D01*
X184540922Y-87905297D01*
X184553373Y-87883728D01*
X187260490Y-85176613D01*
X187319799Y-85073886D01*
X187350395Y-84959699D01*
X187350422Y-84959706D01*
X187350429Y-84959570D01*
X187350500Y-84959309D01*
X187350500Y-67140691D01*
X187319799Y-67026114D01*
X187319799Y-67026113D01*
X187319799Y-67026112D01*
X187260492Y-66923390D01*
X187260490Y-66923388D01*
X187260489Y-66923386D01*
X184676614Y-64339511D01*
X184676611Y-64339509D01*
X184676609Y-64339507D01*
X184573890Y-64280202D01*
X184573886Y-64280200D01*
X184549673Y-64273712D01*
X184549673Y-64273713D01*
X184459309Y-64249500D01*
X109140691Y-64249500D01*
X109095508Y-64261606D01*
X109050325Y-64273713D01*
X109050324Y-64273712D01*
X109026115Y-64280200D01*
X109026113Y-64280200D01*
X109026113Y-64280201D01*
X108937961Y-64331095D01*
X108923386Y-64339510D01*
X108294419Y-64968477D01*
X108239902Y-64996254D01*
X108179470Y-64986683D01*
X108136205Y-64943418D01*
X108126634Y-64882986D01*
X108127307Y-64879211D01*
X108150500Y-64762614D01*
X108150500Y-64555684D01*
X108110130Y-64352729D01*
X108030941Y-64161551D01*
X107915977Y-63989494D01*
X107769655Y-63843172D01*
X107736420Y-63820965D01*
X107698540Y-63772915D01*
X107696138Y-63711776D01*
X107730131Y-63660903D01*
X107787534Y-63639725D01*
X107791421Y-63639649D01*
X187268229Y-63639649D01*
X187326420Y-63658556D01*
G37*
%TD.AperFunction*%
%TA.AperFunction,Conductor*%
G36*
X136929618Y-74563716D02*
G01*
X136945704Y-74576741D01*
X141984381Y-79615418D01*
X142012158Y-79669935D01*
X142002587Y-79730367D01*
X142000114Y-79734921D01*
X141958609Y-79806810D01*
X141958608Y-79806814D01*
X141924500Y-79934108D01*
X141924500Y-80065892D01*
X141942570Y-80133329D01*
X141958609Y-80193190D01*
X142024496Y-80307309D01*
X142024498Y-80307311D01*
X142024500Y-80307314D01*
X142117686Y-80400500D01*
X142117688Y-80400501D01*
X142117690Y-80400503D01*
X142231810Y-80466390D01*
X142231808Y-80466390D01*
X142231812Y-80466391D01*
X142231814Y-80466392D01*
X142359108Y-80500500D01*
X142359110Y-80500500D01*
X142490890Y-80500500D01*
X142490892Y-80500500D01*
X142599879Y-80471297D01*
X142660978Y-80474500D01*
X142708528Y-80513005D01*
X142724500Y-80566924D01*
X142724500Y-82875435D01*
X142731845Y-82902845D01*
X142750090Y-82970939D01*
X142773864Y-83012116D01*
X142797842Y-83053647D01*
X142797845Y-83053652D01*
X142797844Y-83053652D01*
X142799523Y-83056559D01*
X142799524Y-83056560D01*
X142799526Y-83056563D01*
X143344505Y-83601542D01*
X143372281Y-83656057D01*
X143372549Y-83659471D01*
X143372653Y-83659458D01*
X143373499Y-83665889D01*
X143407609Y-83793190D01*
X143473496Y-83907309D01*
X143473498Y-83907311D01*
X143473500Y-83907314D01*
X143566686Y-84000500D01*
X143566688Y-84000501D01*
X143566690Y-84000503D01*
X143680810Y-84066390D01*
X143680808Y-84066390D01*
X143680812Y-84066391D01*
X143680814Y-84066392D01*
X143808108Y-84100500D01*
X143808110Y-84100500D01*
X143939890Y-84100500D01*
X143939892Y-84100500D01*
X144048879Y-84071297D01*
X144109978Y-84074500D01*
X144157528Y-84113005D01*
X144173500Y-84166924D01*
X144173500Y-88257583D01*
X144199090Y-88353086D01*
X144199091Y-88353088D01*
X144207162Y-88367067D01*
X144237283Y-88419238D01*
X144248526Y-88438711D01*
X144570505Y-88760690D01*
X144598281Y-88815205D01*
X144598549Y-88818619D01*
X144598653Y-88818606D01*
X144599499Y-88825037D01*
X144633609Y-88952338D01*
X144699496Y-89066457D01*
X144699498Y-89066459D01*
X144699500Y-89066462D01*
X144792686Y-89159648D01*
X144792688Y-89159649D01*
X144792690Y-89159651D01*
X144906810Y-89225538D01*
X144906808Y-89225538D01*
X144906812Y-89225539D01*
X144906814Y-89225540D01*
X145034108Y-89259648D01*
X145034110Y-89259648D01*
X145165890Y-89259648D01*
X145165892Y-89259648D01*
X145293186Y-89225540D01*
X145376001Y-89177726D01*
X145435847Y-89165005D01*
X145491743Y-89189891D01*
X145522336Y-89242879D01*
X145524500Y-89263463D01*
X145524500Y-93249437D01*
X145529689Y-93268801D01*
X145529689Y-93268803D01*
X145529690Y-93268803D01*
X145529690Y-93268804D01*
X145550090Y-93344938D01*
X145550091Y-93344941D01*
X145599525Y-93430563D01*
X145599526Y-93430563D01*
X145970504Y-93801541D01*
X145998281Y-93856058D01*
X145998549Y-93859471D01*
X145998653Y-93859458D01*
X145999499Y-93865889D01*
X146033609Y-93993190D01*
X146099496Y-94107309D01*
X146099498Y-94107311D01*
X146099500Y-94107314D01*
X146192686Y-94200500D01*
X146192688Y-94200501D01*
X146192690Y-94200503D01*
X146306810Y-94266390D01*
X146306808Y-94266390D01*
X146306812Y-94266391D01*
X146306814Y-94266392D01*
X146434108Y-94300500D01*
X146434110Y-94300500D01*
X146565890Y-94300500D01*
X146565892Y-94300500D01*
X146693186Y-94266392D01*
X146693188Y-94266390D01*
X146693190Y-94266390D01*
X146807309Y-94200503D01*
X146807309Y-94200502D01*
X146807314Y-94200500D01*
X146900500Y-94107314D01*
X146927208Y-94061053D01*
X146972677Y-94020112D01*
X147033528Y-94013716D01*
X147086516Y-94044309D01*
X147110042Y-94091238D01*
X147117946Y-94130974D01*
X147117949Y-94130984D01*
X147193367Y-94313061D01*
X147200049Y-94323061D01*
X147302861Y-94476930D01*
X147442218Y-94616287D01*
X147606086Y-94725780D01*
X147788165Y-94801199D01*
X147981459Y-94839648D01*
X147981460Y-94839648D01*
X148978540Y-94839648D01*
X148978541Y-94839648D01*
X149171835Y-94801199D01*
X149318169Y-94740585D01*
X149379164Y-94735785D01*
X149431333Y-94767755D01*
X149454748Y-94824283D01*
X149440464Y-94883777D01*
X149426057Y-94902053D01*
X148978459Y-95349652D01*
X148923942Y-95377430D01*
X148908455Y-95378649D01*
X147981456Y-95378649D01*
X147788165Y-95417098D01*
X147788163Y-95417098D01*
X147606086Y-95492516D01*
X147442218Y-95602010D01*
X147442214Y-95602013D01*
X147302864Y-95741363D01*
X147302861Y-95741367D01*
X147193367Y-95905235D01*
X147117949Y-96087312D01*
X147117949Y-96087314D01*
X147079500Y-96280605D01*
X147079500Y-96409454D01*
X147060593Y-96467645D01*
X147011093Y-96503609D01*
X146949907Y-96503609D01*
X146910496Y-96479458D01*
X143030563Y-92599526D01*
X143030563Y-92599525D01*
X142944941Y-92550091D01*
X142944937Y-92550089D01*
X142887064Y-92534582D01*
X142887063Y-92534582D01*
X142849438Y-92524500D01*
X142849436Y-92524500D01*
X142849435Y-92524500D01*
X141196545Y-92524500D01*
X141138354Y-92505593D01*
X141126541Y-92495504D01*
X140829496Y-92198459D01*
X140801719Y-92143942D01*
X140801450Y-92140528D01*
X140801347Y-92140542D01*
X140800500Y-92134110D01*
X140800500Y-92134109D01*
X140800500Y-92134108D01*
X140766392Y-92006814D01*
X140766390Y-92006811D01*
X140766390Y-92006809D01*
X140700503Y-91892690D01*
X140700501Y-91892688D01*
X140700500Y-91892686D01*
X140607314Y-91799500D01*
X140607311Y-91799498D01*
X140607309Y-91799496D01*
X140493189Y-91733609D01*
X140493191Y-91733609D01*
X140443799Y-91720375D01*
X140365892Y-91699500D01*
X140234108Y-91699500D01*
X140156200Y-91720375D01*
X140106809Y-91733609D01*
X139992690Y-91799496D01*
X139899496Y-91892690D01*
X139833609Y-92006809D01*
X139833608Y-92006814D01*
X139799500Y-92134108D01*
X139799500Y-92265892D01*
X139808511Y-92299521D01*
X139833609Y-92393190D01*
X139899496Y-92507309D01*
X139899498Y-92507311D01*
X139899500Y-92507314D01*
X139992686Y-92600500D01*
X139992688Y-92600501D01*
X139992690Y-92600503D01*
X140106810Y-92666390D01*
X140106808Y-92666390D01*
X140106812Y-92666391D01*
X140106814Y-92666392D01*
X140234108Y-92700500D01*
X140234110Y-92700500D01*
X140240542Y-92701347D01*
X140240153Y-92704300D01*
X140286646Y-92719407D01*
X140298459Y-92729496D01*
X140699525Y-93130562D01*
X140699524Y-93130562D01*
X140769438Y-93200475D01*
X140855058Y-93249908D01*
X140855062Y-93249910D01*
X140902730Y-93262683D01*
X140902731Y-93262683D01*
X140950564Y-93275500D01*
X140950565Y-93275500D01*
X142603455Y-93275500D01*
X142661646Y-93294407D01*
X142673458Y-93304495D01*
X147224586Y-97855624D01*
X147256781Y-97874211D01*
X147256782Y-97874213D01*
X147310209Y-97905058D01*
X147310211Y-97905059D01*
X147310212Y-97905059D01*
X147310214Y-97905060D01*
X147357961Y-97917854D01*
X147357962Y-97917854D01*
X147405713Y-97930649D01*
X147405714Y-97930649D01*
X147432182Y-97930649D01*
X147490373Y-97949556D01*
X147526337Y-97999056D01*
X147526337Y-98060242D01*
X147490373Y-98109742D01*
X147487194Y-98111956D01*
X147462214Y-98128648D01*
X147442218Y-98142009D01*
X147442214Y-98142012D01*
X147302864Y-98281362D01*
X147302861Y-98281366D01*
X147193367Y-98445234D01*
X147117949Y-98627311D01*
X147117949Y-98627313D01*
X147079500Y-98820604D01*
X147079500Y-99017691D01*
X147096415Y-99102726D01*
X147117558Y-99209019D01*
X147117949Y-99210982D01*
X147117949Y-99210984D01*
X147193367Y-99393061D01*
X147214049Y-99424014D01*
X147302861Y-99556930D01*
X147442218Y-99696287D01*
X147606086Y-99805780D01*
X147788165Y-99881199D01*
X147981459Y-99919648D01*
X147981460Y-99919648D01*
X148978540Y-99919648D01*
X148978541Y-99919648D01*
X149171835Y-99881199D01*
X149353914Y-99805780D01*
X149517782Y-99696287D01*
X149657139Y-99556930D01*
X149766632Y-99393062D01*
X149842051Y-99210983D01*
X149880500Y-99017689D01*
X149880500Y-98820607D01*
X149842051Y-98627313D01*
X149766632Y-98445234D01*
X149657139Y-98281366D01*
X149517782Y-98142009D01*
X149472815Y-98111963D01*
X149434937Y-98063914D01*
X149432535Y-98002776D01*
X149466528Y-97951902D01*
X149523932Y-97930725D01*
X149527818Y-97930649D01*
X152433435Y-97930649D01*
X152481185Y-97917854D01*
X152481186Y-97917854D01*
X152528933Y-97905060D01*
X152528932Y-97905060D01*
X152528937Y-97905059D01*
X152614561Y-97855624D01*
X152684474Y-97785711D01*
X154637094Y-95833090D01*
X154691609Y-95805315D01*
X154752041Y-95814886D01*
X154795306Y-95858151D01*
X154804877Y-95918583D01*
X154798560Y-95940981D01*
X154737949Y-96087311D01*
X154737949Y-96087313D01*
X154699500Y-96280604D01*
X154699500Y-96477691D01*
X154710723Y-96534109D01*
X154737558Y-96669019D01*
X154737949Y-96670982D01*
X154737949Y-96670984D01*
X154813367Y-96853061D01*
X154820049Y-96863061D01*
X154922861Y-97016930D01*
X154922864Y-97016933D01*
X154922868Y-97016938D01*
X155062219Y-97156288D01*
X155085697Y-97171976D01*
X155123576Y-97220026D01*
X155125978Y-97281165D01*
X155100699Y-97324295D01*
X142450343Y-109974653D01*
X142395826Y-110002430D01*
X142380339Y-110003649D01*
X129639428Y-110003649D01*
X129581237Y-109984742D01*
X129545273Y-109935242D01*
X129545273Y-109874056D01*
X129569424Y-109834645D01*
X129604569Y-109799500D01*
X129677139Y-109726930D01*
X129786632Y-109563062D01*
X129862051Y-109380983D01*
X129900500Y-109187689D01*
X129900500Y-108990607D01*
X129862051Y-108797313D01*
X129786632Y-108615234D01*
X129677139Y-108451366D01*
X129677135Y-108451362D01*
X129677134Y-108451360D01*
X129676382Y-108450443D01*
X129676184Y-108449938D01*
X129674437Y-108447323D01*
X129675011Y-108446939D01*
X129654089Y-108393463D01*
X129669546Y-108334262D01*
X129716848Y-108295453D01*
X129752918Y-108288648D01*
X139536288Y-108288648D01*
X139593913Y-108273207D01*
X139593914Y-108273207D01*
X139631786Y-108263059D01*
X139631785Y-108263059D01*
X139631790Y-108263058D01*
X139717414Y-108213623D01*
X139787327Y-108143710D01*
X139787326Y-108143710D01*
X140381390Y-107549646D01*
X142201542Y-105729496D01*
X142256059Y-105701719D01*
X142259471Y-105701450D01*
X142259458Y-105701347D01*
X142265889Y-105700500D01*
X142265892Y-105700500D01*
X142393186Y-105666392D01*
X142393188Y-105666390D01*
X142393190Y-105666390D01*
X142507309Y-105600503D01*
X142507309Y-105600502D01*
X142507314Y-105600500D01*
X142600500Y-105507314D01*
X142666392Y-105393186D01*
X142700500Y-105265892D01*
X142700500Y-105134108D01*
X142666392Y-105006814D01*
X142666390Y-105006811D01*
X142666390Y-105006809D01*
X142600503Y-104892690D01*
X142600501Y-104892688D01*
X142600500Y-104892686D01*
X142507314Y-104799500D01*
X142507311Y-104799498D01*
X142507309Y-104799496D01*
X142393189Y-104733609D01*
X142393191Y-104733609D01*
X142328934Y-104716392D01*
X142265892Y-104699500D01*
X142134108Y-104699500D01*
X142071066Y-104716392D01*
X142006809Y-104733609D01*
X141892690Y-104799496D01*
X141799496Y-104892690D01*
X141733609Y-105006809D01*
X141699499Y-105134110D01*
X141698653Y-105140542D01*
X141695698Y-105140153D01*
X141680593Y-105186645D01*
X141670504Y-105198458D01*
X139360311Y-107508652D01*
X139305794Y-107536429D01*
X139290307Y-107537648D01*
X129547816Y-107537648D01*
X129489625Y-107518741D01*
X129453661Y-107469241D01*
X129453661Y-107408055D01*
X129489625Y-107358555D01*
X129492781Y-107356355D01*
X129537782Y-107326287D01*
X129677139Y-107186930D01*
X129786632Y-107023062D01*
X129862051Y-106840983D01*
X129900500Y-106647689D01*
X129900500Y-106450607D01*
X129862051Y-106257313D01*
X129786632Y-106075234D01*
X129677139Y-105911366D01*
X129610277Y-105844504D01*
X129582500Y-105789987D01*
X129592071Y-105729555D01*
X129635336Y-105686290D01*
X129680281Y-105675500D01*
X129949435Y-105675500D01*
X129949436Y-105675500D01*
X130017306Y-105657314D01*
X130044938Y-105649910D01*
X130130562Y-105600475D01*
X130200475Y-105530562D01*
X132891036Y-102840001D01*
X136075001Y-102840001D01*
X136075001Y-103208064D01*
X136085614Y-103296443D01*
X136141081Y-103437095D01*
X136232436Y-103557564D01*
X136352905Y-103648919D01*
X136493557Y-103704386D01*
X136581936Y-103714999D01*
X136581943Y-103715000D01*
X136725000Y-103715000D01*
X136725001Y-103714999D01*
X136725001Y-102840001D01*
X137025001Y-102840001D01*
X137025001Y-103714999D01*
X137025002Y-103715000D01*
X137168059Y-103715000D01*
X137168065Y-103714999D01*
X137256444Y-103704386D01*
X137397096Y-103648919D01*
X137517565Y-103557564D01*
X137608920Y-103437095D01*
X137664387Y-103296443D01*
X137675000Y-103208064D01*
X137675001Y-103208058D01*
X137675001Y-102840001D01*
X137675000Y-102840000D01*
X137025002Y-102840000D01*
X137025001Y-102840001D01*
X136725001Y-102840001D01*
X136725000Y-102840000D01*
X136075002Y-102840000D01*
X136075001Y-102840001D01*
X132891036Y-102840001D01*
X133100474Y-102630563D01*
X133103043Y-102626114D01*
X133114187Y-102606813D01*
X133149908Y-102544941D01*
X133149910Y-102544937D01*
X133152946Y-102533609D01*
X133163911Y-102492686D01*
X133175500Y-102449436D01*
X133175500Y-102350564D01*
X133175500Y-102171935D01*
X136075001Y-102171935D01*
X136075001Y-102539999D01*
X136075002Y-102540000D01*
X136725000Y-102540000D01*
X136725001Y-102539999D01*
X136725001Y-101665001D01*
X137025001Y-101665001D01*
X137025001Y-102539999D01*
X137025002Y-102540000D01*
X137675000Y-102540000D01*
X137675001Y-102539999D01*
X137675001Y-102171941D01*
X137675000Y-102171935D01*
X137674795Y-102170223D01*
X137673654Y-102160725D01*
X138074499Y-102160725D01*
X138074499Y-103219274D01*
X138077352Y-103249694D01*
X138077354Y-103249703D01*
X138122206Y-103377883D01*
X138202844Y-103487144D01*
X138202846Y-103487146D01*
X138202849Y-103487150D01*
X138202852Y-103487152D01*
X138202854Y-103487154D01*
X138312115Y-103567792D01*
X138312116Y-103567792D01*
X138312117Y-103567793D01*
X138440300Y-103612646D01*
X138470724Y-103615499D01*
X138470726Y-103615500D01*
X138470733Y-103615500D01*
X139079272Y-103615500D01*
X139079272Y-103615499D01*
X139109698Y-103612646D01*
X139237881Y-103567793D01*
X139347149Y-103487150D01*
X139427792Y-103377882D01*
X139472645Y-103249699D01*
X139475498Y-103219273D01*
X139475499Y-103219273D01*
X139475499Y-102160727D01*
X139475498Y-102160725D01*
X139472645Y-102130301D01*
X139427792Y-102002118D01*
X139418592Y-101989653D01*
X139347153Y-101892855D01*
X139347151Y-101892853D01*
X139347149Y-101892850D01*
X139347145Y-101892847D01*
X139347143Y-101892845D01*
X139237884Y-101812208D01*
X139237880Y-101812206D01*
X139216800Y-101804830D01*
X139168120Y-101767764D01*
X139150499Y-101711386D01*
X139150499Y-100601546D01*
X139169406Y-100543355D01*
X139179495Y-100531542D01*
X141441541Y-98269496D01*
X141496058Y-98241719D01*
X141499471Y-98241450D01*
X141499458Y-98241347D01*
X141505889Y-98240500D01*
X141505892Y-98240500D01*
X141633186Y-98206392D01*
X141633188Y-98206390D01*
X141633190Y-98206390D01*
X141747309Y-98140503D01*
X141747309Y-98140502D01*
X141747314Y-98140500D01*
X141840500Y-98047314D01*
X141849044Y-98032515D01*
X141906390Y-97933190D01*
X141906390Y-97933188D01*
X141906392Y-97933186D01*
X141940500Y-97805892D01*
X141940500Y-97674108D01*
X141906392Y-97546814D01*
X141906390Y-97546811D01*
X141906390Y-97546809D01*
X141840503Y-97432690D01*
X141840501Y-97432688D01*
X141840500Y-97432686D01*
X141747314Y-97339500D01*
X141747311Y-97339498D01*
X141747309Y-97339496D01*
X141633189Y-97273609D01*
X141633191Y-97273609D01*
X141554961Y-97252648D01*
X141505892Y-97239500D01*
X141374108Y-97239500D01*
X141325039Y-97252648D01*
X141246809Y-97273609D01*
X141132690Y-97339496D01*
X141039496Y-97432690D01*
X140973609Y-97546809D01*
X140939499Y-97674110D01*
X140938653Y-97680542D01*
X140935699Y-97680153D01*
X140920593Y-97726646D01*
X140910504Y-97738459D01*
X138544437Y-100104526D01*
X138544436Y-100104525D01*
X138474523Y-100174439D01*
X138425088Y-100260062D01*
X138425088Y-100260063D01*
X138425089Y-100260064D01*
X138400260Y-100352727D01*
X138400258Y-100352734D01*
X138399499Y-100355562D01*
X138399499Y-101711386D01*
X138380592Y-101769577D01*
X138333198Y-101804830D01*
X138312117Y-101812206D01*
X138312113Y-101812208D01*
X138202854Y-101892845D01*
X138202844Y-101892855D01*
X138122206Y-102002116D01*
X138077354Y-102130296D01*
X138077352Y-102130305D01*
X138074499Y-102160725D01*
X137673654Y-102160725D01*
X137664387Y-102083556D01*
X137608920Y-101942904D01*
X137517565Y-101822435D01*
X137397096Y-101731080D01*
X137256444Y-101675613D01*
X137168065Y-101665000D01*
X137025002Y-101665000D01*
X137025001Y-101665001D01*
X136725001Y-101665001D01*
X136725000Y-101665000D01*
X136581936Y-101665000D01*
X136493557Y-101675613D01*
X136352905Y-101731080D01*
X136232436Y-101822435D01*
X136141081Y-101942904D01*
X136085614Y-102083556D01*
X136075001Y-102171935D01*
X133175500Y-102171935D01*
X133175500Y-87460001D01*
X136075001Y-87460001D01*
X136075001Y-87828064D01*
X136085614Y-87916443D01*
X136141081Y-88057095D01*
X136232436Y-88177564D01*
X136352905Y-88268919D01*
X136493557Y-88324386D01*
X136581936Y-88334999D01*
X136581943Y-88335000D01*
X136725000Y-88335000D01*
X136725001Y-88334999D01*
X136725001Y-87460001D01*
X136725000Y-87460000D01*
X136075002Y-87460000D01*
X136075001Y-87460001D01*
X133175500Y-87460001D01*
X133175500Y-86791935D01*
X136075001Y-86791935D01*
X136075001Y-87159999D01*
X136075002Y-87160000D01*
X136725000Y-87160000D01*
X136725001Y-87159999D01*
X136725001Y-86285001D01*
X136725000Y-86285000D01*
X136581936Y-86285000D01*
X136493557Y-86295613D01*
X136352905Y-86351080D01*
X136232436Y-86442435D01*
X136141081Y-86562904D01*
X136085614Y-86703556D01*
X136075001Y-86791935D01*
X133175500Y-86791935D01*
X133175500Y-84134108D01*
X136699500Y-84134108D01*
X136699500Y-84265892D01*
X136719479Y-84340456D01*
X136733609Y-84393190D01*
X136799496Y-84507309D01*
X136799498Y-84507311D01*
X136799500Y-84507314D01*
X136892686Y-84600500D01*
X136892688Y-84600501D01*
X136892690Y-84600503D01*
X137006810Y-84666390D01*
X137006808Y-84666390D01*
X137006812Y-84666391D01*
X137006814Y-84666392D01*
X137134108Y-84700500D01*
X137134110Y-84700500D01*
X137140542Y-84701347D01*
X137140153Y-84704300D01*
X137186646Y-84719407D01*
X137198459Y-84729496D01*
X137494503Y-85025540D01*
X137522280Y-85080057D01*
X137523499Y-85095544D01*
X137523499Y-86255465D01*
X137504592Y-86313656D01*
X137455092Y-86349620D01*
X137393906Y-86349620D01*
X137388181Y-86347563D01*
X137256445Y-86295614D01*
X137168065Y-86285000D01*
X137025002Y-86285000D01*
X137025001Y-86285001D01*
X137025001Y-88334999D01*
X137025002Y-88335000D01*
X137168059Y-88335000D01*
X137168065Y-88334999D01*
X137256444Y-88324386D01*
X137388180Y-88272436D01*
X137449250Y-88268678D01*
X137500866Y-88301533D01*
X137523312Y-88358453D01*
X137523499Y-88364534D01*
X137523499Y-95449563D01*
X137523499Y-95548435D01*
X137527417Y-95563058D01*
X137527418Y-95563062D01*
X137527417Y-95563062D01*
X137549088Y-95643936D01*
X137549090Y-95643940D01*
X137598524Y-95729562D01*
X137598525Y-95729562D01*
X138470504Y-96601541D01*
X138498281Y-96656058D01*
X138498549Y-96659471D01*
X138498653Y-96659458D01*
X138499499Y-96665889D01*
X138533609Y-96793190D01*
X138599496Y-96907309D01*
X138599498Y-96907311D01*
X138599500Y-96907314D01*
X138692686Y-97000500D01*
X138692688Y-97000501D01*
X138692690Y-97000503D01*
X138806810Y-97066390D01*
X138806808Y-97066390D01*
X138806812Y-97066391D01*
X138806814Y-97066392D01*
X138934108Y-97100500D01*
X138934110Y-97100500D01*
X139065890Y-97100500D01*
X139065892Y-97100500D01*
X139193186Y-97066392D01*
X139193188Y-97066390D01*
X139193190Y-97066390D01*
X139307309Y-97000503D01*
X139307309Y-97000502D01*
X139307314Y-97000500D01*
X139400500Y-96907314D01*
X139413952Y-96884014D01*
X139466390Y-96793190D01*
X139466390Y-96793188D01*
X139466392Y-96793186D01*
X139500500Y-96665892D01*
X139500500Y-96534108D01*
X139466392Y-96406814D01*
X139466390Y-96406811D01*
X139466390Y-96406809D01*
X139400503Y-96292690D01*
X139400501Y-96292688D01*
X139400500Y-96292686D01*
X139307314Y-96199500D01*
X139307311Y-96199498D01*
X139307309Y-96199496D01*
X139193189Y-96133609D01*
X139193191Y-96133609D01*
X139065889Y-96099499D01*
X139059458Y-96098653D01*
X139059846Y-96095699D01*
X139013354Y-96080593D01*
X139001541Y-96070504D01*
X138303495Y-95372458D01*
X138275718Y-95317941D01*
X138274499Y-95302454D01*
X138274499Y-88314157D01*
X138293406Y-88255966D01*
X138342906Y-88220002D01*
X138404092Y-88220002D01*
X138406197Y-88220713D01*
X138440300Y-88232646D01*
X138470724Y-88235499D01*
X138470726Y-88235500D01*
X138470733Y-88235500D01*
X139079272Y-88235500D01*
X139079272Y-88235499D01*
X139109698Y-88232646D01*
X139237881Y-88187793D01*
X139347149Y-88107150D01*
X139427792Y-87997882D01*
X139472645Y-87869699D01*
X139475498Y-87839273D01*
X139475499Y-87839273D01*
X139475499Y-87784500D01*
X139494406Y-87726309D01*
X139543906Y-87690345D01*
X139574499Y-87685500D01*
X142340178Y-87685500D01*
X142389678Y-87698764D01*
X142506810Y-87766390D01*
X142506808Y-87766390D01*
X142506812Y-87766391D01*
X142506814Y-87766392D01*
X142634108Y-87800500D01*
X142634110Y-87800500D01*
X142765890Y-87800500D01*
X142765892Y-87800500D01*
X142893186Y-87766392D01*
X142893188Y-87766390D01*
X142893190Y-87766390D01*
X143007309Y-87700503D01*
X143007309Y-87700502D01*
X143007314Y-87700500D01*
X143100500Y-87607314D01*
X143166392Y-87493186D01*
X143200500Y-87365892D01*
X143200500Y-87234108D01*
X143166392Y-87106814D01*
X143166390Y-87106811D01*
X143166390Y-87106809D01*
X143100503Y-86992690D01*
X143100501Y-86992688D01*
X143100500Y-86992686D01*
X143007314Y-86899500D01*
X143007311Y-86899498D01*
X143007309Y-86899496D01*
X142893189Y-86833609D01*
X142893191Y-86833609D01*
X142843799Y-86820375D01*
X142765892Y-86799500D01*
X142634108Y-86799500D01*
X142556200Y-86820375D01*
X142506809Y-86833609D01*
X142392690Y-86899496D01*
X142392689Y-86899497D01*
X142392686Y-86899499D01*
X142392686Y-86899500D01*
X142386680Y-86905505D01*
X142332166Y-86933281D01*
X142316679Y-86934500D01*
X139574499Y-86934500D01*
X139516308Y-86915593D01*
X139480344Y-86866093D01*
X139475499Y-86835500D01*
X139475499Y-86780727D01*
X139475498Y-86780725D01*
X139474154Y-86766392D01*
X139472645Y-86750301D01*
X139427792Y-86622118D01*
X139415798Y-86605867D01*
X139347153Y-86512855D01*
X139347151Y-86512853D01*
X139347149Y-86512850D01*
X139347145Y-86512847D01*
X139347143Y-86512845D01*
X139237882Y-86432207D01*
X139109702Y-86387355D01*
X139109693Y-86387353D01*
X139079273Y-86384500D01*
X139079265Y-86384500D01*
X138470733Y-86384500D01*
X138470724Y-86384500D01*
X138440304Y-86387353D01*
X138440297Y-86387354D01*
X138406195Y-86399287D01*
X138345025Y-86400659D01*
X138294731Y-86365814D01*
X138274524Y-86308062D01*
X138274499Y-86305842D01*
X138274499Y-84849563D01*
X138270385Y-84834212D01*
X138270384Y-84834209D01*
X138257570Y-84786386D01*
X138257570Y-84786384D01*
X138248911Y-84754066D01*
X138248908Y-84754060D01*
X138234726Y-84729496D01*
X138217986Y-84700500D01*
X138205947Y-84679647D01*
X138205945Y-84679645D01*
X138201952Y-84672729D01*
X138199474Y-84668436D01*
X137978133Y-84447095D01*
X137729496Y-84198457D01*
X137701719Y-84143941D01*
X137701450Y-84140528D01*
X137701347Y-84140542D01*
X137700500Y-84134110D01*
X137700500Y-84134109D01*
X137700500Y-84134108D01*
X137666392Y-84006814D01*
X137666390Y-84006811D01*
X137666390Y-84006809D01*
X137600503Y-83892690D01*
X137600501Y-83892688D01*
X137600500Y-83892686D01*
X137507314Y-83799500D01*
X137507311Y-83799498D01*
X137507309Y-83799496D01*
X137393189Y-83733609D01*
X137393191Y-83733609D01*
X137343799Y-83720375D01*
X137265892Y-83699500D01*
X137134108Y-83699500D01*
X137056200Y-83720375D01*
X137006809Y-83733609D01*
X136892690Y-83799496D01*
X136799496Y-83892690D01*
X136733609Y-84006809D01*
X136720900Y-84054241D01*
X136699500Y-84134108D01*
X133175500Y-84134108D01*
X133175500Y-82196545D01*
X133194407Y-82138354D01*
X133204496Y-82126541D01*
X133926541Y-81404496D01*
X133981058Y-81376719D01*
X133996545Y-81375500D01*
X141126679Y-81375500D01*
X141184870Y-81394407D01*
X141187476Y-81396633D01*
X141187540Y-81396551D01*
X141192690Y-81400503D01*
X141306810Y-81466390D01*
X141306808Y-81466390D01*
X141306812Y-81466391D01*
X141306814Y-81466392D01*
X141434108Y-81500500D01*
X141434110Y-81500500D01*
X141565890Y-81500500D01*
X141565892Y-81500500D01*
X141693186Y-81466392D01*
X141693188Y-81466390D01*
X141693190Y-81466390D01*
X141807309Y-81400503D01*
X141807309Y-81400502D01*
X141807314Y-81400500D01*
X141900500Y-81307314D01*
X141900503Y-81307309D01*
X141966390Y-81193190D01*
X141966390Y-81193188D01*
X141966392Y-81193186D01*
X142000500Y-81065892D01*
X142000500Y-80934108D01*
X141966392Y-80806814D01*
X141966390Y-80806811D01*
X141966390Y-80806809D01*
X141900503Y-80692690D01*
X141900501Y-80692688D01*
X141900500Y-80692686D01*
X141807314Y-80599500D01*
X141807311Y-80599498D01*
X141807309Y-80599496D01*
X141693189Y-80533609D01*
X141693191Y-80533609D01*
X141643799Y-80520375D01*
X141565892Y-80499500D01*
X141434108Y-80499500D01*
X141356200Y-80520375D01*
X141306809Y-80533609D01*
X141192690Y-80599496D01*
X141187540Y-80603449D01*
X141185726Y-80601086D01*
X141142166Y-80623281D01*
X141126679Y-80624500D01*
X133849436Y-80624500D01*
X133750564Y-80624500D01*
X133692113Y-80640161D01*
X133655058Y-80650090D01*
X133569442Y-80699521D01*
X132644504Y-81624459D01*
X132589987Y-81652236D01*
X132529555Y-81642665D01*
X132486290Y-81599400D01*
X132475500Y-81554455D01*
X132475500Y-79996544D01*
X132494407Y-79938353D01*
X132504490Y-79926546D01*
X136201540Y-76229495D01*
X136256057Y-76201719D01*
X136271544Y-76200500D01*
X136365890Y-76200500D01*
X136365892Y-76200500D01*
X136493186Y-76166392D01*
X136493188Y-76166390D01*
X136493190Y-76166390D01*
X136607309Y-76100503D01*
X136607309Y-76100502D01*
X136607314Y-76100500D01*
X136700500Y-76007314D01*
X136766392Y-75893186D01*
X136800500Y-75765892D01*
X136800500Y-75634108D01*
X136766392Y-75506814D01*
X136766390Y-75506810D01*
X136766390Y-75506809D01*
X136700503Y-75392690D01*
X136700501Y-75392688D01*
X136700500Y-75392686D01*
X136607314Y-75299500D01*
X136607311Y-75299498D01*
X136607309Y-75299496D01*
X136493189Y-75233609D01*
X136493191Y-75233609D01*
X136439593Y-75219248D01*
X136365892Y-75199500D01*
X136234108Y-75199500D01*
X136160407Y-75219248D01*
X136106809Y-75233609D01*
X135992690Y-75299496D01*
X135899496Y-75392690D01*
X135833609Y-75506810D01*
X135833608Y-75506812D01*
X135830026Y-75520180D01*
X135804404Y-75564557D01*
X131869438Y-79499525D01*
X131844504Y-79524459D01*
X131789987Y-79552236D01*
X131729555Y-79542665D01*
X131686290Y-79499400D01*
X131675500Y-79454455D01*
X131675500Y-74874500D01*
X131694407Y-74816309D01*
X131743907Y-74780345D01*
X131774500Y-74775500D01*
X135847679Y-74775500D01*
X135905870Y-74794407D01*
X135917676Y-74804490D01*
X135992686Y-74879500D01*
X135992688Y-74879501D01*
X135992690Y-74879503D01*
X136106810Y-74945390D01*
X136106808Y-74945390D01*
X136106812Y-74945391D01*
X136106814Y-74945392D01*
X136234108Y-74979500D01*
X136234110Y-74979500D01*
X136365890Y-74979500D01*
X136365892Y-74979500D01*
X136493186Y-74945392D01*
X136493188Y-74945390D01*
X136493190Y-74945390D01*
X136607309Y-74879503D01*
X136607309Y-74879502D01*
X136607314Y-74879500D01*
X136700500Y-74786314D01*
X136706744Y-74775500D01*
X136766390Y-74672189D01*
X136766391Y-74672188D01*
X136766392Y-74672186D01*
X136780074Y-74621121D01*
X136813396Y-74569809D01*
X136870517Y-74547881D01*
X136929618Y-74563716D01*
G37*
%TD.AperFunction*%
%TA.AperFunction,Conductor*%
G36*
X130883691Y-74794407D02*
G01*
X130919655Y-74843907D01*
X130924500Y-74874500D01*
X130924500Y-92111191D01*
X130905593Y-92169382D01*
X130856093Y-92205346D01*
X130794907Y-92205346D01*
X130745407Y-92169382D01*
X130739764Y-92160692D01*
X130700501Y-92092688D01*
X130700500Y-92092686D01*
X130607314Y-91999500D01*
X130607311Y-91999498D01*
X130607309Y-91999496D01*
X130493189Y-91933609D01*
X130493191Y-91933609D01*
X130439944Y-91919342D01*
X130365892Y-91899500D01*
X130234108Y-91899500D01*
X130160056Y-91919342D01*
X130106809Y-91933609D01*
X129992690Y-91999496D01*
X129899496Y-92092690D01*
X129851975Y-92175000D01*
X129836597Y-92188846D01*
X129824430Y-92205593D01*
X129814367Y-92208862D01*
X129806506Y-92215941D01*
X129766239Y-92224500D01*
X129638577Y-92224500D01*
X129580386Y-92205593D01*
X129544422Y-92156093D01*
X129544422Y-92094907D01*
X129568573Y-92055496D01*
X129617260Y-92006809D01*
X129677139Y-91946930D01*
X129786632Y-91783062D01*
X129862051Y-91600983D01*
X129900500Y-91407689D01*
X129900500Y-91210607D01*
X129862051Y-91017313D01*
X129786632Y-90835234D01*
X129677139Y-90671366D01*
X129537782Y-90532009D01*
X129395000Y-90436605D01*
X129373913Y-90422515D01*
X129191835Y-90347097D01*
X128998543Y-90308648D01*
X128998541Y-90308648D01*
X128801459Y-90308648D01*
X128801456Y-90308648D01*
X128608165Y-90347097D01*
X128608163Y-90347097D01*
X128426086Y-90422515D01*
X128262218Y-90532009D01*
X128262214Y-90532012D01*
X128122864Y-90671362D01*
X128122861Y-90671366D01*
X128013367Y-90835234D01*
X127937949Y-91017311D01*
X127937949Y-91017313D01*
X127899500Y-91210604D01*
X127899500Y-91407691D01*
X127937949Y-91600982D01*
X127937949Y-91600984D01*
X128013367Y-91783061D01*
X128024450Y-91799648D01*
X128122861Y-91946930D01*
X128122864Y-91946933D01*
X128231427Y-92055496D01*
X128259204Y-92110013D01*
X128249633Y-92170445D01*
X128206368Y-92213710D01*
X128161423Y-92224500D01*
X121149436Y-92224500D01*
X121050564Y-92224500D01*
X120992113Y-92240161D01*
X120955058Y-92250090D01*
X120869442Y-92299521D01*
X117298459Y-95870504D01*
X117243942Y-95898281D01*
X117240528Y-95898549D01*
X117240542Y-95898653D01*
X117234110Y-95899499D01*
X117106809Y-95933609D01*
X116992690Y-95999496D01*
X116899496Y-96092690D01*
X116833609Y-96206809D01*
X116831759Y-96213714D01*
X116799500Y-96334108D01*
X116799500Y-96465892D01*
X116817779Y-96534109D01*
X116833609Y-96593190D01*
X116899496Y-96707309D01*
X116899498Y-96707311D01*
X116899500Y-96707314D01*
X116992686Y-96800500D01*
X116992688Y-96800501D01*
X116992690Y-96800503D01*
X117106810Y-96866390D01*
X117106808Y-96866390D01*
X117106812Y-96866391D01*
X117106814Y-96866392D01*
X117234108Y-96900500D01*
X117234110Y-96900500D01*
X117365890Y-96900500D01*
X117365892Y-96900500D01*
X117493186Y-96866392D01*
X117493188Y-96866390D01*
X117493190Y-96866390D01*
X117607309Y-96800503D01*
X117607309Y-96800502D01*
X117607314Y-96800500D01*
X117700500Y-96707314D01*
X117721476Y-96670983D01*
X117766390Y-96593190D01*
X117766390Y-96593188D01*
X117766392Y-96593186D01*
X117800500Y-96465892D01*
X117800500Y-96465889D01*
X117801347Y-96459458D01*
X117804300Y-96459846D01*
X117819407Y-96413354D01*
X117829496Y-96401541D01*
X121226541Y-93004496D01*
X121281058Y-92976719D01*
X121296545Y-92975500D01*
X128119719Y-92975500D01*
X128141766Y-92982663D01*
X128164664Y-92986290D01*
X128170312Y-92991938D01*
X128177910Y-92994407D01*
X128191537Y-93013163D01*
X128207929Y-93029555D01*
X128209178Y-93037444D01*
X128213874Y-93043907D01*
X128213874Y-93067092D01*
X128217500Y-93089987D01*
X128213874Y-93097103D01*
X128213874Y-93105093D01*
X128189723Y-93144504D01*
X128122864Y-93211362D01*
X128122861Y-93211366D01*
X128013367Y-93375234D01*
X127937949Y-93557311D01*
X127937949Y-93557313D01*
X127899500Y-93750604D01*
X127899500Y-93947691D01*
X127937949Y-94140982D01*
X127937949Y-94140984D01*
X128013367Y-94323061D01*
X128045928Y-94371791D01*
X128122861Y-94486930D01*
X128262218Y-94626287D01*
X128307186Y-94656334D01*
X128345065Y-94704382D01*
X128347467Y-94765520D01*
X128313474Y-94816394D01*
X128256071Y-94837572D01*
X128252184Y-94837648D01*
X126673321Y-94837648D01*
X126615130Y-94818741D01*
X126612523Y-94816514D01*
X126612460Y-94816597D01*
X126607309Y-94812644D01*
X126493189Y-94746757D01*
X126493191Y-94746757D01*
X126443799Y-94733523D01*
X126365892Y-94712648D01*
X126234108Y-94712648D01*
X126156200Y-94733523D01*
X126106809Y-94746757D01*
X125992690Y-94812644D01*
X125899496Y-94905838D01*
X125833609Y-95019957D01*
X125833608Y-95019962D01*
X125799500Y-95147256D01*
X125799500Y-95279040D01*
X125814365Y-95334516D01*
X125833609Y-95406338D01*
X125899496Y-95520457D01*
X125899498Y-95520459D01*
X125899500Y-95520462D01*
X125992686Y-95613648D01*
X125992688Y-95613649D01*
X125992690Y-95613651D01*
X126106810Y-95679538D01*
X126106808Y-95679538D01*
X126106812Y-95679539D01*
X126106814Y-95679540D01*
X126234108Y-95713648D01*
X126234110Y-95713648D01*
X126365890Y-95713648D01*
X126365892Y-95713648D01*
X126493186Y-95679540D01*
X126493188Y-95679538D01*
X126493190Y-95679538D01*
X126607309Y-95613651D01*
X126607309Y-95613650D01*
X126607314Y-95613648D01*
X126607317Y-95613644D01*
X126612460Y-95609699D01*
X126614273Y-95612061D01*
X126657834Y-95589867D01*
X126673321Y-95588648D01*
X128047082Y-95588648D01*
X128105273Y-95607555D01*
X128141237Y-95657055D01*
X128141237Y-95718241D01*
X128125388Y-95747206D01*
X128125563Y-95747323D01*
X128124249Y-95749288D01*
X128123618Y-95750443D01*
X128122865Y-95751360D01*
X128013367Y-95915234D01*
X127937949Y-96097311D01*
X127937949Y-96097313D01*
X127899500Y-96290604D01*
X127899500Y-96487691D01*
X127909206Y-96536483D01*
X127927195Y-96626922D01*
X127937949Y-96680982D01*
X127937949Y-96680984D01*
X128013367Y-96863061D01*
X128042933Y-96907309D01*
X128122861Y-97026930D01*
X128262218Y-97166287D01*
X128307186Y-97196334D01*
X128345065Y-97244382D01*
X128347467Y-97305520D01*
X128313474Y-97356394D01*
X128256071Y-97377572D01*
X128252184Y-97377648D01*
X120973321Y-97377648D01*
X120915130Y-97358741D01*
X120912523Y-97356514D01*
X120912460Y-97356597D01*
X120907309Y-97352644D01*
X120793189Y-97286757D01*
X120793191Y-97286757D01*
X120743799Y-97273523D01*
X120665892Y-97252648D01*
X120534108Y-97252648D01*
X120456200Y-97273523D01*
X120406809Y-97286757D01*
X120292690Y-97352644D01*
X120199496Y-97445838D01*
X120133609Y-97559957D01*
X120133608Y-97559962D01*
X120099500Y-97687256D01*
X120099500Y-97819040D01*
X120116047Y-97880793D01*
X120133609Y-97946338D01*
X120199496Y-98060457D01*
X120199498Y-98060459D01*
X120199500Y-98060462D01*
X120292686Y-98153648D01*
X120292688Y-98153649D01*
X120292690Y-98153651D01*
X120406810Y-98219538D01*
X120406808Y-98219538D01*
X120406812Y-98219539D01*
X120406814Y-98219540D01*
X120534108Y-98253648D01*
X120534110Y-98253648D01*
X120665890Y-98253648D01*
X120665892Y-98253648D01*
X120793186Y-98219540D01*
X120793188Y-98219538D01*
X120793190Y-98219538D01*
X120907309Y-98153651D01*
X120907309Y-98153650D01*
X120907314Y-98153648D01*
X120907317Y-98153644D01*
X120912460Y-98149699D01*
X120914273Y-98152061D01*
X120957834Y-98129867D01*
X120973321Y-98128648D01*
X128047082Y-98128648D01*
X128105273Y-98147555D01*
X128141237Y-98197055D01*
X128141237Y-98258241D01*
X128125388Y-98287206D01*
X128125563Y-98287323D01*
X128124249Y-98289288D01*
X128123618Y-98290443D01*
X128122865Y-98291360D01*
X128013367Y-98455234D01*
X127937949Y-98637311D01*
X127937949Y-98637313D01*
X127899500Y-98830604D01*
X127899500Y-99027691D01*
X127916690Y-99114108D01*
X127936936Y-99215892D01*
X127937949Y-99220982D01*
X127937949Y-99220984D01*
X128013367Y-99403061D01*
X128045928Y-99451791D01*
X128122861Y-99566930D01*
X128262218Y-99706287D01*
X128307186Y-99736334D01*
X128345065Y-99784382D01*
X128347467Y-99845520D01*
X128313474Y-99896394D01*
X128256071Y-99917572D01*
X128252184Y-99917648D01*
X119389693Y-99917648D01*
X119331502Y-99898741D01*
X119319689Y-99888652D01*
X116631794Y-97200757D01*
X116604017Y-97146240D01*
X116602798Y-97130753D01*
X116602798Y-93300619D01*
X116621705Y-93242428D01*
X116623931Y-93239821D01*
X116623849Y-93239758D01*
X116627794Y-93234615D01*
X116627798Y-93234612D01*
X116641219Y-93211366D01*
X116693688Y-93120488D01*
X116693688Y-93120486D01*
X116693690Y-93120484D01*
X116727798Y-92993190D01*
X116727798Y-92861406D01*
X116693690Y-92734112D01*
X116693688Y-92734109D01*
X116693688Y-92734107D01*
X116627801Y-92619988D01*
X116627799Y-92619986D01*
X116627798Y-92619984D01*
X116534612Y-92526798D01*
X116530632Y-92524500D01*
X116436897Y-92470381D01*
X116395957Y-92424911D01*
X116389562Y-92364061D01*
X116416392Y-92314643D01*
X119557393Y-89173644D01*
X119611910Y-89145867D01*
X119627397Y-89144648D01*
X127906454Y-89144648D01*
X127964645Y-89163555D01*
X127997918Y-89205763D01*
X128013367Y-89243061D01*
X128027367Y-89264013D01*
X128122861Y-89406930D01*
X128262218Y-89546287D01*
X128426086Y-89655780D01*
X128608165Y-89731199D01*
X128801459Y-89769648D01*
X128801460Y-89769648D01*
X128998540Y-89769648D01*
X128998541Y-89769648D01*
X129191835Y-89731199D01*
X129373914Y-89655780D01*
X129537782Y-89546287D01*
X129677139Y-89406930D01*
X129786632Y-89243062D01*
X129862051Y-89060983D01*
X129900500Y-88867689D01*
X129900500Y-88670607D01*
X129862051Y-88477313D01*
X129786632Y-88295234D01*
X129677139Y-88131366D01*
X129537782Y-87992009D01*
X129423794Y-87915845D01*
X129373913Y-87882515D01*
X129191835Y-87807097D01*
X128998543Y-87768648D01*
X128998541Y-87768648D01*
X128801459Y-87768648D01*
X128801456Y-87768648D01*
X128608165Y-87807097D01*
X128608163Y-87807097D01*
X128426086Y-87882515D01*
X128262218Y-87992009D01*
X128262214Y-87992012D01*
X128122864Y-88131362D01*
X128122861Y-88131366D01*
X128013367Y-88295234D01*
X127997918Y-88332533D01*
X127958182Y-88379059D01*
X127906454Y-88393648D01*
X119480288Y-88393648D01*
X119381416Y-88393648D01*
X119355942Y-88400474D01*
X119355941Y-88400473D01*
X119285914Y-88419237D01*
X119285910Y-88419239D01*
X119200288Y-88468673D01*
X119200289Y-88468674D01*
X114969438Y-92699525D01*
X114969437Y-92699524D01*
X114899524Y-92769438D01*
X114850091Y-92855058D01*
X114850090Y-92855060D01*
X114843353Y-92880199D01*
X114843354Y-92880200D01*
X114824694Y-92949842D01*
X114824677Y-92949907D01*
X114824500Y-92950563D01*
X114824500Y-93569927D01*
X114805593Y-93628118D01*
X114756093Y-93664082D01*
X114694907Y-93664082D01*
X114645407Y-93628118D01*
X114628402Y-93589242D01*
X114627902Y-93586728D01*
X114622051Y-93557313D01*
X114546632Y-93375234D01*
X114437139Y-93211366D01*
X114297782Y-93072009D01*
X114244084Y-93036129D01*
X114231659Y-93020367D01*
X114216059Y-93007735D01*
X114213154Y-92996893D01*
X114206206Y-92988080D01*
X114205417Y-92968022D01*
X114200223Y-92948635D01*
X114204244Y-92938157D01*
X114203804Y-92926942D01*
X114214956Y-92910251D01*
X114222149Y-92891513D01*
X114231561Y-92885400D01*
X114237797Y-92876068D01*
X114273460Y-92858190D01*
X114312038Y-92847853D01*
X114312039Y-92847853D01*
X114359786Y-92835059D01*
X114359785Y-92835059D01*
X114359790Y-92835058D01*
X114445414Y-92785623D01*
X114515327Y-92715710D01*
X120597393Y-86633644D01*
X120651910Y-86605867D01*
X120667397Y-86604648D01*
X127906454Y-86604648D01*
X127964645Y-86623555D01*
X127997918Y-86665763D01*
X128013367Y-86703061D01*
X128044929Y-86750296D01*
X128122861Y-86866930D01*
X128262218Y-87006287D01*
X128426086Y-87115780D01*
X128608165Y-87191199D01*
X128801459Y-87229648D01*
X128801460Y-87229648D01*
X128998540Y-87229648D01*
X128998541Y-87229648D01*
X129191835Y-87191199D01*
X129373914Y-87115780D01*
X129537782Y-87006287D01*
X129677139Y-86866930D01*
X129786632Y-86703062D01*
X129862051Y-86520983D01*
X129900500Y-86327689D01*
X129900500Y-86130607D01*
X129862051Y-85937313D01*
X129786632Y-85755234D01*
X129677139Y-85591366D01*
X129537782Y-85452009D01*
X129373914Y-85342516D01*
X129373915Y-85342516D01*
X129373913Y-85342515D01*
X129191835Y-85267097D01*
X128998543Y-85228648D01*
X128998541Y-85228648D01*
X128801459Y-85228648D01*
X128801456Y-85228648D01*
X128608165Y-85267097D01*
X128608163Y-85267097D01*
X128426086Y-85342515D01*
X128262218Y-85452009D01*
X128262214Y-85452012D01*
X128122864Y-85591362D01*
X128122861Y-85591366D01*
X128013367Y-85755234D01*
X127997918Y-85792533D01*
X127958182Y-85839059D01*
X127906454Y-85853648D01*
X120520288Y-85853648D01*
X120421416Y-85853648D01*
X120373665Y-85866443D01*
X120373664Y-85866442D01*
X120325914Y-85879237D01*
X120325910Y-85879239D01*
X120240288Y-85928673D01*
X120240289Y-85928674D01*
X114829504Y-91339458D01*
X114774987Y-91367235D01*
X114714555Y-91357664D01*
X114671290Y-91314399D01*
X114660500Y-91269454D01*
X114660500Y-91210608D01*
X114660499Y-91210604D01*
X114658680Y-91201459D01*
X114622051Y-91017313D01*
X114546632Y-90835234D01*
X114437139Y-90671366D01*
X114297782Y-90532009D01*
X114226912Y-90484655D01*
X114214485Y-90468892D01*
X114198887Y-90456261D01*
X114195981Y-90445419D01*
X114189033Y-90436605D01*
X114188244Y-90416547D01*
X114183050Y-90397161D01*
X114187071Y-90386683D01*
X114186631Y-90375467D01*
X114197782Y-90358777D01*
X114204975Y-90340039D01*
X114214387Y-90333926D01*
X114220624Y-90324593D01*
X114256289Y-90306714D01*
X114283212Y-90299500D01*
X114299790Y-90295058D01*
X114385414Y-90245623D01*
X114455327Y-90175710D01*
X120537393Y-84093644D01*
X120591910Y-84065867D01*
X120607397Y-84064648D01*
X127906454Y-84064648D01*
X127964645Y-84083555D01*
X127997918Y-84125763D01*
X128013367Y-84163061D01*
X128045928Y-84211791D01*
X128122861Y-84326930D01*
X128262218Y-84466287D01*
X128426086Y-84575780D01*
X128608165Y-84651199D01*
X128801459Y-84689648D01*
X128801460Y-84689648D01*
X128998540Y-84689648D01*
X128998541Y-84689648D01*
X129191835Y-84651199D01*
X129373914Y-84575780D01*
X129537782Y-84466287D01*
X129677139Y-84326930D01*
X129786632Y-84163062D01*
X129862051Y-83980983D01*
X129900500Y-83787689D01*
X129900500Y-83590607D01*
X129862051Y-83397313D01*
X129786632Y-83215234D01*
X129677139Y-83051366D01*
X129537782Y-82912009D01*
X129403384Y-82822207D01*
X129373913Y-82802515D01*
X129191835Y-82727097D01*
X128998543Y-82688648D01*
X128998541Y-82688648D01*
X128801459Y-82688648D01*
X128801456Y-82688648D01*
X128608165Y-82727097D01*
X128608163Y-82727097D01*
X128426086Y-82802515D01*
X128262218Y-82912009D01*
X128262214Y-82912012D01*
X128122864Y-83051362D01*
X128122861Y-83051366D01*
X128013367Y-83215234D01*
X127997918Y-83252533D01*
X127958182Y-83299059D01*
X127906454Y-83313648D01*
X120460288Y-83313648D01*
X120361416Y-83313648D01*
X120320917Y-83324500D01*
X120320916Y-83324499D01*
X120265914Y-83339237D01*
X120265910Y-83339239D01*
X120180291Y-83388672D01*
X120180288Y-83388673D01*
X120180289Y-83388674D01*
X114829504Y-88739458D01*
X114774987Y-88767235D01*
X114714555Y-88757664D01*
X114671290Y-88714399D01*
X114661915Y-88675350D01*
X114660976Y-88675443D01*
X114660500Y-88670614D01*
X114660500Y-88670607D01*
X114622051Y-88477313D01*
X114546632Y-88295234D01*
X114437139Y-88131366D01*
X114297782Y-87992009D01*
X114252813Y-87961961D01*
X114214935Y-87913914D01*
X114212533Y-87852776D01*
X114246526Y-87801902D01*
X114292852Y-87781785D01*
X114300287Y-87780648D01*
X114344288Y-87780648D01*
X114397491Y-87766392D01*
X114439790Y-87755058D01*
X114525414Y-87705623D01*
X114595327Y-87635710D01*
X120677393Y-81553644D01*
X120731910Y-81525867D01*
X120747397Y-81524648D01*
X127906454Y-81524648D01*
X127964645Y-81543555D01*
X127997918Y-81585763D01*
X128013367Y-81623061D01*
X128045928Y-81671791D01*
X128122861Y-81786930D01*
X128262218Y-81926287D01*
X128426086Y-82035780D01*
X128608165Y-82111199D01*
X128801459Y-82149648D01*
X128801460Y-82149648D01*
X128998540Y-82149648D01*
X128998541Y-82149648D01*
X129191835Y-82111199D01*
X129373914Y-82035780D01*
X129537782Y-81926287D01*
X129677139Y-81786930D01*
X129786632Y-81623062D01*
X129862051Y-81440983D01*
X129900500Y-81247689D01*
X129900500Y-81050607D01*
X129862051Y-80857313D01*
X129786632Y-80675234D01*
X129677139Y-80511366D01*
X129537782Y-80372009D01*
X129373914Y-80262516D01*
X129373915Y-80262516D01*
X129373913Y-80262515D01*
X129191835Y-80187097D01*
X128998543Y-80148648D01*
X128998541Y-80148648D01*
X128801459Y-80148648D01*
X128801456Y-80148648D01*
X128608165Y-80187097D01*
X128608163Y-80187097D01*
X128426086Y-80262515D01*
X128262218Y-80372009D01*
X128262214Y-80372012D01*
X128122864Y-80511362D01*
X128122861Y-80511366D01*
X128013367Y-80675234D01*
X127997918Y-80712533D01*
X127958182Y-80759059D01*
X127906454Y-80773648D01*
X120600288Y-80773648D01*
X120501416Y-80773648D01*
X120453665Y-80786443D01*
X120453664Y-80786442D01*
X120405914Y-80799237D01*
X120405910Y-80799239D01*
X120320288Y-80848673D01*
X120320289Y-80848674D01*
X114829504Y-86339458D01*
X114774987Y-86367235D01*
X114714555Y-86357664D01*
X114671290Y-86314399D01*
X114660500Y-86269454D01*
X114660500Y-86130608D01*
X114660499Y-86130604D01*
X114658510Y-86120607D01*
X114622051Y-85937313D01*
X114606599Y-85900010D01*
X114601799Y-85839017D01*
X114628058Y-85792125D01*
X115890689Y-84529496D01*
X115945206Y-84501719D01*
X115960693Y-84500500D01*
X115965890Y-84500500D01*
X115965892Y-84500500D01*
X116093186Y-84466392D01*
X116093188Y-84466390D01*
X116093190Y-84466390D01*
X116207309Y-84400503D01*
X116207309Y-84400502D01*
X116207314Y-84400500D01*
X116300500Y-84307314D01*
X116316444Y-84279699D01*
X116366390Y-84193190D01*
X116366390Y-84193188D01*
X116366392Y-84193186D01*
X116400500Y-84065892D01*
X116400500Y-83934108D01*
X116366392Y-83806814D01*
X116366390Y-83806811D01*
X116366390Y-83806809D01*
X116300503Y-83692690D01*
X116300501Y-83692688D01*
X116300500Y-83692686D01*
X116207314Y-83599500D01*
X116207311Y-83599498D01*
X116207309Y-83599496D01*
X116093189Y-83533609D01*
X116093191Y-83533609D01*
X116043799Y-83520375D01*
X115965892Y-83499500D01*
X115834108Y-83499500D01*
X115756200Y-83520375D01*
X115706809Y-83533609D01*
X115592690Y-83599496D01*
X115499496Y-83692690D01*
X115433609Y-83806809D01*
X115433608Y-83806814D01*
X115406680Y-83907314D01*
X115397821Y-83940376D01*
X115395106Y-83939648D01*
X115373791Y-83984272D01*
X115372022Y-83986088D01*
X114097023Y-85261086D01*
X114042506Y-85288863D01*
X113989135Y-85282547D01*
X113951833Y-85267096D01*
X113758543Y-85228648D01*
X113758541Y-85228648D01*
X113561459Y-85228648D01*
X113561456Y-85228648D01*
X113368165Y-85267097D01*
X113368163Y-85267097D01*
X113186086Y-85342515D01*
X113022218Y-85452009D01*
X113022214Y-85452012D01*
X112882864Y-85591362D01*
X112882861Y-85591366D01*
X112773371Y-85755226D01*
X112773367Y-85755235D01*
X112733634Y-85851158D01*
X112732760Y-85852180D01*
X112732620Y-85853519D01*
X112712978Y-85875342D01*
X112693897Y-85897684D01*
X112691689Y-85898997D01*
X112690839Y-85899488D01*
X112690830Y-85899493D01*
X112690819Y-85899500D01*
X112640289Y-85928673D01*
X109844504Y-88724459D01*
X109789987Y-88752236D01*
X109729555Y-88742665D01*
X109686290Y-88699400D01*
X109675500Y-88654455D01*
X109675500Y-88296544D01*
X109694407Y-88238353D01*
X109704490Y-88226546D01*
X113258935Y-84672100D01*
X113313450Y-84644325D01*
X113363379Y-84650233D01*
X113363515Y-84649787D01*
X113366012Y-84650544D01*
X113366817Y-84650639D01*
X113368165Y-84651198D01*
X113561459Y-84689647D01*
X113561460Y-84689647D01*
X113758540Y-84689647D01*
X113758541Y-84689647D01*
X113951835Y-84651198D01*
X114133914Y-84575779D01*
X114297782Y-84466286D01*
X114437139Y-84326929D01*
X114546632Y-84163061D01*
X114622051Y-83980982D01*
X114660500Y-83787688D01*
X114660500Y-83590606D01*
X114622051Y-83397312D01*
X114546632Y-83215233D01*
X114437139Y-83051365D01*
X114297782Y-82912008D01*
X114188288Y-82838846D01*
X114133913Y-82802514D01*
X113951835Y-82727096D01*
X113758543Y-82688647D01*
X113758541Y-82688647D01*
X113561459Y-82688647D01*
X113561456Y-82688647D01*
X113368165Y-82727096D01*
X113368163Y-82727096D01*
X113186086Y-82802514D01*
X113022218Y-82912008D01*
X113022214Y-82912011D01*
X112882864Y-83051361D01*
X112882861Y-83051365D01*
X112773367Y-83215233D01*
X112697949Y-83397310D01*
X112697949Y-83397312D01*
X112659500Y-83590603D01*
X112659500Y-83787690D01*
X112697948Y-83980980D01*
X112728293Y-84054241D01*
X112733092Y-84115238D01*
X112706832Y-84162129D01*
X109069438Y-87799525D01*
X109060503Y-87808460D01*
X109005986Y-87836237D01*
X108945554Y-87826666D01*
X108902289Y-87783401D01*
X108891499Y-87738456D01*
X108891499Y-86489693D01*
X108910406Y-86431502D01*
X108920489Y-86419695D01*
X113222977Y-82117206D01*
X113277492Y-82089431D01*
X113330862Y-82095747D01*
X113368165Y-82111199D01*
X113561459Y-82149648D01*
X113561460Y-82149648D01*
X113758540Y-82149648D01*
X113758541Y-82149648D01*
X113951835Y-82111199D01*
X114133914Y-82035780D01*
X114297782Y-81926287D01*
X114437139Y-81786930D01*
X114546632Y-81623062D01*
X114622051Y-81440983D01*
X114660500Y-81247689D01*
X114660500Y-81050607D01*
X114622051Y-80857313D01*
X114546632Y-80675234D01*
X114437139Y-80511366D01*
X114417198Y-80491425D01*
X114412398Y-80482005D01*
X114404185Y-80475357D01*
X114398822Y-80455359D01*
X114389421Y-80436908D01*
X114391074Y-80426467D01*
X114388337Y-80416260D01*
X114395752Y-80396929D01*
X114398992Y-80376476D01*
X114406466Y-80369001D01*
X114410252Y-80359134D01*
X114427605Y-80347862D01*
X114442257Y-80333211D01*
X114461559Y-80325800D01*
X114461572Y-80325795D01*
X114466389Y-80324505D01*
X114466390Y-80324505D01*
X114466413Y-80324499D01*
X114466415Y-80324497D01*
X114471790Y-80323058D01*
X114557414Y-80273623D01*
X114627327Y-80203710D01*
X116081036Y-78750001D01*
X119530001Y-78750001D01*
X119530001Y-79118064D01*
X119540614Y-79206443D01*
X119596081Y-79347095D01*
X119687436Y-79467564D01*
X119807905Y-79558919D01*
X119948557Y-79614386D01*
X120036936Y-79624999D01*
X120036943Y-79625000D01*
X120180000Y-79625000D01*
X120180001Y-79624999D01*
X120180001Y-78750001D01*
X120480001Y-78750001D01*
X120480001Y-79624999D01*
X120480002Y-79625000D01*
X120623059Y-79625000D01*
X120623065Y-79624999D01*
X120711444Y-79614386D01*
X120852096Y-79558919D01*
X120972565Y-79467564D01*
X121063920Y-79347095D01*
X121119387Y-79206443D01*
X121130000Y-79118064D01*
X121130001Y-79118058D01*
X121130001Y-78750001D01*
X121130000Y-78750000D01*
X120480002Y-78750000D01*
X120480001Y-78750001D01*
X120180001Y-78750001D01*
X120180000Y-78750000D01*
X119530002Y-78750000D01*
X119530001Y-78750001D01*
X116081036Y-78750001D01*
X116749102Y-78081935D01*
X119530001Y-78081935D01*
X119530001Y-78449999D01*
X119530002Y-78450000D01*
X120180000Y-78450000D01*
X120180001Y-78449999D01*
X120180001Y-77575001D01*
X120480001Y-77575001D01*
X120480001Y-78449999D01*
X120480002Y-78450000D01*
X121130000Y-78450000D01*
X121130001Y-78449999D01*
X121130001Y-78081941D01*
X121130000Y-78081935D01*
X121129795Y-78080223D01*
X121128654Y-78070725D01*
X121529499Y-78070725D01*
X121529499Y-79129274D01*
X121532352Y-79159694D01*
X121532354Y-79159703D01*
X121577206Y-79287883D01*
X121657844Y-79397144D01*
X121657846Y-79397146D01*
X121657849Y-79397150D01*
X121657852Y-79397152D01*
X121657854Y-79397154D01*
X121767115Y-79477792D01*
X121767116Y-79477792D01*
X121767117Y-79477793D01*
X121895300Y-79522646D01*
X121925724Y-79525499D01*
X121925726Y-79525500D01*
X121925733Y-79525500D01*
X122534272Y-79525500D01*
X122534272Y-79525499D01*
X122564698Y-79522646D01*
X122692881Y-79477793D01*
X122802149Y-79397150D01*
X122882792Y-79287882D01*
X122927645Y-79159699D01*
X122930498Y-79129273D01*
X122930499Y-79129273D01*
X122930499Y-79074500D01*
X122949406Y-79016309D01*
X122998906Y-78980345D01*
X123029499Y-78975500D01*
X127902665Y-78975500D01*
X127960856Y-78994407D01*
X127994129Y-79036615D01*
X128013367Y-79083061D01*
X128039532Y-79122219D01*
X128122861Y-79246930D01*
X128262218Y-79386287D01*
X128426086Y-79495780D01*
X128608165Y-79571199D01*
X128801459Y-79609648D01*
X128801460Y-79609648D01*
X128998540Y-79609648D01*
X128998541Y-79609648D01*
X129191835Y-79571199D01*
X129373914Y-79495780D01*
X129537782Y-79386287D01*
X129677139Y-79246930D01*
X129786632Y-79083062D01*
X129862051Y-78900983D01*
X129900500Y-78707689D01*
X129900500Y-78510607D01*
X129862051Y-78317313D01*
X129786632Y-78135234D01*
X129677139Y-77971366D01*
X129537782Y-77832009D01*
X129428288Y-77758847D01*
X129373913Y-77722515D01*
X129191835Y-77647097D01*
X128998543Y-77608648D01*
X128998541Y-77608648D01*
X128801459Y-77608648D01*
X128801456Y-77608648D01*
X128608165Y-77647097D01*
X128608163Y-77647097D01*
X128426086Y-77722515D01*
X128262218Y-77832009D01*
X128262214Y-77832012D01*
X128122864Y-77971362D01*
X128122861Y-77971366D01*
X128013368Y-78135233D01*
X128001707Y-78163386D01*
X127961970Y-78209911D01*
X127910243Y-78224500D01*
X123029499Y-78224500D01*
X122971308Y-78205593D01*
X122935344Y-78156093D01*
X122930499Y-78125500D01*
X122930499Y-78070727D01*
X122930498Y-78070725D01*
X122927645Y-78040301D01*
X122882792Y-77912118D01*
X122871116Y-77896298D01*
X122802153Y-77802855D01*
X122802151Y-77802853D01*
X122802149Y-77802850D01*
X122802145Y-77802847D01*
X122802143Y-77802845D01*
X122692882Y-77722207D01*
X122564702Y-77677355D01*
X122564693Y-77677353D01*
X122534273Y-77674500D01*
X122534265Y-77674500D01*
X121925733Y-77674500D01*
X121925724Y-77674500D01*
X121895304Y-77677353D01*
X121895295Y-77677355D01*
X121767115Y-77722207D01*
X121657854Y-77802845D01*
X121657844Y-77802855D01*
X121577206Y-77912116D01*
X121532354Y-78040296D01*
X121532352Y-78040305D01*
X121529499Y-78070725D01*
X121128654Y-78070725D01*
X121119387Y-77993556D01*
X121063920Y-77852904D01*
X120972565Y-77732435D01*
X120852096Y-77641080D01*
X120711444Y-77585613D01*
X120623065Y-77575000D01*
X120480002Y-77575000D01*
X120480001Y-77575001D01*
X120180001Y-77575001D01*
X120180000Y-77575000D01*
X120036936Y-77575000D01*
X119948557Y-77585613D01*
X119807905Y-77641080D01*
X119687436Y-77732435D01*
X119596081Y-77852904D01*
X119540614Y-77993556D01*
X119530001Y-78081935D01*
X116749102Y-78081935D01*
X120026541Y-74804496D01*
X120081058Y-74776719D01*
X120096545Y-74775500D01*
X130825500Y-74775500D01*
X130883691Y-74794407D01*
G37*
%TD.AperFunction*%
%TA.AperFunction,Conductor*%
G36*
X148630000Y-79699147D02*
G01*
X148630001Y-79699148D01*
X149473058Y-79699148D01*
X149473064Y-79699147D01*
X149561443Y-79688534D01*
X149702095Y-79633067D01*
X149822564Y-79541712D01*
X149846616Y-79509996D01*
X149896843Y-79475054D01*
X149958015Y-79476308D01*
X150006768Y-79513278D01*
X150024500Y-79569816D01*
X150024500Y-80790077D01*
X150005593Y-80848268D01*
X149956093Y-80884232D01*
X149894907Y-80884232D01*
X149845407Y-80848268D01*
X149834036Y-80827962D01*
X149783557Y-80706096D01*
X149766632Y-80665234D01*
X149657139Y-80501366D01*
X149517782Y-80362009D01*
X149353914Y-80252516D01*
X149353915Y-80252516D01*
X149353913Y-80252515D01*
X149171835Y-80177097D01*
X148978543Y-80138648D01*
X148978541Y-80138648D01*
X147981459Y-80138648D01*
X147981456Y-80138648D01*
X147788165Y-80177097D01*
X147788163Y-80177097D01*
X147606086Y-80252515D01*
X147442218Y-80362009D01*
X147442214Y-80362012D01*
X147302864Y-80501362D01*
X147302861Y-80501366D01*
X147193368Y-80665233D01*
X147165964Y-80731393D01*
X147126227Y-80777918D01*
X147066733Y-80792202D01*
X147010205Y-80768787D01*
X146978235Y-80716618D01*
X146975500Y-80693507D01*
X146975500Y-79618233D01*
X146994407Y-79560042D01*
X147043907Y-79524078D01*
X147105093Y-79524078D01*
X147134320Y-79539350D01*
X147257902Y-79633066D01*
X147398556Y-79688534D01*
X147486935Y-79699147D01*
X147486942Y-79699148D01*
X148329999Y-79699148D01*
X148330000Y-79699147D01*
X148330000Y-78973066D01*
X148427339Y-78999148D01*
X148532661Y-78999148D01*
X148630000Y-78973066D01*
X148630000Y-79699147D01*
G37*
%TD.AperFunction*%
%TA.AperFunction,Conductor*%
G36*
X143551191Y-69798407D02*
G01*
X143587155Y-69847907D01*
X143592000Y-69878500D01*
X143592000Y-71099746D01*
X143592001Y-71099758D01*
X143603632Y-71158227D01*
X143603634Y-71158233D01*
X143647945Y-71224548D01*
X143647948Y-71224552D01*
X143714269Y-71268867D01*
X143758731Y-71277711D01*
X143772741Y-71280498D01*
X143772746Y-71280498D01*
X143772752Y-71280500D01*
X143772753Y-71280500D01*
X144709826Y-71280500D01*
X144768017Y-71299407D01*
X144803981Y-71348907D01*
X144803981Y-71410093D01*
X144801291Y-71417383D01*
X144799008Y-71422893D01*
X144799008Y-71422895D01*
X144762500Y-71606430D01*
X144762500Y-71793569D01*
X144799008Y-71977104D01*
X144799008Y-71977106D01*
X144817539Y-72021844D01*
X144822339Y-72082841D01*
X144790370Y-72135010D01*
X144733841Y-72158424D01*
X144695607Y-72152367D01*
X144695235Y-72153596D01*
X144690579Y-72152183D01*
X144526269Y-72119500D01*
X144526267Y-72119500D01*
X144358733Y-72119500D01*
X144358730Y-72119500D01*
X144194420Y-72152183D01*
X144194414Y-72152185D01*
X144039637Y-72216296D01*
X143900338Y-72309374D01*
X143900334Y-72309377D01*
X143781877Y-72427834D01*
X143781874Y-72427838D01*
X143688796Y-72567137D01*
X143624685Y-72721914D01*
X143624683Y-72721920D01*
X143592000Y-72886230D01*
X143592000Y-73053769D01*
X143624683Y-73218079D01*
X143624684Y-73218082D01*
X143688796Y-73372862D01*
X143688797Y-73372863D01*
X143781874Y-73512162D01*
X143900338Y-73630626D01*
X144039637Y-73723703D01*
X144194418Y-73787816D01*
X144358733Y-73820500D01*
X144358734Y-73820500D01*
X144526266Y-73820500D01*
X144526267Y-73820500D01*
X144690582Y-73787816D01*
X144845363Y-73723703D01*
X144984662Y-73630626D01*
X145103126Y-73512162D01*
X145196203Y-73372863D01*
X145260316Y-73218082D01*
X145293000Y-73053767D01*
X145293000Y-72886233D01*
X145260316Y-72721918D01*
X145260313Y-72721912D01*
X145258904Y-72717265D01*
X145260714Y-72716715D01*
X145256498Y-72663342D01*
X145288452Y-72611163D01*
X145344973Y-72587732D01*
X145390656Y-72594960D01*
X145435396Y-72613492D01*
X145618930Y-72649999D01*
X145618934Y-72650000D01*
X145806066Y-72650000D01*
X145806069Y-72649999D01*
X145989604Y-72613491D01*
X145989606Y-72613491D01*
X146162489Y-72541881D01*
X146162501Y-72541875D01*
X146270247Y-72469880D01*
X145851382Y-72051014D01*
X145857245Y-72049444D01*
X145942755Y-72000075D01*
X146012575Y-71930255D01*
X146061944Y-71844745D01*
X146063515Y-71838882D01*
X146482380Y-72257747D01*
X146554375Y-72150001D01*
X146554381Y-72149989D01*
X146625991Y-71977106D01*
X146625991Y-71977104D01*
X146662499Y-71793569D01*
X146662500Y-71793565D01*
X146662500Y-71606434D01*
X146662499Y-71606430D01*
X146625991Y-71422895D01*
X146625991Y-71422893D01*
X146554380Y-71250008D01*
X146482380Y-71142251D01*
X146063514Y-71561116D01*
X146061944Y-71555255D01*
X146012575Y-71469745D01*
X145942755Y-71399925D01*
X145857245Y-71350556D01*
X145851381Y-71348984D01*
X146270247Y-70930118D01*
X146162491Y-70858119D01*
X145989605Y-70786508D01*
X145806069Y-70750000D01*
X145618930Y-70750000D01*
X145435395Y-70786508D01*
X145435393Y-70786508D01*
X145429883Y-70788791D01*
X145368886Y-70793590D01*
X145316718Y-70761619D01*
X145293305Y-70705090D01*
X145293000Y-70697326D01*
X145293000Y-69878500D01*
X145311907Y-69820309D01*
X145361407Y-69784345D01*
X145392000Y-69779500D01*
X149107455Y-69779500D01*
X149165646Y-69798407D01*
X149177459Y-69808496D01*
X149995504Y-70626541D01*
X150023281Y-70681058D01*
X150024500Y-70696545D01*
X150024500Y-77628479D01*
X150005593Y-77686670D01*
X149956093Y-77722634D01*
X149894907Y-77722634D01*
X149846617Y-77688300D01*
X149822566Y-77656585D01*
X149822564Y-77656583D01*
X149702095Y-77565228D01*
X149561443Y-77509761D01*
X149473064Y-77499148D01*
X148630001Y-77499148D01*
X148630000Y-77499149D01*
X148630000Y-78225229D01*
X148532661Y-78199148D01*
X148427339Y-78199148D01*
X148330000Y-78225229D01*
X148330000Y-77499149D01*
X148329999Y-77499148D01*
X147486935Y-77499148D01*
X147398556Y-77509761D01*
X147257904Y-77565228D01*
X147137435Y-77656583D01*
X147046080Y-77777052D01*
X146990613Y-77917704D01*
X146980000Y-78006083D01*
X146980000Y-78449147D01*
X146980001Y-78449148D01*
X148106082Y-78449148D01*
X148080000Y-78546487D01*
X148080000Y-78651809D01*
X148106082Y-78749148D01*
X146960653Y-78749148D01*
X146945574Y-78756830D01*
X146885142Y-78747255D01*
X146860087Y-78729050D01*
X146830562Y-78699524D01*
X146830562Y-78699525D01*
X138279563Y-70148526D01*
X138279563Y-70148525D01*
X138193941Y-70099091D01*
X138193934Y-70099088D01*
X138146185Y-70086294D01*
X138146184Y-70086294D01*
X138098438Y-70073500D01*
X138098436Y-70073500D01*
X138098435Y-70073500D01*
X113996544Y-70073500D01*
X113974496Y-70066336D01*
X113951599Y-70062710D01*
X113945950Y-70057061D01*
X113938353Y-70054593D01*
X113924725Y-70035836D01*
X113908334Y-70019445D01*
X113907084Y-70011555D01*
X113902389Y-70005093D01*
X113902389Y-69981907D01*
X113898763Y-69959013D01*
X113902389Y-69951896D01*
X113902389Y-69943907D01*
X113926539Y-69904497D01*
X114022541Y-69808495D01*
X114077057Y-69780719D01*
X114092544Y-69779500D01*
X143493000Y-69779500D01*
X143551191Y-69798407D01*
G37*
%TD.AperFunction*%
%TA.AperFunction,Conductor*%
G36*
X103822104Y-67970133D02*
G01*
X103830093Y-67970133D01*
X103869501Y-67994282D01*
X103890345Y-68015126D01*
X104062402Y-68130090D01*
X104253580Y-68209279D01*
X104456535Y-68249649D01*
X104456536Y-68249649D01*
X104663464Y-68249649D01*
X104663465Y-68249649D01*
X104866420Y-68209279D01*
X104866425Y-68209276D01*
X104870074Y-68208551D01*
X104930835Y-68215743D01*
X104959392Y-68235645D01*
X105509386Y-68785639D01*
X105612113Y-68844948D01*
X105726691Y-68875648D01*
X105726693Y-68875648D01*
X105845308Y-68875648D01*
X105845309Y-68875648D01*
X105852157Y-68873812D01*
X105858052Y-68872234D01*
X105883673Y-68868861D01*
X106245648Y-68868861D01*
X106303839Y-68887768D01*
X106339803Y-68937268D01*
X106339803Y-68998454D01*
X106315653Y-69037862D01*
X106299428Y-69054088D01*
X106284020Y-69069496D01*
X106169058Y-69241550D01*
X106089869Y-69432729D01*
X106049500Y-69635680D01*
X106049500Y-69842615D01*
X106089869Y-70045566D01*
X106169058Y-70236745D01*
X106284020Y-70408799D01*
X106284023Y-70408803D01*
X106430345Y-70555125D01*
X106602402Y-70670089D01*
X106793580Y-70749278D01*
X106996535Y-70789648D01*
X106996536Y-70789648D01*
X107203464Y-70789648D01*
X107203465Y-70789648D01*
X107406420Y-70749278D01*
X107597598Y-70670089D01*
X107769655Y-70555125D01*
X107915977Y-70408803D01*
X108030941Y-70236746D01*
X108110130Y-70045568D01*
X108150500Y-69842613D01*
X108150500Y-69635683D01*
X108110130Y-69432728D01*
X108030941Y-69241550D01*
X107915977Y-69069493D01*
X107884346Y-69037862D01*
X107856571Y-68983348D01*
X107866142Y-68922916D01*
X107909407Y-68879651D01*
X107954352Y-68868861D01*
X113702414Y-68868861D01*
X113760605Y-68887768D01*
X113796569Y-68937268D01*
X113796569Y-68998454D01*
X113760605Y-69047954D01*
X113751915Y-69053597D01*
X113665436Y-69103525D01*
X113665437Y-69103526D01*
X109580310Y-73188653D01*
X109525793Y-73216430D01*
X109510306Y-73217649D01*
X107867376Y-73217649D01*
X107809185Y-73198742D01*
X107797372Y-73188653D01*
X107331539Y-72722820D01*
X107407008Y-72679248D01*
X107500100Y-72586156D01*
X107543671Y-72510687D01*
X108012575Y-72979591D01*
X108012576Y-72979591D01*
X108083565Y-72881884D01*
X108083569Y-72881879D01*
X108165750Y-72720589D01*
X108221684Y-72548438D01*
X108250001Y-72369659D01*
X108250001Y-72188638D01*
X108221684Y-72009859D01*
X108165750Y-71837708D01*
X108083569Y-71676418D01*
X108083565Y-71676412D01*
X108012576Y-71578705D01*
X108012575Y-71578705D01*
X107543671Y-72047609D01*
X107500100Y-71972142D01*
X107407008Y-71879050D01*
X107331537Y-71835477D01*
X107800443Y-71366573D01*
X107702729Y-71295579D01*
X107541441Y-71213399D01*
X107369290Y-71157465D01*
X107190511Y-71129149D01*
X107009491Y-71129149D01*
X106830711Y-71157465D01*
X106658560Y-71213399D01*
X106497270Y-71295580D01*
X106497266Y-71295582D01*
X106399557Y-71366572D01*
X106868462Y-71835477D01*
X106792994Y-71879050D01*
X106699902Y-71972142D01*
X106656329Y-72047610D01*
X106187424Y-71578705D01*
X106116434Y-71676414D01*
X106116432Y-71676418D01*
X106034251Y-71837708D01*
X105978317Y-72009859D01*
X105950001Y-72188638D01*
X105950001Y-72369659D01*
X105978317Y-72548438D01*
X106034251Y-72720589D01*
X106116431Y-72881877D01*
X106187425Y-72979591D01*
X106656329Y-72510685D01*
X106699902Y-72586156D01*
X106792994Y-72679248D01*
X106868461Y-72722819D01*
X106402629Y-73188653D01*
X106348112Y-73216430D01*
X106332625Y-73217649D01*
X105835436Y-73217649D01*
X105736564Y-73217649D01*
X105688813Y-73230444D01*
X105688812Y-73230443D01*
X105641065Y-73243237D01*
X105641060Y-73243239D01*
X105601143Y-73266284D01*
X105601144Y-73266285D01*
X105555436Y-73292674D01*
X105035290Y-73812818D01*
X104980774Y-73840595D01*
X104927402Y-73834278D01*
X104866420Y-73809019D01*
X104663467Y-73768649D01*
X104663465Y-73768649D01*
X104456535Y-73768649D01*
X104456532Y-73768649D01*
X104253581Y-73809018D01*
X104062402Y-73888207D01*
X103890348Y-74003169D01*
X103890345Y-74003171D01*
X103890345Y-74003172D01*
X103869501Y-74024015D01*
X103814987Y-74051791D01*
X103754555Y-74042220D01*
X103711290Y-73998955D01*
X103700500Y-73954010D01*
X103700500Y-73144288D01*
X103719407Y-73086097D01*
X103768907Y-73050133D01*
X103830093Y-73050133D01*
X103869501Y-73074282D01*
X103890345Y-73095126D01*
X104062402Y-73210090D01*
X104253580Y-73289279D01*
X104456535Y-73329649D01*
X104456536Y-73329649D01*
X104663464Y-73329649D01*
X104663465Y-73329649D01*
X104866420Y-73289279D01*
X105057598Y-73210090D01*
X105229655Y-73095126D01*
X105375977Y-72948804D01*
X105490941Y-72776747D01*
X105570130Y-72585569D01*
X105610500Y-72382614D01*
X105610500Y-72175684D01*
X105570130Y-71972729D01*
X105490941Y-71781551D01*
X105375977Y-71609494D01*
X105229655Y-71463172D01*
X105169373Y-71422893D01*
X105057597Y-71348207D01*
X104866418Y-71269018D01*
X104663467Y-71228649D01*
X104663465Y-71228649D01*
X104456535Y-71228649D01*
X104456532Y-71228649D01*
X104253581Y-71269018D01*
X104062402Y-71348207D01*
X103890348Y-71463169D01*
X103890345Y-71463171D01*
X103890345Y-71463172D01*
X103869501Y-71484015D01*
X103814987Y-71511791D01*
X103754555Y-71502220D01*
X103711290Y-71458955D01*
X103700500Y-71414010D01*
X103700500Y-70604287D01*
X103719407Y-70546096D01*
X103768907Y-70510132D01*
X103830093Y-70510132D01*
X103869501Y-70534281D01*
X103890345Y-70555125D01*
X104062402Y-70670089D01*
X104253580Y-70749278D01*
X104456535Y-70789648D01*
X104456536Y-70789648D01*
X104663464Y-70789648D01*
X104663465Y-70789648D01*
X104866420Y-70749278D01*
X105057598Y-70670089D01*
X105229655Y-70555125D01*
X105375977Y-70408803D01*
X105490941Y-70236746D01*
X105570130Y-70045568D01*
X105610500Y-69842613D01*
X105610500Y-69635683D01*
X105570130Y-69432728D01*
X105490941Y-69241550D01*
X105375977Y-69069493D01*
X105229655Y-68923171D01*
X105229651Y-68923168D01*
X105057597Y-68808206D01*
X104866418Y-68729017D01*
X104663467Y-68688648D01*
X104663465Y-68688648D01*
X104456535Y-68688648D01*
X104456532Y-68688648D01*
X104253581Y-68729017D01*
X104062402Y-68808206D01*
X103890348Y-68923168D01*
X103890345Y-68923170D01*
X103890345Y-68923171D01*
X103869501Y-68944014D01*
X103814987Y-68971790D01*
X103754555Y-68962219D01*
X103711290Y-68918954D01*
X103700500Y-68874009D01*
X103700500Y-68064288D01*
X103707663Y-68042240D01*
X103711290Y-68019343D01*
X103716938Y-68013694D01*
X103719407Y-68006097D01*
X103738163Y-67992469D01*
X103754555Y-67976078D01*
X103762444Y-67974828D01*
X103768907Y-67970133D01*
X103792092Y-67970133D01*
X103814987Y-67966507D01*
X103822104Y-67970133D01*
G37*
%TD.AperFunction*%
%TA.AperFunction,Conductor*%
G36*
X129418748Y-65153304D02*
G01*
X129427740Y-65152081D01*
X129447246Y-65162563D01*
X129468309Y-65169407D01*
X129473643Y-65176748D01*
X129481636Y-65181044D01*
X129491255Y-65200989D01*
X129504273Y-65218907D01*
X129504273Y-65227982D01*
X129508215Y-65236156D01*
X129504273Y-65257946D01*
X129504273Y-65280093D01*
X129497525Y-65295247D01*
X129497323Y-65296364D01*
X129496603Y-65297702D01*
X129433608Y-65406814D01*
X129429271Y-65422995D01*
X129423825Y-65433131D01*
X129406624Y-65456271D01*
X126917244Y-67945653D01*
X126862727Y-67973430D01*
X126847240Y-67974649D01*
X113915542Y-67974649D01*
X113849037Y-67992469D01*
X113800960Y-68005351D01*
X113715666Y-68054597D01*
X113666166Y-68067861D01*
X107955927Y-68067861D01*
X107897736Y-68048954D01*
X107861772Y-67999454D01*
X107861772Y-67938268D01*
X107885921Y-67898859D01*
X107915977Y-67868804D01*
X108030941Y-67696747D01*
X108110130Y-67505569D01*
X108150500Y-67302614D01*
X108150500Y-67095684D01*
X108110130Y-66892729D01*
X108030941Y-66701551D01*
X107915977Y-66529494D01*
X107899907Y-66513424D01*
X109399999Y-66513424D01*
X109399999Y-66686575D01*
X109427083Y-66857579D01*
X109480587Y-67022248D01*
X109559194Y-67176524D01*
X109559196Y-67176528D01*
X109623218Y-67264646D01*
X110129531Y-66758332D01*
X110179919Y-66845606D01*
X110254393Y-66920080D01*
X110341664Y-66970465D01*
X109835351Y-67476778D01*
X109923476Y-67540805D01*
X110077750Y-67619411D01*
X110242419Y-67672915D01*
X110413424Y-67700000D01*
X110586574Y-67700000D01*
X110757578Y-67672915D01*
X110922247Y-67619411D01*
X111076523Y-67540804D01*
X111076529Y-67540800D01*
X111164645Y-67476779D01*
X111164645Y-67476778D01*
X110658332Y-66970466D01*
X110745605Y-66920080D01*
X110820079Y-66845606D01*
X110870465Y-66758333D01*
X111376777Y-67264646D01*
X111396111Y-67263125D01*
X111406997Y-67255216D01*
X111468183Y-67255214D01*
X111517684Y-67291177D01*
X111531037Y-67316672D01*
X111547207Y-67362883D01*
X111627845Y-67472144D01*
X111627847Y-67472146D01*
X111627850Y-67472150D01*
X111627853Y-67472152D01*
X111627855Y-67472154D01*
X111737116Y-67552792D01*
X111737117Y-67552792D01*
X111737118Y-67552793D01*
X111865301Y-67597646D01*
X111895725Y-67600499D01*
X111895727Y-67600500D01*
X111895734Y-67600500D01*
X113104273Y-67600500D01*
X113104273Y-67600499D01*
X113134699Y-67597646D01*
X113262882Y-67552793D01*
X113372150Y-67472150D01*
X113452793Y-67362882D01*
X113497646Y-67234699D01*
X113500499Y-67204273D01*
X113500500Y-67204273D01*
X113500500Y-65995727D01*
X113500499Y-65995725D01*
X113497646Y-65965305D01*
X113497646Y-65965301D01*
X113452793Y-65837118D01*
X113372150Y-65727850D01*
X113372146Y-65727847D01*
X113372144Y-65727845D01*
X113262883Y-65647207D01*
X113134703Y-65602355D01*
X113134694Y-65602353D01*
X113104274Y-65599500D01*
X113104266Y-65599500D01*
X111895734Y-65599500D01*
X111895725Y-65599500D01*
X111865305Y-65602353D01*
X111865296Y-65602355D01*
X111737116Y-65647207D01*
X111627855Y-65727845D01*
X111627845Y-65727855D01*
X111547207Y-65837115D01*
X111531037Y-65883328D01*
X111493971Y-65932008D01*
X111435371Y-65949604D01*
X111399826Y-65937166D01*
X111376777Y-65935352D01*
X110870464Y-66441665D01*
X110820079Y-66354394D01*
X110745605Y-66279920D01*
X110658331Y-66229532D01*
X111164645Y-65723219D01*
X111076527Y-65659197D01*
X111076523Y-65659195D01*
X110922247Y-65580588D01*
X110757578Y-65527084D01*
X110586574Y-65500000D01*
X110413424Y-65500000D01*
X110242419Y-65527084D01*
X110077750Y-65580588D01*
X109923475Y-65659195D01*
X109835351Y-65723219D01*
X110341665Y-66229533D01*
X110254393Y-66279920D01*
X110179919Y-66354394D01*
X110129532Y-66441666D01*
X109623218Y-65935352D01*
X109559194Y-66023476D01*
X109480587Y-66177751D01*
X109427083Y-66342420D01*
X109399999Y-66513424D01*
X107899907Y-66513424D01*
X107887446Y-66500963D01*
X107884164Y-66496905D01*
X107874995Y-66472977D01*
X107863357Y-66450135D01*
X107864200Y-66444806D01*
X107862271Y-66439770D01*
X107868918Y-66415021D01*
X107872928Y-66389703D01*
X107876742Y-66385888D01*
X107878142Y-66380679D01*
X107898068Y-66364562D01*
X107916193Y-66346438D01*
X107922286Y-66344975D01*
X107925715Y-66342202D01*
X107936072Y-66341665D01*
X107961138Y-66335648D01*
X108074158Y-66335648D01*
X108074160Y-66335648D01*
X108188738Y-66304948D01*
X108291465Y-66245638D01*
X109357608Y-65179496D01*
X109412125Y-65151719D01*
X109427612Y-65150500D01*
X129410118Y-65150500D01*
X129418748Y-65153304D01*
G37*
%TD.AperFunction*%
%TD*%
M02*
