M48
; DRILL file {KiCad 9.0.3} date 2026-01-04T22:55:39+0100
; FORMAT={-:-/ absolute / inch / decimal}
; #@! TF.CreationDate,2026-01-04T22:55:39+01:00
; #@! TF.GenerationSoftware,Kicad,Pcbnew,9.0.3
; #@! TF.FileFunction,Plated,1,2,PTH
FMAT,2
INCH
; #@! TA.AperFunction,Plated,PTH,ViaDrill
T1C0.0118
; #@! TA.AperFunction,Plated,PTH,ComponentDrill
T2C0.0157
; #@! TA.AperFunction,Plated,PTH,ComponentDrill
T3C0.0295
; #@! TA.AperFunction,Plated,PTH,ComponentDrill
T4C0.0315
; #@! TA.AperFunction,Plated,PTH,ComponentDrill
T5C0.0394
%
G90
G05
T1
X4.2717Y-2.6181
X4.2717Y-2.6654
X4.2795Y-4.1969
X4.2835Y-4.4016
X4.2835Y-4.5256
X4.3661Y-3.878
X4.378Y-2.7441
X4.3937Y-3.9134
X4.4055Y-4.3937
X4.4213Y-3.9528
X4.4252Y-2.7441
X4.4764Y-4.6398
X4.4764Y-4.9626
X4.5472Y-4.3937
X4.5512Y-4.0906
X4.563Y-3.3071
X4.5669Y-3.8937
X4.5759Y-3.6586
X4.6063Y-2.6614
X4.6181Y-3.0917
X4.6181Y-3.7953
X4.6339Y-4.0551
X4.6614Y-2.6614
X4.6748Y-3.0917
X4.748Y-3.8485
X4.811Y-2.622
X4.8504Y-4.248
X4.8898Y-4.4567
X4.8898Y-4.563
X4.9331Y-2.622
X4.9724Y-3.7485
X5.1142Y-2.5827
X5.1299Y-3.6378
X5.1378Y-2.9862
X5.1378Y-3.1516
X5.1378Y-3.2953
X5.1457Y-3.9488
X5.1457Y-4.0512
X5.1693Y-2.5827
X5.2559Y-3.5866
X5.2559Y-3.8937
X5.2559Y-4.0413
X5.2559Y-4.1929
X5.2598Y-2.9862
X5.2598Y-3.1516
X5.2598Y-3.2953
X5.3661Y-2.9322
X5.3661Y-2.9803
X5.3701Y-2.622
X5.4016Y-3.315
X5.4213Y-4.1929
X5.4724Y-3.8031
X5.4921Y-2.622
X5.5236Y-3.6299
X5.5685Y-3.848
X5.5709Y-3.189
X5.5709Y-3.2343
X5.5984Y-4.1417
X5.6073Y-3.1496
X5.6102Y-3.9449
X5.6102Y-4.0433
X5.6181Y-3.437
X5.6643Y-3.189
X5.6643Y-3.2913
X5.7126Y-3.4945
X5.7175Y-3.3976
X5.7677Y-3.6929
X5.7717Y-3.5945
X5.7953Y-3.0079
X5.8898Y-3.0079
X6.0039Y-3.4941
X6.0039Y-3.8819
X6.1319Y-3.0079
X6.1752Y-4.9173
X6.1772Y-4.5472
X6.2437Y-3.9047
X6.2449Y-3.9768
X6.3209Y-4.1476
X6.3701Y-4.1043
X6.3858Y-4.5472
X6.4055Y-4.1476
X6.4059Y-3.8283
X6.5709Y-2.9409
X6.6063Y-4.5508
X6.7083Y-3.8283
X6.7083Y-4.0472
X6.7323Y-3.7776
X6.7657Y-4.0945
X6.7657Y-4.2441
X6.8209Y-3.7402
X6.8268Y-2.9409
X6.8319Y-3.8283
X6.8319Y-4.0472
X6.939Y-3.8287
X6.939Y-4.1476
X6.9783Y-3.4567
X7.1339Y-3.7165
X7.1949Y-3.7756
X7.1969Y-4.0945
X7.2465Y-3.4543
X7.2657Y-2.6988
X7.3071Y-3.9035
X7.3071Y-3.9764
X7.3366Y-4.9173
X7.3563Y-2.5571
X7.3602Y-4.2756
T3
X5.6867Y-2.7728
X5.6867Y-2.8728
X5.7367Y-2.8228
T4
X4.3504Y-2.622
X4.4291Y-2.622
X4.4748Y-3.0948
X4.4748Y-3.1948
X4.4748Y-3.2948
X4.4748Y-3.3948
X4.4748Y-3.4948
X4.4748Y-3.5948
X4.4748Y-3.6948
X4.4748Y-3.7948
X4.4748Y-3.8948
X4.4748Y-3.9948
X4.4748Y-4.0948
X4.4748Y-4.1948
X4.4748Y-4.2948
X4.4748Y-4.3948
X5.0748Y-3.0948
X5.0748Y-3.1948
X5.0748Y-3.2948
X5.0748Y-3.3948
X5.0748Y-3.4948
X5.0748Y-3.5948
X5.0748Y-3.6948
X5.0748Y-3.7948
X5.0748Y-3.8948
X5.0748Y-3.9948
X5.0748Y-4.0948
X5.0748Y-4.1948
X5.0748Y-4.2948
X5.0748Y-4.3948
X5.8457Y-3.0945
X5.8457Y-3.1945
X5.8457Y-3.2945
X5.8457Y-3.3945
X5.8457Y-3.4945
X5.8457Y-3.5945
X5.8457Y-3.6945
X5.8457Y-3.7945
X5.8457Y-3.8945
X6.1457Y-3.0945
X6.1457Y-3.1945
X6.1457Y-3.2945
X6.1457Y-3.3945
X6.1457Y-3.4945
X6.1457Y-3.5945
X6.1457Y-3.6945
X6.1457Y-3.7945
X6.1457Y-3.8945
X7.0236Y-3.2953
X7.0236Y-3.5945
X7.1024Y-3.2953
X7.1024Y-3.5945
T5
X4.1165Y-2.5456
X4.1165Y-2.6456
X4.1165Y-2.7456
X4.1165Y-2.8456
X4.1165Y-2.9456
X4.1165Y-3.0456
X4.1165Y-3.1456
X4.1165Y-3.2456
X4.1165Y-3.3456
X4.1165Y-3.4456
X4.1165Y-3.5456
X4.1165Y-3.6456
X4.1165Y-3.7456
X4.1165Y-3.8456
X4.1165Y-3.9456
X4.1165Y-4.0456
X4.1165Y-4.1456
X4.1165Y-4.2456
X4.1165Y-4.3456
X4.1165Y-4.4456
X4.1165Y-4.5456
X4.1165Y-4.6456
X4.1165Y-4.7456
X4.1165Y-4.8456
X4.1165Y-4.9456
X4.2165Y-2.5456
X4.2165Y-2.6456
X4.2165Y-2.7456
X4.2165Y-2.9456
X4.2165Y-3.0456
X4.2165Y-3.3456
X4.2165Y-3.4456
X4.2165Y-3.5456
X4.2165Y-3.8456
X4.2165Y-3.9456
X4.2165Y-4.2456
X4.2165Y-4.3456
X4.2165Y-4.4456
X4.2165Y-4.6456
X4.2165Y-4.7456
X4.2165Y-4.8456
X4.2165Y-2.8456
X4.2165Y-3.1456
X4.2165Y-3.2456
X4.2165Y-3.6456
X4.2165Y-3.7456
X4.2165Y-4.0456
X4.2165Y-4.1456
X4.2165Y-4.5456
X4.2165Y-4.9456
T2
G00X7.0906Y-4.3563
M15
G01X7.0512Y-4.3563
M16
G05
G00X7.0512Y-4.75
M15
G01X7.0906Y-4.75
M16
G05
G00X7.2677Y-4.5728
M15
G01X7.2677Y-4.5335
M16
G05
T4
G00X7.0846Y-4.4547
M15
G01X7.0571Y-4.4547
M16
G05
G00X7.0571Y-4.6516
M15
G01X7.0846Y-4.6516
M16
G05
M30
